G04 #@! TF.GenerationSoftware,KiCad,Pcbnew,(5.1.5-0-10_14)*
G04 #@! TF.CreationDate,2021-03-12T21:15:51+01:00*
G04 #@! TF.ProjectId,es_gateio,65735f67-6174-4656-996f-2e6b69636164,rev?*
G04 #@! TF.SameCoordinates,Original*
G04 #@! TF.FileFunction,Copper,L1,Top*
G04 #@! TF.FilePolarity,Positive*
%FSLAX46Y46*%
G04 Gerber Fmt 4.6, Leading zero omitted, Abs format (unit mm)*
G04 Created by KiCad (PCBNEW (5.1.5-0-10_14)) date 2021-03-12 21:15:51*
%MOMM*%
%LPD*%
G04 APERTURE LIST*
%ADD10O,1.700000X1.700000*%
%ADD11R,1.700000X1.700000*%
%ADD12C,0.100000*%
%ADD13R,1.300000X1.700000*%
%ADD14R,0.900000X0.800000*%
%ADD15C,0.250000*%
%ADD16C,0.254000*%
G04 APERTURE END LIST*
D10*
X99060000Y-68326000D03*
X99060000Y-65786000D03*
X101600000Y-68326000D03*
X101600000Y-65786000D03*
X104140000Y-68326000D03*
D11*
X104140000Y-65786000D03*
G04 #@! TA.AperFunction,SMDPad,CuDef*
D12*
G36*
X107519505Y-57467204D02*
G01*
X107543773Y-57470804D01*
X107567572Y-57476765D01*
X107590671Y-57485030D01*
X107612850Y-57495520D01*
X107633893Y-57508132D01*
X107653599Y-57522747D01*
X107671777Y-57539223D01*
X107688253Y-57557401D01*
X107702868Y-57577107D01*
X107715480Y-57598150D01*
X107725970Y-57620329D01*
X107734235Y-57643428D01*
X107740196Y-57667227D01*
X107743796Y-57691495D01*
X107745000Y-57715999D01*
X107745000Y-58616001D01*
X107743796Y-58640505D01*
X107740196Y-58664773D01*
X107734235Y-58688572D01*
X107725970Y-58711671D01*
X107715480Y-58733850D01*
X107702868Y-58754893D01*
X107688253Y-58774599D01*
X107671777Y-58792777D01*
X107653599Y-58809253D01*
X107633893Y-58823868D01*
X107612850Y-58836480D01*
X107590671Y-58846970D01*
X107567572Y-58855235D01*
X107543773Y-58861196D01*
X107519505Y-58864796D01*
X107495001Y-58866000D01*
X106844999Y-58866000D01*
X106820495Y-58864796D01*
X106796227Y-58861196D01*
X106772428Y-58855235D01*
X106749329Y-58846970D01*
X106727150Y-58836480D01*
X106706107Y-58823868D01*
X106686401Y-58809253D01*
X106668223Y-58792777D01*
X106651747Y-58774599D01*
X106637132Y-58754893D01*
X106624520Y-58733850D01*
X106614030Y-58711671D01*
X106605765Y-58688572D01*
X106599804Y-58664773D01*
X106596204Y-58640505D01*
X106595000Y-58616001D01*
X106595000Y-57715999D01*
X106596204Y-57691495D01*
X106599804Y-57667227D01*
X106605765Y-57643428D01*
X106614030Y-57620329D01*
X106624520Y-57598150D01*
X106637132Y-57577107D01*
X106651747Y-57557401D01*
X106668223Y-57539223D01*
X106686401Y-57522747D01*
X106706107Y-57508132D01*
X106727150Y-57495520D01*
X106749329Y-57485030D01*
X106772428Y-57476765D01*
X106796227Y-57470804D01*
X106820495Y-57467204D01*
X106844999Y-57466000D01*
X107495001Y-57466000D01*
X107519505Y-57467204D01*
G37*
G04 #@! TD.AperFunction*
G04 #@! TA.AperFunction,SMDPad,CuDef*
G36*
X109569505Y-57467204D02*
G01*
X109593773Y-57470804D01*
X109617572Y-57476765D01*
X109640671Y-57485030D01*
X109662850Y-57495520D01*
X109683893Y-57508132D01*
X109703599Y-57522747D01*
X109721777Y-57539223D01*
X109738253Y-57557401D01*
X109752868Y-57577107D01*
X109765480Y-57598150D01*
X109775970Y-57620329D01*
X109784235Y-57643428D01*
X109790196Y-57667227D01*
X109793796Y-57691495D01*
X109795000Y-57715999D01*
X109795000Y-58616001D01*
X109793796Y-58640505D01*
X109790196Y-58664773D01*
X109784235Y-58688572D01*
X109775970Y-58711671D01*
X109765480Y-58733850D01*
X109752868Y-58754893D01*
X109738253Y-58774599D01*
X109721777Y-58792777D01*
X109703599Y-58809253D01*
X109683893Y-58823868D01*
X109662850Y-58836480D01*
X109640671Y-58846970D01*
X109617572Y-58855235D01*
X109593773Y-58861196D01*
X109569505Y-58864796D01*
X109545001Y-58866000D01*
X108894999Y-58866000D01*
X108870495Y-58864796D01*
X108846227Y-58861196D01*
X108822428Y-58855235D01*
X108799329Y-58846970D01*
X108777150Y-58836480D01*
X108756107Y-58823868D01*
X108736401Y-58809253D01*
X108718223Y-58792777D01*
X108701747Y-58774599D01*
X108687132Y-58754893D01*
X108674520Y-58733850D01*
X108664030Y-58711671D01*
X108655765Y-58688572D01*
X108649804Y-58664773D01*
X108646204Y-58640505D01*
X108645000Y-58616001D01*
X108645000Y-57715999D01*
X108646204Y-57691495D01*
X108649804Y-57667227D01*
X108655765Y-57643428D01*
X108664030Y-57620329D01*
X108674520Y-57598150D01*
X108687132Y-57577107D01*
X108701747Y-57557401D01*
X108718223Y-57539223D01*
X108736401Y-57522747D01*
X108756107Y-57508132D01*
X108777150Y-57495520D01*
X108799329Y-57485030D01*
X108822428Y-57476765D01*
X108846227Y-57470804D01*
X108870495Y-57467204D01*
X108894999Y-57466000D01*
X109545001Y-57466000D01*
X109569505Y-57467204D01*
G37*
G04 #@! TD.AperFunction*
D10*
X99060000Y-60706000D03*
X99060000Y-58166000D03*
X101600000Y-60706000D03*
X101600000Y-58166000D03*
X104140000Y-60706000D03*
D11*
X104140000Y-58166000D03*
D13*
X111506000Y-58166000D03*
X115006000Y-58166000D03*
G04 #@! TA.AperFunction,SMDPad,CuDef*
D12*
G36*
X114395505Y-63817204D02*
G01*
X114419773Y-63820804D01*
X114443572Y-63826765D01*
X114466671Y-63835030D01*
X114488850Y-63845520D01*
X114509893Y-63858132D01*
X114529599Y-63872747D01*
X114547777Y-63889223D01*
X114564253Y-63907401D01*
X114578868Y-63927107D01*
X114591480Y-63948150D01*
X114601970Y-63970329D01*
X114610235Y-63993428D01*
X114616196Y-64017227D01*
X114619796Y-64041495D01*
X114621000Y-64065999D01*
X114621000Y-64966001D01*
X114619796Y-64990505D01*
X114616196Y-65014773D01*
X114610235Y-65038572D01*
X114601970Y-65061671D01*
X114591480Y-65083850D01*
X114578868Y-65104893D01*
X114564253Y-65124599D01*
X114547777Y-65142777D01*
X114529599Y-65159253D01*
X114509893Y-65173868D01*
X114488850Y-65186480D01*
X114466671Y-65196970D01*
X114443572Y-65205235D01*
X114419773Y-65211196D01*
X114395505Y-65214796D01*
X114371001Y-65216000D01*
X113720999Y-65216000D01*
X113696495Y-65214796D01*
X113672227Y-65211196D01*
X113648428Y-65205235D01*
X113625329Y-65196970D01*
X113603150Y-65186480D01*
X113582107Y-65173868D01*
X113562401Y-65159253D01*
X113544223Y-65142777D01*
X113527747Y-65124599D01*
X113513132Y-65104893D01*
X113500520Y-65083850D01*
X113490030Y-65061671D01*
X113481765Y-65038572D01*
X113475804Y-65014773D01*
X113472204Y-64990505D01*
X113471000Y-64966001D01*
X113471000Y-64065999D01*
X113472204Y-64041495D01*
X113475804Y-64017227D01*
X113481765Y-63993428D01*
X113490030Y-63970329D01*
X113500520Y-63948150D01*
X113513132Y-63927107D01*
X113527747Y-63907401D01*
X113544223Y-63889223D01*
X113562401Y-63872747D01*
X113582107Y-63858132D01*
X113603150Y-63845520D01*
X113625329Y-63835030D01*
X113648428Y-63826765D01*
X113672227Y-63820804D01*
X113696495Y-63817204D01*
X113720999Y-63816000D01*
X114371001Y-63816000D01*
X114395505Y-63817204D01*
G37*
G04 #@! TD.AperFunction*
G04 #@! TA.AperFunction,SMDPad,CuDef*
G36*
X112345505Y-63817204D02*
G01*
X112369773Y-63820804D01*
X112393572Y-63826765D01*
X112416671Y-63835030D01*
X112438850Y-63845520D01*
X112459893Y-63858132D01*
X112479599Y-63872747D01*
X112497777Y-63889223D01*
X112514253Y-63907401D01*
X112528868Y-63927107D01*
X112541480Y-63948150D01*
X112551970Y-63970329D01*
X112560235Y-63993428D01*
X112566196Y-64017227D01*
X112569796Y-64041495D01*
X112571000Y-64065999D01*
X112571000Y-64966001D01*
X112569796Y-64990505D01*
X112566196Y-65014773D01*
X112560235Y-65038572D01*
X112551970Y-65061671D01*
X112541480Y-65083850D01*
X112528868Y-65104893D01*
X112514253Y-65124599D01*
X112497777Y-65142777D01*
X112479599Y-65159253D01*
X112459893Y-65173868D01*
X112438850Y-65186480D01*
X112416671Y-65196970D01*
X112393572Y-65205235D01*
X112369773Y-65211196D01*
X112345505Y-65214796D01*
X112321001Y-65216000D01*
X111670999Y-65216000D01*
X111646495Y-65214796D01*
X111622227Y-65211196D01*
X111598428Y-65205235D01*
X111575329Y-65196970D01*
X111553150Y-65186480D01*
X111532107Y-65173868D01*
X111512401Y-65159253D01*
X111494223Y-65142777D01*
X111477747Y-65124599D01*
X111463132Y-65104893D01*
X111450520Y-65083850D01*
X111440030Y-65061671D01*
X111431765Y-65038572D01*
X111425804Y-65014773D01*
X111422204Y-64990505D01*
X111421000Y-64966001D01*
X111421000Y-64065999D01*
X111422204Y-64041495D01*
X111425804Y-64017227D01*
X111431765Y-63993428D01*
X111440030Y-63970329D01*
X111450520Y-63948150D01*
X111463132Y-63927107D01*
X111477747Y-63907401D01*
X111494223Y-63889223D01*
X111512401Y-63872747D01*
X111532107Y-63858132D01*
X111553150Y-63845520D01*
X111575329Y-63835030D01*
X111598428Y-63826765D01*
X111622227Y-63820804D01*
X111646495Y-63817204D01*
X111670999Y-63816000D01*
X112321001Y-63816000D01*
X112345505Y-63817204D01*
G37*
G04 #@! TD.AperFunction*
G04 #@! TA.AperFunction,SMDPad,CuDef*
G36*
X107528505Y-65087204D02*
G01*
X107552773Y-65090804D01*
X107576572Y-65096765D01*
X107599671Y-65105030D01*
X107621850Y-65115520D01*
X107642893Y-65128132D01*
X107662599Y-65142747D01*
X107680777Y-65159223D01*
X107697253Y-65177401D01*
X107711868Y-65197107D01*
X107724480Y-65218150D01*
X107734970Y-65240329D01*
X107743235Y-65263428D01*
X107749196Y-65287227D01*
X107752796Y-65311495D01*
X107754000Y-65335999D01*
X107754000Y-66236001D01*
X107752796Y-66260505D01*
X107749196Y-66284773D01*
X107743235Y-66308572D01*
X107734970Y-66331671D01*
X107724480Y-66353850D01*
X107711868Y-66374893D01*
X107697253Y-66394599D01*
X107680777Y-66412777D01*
X107662599Y-66429253D01*
X107642893Y-66443868D01*
X107621850Y-66456480D01*
X107599671Y-66466970D01*
X107576572Y-66475235D01*
X107552773Y-66481196D01*
X107528505Y-66484796D01*
X107504001Y-66486000D01*
X106853999Y-66486000D01*
X106829495Y-66484796D01*
X106805227Y-66481196D01*
X106781428Y-66475235D01*
X106758329Y-66466970D01*
X106736150Y-66456480D01*
X106715107Y-66443868D01*
X106695401Y-66429253D01*
X106677223Y-66412777D01*
X106660747Y-66394599D01*
X106646132Y-66374893D01*
X106633520Y-66353850D01*
X106623030Y-66331671D01*
X106614765Y-66308572D01*
X106608804Y-66284773D01*
X106605204Y-66260505D01*
X106604000Y-66236001D01*
X106604000Y-65335999D01*
X106605204Y-65311495D01*
X106608804Y-65287227D01*
X106614765Y-65263428D01*
X106623030Y-65240329D01*
X106633520Y-65218150D01*
X106646132Y-65197107D01*
X106660747Y-65177401D01*
X106677223Y-65159223D01*
X106695401Y-65142747D01*
X106715107Y-65128132D01*
X106736150Y-65115520D01*
X106758329Y-65105030D01*
X106781428Y-65096765D01*
X106805227Y-65090804D01*
X106829495Y-65087204D01*
X106853999Y-65086000D01*
X107504001Y-65086000D01*
X107528505Y-65087204D01*
G37*
G04 #@! TD.AperFunction*
G04 #@! TA.AperFunction,SMDPad,CuDef*
G36*
X109578505Y-65087204D02*
G01*
X109602773Y-65090804D01*
X109626572Y-65096765D01*
X109649671Y-65105030D01*
X109671850Y-65115520D01*
X109692893Y-65128132D01*
X109712599Y-65142747D01*
X109730777Y-65159223D01*
X109747253Y-65177401D01*
X109761868Y-65197107D01*
X109774480Y-65218150D01*
X109784970Y-65240329D01*
X109793235Y-65263428D01*
X109799196Y-65287227D01*
X109802796Y-65311495D01*
X109804000Y-65335999D01*
X109804000Y-66236001D01*
X109802796Y-66260505D01*
X109799196Y-66284773D01*
X109793235Y-66308572D01*
X109784970Y-66331671D01*
X109774480Y-66353850D01*
X109761868Y-66374893D01*
X109747253Y-66394599D01*
X109730777Y-66412777D01*
X109712599Y-66429253D01*
X109692893Y-66443868D01*
X109671850Y-66456480D01*
X109649671Y-66466970D01*
X109626572Y-66475235D01*
X109602773Y-66481196D01*
X109578505Y-66484796D01*
X109554001Y-66486000D01*
X108903999Y-66486000D01*
X108879495Y-66484796D01*
X108855227Y-66481196D01*
X108831428Y-66475235D01*
X108808329Y-66466970D01*
X108786150Y-66456480D01*
X108765107Y-66443868D01*
X108745401Y-66429253D01*
X108727223Y-66412777D01*
X108710747Y-66394599D01*
X108696132Y-66374893D01*
X108683520Y-66353850D01*
X108673030Y-66331671D01*
X108664765Y-66308572D01*
X108658804Y-66284773D01*
X108655204Y-66260505D01*
X108654000Y-66236001D01*
X108654000Y-65335999D01*
X108655204Y-65311495D01*
X108658804Y-65287227D01*
X108664765Y-65263428D01*
X108673030Y-65240329D01*
X108683520Y-65218150D01*
X108696132Y-65197107D01*
X108710747Y-65177401D01*
X108727223Y-65159223D01*
X108745401Y-65142747D01*
X108765107Y-65128132D01*
X108786150Y-65115520D01*
X108808329Y-65105030D01*
X108831428Y-65096765D01*
X108855227Y-65090804D01*
X108879495Y-65087204D01*
X108903999Y-65086000D01*
X109554001Y-65086000D01*
X109578505Y-65087204D01*
G37*
G04 #@! TD.AperFunction*
G04 #@! TA.AperFunction,SMDPad,CuDef*
G36*
X107528505Y-67627204D02*
G01*
X107552773Y-67630804D01*
X107576572Y-67636765D01*
X107599671Y-67645030D01*
X107621850Y-67655520D01*
X107642893Y-67668132D01*
X107662599Y-67682747D01*
X107680777Y-67699223D01*
X107697253Y-67717401D01*
X107711868Y-67737107D01*
X107724480Y-67758150D01*
X107734970Y-67780329D01*
X107743235Y-67803428D01*
X107749196Y-67827227D01*
X107752796Y-67851495D01*
X107754000Y-67875999D01*
X107754000Y-68776001D01*
X107752796Y-68800505D01*
X107749196Y-68824773D01*
X107743235Y-68848572D01*
X107734970Y-68871671D01*
X107724480Y-68893850D01*
X107711868Y-68914893D01*
X107697253Y-68934599D01*
X107680777Y-68952777D01*
X107662599Y-68969253D01*
X107642893Y-68983868D01*
X107621850Y-68996480D01*
X107599671Y-69006970D01*
X107576572Y-69015235D01*
X107552773Y-69021196D01*
X107528505Y-69024796D01*
X107504001Y-69026000D01*
X106853999Y-69026000D01*
X106829495Y-69024796D01*
X106805227Y-69021196D01*
X106781428Y-69015235D01*
X106758329Y-69006970D01*
X106736150Y-68996480D01*
X106715107Y-68983868D01*
X106695401Y-68969253D01*
X106677223Y-68952777D01*
X106660747Y-68934599D01*
X106646132Y-68914893D01*
X106633520Y-68893850D01*
X106623030Y-68871671D01*
X106614765Y-68848572D01*
X106608804Y-68824773D01*
X106605204Y-68800505D01*
X106604000Y-68776001D01*
X106604000Y-67875999D01*
X106605204Y-67851495D01*
X106608804Y-67827227D01*
X106614765Y-67803428D01*
X106623030Y-67780329D01*
X106633520Y-67758150D01*
X106646132Y-67737107D01*
X106660747Y-67717401D01*
X106677223Y-67699223D01*
X106695401Y-67682747D01*
X106715107Y-67668132D01*
X106736150Y-67655520D01*
X106758329Y-67645030D01*
X106781428Y-67636765D01*
X106805227Y-67630804D01*
X106829495Y-67627204D01*
X106853999Y-67626000D01*
X107504001Y-67626000D01*
X107528505Y-67627204D01*
G37*
G04 #@! TD.AperFunction*
G04 #@! TA.AperFunction,SMDPad,CuDef*
G36*
X109578505Y-67627204D02*
G01*
X109602773Y-67630804D01*
X109626572Y-67636765D01*
X109649671Y-67645030D01*
X109671850Y-67655520D01*
X109692893Y-67668132D01*
X109712599Y-67682747D01*
X109730777Y-67699223D01*
X109747253Y-67717401D01*
X109761868Y-67737107D01*
X109774480Y-67758150D01*
X109784970Y-67780329D01*
X109793235Y-67803428D01*
X109799196Y-67827227D01*
X109802796Y-67851495D01*
X109804000Y-67875999D01*
X109804000Y-68776001D01*
X109802796Y-68800505D01*
X109799196Y-68824773D01*
X109793235Y-68848572D01*
X109784970Y-68871671D01*
X109774480Y-68893850D01*
X109761868Y-68914893D01*
X109747253Y-68934599D01*
X109730777Y-68952777D01*
X109712599Y-68969253D01*
X109692893Y-68983868D01*
X109671850Y-68996480D01*
X109649671Y-69006970D01*
X109626572Y-69015235D01*
X109602773Y-69021196D01*
X109578505Y-69024796D01*
X109554001Y-69026000D01*
X108903999Y-69026000D01*
X108879495Y-69024796D01*
X108855227Y-69021196D01*
X108831428Y-69015235D01*
X108808329Y-69006970D01*
X108786150Y-68996480D01*
X108765107Y-68983868D01*
X108745401Y-68969253D01*
X108727223Y-68952777D01*
X108710747Y-68934599D01*
X108696132Y-68914893D01*
X108683520Y-68893850D01*
X108673030Y-68871671D01*
X108664765Y-68848572D01*
X108658804Y-68824773D01*
X108655204Y-68800505D01*
X108654000Y-68776001D01*
X108654000Y-67875999D01*
X108655204Y-67851495D01*
X108658804Y-67827227D01*
X108664765Y-67803428D01*
X108673030Y-67780329D01*
X108683520Y-67758150D01*
X108696132Y-67737107D01*
X108710747Y-67717401D01*
X108727223Y-67699223D01*
X108745401Y-67682747D01*
X108765107Y-67668132D01*
X108786150Y-67655520D01*
X108808329Y-67645030D01*
X108831428Y-67636765D01*
X108855227Y-67630804D01*
X108879495Y-67627204D01*
X108903999Y-67626000D01*
X109554001Y-67626000D01*
X109578505Y-67627204D01*
G37*
G04 #@! TD.AperFunction*
G04 #@! TA.AperFunction,SMDPad,CuDef*
G36*
X107528505Y-60007204D02*
G01*
X107552773Y-60010804D01*
X107576572Y-60016765D01*
X107599671Y-60025030D01*
X107621850Y-60035520D01*
X107642893Y-60048132D01*
X107662599Y-60062747D01*
X107680777Y-60079223D01*
X107697253Y-60097401D01*
X107711868Y-60117107D01*
X107724480Y-60138150D01*
X107734970Y-60160329D01*
X107743235Y-60183428D01*
X107749196Y-60207227D01*
X107752796Y-60231495D01*
X107754000Y-60255999D01*
X107754000Y-61156001D01*
X107752796Y-61180505D01*
X107749196Y-61204773D01*
X107743235Y-61228572D01*
X107734970Y-61251671D01*
X107724480Y-61273850D01*
X107711868Y-61294893D01*
X107697253Y-61314599D01*
X107680777Y-61332777D01*
X107662599Y-61349253D01*
X107642893Y-61363868D01*
X107621850Y-61376480D01*
X107599671Y-61386970D01*
X107576572Y-61395235D01*
X107552773Y-61401196D01*
X107528505Y-61404796D01*
X107504001Y-61406000D01*
X106853999Y-61406000D01*
X106829495Y-61404796D01*
X106805227Y-61401196D01*
X106781428Y-61395235D01*
X106758329Y-61386970D01*
X106736150Y-61376480D01*
X106715107Y-61363868D01*
X106695401Y-61349253D01*
X106677223Y-61332777D01*
X106660747Y-61314599D01*
X106646132Y-61294893D01*
X106633520Y-61273850D01*
X106623030Y-61251671D01*
X106614765Y-61228572D01*
X106608804Y-61204773D01*
X106605204Y-61180505D01*
X106604000Y-61156001D01*
X106604000Y-60255999D01*
X106605204Y-60231495D01*
X106608804Y-60207227D01*
X106614765Y-60183428D01*
X106623030Y-60160329D01*
X106633520Y-60138150D01*
X106646132Y-60117107D01*
X106660747Y-60097401D01*
X106677223Y-60079223D01*
X106695401Y-60062747D01*
X106715107Y-60048132D01*
X106736150Y-60035520D01*
X106758329Y-60025030D01*
X106781428Y-60016765D01*
X106805227Y-60010804D01*
X106829495Y-60007204D01*
X106853999Y-60006000D01*
X107504001Y-60006000D01*
X107528505Y-60007204D01*
G37*
G04 #@! TD.AperFunction*
G04 #@! TA.AperFunction,SMDPad,CuDef*
G36*
X109578505Y-60007204D02*
G01*
X109602773Y-60010804D01*
X109626572Y-60016765D01*
X109649671Y-60025030D01*
X109671850Y-60035520D01*
X109692893Y-60048132D01*
X109712599Y-60062747D01*
X109730777Y-60079223D01*
X109747253Y-60097401D01*
X109761868Y-60117107D01*
X109774480Y-60138150D01*
X109784970Y-60160329D01*
X109793235Y-60183428D01*
X109799196Y-60207227D01*
X109802796Y-60231495D01*
X109804000Y-60255999D01*
X109804000Y-61156001D01*
X109802796Y-61180505D01*
X109799196Y-61204773D01*
X109793235Y-61228572D01*
X109784970Y-61251671D01*
X109774480Y-61273850D01*
X109761868Y-61294893D01*
X109747253Y-61314599D01*
X109730777Y-61332777D01*
X109712599Y-61349253D01*
X109692893Y-61363868D01*
X109671850Y-61376480D01*
X109649671Y-61386970D01*
X109626572Y-61395235D01*
X109602773Y-61401196D01*
X109578505Y-61404796D01*
X109554001Y-61406000D01*
X108903999Y-61406000D01*
X108879495Y-61404796D01*
X108855227Y-61401196D01*
X108831428Y-61395235D01*
X108808329Y-61386970D01*
X108786150Y-61376480D01*
X108765107Y-61363868D01*
X108745401Y-61349253D01*
X108727223Y-61332777D01*
X108710747Y-61314599D01*
X108696132Y-61294893D01*
X108683520Y-61273850D01*
X108673030Y-61251671D01*
X108664765Y-61228572D01*
X108658804Y-61204773D01*
X108655204Y-61180505D01*
X108654000Y-61156001D01*
X108654000Y-60255999D01*
X108655204Y-60231495D01*
X108658804Y-60207227D01*
X108664765Y-60183428D01*
X108673030Y-60160329D01*
X108683520Y-60138150D01*
X108696132Y-60117107D01*
X108710747Y-60097401D01*
X108727223Y-60079223D01*
X108745401Y-60062747D01*
X108765107Y-60048132D01*
X108786150Y-60035520D01*
X108808329Y-60025030D01*
X108831428Y-60016765D01*
X108855227Y-60010804D01*
X108879495Y-60007204D01*
X108903999Y-60006000D01*
X109554001Y-60006000D01*
X109578505Y-60007204D01*
G37*
G04 #@! TD.AperFunction*
G04 #@! TA.AperFunction,SMDPad,CuDef*
G36*
X109587505Y-62547204D02*
G01*
X109611773Y-62550804D01*
X109635572Y-62556765D01*
X109658671Y-62565030D01*
X109680850Y-62575520D01*
X109701893Y-62588132D01*
X109721599Y-62602747D01*
X109739777Y-62619223D01*
X109756253Y-62637401D01*
X109770868Y-62657107D01*
X109783480Y-62678150D01*
X109793970Y-62700329D01*
X109802235Y-62723428D01*
X109808196Y-62747227D01*
X109811796Y-62771495D01*
X109813000Y-62795999D01*
X109813000Y-63696001D01*
X109811796Y-63720505D01*
X109808196Y-63744773D01*
X109802235Y-63768572D01*
X109793970Y-63791671D01*
X109783480Y-63813850D01*
X109770868Y-63834893D01*
X109756253Y-63854599D01*
X109739777Y-63872777D01*
X109721599Y-63889253D01*
X109701893Y-63903868D01*
X109680850Y-63916480D01*
X109658671Y-63926970D01*
X109635572Y-63935235D01*
X109611773Y-63941196D01*
X109587505Y-63944796D01*
X109563001Y-63946000D01*
X108912999Y-63946000D01*
X108888495Y-63944796D01*
X108864227Y-63941196D01*
X108840428Y-63935235D01*
X108817329Y-63926970D01*
X108795150Y-63916480D01*
X108774107Y-63903868D01*
X108754401Y-63889253D01*
X108736223Y-63872777D01*
X108719747Y-63854599D01*
X108705132Y-63834893D01*
X108692520Y-63813850D01*
X108682030Y-63791671D01*
X108673765Y-63768572D01*
X108667804Y-63744773D01*
X108664204Y-63720505D01*
X108663000Y-63696001D01*
X108663000Y-62795999D01*
X108664204Y-62771495D01*
X108667804Y-62747227D01*
X108673765Y-62723428D01*
X108682030Y-62700329D01*
X108692520Y-62678150D01*
X108705132Y-62657107D01*
X108719747Y-62637401D01*
X108736223Y-62619223D01*
X108754401Y-62602747D01*
X108774107Y-62588132D01*
X108795150Y-62575520D01*
X108817329Y-62565030D01*
X108840428Y-62556765D01*
X108864227Y-62550804D01*
X108888495Y-62547204D01*
X108912999Y-62546000D01*
X109563001Y-62546000D01*
X109587505Y-62547204D01*
G37*
G04 #@! TD.AperFunction*
G04 #@! TA.AperFunction,SMDPad,CuDef*
G36*
X107537505Y-62547204D02*
G01*
X107561773Y-62550804D01*
X107585572Y-62556765D01*
X107608671Y-62565030D01*
X107630850Y-62575520D01*
X107651893Y-62588132D01*
X107671599Y-62602747D01*
X107689777Y-62619223D01*
X107706253Y-62637401D01*
X107720868Y-62657107D01*
X107733480Y-62678150D01*
X107743970Y-62700329D01*
X107752235Y-62723428D01*
X107758196Y-62747227D01*
X107761796Y-62771495D01*
X107763000Y-62795999D01*
X107763000Y-63696001D01*
X107761796Y-63720505D01*
X107758196Y-63744773D01*
X107752235Y-63768572D01*
X107743970Y-63791671D01*
X107733480Y-63813850D01*
X107720868Y-63834893D01*
X107706253Y-63854599D01*
X107689777Y-63872777D01*
X107671599Y-63889253D01*
X107651893Y-63903868D01*
X107630850Y-63916480D01*
X107608671Y-63926970D01*
X107585572Y-63935235D01*
X107561773Y-63941196D01*
X107537505Y-63944796D01*
X107513001Y-63946000D01*
X106862999Y-63946000D01*
X106838495Y-63944796D01*
X106814227Y-63941196D01*
X106790428Y-63935235D01*
X106767329Y-63926970D01*
X106745150Y-63916480D01*
X106724107Y-63903868D01*
X106704401Y-63889253D01*
X106686223Y-63872777D01*
X106669747Y-63854599D01*
X106655132Y-63834893D01*
X106642520Y-63813850D01*
X106632030Y-63791671D01*
X106623765Y-63768572D01*
X106617804Y-63744773D01*
X106614204Y-63720505D01*
X106613000Y-63696001D01*
X106613000Y-62795999D01*
X106614204Y-62771495D01*
X106617804Y-62747227D01*
X106623765Y-62723428D01*
X106632030Y-62700329D01*
X106642520Y-62678150D01*
X106655132Y-62657107D01*
X106669747Y-62637401D01*
X106686223Y-62619223D01*
X106704401Y-62602747D01*
X106724107Y-62588132D01*
X106745150Y-62575520D01*
X106767329Y-62565030D01*
X106790428Y-62556765D01*
X106814227Y-62550804D01*
X106838495Y-62547204D01*
X106862999Y-62546000D01*
X107513001Y-62546000D01*
X107537505Y-62547204D01*
G37*
G04 #@! TD.AperFunction*
D14*
X112030000Y-67564000D03*
X114030000Y-66614000D03*
X114030000Y-68514000D03*
X112096000Y-61452000D03*
X114096000Y-60502000D03*
X114096000Y-62402000D03*
D15*
X111506000Y-58166000D02*
X109220000Y-58166000D01*
X114096000Y-63052000D02*
X114096000Y-62402000D01*
X113902000Y-63246000D02*
X114096000Y-63052000D01*
X109238000Y-63246000D02*
X113902000Y-63246000D01*
X115006000Y-59266000D02*
X115006000Y-58166000D01*
X115006000Y-62192000D02*
X115006000Y-59266000D01*
X114796000Y-62402000D02*
X115006000Y-62192000D01*
X114096000Y-62402000D02*
X114796000Y-62402000D01*
X107188000Y-63246000D02*
X104140000Y-63246000D01*
X104140000Y-63246000D02*
X101600000Y-60706000D01*
X113396000Y-61152000D02*
X114046000Y-60502000D01*
X114046000Y-60502000D02*
X114096000Y-60502000D01*
X112762012Y-62220990D02*
X113396000Y-61587002D01*
X107513010Y-62220990D02*
X112762012Y-62220990D01*
X113396000Y-61587002D02*
X113396000Y-61152000D01*
X107188000Y-62546000D02*
X107513010Y-62220990D01*
X107188000Y-63246000D02*
X107188000Y-62546000D01*
X99909999Y-69175999D02*
X99060000Y-68326000D01*
X100235001Y-69501001D02*
X99909999Y-69175999D01*
X114478001Y-69501001D02*
X100235001Y-69501001D01*
X114805001Y-69174001D02*
X114478001Y-69501001D01*
X114805001Y-66689001D02*
X114805001Y-69174001D01*
X114730000Y-66614000D02*
X114805001Y-66689001D01*
X114030000Y-66614000D02*
X114730000Y-66614000D01*
X101600000Y-60706000D02*
X99060000Y-60706000D01*
X99909999Y-66635999D02*
X99060000Y-65786000D01*
X100235001Y-66961001D02*
X99909999Y-66635999D01*
X105428999Y-66961001D02*
X100235001Y-66961001D01*
X106604000Y-65786000D02*
X105428999Y-66961001D01*
X107179000Y-65786000D02*
X106604000Y-65786000D01*
X102449999Y-57316001D02*
X101600000Y-58166000D01*
X106595000Y-58166000D02*
X105419999Y-56990999D01*
X102775001Y-56990999D02*
X102449999Y-57316001D01*
X105419999Y-56990999D02*
X102775001Y-56990999D01*
X107170000Y-58166000D02*
X106595000Y-58166000D01*
X107179000Y-60706000D02*
X104140000Y-60706000D01*
X107504010Y-61731010D02*
X107179000Y-61406000D01*
X107179000Y-61406000D02*
X107179000Y-60706000D01*
X109792180Y-61731010D02*
X107504010Y-61731010D01*
X110071190Y-61452000D02*
X109792180Y-61731010D01*
X112096000Y-61452000D02*
X110071190Y-61452000D01*
X105240000Y-58166000D02*
X104140000Y-58166000D01*
X106265010Y-59191010D02*
X105240000Y-58166000D01*
X107252200Y-59191010D02*
X106265010Y-59191010D01*
X108767190Y-60706000D02*
X107252200Y-59191010D01*
X109229000Y-60706000D02*
X108767190Y-60706000D01*
X102870000Y-64516000D02*
X111996000Y-64516000D01*
X101600000Y-65786000D02*
X102870000Y-64516000D01*
X107179000Y-68326000D02*
X104140000Y-68326000D01*
X111330000Y-67564000D02*
X112030000Y-67564000D01*
X110307000Y-67564000D02*
X111330000Y-67564000D01*
X109229000Y-66486000D02*
X110307000Y-67564000D01*
X109229000Y-65786000D02*
X109229000Y-66486000D01*
X112030000Y-66532000D02*
X114046000Y-64516000D01*
X112030000Y-67564000D02*
X112030000Y-66532000D01*
X113842000Y-68326000D02*
X114030000Y-68514000D01*
X109229000Y-68326000D02*
X113842000Y-68326000D01*
D16*
G36*
X101966408Y-56724791D02*
G01*
X101746260Y-56681000D01*
X101453740Y-56681000D01*
X101166842Y-56738068D01*
X100896589Y-56850010D01*
X100653368Y-57012525D01*
X100446525Y-57219368D01*
X100330000Y-57393760D01*
X100213475Y-57219368D01*
X100006632Y-57012525D01*
X99763411Y-56850010D01*
X99493158Y-56738068D01*
X99206260Y-56681000D01*
X98913740Y-56681000D01*
X98626842Y-56738068D01*
X98356589Y-56850010D01*
X98113368Y-57012525D01*
X97906525Y-57219368D01*
X97744010Y-57462589D01*
X97632068Y-57732842D01*
X97575000Y-58019740D01*
X97575000Y-58312260D01*
X97632068Y-58599158D01*
X97744010Y-58869411D01*
X97906525Y-59112632D01*
X98113368Y-59319475D01*
X98289406Y-59437100D01*
X98059731Y-59608412D01*
X97864822Y-59824645D01*
X97715843Y-60074748D01*
X97618519Y-60349109D01*
X97739186Y-60579000D01*
X98933000Y-60579000D01*
X98933000Y-60559000D01*
X99187000Y-60559000D01*
X99187000Y-60579000D01*
X101473000Y-60579000D01*
X101473000Y-60559000D01*
X101727000Y-60559000D01*
X101727000Y-60579000D01*
X101747000Y-60579000D01*
X101747000Y-60833000D01*
X101727000Y-60833000D01*
X101727000Y-62026155D01*
X101956890Y-62147476D01*
X102104099Y-62102825D01*
X102366920Y-61977641D01*
X102600269Y-61803588D01*
X102795178Y-61587355D01*
X102864805Y-61470466D01*
X102986525Y-61652632D01*
X103193368Y-61859475D01*
X103436589Y-62021990D01*
X103706842Y-62133932D01*
X103993740Y-62191000D01*
X104286260Y-62191000D01*
X104573158Y-62133932D01*
X104843411Y-62021990D01*
X105086632Y-61859475D01*
X105293475Y-61652632D01*
X105418178Y-61466000D01*
X106024473Y-61466000D01*
X106033528Y-61495851D01*
X106115595Y-61649387D01*
X106226038Y-61783962D01*
X106360613Y-61894405D01*
X106437693Y-61935605D01*
X106368820Y-61956498D01*
X106258506Y-62015463D01*
X106161815Y-62094815D01*
X106082463Y-62191506D01*
X106023498Y-62301820D01*
X105987188Y-62421518D01*
X105974928Y-62546000D01*
X105978000Y-62960250D01*
X106136750Y-63119000D01*
X107061000Y-63119000D01*
X107061000Y-63099000D01*
X107315000Y-63099000D01*
X107315000Y-63119000D01*
X107335000Y-63119000D01*
X107335000Y-63373000D01*
X107315000Y-63373000D01*
X107315000Y-63393000D01*
X107061000Y-63393000D01*
X107061000Y-63373000D01*
X106136750Y-63373000D01*
X105978000Y-63531750D01*
X105976337Y-63756000D01*
X102907322Y-63756000D01*
X102869999Y-63752324D01*
X102832676Y-63756000D01*
X102832667Y-63756000D01*
X102721014Y-63766997D01*
X102577753Y-63810454D01*
X102445724Y-63881026D01*
X102329999Y-63975999D01*
X102306201Y-64004997D01*
X101966408Y-64344790D01*
X101746260Y-64301000D01*
X101453740Y-64301000D01*
X101166842Y-64358068D01*
X100896589Y-64470010D01*
X100653368Y-64632525D01*
X100446525Y-64839368D01*
X100330000Y-65013760D01*
X100213475Y-64839368D01*
X100006632Y-64632525D01*
X99763411Y-64470010D01*
X99493158Y-64358068D01*
X99206260Y-64301000D01*
X98913740Y-64301000D01*
X98626842Y-64358068D01*
X98356589Y-64470010D01*
X98113368Y-64632525D01*
X97906525Y-64839368D01*
X97744010Y-65082589D01*
X97632068Y-65352842D01*
X97575000Y-65639740D01*
X97575000Y-65932260D01*
X97632068Y-66219158D01*
X97744010Y-66489411D01*
X97906525Y-66732632D01*
X98113368Y-66939475D01*
X98289406Y-67057100D01*
X98059731Y-67228412D01*
X97864822Y-67444645D01*
X97715843Y-67694748D01*
X97618519Y-67969109D01*
X97739186Y-68199000D01*
X98933000Y-68199000D01*
X98933000Y-68179000D01*
X99187000Y-68179000D01*
X99187000Y-68199000D01*
X99207000Y-68199000D01*
X99207000Y-68453000D01*
X99187000Y-68453000D01*
X99187000Y-69646155D01*
X99416890Y-69767476D01*
X99564099Y-69722825D01*
X99826920Y-69597641D01*
X100060269Y-69423588D01*
X100255178Y-69207355D01*
X100324805Y-69090466D01*
X100446525Y-69272632D01*
X100653368Y-69479475D01*
X100896589Y-69641990D01*
X101166842Y-69753932D01*
X101453740Y-69811000D01*
X101746260Y-69811000D01*
X102033158Y-69753932D01*
X102303411Y-69641990D01*
X102546632Y-69479475D01*
X102753475Y-69272632D01*
X102870000Y-69098240D01*
X102986525Y-69272632D01*
X103193368Y-69479475D01*
X103436589Y-69641990D01*
X103706842Y-69753932D01*
X103993740Y-69811000D01*
X104286260Y-69811000D01*
X104573158Y-69753932D01*
X104843411Y-69641990D01*
X105086632Y-69479475D01*
X105293475Y-69272632D01*
X105418178Y-69086000D01*
X106024473Y-69086000D01*
X106033528Y-69115851D01*
X106115595Y-69269387D01*
X106226038Y-69403962D01*
X106360613Y-69514405D01*
X106514149Y-69596472D01*
X106680745Y-69647008D01*
X106853999Y-69664072D01*
X107504001Y-69664072D01*
X107677255Y-69647008D01*
X107843851Y-69596472D01*
X107997387Y-69514405D01*
X108131962Y-69403962D01*
X108204000Y-69316184D01*
X108276038Y-69403962D01*
X108410613Y-69514405D01*
X108564149Y-69596472D01*
X108730745Y-69647008D01*
X108903999Y-69664072D01*
X109554001Y-69664072D01*
X109727255Y-69647008D01*
X109893851Y-69596472D01*
X110047387Y-69514405D01*
X110181962Y-69403962D01*
X110292405Y-69269387D01*
X110374472Y-69115851D01*
X110383527Y-69086000D01*
X112968602Y-69086000D01*
X112990498Y-69158180D01*
X113049463Y-69268494D01*
X113128815Y-69365185D01*
X113225506Y-69444537D01*
X113335820Y-69503502D01*
X113455518Y-69539812D01*
X113580000Y-69552072D01*
X114480000Y-69552072D01*
X114604482Y-69539812D01*
X114724180Y-69503502D01*
X114834494Y-69444537D01*
X114931185Y-69365185D01*
X115010537Y-69268494D01*
X115069502Y-69158180D01*
X115105812Y-69038482D01*
X115118072Y-68914000D01*
X115118072Y-68114000D01*
X115105812Y-67989518D01*
X115069502Y-67869820D01*
X115010537Y-67759506D01*
X114931185Y-67662815D01*
X114834494Y-67583463D01*
X114798082Y-67564000D01*
X114834494Y-67544537D01*
X114931185Y-67465185D01*
X115010537Y-67368494D01*
X115069502Y-67258180D01*
X115105812Y-67138482D01*
X115118072Y-67014000D01*
X115115000Y-66899750D01*
X114956250Y-66741000D01*
X114157000Y-66741000D01*
X114157000Y-66761000D01*
X113903000Y-66761000D01*
X113903000Y-66741000D01*
X113883000Y-66741000D01*
X113883000Y-66487000D01*
X113903000Y-66487000D01*
X113903000Y-66467000D01*
X114157000Y-66467000D01*
X114157000Y-66487000D01*
X114956250Y-66487000D01*
X115115000Y-66328250D01*
X115118072Y-66214000D01*
X115105812Y-66089518D01*
X115069502Y-65969820D01*
X115010537Y-65859506D01*
X114931185Y-65762815D01*
X114861738Y-65705821D01*
X114864387Y-65704405D01*
X114998962Y-65593962D01*
X115109405Y-65459387D01*
X115191472Y-65305851D01*
X115242008Y-65139255D01*
X115259072Y-64966001D01*
X115259072Y-64065999D01*
X115242008Y-63892745D01*
X115191472Y-63726149D01*
X115109405Y-63572613D01*
X114998962Y-63438038D01*
X114882275Y-63342275D01*
X114900494Y-63332537D01*
X114997185Y-63253185D01*
X115076537Y-63156494D01*
X115108482Y-63096730D01*
X115220276Y-63036974D01*
X115336001Y-62942001D01*
X115359804Y-62912997D01*
X115516998Y-62755803D01*
X115546001Y-62732001D01*
X115640974Y-62616276D01*
X115711546Y-62484247D01*
X115755003Y-62340986D01*
X115766000Y-62229333D01*
X115766000Y-62229323D01*
X115769676Y-62192000D01*
X115766000Y-62154677D01*
X115766000Y-59643238D01*
X115780482Y-59641812D01*
X115900180Y-59605502D01*
X115926001Y-59591700D01*
X115926000Y-69952000D01*
X97180000Y-69952000D01*
X97180000Y-68682891D01*
X97618519Y-68682891D01*
X97715843Y-68957252D01*
X97864822Y-69207355D01*
X98059731Y-69423588D01*
X98293080Y-69597641D01*
X98555901Y-69722825D01*
X98703110Y-69767476D01*
X98933000Y-69646155D01*
X98933000Y-68453000D01*
X97739186Y-68453000D01*
X97618519Y-68682891D01*
X97180000Y-68682891D01*
X97180000Y-61062891D01*
X97618519Y-61062891D01*
X97715843Y-61337252D01*
X97864822Y-61587355D01*
X98059731Y-61803588D01*
X98293080Y-61977641D01*
X98555901Y-62102825D01*
X98703110Y-62147476D01*
X98933000Y-62026155D01*
X98933000Y-60833000D01*
X99187000Y-60833000D01*
X99187000Y-62026155D01*
X99416890Y-62147476D01*
X99564099Y-62102825D01*
X99826920Y-61977641D01*
X100060269Y-61803588D01*
X100255178Y-61587355D01*
X100330000Y-61461745D01*
X100404822Y-61587355D01*
X100599731Y-61803588D01*
X100833080Y-61977641D01*
X101095901Y-62102825D01*
X101243110Y-62147476D01*
X101473000Y-62026155D01*
X101473000Y-60833000D01*
X99187000Y-60833000D01*
X98933000Y-60833000D01*
X97739186Y-60833000D01*
X97618519Y-61062891D01*
X97180000Y-61062891D01*
X97180000Y-56540000D01*
X102151199Y-56540000D01*
X101966408Y-56724791D01*
G37*
X101966408Y-56724791D02*
X101746260Y-56681000D01*
X101453740Y-56681000D01*
X101166842Y-56738068D01*
X100896589Y-56850010D01*
X100653368Y-57012525D01*
X100446525Y-57219368D01*
X100330000Y-57393760D01*
X100213475Y-57219368D01*
X100006632Y-57012525D01*
X99763411Y-56850010D01*
X99493158Y-56738068D01*
X99206260Y-56681000D01*
X98913740Y-56681000D01*
X98626842Y-56738068D01*
X98356589Y-56850010D01*
X98113368Y-57012525D01*
X97906525Y-57219368D01*
X97744010Y-57462589D01*
X97632068Y-57732842D01*
X97575000Y-58019740D01*
X97575000Y-58312260D01*
X97632068Y-58599158D01*
X97744010Y-58869411D01*
X97906525Y-59112632D01*
X98113368Y-59319475D01*
X98289406Y-59437100D01*
X98059731Y-59608412D01*
X97864822Y-59824645D01*
X97715843Y-60074748D01*
X97618519Y-60349109D01*
X97739186Y-60579000D01*
X98933000Y-60579000D01*
X98933000Y-60559000D01*
X99187000Y-60559000D01*
X99187000Y-60579000D01*
X101473000Y-60579000D01*
X101473000Y-60559000D01*
X101727000Y-60559000D01*
X101727000Y-60579000D01*
X101747000Y-60579000D01*
X101747000Y-60833000D01*
X101727000Y-60833000D01*
X101727000Y-62026155D01*
X101956890Y-62147476D01*
X102104099Y-62102825D01*
X102366920Y-61977641D01*
X102600269Y-61803588D01*
X102795178Y-61587355D01*
X102864805Y-61470466D01*
X102986525Y-61652632D01*
X103193368Y-61859475D01*
X103436589Y-62021990D01*
X103706842Y-62133932D01*
X103993740Y-62191000D01*
X104286260Y-62191000D01*
X104573158Y-62133932D01*
X104843411Y-62021990D01*
X105086632Y-61859475D01*
X105293475Y-61652632D01*
X105418178Y-61466000D01*
X106024473Y-61466000D01*
X106033528Y-61495851D01*
X106115595Y-61649387D01*
X106226038Y-61783962D01*
X106360613Y-61894405D01*
X106437693Y-61935605D01*
X106368820Y-61956498D01*
X106258506Y-62015463D01*
X106161815Y-62094815D01*
X106082463Y-62191506D01*
X106023498Y-62301820D01*
X105987188Y-62421518D01*
X105974928Y-62546000D01*
X105978000Y-62960250D01*
X106136750Y-63119000D01*
X107061000Y-63119000D01*
X107061000Y-63099000D01*
X107315000Y-63099000D01*
X107315000Y-63119000D01*
X107335000Y-63119000D01*
X107335000Y-63373000D01*
X107315000Y-63373000D01*
X107315000Y-63393000D01*
X107061000Y-63393000D01*
X107061000Y-63373000D01*
X106136750Y-63373000D01*
X105978000Y-63531750D01*
X105976337Y-63756000D01*
X102907322Y-63756000D01*
X102869999Y-63752324D01*
X102832676Y-63756000D01*
X102832667Y-63756000D01*
X102721014Y-63766997D01*
X102577753Y-63810454D01*
X102445724Y-63881026D01*
X102329999Y-63975999D01*
X102306201Y-64004997D01*
X101966408Y-64344790D01*
X101746260Y-64301000D01*
X101453740Y-64301000D01*
X101166842Y-64358068D01*
X100896589Y-64470010D01*
X100653368Y-64632525D01*
X100446525Y-64839368D01*
X100330000Y-65013760D01*
X100213475Y-64839368D01*
X100006632Y-64632525D01*
X99763411Y-64470010D01*
X99493158Y-64358068D01*
X99206260Y-64301000D01*
X98913740Y-64301000D01*
X98626842Y-64358068D01*
X98356589Y-64470010D01*
X98113368Y-64632525D01*
X97906525Y-64839368D01*
X97744010Y-65082589D01*
X97632068Y-65352842D01*
X97575000Y-65639740D01*
X97575000Y-65932260D01*
X97632068Y-66219158D01*
X97744010Y-66489411D01*
X97906525Y-66732632D01*
X98113368Y-66939475D01*
X98289406Y-67057100D01*
X98059731Y-67228412D01*
X97864822Y-67444645D01*
X97715843Y-67694748D01*
X97618519Y-67969109D01*
X97739186Y-68199000D01*
X98933000Y-68199000D01*
X98933000Y-68179000D01*
X99187000Y-68179000D01*
X99187000Y-68199000D01*
X99207000Y-68199000D01*
X99207000Y-68453000D01*
X99187000Y-68453000D01*
X99187000Y-69646155D01*
X99416890Y-69767476D01*
X99564099Y-69722825D01*
X99826920Y-69597641D01*
X100060269Y-69423588D01*
X100255178Y-69207355D01*
X100324805Y-69090466D01*
X100446525Y-69272632D01*
X100653368Y-69479475D01*
X100896589Y-69641990D01*
X101166842Y-69753932D01*
X101453740Y-69811000D01*
X101746260Y-69811000D01*
X102033158Y-69753932D01*
X102303411Y-69641990D01*
X102546632Y-69479475D01*
X102753475Y-69272632D01*
X102870000Y-69098240D01*
X102986525Y-69272632D01*
X103193368Y-69479475D01*
X103436589Y-69641990D01*
X103706842Y-69753932D01*
X103993740Y-69811000D01*
X104286260Y-69811000D01*
X104573158Y-69753932D01*
X104843411Y-69641990D01*
X105086632Y-69479475D01*
X105293475Y-69272632D01*
X105418178Y-69086000D01*
X106024473Y-69086000D01*
X106033528Y-69115851D01*
X106115595Y-69269387D01*
X106226038Y-69403962D01*
X106360613Y-69514405D01*
X106514149Y-69596472D01*
X106680745Y-69647008D01*
X106853999Y-69664072D01*
X107504001Y-69664072D01*
X107677255Y-69647008D01*
X107843851Y-69596472D01*
X107997387Y-69514405D01*
X108131962Y-69403962D01*
X108204000Y-69316184D01*
X108276038Y-69403962D01*
X108410613Y-69514405D01*
X108564149Y-69596472D01*
X108730745Y-69647008D01*
X108903999Y-69664072D01*
X109554001Y-69664072D01*
X109727255Y-69647008D01*
X109893851Y-69596472D01*
X110047387Y-69514405D01*
X110181962Y-69403962D01*
X110292405Y-69269387D01*
X110374472Y-69115851D01*
X110383527Y-69086000D01*
X112968602Y-69086000D01*
X112990498Y-69158180D01*
X113049463Y-69268494D01*
X113128815Y-69365185D01*
X113225506Y-69444537D01*
X113335820Y-69503502D01*
X113455518Y-69539812D01*
X113580000Y-69552072D01*
X114480000Y-69552072D01*
X114604482Y-69539812D01*
X114724180Y-69503502D01*
X114834494Y-69444537D01*
X114931185Y-69365185D01*
X115010537Y-69268494D01*
X115069502Y-69158180D01*
X115105812Y-69038482D01*
X115118072Y-68914000D01*
X115118072Y-68114000D01*
X115105812Y-67989518D01*
X115069502Y-67869820D01*
X115010537Y-67759506D01*
X114931185Y-67662815D01*
X114834494Y-67583463D01*
X114798082Y-67564000D01*
X114834494Y-67544537D01*
X114931185Y-67465185D01*
X115010537Y-67368494D01*
X115069502Y-67258180D01*
X115105812Y-67138482D01*
X115118072Y-67014000D01*
X115115000Y-66899750D01*
X114956250Y-66741000D01*
X114157000Y-66741000D01*
X114157000Y-66761000D01*
X113903000Y-66761000D01*
X113903000Y-66741000D01*
X113883000Y-66741000D01*
X113883000Y-66487000D01*
X113903000Y-66487000D01*
X113903000Y-66467000D01*
X114157000Y-66467000D01*
X114157000Y-66487000D01*
X114956250Y-66487000D01*
X115115000Y-66328250D01*
X115118072Y-66214000D01*
X115105812Y-66089518D01*
X115069502Y-65969820D01*
X115010537Y-65859506D01*
X114931185Y-65762815D01*
X114861738Y-65705821D01*
X114864387Y-65704405D01*
X114998962Y-65593962D01*
X115109405Y-65459387D01*
X115191472Y-65305851D01*
X115242008Y-65139255D01*
X115259072Y-64966001D01*
X115259072Y-64065999D01*
X115242008Y-63892745D01*
X115191472Y-63726149D01*
X115109405Y-63572613D01*
X114998962Y-63438038D01*
X114882275Y-63342275D01*
X114900494Y-63332537D01*
X114997185Y-63253185D01*
X115076537Y-63156494D01*
X115108482Y-63096730D01*
X115220276Y-63036974D01*
X115336001Y-62942001D01*
X115359804Y-62912997D01*
X115516998Y-62755803D01*
X115546001Y-62732001D01*
X115640974Y-62616276D01*
X115711546Y-62484247D01*
X115755003Y-62340986D01*
X115766000Y-62229333D01*
X115766000Y-62229323D01*
X115769676Y-62192000D01*
X115766000Y-62154677D01*
X115766000Y-59643238D01*
X115780482Y-59641812D01*
X115900180Y-59605502D01*
X115926001Y-59591700D01*
X115926000Y-69952000D01*
X97180000Y-69952000D01*
X97180000Y-68682891D01*
X97618519Y-68682891D01*
X97715843Y-68957252D01*
X97864822Y-69207355D01*
X98059731Y-69423588D01*
X98293080Y-69597641D01*
X98555901Y-69722825D01*
X98703110Y-69767476D01*
X98933000Y-69646155D01*
X98933000Y-68453000D01*
X97739186Y-68453000D01*
X97618519Y-68682891D01*
X97180000Y-68682891D01*
X97180000Y-61062891D01*
X97618519Y-61062891D01*
X97715843Y-61337252D01*
X97864822Y-61587355D01*
X98059731Y-61803588D01*
X98293080Y-61977641D01*
X98555901Y-62102825D01*
X98703110Y-62147476D01*
X98933000Y-62026155D01*
X98933000Y-60833000D01*
X99187000Y-60833000D01*
X99187000Y-62026155D01*
X99416890Y-62147476D01*
X99564099Y-62102825D01*
X99826920Y-61977641D01*
X100060269Y-61803588D01*
X100255178Y-61587355D01*
X100330000Y-61461745D01*
X100404822Y-61587355D01*
X100599731Y-61803588D01*
X100833080Y-61977641D01*
X101095901Y-62102825D01*
X101243110Y-62147476D01*
X101473000Y-62026155D01*
X101473000Y-60833000D01*
X99187000Y-60833000D01*
X98933000Y-60833000D01*
X97739186Y-60833000D01*
X97618519Y-61062891D01*
X97180000Y-61062891D01*
X97180000Y-56540000D01*
X102151199Y-56540000D01*
X101966408Y-56724791D01*
G36*
X115926001Y-56740300D02*
G01*
X115900180Y-56726498D01*
X115780482Y-56690188D01*
X115656000Y-56677928D01*
X114356000Y-56677928D01*
X114231518Y-56690188D01*
X114111820Y-56726498D01*
X114001506Y-56785463D01*
X113904815Y-56864815D01*
X113825463Y-56961506D01*
X113766498Y-57071820D01*
X113730188Y-57191518D01*
X113717928Y-57316000D01*
X113717928Y-59016000D01*
X113730188Y-59140482D01*
X113766498Y-59260180D01*
X113825463Y-59370494D01*
X113904815Y-59467185D01*
X113968998Y-59519858D01*
X113968998Y-59625748D01*
X113810250Y-59467000D01*
X113646000Y-59463928D01*
X113521518Y-59476188D01*
X113401820Y-59512498D01*
X113291506Y-59571463D01*
X113194815Y-59650815D01*
X113115463Y-59747506D01*
X113056498Y-59857820D01*
X113020188Y-59977518D01*
X113007928Y-60102000D01*
X113011000Y-60216250D01*
X113169750Y-60375000D01*
X113969000Y-60375000D01*
X113969000Y-60355000D01*
X114223000Y-60355000D01*
X114223000Y-60375000D01*
X114243000Y-60375000D01*
X114243000Y-60629000D01*
X114223000Y-60629000D01*
X114223000Y-60649000D01*
X113969000Y-60649000D01*
X113969000Y-60629000D01*
X113169750Y-60629000D01*
X113085143Y-60713607D01*
X113076537Y-60697506D01*
X112997185Y-60600815D01*
X112900494Y-60521463D01*
X112790180Y-60462498D01*
X112670482Y-60426188D01*
X112546000Y-60413928D01*
X111646000Y-60413928D01*
X111521518Y-60426188D01*
X111401820Y-60462498D01*
X111291506Y-60521463D01*
X111194815Y-60600815D01*
X111119982Y-60692000D01*
X110442072Y-60692000D01*
X110442072Y-60255999D01*
X110425008Y-60082745D01*
X110374472Y-59916149D01*
X110292405Y-59762613D01*
X110181962Y-59628038D01*
X110047387Y-59517595D01*
X109893851Y-59435528D01*
X109889236Y-59434128D01*
X110038387Y-59354405D01*
X110172962Y-59243962D01*
X110237663Y-59165124D01*
X110266498Y-59260180D01*
X110325463Y-59370494D01*
X110404815Y-59467185D01*
X110501506Y-59546537D01*
X110611820Y-59605502D01*
X110731518Y-59641812D01*
X110856000Y-59654072D01*
X112156000Y-59654072D01*
X112280482Y-59641812D01*
X112400180Y-59605502D01*
X112510494Y-59546537D01*
X112607185Y-59467185D01*
X112686537Y-59370494D01*
X112745502Y-59260180D01*
X112781812Y-59140482D01*
X112794072Y-59016000D01*
X112794072Y-57316000D01*
X112781812Y-57191518D01*
X112745502Y-57071820D01*
X112686537Y-56961506D01*
X112607185Y-56864815D01*
X112510494Y-56785463D01*
X112400180Y-56726498D01*
X112280482Y-56690188D01*
X112156000Y-56677928D01*
X110856000Y-56677928D01*
X110731518Y-56690188D01*
X110611820Y-56726498D01*
X110501506Y-56785463D01*
X110404815Y-56864815D01*
X110325463Y-56961506D01*
X110266498Y-57071820D01*
X110237663Y-57166876D01*
X110172962Y-57088038D01*
X110038387Y-56977595D01*
X109884851Y-56895528D01*
X109718255Y-56844992D01*
X109545001Y-56827928D01*
X108894999Y-56827928D01*
X108721745Y-56844992D01*
X108555149Y-56895528D01*
X108401613Y-56977595D01*
X108267038Y-57088038D01*
X108195000Y-57175816D01*
X108122962Y-57088038D01*
X107988387Y-56977595D01*
X107834851Y-56895528D01*
X107668255Y-56844992D01*
X107495001Y-56827928D01*
X106844999Y-56827928D01*
X106671745Y-56844992D01*
X106505149Y-56895528D01*
X106436189Y-56932388D01*
X106043801Y-56540000D01*
X115926001Y-56540000D01*
X115926001Y-56740300D01*
G37*
X115926001Y-56740300D02*
X115900180Y-56726498D01*
X115780482Y-56690188D01*
X115656000Y-56677928D01*
X114356000Y-56677928D01*
X114231518Y-56690188D01*
X114111820Y-56726498D01*
X114001506Y-56785463D01*
X113904815Y-56864815D01*
X113825463Y-56961506D01*
X113766498Y-57071820D01*
X113730188Y-57191518D01*
X113717928Y-57316000D01*
X113717928Y-59016000D01*
X113730188Y-59140482D01*
X113766498Y-59260180D01*
X113825463Y-59370494D01*
X113904815Y-59467185D01*
X113968998Y-59519858D01*
X113968998Y-59625748D01*
X113810250Y-59467000D01*
X113646000Y-59463928D01*
X113521518Y-59476188D01*
X113401820Y-59512498D01*
X113291506Y-59571463D01*
X113194815Y-59650815D01*
X113115463Y-59747506D01*
X113056498Y-59857820D01*
X113020188Y-59977518D01*
X113007928Y-60102000D01*
X113011000Y-60216250D01*
X113169750Y-60375000D01*
X113969000Y-60375000D01*
X113969000Y-60355000D01*
X114223000Y-60355000D01*
X114223000Y-60375000D01*
X114243000Y-60375000D01*
X114243000Y-60629000D01*
X114223000Y-60629000D01*
X114223000Y-60649000D01*
X113969000Y-60649000D01*
X113969000Y-60629000D01*
X113169750Y-60629000D01*
X113085143Y-60713607D01*
X113076537Y-60697506D01*
X112997185Y-60600815D01*
X112900494Y-60521463D01*
X112790180Y-60462498D01*
X112670482Y-60426188D01*
X112546000Y-60413928D01*
X111646000Y-60413928D01*
X111521518Y-60426188D01*
X111401820Y-60462498D01*
X111291506Y-60521463D01*
X111194815Y-60600815D01*
X111119982Y-60692000D01*
X110442072Y-60692000D01*
X110442072Y-60255999D01*
X110425008Y-60082745D01*
X110374472Y-59916149D01*
X110292405Y-59762613D01*
X110181962Y-59628038D01*
X110047387Y-59517595D01*
X109893851Y-59435528D01*
X109889236Y-59434128D01*
X110038387Y-59354405D01*
X110172962Y-59243962D01*
X110237663Y-59165124D01*
X110266498Y-59260180D01*
X110325463Y-59370494D01*
X110404815Y-59467185D01*
X110501506Y-59546537D01*
X110611820Y-59605502D01*
X110731518Y-59641812D01*
X110856000Y-59654072D01*
X112156000Y-59654072D01*
X112280482Y-59641812D01*
X112400180Y-59605502D01*
X112510494Y-59546537D01*
X112607185Y-59467185D01*
X112686537Y-59370494D01*
X112745502Y-59260180D01*
X112781812Y-59140482D01*
X112794072Y-59016000D01*
X112794072Y-57316000D01*
X112781812Y-57191518D01*
X112745502Y-57071820D01*
X112686537Y-56961506D01*
X112607185Y-56864815D01*
X112510494Y-56785463D01*
X112400180Y-56726498D01*
X112280482Y-56690188D01*
X112156000Y-56677928D01*
X110856000Y-56677928D01*
X110731518Y-56690188D01*
X110611820Y-56726498D01*
X110501506Y-56785463D01*
X110404815Y-56864815D01*
X110325463Y-56961506D01*
X110266498Y-57071820D01*
X110237663Y-57166876D01*
X110172962Y-57088038D01*
X110038387Y-56977595D01*
X109884851Y-56895528D01*
X109718255Y-56844992D01*
X109545001Y-56827928D01*
X108894999Y-56827928D01*
X108721745Y-56844992D01*
X108555149Y-56895528D01*
X108401613Y-56977595D01*
X108267038Y-57088038D01*
X108195000Y-57175816D01*
X108122962Y-57088038D01*
X107988387Y-56977595D01*
X107834851Y-56895528D01*
X107668255Y-56844992D01*
X107495001Y-56827928D01*
X106844999Y-56827928D01*
X106671745Y-56844992D01*
X106505149Y-56895528D01*
X106436189Y-56932388D01*
X106043801Y-56540000D01*
X115926001Y-56540000D01*
X115926001Y-56740300D01*
M02*
