G04 #@! TF.GenerationSoftware,KiCad,Pcbnew,(5.1.5-0-10_14)*
G04 #@! TF.CreationDate,2021-03-12T21:15:51+01:00*
G04 #@! TF.ProjectId,es_gateio,65735f67-6174-4656-996f-2e6b69636164,rev?*
G04 #@! TF.SameCoordinates,Original*
G04 #@! TF.FileFunction,Paste,Top*
G04 #@! TF.FilePolarity,Positive*
%FSLAX46Y46*%
G04 Gerber Fmt 4.6, Leading zero omitted, Abs format (unit mm)*
G04 Created by KiCad (PCBNEW (5.1.5-0-10_14)) date 2021-03-12 21:15:51*
%MOMM*%
%LPD*%
G04 APERTURE LIST*
%ADD10C,0.100000*%
%ADD11R,1.300000X1.700000*%
%ADD12R,0.900000X0.800000*%
G04 APERTURE END LIST*
D10*
G36*
X107519505Y-57467204D02*
G01*
X107543773Y-57470804D01*
X107567572Y-57476765D01*
X107590671Y-57485030D01*
X107612850Y-57495520D01*
X107633893Y-57508132D01*
X107653599Y-57522747D01*
X107671777Y-57539223D01*
X107688253Y-57557401D01*
X107702868Y-57577107D01*
X107715480Y-57598150D01*
X107725970Y-57620329D01*
X107734235Y-57643428D01*
X107740196Y-57667227D01*
X107743796Y-57691495D01*
X107745000Y-57715999D01*
X107745000Y-58616001D01*
X107743796Y-58640505D01*
X107740196Y-58664773D01*
X107734235Y-58688572D01*
X107725970Y-58711671D01*
X107715480Y-58733850D01*
X107702868Y-58754893D01*
X107688253Y-58774599D01*
X107671777Y-58792777D01*
X107653599Y-58809253D01*
X107633893Y-58823868D01*
X107612850Y-58836480D01*
X107590671Y-58846970D01*
X107567572Y-58855235D01*
X107543773Y-58861196D01*
X107519505Y-58864796D01*
X107495001Y-58866000D01*
X106844999Y-58866000D01*
X106820495Y-58864796D01*
X106796227Y-58861196D01*
X106772428Y-58855235D01*
X106749329Y-58846970D01*
X106727150Y-58836480D01*
X106706107Y-58823868D01*
X106686401Y-58809253D01*
X106668223Y-58792777D01*
X106651747Y-58774599D01*
X106637132Y-58754893D01*
X106624520Y-58733850D01*
X106614030Y-58711671D01*
X106605765Y-58688572D01*
X106599804Y-58664773D01*
X106596204Y-58640505D01*
X106595000Y-58616001D01*
X106595000Y-57715999D01*
X106596204Y-57691495D01*
X106599804Y-57667227D01*
X106605765Y-57643428D01*
X106614030Y-57620329D01*
X106624520Y-57598150D01*
X106637132Y-57577107D01*
X106651747Y-57557401D01*
X106668223Y-57539223D01*
X106686401Y-57522747D01*
X106706107Y-57508132D01*
X106727150Y-57495520D01*
X106749329Y-57485030D01*
X106772428Y-57476765D01*
X106796227Y-57470804D01*
X106820495Y-57467204D01*
X106844999Y-57466000D01*
X107495001Y-57466000D01*
X107519505Y-57467204D01*
G37*
G36*
X109569505Y-57467204D02*
G01*
X109593773Y-57470804D01*
X109617572Y-57476765D01*
X109640671Y-57485030D01*
X109662850Y-57495520D01*
X109683893Y-57508132D01*
X109703599Y-57522747D01*
X109721777Y-57539223D01*
X109738253Y-57557401D01*
X109752868Y-57577107D01*
X109765480Y-57598150D01*
X109775970Y-57620329D01*
X109784235Y-57643428D01*
X109790196Y-57667227D01*
X109793796Y-57691495D01*
X109795000Y-57715999D01*
X109795000Y-58616001D01*
X109793796Y-58640505D01*
X109790196Y-58664773D01*
X109784235Y-58688572D01*
X109775970Y-58711671D01*
X109765480Y-58733850D01*
X109752868Y-58754893D01*
X109738253Y-58774599D01*
X109721777Y-58792777D01*
X109703599Y-58809253D01*
X109683893Y-58823868D01*
X109662850Y-58836480D01*
X109640671Y-58846970D01*
X109617572Y-58855235D01*
X109593773Y-58861196D01*
X109569505Y-58864796D01*
X109545001Y-58866000D01*
X108894999Y-58866000D01*
X108870495Y-58864796D01*
X108846227Y-58861196D01*
X108822428Y-58855235D01*
X108799329Y-58846970D01*
X108777150Y-58836480D01*
X108756107Y-58823868D01*
X108736401Y-58809253D01*
X108718223Y-58792777D01*
X108701747Y-58774599D01*
X108687132Y-58754893D01*
X108674520Y-58733850D01*
X108664030Y-58711671D01*
X108655765Y-58688572D01*
X108649804Y-58664773D01*
X108646204Y-58640505D01*
X108645000Y-58616001D01*
X108645000Y-57715999D01*
X108646204Y-57691495D01*
X108649804Y-57667227D01*
X108655765Y-57643428D01*
X108664030Y-57620329D01*
X108674520Y-57598150D01*
X108687132Y-57577107D01*
X108701747Y-57557401D01*
X108718223Y-57539223D01*
X108736401Y-57522747D01*
X108756107Y-57508132D01*
X108777150Y-57495520D01*
X108799329Y-57485030D01*
X108822428Y-57476765D01*
X108846227Y-57470804D01*
X108870495Y-57467204D01*
X108894999Y-57466000D01*
X109545001Y-57466000D01*
X109569505Y-57467204D01*
G37*
D11*
X111506000Y-58166000D03*
X115006000Y-58166000D03*
D10*
G36*
X114395505Y-63817204D02*
G01*
X114419773Y-63820804D01*
X114443572Y-63826765D01*
X114466671Y-63835030D01*
X114488850Y-63845520D01*
X114509893Y-63858132D01*
X114529599Y-63872747D01*
X114547777Y-63889223D01*
X114564253Y-63907401D01*
X114578868Y-63927107D01*
X114591480Y-63948150D01*
X114601970Y-63970329D01*
X114610235Y-63993428D01*
X114616196Y-64017227D01*
X114619796Y-64041495D01*
X114621000Y-64065999D01*
X114621000Y-64966001D01*
X114619796Y-64990505D01*
X114616196Y-65014773D01*
X114610235Y-65038572D01*
X114601970Y-65061671D01*
X114591480Y-65083850D01*
X114578868Y-65104893D01*
X114564253Y-65124599D01*
X114547777Y-65142777D01*
X114529599Y-65159253D01*
X114509893Y-65173868D01*
X114488850Y-65186480D01*
X114466671Y-65196970D01*
X114443572Y-65205235D01*
X114419773Y-65211196D01*
X114395505Y-65214796D01*
X114371001Y-65216000D01*
X113720999Y-65216000D01*
X113696495Y-65214796D01*
X113672227Y-65211196D01*
X113648428Y-65205235D01*
X113625329Y-65196970D01*
X113603150Y-65186480D01*
X113582107Y-65173868D01*
X113562401Y-65159253D01*
X113544223Y-65142777D01*
X113527747Y-65124599D01*
X113513132Y-65104893D01*
X113500520Y-65083850D01*
X113490030Y-65061671D01*
X113481765Y-65038572D01*
X113475804Y-65014773D01*
X113472204Y-64990505D01*
X113471000Y-64966001D01*
X113471000Y-64065999D01*
X113472204Y-64041495D01*
X113475804Y-64017227D01*
X113481765Y-63993428D01*
X113490030Y-63970329D01*
X113500520Y-63948150D01*
X113513132Y-63927107D01*
X113527747Y-63907401D01*
X113544223Y-63889223D01*
X113562401Y-63872747D01*
X113582107Y-63858132D01*
X113603150Y-63845520D01*
X113625329Y-63835030D01*
X113648428Y-63826765D01*
X113672227Y-63820804D01*
X113696495Y-63817204D01*
X113720999Y-63816000D01*
X114371001Y-63816000D01*
X114395505Y-63817204D01*
G37*
G36*
X112345505Y-63817204D02*
G01*
X112369773Y-63820804D01*
X112393572Y-63826765D01*
X112416671Y-63835030D01*
X112438850Y-63845520D01*
X112459893Y-63858132D01*
X112479599Y-63872747D01*
X112497777Y-63889223D01*
X112514253Y-63907401D01*
X112528868Y-63927107D01*
X112541480Y-63948150D01*
X112551970Y-63970329D01*
X112560235Y-63993428D01*
X112566196Y-64017227D01*
X112569796Y-64041495D01*
X112571000Y-64065999D01*
X112571000Y-64966001D01*
X112569796Y-64990505D01*
X112566196Y-65014773D01*
X112560235Y-65038572D01*
X112551970Y-65061671D01*
X112541480Y-65083850D01*
X112528868Y-65104893D01*
X112514253Y-65124599D01*
X112497777Y-65142777D01*
X112479599Y-65159253D01*
X112459893Y-65173868D01*
X112438850Y-65186480D01*
X112416671Y-65196970D01*
X112393572Y-65205235D01*
X112369773Y-65211196D01*
X112345505Y-65214796D01*
X112321001Y-65216000D01*
X111670999Y-65216000D01*
X111646495Y-65214796D01*
X111622227Y-65211196D01*
X111598428Y-65205235D01*
X111575329Y-65196970D01*
X111553150Y-65186480D01*
X111532107Y-65173868D01*
X111512401Y-65159253D01*
X111494223Y-65142777D01*
X111477747Y-65124599D01*
X111463132Y-65104893D01*
X111450520Y-65083850D01*
X111440030Y-65061671D01*
X111431765Y-65038572D01*
X111425804Y-65014773D01*
X111422204Y-64990505D01*
X111421000Y-64966001D01*
X111421000Y-64065999D01*
X111422204Y-64041495D01*
X111425804Y-64017227D01*
X111431765Y-63993428D01*
X111440030Y-63970329D01*
X111450520Y-63948150D01*
X111463132Y-63927107D01*
X111477747Y-63907401D01*
X111494223Y-63889223D01*
X111512401Y-63872747D01*
X111532107Y-63858132D01*
X111553150Y-63845520D01*
X111575329Y-63835030D01*
X111598428Y-63826765D01*
X111622227Y-63820804D01*
X111646495Y-63817204D01*
X111670999Y-63816000D01*
X112321001Y-63816000D01*
X112345505Y-63817204D01*
G37*
G36*
X107528505Y-65087204D02*
G01*
X107552773Y-65090804D01*
X107576572Y-65096765D01*
X107599671Y-65105030D01*
X107621850Y-65115520D01*
X107642893Y-65128132D01*
X107662599Y-65142747D01*
X107680777Y-65159223D01*
X107697253Y-65177401D01*
X107711868Y-65197107D01*
X107724480Y-65218150D01*
X107734970Y-65240329D01*
X107743235Y-65263428D01*
X107749196Y-65287227D01*
X107752796Y-65311495D01*
X107754000Y-65335999D01*
X107754000Y-66236001D01*
X107752796Y-66260505D01*
X107749196Y-66284773D01*
X107743235Y-66308572D01*
X107734970Y-66331671D01*
X107724480Y-66353850D01*
X107711868Y-66374893D01*
X107697253Y-66394599D01*
X107680777Y-66412777D01*
X107662599Y-66429253D01*
X107642893Y-66443868D01*
X107621850Y-66456480D01*
X107599671Y-66466970D01*
X107576572Y-66475235D01*
X107552773Y-66481196D01*
X107528505Y-66484796D01*
X107504001Y-66486000D01*
X106853999Y-66486000D01*
X106829495Y-66484796D01*
X106805227Y-66481196D01*
X106781428Y-66475235D01*
X106758329Y-66466970D01*
X106736150Y-66456480D01*
X106715107Y-66443868D01*
X106695401Y-66429253D01*
X106677223Y-66412777D01*
X106660747Y-66394599D01*
X106646132Y-66374893D01*
X106633520Y-66353850D01*
X106623030Y-66331671D01*
X106614765Y-66308572D01*
X106608804Y-66284773D01*
X106605204Y-66260505D01*
X106604000Y-66236001D01*
X106604000Y-65335999D01*
X106605204Y-65311495D01*
X106608804Y-65287227D01*
X106614765Y-65263428D01*
X106623030Y-65240329D01*
X106633520Y-65218150D01*
X106646132Y-65197107D01*
X106660747Y-65177401D01*
X106677223Y-65159223D01*
X106695401Y-65142747D01*
X106715107Y-65128132D01*
X106736150Y-65115520D01*
X106758329Y-65105030D01*
X106781428Y-65096765D01*
X106805227Y-65090804D01*
X106829495Y-65087204D01*
X106853999Y-65086000D01*
X107504001Y-65086000D01*
X107528505Y-65087204D01*
G37*
G36*
X109578505Y-65087204D02*
G01*
X109602773Y-65090804D01*
X109626572Y-65096765D01*
X109649671Y-65105030D01*
X109671850Y-65115520D01*
X109692893Y-65128132D01*
X109712599Y-65142747D01*
X109730777Y-65159223D01*
X109747253Y-65177401D01*
X109761868Y-65197107D01*
X109774480Y-65218150D01*
X109784970Y-65240329D01*
X109793235Y-65263428D01*
X109799196Y-65287227D01*
X109802796Y-65311495D01*
X109804000Y-65335999D01*
X109804000Y-66236001D01*
X109802796Y-66260505D01*
X109799196Y-66284773D01*
X109793235Y-66308572D01*
X109784970Y-66331671D01*
X109774480Y-66353850D01*
X109761868Y-66374893D01*
X109747253Y-66394599D01*
X109730777Y-66412777D01*
X109712599Y-66429253D01*
X109692893Y-66443868D01*
X109671850Y-66456480D01*
X109649671Y-66466970D01*
X109626572Y-66475235D01*
X109602773Y-66481196D01*
X109578505Y-66484796D01*
X109554001Y-66486000D01*
X108903999Y-66486000D01*
X108879495Y-66484796D01*
X108855227Y-66481196D01*
X108831428Y-66475235D01*
X108808329Y-66466970D01*
X108786150Y-66456480D01*
X108765107Y-66443868D01*
X108745401Y-66429253D01*
X108727223Y-66412777D01*
X108710747Y-66394599D01*
X108696132Y-66374893D01*
X108683520Y-66353850D01*
X108673030Y-66331671D01*
X108664765Y-66308572D01*
X108658804Y-66284773D01*
X108655204Y-66260505D01*
X108654000Y-66236001D01*
X108654000Y-65335999D01*
X108655204Y-65311495D01*
X108658804Y-65287227D01*
X108664765Y-65263428D01*
X108673030Y-65240329D01*
X108683520Y-65218150D01*
X108696132Y-65197107D01*
X108710747Y-65177401D01*
X108727223Y-65159223D01*
X108745401Y-65142747D01*
X108765107Y-65128132D01*
X108786150Y-65115520D01*
X108808329Y-65105030D01*
X108831428Y-65096765D01*
X108855227Y-65090804D01*
X108879495Y-65087204D01*
X108903999Y-65086000D01*
X109554001Y-65086000D01*
X109578505Y-65087204D01*
G37*
G36*
X107528505Y-67627204D02*
G01*
X107552773Y-67630804D01*
X107576572Y-67636765D01*
X107599671Y-67645030D01*
X107621850Y-67655520D01*
X107642893Y-67668132D01*
X107662599Y-67682747D01*
X107680777Y-67699223D01*
X107697253Y-67717401D01*
X107711868Y-67737107D01*
X107724480Y-67758150D01*
X107734970Y-67780329D01*
X107743235Y-67803428D01*
X107749196Y-67827227D01*
X107752796Y-67851495D01*
X107754000Y-67875999D01*
X107754000Y-68776001D01*
X107752796Y-68800505D01*
X107749196Y-68824773D01*
X107743235Y-68848572D01*
X107734970Y-68871671D01*
X107724480Y-68893850D01*
X107711868Y-68914893D01*
X107697253Y-68934599D01*
X107680777Y-68952777D01*
X107662599Y-68969253D01*
X107642893Y-68983868D01*
X107621850Y-68996480D01*
X107599671Y-69006970D01*
X107576572Y-69015235D01*
X107552773Y-69021196D01*
X107528505Y-69024796D01*
X107504001Y-69026000D01*
X106853999Y-69026000D01*
X106829495Y-69024796D01*
X106805227Y-69021196D01*
X106781428Y-69015235D01*
X106758329Y-69006970D01*
X106736150Y-68996480D01*
X106715107Y-68983868D01*
X106695401Y-68969253D01*
X106677223Y-68952777D01*
X106660747Y-68934599D01*
X106646132Y-68914893D01*
X106633520Y-68893850D01*
X106623030Y-68871671D01*
X106614765Y-68848572D01*
X106608804Y-68824773D01*
X106605204Y-68800505D01*
X106604000Y-68776001D01*
X106604000Y-67875999D01*
X106605204Y-67851495D01*
X106608804Y-67827227D01*
X106614765Y-67803428D01*
X106623030Y-67780329D01*
X106633520Y-67758150D01*
X106646132Y-67737107D01*
X106660747Y-67717401D01*
X106677223Y-67699223D01*
X106695401Y-67682747D01*
X106715107Y-67668132D01*
X106736150Y-67655520D01*
X106758329Y-67645030D01*
X106781428Y-67636765D01*
X106805227Y-67630804D01*
X106829495Y-67627204D01*
X106853999Y-67626000D01*
X107504001Y-67626000D01*
X107528505Y-67627204D01*
G37*
G36*
X109578505Y-67627204D02*
G01*
X109602773Y-67630804D01*
X109626572Y-67636765D01*
X109649671Y-67645030D01*
X109671850Y-67655520D01*
X109692893Y-67668132D01*
X109712599Y-67682747D01*
X109730777Y-67699223D01*
X109747253Y-67717401D01*
X109761868Y-67737107D01*
X109774480Y-67758150D01*
X109784970Y-67780329D01*
X109793235Y-67803428D01*
X109799196Y-67827227D01*
X109802796Y-67851495D01*
X109804000Y-67875999D01*
X109804000Y-68776001D01*
X109802796Y-68800505D01*
X109799196Y-68824773D01*
X109793235Y-68848572D01*
X109784970Y-68871671D01*
X109774480Y-68893850D01*
X109761868Y-68914893D01*
X109747253Y-68934599D01*
X109730777Y-68952777D01*
X109712599Y-68969253D01*
X109692893Y-68983868D01*
X109671850Y-68996480D01*
X109649671Y-69006970D01*
X109626572Y-69015235D01*
X109602773Y-69021196D01*
X109578505Y-69024796D01*
X109554001Y-69026000D01*
X108903999Y-69026000D01*
X108879495Y-69024796D01*
X108855227Y-69021196D01*
X108831428Y-69015235D01*
X108808329Y-69006970D01*
X108786150Y-68996480D01*
X108765107Y-68983868D01*
X108745401Y-68969253D01*
X108727223Y-68952777D01*
X108710747Y-68934599D01*
X108696132Y-68914893D01*
X108683520Y-68893850D01*
X108673030Y-68871671D01*
X108664765Y-68848572D01*
X108658804Y-68824773D01*
X108655204Y-68800505D01*
X108654000Y-68776001D01*
X108654000Y-67875999D01*
X108655204Y-67851495D01*
X108658804Y-67827227D01*
X108664765Y-67803428D01*
X108673030Y-67780329D01*
X108683520Y-67758150D01*
X108696132Y-67737107D01*
X108710747Y-67717401D01*
X108727223Y-67699223D01*
X108745401Y-67682747D01*
X108765107Y-67668132D01*
X108786150Y-67655520D01*
X108808329Y-67645030D01*
X108831428Y-67636765D01*
X108855227Y-67630804D01*
X108879495Y-67627204D01*
X108903999Y-67626000D01*
X109554001Y-67626000D01*
X109578505Y-67627204D01*
G37*
G36*
X107528505Y-60007204D02*
G01*
X107552773Y-60010804D01*
X107576572Y-60016765D01*
X107599671Y-60025030D01*
X107621850Y-60035520D01*
X107642893Y-60048132D01*
X107662599Y-60062747D01*
X107680777Y-60079223D01*
X107697253Y-60097401D01*
X107711868Y-60117107D01*
X107724480Y-60138150D01*
X107734970Y-60160329D01*
X107743235Y-60183428D01*
X107749196Y-60207227D01*
X107752796Y-60231495D01*
X107754000Y-60255999D01*
X107754000Y-61156001D01*
X107752796Y-61180505D01*
X107749196Y-61204773D01*
X107743235Y-61228572D01*
X107734970Y-61251671D01*
X107724480Y-61273850D01*
X107711868Y-61294893D01*
X107697253Y-61314599D01*
X107680777Y-61332777D01*
X107662599Y-61349253D01*
X107642893Y-61363868D01*
X107621850Y-61376480D01*
X107599671Y-61386970D01*
X107576572Y-61395235D01*
X107552773Y-61401196D01*
X107528505Y-61404796D01*
X107504001Y-61406000D01*
X106853999Y-61406000D01*
X106829495Y-61404796D01*
X106805227Y-61401196D01*
X106781428Y-61395235D01*
X106758329Y-61386970D01*
X106736150Y-61376480D01*
X106715107Y-61363868D01*
X106695401Y-61349253D01*
X106677223Y-61332777D01*
X106660747Y-61314599D01*
X106646132Y-61294893D01*
X106633520Y-61273850D01*
X106623030Y-61251671D01*
X106614765Y-61228572D01*
X106608804Y-61204773D01*
X106605204Y-61180505D01*
X106604000Y-61156001D01*
X106604000Y-60255999D01*
X106605204Y-60231495D01*
X106608804Y-60207227D01*
X106614765Y-60183428D01*
X106623030Y-60160329D01*
X106633520Y-60138150D01*
X106646132Y-60117107D01*
X106660747Y-60097401D01*
X106677223Y-60079223D01*
X106695401Y-60062747D01*
X106715107Y-60048132D01*
X106736150Y-60035520D01*
X106758329Y-60025030D01*
X106781428Y-60016765D01*
X106805227Y-60010804D01*
X106829495Y-60007204D01*
X106853999Y-60006000D01*
X107504001Y-60006000D01*
X107528505Y-60007204D01*
G37*
G36*
X109578505Y-60007204D02*
G01*
X109602773Y-60010804D01*
X109626572Y-60016765D01*
X109649671Y-60025030D01*
X109671850Y-60035520D01*
X109692893Y-60048132D01*
X109712599Y-60062747D01*
X109730777Y-60079223D01*
X109747253Y-60097401D01*
X109761868Y-60117107D01*
X109774480Y-60138150D01*
X109784970Y-60160329D01*
X109793235Y-60183428D01*
X109799196Y-60207227D01*
X109802796Y-60231495D01*
X109804000Y-60255999D01*
X109804000Y-61156001D01*
X109802796Y-61180505D01*
X109799196Y-61204773D01*
X109793235Y-61228572D01*
X109784970Y-61251671D01*
X109774480Y-61273850D01*
X109761868Y-61294893D01*
X109747253Y-61314599D01*
X109730777Y-61332777D01*
X109712599Y-61349253D01*
X109692893Y-61363868D01*
X109671850Y-61376480D01*
X109649671Y-61386970D01*
X109626572Y-61395235D01*
X109602773Y-61401196D01*
X109578505Y-61404796D01*
X109554001Y-61406000D01*
X108903999Y-61406000D01*
X108879495Y-61404796D01*
X108855227Y-61401196D01*
X108831428Y-61395235D01*
X108808329Y-61386970D01*
X108786150Y-61376480D01*
X108765107Y-61363868D01*
X108745401Y-61349253D01*
X108727223Y-61332777D01*
X108710747Y-61314599D01*
X108696132Y-61294893D01*
X108683520Y-61273850D01*
X108673030Y-61251671D01*
X108664765Y-61228572D01*
X108658804Y-61204773D01*
X108655204Y-61180505D01*
X108654000Y-61156001D01*
X108654000Y-60255999D01*
X108655204Y-60231495D01*
X108658804Y-60207227D01*
X108664765Y-60183428D01*
X108673030Y-60160329D01*
X108683520Y-60138150D01*
X108696132Y-60117107D01*
X108710747Y-60097401D01*
X108727223Y-60079223D01*
X108745401Y-60062747D01*
X108765107Y-60048132D01*
X108786150Y-60035520D01*
X108808329Y-60025030D01*
X108831428Y-60016765D01*
X108855227Y-60010804D01*
X108879495Y-60007204D01*
X108903999Y-60006000D01*
X109554001Y-60006000D01*
X109578505Y-60007204D01*
G37*
G36*
X109587505Y-62547204D02*
G01*
X109611773Y-62550804D01*
X109635572Y-62556765D01*
X109658671Y-62565030D01*
X109680850Y-62575520D01*
X109701893Y-62588132D01*
X109721599Y-62602747D01*
X109739777Y-62619223D01*
X109756253Y-62637401D01*
X109770868Y-62657107D01*
X109783480Y-62678150D01*
X109793970Y-62700329D01*
X109802235Y-62723428D01*
X109808196Y-62747227D01*
X109811796Y-62771495D01*
X109813000Y-62795999D01*
X109813000Y-63696001D01*
X109811796Y-63720505D01*
X109808196Y-63744773D01*
X109802235Y-63768572D01*
X109793970Y-63791671D01*
X109783480Y-63813850D01*
X109770868Y-63834893D01*
X109756253Y-63854599D01*
X109739777Y-63872777D01*
X109721599Y-63889253D01*
X109701893Y-63903868D01*
X109680850Y-63916480D01*
X109658671Y-63926970D01*
X109635572Y-63935235D01*
X109611773Y-63941196D01*
X109587505Y-63944796D01*
X109563001Y-63946000D01*
X108912999Y-63946000D01*
X108888495Y-63944796D01*
X108864227Y-63941196D01*
X108840428Y-63935235D01*
X108817329Y-63926970D01*
X108795150Y-63916480D01*
X108774107Y-63903868D01*
X108754401Y-63889253D01*
X108736223Y-63872777D01*
X108719747Y-63854599D01*
X108705132Y-63834893D01*
X108692520Y-63813850D01*
X108682030Y-63791671D01*
X108673765Y-63768572D01*
X108667804Y-63744773D01*
X108664204Y-63720505D01*
X108663000Y-63696001D01*
X108663000Y-62795999D01*
X108664204Y-62771495D01*
X108667804Y-62747227D01*
X108673765Y-62723428D01*
X108682030Y-62700329D01*
X108692520Y-62678150D01*
X108705132Y-62657107D01*
X108719747Y-62637401D01*
X108736223Y-62619223D01*
X108754401Y-62602747D01*
X108774107Y-62588132D01*
X108795150Y-62575520D01*
X108817329Y-62565030D01*
X108840428Y-62556765D01*
X108864227Y-62550804D01*
X108888495Y-62547204D01*
X108912999Y-62546000D01*
X109563001Y-62546000D01*
X109587505Y-62547204D01*
G37*
G36*
X107537505Y-62547204D02*
G01*
X107561773Y-62550804D01*
X107585572Y-62556765D01*
X107608671Y-62565030D01*
X107630850Y-62575520D01*
X107651893Y-62588132D01*
X107671599Y-62602747D01*
X107689777Y-62619223D01*
X107706253Y-62637401D01*
X107720868Y-62657107D01*
X107733480Y-62678150D01*
X107743970Y-62700329D01*
X107752235Y-62723428D01*
X107758196Y-62747227D01*
X107761796Y-62771495D01*
X107763000Y-62795999D01*
X107763000Y-63696001D01*
X107761796Y-63720505D01*
X107758196Y-63744773D01*
X107752235Y-63768572D01*
X107743970Y-63791671D01*
X107733480Y-63813850D01*
X107720868Y-63834893D01*
X107706253Y-63854599D01*
X107689777Y-63872777D01*
X107671599Y-63889253D01*
X107651893Y-63903868D01*
X107630850Y-63916480D01*
X107608671Y-63926970D01*
X107585572Y-63935235D01*
X107561773Y-63941196D01*
X107537505Y-63944796D01*
X107513001Y-63946000D01*
X106862999Y-63946000D01*
X106838495Y-63944796D01*
X106814227Y-63941196D01*
X106790428Y-63935235D01*
X106767329Y-63926970D01*
X106745150Y-63916480D01*
X106724107Y-63903868D01*
X106704401Y-63889253D01*
X106686223Y-63872777D01*
X106669747Y-63854599D01*
X106655132Y-63834893D01*
X106642520Y-63813850D01*
X106632030Y-63791671D01*
X106623765Y-63768572D01*
X106617804Y-63744773D01*
X106614204Y-63720505D01*
X106613000Y-63696001D01*
X106613000Y-62795999D01*
X106614204Y-62771495D01*
X106617804Y-62747227D01*
X106623765Y-62723428D01*
X106632030Y-62700329D01*
X106642520Y-62678150D01*
X106655132Y-62657107D01*
X106669747Y-62637401D01*
X106686223Y-62619223D01*
X106704401Y-62602747D01*
X106724107Y-62588132D01*
X106745150Y-62575520D01*
X106767329Y-62565030D01*
X106790428Y-62556765D01*
X106814227Y-62550804D01*
X106838495Y-62547204D01*
X106862999Y-62546000D01*
X107513001Y-62546000D01*
X107537505Y-62547204D01*
G37*
D12*
X112030000Y-67564000D03*
X114030000Y-66614000D03*
X114030000Y-68514000D03*
X112096000Y-61452000D03*
X114096000Y-60502000D03*
X114096000Y-62402000D03*
M02*
