G04 #@! TF.GenerationSoftware,KiCad,Pcbnew,(5.1.5-0-10_14)*
G04 #@! TF.CreationDate,2021-03-12T21:15:51+01:00*
G04 #@! TF.ProjectId,es_gateio,65735f67-6174-4656-996f-2e6b69636164,rev?*
G04 #@! TF.SameCoordinates,Original*
G04 #@! TF.FileFunction,Soldermask,Top*
G04 #@! TF.FilePolarity,Negative*
%FSLAX46Y46*%
G04 Gerber Fmt 4.6, Leading zero omitted, Abs format (unit mm)*
G04 Created by KiCad (PCBNEW (5.1.5-0-10_14)) date 2021-03-12 21:15:51*
%MOMM*%
%LPD*%
G04 APERTURE LIST*
%ADD10C,0.100000*%
G04 APERTURE END LIST*
D10*
G36*
X104253512Y-67429927D02*
G01*
X104402812Y-67459624D01*
X104566784Y-67527544D01*
X104714354Y-67626147D01*
X104839853Y-67751646D01*
X104938456Y-67899216D01*
X105006376Y-68063188D01*
X105041000Y-68237259D01*
X105041000Y-68414741D01*
X105006376Y-68588812D01*
X104938456Y-68752784D01*
X104839853Y-68900354D01*
X104714354Y-69025853D01*
X104566784Y-69124456D01*
X104402812Y-69192376D01*
X104253512Y-69222073D01*
X104228742Y-69227000D01*
X104051258Y-69227000D01*
X104026488Y-69222073D01*
X103877188Y-69192376D01*
X103713216Y-69124456D01*
X103565646Y-69025853D01*
X103440147Y-68900354D01*
X103341544Y-68752784D01*
X103273624Y-68588812D01*
X103239000Y-68414741D01*
X103239000Y-68237259D01*
X103273624Y-68063188D01*
X103341544Y-67899216D01*
X103440147Y-67751646D01*
X103565646Y-67626147D01*
X103713216Y-67527544D01*
X103877188Y-67459624D01*
X104026488Y-67429927D01*
X104051258Y-67425000D01*
X104228742Y-67425000D01*
X104253512Y-67429927D01*
G37*
G36*
X101713512Y-67429927D02*
G01*
X101862812Y-67459624D01*
X102026784Y-67527544D01*
X102174354Y-67626147D01*
X102299853Y-67751646D01*
X102398456Y-67899216D01*
X102466376Y-68063188D01*
X102501000Y-68237259D01*
X102501000Y-68414741D01*
X102466376Y-68588812D01*
X102398456Y-68752784D01*
X102299853Y-68900354D01*
X102174354Y-69025853D01*
X102026784Y-69124456D01*
X101862812Y-69192376D01*
X101713512Y-69222073D01*
X101688742Y-69227000D01*
X101511258Y-69227000D01*
X101486488Y-69222073D01*
X101337188Y-69192376D01*
X101173216Y-69124456D01*
X101025646Y-69025853D01*
X100900147Y-68900354D01*
X100801544Y-68752784D01*
X100733624Y-68588812D01*
X100699000Y-68414741D01*
X100699000Y-68237259D01*
X100733624Y-68063188D01*
X100801544Y-67899216D01*
X100900147Y-67751646D01*
X101025646Y-67626147D01*
X101173216Y-67527544D01*
X101337188Y-67459624D01*
X101486488Y-67429927D01*
X101511258Y-67425000D01*
X101688742Y-67425000D01*
X101713512Y-67429927D01*
G37*
G36*
X99173512Y-67429927D02*
G01*
X99322812Y-67459624D01*
X99486784Y-67527544D01*
X99634354Y-67626147D01*
X99759853Y-67751646D01*
X99858456Y-67899216D01*
X99926376Y-68063188D01*
X99961000Y-68237259D01*
X99961000Y-68414741D01*
X99926376Y-68588812D01*
X99858456Y-68752784D01*
X99759853Y-68900354D01*
X99634354Y-69025853D01*
X99486784Y-69124456D01*
X99322812Y-69192376D01*
X99173512Y-69222073D01*
X99148742Y-69227000D01*
X98971258Y-69227000D01*
X98946488Y-69222073D01*
X98797188Y-69192376D01*
X98633216Y-69124456D01*
X98485646Y-69025853D01*
X98360147Y-68900354D01*
X98261544Y-68752784D01*
X98193624Y-68588812D01*
X98159000Y-68414741D01*
X98159000Y-68237259D01*
X98193624Y-68063188D01*
X98261544Y-67899216D01*
X98360147Y-67751646D01*
X98485646Y-67626147D01*
X98633216Y-67527544D01*
X98797188Y-67459624D01*
X98946488Y-67429927D01*
X98971258Y-67425000D01*
X99148742Y-67425000D01*
X99173512Y-67429927D01*
G37*
G36*
X109692674Y-67579465D02*
G01*
X109730367Y-67590899D01*
X109765103Y-67609466D01*
X109795548Y-67634452D01*
X109820534Y-67664897D01*
X109839101Y-67699633D01*
X109850535Y-67737326D01*
X109855000Y-67782661D01*
X109855000Y-68869339D01*
X109850535Y-68914674D01*
X109839101Y-68952367D01*
X109820534Y-68987103D01*
X109795548Y-69017548D01*
X109765103Y-69042534D01*
X109730367Y-69061101D01*
X109692674Y-69072535D01*
X109647339Y-69077000D01*
X108810661Y-69077000D01*
X108765326Y-69072535D01*
X108727633Y-69061101D01*
X108692897Y-69042534D01*
X108662452Y-69017548D01*
X108637466Y-68987103D01*
X108618899Y-68952367D01*
X108607465Y-68914674D01*
X108603000Y-68869339D01*
X108603000Y-67782661D01*
X108607465Y-67737326D01*
X108618899Y-67699633D01*
X108637466Y-67664897D01*
X108662452Y-67634452D01*
X108692897Y-67609466D01*
X108727633Y-67590899D01*
X108765326Y-67579465D01*
X108810661Y-67575000D01*
X109647339Y-67575000D01*
X109692674Y-67579465D01*
G37*
G36*
X107642674Y-67579465D02*
G01*
X107680367Y-67590899D01*
X107715103Y-67609466D01*
X107745548Y-67634452D01*
X107770534Y-67664897D01*
X107789101Y-67699633D01*
X107800535Y-67737326D01*
X107805000Y-67782661D01*
X107805000Y-68869339D01*
X107800535Y-68914674D01*
X107789101Y-68952367D01*
X107770534Y-68987103D01*
X107745548Y-69017548D01*
X107715103Y-69042534D01*
X107680367Y-69061101D01*
X107642674Y-69072535D01*
X107597339Y-69077000D01*
X106760661Y-69077000D01*
X106715326Y-69072535D01*
X106677633Y-69061101D01*
X106642897Y-69042534D01*
X106612452Y-69017548D01*
X106587466Y-68987103D01*
X106568899Y-68952367D01*
X106557465Y-68914674D01*
X106553000Y-68869339D01*
X106553000Y-67782661D01*
X106557465Y-67737326D01*
X106568899Y-67699633D01*
X106587466Y-67664897D01*
X106612452Y-67634452D01*
X106642897Y-67609466D01*
X106677633Y-67590899D01*
X106715326Y-67579465D01*
X106760661Y-67575000D01*
X107597339Y-67575000D01*
X107642674Y-67579465D01*
G37*
G36*
X114531000Y-68965000D02*
G01*
X113529000Y-68965000D01*
X113529000Y-68063000D01*
X114531000Y-68063000D01*
X114531000Y-68965000D01*
G37*
G36*
X112531000Y-68015000D02*
G01*
X111529000Y-68015000D01*
X111529000Y-67113000D01*
X112531000Y-67113000D01*
X112531000Y-68015000D01*
G37*
G36*
X114531000Y-67065000D02*
G01*
X113529000Y-67065000D01*
X113529000Y-66163000D01*
X114531000Y-66163000D01*
X114531000Y-67065000D01*
G37*
G36*
X101713512Y-64889927D02*
G01*
X101862812Y-64919624D01*
X102026784Y-64987544D01*
X102174354Y-65086147D01*
X102299853Y-65211646D01*
X102398456Y-65359216D01*
X102466376Y-65523188D01*
X102501000Y-65697259D01*
X102501000Y-65874741D01*
X102466376Y-66048812D01*
X102398456Y-66212784D01*
X102299853Y-66360354D01*
X102174354Y-66485853D01*
X102026784Y-66584456D01*
X101862812Y-66652376D01*
X101713512Y-66682073D01*
X101688742Y-66687000D01*
X101511258Y-66687000D01*
X101486488Y-66682073D01*
X101337188Y-66652376D01*
X101173216Y-66584456D01*
X101025646Y-66485853D01*
X100900147Y-66360354D01*
X100801544Y-66212784D01*
X100733624Y-66048812D01*
X100699000Y-65874741D01*
X100699000Y-65697259D01*
X100733624Y-65523188D01*
X100801544Y-65359216D01*
X100900147Y-65211646D01*
X101025646Y-65086147D01*
X101173216Y-64987544D01*
X101337188Y-64919624D01*
X101486488Y-64889927D01*
X101511258Y-64885000D01*
X101688742Y-64885000D01*
X101713512Y-64889927D01*
G37*
G36*
X105041000Y-66687000D02*
G01*
X103239000Y-66687000D01*
X103239000Y-64885000D01*
X105041000Y-64885000D01*
X105041000Y-66687000D01*
G37*
G36*
X99173512Y-64889927D02*
G01*
X99322812Y-64919624D01*
X99486784Y-64987544D01*
X99634354Y-65086147D01*
X99759853Y-65211646D01*
X99858456Y-65359216D01*
X99926376Y-65523188D01*
X99961000Y-65697259D01*
X99961000Y-65874741D01*
X99926376Y-66048812D01*
X99858456Y-66212784D01*
X99759853Y-66360354D01*
X99634354Y-66485853D01*
X99486784Y-66584456D01*
X99322812Y-66652376D01*
X99173512Y-66682073D01*
X99148742Y-66687000D01*
X98971258Y-66687000D01*
X98946488Y-66682073D01*
X98797188Y-66652376D01*
X98633216Y-66584456D01*
X98485646Y-66485853D01*
X98360147Y-66360354D01*
X98261544Y-66212784D01*
X98193624Y-66048812D01*
X98159000Y-65874741D01*
X98159000Y-65697259D01*
X98193624Y-65523188D01*
X98261544Y-65359216D01*
X98360147Y-65211646D01*
X98485646Y-65086147D01*
X98633216Y-64987544D01*
X98797188Y-64919624D01*
X98946488Y-64889927D01*
X98971258Y-64885000D01*
X99148742Y-64885000D01*
X99173512Y-64889927D01*
G37*
G36*
X109692674Y-65039465D02*
G01*
X109730367Y-65050899D01*
X109765103Y-65069466D01*
X109795548Y-65094452D01*
X109820534Y-65124897D01*
X109839101Y-65159633D01*
X109850535Y-65197326D01*
X109855000Y-65242661D01*
X109855000Y-66329339D01*
X109850535Y-66374674D01*
X109839101Y-66412367D01*
X109820534Y-66447103D01*
X109795548Y-66477548D01*
X109765103Y-66502534D01*
X109730367Y-66521101D01*
X109692674Y-66532535D01*
X109647339Y-66537000D01*
X108810661Y-66537000D01*
X108765326Y-66532535D01*
X108727633Y-66521101D01*
X108692897Y-66502534D01*
X108662452Y-66477548D01*
X108637466Y-66447103D01*
X108618899Y-66412367D01*
X108607465Y-66374674D01*
X108603000Y-66329339D01*
X108603000Y-65242661D01*
X108607465Y-65197326D01*
X108618899Y-65159633D01*
X108637466Y-65124897D01*
X108662452Y-65094452D01*
X108692897Y-65069466D01*
X108727633Y-65050899D01*
X108765326Y-65039465D01*
X108810661Y-65035000D01*
X109647339Y-65035000D01*
X109692674Y-65039465D01*
G37*
G36*
X107642674Y-65039465D02*
G01*
X107680367Y-65050899D01*
X107715103Y-65069466D01*
X107745548Y-65094452D01*
X107770534Y-65124897D01*
X107789101Y-65159633D01*
X107800535Y-65197326D01*
X107805000Y-65242661D01*
X107805000Y-66329339D01*
X107800535Y-66374674D01*
X107789101Y-66412367D01*
X107770534Y-66447103D01*
X107745548Y-66477548D01*
X107715103Y-66502534D01*
X107680367Y-66521101D01*
X107642674Y-66532535D01*
X107597339Y-66537000D01*
X106760661Y-66537000D01*
X106715326Y-66532535D01*
X106677633Y-66521101D01*
X106642897Y-66502534D01*
X106612452Y-66477548D01*
X106587466Y-66447103D01*
X106568899Y-66412367D01*
X106557465Y-66374674D01*
X106553000Y-66329339D01*
X106553000Y-65242661D01*
X106557465Y-65197326D01*
X106568899Y-65159633D01*
X106587466Y-65124897D01*
X106612452Y-65094452D01*
X106642897Y-65069466D01*
X106677633Y-65050899D01*
X106715326Y-65039465D01*
X106760661Y-65035000D01*
X107597339Y-65035000D01*
X107642674Y-65039465D01*
G37*
G36*
X112459674Y-63769465D02*
G01*
X112497367Y-63780899D01*
X112532103Y-63799466D01*
X112562548Y-63824452D01*
X112587534Y-63854897D01*
X112606101Y-63889633D01*
X112617535Y-63927326D01*
X112622000Y-63972661D01*
X112622000Y-65059339D01*
X112617535Y-65104674D01*
X112606101Y-65142367D01*
X112587534Y-65177103D01*
X112562548Y-65207548D01*
X112532103Y-65232534D01*
X112497367Y-65251101D01*
X112459674Y-65262535D01*
X112414339Y-65267000D01*
X111577661Y-65267000D01*
X111532326Y-65262535D01*
X111494633Y-65251101D01*
X111459897Y-65232534D01*
X111429452Y-65207548D01*
X111404466Y-65177103D01*
X111385899Y-65142367D01*
X111374465Y-65104674D01*
X111370000Y-65059339D01*
X111370000Y-63972661D01*
X111374465Y-63927326D01*
X111385899Y-63889633D01*
X111404466Y-63854897D01*
X111429452Y-63824452D01*
X111459897Y-63799466D01*
X111494633Y-63780899D01*
X111532326Y-63769465D01*
X111577661Y-63765000D01*
X112414339Y-63765000D01*
X112459674Y-63769465D01*
G37*
G36*
X114509674Y-63769465D02*
G01*
X114547367Y-63780899D01*
X114582103Y-63799466D01*
X114612548Y-63824452D01*
X114637534Y-63854897D01*
X114656101Y-63889633D01*
X114667535Y-63927326D01*
X114672000Y-63972661D01*
X114672000Y-65059339D01*
X114667535Y-65104674D01*
X114656101Y-65142367D01*
X114637534Y-65177103D01*
X114612548Y-65207548D01*
X114582103Y-65232534D01*
X114547367Y-65251101D01*
X114509674Y-65262535D01*
X114464339Y-65267000D01*
X113627661Y-65267000D01*
X113582326Y-65262535D01*
X113544633Y-65251101D01*
X113509897Y-65232534D01*
X113479452Y-65207548D01*
X113454466Y-65177103D01*
X113435899Y-65142367D01*
X113424465Y-65104674D01*
X113420000Y-65059339D01*
X113420000Y-63972661D01*
X113424465Y-63927326D01*
X113435899Y-63889633D01*
X113454466Y-63854897D01*
X113479452Y-63824452D01*
X113509897Y-63799466D01*
X113544633Y-63780899D01*
X113582326Y-63769465D01*
X113627661Y-63765000D01*
X114464339Y-63765000D01*
X114509674Y-63769465D01*
G37*
G36*
X107651674Y-62499465D02*
G01*
X107689367Y-62510899D01*
X107724103Y-62529466D01*
X107754548Y-62554452D01*
X107779534Y-62584897D01*
X107798101Y-62619633D01*
X107809535Y-62657326D01*
X107814000Y-62702661D01*
X107814000Y-63789339D01*
X107809535Y-63834674D01*
X107798101Y-63872367D01*
X107779534Y-63907103D01*
X107754548Y-63937548D01*
X107724103Y-63962534D01*
X107689367Y-63981101D01*
X107651674Y-63992535D01*
X107606339Y-63997000D01*
X106769661Y-63997000D01*
X106724326Y-63992535D01*
X106686633Y-63981101D01*
X106651897Y-63962534D01*
X106621452Y-63937548D01*
X106596466Y-63907103D01*
X106577899Y-63872367D01*
X106566465Y-63834674D01*
X106562000Y-63789339D01*
X106562000Y-62702661D01*
X106566465Y-62657326D01*
X106577899Y-62619633D01*
X106596466Y-62584897D01*
X106621452Y-62554452D01*
X106651897Y-62529466D01*
X106686633Y-62510899D01*
X106724326Y-62499465D01*
X106769661Y-62495000D01*
X107606339Y-62495000D01*
X107651674Y-62499465D01*
G37*
G36*
X109701674Y-62499465D02*
G01*
X109739367Y-62510899D01*
X109774103Y-62529466D01*
X109804548Y-62554452D01*
X109829534Y-62584897D01*
X109848101Y-62619633D01*
X109859535Y-62657326D01*
X109864000Y-62702661D01*
X109864000Y-63789339D01*
X109859535Y-63834674D01*
X109848101Y-63872367D01*
X109829534Y-63907103D01*
X109804548Y-63937548D01*
X109774103Y-63962534D01*
X109739367Y-63981101D01*
X109701674Y-63992535D01*
X109656339Y-63997000D01*
X108819661Y-63997000D01*
X108774326Y-63992535D01*
X108736633Y-63981101D01*
X108701897Y-63962534D01*
X108671452Y-63937548D01*
X108646466Y-63907103D01*
X108627899Y-63872367D01*
X108616465Y-63834674D01*
X108612000Y-63789339D01*
X108612000Y-62702661D01*
X108616465Y-62657326D01*
X108627899Y-62619633D01*
X108646466Y-62584897D01*
X108671452Y-62554452D01*
X108701897Y-62529466D01*
X108736633Y-62510899D01*
X108774326Y-62499465D01*
X108819661Y-62495000D01*
X109656339Y-62495000D01*
X109701674Y-62499465D01*
G37*
G36*
X114597000Y-62853000D02*
G01*
X113595000Y-62853000D01*
X113595000Y-61951000D01*
X114597000Y-61951000D01*
X114597000Y-62853000D01*
G37*
G36*
X112597000Y-61903000D02*
G01*
X111595000Y-61903000D01*
X111595000Y-61001000D01*
X112597000Y-61001000D01*
X112597000Y-61903000D01*
G37*
G36*
X101713512Y-59809927D02*
G01*
X101862812Y-59839624D01*
X102026784Y-59907544D01*
X102174354Y-60006147D01*
X102299853Y-60131646D01*
X102398456Y-60279216D01*
X102466376Y-60443188D01*
X102501000Y-60617259D01*
X102501000Y-60794741D01*
X102466376Y-60968812D01*
X102398456Y-61132784D01*
X102299853Y-61280354D01*
X102174354Y-61405853D01*
X102026784Y-61504456D01*
X101862812Y-61572376D01*
X101713512Y-61602073D01*
X101688742Y-61607000D01*
X101511258Y-61607000D01*
X101486488Y-61602073D01*
X101337188Y-61572376D01*
X101173216Y-61504456D01*
X101025646Y-61405853D01*
X100900147Y-61280354D01*
X100801544Y-61132784D01*
X100733624Y-60968812D01*
X100699000Y-60794741D01*
X100699000Y-60617259D01*
X100733624Y-60443188D01*
X100801544Y-60279216D01*
X100900147Y-60131646D01*
X101025646Y-60006147D01*
X101173216Y-59907544D01*
X101337188Y-59839624D01*
X101486488Y-59809927D01*
X101511258Y-59805000D01*
X101688742Y-59805000D01*
X101713512Y-59809927D01*
G37*
G36*
X104253512Y-59809927D02*
G01*
X104402812Y-59839624D01*
X104566784Y-59907544D01*
X104714354Y-60006147D01*
X104839853Y-60131646D01*
X104938456Y-60279216D01*
X105006376Y-60443188D01*
X105041000Y-60617259D01*
X105041000Y-60794741D01*
X105006376Y-60968812D01*
X104938456Y-61132784D01*
X104839853Y-61280354D01*
X104714354Y-61405853D01*
X104566784Y-61504456D01*
X104402812Y-61572376D01*
X104253512Y-61602073D01*
X104228742Y-61607000D01*
X104051258Y-61607000D01*
X104026488Y-61602073D01*
X103877188Y-61572376D01*
X103713216Y-61504456D01*
X103565646Y-61405853D01*
X103440147Y-61280354D01*
X103341544Y-61132784D01*
X103273624Y-60968812D01*
X103239000Y-60794741D01*
X103239000Y-60617259D01*
X103273624Y-60443188D01*
X103341544Y-60279216D01*
X103440147Y-60131646D01*
X103565646Y-60006147D01*
X103713216Y-59907544D01*
X103877188Y-59839624D01*
X104026488Y-59809927D01*
X104051258Y-59805000D01*
X104228742Y-59805000D01*
X104253512Y-59809927D01*
G37*
G36*
X99173512Y-59809927D02*
G01*
X99322812Y-59839624D01*
X99486784Y-59907544D01*
X99634354Y-60006147D01*
X99759853Y-60131646D01*
X99858456Y-60279216D01*
X99926376Y-60443188D01*
X99961000Y-60617259D01*
X99961000Y-60794741D01*
X99926376Y-60968812D01*
X99858456Y-61132784D01*
X99759853Y-61280354D01*
X99634354Y-61405853D01*
X99486784Y-61504456D01*
X99322812Y-61572376D01*
X99173512Y-61602073D01*
X99148742Y-61607000D01*
X98971258Y-61607000D01*
X98946488Y-61602073D01*
X98797188Y-61572376D01*
X98633216Y-61504456D01*
X98485646Y-61405853D01*
X98360147Y-61280354D01*
X98261544Y-61132784D01*
X98193624Y-60968812D01*
X98159000Y-60794741D01*
X98159000Y-60617259D01*
X98193624Y-60443188D01*
X98261544Y-60279216D01*
X98360147Y-60131646D01*
X98485646Y-60006147D01*
X98633216Y-59907544D01*
X98797188Y-59839624D01*
X98946488Y-59809927D01*
X98971258Y-59805000D01*
X99148742Y-59805000D01*
X99173512Y-59809927D01*
G37*
G36*
X107642674Y-59959465D02*
G01*
X107680367Y-59970899D01*
X107715103Y-59989466D01*
X107745548Y-60014452D01*
X107770534Y-60044897D01*
X107789101Y-60079633D01*
X107800535Y-60117326D01*
X107805000Y-60162661D01*
X107805000Y-61249339D01*
X107800535Y-61294674D01*
X107789101Y-61332367D01*
X107770534Y-61367103D01*
X107745548Y-61397548D01*
X107715103Y-61422534D01*
X107680367Y-61441101D01*
X107642674Y-61452535D01*
X107597339Y-61457000D01*
X106760661Y-61457000D01*
X106715326Y-61452535D01*
X106677633Y-61441101D01*
X106642897Y-61422534D01*
X106612452Y-61397548D01*
X106587466Y-61367103D01*
X106568899Y-61332367D01*
X106557465Y-61294674D01*
X106553000Y-61249339D01*
X106553000Y-60162661D01*
X106557465Y-60117326D01*
X106568899Y-60079633D01*
X106587466Y-60044897D01*
X106612452Y-60014452D01*
X106642897Y-59989466D01*
X106677633Y-59970899D01*
X106715326Y-59959465D01*
X106760661Y-59955000D01*
X107597339Y-59955000D01*
X107642674Y-59959465D01*
G37*
G36*
X109692674Y-59959465D02*
G01*
X109730367Y-59970899D01*
X109765103Y-59989466D01*
X109795548Y-60014452D01*
X109820534Y-60044897D01*
X109839101Y-60079633D01*
X109850535Y-60117326D01*
X109855000Y-60162661D01*
X109855000Y-61249339D01*
X109850535Y-61294674D01*
X109839101Y-61332367D01*
X109820534Y-61367103D01*
X109795548Y-61397548D01*
X109765103Y-61422534D01*
X109730367Y-61441101D01*
X109692674Y-61452535D01*
X109647339Y-61457000D01*
X108810661Y-61457000D01*
X108765326Y-61452535D01*
X108727633Y-61441101D01*
X108692897Y-61422534D01*
X108662452Y-61397548D01*
X108637466Y-61367103D01*
X108618899Y-61332367D01*
X108607465Y-61294674D01*
X108603000Y-61249339D01*
X108603000Y-60162661D01*
X108607465Y-60117326D01*
X108618899Y-60079633D01*
X108637466Y-60044897D01*
X108662452Y-60014452D01*
X108692897Y-59989466D01*
X108727633Y-59970899D01*
X108765326Y-59959465D01*
X108810661Y-59955000D01*
X109647339Y-59955000D01*
X109692674Y-59959465D01*
G37*
G36*
X114597000Y-60953000D02*
G01*
X113595000Y-60953000D01*
X113595000Y-60051000D01*
X114597000Y-60051000D01*
X114597000Y-60953000D01*
G37*
G36*
X99173512Y-57269927D02*
G01*
X99322812Y-57299624D01*
X99486784Y-57367544D01*
X99634354Y-57466147D01*
X99759853Y-57591646D01*
X99858456Y-57739216D01*
X99926376Y-57903188D01*
X99961000Y-58077259D01*
X99961000Y-58254741D01*
X99926376Y-58428812D01*
X99858456Y-58592784D01*
X99759853Y-58740354D01*
X99634354Y-58865853D01*
X99486784Y-58964456D01*
X99322812Y-59032376D01*
X99173512Y-59062073D01*
X99148742Y-59067000D01*
X98971258Y-59067000D01*
X98946488Y-59062073D01*
X98797188Y-59032376D01*
X98633216Y-58964456D01*
X98485646Y-58865853D01*
X98360147Y-58740354D01*
X98261544Y-58592784D01*
X98193624Y-58428812D01*
X98159000Y-58254741D01*
X98159000Y-58077259D01*
X98193624Y-57903188D01*
X98261544Y-57739216D01*
X98360147Y-57591646D01*
X98485646Y-57466147D01*
X98633216Y-57367544D01*
X98797188Y-57299624D01*
X98946488Y-57269927D01*
X98971258Y-57265000D01*
X99148742Y-57265000D01*
X99173512Y-57269927D01*
G37*
G36*
X101713512Y-57269927D02*
G01*
X101862812Y-57299624D01*
X102026784Y-57367544D01*
X102174354Y-57466147D01*
X102299853Y-57591646D01*
X102398456Y-57739216D01*
X102466376Y-57903188D01*
X102501000Y-58077259D01*
X102501000Y-58254741D01*
X102466376Y-58428812D01*
X102398456Y-58592784D01*
X102299853Y-58740354D01*
X102174354Y-58865853D01*
X102026784Y-58964456D01*
X101862812Y-59032376D01*
X101713512Y-59062073D01*
X101688742Y-59067000D01*
X101511258Y-59067000D01*
X101486488Y-59062073D01*
X101337188Y-59032376D01*
X101173216Y-58964456D01*
X101025646Y-58865853D01*
X100900147Y-58740354D01*
X100801544Y-58592784D01*
X100733624Y-58428812D01*
X100699000Y-58254741D01*
X100699000Y-58077259D01*
X100733624Y-57903188D01*
X100801544Y-57739216D01*
X100900147Y-57591646D01*
X101025646Y-57466147D01*
X101173216Y-57367544D01*
X101337188Y-57299624D01*
X101486488Y-57269927D01*
X101511258Y-57265000D01*
X101688742Y-57265000D01*
X101713512Y-57269927D01*
G37*
G36*
X105041000Y-59067000D02*
G01*
X103239000Y-59067000D01*
X103239000Y-57265000D01*
X105041000Y-57265000D01*
X105041000Y-59067000D01*
G37*
G36*
X112207000Y-59067000D02*
G01*
X110805000Y-59067000D01*
X110805000Y-57265000D01*
X112207000Y-57265000D01*
X112207000Y-59067000D01*
G37*
G36*
X115707000Y-59067000D02*
G01*
X114305000Y-59067000D01*
X114305000Y-57265000D01*
X115707000Y-57265000D01*
X115707000Y-59067000D01*
G37*
G36*
X109683674Y-57419465D02*
G01*
X109721367Y-57430899D01*
X109756103Y-57449466D01*
X109786548Y-57474452D01*
X109811534Y-57504897D01*
X109830101Y-57539633D01*
X109841535Y-57577326D01*
X109846000Y-57622661D01*
X109846000Y-58709339D01*
X109841535Y-58754674D01*
X109830101Y-58792367D01*
X109811534Y-58827103D01*
X109786548Y-58857548D01*
X109756103Y-58882534D01*
X109721367Y-58901101D01*
X109683674Y-58912535D01*
X109638339Y-58917000D01*
X108801661Y-58917000D01*
X108756326Y-58912535D01*
X108718633Y-58901101D01*
X108683897Y-58882534D01*
X108653452Y-58857548D01*
X108628466Y-58827103D01*
X108609899Y-58792367D01*
X108598465Y-58754674D01*
X108594000Y-58709339D01*
X108594000Y-57622661D01*
X108598465Y-57577326D01*
X108609899Y-57539633D01*
X108628466Y-57504897D01*
X108653452Y-57474452D01*
X108683897Y-57449466D01*
X108718633Y-57430899D01*
X108756326Y-57419465D01*
X108801661Y-57415000D01*
X109638339Y-57415000D01*
X109683674Y-57419465D01*
G37*
G36*
X107633674Y-57419465D02*
G01*
X107671367Y-57430899D01*
X107706103Y-57449466D01*
X107736548Y-57474452D01*
X107761534Y-57504897D01*
X107780101Y-57539633D01*
X107791535Y-57577326D01*
X107796000Y-57622661D01*
X107796000Y-58709339D01*
X107791535Y-58754674D01*
X107780101Y-58792367D01*
X107761534Y-58827103D01*
X107736548Y-58857548D01*
X107706103Y-58882534D01*
X107671367Y-58901101D01*
X107633674Y-58912535D01*
X107588339Y-58917000D01*
X106751661Y-58917000D01*
X106706326Y-58912535D01*
X106668633Y-58901101D01*
X106633897Y-58882534D01*
X106603452Y-58857548D01*
X106578466Y-58827103D01*
X106559899Y-58792367D01*
X106548465Y-58754674D01*
X106544000Y-58709339D01*
X106544000Y-57622661D01*
X106548465Y-57577326D01*
X106559899Y-57539633D01*
X106578466Y-57504897D01*
X106603452Y-57474452D01*
X106633897Y-57449466D01*
X106668633Y-57430899D01*
X106706326Y-57419465D01*
X106751661Y-57415000D01*
X107588339Y-57415000D01*
X107633674Y-57419465D01*
G37*
M02*
