G04 #@! TF.GenerationSoftware,KiCad,Pcbnew,(5.1.5-0-10_14)*
G04 #@! TF.CreationDate,2021-03-12T21:15:51+01:00*
G04 #@! TF.ProjectId,es_gateio,65735f67-6174-4656-996f-2e6b69636164,rev?*
G04 #@! TF.SameCoordinates,Original*
G04 #@! TF.FileFunction,Legend,Top*
G04 #@! TF.FilePolarity,Positive*
%FSLAX46Y46*%
G04 Gerber Fmt 4.6, Leading zero omitted, Abs format (unit mm)*
G04 Created by KiCad (PCBNEW (5.1.5-0-10_14)) date 2021-03-12 21:15:51*
%MOMM*%
%LPD*%
G04 APERTURE LIST*
%ADD10C,0.152400*%
%ADD11C,0.177800*%
%ADD12C,0.120000*%
%ADD13C,0.150000*%
G04 APERTURE END LIST*
D10*
X106607428Y-69505285D02*
X106643714Y-69469000D01*
X106716285Y-69432714D01*
X106897714Y-69432714D01*
X106970285Y-69469000D01*
X107006571Y-69505285D01*
X107042857Y-69577857D01*
X107042857Y-69650428D01*
X107006571Y-69759285D01*
X106571142Y-70194714D01*
X107042857Y-70194714D01*
X107514571Y-69432714D02*
X107587142Y-69432714D01*
X107659714Y-69469000D01*
X107696000Y-69505285D01*
X107732285Y-69577857D01*
X107768571Y-69723000D01*
X107768571Y-69904428D01*
X107732285Y-70049571D01*
X107696000Y-70122142D01*
X107659714Y-70158428D01*
X107587142Y-70194714D01*
X107514571Y-70194714D01*
X107442000Y-70158428D01*
X107405714Y-70122142D01*
X107369428Y-70049571D01*
X107333142Y-69904428D01*
X107333142Y-69723000D01*
X107369428Y-69577857D01*
X107405714Y-69505285D01*
X107442000Y-69469000D01*
X107514571Y-69432714D01*
X108058857Y-69505285D02*
X108095142Y-69469000D01*
X108167714Y-69432714D01*
X108349142Y-69432714D01*
X108421714Y-69469000D01*
X108458000Y-69505285D01*
X108494285Y-69577857D01*
X108494285Y-69650428D01*
X108458000Y-69759285D01*
X108022571Y-70194714D01*
X108494285Y-70194714D01*
X109220000Y-70194714D02*
X108784571Y-70194714D01*
X109002285Y-70194714D02*
X109002285Y-69432714D01*
X108929714Y-69541571D01*
X108857142Y-69614142D01*
X108784571Y-69650428D01*
X110236000Y-70194714D02*
X110163428Y-70158428D01*
X110127142Y-70085857D01*
X110127142Y-69432714D01*
X110852857Y-70194714D02*
X110852857Y-69795571D01*
X110816571Y-69723000D01*
X110744000Y-69686714D01*
X110598857Y-69686714D01*
X110526285Y-69723000D01*
X110852857Y-70158428D02*
X110780285Y-70194714D01*
X110598857Y-70194714D01*
X110526285Y-70158428D01*
X110490000Y-70085857D01*
X110490000Y-70013285D01*
X110526285Y-69940714D01*
X110598857Y-69904428D01*
X110780285Y-69904428D01*
X110852857Y-69868142D01*
X111324571Y-70194714D02*
X111252000Y-70158428D01*
X111215714Y-70085857D01*
X111215714Y-69432714D01*
X111723714Y-70194714D02*
X111651142Y-70158428D01*
X111614857Y-70085857D01*
X111614857Y-69432714D01*
X112340571Y-70194714D02*
X112340571Y-69795571D01*
X112304285Y-69723000D01*
X112231714Y-69686714D01*
X112086571Y-69686714D01*
X112014000Y-69723000D01*
X112340571Y-70158428D02*
X112268000Y-70194714D01*
X112086571Y-70194714D01*
X112014000Y-70158428D01*
X111977714Y-70085857D01*
X111977714Y-70013285D01*
X112014000Y-69940714D01*
X112086571Y-69904428D01*
X112268000Y-69904428D01*
X112340571Y-69868142D01*
X112594571Y-69686714D02*
X112884857Y-69686714D01*
X112703428Y-70194714D02*
X112703428Y-69541571D01*
X112739714Y-69469000D01*
X112812285Y-69432714D01*
X112884857Y-69432714D01*
X113465428Y-70194714D02*
X113465428Y-69795571D01*
X113429142Y-69723000D01*
X113356571Y-69686714D01*
X113211428Y-69686714D01*
X113138857Y-69723000D01*
X113465428Y-70158428D02*
X113392857Y-70194714D01*
X113211428Y-70194714D01*
X113138857Y-70158428D01*
X113102571Y-70085857D01*
X113102571Y-70013285D01*
X113138857Y-69940714D01*
X113211428Y-69904428D01*
X113392857Y-69904428D01*
X113465428Y-69868142D01*
X114808000Y-70194714D02*
X114372571Y-70194714D01*
X114590285Y-70194714D02*
X114590285Y-69432714D01*
X114517714Y-69541571D01*
X114445142Y-69614142D01*
X114372571Y-69650428D01*
X115134571Y-70122142D02*
X115170857Y-70158428D01*
X115134571Y-70194714D01*
X115098285Y-70158428D01*
X115134571Y-70122142D01*
X115134571Y-70194714D01*
X115642571Y-69432714D02*
X115715142Y-69432714D01*
X115787714Y-69469000D01*
X115824000Y-69505285D01*
X115860285Y-69577857D01*
X115896571Y-69723000D01*
X115896571Y-69904428D01*
X115860285Y-70049571D01*
X115824000Y-70122142D01*
X115787714Y-70158428D01*
X115715142Y-70194714D01*
X115642571Y-70194714D01*
X115570000Y-70158428D01*
X115533714Y-70122142D01*
X115497428Y-70049571D01*
X115461142Y-69904428D01*
X115461142Y-69723000D01*
X115497428Y-69577857D01*
X115533714Y-69505285D01*
X115570000Y-69469000D01*
X115642571Y-69432714D01*
D11*
X99640571Y-62865000D02*
X99568000Y-62828714D01*
X99459142Y-62828714D01*
X99350285Y-62865000D01*
X99277714Y-62937571D01*
X99241428Y-63010142D01*
X99205142Y-63155285D01*
X99205142Y-63264142D01*
X99241428Y-63409285D01*
X99277714Y-63481857D01*
X99350285Y-63554428D01*
X99459142Y-63590714D01*
X99531714Y-63590714D01*
X99640571Y-63554428D01*
X99676857Y-63518142D01*
X99676857Y-63264142D01*
X99531714Y-63264142D01*
X100330000Y-63590714D02*
X100330000Y-63191571D01*
X100293714Y-63119000D01*
X100221142Y-63082714D01*
X100076000Y-63082714D01*
X100003428Y-63119000D01*
X100330000Y-63554428D02*
X100257428Y-63590714D01*
X100076000Y-63590714D01*
X100003428Y-63554428D01*
X99967142Y-63481857D01*
X99967142Y-63409285D01*
X100003428Y-63336714D01*
X100076000Y-63300428D01*
X100257428Y-63300428D01*
X100330000Y-63264142D01*
X100584000Y-63082714D02*
X100874285Y-63082714D01*
X100692857Y-62828714D02*
X100692857Y-63481857D01*
X100729142Y-63554428D01*
X100801714Y-63590714D01*
X100874285Y-63590714D01*
X101418571Y-63554428D02*
X101346000Y-63590714D01*
X101200857Y-63590714D01*
X101128285Y-63554428D01*
X101092000Y-63481857D01*
X101092000Y-63191571D01*
X101128285Y-63119000D01*
X101200857Y-63082714D01*
X101346000Y-63082714D01*
X101418571Y-63119000D01*
X101454857Y-63191571D01*
X101454857Y-63264142D01*
X101092000Y-63336714D01*
X102362000Y-63590714D02*
X102362000Y-62828714D01*
X103269142Y-62792428D02*
X102616000Y-63772142D01*
X103668285Y-62828714D02*
X103813428Y-62828714D01*
X103886000Y-62865000D01*
X103958571Y-62937571D01*
X103994857Y-63082714D01*
X103994857Y-63336714D01*
X103958571Y-63481857D01*
X103886000Y-63554428D01*
X103813428Y-63590714D01*
X103668285Y-63590714D01*
X103595714Y-63554428D01*
X103523142Y-63481857D01*
X103486857Y-63336714D01*
X103486857Y-63082714D01*
X103523142Y-62937571D01*
X103595714Y-62865000D01*
X103668285Y-62828714D01*
D12*
X105470000Y-64456000D02*
X105470000Y-65786000D01*
X104140000Y-64456000D02*
X105470000Y-64456000D01*
X105470000Y-67056000D02*
X105470000Y-69656000D01*
X102870000Y-67056000D02*
X105470000Y-67056000D01*
X102870000Y-64456000D02*
X102870000Y-67056000D01*
X105470000Y-69656000D02*
X97730000Y-69656000D01*
X102870000Y-64456000D02*
X97730000Y-64456000D01*
X97730000Y-64456000D02*
X97730000Y-69656000D01*
X108456252Y-57456000D02*
X107933748Y-57456000D01*
X108456252Y-58876000D02*
X107933748Y-58876000D01*
X105470000Y-56836000D02*
X105470000Y-58166000D01*
X104140000Y-56836000D02*
X105470000Y-56836000D01*
X105470000Y-59436000D02*
X105470000Y-62036000D01*
X102870000Y-59436000D02*
X105470000Y-59436000D01*
X102870000Y-56836000D02*
X102870000Y-59436000D01*
X105470000Y-62036000D02*
X97730000Y-62036000D01*
X102870000Y-56836000D02*
X97730000Y-56836000D01*
X97730000Y-56836000D02*
X97730000Y-62036000D01*
X115806000Y-57166000D02*
X111506000Y-57166000D01*
X115806000Y-59166000D02*
X115806000Y-57166000D01*
X111506000Y-59166000D02*
X115806000Y-59166000D01*
X112759748Y-65226000D02*
X113282252Y-65226000D01*
X112759748Y-63806000D02*
X113282252Y-63806000D01*
X108465252Y-65076000D02*
X107942748Y-65076000D01*
X108465252Y-66496000D02*
X107942748Y-66496000D01*
X108465252Y-67616000D02*
X107942748Y-67616000D01*
X108465252Y-69036000D02*
X107942748Y-69036000D01*
X108465252Y-59996000D02*
X107942748Y-59996000D01*
X108465252Y-61416000D02*
X107942748Y-61416000D01*
X107951748Y-63956000D02*
X108474252Y-63956000D01*
X107951748Y-62536000D02*
X108474252Y-62536000D01*
X112270000Y-65984000D02*
X113730000Y-65984000D01*
X112270000Y-69144000D02*
X114430000Y-69144000D01*
X112270000Y-69144000D02*
X112270000Y-68214000D01*
X112270000Y-65984000D02*
X112270000Y-66914000D01*
X112336000Y-59872000D02*
X113796000Y-59872000D01*
X112336000Y-63032000D02*
X114496000Y-63032000D01*
X112336000Y-63032000D02*
X112336000Y-62102000D01*
X112336000Y-59872000D02*
X112336000Y-60802000D01*
D13*
X104822666Y-63206380D02*
X104822666Y-63920666D01*
X104775047Y-64063523D01*
X104679809Y-64158761D01*
X104536952Y-64206380D01*
X104441714Y-64206380D01*
X105251238Y-63301619D02*
X105298857Y-63254000D01*
X105394095Y-63206380D01*
X105632190Y-63206380D01*
X105727428Y-63254000D01*
X105775047Y-63301619D01*
X105822666Y-63396857D01*
X105822666Y-63492095D01*
X105775047Y-63634952D01*
X105203619Y-64206380D01*
X105822666Y-64206380D01*
X108291333Y-57094380D02*
X107958000Y-56618190D01*
X107719904Y-57094380D02*
X107719904Y-56094380D01*
X108100857Y-56094380D01*
X108196095Y-56142000D01*
X108243714Y-56189619D01*
X108291333Y-56284857D01*
X108291333Y-56427714D01*
X108243714Y-56522952D01*
X108196095Y-56570571D01*
X108100857Y-56618190D01*
X107719904Y-56618190D01*
X109243714Y-57094380D02*
X108672285Y-57094380D01*
X108958000Y-57094380D02*
X108958000Y-56094380D01*
X108862761Y-56237238D01*
X108767523Y-56332476D01*
X108672285Y-56380095D01*
X97456666Y-62190380D02*
X97456666Y-62904666D01*
X97409047Y-63047523D01*
X97313809Y-63142761D01*
X97170952Y-63190380D01*
X97075714Y-63190380D01*
X98456666Y-63190380D02*
X97885238Y-63190380D01*
X98170952Y-63190380D02*
X98170952Y-62190380D01*
X98075714Y-62333238D01*
X97980476Y-62428476D01*
X97885238Y-62476095D01*
X112517904Y-57094380D02*
X112517904Y-56094380D01*
X112756000Y-56094380D01*
X112898857Y-56142000D01*
X112994095Y-56237238D01*
X113041714Y-56332476D01*
X113089333Y-56522952D01*
X113089333Y-56665809D01*
X113041714Y-56856285D01*
X112994095Y-56951523D01*
X112898857Y-57046761D01*
X112756000Y-57094380D01*
X112517904Y-57094380D01*
X114041714Y-57094380D02*
X113470285Y-57094380D01*
X113756000Y-57094380D02*
X113756000Y-56094380D01*
X113660761Y-56237238D01*
X113565523Y-56332476D01*
X113470285Y-56380095D01*
X116022380Y-64682666D02*
X115546190Y-65016000D01*
X116022380Y-65254095D02*
X115022380Y-65254095D01*
X115022380Y-64873142D01*
X115070000Y-64777904D01*
X115117619Y-64730285D01*
X115212857Y-64682666D01*
X115355714Y-64682666D01*
X115450952Y-64730285D01*
X115498571Y-64777904D01*
X115546190Y-64873142D01*
X115546190Y-65254095D01*
X115022380Y-63825523D02*
X115022380Y-64016000D01*
X115070000Y-64111238D01*
X115117619Y-64158857D01*
X115260476Y-64254095D01*
X115450952Y-64301714D01*
X115831904Y-64301714D01*
X115927142Y-64254095D01*
X115974761Y-64206476D01*
X116022380Y-64111238D01*
X116022380Y-63920761D01*
X115974761Y-63825523D01*
X115927142Y-63777904D01*
X115831904Y-63730285D01*
X115593809Y-63730285D01*
X115498571Y-63777904D01*
X115450952Y-63825523D01*
X115403333Y-63920761D01*
X115403333Y-64111238D01*
X115450952Y-64206476D01*
X115498571Y-64254095D01*
X115593809Y-64301714D01*
X111196380Y-65952666D02*
X110720190Y-66286000D01*
X111196380Y-66524095D02*
X110196380Y-66524095D01*
X110196380Y-66143142D01*
X110244000Y-66047904D01*
X110291619Y-66000285D01*
X110386857Y-65952666D01*
X110529714Y-65952666D01*
X110624952Y-66000285D01*
X110672571Y-66047904D01*
X110720190Y-66143142D01*
X110720190Y-66524095D01*
X110196380Y-65047904D02*
X110196380Y-65524095D01*
X110672571Y-65571714D01*
X110624952Y-65524095D01*
X110577333Y-65428857D01*
X110577333Y-65190761D01*
X110624952Y-65095523D01*
X110672571Y-65047904D01*
X110767809Y-65000285D01*
X111005904Y-65000285D01*
X111101142Y-65047904D01*
X111148761Y-65095523D01*
X111196380Y-65190761D01*
X111196380Y-65428857D01*
X111148761Y-65524095D01*
X111101142Y-65571714D01*
X111196380Y-68492666D02*
X110720190Y-68826000D01*
X111196380Y-69064095D02*
X110196380Y-69064095D01*
X110196380Y-68683142D01*
X110244000Y-68587904D01*
X110291619Y-68540285D01*
X110386857Y-68492666D01*
X110529714Y-68492666D01*
X110624952Y-68540285D01*
X110672571Y-68587904D01*
X110720190Y-68683142D01*
X110720190Y-69064095D01*
X110529714Y-67635523D02*
X111196380Y-67635523D01*
X110148761Y-67873619D02*
X110863047Y-68111714D01*
X110863047Y-67492666D01*
X111196380Y-63412666D02*
X110720190Y-63746000D01*
X111196380Y-63984095D02*
X110196380Y-63984095D01*
X110196380Y-63603142D01*
X110244000Y-63507904D01*
X110291619Y-63460285D01*
X110386857Y-63412666D01*
X110529714Y-63412666D01*
X110624952Y-63460285D01*
X110672571Y-63507904D01*
X110720190Y-63603142D01*
X110720190Y-63984095D01*
X110196380Y-63079333D02*
X110196380Y-62460285D01*
X110577333Y-62793619D01*
X110577333Y-62650761D01*
X110624952Y-62555523D01*
X110672571Y-62507904D01*
X110767809Y-62460285D01*
X111005904Y-62460285D01*
X111101142Y-62507904D01*
X111148761Y-62555523D01*
X111196380Y-62650761D01*
X111196380Y-62936476D01*
X111148761Y-63031714D01*
X111101142Y-63079333D01*
X111196380Y-60872666D02*
X110720190Y-61206000D01*
X111196380Y-61444095D02*
X110196380Y-61444095D01*
X110196380Y-61063142D01*
X110244000Y-60967904D01*
X110291619Y-60920285D01*
X110386857Y-60872666D01*
X110529714Y-60872666D01*
X110624952Y-60920285D01*
X110672571Y-60967904D01*
X110720190Y-61063142D01*
X110720190Y-61444095D01*
X110291619Y-60491714D02*
X110244000Y-60444095D01*
X110196380Y-60348857D01*
X110196380Y-60110761D01*
X110244000Y-60015523D01*
X110291619Y-59967904D01*
X110386857Y-59920285D01*
X110482095Y-59920285D01*
X110624952Y-59967904D01*
X111196380Y-60539333D01*
X111196380Y-59920285D01*
X116117619Y-67659238D02*
X116070000Y-67754476D01*
X115974761Y-67849714D01*
X115831904Y-67992571D01*
X115784285Y-68087809D01*
X115784285Y-68183047D01*
X116022380Y-68135428D02*
X115974761Y-68230666D01*
X115879523Y-68325904D01*
X115689047Y-68373523D01*
X115355714Y-68373523D01*
X115165238Y-68325904D01*
X115070000Y-68230666D01*
X115022380Y-68135428D01*
X115022380Y-67944952D01*
X115070000Y-67849714D01*
X115165238Y-67754476D01*
X115355714Y-67706857D01*
X115689047Y-67706857D01*
X115879523Y-67754476D01*
X115974761Y-67849714D01*
X116022380Y-67944952D01*
X116022380Y-68135428D01*
X115117619Y-67325904D02*
X115070000Y-67278285D01*
X115022380Y-67183047D01*
X115022380Y-66944952D01*
X115070000Y-66849714D01*
X115117619Y-66802095D01*
X115212857Y-66754476D01*
X115308095Y-66754476D01*
X115450952Y-66802095D01*
X116022380Y-67373523D01*
X116022380Y-66754476D01*
X116117619Y-61563238D02*
X116070000Y-61658476D01*
X115974761Y-61753714D01*
X115831904Y-61896571D01*
X115784285Y-61991809D01*
X115784285Y-62087047D01*
X116022380Y-62039428D02*
X115974761Y-62134666D01*
X115879523Y-62229904D01*
X115689047Y-62277523D01*
X115355714Y-62277523D01*
X115165238Y-62229904D01*
X115070000Y-62134666D01*
X115022380Y-62039428D01*
X115022380Y-61848952D01*
X115070000Y-61753714D01*
X115165238Y-61658476D01*
X115355714Y-61610857D01*
X115689047Y-61610857D01*
X115879523Y-61658476D01*
X115974761Y-61753714D01*
X116022380Y-61848952D01*
X116022380Y-62039428D01*
X116022380Y-60658476D02*
X116022380Y-61229904D01*
X116022380Y-60944190D02*
X115022380Y-60944190D01*
X115165238Y-61039428D01*
X115260476Y-61134666D01*
X115308095Y-61229904D01*
M02*
