G04 #@! TF.GenerationSoftware,KiCad,Pcbnew,(5.1.5-0-10_14)*
G04 #@! TF.CreationDate,2021-03-12T21:15:51+01:00*
G04 #@! TF.ProjectId,es_gateio,65735f67-6174-4656-996f-2e6b69636164,rev?*
G04 #@! TF.SameCoordinates,Original*
G04 #@! TF.FileFunction,Soldermask,Bot*
G04 #@! TF.FilePolarity,Negative*
%FSLAX46Y46*%
G04 Gerber Fmt 4.6, Leading zero omitted, Abs format (unit mm)*
G04 Created by KiCad (PCBNEW (5.1.5-0-10_14)) date 2021-03-12 21:15:51*
%MOMM*%
%LPD*%
G04 APERTURE LIST*
%ADD10C,0.100000*%
G04 APERTURE END LIST*
D10*
G36*
X104253512Y-67429927D02*
G01*
X104402812Y-67459624D01*
X104566784Y-67527544D01*
X104714354Y-67626147D01*
X104839853Y-67751646D01*
X104938456Y-67899216D01*
X105006376Y-68063188D01*
X105041000Y-68237259D01*
X105041000Y-68414741D01*
X105006376Y-68588812D01*
X104938456Y-68752784D01*
X104839853Y-68900354D01*
X104714354Y-69025853D01*
X104566784Y-69124456D01*
X104402812Y-69192376D01*
X104253512Y-69222073D01*
X104228742Y-69227000D01*
X104051258Y-69227000D01*
X104026488Y-69222073D01*
X103877188Y-69192376D01*
X103713216Y-69124456D01*
X103565646Y-69025853D01*
X103440147Y-68900354D01*
X103341544Y-68752784D01*
X103273624Y-68588812D01*
X103239000Y-68414741D01*
X103239000Y-68237259D01*
X103273624Y-68063188D01*
X103341544Y-67899216D01*
X103440147Y-67751646D01*
X103565646Y-67626147D01*
X103713216Y-67527544D01*
X103877188Y-67459624D01*
X104026488Y-67429927D01*
X104051258Y-67425000D01*
X104228742Y-67425000D01*
X104253512Y-67429927D01*
G37*
G36*
X101713512Y-67429927D02*
G01*
X101862812Y-67459624D01*
X102026784Y-67527544D01*
X102174354Y-67626147D01*
X102299853Y-67751646D01*
X102398456Y-67899216D01*
X102466376Y-68063188D01*
X102501000Y-68237259D01*
X102501000Y-68414741D01*
X102466376Y-68588812D01*
X102398456Y-68752784D01*
X102299853Y-68900354D01*
X102174354Y-69025853D01*
X102026784Y-69124456D01*
X101862812Y-69192376D01*
X101713512Y-69222073D01*
X101688742Y-69227000D01*
X101511258Y-69227000D01*
X101486488Y-69222073D01*
X101337188Y-69192376D01*
X101173216Y-69124456D01*
X101025646Y-69025853D01*
X100900147Y-68900354D01*
X100801544Y-68752784D01*
X100733624Y-68588812D01*
X100699000Y-68414741D01*
X100699000Y-68237259D01*
X100733624Y-68063188D01*
X100801544Y-67899216D01*
X100900147Y-67751646D01*
X101025646Y-67626147D01*
X101173216Y-67527544D01*
X101337188Y-67459624D01*
X101486488Y-67429927D01*
X101511258Y-67425000D01*
X101688742Y-67425000D01*
X101713512Y-67429927D01*
G37*
G36*
X99173512Y-67429927D02*
G01*
X99322812Y-67459624D01*
X99486784Y-67527544D01*
X99634354Y-67626147D01*
X99759853Y-67751646D01*
X99858456Y-67899216D01*
X99926376Y-68063188D01*
X99961000Y-68237259D01*
X99961000Y-68414741D01*
X99926376Y-68588812D01*
X99858456Y-68752784D01*
X99759853Y-68900354D01*
X99634354Y-69025853D01*
X99486784Y-69124456D01*
X99322812Y-69192376D01*
X99173512Y-69222073D01*
X99148742Y-69227000D01*
X98971258Y-69227000D01*
X98946488Y-69222073D01*
X98797188Y-69192376D01*
X98633216Y-69124456D01*
X98485646Y-69025853D01*
X98360147Y-68900354D01*
X98261544Y-68752784D01*
X98193624Y-68588812D01*
X98159000Y-68414741D01*
X98159000Y-68237259D01*
X98193624Y-68063188D01*
X98261544Y-67899216D01*
X98360147Y-67751646D01*
X98485646Y-67626147D01*
X98633216Y-67527544D01*
X98797188Y-67459624D01*
X98946488Y-67429927D01*
X98971258Y-67425000D01*
X99148742Y-67425000D01*
X99173512Y-67429927D01*
G37*
G36*
X105041000Y-66687000D02*
G01*
X103239000Y-66687000D01*
X103239000Y-64885000D01*
X105041000Y-64885000D01*
X105041000Y-66687000D01*
G37*
G36*
X101713512Y-64889927D02*
G01*
X101862812Y-64919624D01*
X102026784Y-64987544D01*
X102174354Y-65086147D01*
X102299853Y-65211646D01*
X102398456Y-65359216D01*
X102466376Y-65523188D01*
X102501000Y-65697259D01*
X102501000Y-65874741D01*
X102466376Y-66048812D01*
X102398456Y-66212784D01*
X102299853Y-66360354D01*
X102174354Y-66485853D01*
X102026784Y-66584456D01*
X101862812Y-66652376D01*
X101713512Y-66682073D01*
X101688742Y-66687000D01*
X101511258Y-66687000D01*
X101486488Y-66682073D01*
X101337188Y-66652376D01*
X101173216Y-66584456D01*
X101025646Y-66485853D01*
X100900147Y-66360354D01*
X100801544Y-66212784D01*
X100733624Y-66048812D01*
X100699000Y-65874741D01*
X100699000Y-65697259D01*
X100733624Y-65523188D01*
X100801544Y-65359216D01*
X100900147Y-65211646D01*
X101025646Y-65086147D01*
X101173216Y-64987544D01*
X101337188Y-64919624D01*
X101486488Y-64889927D01*
X101511258Y-64885000D01*
X101688742Y-64885000D01*
X101713512Y-64889927D01*
G37*
G36*
X99173512Y-64889927D02*
G01*
X99322812Y-64919624D01*
X99486784Y-64987544D01*
X99634354Y-65086147D01*
X99759853Y-65211646D01*
X99858456Y-65359216D01*
X99926376Y-65523188D01*
X99961000Y-65697259D01*
X99961000Y-65874741D01*
X99926376Y-66048812D01*
X99858456Y-66212784D01*
X99759853Y-66360354D01*
X99634354Y-66485853D01*
X99486784Y-66584456D01*
X99322812Y-66652376D01*
X99173512Y-66682073D01*
X99148742Y-66687000D01*
X98971258Y-66687000D01*
X98946488Y-66682073D01*
X98797188Y-66652376D01*
X98633216Y-66584456D01*
X98485646Y-66485853D01*
X98360147Y-66360354D01*
X98261544Y-66212784D01*
X98193624Y-66048812D01*
X98159000Y-65874741D01*
X98159000Y-65697259D01*
X98193624Y-65523188D01*
X98261544Y-65359216D01*
X98360147Y-65211646D01*
X98485646Y-65086147D01*
X98633216Y-64987544D01*
X98797188Y-64919624D01*
X98946488Y-64889927D01*
X98971258Y-64885000D01*
X99148742Y-64885000D01*
X99173512Y-64889927D01*
G37*
G36*
X104253512Y-59809927D02*
G01*
X104402812Y-59839624D01*
X104566784Y-59907544D01*
X104714354Y-60006147D01*
X104839853Y-60131646D01*
X104938456Y-60279216D01*
X105006376Y-60443188D01*
X105041000Y-60617259D01*
X105041000Y-60794741D01*
X105006376Y-60968812D01*
X104938456Y-61132784D01*
X104839853Y-61280354D01*
X104714354Y-61405853D01*
X104566784Y-61504456D01*
X104402812Y-61572376D01*
X104253512Y-61602073D01*
X104228742Y-61607000D01*
X104051258Y-61607000D01*
X104026488Y-61602073D01*
X103877188Y-61572376D01*
X103713216Y-61504456D01*
X103565646Y-61405853D01*
X103440147Y-61280354D01*
X103341544Y-61132784D01*
X103273624Y-60968812D01*
X103239000Y-60794741D01*
X103239000Y-60617259D01*
X103273624Y-60443188D01*
X103341544Y-60279216D01*
X103440147Y-60131646D01*
X103565646Y-60006147D01*
X103713216Y-59907544D01*
X103877188Y-59839624D01*
X104026488Y-59809927D01*
X104051258Y-59805000D01*
X104228742Y-59805000D01*
X104253512Y-59809927D01*
G37*
G36*
X101713512Y-59809927D02*
G01*
X101862812Y-59839624D01*
X102026784Y-59907544D01*
X102174354Y-60006147D01*
X102299853Y-60131646D01*
X102398456Y-60279216D01*
X102466376Y-60443188D01*
X102501000Y-60617259D01*
X102501000Y-60794741D01*
X102466376Y-60968812D01*
X102398456Y-61132784D01*
X102299853Y-61280354D01*
X102174354Y-61405853D01*
X102026784Y-61504456D01*
X101862812Y-61572376D01*
X101713512Y-61602073D01*
X101688742Y-61607000D01*
X101511258Y-61607000D01*
X101486488Y-61602073D01*
X101337188Y-61572376D01*
X101173216Y-61504456D01*
X101025646Y-61405853D01*
X100900147Y-61280354D01*
X100801544Y-61132784D01*
X100733624Y-60968812D01*
X100699000Y-60794741D01*
X100699000Y-60617259D01*
X100733624Y-60443188D01*
X100801544Y-60279216D01*
X100900147Y-60131646D01*
X101025646Y-60006147D01*
X101173216Y-59907544D01*
X101337188Y-59839624D01*
X101486488Y-59809927D01*
X101511258Y-59805000D01*
X101688742Y-59805000D01*
X101713512Y-59809927D01*
G37*
G36*
X99173512Y-59809927D02*
G01*
X99322812Y-59839624D01*
X99486784Y-59907544D01*
X99634354Y-60006147D01*
X99759853Y-60131646D01*
X99858456Y-60279216D01*
X99926376Y-60443188D01*
X99961000Y-60617259D01*
X99961000Y-60794741D01*
X99926376Y-60968812D01*
X99858456Y-61132784D01*
X99759853Y-61280354D01*
X99634354Y-61405853D01*
X99486784Y-61504456D01*
X99322812Y-61572376D01*
X99173512Y-61602073D01*
X99148742Y-61607000D01*
X98971258Y-61607000D01*
X98946488Y-61602073D01*
X98797188Y-61572376D01*
X98633216Y-61504456D01*
X98485646Y-61405853D01*
X98360147Y-61280354D01*
X98261544Y-61132784D01*
X98193624Y-60968812D01*
X98159000Y-60794741D01*
X98159000Y-60617259D01*
X98193624Y-60443188D01*
X98261544Y-60279216D01*
X98360147Y-60131646D01*
X98485646Y-60006147D01*
X98633216Y-59907544D01*
X98797188Y-59839624D01*
X98946488Y-59809927D01*
X98971258Y-59805000D01*
X99148742Y-59805000D01*
X99173512Y-59809927D01*
G37*
G36*
X105041000Y-59067000D02*
G01*
X103239000Y-59067000D01*
X103239000Y-57265000D01*
X105041000Y-57265000D01*
X105041000Y-59067000D01*
G37*
G36*
X101713512Y-57269927D02*
G01*
X101862812Y-57299624D01*
X102026784Y-57367544D01*
X102174354Y-57466147D01*
X102299853Y-57591646D01*
X102398456Y-57739216D01*
X102466376Y-57903188D01*
X102501000Y-58077259D01*
X102501000Y-58254741D01*
X102466376Y-58428812D01*
X102398456Y-58592784D01*
X102299853Y-58740354D01*
X102174354Y-58865853D01*
X102026784Y-58964456D01*
X101862812Y-59032376D01*
X101713512Y-59062073D01*
X101688742Y-59067000D01*
X101511258Y-59067000D01*
X101486488Y-59062073D01*
X101337188Y-59032376D01*
X101173216Y-58964456D01*
X101025646Y-58865853D01*
X100900147Y-58740354D01*
X100801544Y-58592784D01*
X100733624Y-58428812D01*
X100699000Y-58254741D01*
X100699000Y-58077259D01*
X100733624Y-57903188D01*
X100801544Y-57739216D01*
X100900147Y-57591646D01*
X101025646Y-57466147D01*
X101173216Y-57367544D01*
X101337188Y-57299624D01*
X101486488Y-57269927D01*
X101511258Y-57265000D01*
X101688742Y-57265000D01*
X101713512Y-57269927D01*
G37*
G36*
X99173512Y-57269927D02*
G01*
X99322812Y-57299624D01*
X99486784Y-57367544D01*
X99634354Y-57466147D01*
X99759853Y-57591646D01*
X99858456Y-57739216D01*
X99926376Y-57903188D01*
X99961000Y-58077259D01*
X99961000Y-58254741D01*
X99926376Y-58428812D01*
X99858456Y-58592784D01*
X99759853Y-58740354D01*
X99634354Y-58865853D01*
X99486784Y-58964456D01*
X99322812Y-59032376D01*
X99173512Y-59062073D01*
X99148742Y-59067000D01*
X98971258Y-59067000D01*
X98946488Y-59062073D01*
X98797188Y-59032376D01*
X98633216Y-58964456D01*
X98485646Y-58865853D01*
X98360147Y-58740354D01*
X98261544Y-58592784D01*
X98193624Y-58428812D01*
X98159000Y-58254741D01*
X98159000Y-58077259D01*
X98193624Y-57903188D01*
X98261544Y-57739216D01*
X98360147Y-57591646D01*
X98485646Y-57466147D01*
X98633216Y-57367544D01*
X98797188Y-57299624D01*
X98946488Y-57269927D01*
X98971258Y-57265000D01*
X99148742Y-57265000D01*
X99173512Y-57269927D01*
G37*
M02*
