M48
INCH
T1C0.0157
T2C0.0354
T3C0.0394
T4C0.0480
T5C0.0559
T6C0.0563
T7C0.0984
T8C0.1260
%
G90
G05
T1
X4.7786Y-2.2071
X5.1009Y-3.3497
X5.1142Y-4.4194
X5.1155Y-4.3618
X5.1659Y-4.6464
T2
X5.09Y-4.84
X5.09Y-4.94
X5.31Y-4.84
X5.31Y-4.94
X4.7Y-4.84
X4.7Y-4.94
X4.92Y-4.84
X4.92Y-4.94
T3
X4.71Y-2.27
X4.81Y-2.27
X4.81Y-4.58
X4.91Y-4.58
X5.01Y-4.58
X5.11Y-4.58
X5.21Y-4.58
X4.71Y-3.97
X4.71Y-4.07
X4.81Y-3.97
X4.81Y-4.07
X4.91Y-3.97
X4.91Y-4.07
X4.71Y-3.37
X4.71Y-3.47
X4.81Y-3.37
X4.81Y-3.47
X4.91Y-3.37
X4.91Y-3.47
X4.9116Y-2.6244
X4.9116Y-3.1953
X5.01Y-3.1953
X5.1084Y-2.6244
X5.1084Y-3.1953
X4.71Y-1.77
X4.81Y-1.77
X4.91Y-1.77
X5.01Y-1.77
X5.11Y-1.77
X5.21Y-1.77
X4.71Y-4.27
X4.71Y-4.37
X4.81Y-4.27
X4.81Y-4.37
X4.91Y-4.27
X4.91Y-4.37
X4.71Y-2.07
X4.81Y-2.07
X4.91Y-2.07
X5.01Y-2.07
X5.11Y-2.07
X5.21Y-2.07
X4.71Y-1.97
X4.81Y-1.97
X4.91Y-1.97
X5.01Y-1.97
X5.11Y-1.97
X5.21Y-1.97
X5.21Y-3.47
X5.21Y-3.57
X5.21Y-3.67
X5.21Y-3.77
X5.21Y-3.87
X5.21Y-3.97
X5.21Y-4.07
X5.21Y-4.17
X5.21Y-4.27
X5.21Y-4.37
X4.71Y-1.87
X4.81Y-1.87
X4.91Y-1.87
X5.01Y-1.87
X5.11Y-1.87
X5.21Y-1.87
X5.11Y-2.27
X5.11Y-2.37
X5.11Y-2.47
X5.21Y-2.27
X5.21Y-2.37
X5.21Y-2.47
X4.71Y-3.67
X4.71Y-3.77
X4.81Y-3.67
X4.81Y-3.77
X4.91Y-3.67
X4.91Y-3.77
T4
X5.2Y-4.9882
X5.1969Y-5.5591
X4.81Y-4.9882
X4.81Y-5.5591
T5
X5.2Y-5.1102
X5.1969Y-5.6811
X4.81Y-5.1102
X4.81Y-5.6811
T6
X5.2Y-5.437
X5.1969Y-6.0079
X4.81Y-5.437
X4.81Y-6.0079
T7
X4.7895Y-2.9
X5.2305Y-2.9
T8
X4.9055Y-6.3228
X4.9094Y-1.4961
T0
M30
