G04 #@! TF.GenerationSoftware,KiCad,Pcbnew,(5.1.5-0-10_14)*
G04 #@! TF.CreationDate,2021-03-12T21:21:17+01:00*
G04 #@! TF.ProjectId,es_base,65735f62-6173-4652-9e6b-696361645f70,rev?*
G04 #@! TF.SameCoordinates,Original*
G04 #@! TF.FileFunction,Soldermask,Top*
G04 #@! TF.FilePolarity,Negative*
%FSLAX46Y46*%
G04 Gerber Fmt 4.6, Leading zero omitted, Abs format (unit mm)*
G04 Created by KiCad (PCBNEW (5.1.5-0-10_14)) date 2021-03-12 21:21:17*
%MOMM*%
%LPD*%
G04 APERTURE LIST*
%ADD10C,0.100000*%
G04 APERTURE END LIST*
D10*
G36*
X125417021Y-157906640D02*
G01*
X125926769Y-158117785D01*
X125926771Y-158117786D01*
X126385534Y-158424321D01*
X126775679Y-158814466D01*
X127082214Y-159273229D01*
X127082215Y-159273231D01*
X127293360Y-159782979D01*
X127401000Y-160324124D01*
X127401000Y-160875876D01*
X127293360Y-161417021D01*
X127082215Y-161926769D01*
X127082214Y-161926771D01*
X126775679Y-162385534D01*
X126385534Y-162775679D01*
X125926771Y-163082214D01*
X125926770Y-163082215D01*
X125926769Y-163082215D01*
X125417021Y-163293360D01*
X124875876Y-163401000D01*
X124324124Y-163401000D01*
X123782979Y-163293360D01*
X123273231Y-163082215D01*
X123273230Y-163082215D01*
X123273229Y-163082214D01*
X122814466Y-162775679D01*
X122424321Y-162385534D01*
X122117786Y-161926771D01*
X122117785Y-161926769D01*
X121906640Y-161417021D01*
X121799000Y-160875876D01*
X121799000Y-160324124D01*
X121906640Y-159782979D01*
X122117785Y-159273231D01*
X122117786Y-159273229D01*
X122424321Y-158814466D01*
X122814466Y-158424321D01*
X123273229Y-158117786D01*
X123273231Y-158117785D01*
X123782979Y-157906640D01*
X124324124Y-157799000D01*
X124875876Y-157799000D01*
X125417021Y-157906640D01*
G37*
G36*
X122427655Y-151512591D02*
G01*
X122499525Y-151526887D01*
X122702624Y-151611013D01*
X122885409Y-151733146D01*
X123040854Y-151888591D01*
X123162987Y-152071376D01*
X123247113Y-152274475D01*
X123290000Y-152490084D01*
X123290000Y-152709916D01*
X123247113Y-152925525D01*
X123162987Y-153128624D01*
X123040854Y-153311409D01*
X122885409Y-153466854D01*
X122702624Y-153588987D01*
X122499525Y-153673113D01*
X122427655Y-153687409D01*
X122283918Y-153716000D01*
X122064082Y-153716000D01*
X121920345Y-153687409D01*
X121848475Y-153673113D01*
X121645376Y-153588987D01*
X121462591Y-153466854D01*
X121307146Y-153311409D01*
X121185013Y-153128624D01*
X121100887Y-152925525D01*
X121058000Y-152709916D01*
X121058000Y-152490084D01*
X121100887Y-152274475D01*
X121185013Y-152071376D01*
X121307146Y-151888591D01*
X121462591Y-151733146D01*
X121645376Y-151611013D01*
X121848475Y-151526887D01*
X121920345Y-151512591D01*
X122064082Y-151484000D01*
X122283918Y-151484000D01*
X122427655Y-151512591D01*
G37*
G36*
X132253655Y-151512591D02*
G01*
X132325525Y-151526887D01*
X132528624Y-151611013D01*
X132711409Y-151733146D01*
X132866854Y-151888591D01*
X132988987Y-152071376D01*
X133073113Y-152274475D01*
X133116000Y-152490084D01*
X133116000Y-152709916D01*
X133073113Y-152925525D01*
X132988987Y-153128624D01*
X132866854Y-153311409D01*
X132711409Y-153466854D01*
X132528624Y-153588987D01*
X132325525Y-153673113D01*
X132253655Y-153687409D01*
X132109918Y-153716000D01*
X131890082Y-153716000D01*
X131746345Y-153687409D01*
X131674475Y-153673113D01*
X131471376Y-153588987D01*
X131288591Y-153466854D01*
X131133146Y-153311409D01*
X131011013Y-153128624D01*
X130926887Y-152925525D01*
X130884000Y-152709916D01*
X130884000Y-152490084D01*
X130926887Y-152274475D01*
X131011013Y-152071376D01*
X131133146Y-151888591D01*
X131288591Y-151733146D01*
X131471376Y-151611013D01*
X131674475Y-151526887D01*
X131746345Y-151512591D01*
X131890082Y-151484000D01*
X132109918Y-151484000D01*
X132253655Y-151512591D01*
G37*
G36*
X132253655Y-143212591D02*
G01*
X132325525Y-143226887D01*
X132528624Y-143311013D01*
X132711409Y-143433146D01*
X132866854Y-143588591D01*
X132988987Y-143771376D01*
X133073113Y-143974475D01*
X133116000Y-144190084D01*
X133116000Y-144409916D01*
X133073113Y-144625525D01*
X132988987Y-144828624D01*
X132866854Y-145011409D01*
X132711409Y-145166854D01*
X132528624Y-145288987D01*
X132325525Y-145373113D01*
X132253655Y-145387409D01*
X132109918Y-145416000D01*
X131890082Y-145416000D01*
X131746345Y-145387409D01*
X131674475Y-145373113D01*
X131471376Y-145288987D01*
X131288591Y-145166854D01*
X131133146Y-145011409D01*
X131011013Y-144828624D01*
X130926887Y-144625525D01*
X130884000Y-144409916D01*
X130884000Y-144190084D01*
X130926887Y-143974475D01*
X131011013Y-143771376D01*
X131133146Y-143588591D01*
X131288591Y-143433146D01*
X131471376Y-143311013D01*
X131674475Y-143226887D01*
X131746345Y-143212591D01*
X131890082Y-143184000D01*
X132109918Y-143184000D01*
X132253655Y-143212591D01*
G37*
G36*
X122427655Y-143212591D02*
G01*
X122499525Y-143226887D01*
X122702624Y-143311013D01*
X122885409Y-143433146D01*
X123040854Y-143588591D01*
X123162987Y-143771376D01*
X123247113Y-143974475D01*
X123290000Y-144190084D01*
X123290000Y-144409916D01*
X123247113Y-144625525D01*
X123162987Y-144828624D01*
X123040854Y-145011409D01*
X122885409Y-145166854D01*
X122702624Y-145288987D01*
X122499525Y-145373113D01*
X122427655Y-145387409D01*
X122283918Y-145416000D01*
X122064082Y-145416000D01*
X121920345Y-145387409D01*
X121848475Y-145373113D01*
X121645376Y-145288987D01*
X121462591Y-145166854D01*
X121307146Y-145011409D01*
X121185013Y-144828624D01*
X121100887Y-144625525D01*
X121058000Y-144409916D01*
X121058000Y-144190084D01*
X121100887Y-143974475D01*
X121185013Y-143771376D01*
X121307146Y-143588591D01*
X121462591Y-143433146D01*
X121645376Y-143311013D01*
X121848475Y-143226887D01*
X121920345Y-143212591D01*
X122064082Y-143184000D01*
X122283918Y-143184000D01*
X122427655Y-143212591D01*
G37*
G36*
X133016000Y-142166000D02*
G01*
X130984000Y-142166000D01*
X130984000Y-140234000D01*
X133016000Y-140234000D01*
X133016000Y-142166000D01*
G37*
G36*
X123190000Y-142166000D02*
G01*
X121158000Y-142166000D01*
X121158000Y-140234000D01*
X123190000Y-140234000D01*
X123190000Y-142166000D01*
G37*
G36*
X132333655Y-137012591D02*
G01*
X132405525Y-137026887D01*
X132608624Y-137111013D01*
X132791409Y-137233146D01*
X132946854Y-137388591D01*
X133068987Y-137571376D01*
X133153113Y-137774475D01*
X133196000Y-137990084D01*
X133196000Y-138209916D01*
X133153113Y-138425525D01*
X133068987Y-138628624D01*
X132946854Y-138811409D01*
X132791409Y-138966854D01*
X132608624Y-139088987D01*
X132405525Y-139173113D01*
X132333655Y-139187409D01*
X132189918Y-139216000D01*
X131970082Y-139216000D01*
X131826345Y-139187409D01*
X131754475Y-139173113D01*
X131551376Y-139088987D01*
X131368591Y-138966854D01*
X131213146Y-138811409D01*
X131091013Y-138628624D01*
X131006887Y-138425525D01*
X130964000Y-138209916D01*
X130964000Y-137990084D01*
X131006887Y-137774475D01*
X131091013Y-137571376D01*
X131213146Y-137388591D01*
X131368591Y-137233146D01*
X131551376Y-137111013D01*
X131754475Y-137026887D01*
X131826345Y-137012591D01*
X131970082Y-136984000D01*
X132189918Y-136984000D01*
X132333655Y-137012591D01*
G37*
G36*
X122427655Y-137012591D02*
G01*
X122499525Y-137026887D01*
X122702624Y-137111013D01*
X122885409Y-137233146D01*
X123040854Y-137388591D01*
X123162987Y-137571376D01*
X123247113Y-137774475D01*
X123290000Y-137990084D01*
X123290000Y-138209916D01*
X123247113Y-138425525D01*
X123162987Y-138628624D01*
X123040854Y-138811409D01*
X122885409Y-138966854D01*
X122702624Y-139088987D01*
X122499525Y-139173113D01*
X122427655Y-139187409D01*
X122283918Y-139216000D01*
X122064082Y-139216000D01*
X121920345Y-139187409D01*
X121848475Y-139173113D01*
X121645376Y-139088987D01*
X121462591Y-138966854D01*
X121307146Y-138811409D01*
X121185013Y-138628624D01*
X121100887Y-138425525D01*
X121058000Y-138209916D01*
X121058000Y-137990084D01*
X121100887Y-137774475D01*
X121185013Y-137571376D01*
X121307146Y-137388591D01*
X121462591Y-137233146D01*
X121645376Y-137111013D01*
X121848475Y-137026887D01*
X121920345Y-137012591D01*
X122064082Y-136984000D01*
X122283918Y-136984000D01*
X122427655Y-137012591D01*
G37*
G36*
X122427655Y-128712591D02*
G01*
X122499525Y-128726887D01*
X122702624Y-128811013D01*
X122885409Y-128933146D01*
X123040854Y-129088591D01*
X123162987Y-129271376D01*
X123247113Y-129474475D01*
X123290000Y-129690084D01*
X123290000Y-129909916D01*
X123247113Y-130125525D01*
X123162987Y-130328624D01*
X123040854Y-130511409D01*
X122885409Y-130666854D01*
X122702624Y-130788987D01*
X122499525Y-130873113D01*
X122427655Y-130887409D01*
X122283918Y-130916000D01*
X122064082Y-130916000D01*
X121920345Y-130887409D01*
X121848475Y-130873113D01*
X121645376Y-130788987D01*
X121462591Y-130666854D01*
X121307146Y-130511409D01*
X121185013Y-130328624D01*
X121100887Y-130125525D01*
X121058000Y-129909916D01*
X121058000Y-129690084D01*
X121100887Y-129474475D01*
X121185013Y-129271376D01*
X121307146Y-129088591D01*
X121462591Y-128933146D01*
X121645376Y-128811013D01*
X121848475Y-128726887D01*
X121920345Y-128712591D01*
X122064082Y-128684000D01*
X122283918Y-128684000D01*
X122427655Y-128712591D01*
G37*
G36*
X132333655Y-128712591D02*
G01*
X132405525Y-128726887D01*
X132608624Y-128811013D01*
X132791409Y-128933146D01*
X132946854Y-129088591D01*
X133068987Y-129271376D01*
X133153113Y-129474475D01*
X133196000Y-129690084D01*
X133196000Y-129909916D01*
X133153113Y-130125525D01*
X133068987Y-130328624D01*
X132946854Y-130511409D01*
X132791409Y-130666854D01*
X132608624Y-130788987D01*
X132405525Y-130873113D01*
X132333655Y-130887409D01*
X132189918Y-130916000D01*
X131970082Y-130916000D01*
X131826345Y-130887409D01*
X131754475Y-130873113D01*
X131551376Y-130788987D01*
X131368591Y-130666854D01*
X131213146Y-130511409D01*
X131091013Y-130328624D01*
X131006887Y-130125525D01*
X130964000Y-129909916D01*
X130964000Y-129690084D01*
X131006887Y-129474475D01*
X131091013Y-129271376D01*
X131213146Y-129088591D01*
X131368591Y-128933146D01*
X131551376Y-128811013D01*
X131754475Y-128726887D01*
X131826345Y-128712591D01*
X131970082Y-128684000D01*
X132189918Y-128684000D01*
X132333655Y-128712591D01*
G37*
G36*
X123190000Y-127666000D02*
G01*
X121158000Y-127666000D01*
X121158000Y-125734000D01*
X123190000Y-125734000D01*
X123190000Y-127666000D01*
G37*
G36*
X133096000Y-127666000D02*
G01*
X131064000Y-127666000D01*
X131064000Y-125734000D01*
X133096000Y-125734000D01*
X133096000Y-127666000D01*
G37*
G36*
X135825000Y-126427000D02*
G01*
X133923000Y-126427000D01*
X133923000Y-124525000D01*
X135825000Y-124525000D01*
X135825000Y-126427000D01*
G37*
G36*
X130237000Y-126427000D02*
G01*
X128335000Y-126427000D01*
X128335000Y-124525000D01*
X130237000Y-124525000D01*
X130237000Y-126427000D01*
G37*
G36*
X125919000Y-126427000D02*
G01*
X124017000Y-126427000D01*
X124017000Y-124525000D01*
X125919000Y-124525000D01*
X125919000Y-126427000D01*
G37*
G36*
X120331000Y-126427000D02*
G01*
X118429000Y-126427000D01*
X118429000Y-124525000D01*
X120331000Y-124525000D01*
X120331000Y-126427000D01*
G37*
G36*
X125245395Y-122021546D02*
G01*
X125418466Y-122093234D01*
X125418467Y-122093235D01*
X125574227Y-122197310D01*
X125706690Y-122329773D01*
X125706691Y-122329775D01*
X125810766Y-122485534D01*
X125882454Y-122658605D01*
X125919000Y-122842333D01*
X125919000Y-123029667D01*
X125882454Y-123213395D01*
X125810766Y-123386466D01*
X125810765Y-123386467D01*
X125706690Y-123542227D01*
X125574227Y-123674690D01*
X125495818Y-123727081D01*
X125418466Y-123778766D01*
X125245395Y-123850454D01*
X125061667Y-123887000D01*
X124874333Y-123887000D01*
X124690605Y-123850454D01*
X124517534Y-123778766D01*
X124440182Y-123727081D01*
X124361773Y-123674690D01*
X124229310Y-123542227D01*
X124125235Y-123386467D01*
X124125234Y-123386466D01*
X124053546Y-123213395D01*
X124017000Y-123029667D01*
X124017000Y-122842333D01*
X124053546Y-122658605D01*
X124125234Y-122485534D01*
X124229309Y-122329775D01*
X124229310Y-122329773D01*
X124361773Y-122197310D01*
X124517533Y-122093235D01*
X124517534Y-122093234D01*
X124690605Y-122021546D01*
X124874333Y-121985000D01*
X125061667Y-121985000D01*
X125245395Y-122021546D01*
G37*
G36*
X135151395Y-122021546D02*
G01*
X135324466Y-122093234D01*
X135324467Y-122093235D01*
X135480227Y-122197310D01*
X135612690Y-122329773D01*
X135612691Y-122329775D01*
X135716766Y-122485534D01*
X135788454Y-122658605D01*
X135825000Y-122842333D01*
X135825000Y-123029667D01*
X135788454Y-123213395D01*
X135716766Y-123386466D01*
X135716765Y-123386467D01*
X135612690Y-123542227D01*
X135480227Y-123674690D01*
X135401818Y-123727081D01*
X135324466Y-123778766D01*
X135151395Y-123850454D01*
X134967667Y-123887000D01*
X134780333Y-123887000D01*
X134596605Y-123850454D01*
X134423534Y-123778766D01*
X134346182Y-123727081D01*
X134267773Y-123674690D01*
X134135310Y-123542227D01*
X134031235Y-123386467D01*
X134031234Y-123386466D01*
X133959546Y-123213395D01*
X133923000Y-123029667D01*
X133923000Y-122842333D01*
X133959546Y-122658605D01*
X134031234Y-122485534D01*
X134135309Y-122329775D01*
X134135310Y-122329773D01*
X134267773Y-122197310D01*
X134423533Y-122093235D01*
X134423534Y-122093234D01*
X134596605Y-122021546D01*
X134780333Y-121985000D01*
X134967667Y-121985000D01*
X135151395Y-122021546D01*
G37*
G36*
X129563395Y-122021546D02*
G01*
X129736466Y-122093234D01*
X129736467Y-122093235D01*
X129892227Y-122197310D01*
X130024690Y-122329773D01*
X130024691Y-122329775D01*
X130128766Y-122485534D01*
X130200454Y-122658605D01*
X130237000Y-122842333D01*
X130237000Y-123029667D01*
X130200454Y-123213395D01*
X130128766Y-123386466D01*
X130128765Y-123386467D01*
X130024690Y-123542227D01*
X129892227Y-123674690D01*
X129813818Y-123727081D01*
X129736466Y-123778766D01*
X129563395Y-123850454D01*
X129379667Y-123887000D01*
X129192333Y-123887000D01*
X129008605Y-123850454D01*
X128835534Y-123778766D01*
X128758182Y-123727081D01*
X128679773Y-123674690D01*
X128547310Y-123542227D01*
X128443235Y-123386467D01*
X128443234Y-123386466D01*
X128371546Y-123213395D01*
X128335000Y-123029667D01*
X128335000Y-122842333D01*
X128371546Y-122658605D01*
X128443234Y-122485534D01*
X128547309Y-122329775D01*
X128547310Y-122329773D01*
X128679773Y-122197310D01*
X128835533Y-122093235D01*
X128835534Y-122093234D01*
X129008605Y-122021546D01*
X129192333Y-121985000D01*
X129379667Y-121985000D01*
X129563395Y-122021546D01*
G37*
G36*
X119657395Y-122021546D02*
G01*
X119830466Y-122093234D01*
X119830467Y-122093235D01*
X119986227Y-122197310D01*
X120118690Y-122329773D01*
X120118691Y-122329775D01*
X120222766Y-122485534D01*
X120294454Y-122658605D01*
X120331000Y-122842333D01*
X120331000Y-123029667D01*
X120294454Y-123213395D01*
X120222766Y-123386466D01*
X120222765Y-123386467D01*
X120118690Y-123542227D01*
X119986227Y-123674690D01*
X119907818Y-123727081D01*
X119830466Y-123778766D01*
X119657395Y-123850454D01*
X119473667Y-123887000D01*
X119286333Y-123887000D01*
X119102605Y-123850454D01*
X118929534Y-123778766D01*
X118852182Y-123727081D01*
X118773773Y-123674690D01*
X118641310Y-123542227D01*
X118537235Y-123386467D01*
X118537234Y-123386466D01*
X118465546Y-123213395D01*
X118429000Y-123029667D01*
X118429000Y-122842333D01*
X118465546Y-122658605D01*
X118537234Y-122485534D01*
X118641309Y-122329775D01*
X118641310Y-122329773D01*
X118773773Y-122197310D01*
X118929533Y-122093235D01*
X118929534Y-122093234D01*
X119102605Y-122021546D01*
X119286333Y-121985000D01*
X119473667Y-121985000D01*
X119657395Y-122021546D01*
G37*
G36*
X125302674Y-120282465D02*
G01*
X125340367Y-120293899D01*
X125375103Y-120312466D01*
X125405548Y-120337452D01*
X125430534Y-120367897D01*
X125449101Y-120402633D01*
X125460535Y-120440326D01*
X125465000Y-120485661D01*
X125465000Y-121322339D01*
X125460535Y-121367674D01*
X125449101Y-121405367D01*
X125430534Y-121440103D01*
X125405548Y-121470548D01*
X125375103Y-121495534D01*
X125340367Y-121514101D01*
X125302674Y-121525535D01*
X125257339Y-121530000D01*
X124170661Y-121530000D01*
X124125326Y-121525535D01*
X124087633Y-121514101D01*
X124052897Y-121495534D01*
X124022452Y-121470548D01*
X123997466Y-121440103D01*
X123978899Y-121405367D01*
X123967465Y-121367674D01*
X123963000Y-121322339D01*
X123963000Y-120485661D01*
X123967465Y-120440326D01*
X123978899Y-120402633D01*
X123997466Y-120367897D01*
X124022452Y-120337452D01*
X124052897Y-120312466D01*
X124087633Y-120293899D01*
X124125326Y-120282465D01*
X124170661Y-120278000D01*
X125257339Y-120278000D01*
X125302674Y-120282465D01*
G37*
G36*
X129874674Y-120282465D02*
G01*
X129912367Y-120293899D01*
X129947103Y-120312466D01*
X129977548Y-120337452D01*
X130002534Y-120367897D01*
X130021101Y-120402633D01*
X130032535Y-120440326D01*
X130037000Y-120485661D01*
X130037000Y-121322339D01*
X130032535Y-121367674D01*
X130021101Y-121405367D01*
X130002534Y-121440103D01*
X129977548Y-121470548D01*
X129947103Y-121495534D01*
X129912367Y-121514101D01*
X129874674Y-121525535D01*
X129829339Y-121530000D01*
X128742661Y-121530000D01*
X128697326Y-121525535D01*
X128659633Y-121514101D01*
X128624897Y-121495534D01*
X128594452Y-121470548D01*
X128569466Y-121440103D01*
X128550899Y-121405367D01*
X128539465Y-121367674D01*
X128535000Y-121322339D01*
X128535000Y-120485661D01*
X128539465Y-120440326D01*
X128550899Y-120402633D01*
X128569466Y-120367897D01*
X128594452Y-120337452D01*
X128624897Y-120312466D01*
X128659633Y-120293899D01*
X128697326Y-120282465D01*
X128742661Y-120278000D01*
X129829339Y-120278000D01*
X129874674Y-120282465D01*
G37*
G36*
X135462674Y-120282465D02*
G01*
X135500367Y-120293899D01*
X135535103Y-120312466D01*
X135565548Y-120337452D01*
X135590534Y-120367897D01*
X135609101Y-120402633D01*
X135620535Y-120440326D01*
X135625000Y-120485661D01*
X135625000Y-121322339D01*
X135620535Y-121367674D01*
X135609101Y-121405367D01*
X135590534Y-121440103D01*
X135565548Y-121470548D01*
X135535103Y-121495534D01*
X135500367Y-121514101D01*
X135462674Y-121525535D01*
X135417339Y-121530000D01*
X134330661Y-121530000D01*
X134285326Y-121525535D01*
X134247633Y-121514101D01*
X134212897Y-121495534D01*
X134182452Y-121470548D01*
X134157466Y-121440103D01*
X134138899Y-121405367D01*
X134127465Y-121367674D01*
X134123000Y-121322339D01*
X134123000Y-120485661D01*
X134127465Y-120440326D01*
X134138899Y-120402633D01*
X134157466Y-120367897D01*
X134182452Y-120337452D01*
X134212897Y-120312466D01*
X134247633Y-120293899D01*
X134285326Y-120282465D01*
X134330661Y-120278000D01*
X135417339Y-120278000D01*
X135462674Y-120282465D01*
G37*
G36*
X119968674Y-120282465D02*
G01*
X120006367Y-120293899D01*
X120041103Y-120312466D01*
X120071548Y-120337452D01*
X120096534Y-120367897D01*
X120115101Y-120402633D01*
X120126535Y-120440326D01*
X120131000Y-120485661D01*
X120131000Y-121322339D01*
X120126535Y-121367674D01*
X120115101Y-121405367D01*
X120096534Y-121440103D01*
X120071548Y-121470548D01*
X120041103Y-121495534D01*
X120006367Y-121514101D01*
X119968674Y-121525535D01*
X119923339Y-121530000D01*
X118836661Y-121530000D01*
X118791326Y-121525535D01*
X118753633Y-121514101D01*
X118718897Y-121495534D01*
X118688452Y-121470548D01*
X118663466Y-121440103D01*
X118644899Y-121405367D01*
X118633465Y-121367674D01*
X118629000Y-121322339D01*
X118629000Y-120485661D01*
X118633465Y-120440326D01*
X118644899Y-120402633D01*
X118663466Y-120367897D01*
X118688452Y-120337452D01*
X118718897Y-120312466D01*
X118753633Y-120293899D01*
X118791326Y-120282465D01*
X118836661Y-120278000D01*
X119923339Y-120278000D01*
X119968674Y-120282465D01*
G37*
G36*
X125302674Y-118232465D02*
G01*
X125340367Y-118243899D01*
X125375103Y-118262466D01*
X125405548Y-118287452D01*
X125430534Y-118317897D01*
X125449101Y-118352633D01*
X125460535Y-118390326D01*
X125465000Y-118435661D01*
X125465000Y-119272339D01*
X125460535Y-119317674D01*
X125449101Y-119355367D01*
X125430534Y-119390103D01*
X125405548Y-119420548D01*
X125375103Y-119445534D01*
X125340367Y-119464101D01*
X125302674Y-119475535D01*
X125257339Y-119480000D01*
X124170661Y-119480000D01*
X124125326Y-119475535D01*
X124087633Y-119464101D01*
X124052897Y-119445534D01*
X124022452Y-119420548D01*
X123997466Y-119390103D01*
X123978899Y-119355367D01*
X123967465Y-119317674D01*
X123963000Y-119272339D01*
X123963000Y-118435661D01*
X123967465Y-118390326D01*
X123978899Y-118352633D01*
X123997466Y-118317897D01*
X124022452Y-118287452D01*
X124052897Y-118262466D01*
X124087633Y-118243899D01*
X124125326Y-118232465D01*
X124170661Y-118228000D01*
X125257339Y-118228000D01*
X125302674Y-118232465D01*
G37*
G36*
X129874674Y-118232465D02*
G01*
X129912367Y-118243899D01*
X129947103Y-118262466D01*
X129977548Y-118287452D01*
X130002534Y-118317897D01*
X130021101Y-118352633D01*
X130032535Y-118390326D01*
X130037000Y-118435661D01*
X130037000Y-119272339D01*
X130032535Y-119317674D01*
X130021101Y-119355367D01*
X130002534Y-119390103D01*
X129977548Y-119420548D01*
X129947103Y-119445534D01*
X129912367Y-119464101D01*
X129874674Y-119475535D01*
X129829339Y-119480000D01*
X128742661Y-119480000D01*
X128697326Y-119475535D01*
X128659633Y-119464101D01*
X128624897Y-119445534D01*
X128594452Y-119420548D01*
X128569466Y-119390103D01*
X128550899Y-119355367D01*
X128539465Y-119317674D01*
X128535000Y-119272339D01*
X128535000Y-118435661D01*
X128539465Y-118390326D01*
X128550899Y-118352633D01*
X128569466Y-118317897D01*
X128594452Y-118287452D01*
X128624897Y-118262466D01*
X128659633Y-118243899D01*
X128697326Y-118232465D01*
X128742661Y-118228000D01*
X129829339Y-118228000D01*
X129874674Y-118232465D01*
G37*
G36*
X135462674Y-118232465D02*
G01*
X135500367Y-118243899D01*
X135535103Y-118262466D01*
X135565548Y-118287452D01*
X135590534Y-118317897D01*
X135609101Y-118352633D01*
X135620535Y-118390326D01*
X135625000Y-118435661D01*
X135625000Y-119272339D01*
X135620535Y-119317674D01*
X135609101Y-119355367D01*
X135590534Y-119390103D01*
X135565548Y-119420548D01*
X135535103Y-119445534D01*
X135500367Y-119464101D01*
X135462674Y-119475535D01*
X135417339Y-119480000D01*
X134330661Y-119480000D01*
X134285326Y-119475535D01*
X134247633Y-119464101D01*
X134212897Y-119445534D01*
X134182452Y-119420548D01*
X134157466Y-119390103D01*
X134138899Y-119355367D01*
X134127465Y-119317674D01*
X134123000Y-119272339D01*
X134123000Y-118435661D01*
X134127465Y-118390326D01*
X134138899Y-118352633D01*
X134157466Y-118317897D01*
X134182452Y-118287452D01*
X134212897Y-118262466D01*
X134247633Y-118243899D01*
X134285326Y-118232465D01*
X134330661Y-118228000D01*
X135417339Y-118228000D01*
X135462674Y-118232465D01*
G37*
G36*
X119968674Y-118232465D02*
G01*
X120006367Y-118243899D01*
X120041103Y-118262466D01*
X120071548Y-118287452D01*
X120096534Y-118317897D01*
X120115101Y-118352633D01*
X120126535Y-118390326D01*
X120131000Y-118435661D01*
X120131000Y-119272339D01*
X120126535Y-119317674D01*
X120115101Y-119355367D01*
X120096534Y-119390103D01*
X120071548Y-119420548D01*
X120041103Y-119445534D01*
X120006367Y-119464101D01*
X119968674Y-119475535D01*
X119923339Y-119480000D01*
X118836661Y-119480000D01*
X118791326Y-119475535D01*
X118753633Y-119464101D01*
X118718897Y-119445534D01*
X118688452Y-119420548D01*
X118663466Y-119390103D01*
X118644899Y-119355367D01*
X118633465Y-119317674D01*
X118629000Y-119272339D01*
X118629000Y-118435661D01*
X118633465Y-118390326D01*
X118644899Y-118352633D01*
X118663466Y-118317897D01*
X118688452Y-118287452D01*
X118718897Y-118262466D01*
X118753633Y-118243899D01*
X118791326Y-118232465D01*
X118836661Y-118228000D01*
X119923339Y-118228000D01*
X119968674Y-118232465D01*
G37*
G36*
X132447512Y-115435927D02*
G01*
X132596812Y-115465624D01*
X132760784Y-115533544D01*
X132908354Y-115632147D01*
X133033853Y-115757646D01*
X133132456Y-115905216D01*
X133200376Y-116069188D01*
X133235000Y-116243259D01*
X133235000Y-116420741D01*
X133200376Y-116594812D01*
X133132456Y-116758784D01*
X133033853Y-116906354D01*
X132908354Y-117031853D01*
X132760784Y-117130456D01*
X132596812Y-117198376D01*
X132447512Y-117228073D01*
X132422742Y-117233000D01*
X132245258Y-117233000D01*
X132220488Y-117228073D01*
X132071188Y-117198376D01*
X131907216Y-117130456D01*
X131759646Y-117031853D01*
X131634147Y-116906354D01*
X131535544Y-116758784D01*
X131467624Y-116594812D01*
X131433000Y-116420741D01*
X131433000Y-116243259D01*
X131467624Y-116069188D01*
X131535544Y-115905216D01*
X131634147Y-115757646D01*
X131759646Y-115632147D01*
X131907216Y-115533544D01*
X132071188Y-115465624D01*
X132220488Y-115435927D01*
X132245258Y-115431000D01*
X132422742Y-115431000D01*
X132447512Y-115435927D01*
G37*
G36*
X129907512Y-115435927D02*
G01*
X130056812Y-115465624D01*
X130220784Y-115533544D01*
X130368354Y-115632147D01*
X130493853Y-115757646D01*
X130592456Y-115905216D01*
X130660376Y-116069188D01*
X130695000Y-116243259D01*
X130695000Y-116420741D01*
X130660376Y-116594812D01*
X130592456Y-116758784D01*
X130493853Y-116906354D01*
X130368354Y-117031853D01*
X130220784Y-117130456D01*
X130056812Y-117198376D01*
X129907512Y-117228073D01*
X129882742Y-117233000D01*
X129705258Y-117233000D01*
X129680488Y-117228073D01*
X129531188Y-117198376D01*
X129367216Y-117130456D01*
X129219646Y-117031853D01*
X129094147Y-116906354D01*
X128995544Y-116758784D01*
X128927624Y-116594812D01*
X128893000Y-116420741D01*
X128893000Y-116243259D01*
X128927624Y-116069188D01*
X128995544Y-115905216D01*
X129094147Y-115757646D01*
X129219646Y-115632147D01*
X129367216Y-115533544D01*
X129531188Y-115465624D01*
X129680488Y-115435927D01*
X129705258Y-115431000D01*
X129882742Y-115431000D01*
X129907512Y-115435927D01*
G37*
G36*
X127367512Y-115435927D02*
G01*
X127516812Y-115465624D01*
X127680784Y-115533544D01*
X127828354Y-115632147D01*
X127953853Y-115757646D01*
X128052456Y-115905216D01*
X128120376Y-116069188D01*
X128155000Y-116243259D01*
X128155000Y-116420741D01*
X128120376Y-116594812D01*
X128052456Y-116758784D01*
X127953853Y-116906354D01*
X127828354Y-117031853D01*
X127680784Y-117130456D01*
X127516812Y-117198376D01*
X127367512Y-117228073D01*
X127342742Y-117233000D01*
X127165258Y-117233000D01*
X127140488Y-117228073D01*
X126991188Y-117198376D01*
X126827216Y-117130456D01*
X126679646Y-117031853D01*
X126554147Y-116906354D01*
X126455544Y-116758784D01*
X126387624Y-116594812D01*
X126353000Y-116420741D01*
X126353000Y-116243259D01*
X126387624Y-116069188D01*
X126455544Y-115905216D01*
X126554147Y-115757646D01*
X126679646Y-115632147D01*
X126827216Y-115533544D01*
X126991188Y-115465624D01*
X127140488Y-115435927D01*
X127165258Y-115431000D01*
X127342742Y-115431000D01*
X127367512Y-115435927D01*
G37*
G36*
X124827512Y-115435927D02*
G01*
X124976812Y-115465624D01*
X125140784Y-115533544D01*
X125288354Y-115632147D01*
X125413853Y-115757646D01*
X125512456Y-115905216D01*
X125580376Y-116069188D01*
X125615000Y-116243259D01*
X125615000Y-116420741D01*
X125580376Y-116594812D01*
X125512456Y-116758784D01*
X125413853Y-116906354D01*
X125288354Y-117031853D01*
X125140784Y-117130456D01*
X124976812Y-117198376D01*
X124827512Y-117228073D01*
X124802742Y-117233000D01*
X124625258Y-117233000D01*
X124600488Y-117228073D01*
X124451188Y-117198376D01*
X124287216Y-117130456D01*
X124139646Y-117031853D01*
X124014147Y-116906354D01*
X123915544Y-116758784D01*
X123847624Y-116594812D01*
X123813000Y-116420741D01*
X123813000Y-116243259D01*
X123847624Y-116069188D01*
X123915544Y-115905216D01*
X124014147Y-115757646D01*
X124139646Y-115632147D01*
X124287216Y-115533544D01*
X124451188Y-115465624D01*
X124600488Y-115435927D01*
X124625258Y-115431000D01*
X124802742Y-115431000D01*
X124827512Y-115435927D01*
G37*
G36*
X123075000Y-117233000D02*
G01*
X121273000Y-117233000D01*
X121273000Y-115431000D01*
X123075000Y-115431000D01*
X123075000Y-117233000D01*
G37*
G36*
X124827512Y-110101927D02*
G01*
X124976812Y-110131624D01*
X125140784Y-110199544D01*
X125288354Y-110298147D01*
X125413853Y-110423646D01*
X125512456Y-110571216D01*
X125580376Y-110735188D01*
X125615000Y-110909259D01*
X125615000Y-111086741D01*
X125580376Y-111260812D01*
X125512456Y-111424784D01*
X125413853Y-111572354D01*
X125288354Y-111697853D01*
X125140784Y-111796456D01*
X124976812Y-111864376D01*
X124827512Y-111894073D01*
X124802742Y-111899000D01*
X124625258Y-111899000D01*
X124600488Y-111894073D01*
X124451188Y-111864376D01*
X124287216Y-111796456D01*
X124139646Y-111697853D01*
X124014147Y-111572354D01*
X123915544Y-111424784D01*
X123847624Y-111260812D01*
X123813000Y-111086741D01*
X123813000Y-110909259D01*
X123847624Y-110735188D01*
X123915544Y-110571216D01*
X124014147Y-110423646D01*
X124139646Y-110298147D01*
X124287216Y-110199544D01*
X124451188Y-110131624D01*
X124600488Y-110101927D01*
X124625258Y-110097000D01*
X124802742Y-110097000D01*
X124827512Y-110101927D01*
G37*
G36*
X133235000Y-111899000D02*
G01*
X131433000Y-111899000D01*
X131433000Y-110097000D01*
X133235000Y-110097000D01*
X133235000Y-111899000D01*
G37*
G36*
X122287512Y-110101927D02*
G01*
X122436812Y-110131624D01*
X122600784Y-110199544D01*
X122748354Y-110298147D01*
X122873853Y-110423646D01*
X122972456Y-110571216D01*
X123040376Y-110735188D01*
X123075000Y-110909259D01*
X123075000Y-111086741D01*
X123040376Y-111260812D01*
X122972456Y-111424784D01*
X122873853Y-111572354D01*
X122748354Y-111697853D01*
X122600784Y-111796456D01*
X122436812Y-111864376D01*
X122287512Y-111894073D01*
X122262742Y-111899000D01*
X122085258Y-111899000D01*
X122060488Y-111894073D01*
X121911188Y-111864376D01*
X121747216Y-111796456D01*
X121599646Y-111697853D01*
X121474147Y-111572354D01*
X121375544Y-111424784D01*
X121307624Y-111260812D01*
X121273000Y-111086741D01*
X121273000Y-110909259D01*
X121307624Y-110735188D01*
X121375544Y-110571216D01*
X121474147Y-110423646D01*
X121599646Y-110298147D01*
X121747216Y-110199544D01*
X121911188Y-110131624D01*
X122060488Y-110101927D01*
X122085258Y-110097000D01*
X122262742Y-110097000D01*
X122287512Y-110101927D01*
G37*
G36*
X119747512Y-110101927D02*
G01*
X119896812Y-110131624D01*
X120060784Y-110199544D01*
X120208354Y-110298147D01*
X120333853Y-110423646D01*
X120432456Y-110571216D01*
X120500376Y-110735188D01*
X120535000Y-110909259D01*
X120535000Y-111086741D01*
X120500376Y-111260812D01*
X120432456Y-111424784D01*
X120333853Y-111572354D01*
X120208354Y-111697853D01*
X120060784Y-111796456D01*
X119896812Y-111864376D01*
X119747512Y-111894073D01*
X119722742Y-111899000D01*
X119545258Y-111899000D01*
X119520488Y-111894073D01*
X119371188Y-111864376D01*
X119207216Y-111796456D01*
X119059646Y-111697853D01*
X118934147Y-111572354D01*
X118835544Y-111424784D01*
X118767624Y-111260812D01*
X118733000Y-111086741D01*
X118733000Y-110909259D01*
X118767624Y-110735188D01*
X118835544Y-110571216D01*
X118934147Y-110423646D01*
X119059646Y-110298147D01*
X119207216Y-110199544D01*
X119371188Y-110131624D01*
X119520488Y-110101927D01*
X119545258Y-110097000D01*
X119722742Y-110097000D01*
X119747512Y-110101927D01*
G37*
G36*
X132447512Y-107561927D02*
G01*
X132596812Y-107591624D01*
X132760784Y-107659544D01*
X132908354Y-107758147D01*
X133033853Y-107883646D01*
X133132456Y-108031216D01*
X133200376Y-108195188D01*
X133235000Y-108369259D01*
X133235000Y-108546741D01*
X133200376Y-108720812D01*
X133132456Y-108884784D01*
X133033853Y-109032354D01*
X132908354Y-109157853D01*
X132760784Y-109256456D01*
X132596812Y-109324376D01*
X132447512Y-109354073D01*
X132422742Y-109359000D01*
X132245258Y-109359000D01*
X132220488Y-109354073D01*
X132071188Y-109324376D01*
X131907216Y-109256456D01*
X131759646Y-109157853D01*
X131634147Y-109032354D01*
X131535544Y-108884784D01*
X131467624Y-108720812D01*
X131433000Y-108546741D01*
X131433000Y-108369259D01*
X131467624Y-108195188D01*
X131535544Y-108031216D01*
X131634147Y-107883646D01*
X131759646Y-107758147D01*
X131907216Y-107659544D01*
X132071188Y-107591624D01*
X132220488Y-107561927D01*
X132245258Y-107557000D01*
X132422742Y-107557000D01*
X132447512Y-107561927D01*
G37*
G36*
X125615000Y-109359000D02*
G01*
X123813000Y-109359000D01*
X123813000Y-107557000D01*
X125615000Y-107557000D01*
X125615000Y-109359000D01*
G37*
G36*
X122287512Y-107561927D02*
G01*
X122436812Y-107591624D01*
X122600784Y-107659544D01*
X122748354Y-107758147D01*
X122873853Y-107883646D01*
X122972456Y-108031216D01*
X123040376Y-108195188D01*
X123075000Y-108369259D01*
X123075000Y-108546741D01*
X123040376Y-108720812D01*
X122972456Y-108884784D01*
X122873853Y-109032354D01*
X122748354Y-109157853D01*
X122600784Y-109256456D01*
X122436812Y-109324376D01*
X122287512Y-109354073D01*
X122262742Y-109359000D01*
X122085258Y-109359000D01*
X122060488Y-109354073D01*
X121911188Y-109324376D01*
X121747216Y-109256456D01*
X121599646Y-109157853D01*
X121474147Y-109032354D01*
X121375544Y-108884784D01*
X121307624Y-108720812D01*
X121273000Y-108546741D01*
X121273000Y-108369259D01*
X121307624Y-108195188D01*
X121375544Y-108031216D01*
X121474147Y-107883646D01*
X121599646Y-107758147D01*
X121747216Y-107659544D01*
X121911188Y-107591624D01*
X122060488Y-107561927D01*
X122085258Y-107557000D01*
X122262742Y-107557000D01*
X122287512Y-107561927D01*
G37*
G36*
X119747512Y-107561927D02*
G01*
X119896812Y-107591624D01*
X120060784Y-107659544D01*
X120208354Y-107758147D01*
X120333853Y-107883646D01*
X120432456Y-108031216D01*
X120500376Y-108195188D01*
X120535000Y-108369259D01*
X120535000Y-108546741D01*
X120500376Y-108720812D01*
X120432456Y-108884784D01*
X120333853Y-109032354D01*
X120208354Y-109157853D01*
X120060784Y-109256456D01*
X119896812Y-109324376D01*
X119747512Y-109354073D01*
X119722742Y-109359000D01*
X119545258Y-109359000D01*
X119520488Y-109354073D01*
X119371188Y-109324376D01*
X119207216Y-109256456D01*
X119059646Y-109157853D01*
X118934147Y-109032354D01*
X118835544Y-108884784D01*
X118767624Y-108720812D01*
X118733000Y-108546741D01*
X118733000Y-108369259D01*
X118767624Y-108195188D01*
X118835544Y-108031216D01*
X118934147Y-107883646D01*
X119059646Y-107758147D01*
X119207216Y-107659544D01*
X119371188Y-107591624D01*
X119520488Y-107561927D01*
X119545258Y-107557000D01*
X119722742Y-107557000D01*
X119747512Y-107561927D01*
G37*
G36*
X132447512Y-105021927D02*
G01*
X132596812Y-105051624D01*
X132760784Y-105119544D01*
X132908354Y-105218147D01*
X133033853Y-105343646D01*
X133132456Y-105491216D01*
X133200376Y-105655188D01*
X133235000Y-105829259D01*
X133235000Y-106006741D01*
X133200376Y-106180812D01*
X133132456Y-106344784D01*
X133033853Y-106492354D01*
X132908354Y-106617853D01*
X132760784Y-106716456D01*
X132596812Y-106784376D01*
X132447512Y-106814073D01*
X132422742Y-106819000D01*
X132245258Y-106819000D01*
X132220488Y-106814073D01*
X132071188Y-106784376D01*
X131907216Y-106716456D01*
X131759646Y-106617853D01*
X131634147Y-106492354D01*
X131535544Y-106344784D01*
X131467624Y-106180812D01*
X131433000Y-106006741D01*
X131433000Y-105829259D01*
X131467624Y-105655188D01*
X131535544Y-105491216D01*
X131634147Y-105343646D01*
X131759646Y-105218147D01*
X131907216Y-105119544D01*
X132071188Y-105051624D01*
X132220488Y-105021927D01*
X132245258Y-105017000D01*
X132422742Y-105017000D01*
X132447512Y-105021927D01*
G37*
G36*
X124827512Y-102481927D02*
G01*
X124976812Y-102511624D01*
X125140784Y-102579544D01*
X125288354Y-102678147D01*
X125413853Y-102803646D01*
X125512456Y-102951216D01*
X125580376Y-103115188D01*
X125615000Y-103289259D01*
X125615000Y-103466741D01*
X125580376Y-103640812D01*
X125512456Y-103804784D01*
X125413853Y-103952354D01*
X125288354Y-104077853D01*
X125140784Y-104176456D01*
X124976812Y-104244376D01*
X124827512Y-104274073D01*
X124802742Y-104279000D01*
X124625258Y-104279000D01*
X124600488Y-104274073D01*
X124451188Y-104244376D01*
X124287216Y-104176456D01*
X124139646Y-104077853D01*
X124014147Y-103952354D01*
X123915544Y-103804784D01*
X123847624Y-103640812D01*
X123813000Y-103466741D01*
X123813000Y-103289259D01*
X123847624Y-103115188D01*
X123915544Y-102951216D01*
X124014147Y-102803646D01*
X124139646Y-102678147D01*
X124287216Y-102579544D01*
X124451188Y-102511624D01*
X124600488Y-102481927D01*
X124625258Y-102477000D01*
X124802742Y-102477000D01*
X124827512Y-102481927D01*
G37*
G36*
X119747512Y-102481927D02*
G01*
X119896812Y-102511624D01*
X120060784Y-102579544D01*
X120208354Y-102678147D01*
X120333853Y-102803646D01*
X120432456Y-102951216D01*
X120500376Y-103115188D01*
X120535000Y-103289259D01*
X120535000Y-103466741D01*
X120500376Y-103640812D01*
X120432456Y-103804784D01*
X120333853Y-103952354D01*
X120208354Y-104077853D01*
X120060784Y-104176456D01*
X119896812Y-104244376D01*
X119747512Y-104274073D01*
X119722742Y-104279000D01*
X119545258Y-104279000D01*
X119520488Y-104274073D01*
X119371188Y-104244376D01*
X119207216Y-104176456D01*
X119059646Y-104077853D01*
X118934147Y-103952354D01*
X118835544Y-103804784D01*
X118767624Y-103640812D01*
X118733000Y-103466741D01*
X118733000Y-103289259D01*
X118767624Y-103115188D01*
X118835544Y-102951216D01*
X118934147Y-102803646D01*
X119059646Y-102678147D01*
X119207216Y-102579544D01*
X119371188Y-102511624D01*
X119520488Y-102481927D01*
X119545258Y-102477000D01*
X119722742Y-102477000D01*
X119747512Y-102481927D01*
G37*
G36*
X122287512Y-102481927D02*
G01*
X122436812Y-102511624D01*
X122600784Y-102579544D01*
X122748354Y-102678147D01*
X122873853Y-102803646D01*
X122972456Y-102951216D01*
X123040376Y-103115188D01*
X123075000Y-103289259D01*
X123075000Y-103466741D01*
X123040376Y-103640812D01*
X122972456Y-103804784D01*
X122873853Y-103952354D01*
X122748354Y-104077853D01*
X122600784Y-104176456D01*
X122436812Y-104244376D01*
X122287512Y-104274073D01*
X122262742Y-104279000D01*
X122085258Y-104279000D01*
X122060488Y-104274073D01*
X121911188Y-104244376D01*
X121747216Y-104176456D01*
X121599646Y-104077853D01*
X121474147Y-103952354D01*
X121375544Y-103804784D01*
X121307624Y-103640812D01*
X121273000Y-103466741D01*
X121273000Y-103289259D01*
X121307624Y-103115188D01*
X121375544Y-102951216D01*
X121474147Y-102803646D01*
X121599646Y-102678147D01*
X121747216Y-102579544D01*
X121911188Y-102511624D01*
X122060488Y-102481927D01*
X122085258Y-102477000D01*
X122262742Y-102477000D01*
X122287512Y-102481927D01*
G37*
G36*
X132447512Y-102481927D02*
G01*
X132596812Y-102511624D01*
X132760784Y-102579544D01*
X132908354Y-102678147D01*
X133033853Y-102803646D01*
X133132456Y-102951216D01*
X133200376Y-103115188D01*
X133235000Y-103289259D01*
X133235000Y-103466741D01*
X133200376Y-103640812D01*
X133132456Y-103804784D01*
X133033853Y-103952354D01*
X132908354Y-104077853D01*
X132760784Y-104176456D01*
X132596812Y-104244376D01*
X132447512Y-104274073D01*
X132422742Y-104279000D01*
X132245258Y-104279000D01*
X132220488Y-104274073D01*
X132071188Y-104244376D01*
X131907216Y-104176456D01*
X131759646Y-104077853D01*
X131634147Y-103952354D01*
X131535544Y-103804784D01*
X131467624Y-103640812D01*
X131433000Y-103466741D01*
X131433000Y-103289259D01*
X131467624Y-103115188D01*
X131535544Y-102951216D01*
X131634147Y-102803646D01*
X131759646Y-102678147D01*
X131907216Y-102579544D01*
X132071188Y-102511624D01*
X132220488Y-102481927D01*
X132245258Y-102477000D01*
X132422742Y-102477000D01*
X132447512Y-102481927D01*
G37*
G36*
X132447512Y-99941927D02*
G01*
X132596812Y-99971624D01*
X132760784Y-100039544D01*
X132908354Y-100138147D01*
X133033853Y-100263646D01*
X133132456Y-100411216D01*
X133200376Y-100575188D01*
X133235000Y-100749259D01*
X133235000Y-100926741D01*
X133200376Y-101100812D01*
X133132456Y-101264784D01*
X133033853Y-101412354D01*
X132908354Y-101537853D01*
X132760784Y-101636456D01*
X132596812Y-101704376D01*
X132447512Y-101734073D01*
X132422742Y-101739000D01*
X132245258Y-101739000D01*
X132220488Y-101734073D01*
X132071188Y-101704376D01*
X131907216Y-101636456D01*
X131759646Y-101537853D01*
X131634147Y-101412354D01*
X131535544Y-101264784D01*
X131467624Y-101100812D01*
X131433000Y-100926741D01*
X131433000Y-100749259D01*
X131467624Y-100575188D01*
X131535544Y-100411216D01*
X131634147Y-100263646D01*
X131759646Y-100138147D01*
X131907216Y-100039544D01*
X132071188Y-99971624D01*
X132220488Y-99941927D01*
X132245258Y-99937000D01*
X132422742Y-99937000D01*
X132447512Y-99941927D01*
G37*
G36*
X125615000Y-101739000D02*
G01*
X123813000Y-101739000D01*
X123813000Y-99937000D01*
X125615000Y-99937000D01*
X125615000Y-101739000D01*
G37*
G36*
X122287512Y-99941927D02*
G01*
X122436812Y-99971624D01*
X122600784Y-100039544D01*
X122748354Y-100138147D01*
X122873853Y-100263646D01*
X122972456Y-100411216D01*
X123040376Y-100575188D01*
X123075000Y-100749259D01*
X123075000Y-100926741D01*
X123040376Y-101100812D01*
X122972456Y-101264784D01*
X122873853Y-101412354D01*
X122748354Y-101537853D01*
X122600784Y-101636456D01*
X122436812Y-101704376D01*
X122287512Y-101734073D01*
X122262742Y-101739000D01*
X122085258Y-101739000D01*
X122060488Y-101734073D01*
X121911188Y-101704376D01*
X121747216Y-101636456D01*
X121599646Y-101537853D01*
X121474147Y-101412354D01*
X121375544Y-101264784D01*
X121307624Y-101100812D01*
X121273000Y-100926741D01*
X121273000Y-100749259D01*
X121307624Y-100575188D01*
X121375544Y-100411216D01*
X121474147Y-100263646D01*
X121599646Y-100138147D01*
X121747216Y-100039544D01*
X121911188Y-99971624D01*
X122060488Y-99941927D01*
X122085258Y-99937000D01*
X122262742Y-99937000D01*
X122287512Y-99941927D01*
G37*
G36*
X119747512Y-99941927D02*
G01*
X119896812Y-99971624D01*
X120060784Y-100039544D01*
X120208354Y-100138147D01*
X120333853Y-100263646D01*
X120432456Y-100411216D01*
X120500376Y-100575188D01*
X120535000Y-100749259D01*
X120535000Y-100926741D01*
X120500376Y-101100812D01*
X120432456Y-101264784D01*
X120333853Y-101412354D01*
X120208354Y-101537853D01*
X120060784Y-101636456D01*
X119896812Y-101704376D01*
X119747512Y-101734073D01*
X119722742Y-101739000D01*
X119545258Y-101739000D01*
X119520488Y-101734073D01*
X119371188Y-101704376D01*
X119207216Y-101636456D01*
X119059646Y-101537853D01*
X118934147Y-101412354D01*
X118835544Y-101264784D01*
X118767624Y-101100812D01*
X118733000Y-100926741D01*
X118733000Y-100749259D01*
X118767624Y-100575188D01*
X118835544Y-100411216D01*
X118934147Y-100263646D01*
X119059646Y-100138147D01*
X119207216Y-100039544D01*
X119371188Y-99971624D01*
X119520488Y-99941927D01*
X119545258Y-99937000D01*
X119722742Y-99937000D01*
X119747512Y-99941927D01*
G37*
G36*
X132447512Y-97401927D02*
G01*
X132596812Y-97431624D01*
X132760784Y-97499544D01*
X132908354Y-97598147D01*
X133033853Y-97723646D01*
X133132456Y-97871216D01*
X133200376Y-98035188D01*
X133235000Y-98209259D01*
X133235000Y-98386741D01*
X133200376Y-98560812D01*
X133132456Y-98724784D01*
X133033853Y-98872354D01*
X132908354Y-98997853D01*
X132760784Y-99096456D01*
X132596812Y-99164376D01*
X132447512Y-99194073D01*
X132422742Y-99199000D01*
X132245258Y-99199000D01*
X132220488Y-99194073D01*
X132071188Y-99164376D01*
X131907216Y-99096456D01*
X131759646Y-98997853D01*
X131634147Y-98872354D01*
X131535544Y-98724784D01*
X131467624Y-98560812D01*
X131433000Y-98386741D01*
X131433000Y-98209259D01*
X131467624Y-98035188D01*
X131535544Y-97871216D01*
X131634147Y-97723646D01*
X131759646Y-97598147D01*
X131907216Y-97499544D01*
X132071188Y-97431624D01*
X132220488Y-97401927D01*
X132245258Y-97397000D01*
X132422742Y-97397000D01*
X132447512Y-97401927D01*
G37*
G36*
X122287512Y-94861927D02*
G01*
X122436812Y-94891624D01*
X122600784Y-94959544D01*
X122748354Y-95058147D01*
X122873853Y-95183646D01*
X122972456Y-95331216D01*
X123040376Y-95495188D01*
X123075000Y-95669259D01*
X123075000Y-95846741D01*
X123040376Y-96020812D01*
X122972456Y-96184784D01*
X122873853Y-96332354D01*
X122748354Y-96457853D01*
X122600784Y-96556456D01*
X122436812Y-96624376D01*
X122287512Y-96654073D01*
X122262742Y-96659000D01*
X122085258Y-96659000D01*
X122060488Y-96654073D01*
X121911188Y-96624376D01*
X121747216Y-96556456D01*
X121599646Y-96457853D01*
X121474147Y-96332354D01*
X121375544Y-96184784D01*
X121307624Y-96020812D01*
X121273000Y-95846741D01*
X121273000Y-95669259D01*
X121307624Y-95495188D01*
X121375544Y-95331216D01*
X121474147Y-95183646D01*
X121599646Y-95058147D01*
X121747216Y-94959544D01*
X121911188Y-94891624D01*
X122060488Y-94861927D01*
X122085258Y-94857000D01*
X122262742Y-94857000D01*
X122287512Y-94861927D01*
G37*
G36*
X124827512Y-94861927D02*
G01*
X124976812Y-94891624D01*
X125140784Y-94959544D01*
X125288354Y-95058147D01*
X125413853Y-95183646D01*
X125512456Y-95331216D01*
X125580376Y-95495188D01*
X125615000Y-95669259D01*
X125615000Y-95846741D01*
X125580376Y-96020812D01*
X125512456Y-96184784D01*
X125413853Y-96332354D01*
X125288354Y-96457853D01*
X125140784Y-96556456D01*
X124976812Y-96624376D01*
X124827512Y-96654073D01*
X124802742Y-96659000D01*
X124625258Y-96659000D01*
X124600488Y-96654073D01*
X124451188Y-96624376D01*
X124287216Y-96556456D01*
X124139646Y-96457853D01*
X124014147Y-96332354D01*
X123915544Y-96184784D01*
X123847624Y-96020812D01*
X123813000Y-95846741D01*
X123813000Y-95669259D01*
X123847624Y-95495188D01*
X123915544Y-95331216D01*
X124014147Y-95183646D01*
X124139646Y-95058147D01*
X124287216Y-94959544D01*
X124451188Y-94891624D01*
X124600488Y-94861927D01*
X124625258Y-94857000D01*
X124802742Y-94857000D01*
X124827512Y-94861927D01*
G37*
G36*
X119747512Y-94861927D02*
G01*
X119896812Y-94891624D01*
X120060784Y-94959544D01*
X120208354Y-95058147D01*
X120333853Y-95183646D01*
X120432456Y-95331216D01*
X120500376Y-95495188D01*
X120535000Y-95669259D01*
X120535000Y-95846741D01*
X120500376Y-96020812D01*
X120432456Y-96184784D01*
X120333853Y-96332354D01*
X120208354Y-96457853D01*
X120060784Y-96556456D01*
X119896812Y-96624376D01*
X119747512Y-96654073D01*
X119722742Y-96659000D01*
X119545258Y-96659000D01*
X119520488Y-96654073D01*
X119371188Y-96624376D01*
X119207216Y-96556456D01*
X119059646Y-96457853D01*
X118934147Y-96332354D01*
X118835544Y-96184784D01*
X118767624Y-96020812D01*
X118733000Y-95846741D01*
X118733000Y-95669259D01*
X118767624Y-95495188D01*
X118835544Y-95331216D01*
X118934147Y-95183646D01*
X119059646Y-95058147D01*
X119207216Y-94959544D01*
X119371188Y-94891624D01*
X119520488Y-94861927D01*
X119545258Y-94857000D01*
X119722742Y-94857000D01*
X119747512Y-94861927D01*
G37*
G36*
X132447512Y-94861927D02*
G01*
X132596812Y-94891624D01*
X132760784Y-94959544D01*
X132908354Y-95058147D01*
X133033853Y-95183646D01*
X133132456Y-95331216D01*
X133200376Y-95495188D01*
X133235000Y-95669259D01*
X133235000Y-95846741D01*
X133200376Y-96020812D01*
X133132456Y-96184784D01*
X133033853Y-96332354D01*
X132908354Y-96457853D01*
X132760784Y-96556456D01*
X132596812Y-96624376D01*
X132447512Y-96654073D01*
X132422742Y-96659000D01*
X132245258Y-96659000D01*
X132220488Y-96654073D01*
X132071188Y-96624376D01*
X131907216Y-96556456D01*
X131759646Y-96457853D01*
X131634147Y-96332354D01*
X131535544Y-96184784D01*
X131467624Y-96020812D01*
X131433000Y-95846741D01*
X131433000Y-95669259D01*
X131467624Y-95495188D01*
X131535544Y-95331216D01*
X131634147Y-95183646D01*
X131759646Y-95058147D01*
X131907216Y-94959544D01*
X132071188Y-94891624D01*
X132220488Y-94861927D01*
X132245258Y-94857000D01*
X132422742Y-94857000D01*
X132447512Y-94861927D01*
G37*
G36*
X125615000Y-94119000D02*
G01*
X123813000Y-94119000D01*
X123813000Y-92317000D01*
X125615000Y-92317000D01*
X125615000Y-94119000D01*
G37*
G36*
X122287512Y-92321927D02*
G01*
X122436812Y-92351624D01*
X122600784Y-92419544D01*
X122748354Y-92518147D01*
X122873853Y-92643646D01*
X122972456Y-92791216D01*
X123040376Y-92955188D01*
X123075000Y-93129259D01*
X123075000Y-93306741D01*
X123040376Y-93480812D01*
X122972456Y-93644784D01*
X122873853Y-93792354D01*
X122748354Y-93917853D01*
X122600784Y-94016456D01*
X122436812Y-94084376D01*
X122287512Y-94114073D01*
X122262742Y-94119000D01*
X122085258Y-94119000D01*
X122060488Y-94114073D01*
X121911188Y-94084376D01*
X121747216Y-94016456D01*
X121599646Y-93917853D01*
X121474147Y-93792354D01*
X121375544Y-93644784D01*
X121307624Y-93480812D01*
X121273000Y-93306741D01*
X121273000Y-93129259D01*
X121307624Y-92955188D01*
X121375544Y-92791216D01*
X121474147Y-92643646D01*
X121599646Y-92518147D01*
X121747216Y-92419544D01*
X121911188Y-92351624D01*
X122060488Y-92321927D01*
X122085258Y-92317000D01*
X122262742Y-92317000D01*
X122287512Y-92321927D01*
G37*
G36*
X132447512Y-92321927D02*
G01*
X132596812Y-92351624D01*
X132760784Y-92419544D01*
X132908354Y-92518147D01*
X133033853Y-92643646D01*
X133132456Y-92791216D01*
X133200376Y-92955188D01*
X133235000Y-93129259D01*
X133235000Y-93306741D01*
X133200376Y-93480812D01*
X133132456Y-93644784D01*
X133033853Y-93792354D01*
X132908354Y-93917853D01*
X132760784Y-94016456D01*
X132596812Y-94084376D01*
X132447512Y-94114073D01*
X132422742Y-94119000D01*
X132245258Y-94119000D01*
X132220488Y-94114073D01*
X132071188Y-94084376D01*
X131907216Y-94016456D01*
X131759646Y-93917853D01*
X131634147Y-93792354D01*
X131535544Y-93644784D01*
X131467624Y-93480812D01*
X131433000Y-93306741D01*
X131433000Y-93129259D01*
X131467624Y-92955188D01*
X131535544Y-92791216D01*
X131634147Y-92643646D01*
X131759646Y-92518147D01*
X131907216Y-92419544D01*
X132071188Y-92351624D01*
X132220488Y-92321927D01*
X132245258Y-92317000D01*
X132422742Y-92317000D01*
X132447512Y-92321927D01*
G37*
G36*
X119747512Y-92321927D02*
G01*
X119896812Y-92351624D01*
X120060784Y-92419544D01*
X120208354Y-92518147D01*
X120333853Y-92643646D01*
X120432456Y-92791216D01*
X120500376Y-92955188D01*
X120535000Y-93129259D01*
X120535000Y-93306741D01*
X120500376Y-93480812D01*
X120432456Y-93644784D01*
X120333853Y-93792354D01*
X120208354Y-93917853D01*
X120060784Y-94016456D01*
X119896812Y-94084376D01*
X119747512Y-94114073D01*
X119722742Y-94119000D01*
X119545258Y-94119000D01*
X119520488Y-94114073D01*
X119371188Y-94084376D01*
X119207216Y-94016456D01*
X119059646Y-93917853D01*
X118934147Y-93792354D01*
X118835544Y-93644784D01*
X118767624Y-93480812D01*
X118733000Y-93306741D01*
X118733000Y-93129259D01*
X118767624Y-92955188D01*
X118835544Y-92791216D01*
X118934147Y-92643646D01*
X119059646Y-92518147D01*
X119207216Y-92419544D01*
X119371188Y-92351624D01*
X119520488Y-92321927D01*
X119545258Y-92317000D01*
X119722742Y-92317000D01*
X119747512Y-92321927D01*
G37*
G36*
X132447512Y-89781927D02*
G01*
X132596812Y-89811624D01*
X132760784Y-89879544D01*
X132908354Y-89978147D01*
X133033853Y-90103646D01*
X133132456Y-90251216D01*
X133200376Y-90415188D01*
X133235000Y-90589259D01*
X133235000Y-90766741D01*
X133200376Y-90940812D01*
X133132456Y-91104784D01*
X133033853Y-91252354D01*
X132908354Y-91377853D01*
X132760784Y-91476456D01*
X132596812Y-91544376D01*
X132447512Y-91574073D01*
X132422742Y-91579000D01*
X132245258Y-91579000D01*
X132220488Y-91574073D01*
X132071188Y-91544376D01*
X131907216Y-91476456D01*
X131759646Y-91377853D01*
X131634147Y-91252354D01*
X131535544Y-91104784D01*
X131467624Y-90940812D01*
X131433000Y-90766741D01*
X131433000Y-90589259D01*
X131467624Y-90415188D01*
X131535544Y-90251216D01*
X131634147Y-90103646D01*
X131759646Y-89978147D01*
X131907216Y-89879544D01*
X132071188Y-89811624D01*
X132220488Y-89781927D01*
X132245258Y-89777000D01*
X132422742Y-89777000D01*
X132447512Y-89781927D01*
G37*
G36*
X132447512Y-87241927D02*
G01*
X132596812Y-87271624D01*
X132760784Y-87339544D01*
X132908354Y-87438147D01*
X133033853Y-87563646D01*
X133132456Y-87711216D01*
X133200376Y-87875188D01*
X133235000Y-88049259D01*
X133235000Y-88226741D01*
X133200376Y-88400812D01*
X133132456Y-88564784D01*
X133033853Y-88712354D01*
X132908354Y-88837853D01*
X132760784Y-88936456D01*
X132596812Y-89004376D01*
X132447512Y-89034073D01*
X132422742Y-89039000D01*
X132245258Y-89039000D01*
X132220488Y-89034073D01*
X132071188Y-89004376D01*
X131907216Y-88936456D01*
X131759646Y-88837853D01*
X131634147Y-88712354D01*
X131535544Y-88564784D01*
X131467624Y-88400812D01*
X131433000Y-88226741D01*
X131433000Y-88049259D01*
X131467624Y-87875188D01*
X131535544Y-87711216D01*
X131634147Y-87563646D01*
X131759646Y-87438147D01*
X131907216Y-87339544D01*
X132071188Y-87271624D01*
X132220488Y-87241927D01*
X132245258Y-87237000D01*
X132422742Y-87237000D01*
X132447512Y-87241927D01*
G37*
G36*
X122287512Y-87241927D02*
G01*
X122436812Y-87271624D01*
X122600784Y-87339544D01*
X122748354Y-87438147D01*
X122873853Y-87563646D01*
X122972456Y-87711216D01*
X123040376Y-87875188D01*
X123075000Y-88049259D01*
X123075000Y-88226741D01*
X123040376Y-88400812D01*
X122972456Y-88564784D01*
X122873853Y-88712354D01*
X122748354Y-88837853D01*
X122600784Y-88936456D01*
X122436812Y-89004376D01*
X122287512Y-89034073D01*
X122262742Y-89039000D01*
X122085258Y-89039000D01*
X122060488Y-89034073D01*
X121911188Y-89004376D01*
X121747216Y-88936456D01*
X121599646Y-88837853D01*
X121474147Y-88712354D01*
X121375544Y-88564784D01*
X121307624Y-88400812D01*
X121273000Y-88226741D01*
X121273000Y-88049259D01*
X121307624Y-87875188D01*
X121375544Y-87711216D01*
X121474147Y-87563646D01*
X121599646Y-87438147D01*
X121747216Y-87339544D01*
X121911188Y-87271624D01*
X122060488Y-87241927D01*
X122085258Y-87237000D01*
X122262742Y-87237000D01*
X122287512Y-87241927D01*
G37*
G36*
X124827512Y-87241927D02*
G01*
X124976812Y-87271624D01*
X125140784Y-87339544D01*
X125288354Y-87438147D01*
X125413853Y-87563646D01*
X125512456Y-87711216D01*
X125580376Y-87875188D01*
X125615000Y-88049259D01*
X125615000Y-88226741D01*
X125580376Y-88400812D01*
X125512456Y-88564784D01*
X125413853Y-88712354D01*
X125288354Y-88837853D01*
X125140784Y-88936456D01*
X124976812Y-89004376D01*
X124827512Y-89034073D01*
X124802742Y-89039000D01*
X124625258Y-89039000D01*
X124600488Y-89034073D01*
X124451188Y-89004376D01*
X124287216Y-88936456D01*
X124139646Y-88837853D01*
X124014147Y-88712354D01*
X123915544Y-88564784D01*
X123847624Y-88400812D01*
X123813000Y-88226741D01*
X123813000Y-88049259D01*
X123847624Y-87875188D01*
X123915544Y-87711216D01*
X124014147Y-87563646D01*
X124139646Y-87438147D01*
X124287216Y-87339544D01*
X124451188Y-87271624D01*
X124600488Y-87241927D01*
X124625258Y-87237000D01*
X124802742Y-87237000D01*
X124827512Y-87241927D01*
G37*
G36*
X119747512Y-87241927D02*
G01*
X119896812Y-87271624D01*
X120060784Y-87339544D01*
X120208354Y-87438147D01*
X120333853Y-87563646D01*
X120432456Y-87711216D01*
X120500376Y-87875188D01*
X120535000Y-88049259D01*
X120535000Y-88226741D01*
X120500376Y-88400812D01*
X120432456Y-88564784D01*
X120333853Y-88712354D01*
X120208354Y-88837853D01*
X120060784Y-88936456D01*
X119896812Y-89004376D01*
X119747512Y-89034073D01*
X119722742Y-89039000D01*
X119545258Y-89039000D01*
X119520488Y-89034073D01*
X119371188Y-89004376D01*
X119207216Y-88936456D01*
X119059646Y-88837853D01*
X118934147Y-88712354D01*
X118835544Y-88564784D01*
X118767624Y-88400812D01*
X118733000Y-88226741D01*
X118733000Y-88049259D01*
X118767624Y-87875188D01*
X118835544Y-87711216D01*
X118934147Y-87563646D01*
X119059646Y-87438147D01*
X119207216Y-87339544D01*
X119371188Y-87271624D01*
X119520488Y-87241927D01*
X119545258Y-87237000D01*
X119722742Y-87237000D01*
X119747512Y-87241927D01*
G37*
G36*
X119747512Y-84701927D02*
G01*
X119896812Y-84731624D01*
X120060784Y-84799544D01*
X120208354Y-84898147D01*
X120333853Y-85023646D01*
X120432456Y-85171216D01*
X120500376Y-85335188D01*
X120535000Y-85509259D01*
X120535000Y-85686741D01*
X120500376Y-85860812D01*
X120432456Y-86024784D01*
X120333853Y-86172354D01*
X120208354Y-86297853D01*
X120060784Y-86396456D01*
X119896812Y-86464376D01*
X119747512Y-86494073D01*
X119722742Y-86499000D01*
X119545258Y-86499000D01*
X119520488Y-86494073D01*
X119371188Y-86464376D01*
X119207216Y-86396456D01*
X119059646Y-86297853D01*
X118934147Y-86172354D01*
X118835544Y-86024784D01*
X118767624Y-85860812D01*
X118733000Y-85686741D01*
X118733000Y-85509259D01*
X118767624Y-85335188D01*
X118835544Y-85171216D01*
X118934147Y-85023646D01*
X119059646Y-84898147D01*
X119207216Y-84799544D01*
X119371188Y-84731624D01*
X119520488Y-84701927D01*
X119545258Y-84697000D01*
X119722742Y-84697000D01*
X119747512Y-84701927D01*
G37*
G36*
X122287512Y-84701927D02*
G01*
X122436812Y-84731624D01*
X122600784Y-84799544D01*
X122748354Y-84898147D01*
X122873853Y-85023646D01*
X122972456Y-85171216D01*
X123040376Y-85335188D01*
X123075000Y-85509259D01*
X123075000Y-85686741D01*
X123040376Y-85860812D01*
X122972456Y-86024784D01*
X122873853Y-86172354D01*
X122748354Y-86297853D01*
X122600784Y-86396456D01*
X122436812Y-86464376D01*
X122287512Y-86494073D01*
X122262742Y-86499000D01*
X122085258Y-86499000D01*
X122060488Y-86494073D01*
X121911188Y-86464376D01*
X121747216Y-86396456D01*
X121599646Y-86297853D01*
X121474147Y-86172354D01*
X121375544Y-86024784D01*
X121307624Y-85860812D01*
X121273000Y-85686741D01*
X121273000Y-85509259D01*
X121307624Y-85335188D01*
X121375544Y-85171216D01*
X121474147Y-85023646D01*
X121599646Y-84898147D01*
X121747216Y-84799544D01*
X121911188Y-84731624D01*
X122060488Y-84701927D01*
X122085258Y-84697000D01*
X122262742Y-84697000D01*
X122287512Y-84701927D01*
G37*
G36*
X125615000Y-86499000D02*
G01*
X123813000Y-86499000D01*
X123813000Y-84697000D01*
X125615000Y-84697000D01*
X125615000Y-86499000D01*
G37*
G36*
X132779674Y-81295465D02*
G01*
X132817367Y-81306899D01*
X132852103Y-81325466D01*
X132882548Y-81350452D01*
X132907534Y-81380897D01*
X132926101Y-81415633D01*
X132937535Y-81453326D01*
X132942000Y-81498661D01*
X132942000Y-82585339D01*
X132937535Y-82630674D01*
X132926101Y-82668367D01*
X132907534Y-82703103D01*
X132882548Y-82733548D01*
X132852103Y-82758534D01*
X132817367Y-82777101D01*
X132779674Y-82788535D01*
X132734339Y-82793000D01*
X131897661Y-82793000D01*
X131852326Y-82788535D01*
X131814633Y-82777101D01*
X131779897Y-82758534D01*
X131749452Y-82733548D01*
X131724466Y-82703103D01*
X131705899Y-82668367D01*
X131694465Y-82630674D01*
X131690000Y-82585339D01*
X131690000Y-81498661D01*
X131694465Y-81453326D01*
X131705899Y-81415633D01*
X131724466Y-81380897D01*
X131749452Y-81350452D01*
X131779897Y-81325466D01*
X131814633Y-81306899D01*
X131852326Y-81295465D01*
X131897661Y-81291000D01*
X132734339Y-81291000D01*
X132779674Y-81295465D01*
G37*
G36*
X134829674Y-81295465D02*
G01*
X134867367Y-81306899D01*
X134902103Y-81325466D01*
X134932548Y-81350452D01*
X134957534Y-81380897D01*
X134976101Y-81415633D01*
X134987535Y-81453326D01*
X134992000Y-81498661D01*
X134992000Y-82585339D01*
X134987535Y-82630674D01*
X134976101Y-82668367D01*
X134957534Y-82703103D01*
X134932548Y-82733548D01*
X134902103Y-82758534D01*
X134867367Y-82777101D01*
X134829674Y-82788535D01*
X134784339Y-82793000D01*
X133947661Y-82793000D01*
X133902326Y-82788535D01*
X133864633Y-82777101D01*
X133829897Y-82758534D01*
X133799452Y-82733548D01*
X133774466Y-82703103D01*
X133755899Y-82668367D01*
X133744465Y-82630674D01*
X133740000Y-82585339D01*
X133740000Y-81498661D01*
X133744465Y-81453326D01*
X133755899Y-81415633D01*
X133774466Y-81380897D01*
X133799452Y-81350452D01*
X133829897Y-81325466D01*
X133864633Y-81306899D01*
X133902326Y-81295465D01*
X133947661Y-81291000D01*
X134784339Y-81291000D01*
X134829674Y-81295465D01*
G37*
G36*
X122655674Y-81295465D02*
G01*
X122693367Y-81306899D01*
X122728103Y-81325466D01*
X122758548Y-81350452D01*
X122783534Y-81380897D01*
X122802101Y-81415633D01*
X122813535Y-81453326D01*
X122818000Y-81498661D01*
X122818000Y-82585339D01*
X122813535Y-82630674D01*
X122802101Y-82668367D01*
X122783534Y-82703103D01*
X122758548Y-82733548D01*
X122728103Y-82758534D01*
X122693367Y-82777101D01*
X122655674Y-82788535D01*
X122610339Y-82793000D01*
X121773661Y-82793000D01*
X121728326Y-82788535D01*
X121690633Y-82777101D01*
X121655897Y-82758534D01*
X121625452Y-82733548D01*
X121600466Y-82703103D01*
X121581899Y-82668367D01*
X121570465Y-82630674D01*
X121566000Y-82585339D01*
X121566000Y-81498661D01*
X121570465Y-81453326D01*
X121581899Y-81415633D01*
X121600466Y-81380897D01*
X121625452Y-81350452D01*
X121655897Y-81325466D01*
X121690633Y-81306899D01*
X121728326Y-81295465D01*
X121773661Y-81291000D01*
X122610339Y-81291000D01*
X122655674Y-81295465D01*
G37*
G36*
X120605674Y-81295465D02*
G01*
X120643367Y-81306899D01*
X120678103Y-81325466D01*
X120708548Y-81350452D01*
X120733534Y-81380897D01*
X120752101Y-81415633D01*
X120763535Y-81453326D01*
X120768000Y-81498661D01*
X120768000Y-82585339D01*
X120763535Y-82630674D01*
X120752101Y-82668367D01*
X120733534Y-82703103D01*
X120708548Y-82733548D01*
X120678103Y-82758534D01*
X120643367Y-82777101D01*
X120605674Y-82788535D01*
X120560339Y-82793000D01*
X119723661Y-82793000D01*
X119678326Y-82788535D01*
X119640633Y-82777101D01*
X119605897Y-82758534D01*
X119575452Y-82733548D01*
X119550466Y-82703103D01*
X119531899Y-82668367D01*
X119520465Y-82630674D01*
X119516000Y-82585339D01*
X119516000Y-81498661D01*
X119520465Y-81453326D01*
X119531899Y-81415633D01*
X119550466Y-81380897D01*
X119575452Y-81350452D01*
X119605897Y-81325466D01*
X119640633Y-81306899D01*
X119678326Y-81295465D01*
X119723661Y-81291000D01*
X120560339Y-81291000D01*
X120605674Y-81295465D01*
G37*
G36*
X130031395Y-80245546D02*
G01*
X130204466Y-80317234D01*
X130204467Y-80317235D01*
X130360227Y-80421310D01*
X130492690Y-80553773D01*
X130492691Y-80553775D01*
X130596766Y-80709534D01*
X130668454Y-80882605D01*
X130705000Y-81066333D01*
X130705000Y-81253667D01*
X130668454Y-81437395D01*
X130596766Y-81610466D01*
X130596765Y-81610467D01*
X130492690Y-81766227D01*
X130360227Y-81898690D01*
X130281818Y-81951081D01*
X130204466Y-82002766D01*
X130031395Y-82074454D01*
X129847667Y-82111000D01*
X129660333Y-82111000D01*
X129476605Y-82074454D01*
X129303534Y-82002766D01*
X129226182Y-81951081D01*
X129147773Y-81898690D01*
X129015310Y-81766227D01*
X128911235Y-81610467D01*
X128911234Y-81610466D01*
X128839546Y-81437395D01*
X128803000Y-81253667D01*
X128803000Y-81066333D01*
X128839546Y-80882605D01*
X128911234Y-80709534D01*
X129015309Y-80553775D01*
X129015310Y-80553773D01*
X129147773Y-80421310D01*
X129303533Y-80317235D01*
X129303534Y-80317234D01*
X129476605Y-80245546D01*
X129660333Y-80209000D01*
X129847667Y-80209000D01*
X130031395Y-80245546D01*
G37*
G36*
X127531395Y-80245546D02*
G01*
X127704466Y-80317234D01*
X127704467Y-80317235D01*
X127860227Y-80421310D01*
X127992690Y-80553773D01*
X127992691Y-80553775D01*
X128096766Y-80709534D01*
X128168454Y-80882605D01*
X128205000Y-81066333D01*
X128205000Y-81253667D01*
X128168454Y-81437395D01*
X128096766Y-81610466D01*
X128096765Y-81610467D01*
X127992690Y-81766227D01*
X127860227Y-81898690D01*
X127781818Y-81951081D01*
X127704466Y-82002766D01*
X127531395Y-82074454D01*
X127347667Y-82111000D01*
X127160333Y-82111000D01*
X126976605Y-82074454D01*
X126803534Y-82002766D01*
X126726182Y-81951081D01*
X126647773Y-81898690D01*
X126515310Y-81766227D01*
X126411235Y-81610467D01*
X126411234Y-81610466D01*
X126339546Y-81437395D01*
X126303000Y-81253667D01*
X126303000Y-81066333D01*
X126339546Y-80882605D01*
X126411234Y-80709534D01*
X126515309Y-80553775D01*
X126515310Y-80553773D01*
X126647773Y-80421310D01*
X126803533Y-80317235D01*
X126803534Y-80317234D01*
X126976605Y-80245546D01*
X127160333Y-80209000D01*
X127347667Y-80209000D01*
X127531395Y-80245546D01*
G37*
G36*
X125031395Y-80245546D02*
G01*
X125204466Y-80317234D01*
X125204467Y-80317235D01*
X125360227Y-80421310D01*
X125492690Y-80553773D01*
X125492691Y-80553775D01*
X125596766Y-80709534D01*
X125668454Y-80882605D01*
X125705000Y-81066333D01*
X125705000Y-81253667D01*
X125668454Y-81437395D01*
X125596766Y-81610466D01*
X125596765Y-81610467D01*
X125492690Y-81766227D01*
X125360227Y-81898690D01*
X125281818Y-81951081D01*
X125204466Y-82002766D01*
X125031395Y-82074454D01*
X124847667Y-82111000D01*
X124660333Y-82111000D01*
X124476605Y-82074454D01*
X124303534Y-82002766D01*
X124226182Y-81951081D01*
X124147773Y-81898690D01*
X124015310Y-81766227D01*
X123911235Y-81610467D01*
X123911234Y-81610466D01*
X123839546Y-81437395D01*
X123803000Y-81253667D01*
X123803000Y-81066333D01*
X123839546Y-80882605D01*
X123911234Y-80709534D01*
X124015309Y-80553775D01*
X124015310Y-80553773D01*
X124147773Y-80421310D01*
X124303533Y-80317235D01*
X124303534Y-80317234D01*
X124476605Y-80245546D01*
X124660333Y-80209000D01*
X124847667Y-80209000D01*
X125031395Y-80245546D01*
G37*
G36*
X122051985Y-71953860D02*
G01*
X122164748Y-71976290D01*
X122296741Y-72030963D01*
X122483408Y-72108283D01*
X122770196Y-72299909D01*
X123014091Y-72543804D01*
X123205717Y-72830592D01*
X123337710Y-73149253D01*
X123405000Y-73487540D01*
X123405000Y-73832460D01*
X123337710Y-74170747D01*
X123205717Y-74489408D01*
X123014091Y-74776196D01*
X122770196Y-75020091D01*
X122483408Y-75211717D01*
X122296741Y-75289037D01*
X122164748Y-75343710D01*
X122051985Y-75366140D01*
X121826460Y-75411000D01*
X121481540Y-75411000D01*
X121256015Y-75366140D01*
X121143252Y-75343710D01*
X121011259Y-75289037D01*
X120824592Y-75211717D01*
X120537804Y-75020091D01*
X120293909Y-74776196D01*
X120102283Y-74489408D01*
X119970290Y-74170747D01*
X119903000Y-73832460D01*
X119903000Y-73487540D01*
X119970290Y-73149253D01*
X120102283Y-72830592D01*
X120293909Y-72543804D01*
X120537804Y-72299909D01*
X120824592Y-72108283D01*
X121011259Y-72030963D01*
X121143252Y-71976290D01*
X121256015Y-71953860D01*
X121481540Y-71909000D01*
X121826460Y-71909000D01*
X122051985Y-71953860D01*
G37*
G36*
X133251985Y-71953860D02*
G01*
X133364748Y-71976290D01*
X133496741Y-72030963D01*
X133683408Y-72108283D01*
X133970196Y-72299909D01*
X134214091Y-72543804D01*
X134405717Y-72830592D01*
X134537710Y-73149253D01*
X134605000Y-73487540D01*
X134605000Y-73832460D01*
X134537710Y-74170747D01*
X134405717Y-74489408D01*
X134214091Y-74776196D01*
X133970196Y-75020091D01*
X133683408Y-75211717D01*
X133496741Y-75289037D01*
X133364748Y-75343710D01*
X133251985Y-75366140D01*
X133026460Y-75411000D01*
X132681540Y-75411000D01*
X132456015Y-75366140D01*
X132343252Y-75343710D01*
X132211259Y-75289037D01*
X132024592Y-75211717D01*
X131737804Y-75020091D01*
X131493909Y-74776196D01*
X131302283Y-74489408D01*
X131170290Y-74170747D01*
X131103000Y-73832460D01*
X131103000Y-73487540D01*
X131170290Y-73149253D01*
X131302283Y-72830592D01*
X131493909Y-72543804D01*
X131737804Y-72299909D01*
X132024592Y-72108283D01*
X132211259Y-72030963D01*
X132343252Y-71976290D01*
X132456015Y-71953860D01*
X132681540Y-71909000D01*
X133026460Y-71909000D01*
X133251985Y-71953860D01*
G37*
G36*
X130031395Y-65745546D02*
G01*
X130204466Y-65817234D01*
X130269941Y-65860983D01*
X130360227Y-65921310D01*
X130492690Y-66053773D01*
X130492691Y-66053775D01*
X130596766Y-66209534D01*
X130668454Y-66382605D01*
X130705000Y-66566333D01*
X130705000Y-66753667D01*
X130668454Y-66937395D01*
X130596766Y-67110466D01*
X130596765Y-67110467D01*
X130492690Y-67266227D01*
X130360227Y-67398690D01*
X130281818Y-67451081D01*
X130204466Y-67502766D01*
X130031395Y-67574454D01*
X129847667Y-67611000D01*
X129660333Y-67611000D01*
X129476605Y-67574454D01*
X129303534Y-67502766D01*
X129226182Y-67451081D01*
X129147773Y-67398690D01*
X129015310Y-67266227D01*
X128911235Y-67110467D01*
X128911234Y-67110466D01*
X128839546Y-66937395D01*
X128803000Y-66753667D01*
X128803000Y-66566333D01*
X128839546Y-66382605D01*
X128911234Y-66209534D01*
X129015309Y-66053775D01*
X129015310Y-66053773D01*
X129147773Y-65921310D01*
X129238059Y-65860983D01*
X129303534Y-65817234D01*
X129476605Y-65745546D01*
X129660333Y-65709000D01*
X129847667Y-65709000D01*
X130031395Y-65745546D01*
G37*
G36*
X125031395Y-65745546D02*
G01*
X125204466Y-65817234D01*
X125269941Y-65860983D01*
X125360227Y-65921310D01*
X125492690Y-66053773D01*
X125492691Y-66053775D01*
X125596766Y-66209534D01*
X125668454Y-66382605D01*
X125705000Y-66566333D01*
X125705000Y-66753667D01*
X125668454Y-66937395D01*
X125596766Y-67110466D01*
X125596765Y-67110467D01*
X125492690Y-67266227D01*
X125360227Y-67398690D01*
X125281818Y-67451081D01*
X125204466Y-67502766D01*
X125031395Y-67574454D01*
X124847667Y-67611000D01*
X124660333Y-67611000D01*
X124476605Y-67574454D01*
X124303534Y-67502766D01*
X124226182Y-67451081D01*
X124147773Y-67398690D01*
X124015310Y-67266227D01*
X123911235Y-67110467D01*
X123911234Y-67110466D01*
X123839546Y-66937395D01*
X123803000Y-66753667D01*
X123803000Y-66566333D01*
X123839546Y-66382605D01*
X123911234Y-66209534D01*
X124015309Y-66053775D01*
X124015310Y-66053773D01*
X124147773Y-65921310D01*
X124238059Y-65860983D01*
X124303534Y-65817234D01*
X124476605Y-65745546D01*
X124660333Y-65709000D01*
X124847667Y-65709000D01*
X125031395Y-65745546D01*
G37*
G36*
X122655674Y-64531465D02*
G01*
X122693367Y-64542899D01*
X122728103Y-64561466D01*
X122758548Y-64586452D01*
X122783534Y-64616897D01*
X122802101Y-64651633D01*
X122813535Y-64689326D01*
X122818000Y-64734661D01*
X122818000Y-65821339D01*
X122813535Y-65866674D01*
X122802101Y-65904367D01*
X122783534Y-65939103D01*
X122758548Y-65969548D01*
X122728103Y-65994534D01*
X122693367Y-66013101D01*
X122655674Y-66024535D01*
X122610339Y-66029000D01*
X121773661Y-66029000D01*
X121728326Y-66024535D01*
X121690633Y-66013101D01*
X121655897Y-65994534D01*
X121625452Y-65969548D01*
X121600466Y-65939103D01*
X121581899Y-65904367D01*
X121570465Y-65866674D01*
X121566000Y-65821339D01*
X121566000Y-64734661D01*
X121570465Y-64689326D01*
X121581899Y-64651633D01*
X121600466Y-64616897D01*
X121625452Y-64586452D01*
X121655897Y-64561466D01*
X121690633Y-64542899D01*
X121728326Y-64531465D01*
X121773661Y-64527000D01*
X122610339Y-64527000D01*
X122655674Y-64531465D01*
G37*
G36*
X120605674Y-64531465D02*
G01*
X120643367Y-64542899D01*
X120678103Y-64561466D01*
X120708548Y-64586452D01*
X120733534Y-64616897D01*
X120752101Y-64651633D01*
X120763535Y-64689326D01*
X120768000Y-64734661D01*
X120768000Y-65821339D01*
X120763535Y-65866674D01*
X120752101Y-65904367D01*
X120733534Y-65939103D01*
X120708548Y-65969548D01*
X120678103Y-65994534D01*
X120643367Y-66013101D01*
X120605674Y-66024535D01*
X120560339Y-66029000D01*
X119723661Y-66029000D01*
X119678326Y-66024535D01*
X119640633Y-66013101D01*
X119605897Y-65994534D01*
X119575452Y-65969548D01*
X119550466Y-65939103D01*
X119531899Y-65904367D01*
X119520465Y-65866674D01*
X119516000Y-65821339D01*
X119516000Y-64734661D01*
X119520465Y-64689326D01*
X119531899Y-64651633D01*
X119550466Y-64616897D01*
X119575452Y-64586452D01*
X119605897Y-64561466D01*
X119640633Y-64542899D01*
X119678326Y-64531465D01*
X119723661Y-64527000D01*
X120560339Y-64527000D01*
X120605674Y-64531465D01*
G37*
G36*
X132447512Y-61841927D02*
G01*
X132596812Y-61871624D01*
X132760784Y-61939544D01*
X132908354Y-62038147D01*
X133033853Y-62163646D01*
X133132456Y-62311216D01*
X133200376Y-62475188D01*
X133235000Y-62649259D01*
X133235000Y-62826741D01*
X133200376Y-63000812D01*
X133132456Y-63164784D01*
X133033853Y-63312354D01*
X132908354Y-63437853D01*
X132760784Y-63536456D01*
X132596812Y-63604376D01*
X132447512Y-63634073D01*
X132422742Y-63639000D01*
X132245258Y-63639000D01*
X132220488Y-63634073D01*
X132071188Y-63604376D01*
X131907216Y-63536456D01*
X131759646Y-63437853D01*
X131634147Y-63312354D01*
X131535544Y-63164784D01*
X131467624Y-63000812D01*
X131433000Y-62826741D01*
X131433000Y-62649259D01*
X131467624Y-62475188D01*
X131535544Y-62311216D01*
X131634147Y-62163646D01*
X131759646Y-62038147D01*
X131907216Y-61939544D01*
X132071188Y-61871624D01*
X132220488Y-61841927D01*
X132245258Y-61837000D01*
X132422742Y-61837000D01*
X132447512Y-61841927D01*
G37*
G36*
X129907512Y-61841927D02*
G01*
X130056812Y-61871624D01*
X130220784Y-61939544D01*
X130368354Y-62038147D01*
X130493853Y-62163646D01*
X130592456Y-62311216D01*
X130660376Y-62475188D01*
X130695000Y-62649259D01*
X130695000Y-62826741D01*
X130660376Y-63000812D01*
X130592456Y-63164784D01*
X130493853Y-63312354D01*
X130368354Y-63437853D01*
X130220784Y-63536456D01*
X130056812Y-63604376D01*
X129907512Y-63634073D01*
X129882742Y-63639000D01*
X129705258Y-63639000D01*
X129680488Y-63634073D01*
X129531188Y-63604376D01*
X129367216Y-63536456D01*
X129219646Y-63437853D01*
X129094147Y-63312354D01*
X128995544Y-63164784D01*
X128927624Y-63000812D01*
X128893000Y-62826741D01*
X128893000Y-62649259D01*
X128927624Y-62475188D01*
X128995544Y-62311216D01*
X129094147Y-62163646D01*
X129219646Y-62038147D01*
X129367216Y-61939544D01*
X129531188Y-61871624D01*
X129680488Y-61841927D01*
X129705258Y-61837000D01*
X129882742Y-61837000D01*
X129907512Y-61841927D01*
G37*
G36*
X132447512Y-59301927D02*
G01*
X132596812Y-59331624D01*
X132760784Y-59399544D01*
X132908354Y-59498147D01*
X133033853Y-59623646D01*
X133132456Y-59771216D01*
X133200376Y-59935188D01*
X133235000Y-60109259D01*
X133235000Y-60286741D01*
X133200376Y-60460812D01*
X133132456Y-60624784D01*
X133033853Y-60772354D01*
X132908354Y-60897853D01*
X132760784Y-60996456D01*
X132596812Y-61064376D01*
X132447512Y-61094073D01*
X132422742Y-61099000D01*
X132245258Y-61099000D01*
X132220488Y-61094073D01*
X132071188Y-61064376D01*
X131907216Y-60996456D01*
X131759646Y-60897853D01*
X131634147Y-60772354D01*
X131535544Y-60624784D01*
X131467624Y-60460812D01*
X131433000Y-60286741D01*
X131433000Y-60109259D01*
X131467624Y-59935188D01*
X131535544Y-59771216D01*
X131634147Y-59623646D01*
X131759646Y-59498147D01*
X131907216Y-59399544D01*
X132071188Y-59331624D01*
X132220488Y-59301927D01*
X132245258Y-59297000D01*
X132422742Y-59297000D01*
X132447512Y-59301927D01*
G37*
G36*
X129907512Y-59301927D02*
G01*
X130056812Y-59331624D01*
X130220784Y-59399544D01*
X130368354Y-59498147D01*
X130493853Y-59623646D01*
X130592456Y-59771216D01*
X130660376Y-59935188D01*
X130695000Y-60109259D01*
X130695000Y-60286741D01*
X130660376Y-60460812D01*
X130592456Y-60624784D01*
X130493853Y-60772354D01*
X130368354Y-60897853D01*
X130220784Y-60996456D01*
X130056812Y-61064376D01*
X129907512Y-61094073D01*
X129882742Y-61099000D01*
X129705258Y-61099000D01*
X129680488Y-61094073D01*
X129531188Y-61064376D01*
X129367216Y-60996456D01*
X129219646Y-60897853D01*
X129094147Y-60772354D01*
X128995544Y-60624784D01*
X128927624Y-60460812D01*
X128893000Y-60286741D01*
X128893000Y-60109259D01*
X128927624Y-59935188D01*
X128995544Y-59771216D01*
X129094147Y-59623646D01*
X129219646Y-59498147D01*
X129367216Y-59399544D01*
X129531188Y-59331624D01*
X129680488Y-59301927D01*
X129705258Y-59297000D01*
X129882742Y-59297000D01*
X129907512Y-59301927D01*
G37*
G36*
X120535000Y-58559000D02*
G01*
X118733000Y-58559000D01*
X118733000Y-56757000D01*
X120535000Y-56757000D01*
X120535000Y-58559000D01*
G37*
G36*
X122287512Y-56761927D02*
G01*
X122436812Y-56791624D01*
X122600784Y-56859544D01*
X122748354Y-56958147D01*
X122873853Y-57083646D01*
X122972456Y-57231216D01*
X123040376Y-57395188D01*
X123075000Y-57569259D01*
X123075000Y-57746741D01*
X123040376Y-57920812D01*
X122972456Y-58084784D01*
X122873853Y-58232354D01*
X122748354Y-58357853D01*
X122600784Y-58456456D01*
X122436812Y-58524376D01*
X122287512Y-58554073D01*
X122262742Y-58559000D01*
X122085258Y-58559000D01*
X122060488Y-58554073D01*
X121911188Y-58524376D01*
X121747216Y-58456456D01*
X121599646Y-58357853D01*
X121474147Y-58232354D01*
X121375544Y-58084784D01*
X121307624Y-57920812D01*
X121273000Y-57746741D01*
X121273000Y-57569259D01*
X121307624Y-57395188D01*
X121375544Y-57231216D01*
X121474147Y-57083646D01*
X121599646Y-56958147D01*
X121747216Y-56859544D01*
X121911188Y-56791624D01*
X122060488Y-56761927D01*
X122085258Y-56757000D01*
X122262742Y-56757000D01*
X122287512Y-56761927D01*
G37*
G36*
X130695000Y-58559000D02*
G01*
X128893000Y-58559000D01*
X128893000Y-56757000D01*
X130695000Y-56757000D01*
X130695000Y-58559000D01*
G37*
G36*
X132447512Y-56761927D02*
G01*
X132596812Y-56791624D01*
X132760784Y-56859544D01*
X132908354Y-56958147D01*
X133033853Y-57083646D01*
X133132456Y-57231216D01*
X133200376Y-57395188D01*
X133235000Y-57569259D01*
X133235000Y-57746741D01*
X133200376Y-57920812D01*
X133132456Y-58084784D01*
X133033853Y-58232354D01*
X132908354Y-58357853D01*
X132760784Y-58456456D01*
X132596812Y-58524376D01*
X132447512Y-58554073D01*
X132422742Y-58559000D01*
X132245258Y-58559000D01*
X132220488Y-58554073D01*
X132071188Y-58524376D01*
X131907216Y-58456456D01*
X131759646Y-58357853D01*
X131634147Y-58232354D01*
X131535544Y-58084784D01*
X131467624Y-57920812D01*
X131433000Y-57746741D01*
X131433000Y-57569259D01*
X131467624Y-57395188D01*
X131535544Y-57231216D01*
X131634147Y-57083646D01*
X131759646Y-56958147D01*
X131907216Y-56859544D01*
X132071188Y-56791624D01*
X132220488Y-56761927D01*
X132245258Y-56757000D01*
X132422742Y-56757000D01*
X132447512Y-56761927D01*
G37*
G36*
X127367512Y-51681927D02*
G01*
X127516812Y-51711624D01*
X127680784Y-51779544D01*
X127828354Y-51878147D01*
X127953853Y-52003646D01*
X128052456Y-52151216D01*
X128120376Y-52315188D01*
X128155000Y-52489259D01*
X128155000Y-52666741D01*
X128120376Y-52840812D01*
X128052456Y-53004784D01*
X127953853Y-53152354D01*
X127828354Y-53277853D01*
X127680784Y-53376456D01*
X127516812Y-53444376D01*
X127367512Y-53474073D01*
X127342742Y-53479000D01*
X127165258Y-53479000D01*
X127140488Y-53474073D01*
X126991188Y-53444376D01*
X126827216Y-53376456D01*
X126679646Y-53277853D01*
X126554147Y-53152354D01*
X126455544Y-53004784D01*
X126387624Y-52840812D01*
X126353000Y-52666741D01*
X126353000Y-52489259D01*
X126387624Y-52315188D01*
X126455544Y-52151216D01*
X126554147Y-52003646D01*
X126679646Y-51878147D01*
X126827216Y-51779544D01*
X126991188Y-51711624D01*
X127140488Y-51681927D01*
X127165258Y-51677000D01*
X127342742Y-51677000D01*
X127367512Y-51681927D01*
G37*
G36*
X120535000Y-53479000D02*
G01*
X118733000Y-53479000D01*
X118733000Y-51677000D01*
X120535000Y-51677000D01*
X120535000Y-53479000D01*
G37*
G36*
X122287512Y-51681927D02*
G01*
X122436812Y-51711624D01*
X122600784Y-51779544D01*
X122748354Y-51878147D01*
X122873853Y-52003646D01*
X122972456Y-52151216D01*
X123040376Y-52315188D01*
X123075000Y-52489259D01*
X123075000Y-52666741D01*
X123040376Y-52840812D01*
X122972456Y-53004784D01*
X122873853Y-53152354D01*
X122748354Y-53277853D01*
X122600784Y-53376456D01*
X122436812Y-53444376D01*
X122287512Y-53474073D01*
X122262742Y-53479000D01*
X122085258Y-53479000D01*
X122060488Y-53474073D01*
X121911188Y-53444376D01*
X121747216Y-53376456D01*
X121599646Y-53277853D01*
X121474147Y-53152354D01*
X121375544Y-53004784D01*
X121307624Y-52840812D01*
X121273000Y-52666741D01*
X121273000Y-52489259D01*
X121307624Y-52315188D01*
X121375544Y-52151216D01*
X121474147Y-52003646D01*
X121599646Y-51878147D01*
X121747216Y-51779544D01*
X121911188Y-51711624D01*
X122060488Y-51681927D01*
X122085258Y-51677000D01*
X122262742Y-51677000D01*
X122287512Y-51681927D01*
G37*
G36*
X124827512Y-51681927D02*
G01*
X124976812Y-51711624D01*
X125140784Y-51779544D01*
X125288354Y-51878147D01*
X125413853Y-52003646D01*
X125512456Y-52151216D01*
X125580376Y-52315188D01*
X125615000Y-52489259D01*
X125615000Y-52666741D01*
X125580376Y-52840812D01*
X125512456Y-53004784D01*
X125413853Y-53152354D01*
X125288354Y-53277853D01*
X125140784Y-53376456D01*
X124976812Y-53444376D01*
X124827512Y-53474073D01*
X124802742Y-53479000D01*
X124625258Y-53479000D01*
X124600488Y-53474073D01*
X124451188Y-53444376D01*
X124287216Y-53376456D01*
X124139646Y-53277853D01*
X124014147Y-53152354D01*
X123915544Y-53004784D01*
X123847624Y-52840812D01*
X123813000Y-52666741D01*
X123813000Y-52489259D01*
X123847624Y-52315188D01*
X123915544Y-52151216D01*
X124014147Y-52003646D01*
X124139646Y-51878147D01*
X124287216Y-51779544D01*
X124451188Y-51711624D01*
X124600488Y-51681927D01*
X124625258Y-51677000D01*
X124802742Y-51677000D01*
X124827512Y-51681927D01*
G37*
G36*
X129907512Y-51681927D02*
G01*
X130056812Y-51711624D01*
X130220784Y-51779544D01*
X130368354Y-51878147D01*
X130493853Y-52003646D01*
X130592456Y-52151216D01*
X130660376Y-52315188D01*
X130695000Y-52489259D01*
X130695000Y-52666741D01*
X130660376Y-52840812D01*
X130592456Y-53004784D01*
X130493853Y-53152354D01*
X130368354Y-53277853D01*
X130220784Y-53376456D01*
X130056812Y-53444376D01*
X129907512Y-53474073D01*
X129882742Y-53479000D01*
X129705258Y-53479000D01*
X129680488Y-53474073D01*
X129531188Y-53444376D01*
X129367216Y-53376456D01*
X129219646Y-53277853D01*
X129094147Y-53152354D01*
X128995544Y-53004784D01*
X128927624Y-52840812D01*
X128893000Y-52666741D01*
X128893000Y-52489259D01*
X128927624Y-52315188D01*
X128995544Y-52151216D01*
X129094147Y-52003646D01*
X129219646Y-51878147D01*
X129367216Y-51779544D01*
X129531188Y-51711624D01*
X129680488Y-51681927D01*
X129705258Y-51677000D01*
X129882742Y-51677000D01*
X129907512Y-51681927D01*
G37*
G36*
X132447512Y-51681927D02*
G01*
X132596812Y-51711624D01*
X132760784Y-51779544D01*
X132908354Y-51878147D01*
X133033853Y-52003646D01*
X133132456Y-52151216D01*
X133200376Y-52315188D01*
X133235000Y-52489259D01*
X133235000Y-52666741D01*
X133200376Y-52840812D01*
X133132456Y-53004784D01*
X133033853Y-53152354D01*
X132908354Y-53277853D01*
X132760784Y-53376456D01*
X132596812Y-53444376D01*
X132447512Y-53474073D01*
X132422742Y-53479000D01*
X132245258Y-53479000D01*
X132220488Y-53474073D01*
X132071188Y-53444376D01*
X131907216Y-53376456D01*
X131759646Y-53277853D01*
X131634147Y-53152354D01*
X131535544Y-53004784D01*
X131467624Y-52840812D01*
X131433000Y-52666741D01*
X131433000Y-52489259D01*
X131467624Y-52315188D01*
X131535544Y-52151216D01*
X131634147Y-52003646D01*
X131759646Y-51878147D01*
X131907216Y-51779544D01*
X132071188Y-51711624D01*
X132220488Y-51681927D01*
X132245258Y-51677000D01*
X132422742Y-51677000D01*
X132447512Y-51681927D01*
G37*
G36*
X124827512Y-49141927D02*
G01*
X124976812Y-49171624D01*
X125140784Y-49239544D01*
X125288354Y-49338147D01*
X125413853Y-49463646D01*
X125512456Y-49611216D01*
X125580376Y-49775188D01*
X125615000Y-49949259D01*
X125615000Y-50126741D01*
X125580376Y-50300812D01*
X125512456Y-50464784D01*
X125413853Y-50612354D01*
X125288354Y-50737853D01*
X125140784Y-50836456D01*
X124976812Y-50904376D01*
X124827512Y-50934073D01*
X124802742Y-50939000D01*
X124625258Y-50939000D01*
X124600488Y-50934073D01*
X124451188Y-50904376D01*
X124287216Y-50836456D01*
X124139646Y-50737853D01*
X124014147Y-50612354D01*
X123915544Y-50464784D01*
X123847624Y-50300812D01*
X123813000Y-50126741D01*
X123813000Y-49949259D01*
X123847624Y-49775188D01*
X123915544Y-49611216D01*
X124014147Y-49463646D01*
X124139646Y-49338147D01*
X124287216Y-49239544D01*
X124451188Y-49171624D01*
X124600488Y-49141927D01*
X124625258Y-49137000D01*
X124802742Y-49137000D01*
X124827512Y-49141927D01*
G37*
G36*
X127367512Y-49141927D02*
G01*
X127516812Y-49171624D01*
X127680784Y-49239544D01*
X127828354Y-49338147D01*
X127953853Y-49463646D01*
X128052456Y-49611216D01*
X128120376Y-49775188D01*
X128155000Y-49949259D01*
X128155000Y-50126741D01*
X128120376Y-50300812D01*
X128052456Y-50464784D01*
X127953853Y-50612354D01*
X127828354Y-50737853D01*
X127680784Y-50836456D01*
X127516812Y-50904376D01*
X127367512Y-50934073D01*
X127342742Y-50939000D01*
X127165258Y-50939000D01*
X127140488Y-50934073D01*
X126991188Y-50904376D01*
X126827216Y-50836456D01*
X126679646Y-50737853D01*
X126554147Y-50612354D01*
X126455544Y-50464784D01*
X126387624Y-50300812D01*
X126353000Y-50126741D01*
X126353000Y-49949259D01*
X126387624Y-49775188D01*
X126455544Y-49611216D01*
X126554147Y-49463646D01*
X126679646Y-49338147D01*
X126827216Y-49239544D01*
X126991188Y-49171624D01*
X127140488Y-49141927D01*
X127165258Y-49137000D01*
X127342742Y-49137000D01*
X127367512Y-49141927D01*
G37*
G36*
X129907512Y-49141927D02*
G01*
X130056812Y-49171624D01*
X130220784Y-49239544D01*
X130368354Y-49338147D01*
X130493853Y-49463646D01*
X130592456Y-49611216D01*
X130660376Y-49775188D01*
X130695000Y-49949259D01*
X130695000Y-50126741D01*
X130660376Y-50300812D01*
X130592456Y-50464784D01*
X130493853Y-50612354D01*
X130368354Y-50737853D01*
X130220784Y-50836456D01*
X130056812Y-50904376D01*
X129907512Y-50934073D01*
X129882742Y-50939000D01*
X129705258Y-50939000D01*
X129680488Y-50934073D01*
X129531188Y-50904376D01*
X129367216Y-50836456D01*
X129219646Y-50737853D01*
X129094147Y-50612354D01*
X128995544Y-50464784D01*
X128927624Y-50300812D01*
X128893000Y-50126741D01*
X128893000Y-49949259D01*
X128927624Y-49775188D01*
X128995544Y-49611216D01*
X129094147Y-49463646D01*
X129219646Y-49338147D01*
X129367216Y-49239544D01*
X129531188Y-49171624D01*
X129680488Y-49141927D01*
X129705258Y-49137000D01*
X129882742Y-49137000D01*
X129907512Y-49141927D01*
G37*
G36*
X132447512Y-49141927D02*
G01*
X132596812Y-49171624D01*
X132760784Y-49239544D01*
X132908354Y-49338147D01*
X133033853Y-49463646D01*
X133132456Y-49611216D01*
X133200376Y-49775188D01*
X133235000Y-49949259D01*
X133235000Y-50126741D01*
X133200376Y-50300812D01*
X133132456Y-50464784D01*
X133033853Y-50612354D01*
X132908354Y-50737853D01*
X132760784Y-50836456D01*
X132596812Y-50904376D01*
X132447512Y-50934073D01*
X132422742Y-50939000D01*
X132245258Y-50939000D01*
X132220488Y-50934073D01*
X132071188Y-50904376D01*
X131907216Y-50836456D01*
X131759646Y-50737853D01*
X131634147Y-50612354D01*
X131535544Y-50464784D01*
X131467624Y-50300812D01*
X131433000Y-50126741D01*
X131433000Y-49949259D01*
X131467624Y-49775188D01*
X131535544Y-49611216D01*
X131634147Y-49463646D01*
X131759646Y-49338147D01*
X131907216Y-49239544D01*
X132071188Y-49171624D01*
X132220488Y-49141927D01*
X132245258Y-49137000D01*
X132422742Y-49137000D01*
X132447512Y-49141927D01*
G37*
G36*
X120535000Y-50939000D02*
G01*
X118733000Y-50939000D01*
X118733000Y-49137000D01*
X120535000Y-49137000D01*
X120535000Y-50939000D01*
G37*
G36*
X122287512Y-49141927D02*
G01*
X122436812Y-49171624D01*
X122600784Y-49239544D01*
X122748354Y-49338147D01*
X122873853Y-49463646D01*
X122972456Y-49611216D01*
X123040376Y-49775188D01*
X123075000Y-49949259D01*
X123075000Y-50126741D01*
X123040376Y-50300812D01*
X122972456Y-50464784D01*
X122873853Y-50612354D01*
X122748354Y-50737853D01*
X122600784Y-50836456D01*
X122436812Y-50904376D01*
X122287512Y-50934073D01*
X122262742Y-50939000D01*
X122085258Y-50939000D01*
X122060488Y-50934073D01*
X121911188Y-50904376D01*
X121747216Y-50836456D01*
X121599646Y-50737853D01*
X121474147Y-50612354D01*
X121375544Y-50464784D01*
X121307624Y-50300812D01*
X121273000Y-50126741D01*
X121273000Y-49949259D01*
X121307624Y-49775188D01*
X121375544Y-49611216D01*
X121474147Y-49463646D01*
X121599646Y-49338147D01*
X121747216Y-49239544D01*
X121911188Y-49171624D01*
X122060488Y-49141927D01*
X122085258Y-49137000D01*
X122262742Y-49137000D01*
X122287512Y-49141927D01*
G37*
G36*
X120535000Y-48399000D02*
G01*
X118733000Y-48399000D01*
X118733000Y-46597000D01*
X120535000Y-46597000D01*
X120535000Y-48399000D01*
G37*
G36*
X122287512Y-46601927D02*
G01*
X122436812Y-46631624D01*
X122600784Y-46699544D01*
X122748354Y-46798147D01*
X122873853Y-46923646D01*
X122972456Y-47071216D01*
X123040376Y-47235188D01*
X123075000Y-47409259D01*
X123075000Y-47586741D01*
X123040376Y-47760812D01*
X122972456Y-47924784D01*
X122873853Y-48072354D01*
X122748354Y-48197853D01*
X122600784Y-48296456D01*
X122436812Y-48364376D01*
X122287512Y-48394073D01*
X122262742Y-48399000D01*
X122085258Y-48399000D01*
X122060488Y-48394073D01*
X121911188Y-48364376D01*
X121747216Y-48296456D01*
X121599646Y-48197853D01*
X121474147Y-48072354D01*
X121375544Y-47924784D01*
X121307624Y-47760812D01*
X121273000Y-47586741D01*
X121273000Y-47409259D01*
X121307624Y-47235188D01*
X121375544Y-47071216D01*
X121474147Y-46923646D01*
X121599646Y-46798147D01*
X121747216Y-46699544D01*
X121911188Y-46631624D01*
X122060488Y-46601927D01*
X122085258Y-46597000D01*
X122262742Y-46597000D01*
X122287512Y-46601927D01*
G37*
G36*
X124827512Y-46601927D02*
G01*
X124976812Y-46631624D01*
X125140784Y-46699544D01*
X125288354Y-46798147D01*
X125413853Y-46923646D01*
X125512456Y-47071216D01*
X125580376Y-47235188D01*
X125615000Y-47409259D01*
X125615000Y-47586741D01*
X125580376Y-47760812D01*
X125512456Y-47924784D01*
X125413853Y-48072354D01*
X125288354Y-48197853D01*
X125140784Y-48296456D01*
X124976812Y-48364376D01*
X124827512Y-48394073D01*
X124802742Y-48399000D01*
X124625258Y-48399000D01*
X124600488Y-48394073D01*
X124451188Y-48364376D01*
X124287216Y-48296456D01*
X124139646Y-48197853D01*
X124014147Y-48072354D01*
X123915544Y-47924784D01*
X123847624Y-47760812D01*
X123813000Y-47586741D01*
X123813000Y-47409259D01*
X123847624Y-47235188D01*
X123915544Y-47071216D01*
X124014147Y-46923646D01*
X124139646Y-46798147D01*
X124287216Y-46699544D01*
X124451188Y-46631624D01*
X124600488Y-46601927D01*
X124625258Y-46597000D01*
X124802742Y-46597000D01*
X124827512Y-46601927D01*
G37*
G36*
X127367512Y-46601927D02*
G01*
X127516812Y-46631624D01*
X127680784Y-46699544D01*
X127828354Y-46798147D01*
X127953853Y-46923646D01*
X128052456Y-47071216D01*
X128120376Y-47235188D01*
X128155000Y-47409259D01*
X128155000Y-47586741D01*
X128120376Y-47760812D01*
X128052456Y-47924784D01*
X127953853Y-48072354D01*
X127828354Y-48197853D01*
X127680784Y-48296456D01*
X127516812Y-48364376D01*
X127367512Y-48394073D01*
X127342742Y-48399000D01*
X127165258Y-48399000D01*
X127140488Y-48394073D01*
X126991188Y-48364376D01*
X126827216Y-48296456D01*
X126679646Y-48197853D01*
X126554147Y-48072354D01*
X126455544Y-47924784D01*
X126387624Y-47760812D01*
X126353000Y-47586741D01*
X126353000Y-47409259D01*
X126387624Y-47235188D01*
X126455544Y-47071216D01*
X126554147Y-46923646D01*
X126679646Y-46798147D01*
X126827216Y-46699544D01*
X126991188Y-46631624D01*
X127140488Y-46601927D01*
X127165258Y-46597000D01*
X127342742Y-46597000D01*
X127367512Y-46601927D01*
G37*
G36*
X129907512Y-46601927D02*
G01*
X130056812Y-46631624D01*
X130220784Y-46699544D01*
X130368354Y-46798147D01*
X130493853Y-46923646D01*
X130592456Y-47071216D01*
X130660376Y-47235188D01*
X130695000Y-47409259D01*
X130695000Y-47586741D01*
X130660376Y-47760812D01*
X130592456Y-47924784D01*
X130493853Y-48072354D01*
X130368354Y-48197853D01*
X130220784Y-48296456D01*
X130056812Y-48364376D01*
X129907512Y-48394073D01*
X129882742Y-48399000D01*
X129705258Y-48399000D01*
X129680488Y-48394073D01*
X129531188Y-48364376D01*
X129367216Y-48296456D01*
X129219646Y-48197853D01*
X129094147Y-48072354D01*
X128995544Y-47924784D01*
X128927624Y-47760812D01*
X128893000Y-47586741D01*
X128893000Y-47409259D01*
X128927624Y-47235188D01*
X128995544Y-47071216D01*
X129094147Y-46923646D01*
X129219646Y-46798147D01*
X129367216Y-46699544D01*
X129531188Y-46631624D01*
X129680488Y-46601927D01*
X129705258Y-46597000D01*
X129882742Y-46597000D01*
X129907512Y-46601927D01*
G37*
G36*
X132447512Y-46601927D02*
G01*
X132596812Y-46631624D01*
X132760784Y-46699544D01*
X132908354Y-46798147D01*
X133033853Y-46923646D01*
X133132456Y-47071216D01*
X133200376Y-47235188D01*
X133235000Y-47409259D01*
X133235000Y-47586741D01*
X133200376Y-47760812D01*
X133132456Y-47924784D01*
X133033853Y-48072354D01*
X132908354Y-48197853D01*
X132760784Y-48296456D01*
X132596812Y-48364376D01*
X132447512Y-48394073D01*
X132422742Y-48399000D01*
X132245258Y-48399000D01*
X132220488Y-48394073D01*
X132071188Y-48364376D01*
X131907216Y-48296456D01*
X131759646Y-48197853D01*
X131634147Y-48072354D01*
X131535544Y-47924784D01*
X131467624Y-47760812D01*
X131433000Y-47586741D01*
X131433000Y-47409259D01*
X131467624Y-47235188D01*
X131535544Y-47071216D01*
X131634147Y-46923646D01*
X131759646Y-46798147D01*
X131907216Y-46699544D01*
X132071188Y-46631624D01*
X132220488Y-46601927D01*
X132245258Y-46597000D01*
X132422742Y-46597000D01*
X132447512Y-46601927D01*
G37*
G36*
X120535000Y-45859000D02*
G01*
X118733000Y-45859000D01*
X118733000Y-44057000D01*
X120535000Y-44057000D01*
X120535000Y-45859000D01*
G37*
G36*
X132447512Y-44061927D02*
G01*
X132596812Y-44091624D01*
X132760784Y-44159544D01*
X132908354Y-44258147D01*
X133033853Y-44383646D01*
X133132456Y-44531216D01*
X133200376Y-44695188D01*
X133235000Y-44869259D01*
X133235000Y-45046741D01*
X133200376Y-45220812D01*
X133132456Y-45384784D01*
X133033853Y-45532354D01*
X132908354Y-45657853D01*
X132760784Y-45756456D01*
X132596812Y-45824376D01*
X132447512Y-45854073D01*
X132422742Y-45859000D01*
X132245258Y-45859000D01*
X132220488Y-45854073D01*
X132071188Y-45824376D01*
X131907216Y-45756456D01*
X131759646Y-45657853D01*
X131634147Y-45532354D01*
X131535544Y-45384784D01*
X131467624Y-45220812D01*
X131433000Y-45046741D01*
X131433000Y-44869259D01*
X131467624Y-44695188D01*
X131535544Y-44531216D01*
X131634147Y-44383646D01*
X131759646Y-44258147D01*
X131907216Y-44159544D01*
X132071188Y-44091624D01*
X132220488Y-44061927D01*
X132245258Y-44057000D01*
X132422742Y-44057000D01*
X132447512Y-44061927D01*
G37*
G36*
X129907512Y-44061927D02*
G01*
X130056812Y-44091624D01*
X130220784Y-44159544D01*
X130368354Y-44258147D01*
X130493853Y-44383646D01*
X130592456Y-44531216D01*
X130660376Y-44695188D01*
X130695000Y-44869259D01*
X130695000Y-45046741D01*
X130660376Y-45220812D01*
X130592456Y-45384784D01*
X130493853Y-45532354D01*
X130368354Y-45657853D01*
X130220784Y-45756456D01*
X130056812Y-45824376D01*
X129907512Y-45854073D01*
X129882742Y-45859000D01*
X129705258Y-45859000D01*
X129680488Y-45854073D01*
X129531188Y-45824376D01*
X129367216Y-45756456D01*
X129219646Y-45657853D01*
X129094147Y-45532354D01*
X128995544Y-45384784D01*
X128927624Y-45220812D01*
X128893000Y-45046741D01*
X128893000Y-44869259D01*
X128927624Y-44695188D01*
X128995544Y-44531216D01*
X129094147Y-44383646D01*
X129219646Y-44258147D01*
X129367216Y-44159544D01*
X129531188Y-44091624D01*
X129680488Y-44061927D01*
X129705258Y-44057000D01*
X129882742Y-44057000D01*
X129907512Y-44061927D01*
G37*
G36*
X127367512Y-44061927D02*
G01*
X127516812Y-44091624D01*
X127680784Y-44159544D01*
X127828354Y-44258147D01*
X127953853Y-44383646D01*
X128052456Y-44531216D01*
X128120376Y-44695188D01*
X128155000Y-44869259D01*
X128155000Y-45046741D01*
X128120376Y-45220812D01*
X128052456Y-45384784D01*
X127953853Y-45532354D01*
X127828354Y-45657853D01*
X127680784Y-45756456D01*
X127516812Y-45824376D01*
X127367512Y-45854073D01*
X127342742Y-45859000D01*
X127165258Y-45859000D01*
X127140488Y-45854073D01*
X126991188Y-45824376D01*
X126827216Y-45756456D01*
X126679646Y-45657853D01*
X126554147Y-45532354D01*
X126455544Y-45384784D01*
X126387624Y-45220812D01*
X126353000Y-45046741D01*
X126353000Y-44869259D01*
X126387624Y-44695188D01*
X126455544Y-44531216D01*
X126554147Y-44383646D01*
X126679646Y-44258147D01*
X126827216Y-44159544D01*
X126991188Y-44091624D01*
X127140488Y-44061927D01*
X127165258Y-44057000D01*
X127342742Y-44057000D01*
X127367512Y-44061927D01*
G37*
G36*
X124827512Y-44061927D02*
G01*
X124976812Y-44091624D01*
X125140784Y-44159544D01*
X125288354Y-44258147D01*
X125413853Y-44383646D01*
X125512456Y-44531216D01*
X125580376Y-44695188D01*
X125615000Y-44869259D01*
X125615000Y-45046741D01*
X125580376Y-45220812D01*
X125512456Y-45384784D01*
X125413853Y-45532354D01*
X125288354Y-45657853D01*
X125140784Y-45756456D01*
X124976812Y-45824376D01*
X124827512Y-45854073D01*
X124802742Y-45859000D01*
X124625258Y-45859000D01*
X124600488Y-45854073D01*
X124451188Y-45824376D01*
X124287216Y-45756456D01*
X124139646Y-45657853D01*
X124014147Y-45532354D01*
X123915544Y-45384784D01*
X123847624Y-45220812D01*
X123813000Y-45046741D01*
X123813000Y-44869259D01*
X123847624Y-44695188D01*
X123915544Y-44531216D01*
X124014147Y-44383646D01*
X124139646Y-44258147D01*
X124287216Y-44159544D01*
X124451188Y-44091624D01*
X124600488Y-44061927D01*
X124625258Y-44057000D01*
X124802742Y-44057000D01*
X124827512Y-44061927D01*
G37*
G36*
X122287512Y-44061927D02*
G01*
X122436812Y-44091624D01*
X122600784Y-44159544D01*
X122748354Y-44258147D01*
X122873853Y-44383646D01*
X122972456Y-44531216D01*
X123040376Y-44695188D01*
X123075000Y-44869259D01*
X123075000Y-45046741D01*
X123040376Y-45220812D01*
X122972456Y-45384784D01*
X122873853Y-45532354D01*
X122748354Y-45657853D01*
X122600784Y-45756456D01*
X122436812Y-45824376D01*
X122287512Y-45854073D01*
X122262742Y-45859000D01*
X122085258Y-45859000D01*
X122060488Y-45854073D01*
X121911188Y-45824376D01*
X121747216Y-45756456D01*
X121599646Y-45657853D01*
X121474147Y-45532354D01*
X121375544Y-45384784D01*
X121307624Y-45220812D01*
X121273000Y-45046741D01*
X121273000Y-44869259D01*
X121307624Y-44695188D01*
X121375544Y-44531216D01*
X121474147Y-44383646D01*
X121599646Y-44258147D01*
X121747216Y-44159544D01*
X121911188Y-44091624D01*
X122060488Y-44061927D01*
X122085258Y-44057000D01*
X122262742Y-44057000D01*
X122287512Y-44061927D01*
G37*
G36*
X125517021Y-35306640D02*
G01*
X126026769Y-35517785D01*
X126026771Y-35517786D01*
X126485534Y-35824321D01*
X126875679Y-36214466D01*
X127182214Y-36673229D01*
X127182215Y-36673231D01*
X127393360Y-37182979D01*
X127501000Y-37724124D01*
X127501000Y-38275876D01*
X127393360Y-38817021D01*
X127182215Y-39326769D01*
X127182214Y-39326771D01*
X126875679Y-39785534D01*
X126485534Y-40175679D01*
X126026771Y-40482214D01*
X126026770Y-40482215D01*
X126026769Y-40482215D01*
X125517021Y-40693360D01*
X124975876Y-40801000D01*
X124424124Y-40801000D01*
X123882979Y-40693360D01*
X123373231Y-40482215D01*
X123373230Y-40482215D01*
X123373229Y-40482214D01*
X122914466Y-40175679D01*
X122524321Y-39785534D01*
X122217786Y-39326771D01*
X122217785Y-39326769D01*
X122006640Y-38817021D01*
X121899000Y-38275876D01*
X121899000Y-37724124D01*
X122006640Y-37182979D01*
X122217785Y-36673231D01*
X122217786Y-36673229D01*
X122524321Y-36214466D01*
X122914466Y-35824321D01*
X123373229Y-35517786D01*
X123373231Y-35517785D01*
X123882979Y-35306640D01*
X124424124Y-35199000D01*
X124975876Y-35199000D01*
X125517021Y-35306640D01*
G37*
M02*
