G04 #@! TF.GenerationSoftware,KiCad,Pcbnew,(5.1.5-0-10_14)*
G04 #@! TF.CreationDate,2021-03-12T21:21:17+01:00*
G04 #@! TF.ProjectId,es_base,65735f62-6173-4652-9e6b-696361645f70,rev?*
G04 #@! TF.SameCoordinates,Original*
G04 #@! TF.FileFunction,Legend,Top*
G04 #@! TF.FilePolarity,Positive*
%FSLAX46Y46*%
G04 Gerber Fmt 4.6, Leading zero omitted, Abs format (unit mm)*
G04 Created by KiCad (PCBNEW (5.1.5-0-10_14)) date 2021-03-12 21:21:17*
%MOMM*%
%LPD*%
G04 APERTURE LIST*
%ADD10C,0.150000*%
%ADD11C,0.127000*%
%ADD12C,0.152400*%
%ADD13C,0.500000*%
%ADD14C,0.120000*%
%ADD15C,0.203200*%
G04 APERTURE END LIST*
D10*
X134326380Y-103004380D02*
X134326380Y-102432952D01*
X135326380Y-102718666D02*
X134326380Y-102718666D01*
X134802571Y-101766285D02*
X134802571Y-102099619D01*
X135326380Y-102099619D02*
X134326380Y-102099619D01*
X134326380Y-101623428D01*
X134326380Y-101385333D02*
X134326380Y-100813904D01*
X135326380Y-101099619D02*
X134326380Y-101099619D01*
X135421619Y-100718666D02*
X135421619Y-99956761D01*
X135326380Y-99718666D02*
X134326380Y-99718666D01*
X134326380Y-99480571D01*
X134374000Y-99337714D01*
X134469238Y-99242476D01*
X134564476Y-99194857D01*
X134754952Y-99147238D01*
X134897809Y-99147238D01*
X135088285Y-99194857D01*
X135183523Y-99242476D01*
X135278761Y-99337714D01*
X135326380Y-99480571D01*
X135326380Y-99718666D01*
X135326380Y-98718666D02*
X134326380Y-98718666D01*
X135278761Y-98290095D02*
X135326380Y-98147238D01*
X135326380Y-97909142D01*
X135278761Y-97813904D01*
X135231142Y-97766285D01*
X135135904Y-97718666D01*
X135040666Y-97718666D01*
X134945428Y-97766285D01*
X134897809Y-97813904D01*
X134850190Y-97909142D01*
X134802571Y-98099619D01*
X134754952Y-98194857D01*
X134707333Y-98242476D01*
X134612095Y-98290095D01*
X134516857Y-98290095D01*
X134421619Y-98242476D01*
X134374000Y-98194857D01*
X134326380Y-98099619D01*
X134326380Y-97861523D01*
X134374000Y-97718666D01*
X135326380Y-97290095D02*
X134326380Y-97290095D01*
X134326380Y-96909142D01*
X134374000Y-96813904D01*
X134421619Y-96766285D01*
X134516857Y-96718666D01*
X134659714Y-96718666D01*
X134754952Y-96766285D01*
X134802571Y-96813904D01*
X134850190Y-96909142D01*
X134850190Y-97290095D01*
X135326380Y-95813904D02*
X135326380Y-96290095D01*
X134326380Y-96290095D01*
X135040666Y-95528190D02*
X135040666Y-95052000D01*
X135326380Y-95623428D02*
X134326380Y-95290095D01*
X135326380Y-94956761D01*
X134850190Y-94432952D02*
X135326380Y-94432952D01*
X134326380Y-94766285D02*
X134850190Y-94432952D01*
X134326380Y-94099619D01*
X125992095Y-113498380D02*
X125992095Y-114307904D01*
X126039714Y-114403142D01*
X126087333Y-114450761D01*
X126182571Y-114498380D01*
X126373047Y-114498380D01*
X126468285Y-114450761D01*
X126515904Y-114403142D01*
X126563523Y-114307904D01*
X126563523Y-113498380D01*
X126992095Y-114450761D02*
X127134952Y-114498380D01*
X127373047Y-114498380D01*
X127468285Y-114450761D01*
X127515904Y-114403142D01*
X127563523Y-114307904D01*
X127563523Y-114212666D01*
X127515904Y-114117428D01*
X127468285Y-114069809D01*
X127373047Y-114022190D01*
X127182571Y-113974571D01*
X127087333Y-113926952D01*
X127039714Y-113879333D01*
X126992095Y-113784095D01*
X126992095Y-113688857D01*
X127039714Y-113593619D01*
X127087333Y-113546000D01*
X127182571Y-113498380D01*
X127420666Y-113498380D01*
X127563523Y-113546000D01*
X128325428Y-113974571D02*
X128468285Y-114022190D01*
X128515904Y-114069809D01*
X128563523Y-114165047D01*
X128563523Y-114307904D01*
X128515904Y-114403142D01*
X128468285Y-114450761D01*
X128373047Y-114498380D01*
X127992095Y-114498380D01*
X127992095Y-113498380D01*
X128325428Y-113498380D01*
X128420666Y-113546000D01*
X128468285Y-113593619D01*
X128515904Y-113688857D01*
X128515904Y-113784095D01*
X128468285Y-113879333D01*
X128420666Y-113926952D01*
X128325428Y-113974571D01*
X127992095Y-113974571D01*
X121380476Y-42346571D02*
X121523333Y-42394190D01*
X121570952Y-42441809D01*
X121618571Y-42537047D01*
X121618571Y-42679904D01*
X121570952Y-42775142D01*
X121523333Y-42822761D01*
X121428095Y-42870380D01*
X121047142Y-42870380D01*
X121047142Y-41870380D01*
X121380476Y-41870380D01*
X121475714Y-41918000D01*
X121523333Y-41965619D01*
X121570952Y-42060857D01*
X121570952Y-42156095D01*
X121523333Y-42251333D01*
X121475714Y-42298952D01*
X121380476Y-42346571D01*
X121047142Y-42346571D01*
X122047142Y-42870380D02*
X122047142Y-42203714D01*
X122047142Y-42394190D02*
X122094761Y-42298952D01*
X122142380Y-42251333D01*
X122237619Y-42203714D01*
X122332857Y-42203714D01*
X122666190Y-42870380D02*
X122666190Y-42203714D01*
X122666190Y-41870380D02*
X122618571Y-41918000D01*
X122666190Y-41965619D01*
X122713809Y-41918000D01*
X122666190Y-41870380D01*
X122666190Y-41965619D01*
X123570952Y-42870380D02*
X123570952Y-41870380D01*
X123570952Y-42822761D02*
X123475714Y-42870380D01*
X123285238Y-42870380D01*
X123190000Y-42822761D01*
X123142380Y-42775142D01*
X123094761Y-42679904D01*
X123094761Y-42394190D01*
X123142380Y-42298952D01*
X123190000Y-42251333D01*
X123285238Y-42203714D01*
X123475714Y-42203714D01*
X123570952Y-42251333D01*
X124475714Y-42203714D02*
X124475714Y-43013238D01*
X124428095Y-43108476D01*
X124380476Y-43156095D01*
X124285238Y-43203714D01*
X124142380Y-43203714D01*
X124047142Y-43156095D01*
X124475714Y-42822761D02*
X124380476Y-42870380D01*
X124190000Y-42870380D01*
X124094761Y-42822761D01*
X124047142Y-42775142D01*
X123999523Y-42679904D01*
X123999523Y-42394190D01*
X124047142Y-42298952D01*
X124094761Y-42251333D01*
X124190000Y-42203714D01*
X124380476Y-42203714D01*
X124475714Y-42251333D01*
X125332857Y-42822761D02*
X125237619Y-42870380D01*
X125047142Y-42870380D01*
X124951904Y-42822761D01*
X124904285Y-42727523D01*
X124904285Y-42346571D01*
X124951904Y-42251333D01*
X125047142Y-42203714D01*
X125237619Y-42203714D01*
X125332857Y-42251333D01*
X125380476Y-42346571D01*
X125380476Y-42441809D01*
X124904285Y-42537047D01*
X134548571Y-62864666D02*
X134548571Y-62531333D01*
X135072380Y-62388476D02*
X135072380Y-62864666D01*
X134072380Y-62864666D01*
X134072380Y-62388476D01*
X134072380Y-62055142D02*
X135072380Y-61388476D01*
X134072380Y-61388476D02*
X135072380Y-62055142D01*
X134072380Y-61150380D02*
X134072380Y-60578952D01*
X135072380Y-60864666D02*
X134072380Y-60864666D01*
X135167619Y-60483714D02*
X135167619Y-59721809D01*
X135072380Y-59483714D02*
X134072380Y-59483714D01*
X134167619Y-59055142D02*
X134120000Y-59007523D01*
X134072380Y-58912285D01*
X134072380Y-58674190D01*
X134120000Y-58578952D01*
X134167619Y-58531333D01*
X134262857Y-58483714D01*
X134358095Y-58483714D01*
X134500952Y-58531333D01*
X135072380Y-59102761D01*
X135072380Y-58483714D01*
X134977142Y-57483714D02*
X135024761Y-57531333D01*
X135072380Y-57674190D01*
X135072380Y-57769428D01*
X135024761Y-57912285D01*
X134929523Y-58007523D01*
X134834285Y-58055142D01*
X134643809Y-58102761D01*
X134500952Y-58102761D01*
X134310476Y-58055142D01*
X134215238Y-58007523D01*
X134120000Y-57912285D01*
X134072380Y-57769428D01*
X134072380Y-57674190D01*
X134120000Y-57531333D01*
X134167619Y-57483714D01*
D11*
X121212428Y-59399714D02*
X121212428Y-60016571D01*
X121248714Y-60089142D01*
X121285000Y-60125428D01*
X121357571Y-60161714D01*
X121502714Y-60161714D01*
X121575285Y-60125428D01*
X121611571Y-60089142D01*
X121647857Y-60016571D01*
X121647857Y-59399714D01*
X121974428Y-60125428D02*
X122083285Y-60161714D01*
X122264714Y-60161714D01*
X122337285Y-60125428D01*
X122373571Y-60089142D01*
X122409857Y-60016571D01*
X122409857Y-59944000D01*
X122373571Y-59871428D01*
X122337285Y-59835142D01*
X122264714Y-59798857D01*
X122119571Y-59762571D01*
X122047000Y-59726285D01*
X122010714Y-59690000D01*
X121974428Y-59617428D01*
X121974428Y-59544857D01*
X122010714Y-59472285D01*
X122047000Y-59436000D01*
X122119571Y-59399714D01*
X122301000Y-59399714D01*
X122409857Y-59436000D01*
X122990428Y-59762571D02*
X123099285Y-59798857D01*
X123135571Y-59835142D01*
X123171857Y-59907714D01*
X123171857Y-60016571D01*
X123135571Y-60089142D01*
X123099285Y-60125428D01*
X123026714Y-60161714D01*
X122736428Y-60161714D01*
X122736428Y-59399714D01*
X122990428Y-59399714D01*
X123063000Y-59436000D01*
X123099285Y-59472285D01*
X123135571Y-59544857D01*
X123135571Y-59617428D01*
X123099285Y-59690000D01*
X123063000Y-59726285D01*
X122990428Y-59762571D01*
X122736428Y-59762571D01*
X121502714Y-61431714D02*
X121502714Y-60669714D01*
X121684142Y-60669714D01*
X121793000Y-60706000D01*
X121865571Y-60778571D01*
X121901857Y-60851142D01*
X121938142Y-60996285D01*
X121938142Y-61105142D01*
X121901857Y-61250285D01*
X121865571Y-61322857D01*
X121793000Y-61395428D01*
X121684142Y-61431714D01*
X121502714Y-61431714D01*
X122264714Y-61141428D02*
X122845285Y-61141428D01*
X122555000Y-61431714D02*
X122555000Y-60851142D01*
X118418428Y-59399714D02*
X118418428Y-60016571D01*
X118454714Y-60089142D01*
X118491000Y-60125428D01*
X118563571Y-60161714D01*
X118708714Y-60161714D01*
X118781285Y-60125428D01*
X118817571Y-60089142D01*
X118853857Y-60016571D01*
X118853857Y-59399714D01*
X119180428Y-60125428D02*
X119289285Y-60161714D01*
X119470714Y-60161714D01*
X119543285Y-60125428D01*
X119579571Y-60089142D01*
X119615857Y-60016571D01*
X119615857Y-59944000D01*
X119579571Y-59871428D01*
X119543285Y-59835142D01*
X119470714Y-59798857D01*
X119325571Y-59762571D01*
X119253000Y-59726285D01*
X119216714Y-59690000D01*
X119180428Y-59617428D01*
X119180428Y-59544857D01*
X119216714Y-59472285D01*
X119253000Y-59436000D01*
X119325571Y-59399714D01*
X119507000Y-59399714D01*
X119615857Y-59436000D01*
X120196428Y-59762571D02*
X120305285Y-59798857D01*
X120341571Y-59835142D01*
X120377857Y-59907714D01*
X120377857Y-60016571D01*
X120341571Y-60089142D01*
X120305285Y-60125428D01*
X120232714Y-60161714D01*
X119942428Y-60161714D01*
X119942428Y-59399714D01*
X120196428Y-59399714D01*
X120269000Y-59436000D01*
X120305285Y-59472285D01*
X120341571Y-59544857D01*
X120341571Y-59617428D01*
X120305285Y-59690000D01*
X120269000Y-59726285D01*
X120196428Y-59762571D01*
X119942428Y-59762571D01*
X118708714Y-61431714D02*
X118708714Y-60669714D01*
X118890142Y-60669714D01*
X118999000Y-60706000D01*
X119071571Y-60778571D01*
X119107857Y-60851142D01*
X119144142Y-60996285D01*
X119144142Y-61105142D01*
X119107857Y-61250285D01*
X119071571Y-61322857D01*
X118999000Y-61395428D01*
X118890142Y-61431714D01*
X118708714Y-61431714D01*
X119470714Y-61141428D02*
X120051285Y-61141428D01*
D12*
X129016380Y-159138180D02*
X128921142Y-159090561D01*
X128873523Y-158995323D01*
X128873523Y-158138180D01*
X129825904Y-159138180D02*
X129825904Y-158614371D01*
X129778285Y-158519133D01*
X129683047Y-158471514D01*
X129492571Y-158471514D01*
X129397333Y-158519133D01*
X129825904Y-159090561D02*
X129730666Y-159138180D01*
X129492571Y-159138180D01*
X129397333Y-159090561D01*
X129349714Y-158995323D01*
X129349714Y-158900085D01*
X129397333Y-158804847D01*
X129492571Y-158757228D01*
X129730666Y-158757228D01*
X129825904Y-158709609D01*
X130444952Y-159138180D02*
X130349714Y-159090561D01*
X130302095Y-158995323D01*
X130302095Y-158138180D01*
X130968761Y-159138180D02*
X130873523Y-159090561D01*
X130825904Y-158995323D01*
X130825904Y-158138180D01*
X131778285Y-159138180D02*
X131778285Y-158614371D01*
X131730666Y-158519133D01*
X131635428Y-158471514D01*
X131444952Y-158471514D01*
X131349714Y-158519133D01*
X131778285Y-159090561D02*
X131683047Y-159138180D01*
X131444952Y-159138180D01*
X131349714Y-159090561D01*
X131302095Y-158995323D01*
X131302095Y-158900085D01*
X131349714Y-158804847D01*
X131444952Y-158757228D01*
X131683047Y-158757228D01*
X131778285Y-158709609D01*
X132111619Y-158471514D02*
X132492571Y-158471514D01*
X132254476Y-159138180D02*
X132254476Y-158281038D01*
X132302095Y-158185800D01*
X132397333Y-158138180D01*
X132492571Y-158138180D01*
X133254476Y-159138180D02*
X133254476Y-158614371D01*
X133206857Y-158519133D01*
X133111619Y-158471514D01*
X132921142Y-158471514D01*
X132825904Y-158519133D01*
X133254476Y-159090561D02*
X133159238Y-159138180D01*
X132921142Y-159138180D01*
X132825904Y-159090561D01*
X132778285Y-158995323D01*
X132778285Y-158900085D01*
X132825904Y-158804847D01*
X132921142Y-158757228D01*
X133159238Y-158757228D01*
X133254476Y-158709609D01*
X130635428Y-160790580D02*
X130064000Y-160790580D01*
X130349714Y-160790580D02*
X130349714Y-159790580D01*
X130254476Y-159933438D01*
X130159238Y-160028676D01*
X130064000Y-160076295D01*
X131064000Y-160695342D02*
X131111619Y-160742961D01*
X131064000Y-160790580D01*
X131016380Y-160742961D01*
X131064000Y-160695342D01*
X131064000Y-160790580D01*
X131730666Y-159790580D02*
X131825904Y-159790580D01*
X131921142Y-159838200D01*
X131968761Y-159885819D01*
X132016380Y-159981057D01*
X132064000Y-160171533D01*
X132064000Y-160409628D01*
X132016380Y-160600104D01*
X131968761Y-160695342D01*
X131921142Y-160742961D01*
X131825904Y-160790580D01*
X131730666Y-160790580D01*
X131635428Y-160742961D01*
X131587809Y-160695342D01*
X131540190Y-160600104D01*
X131492571Y-160409628D01*
X131492571Y-160171533D01*
X131540190Y-159981057D01*
X131587809Y-159885819D01*
X131635428Y-159838200D01*
X131730666Y-159790580D01*
D13*
X121142857Y-155813142D02*
X121809523Y-155813142D01*
X122095238Y-156860761D02*
X121142857Y-156860761D01*
X121142857Y-154860761D01*
X122095238Y-154860761D01*
X122857142Y-156765523D02*
X123142857Y-156860761D01*
X123619047Y-156860761D01*
X123809523Y-156765523D01*
X123904761Y-156670285D01*
X124000000Y-156479809D01*
X124000000Y-156289333D01*
X123904761Y-156098857D01*
X123809523Y-156003619D01*
X123619047Y-155908380D01*
X123238095Y-155813142D01*
X123047619Y-155717904D01*
X122952380Y-155622666D01*
X122857142Y-155432190D01*
X122857142Y-155241714D01*
X122952380Y-155051238D01*
X123047619Y-154956000D01*
X123238095Y-154860761D01*
X123714285Y-154860761D01*
X124000000Y-154956000D01*
X125523809Y-155813142D02*
X125809523Y-155908380D01*
X125904761Y-156003619D01*
X126000000Y-156194095D01*
X126000000Y-156479809D01*
X125904761Y-156670285D01*
X125809523Y-156765523D01*
X125619047Y-156860761D01*
X124857142Y-156860761D01*
X124857142Y-154860761D01*
X125523809Y-154860761D01*
X125714285Y-154956000D01*
X125809523Y-155051238D01*
X125904761Y-155241714D01*
X125904761Y-155432190D01*
X125809523Y-155622666D01*
X125714285Y-155717904D01*
X125523809Y-155813142D01*
X124857142Y-155813142D01*
X127714285Y-155527428D02*
X127714285Y-156860761D01*
X126857142Y-155527428D02*
X126857142Y-156575047D01*
X126952380Y-156765523D01*
X127142857Y-156860761D01*
X127428571Y-156860761D01*
X127619047Y-156765523D01*
X127714285Y-156670285D01*
X129523809Y-156860761D02*
X129523809Y-154860761D01*
X129523809Y-156765523D02*
X129333333Y-156860761D01*
X128952380Y-156860761D01*
X128761904Y-156765523D01*
X128666666Y-156670285D01*
X128571428Y-156479809D01*
X128571428Y-155908380D01*
X128666666Y-155717904D01*
X128761904Y-155622666D01*
X128952380Y-155527428D01*
X129333333Y-155527428D01*
X129523809Y-155622666D01*
X131333333Y-156860761D02*
X131333333Y-154860761D01*
X131333333Y-156765523D02*
X131142857Y-156860761D01*
X130761904Y-156860761D01*
X130571428Y-156765523D01*
X130476190Y-156670285D01*
X130380952Y-156479809D01*
X130380952Y-155908380D01*
X130476190Y-155717904D01*
X130571428Y-155622666D01*
X130761904Y-155527428D01*
X131142857Y-155527428D01*
X131333333Y-155622666D01*
X132095238Y-155527428D02*
X132571428Y-156860761D01*
X133047619Y-155527428D02*
X132571428Y-156860761D01*
X132380952Y-157336952D01*
X132285714Y-157432190D01*
X132095238Y-157527428D01*
D14*
X128464000Y-56328000D02*
X129794000Y-56328000D01*
X128464000Y-57658000D02*
X128464000Y-56328000D01*
X131064000Y-56328000D02*
X133664000Y-56328000D01*
X131064000Y-58928000D02*
X131064000Y-56328000D01*
X128464000Y-58928000D02*
X131064000Y-58928000D01*
X133664000Y-56328000D02*
X133664000Y-64068000D01*
X128464000Y-58928000D02*
X128464000Y-64068000D01*
X128464000Y-64068000D02*
X133664000Y-64068000D01*
X126044000Y-107128000D02*
X126044000Y-108458000D01*
X124714000Y-107128000D02*
X126044000Y-107128000D01*
X126044000Y-109728000D02*
X126044000Y-112328000D01*
X123444000Y-109728000D02*
X126044000Y-109728000D01*
X123444000Y-107128000D02*
X123444000Y-109728000D01*
X126044000Y-112328000D02*
X118304000Y-112328000D01*
X123444000Y-107128000D02*
X118304000Y-107128000D01*
X118304000Y-107128000D02*
X118304000Y-112328000D01*
X126044000Y-91888000D02*
X126044000Y-93218000D01*
X124714000Y-91888000D02*
X126044000Y-91888000D01*
X126044000Y-94488000D02*
X126044000Y-97088000D01*
X123444000Y-94488000D02*
X126044000Y-94488000D01*
X123444000Y-91888000D02*
X123444000Y-94488000D01*
X126044000Y-97088000D02*
X118304000Y-97088000D01*
X123444000Y-91888000D02*
X118304000Y-91888000D01*
X118304000Y-91888000D02*
X118304000Y-97088000D01*
X126044000Y-99508000D02*
X126044000Y-100838000D01*
X124714000Y-99508000D02*
X126044000Y-99508000D01*
X126044000Y-102108000D02*
X126044000Y-104708000D01*
X123444000Y-102108000D02*
X126044000Y-102108000D01*
X123444000Y-99508000D02*
X123444000Y-102108000D01*
X126044000Y-104708000D02*
X118304000Y-104708000D01*
X123444000Y-99508000D02*
X118304000Y-99508000D01*
X118304000Y-99508000D02*
X118304000Y-104708000D01*
X126044000Y-84268000D02*
X126044000Y-85598000D01*
X124714000Y-84268000D02*
X126044000Y-84268000D01*
X126044000Y-86868000D02*
X126044000Y-89468000D01*
X123444000Y-86868000D02*
X126044000Y-86868000D01*
X123444000Y-84268000D02*
X123444000Y-86868000D01*
X126044000Y-89468000D02*
X118304000Y-89468000D01*
X123444000Y-84268000D02*
X118304000Y-84268000D01*
X118304000Y-84268000D02*
X118304000Y-89468000D01*
X121114000Y-140200000D02*
X121974000Y-140200000D01*
X121114000Y-140200000D02*
X121114000Y-141000000D01*
X123974000Y-147680000D02*
G75*
G03X123974000Y-147680000I-1800000J0D01*
G01*
X121824000Y-143180000D02*
X117674000Y-143180000D01*
X126674000Y-143180000D02*
X122524000Y-143180000D01*
X121674000Y-153680000D02*
X117674000Y-153680000D01*
X126674000Y-153680000D02*
X122674000Y-153680000D01*
X126674000Y-143180000D02*
X126674000Y-153680000D01*
X117674000Y-143180000D02*
X117674000Y-153680000D01*
X118304000Y-58988000D02*
X118304000Y-57658000D01*
X119634000Y-58988000D02*
X118304000Y-58988000D01*
X120904000Y-58988000D02*
X120904000Y-56328000D01*
X120904000Y-56328000D02*
X123504000Y-56328000D01*
X120904000Y-58988000D02*
X123504000Y-58988000D01*
X123504000Y-58988000D02*
X123504000Y-56328000D01*
X135584000Y-120140252D02*
X135584000Y-119617748D01*
X134164000Y-120140252D02*
X134164000Y-119617748D01*
X129996000Y-120140252D02*
X129996000Y-119617748D01*
X128576000Y-120140252D02*
X128576000Y-119617748D01*
X125424000Y-120140252D02*
X125424000Y-119617748D01*
X124004000Y-120140252D02*
X124004000Y-119617748D01*
X120090000Y-120140252D02*
X120090000Y-119617748D01*
X118670000Y-120140252D02*
X118670000Y-119617748D01*
X120844000Y-117662000D02*
X120844000Y-116332000D01*
X122174000Y-117662000D02*
X120844000Y-117662000D01*
X123444000Y-117662000D02*
X123444000Y-115002000D01*
X123444000Y-115002000D02*
X133664000Y-115002000D01*
X123444000Y-117662000D02*
X133664000Y-117662000D01*
X133664000Y-117662000D02*
X133664000Y-115002000D01*
X135954000Y-125766000D02*
X136110000Y-125766000D01*
X133638000Y-125766000D02*
X133794000Y-125766000D01*
X135953837Y-123164870D02*
G75*
G02X135954000Y-125246961I-1079837J-1041130D01*
G01*
X133794163Y-123164870D02*
G75*
G03X133794000Y-125246961I1079837J-1041130D01*
G01*
X135952608Y-122533665D02*
G75*
G02X136109516Y-125766000I-1078608J-1672335D01*
G01*
X133795392Y-122533665D02*
G75*
G03X133638484Y-125766000I1078608J-1672335D01*
G01*
X130366000Y-125766000D02*
X130522000Y-125766000D01*
X128050000Y-125766000D02*
X128206000Y-125766000D01*
X130365837Y-123164870D02*
G75*
G02X130366000Y-125246961I-1079837J-1041130D01*
G01*
X128206163Y-123164870D02*
G75*
G03X128206000Y-125246961I1079837J-1041130D01*
G01*
X130364608Y-122533665D02*
G75*
G02X130521516Y-125766000I-1078608J-1672335D01*
G01*
X128207392Y-122533665D02*
G75*
G03X128050484Y-125766000I1078608J-1672335D01*
G01*
X126048000Y-125766000D02*
X126204000Y-125766000D01*
X123732000Y-125766000D02*
X123888000Y-125766000D01*
X126047837Y-123164870D02*
G75*
G02X126048000Y-125246961I-1079837J-1041130D01*
G01*
X123888163Y-123164870D02*
G75*
G03X123888000Y-125246961I1079837J-1041130D01*
G01*
X126046608Y-122533665D02*
G75*
G02X126203516Y-125766000I-1078608J-1672335D01*
G01*
X123889392Y-122533665D02*
G75*
G03X123732484Y-125766000I1078608J-1672335D01*
G01*
X120460000Y-125766000D02*
X120616000Y-125766000D01*
X118144000Y-125766000D02*
X118300000Y-125766000D01*
X120459837Y-123164870D02*
G75*
G02X120460000Y-125246961I-1079837J-1041130D01*
G01*
X118300163Y-123164870D02*
G75*
G03X118300000Y-125246961I1079837J-1041130D01*
G01*
X120458608Y-122533665D02*
G75*
G02X120615516Y-125766000I-1078608J-1672335D01*
G01*
X118301392Y-122533665D02*
G75*
G03X118144484Y-125766000I1078608J-1672335D01*
G01*
X133664000Y-112328000D02*
X132334000Y-112328000D01*
X133664000Y-110998000D02*
X133664000Y-112328000D01*
X133664000Y-109728000D02*
X131004000Y-109728000D01*
X131004000Y-109728000D02*
X131004000Y-86808000D01*
X133664000Y-109728000D02*
X133664000Y-86808000D01*
X133664000Y-86808000D02*
X131004000Y-86808000D01*
D15*
X133254000Y-67160000D02*
X133254000Y-80160000D01*
X121254000Y-67160000D02*
X133254000Y-67160000D01*
X121254000Y-80160000D02*
X121254000Y-67160000D01*
X133254000Y-80160000D02*
X121254000Y-80160000D01*
X130754000Y-73660000D02*
G75*
G03X130754000Y-73660000I-3500000J0D01*
G01*
X130254000Y-72160000D02*
X124254000Y-72160000D01*
D14*
X133602252Y-81332000D02*
X133079748Y-81332000D01*
X133602252Y-82752000D02*
X133079748Y-82752000D01*
X120905748Y-82752000D02*
X121428252Y-82752000D01*
X120905748Y-81332000D02*
X121428252Y-81332000D01*
X120905748Y-65988000D02*
X121428252Y-65988000D01*
X120905748Y-64568000D02*
X121428252Y-64568000D01*
X130940000Y-140200000D02*
X131800000Y-140200000D01*
X130940000Y-140200000D02*
X130940000Y-141000000D01*
X133800000Y-147680000D02*
G75*
G03X133800000Y-147680000I-1800000J0D01*
G01*
X131650000Y-143180000D02*
X127500000Y-143180000D01*
X136500000Y-143180000D02*
X132350000Y-143180000D01*
X131500000Y-153680000D02*
X127500000Y-153680000D01*
X136500000Y-153680000D02*
X132500000Y-153680000D01*
X136500000Y-143180000D02*
X136500000Y-153680000D01*
X127500000Y-143180000D02*
X127500000Y-153680000D01*
X131020000Y-125700000D02*
X131880000Y-125700000D01*
X131020000Y-125700000D02*
X131020000Y-126500000D01*
X133880000Y-133180000D02*
G75*
G03X133880000Y-133180000I-1800000J0D01*
G01*
X131730000Y-128680000D02*
X127580000Y-128680000D01*
X136580000Y-128680000D02*
X132430000Y-128680000D01*
X131580000Y-139180000D02*
X127580000Y-139180000D01*
X136580000Y-139180000D02*
X132580000Y-139180000D01*
X136580000Y-128680000D02*
X136580000Y-139180000D01*
X127580000Y-128680000D02*
X127580000Y-139180000D01*
X121114000Y-125700000D02*
X121974000Y-125700000D01*
X121114000Y-125700000D02*
X121114000Y-126500000D01*
X123974000Y-133180000D02*
G75*
G03X123974000Y-133180000I-1800000J0D01*
G01*
X121824000Y-128680000D02*
X117674000Y-128680000D01*
X126674000Y-128680000D02*
X122524000Y-128680000D01*
X121674000Y-139180000D02*
X117674000Y-139180000D01*
X126674000Y-139180000D02*
X122674000Y-139180000D01*
X126674000Y-128680000D02*
X126674000Y-139180000D01*
X117674000Y-128680000D02*
X117674000Y-139180000D01*
X118304000Y-53908000D02*
X118304000Y-52578000D01*
X119634000Y-53908000D02*
X118304000Y-53908000D01*
X120904000Y-53908000D02*
X120904000Y-51248000D01*
X120904000Y-51248000D02*
X133664000Y-51248000D01*
X120904000Y-53908000D02*
X133664000Y-53908000D01*
X133664000Y-53908000D02*
X133664000Y-51248000D01*
X118304000Y-51368000D02*
X118304000Y-50038000D01*
X119634000Y-51368000D02*
X118304000Y-51368000D01*
X120904000Y-51368000D02*
X120904000Y-48708000D01*
X120904000Y-48708000D02*
X133664000Y-48708000D01*
X120904000Y-51368000D02*
X133664000Y-51368000D01*
X133664000Y-51368000D02*
X133664000Y-48708000D01*
X118304000Y-48828000D02*
X118304000Y-47498000D01*
X119634000Y-48828000D02*
X118304000Y-48828000D01*
X120904000Y-48828000D02*
X120904000Y-46168000D01*
X120904000Y-46168000D02*
X133664000Y-46168000D01*
X120904000Y-48828000D02*
X133664000Y-48828000D01*
X133664000Y-48828000D02*
X133664000Y-46168000D01*
X118304000Y-46288000D02*
X118304000Y-44958000D01*
X119634000Y-46288000D02*
X118304000Y-46288000D01*
X120904000Y-46288000D02*
X120904000Y-43628000D01*
X120904000Y-43628000D02*
X133664000Y-43628000D01*
X120904000Y-46288000D02*
X133664000Y-46288000D01*
X133664000Y-46288000D02*
X133664000Y-43628000D01*
D10*
X130730666Y-54780380D02*
X130730666Y-55494666D01*
X130683047Y-55637523D01*
X130587809Y-55732761D01*
X130444952Y-55780380D01*
X130349714Y-55780380D01*
X131349714Y-55208952D02*
X131254476Y-55161333D01*
X131206857Y-55113714D01*
X131159238Y-55018476D01*
X131159238Y-54970857D01*
X131206857Y-54875619D01*
X131254476Y-54828000D01*
X131349714Y-54780380D01*
X131540190Y-54780380D01*
X131635428Y-54828000D01*
X131683047Y-54875619D01*
X131730666Y-54970857D01*
X131730666Y-55018476D01*
X131683047Y-55113714D01*
X131635428Y-55161333D01*
X131540190Y-55208952D01*
X131349714Y-55208952D01*
X131254476Y-55256571D01*
X131206857Y-55304190D01*
X131159238Y-55399428D01*
X131159238Y-55589904D01*
X131206857Y-55685142D01*
X131254476Y-55732761D01*
X131349714Y-55780380D01*
X131540190Y-55780380D01*
X131635428Y-55732761D01*
X131683047Y-55685142D01*
X131730666Y-55589904D01*
X131730666Y-55399428D01*
X131683047Y-55304190D01*
X131635428Y-55256571D01*
X131540190Y-55208952D01*
X123904476Y-105624380D02*
X123904476Y-106338666D01*
X123856857Y-106481523D01*
X123761619Y-106576761D01*
X123618761Y-106624380D01*
X123523523Y-106624380D01*
X124904476Y-106624380D02*
X124333047Y-106624380D01*
X124618761Y-106624380D02*
X124618761Y-105624380D01*
X124523523Y-105767238D01*
X124428285Y-105862476D01*
X124333047Y-105910095D01*
X125761619Y-105624380D02*
X125571142Y-105624380D01*
X125475904Y-105672000D01*
X125428285Y-105719619D01*
X125333047Y-105862476D01*
X125285428Y-106052952D01*
X125285428Y-106433904D01*
X125333047Y-106529142D01*
X125380666Y-106576761D01*
X125475904Y-106624380D01*
X125666380Y-106624380D01*
X125761619Y-106576761D01*
X125809238Y-106529142D01*
X125856857Y-106433904D01*
X125856857Y-106195809D01*
X125809238Y-106100571D01*
X125761619Y-106052952D01*
X125666380Y-106005333D01*
X125475904Y-106005333D01*
X125380666Y-106052952D01*
X125333047Y-106100571D01*
X125285428Y-106195809D01*
X123904476Y-90384380D02*
X123904476Y-91098666D01*
X123856857Y-91241523D01*
X123761619Y-91336761D01*
X123618761Y-91384380D01*
X123523523Y-91384380D01*
X124904476Y-91384380D02*
X124333047Y-91384380D01*
X124618761Y-91384380D02*
X124618761Y-90384380D01*
X124523523Y-90527238D01*
X124428285Y-90622476D01*
X124333047Y-90670095D01*
X125761619Y-90717714D02*
X125761619Y-91384380D01*
X125523523Y-90336761D02*
X125285428Y-91051047D01*
X125904476Y-91051047D01*
X123904476Y-98004380D02*
X123904476Y-98718666D01*
X123856857Y-98861523D01*
X123761619Y-98956761D01*
X123618761Y-99004380D01*
X123523523Y-99004380D01*
X124904476Y-99004380D02*
X124333047Y-99004380D01*
X124618761Y-99004380D02*
X124618761Y-98004380D01*
X124523523Y-98147238D01*
X124428285Y-98242476D01*
X124333047Y-98290095D01*
X125809238Y-98004380D02*
X125333047Y-98004380D01*
X125285428Y-98480571D01*
X125333047Y-98432952D01*
X125428285Y-98385333D01*
X125666380Y-98385333D01*
X125761619Y-98432952D01*
X125809238Y-98480571D01*
X125856857Y-98575809D01*
X125856857Y-98813904D01*
X125809238Y-98909142D01*
X125761619Y-98956761D01*
X125666380Y-99004380D01*
X125428285Y-99004380D01*
X125333047Y-98956761D01*
X125285428Y-98909142D01*
X123904476Y-82764380D02*
X123904476Y-83478666D01*
X123856857Y-83621523D01*
X123761619Y-83716761D01*
X123618761Y-83764380D01*
X123523523Y-83764380D01*
X124904476Y-83764380D02*
X124333047Y-83764380D01*
X124618761Y-83764380D02*
X124618761Y-82764380D01*
X124523523Y-82907238D01*
X124428285Y-83002476D01*
X124333047Y-83050095D01*
X125237809Y-82764380D02*
X125856857Y-82764380D01*
X125523523Y-83145333D01*
X125666380Y-83145333D01*
X125761619Y-83192952D01*
X125809238Y-83240571D01*
X125856857Y-83335809D01*
X125856857Y-83573904D01*
X125809238Y-83669142D01*
X125761619Y-83716761D01*
X125666380Y-83764380D01*
X125380666Y-83764380D01*
X125285428Y-83716761D01*
X125237809Y-83669142D01*
X118570476Y-143724380D02*
X118570476Y-144438666D01*
X118522857Y-144581523D01*
X118427619Y-144676761D01*
X118284761Y-144724380D01*
X118189523Y-144724380D01*
X119570476Y-144724380D02*
X118999047Y-144724380D01*
X119284761Y-144724380D02*
X119284761Y-143724380D01*
X119189523Y-143867238D01*
X119094285Y-143962476D01*
X118999047Y-144010095D01*
X120522857Y-144724380D02*
X119951428Y-144724380D01*
X120237142Y-144724380D02*
X120237142Y-143724380D01*
X120141904Y-143867238D01*
X120046666Y-143962476D01*
X119951428Y-144010095D01*
X120570666Y-54824380D02*
X120570666Y-55538666D01*
X120523047Y-55681523D01*
X120427809Y-55776761D01*
X120284952Y-55824380D01*
X120189714Y-55824380D01*
X120951619Y-54824380D02*
X121618285Y-54824380D01*
X121189714Y-55824380D01*
X133548380Y-120054666D02*
X133072190Y-120388000D01*
X133548380Y-120626095D02*
X132548380Y-120626095D01*
X132548380Y-120245142D01*
X132596000Y-120149904D01*
X132643619Y-120102285D01*
X132738857Y-120054666D01*
X132881714Y-120054666D01*
X132976952Y-120102285D01*
X133024571Y-120149904D01*
X133072190Y-120245142D01*
X133072190Y-120626095D01*
X132548380Y-119721333D02*
X132548380Y-119054666D01*
X133548380Y-119483238D01*
X131516380Y-120054666D02*
X131040190Y-120388000D01*
X131516380Y-120626095D02*
X130516380Y-120626095D01*
X130516380Y-120245142D01*
X130564000Y-120149904D01*
X130611619Y-120102285D01*
X130706857Y-120054666D01*
X130849714Y-120054666D01*
X130944952Y-120102285D01*
X130992571Y-120149904D01*
X131040190Y-120245142D01*
X131040190Y-120626095D01*
X130516380Y-119197523D02*
X130516380Y-119388000D01*
X130564000Y-119483238D01*
X130611619Y-119530857D01*
X130754476Y-119626095D01*
X130944952Y-119673714D01*
X131325904Y-119673714D01*
X131421142Y-119626095D01*
X131468761Y-119578476D01*
X131516380Y-119483238D01*
X131516380Y-119292761D01*
X131468761Y-119197523D01*
X131421142Y-119149904D01*
X131325904Y-119102285D01*
X131087809Y-119102285D01*
X130992571Y-119149904D01*
X130944952Y-119197523D01*
X130897333Y-119292761D01*
X130897333Y-119483238D01*
X130944952Y-119578476D01*
X130992571Y-119626095D01*
X131087809Y-119673714D01*
X123388380Y-120036666D02*
X122912190Y-120370000D01*
X123388380Y-120608095D02*
X122388380Y-120608095D01*
X122388380Y-120227142D01*
X122436000Y-120131904D01*
X122483619Y-120084285D01*
X122578857Y-120036666D01*
X122721714Y-120036666D01*
X122816952Y-120084285D01*
X122864571Y-120131904D01*
X122912190Y-120227142D01*
X122912190Y-120608095D01*
X122388380Y-119131904D02*
X122388380Y-119608095D01*
X122864571Y-119655714D01*
X122816952Y-119608095D01*
X122769333Y-119512857D01*
X122769333Y-119274761D01*
X122816952Y-119179523D01*
X122864571Y-119131904D01*
X122959809Y-119084285D01*
X123197904Y-119084285D01*
X123293142Y-119131904D01*
X123340761Y-119179523D01*
X123388380Y-119274761D01*
X123388380Y-119512857D01*
X123340761Y-119608095D01*
X123293142Y-119655714D01*
X121610380Y-120054666D02*
X121134190Y-120388000D01*
X121610380Y-120626095D02*
X120610380Y-120626095D01*
X120610380Y-120245142D01*
X120658000Y-120149904D01*
X120705619Y-120102285D01*
X120800857Y-120054666D01*
X120943714Y-120054666D01*
X121038952Y-120102285D01*
X121086571Y-120149904D01*
X121134190Y-120245142D01*
X121134190Y-120626095D01*
X120943714Y-119197523D02*
X121610380Y-119197523D01*
X120562761Y-119435619D02*
X121277047Y-119673714D01*
X121277047Y-119054666D01*
X119296380Y-116665333D02*
X120010666Y-116665333D01*
X120153523Y-116712952D01*
X120248761Y-116808190D01*
X120296380Y-116951047D01*
X120296380Y-117046285D01*
X119296380Y-115760571D02*
X119296380Y-115951047D01*
X119344000Y-116046285D01*
X119391619Y-116093904D01*
X119534476Y-116189142D01*
X119724952Y-116236761D01*
X120105904Y-116236761D01*
X120201142Y-116189142D01*
X120248761Y-116141523D01*
X120296380Y-116046285D01*
X120296380Y-115855809D01*
X120248761Y-115760571D01*
X120201142Y-115712952D01*
X120105904Y-115665333D01*
X119867809Y-115665333D01*
X119772571Y-115712952D01*
X119724952Y-115760571D01*
X119677333Y-115855809D01*
X119677333Y-116046285D01*
X119724952Y-116141523D01*
X119772571Y-116189142D01*
X119867809Y-116236761D01*
X134135904Y-127960380D02*
X134135904Y-126960380D01*
X134374000Y-126960380D01*
X134516857Y-127008000D01*
X134612095Y-127103238D01*
X134659714Y-127198476D01*
X134707333Y-127388952D01*
X134707333Y-127531809D01*
X134659714Y-127722285D01*
X134612095Y-127817523D01*
X134516857Y-127912761D01*
X134374000Y-127960380D01*
X134135904Y-127960380D01*
X135564476Y-127293714D02*
X135564476Y-127960380D01*
X135326380Y-126912761D02*
X135088285Y-127627047D01*
X135707333Y-127627047D01*
X128547904Y-127960380D02*
X128547904Y-126960380D01*
X128786000Y-126960380D01*
X128928857Y-127008000D01*
X129024095Y-127103238D01*
X129071714Y-127198476D01*
X129119333Y-127388952D01*
X129119333Y-127531809D01*
X129071714Y-127722285D01*
X129024095Y-127817523D01*
X128928857Y-127912761D01*
X128786000Y-127960380D01*
X128547904Y-127960380D01*
X129452666Y-126960380D02*
X130071714Y-126960380D01*
X129738380Y-127341333D01*
X129881238Y-127341333D01*
X129976476Y-127388952D01*
X130024095Y-127436571D01*
X130071714Y-127531809D01*
X130071714Y-127769904D01*
X130024095Y-127865142D01*
X129976476Y-127912761D01*
X129881238Y-127960380D01*
X129595523Y-127960380D01*
X129500285Y-127912761D01*
X129452666Y-127865142D01*
X124229904Y-127960380D02*
X124229904Y-126960380D01*
X124468000Y-126960380D01*
X124610857Y-127008000D01*
X124706095Y-127103238D01*
X124753714Y-127198476D01*
X124801333Y-127388952D01*
X124801333Y-127531809D01*
X124753714Y-127722285D01*
X124706095Y-127817523D01*
X124610857Y-127912761D01*
X124468000Y-127960380D01*
X124229904Y-127960380D01*
X125182285Y-127055619D02*
X125229904Y-127008000D01*
X125325142Y-126960380D01*
X125563238Y-126960380D01*
X125658476Y-127008000D01*
X125706095Y-127055619D01*
X125753714Y-127150857D01*
X125753714Y-127246095D01*
X125706095Y-127388952D01*
X125134666Y-127960380D01*
X125753714Y-127960380D01*
X118641904Y-127960380D02*
X118641904Y-126960380D01*
X118880000Y-126960380D01*
X119022857Y-127008000D01*
X119118095Y-127103238D01*
X119165714Y-127198476D01*
X119213333Y-127388952D01*
X119213333Y-127531809D01*
X119165714Y-127722285D01*
X119118095Y-127817523D01*
X119022857Y-127912761D01*
X118880000Y-127960380D01*
X118641904Y-127960380D01*
X120165714Y-127960380D02*
X119594285Y-127960380D01*
X119880000Y-127960380D02*
X119880000Y-126960380D01*
X119784761Y-127103238D01*
X119689523Y-127198476D01*
X119594285Y-127246095D01*
X132000666Y-112780380D02*
X132000666Y-113494666D01*
X131953047Y-113637523D01*
X131857809Y-113732761D01*
X131714952Y-113780380D01*
X131619714Y-113780380D01*
X132953047Y-112780380D02*
X132476857Y-112780380D01*
X132429238Y-113256571D01*
X132476857Y-113208952D01*
X132572095Y-113161333D01*
X132810190Y-113161333D01*
X132905428Y-113208952D01*
X132953047Y-113256571D01*
X133000666Y-113351809D01*
X133000666Y-113589904D01*
X132953047Y-113685142D01*
X132905428Y-113732761D01*
X132810190Y-113780380D01*
X132572095Y-113780380D01*
X132476857Y-113732761D01*
X132429238Y-113685142D01*
D12*
X127961571Y-83402714D02*
X127707571Y-83039857D01*
X127526142Y-83402714D02*
X127526142Y-82640714D01*
X127816428Y-82640714D01*
X127889000Y-82677000D01*
X127925285Y-82713285D01*
X127961571Y-82785857D01*
X127961571Y-82894714D01*
X127925285Y-82967285D01*
X127889000Y-83003571D01*
X127816428Y-83039857D01*
X127526142Y-83039857D01*
X128433285Y-82640714D02*
X128578428Y-82640714D01*
X128651000Y-82677000D01*
X128723571Y-82749571D01*
X128759857Y-82894714D01*
X128759857Y-83148714D01*
X128723571Y-83293857D01*
X128651000Y-83366428D01*
X128578428Y-83402714D01*
X128433285Y-83402714D01*
X128360714Y-83366428D01*
X128288142Y-83293857D01*
X128251857Y-83148714D01*
X128251857Y-82894714D01*
X128288142Y-82749571D01*
X128360714Y-82677000D01*
X128433285Y-82640714D01*
X128977571Y-82640714D02*
X129413000Y-82640714D01*
X129195285Y-83402714D02*
X129195285Y-82640714D01*
X130066142Y-83402714D02*
X129630714Y-83402714D01*
X129848428Y-83402714D02*
X129848428Y-82640714D01*
X129775857Y-82749571D01*
X129703285Y-82822142D01*
X129630714Y-82858428D01*
D10*
X133691333Y-84272380D02*
X133358000Y-83796190D01*
X133119904Y-84272380D02*
X133119904Y-83272380D01*
X133500857Y-83272380D01*
X133596095Y-83320000D01*
X133643714Y-83367619D01*
X133691333Y-83462857D01*
X133691333Y-83605714D01*
X133643714Y-83700952D01*
X133596095Y-83748571D01*
X133500857Y-83796190D01*
X133119904Y-83796190D01*
X134024666Y-83272380D02*
X134643714Y-83272380D01*
X134310380Y-83653333D01*
X134453238Y-83653333D01*
X134548476Y-83700952D01*
X134596095Y-83748571D01*
X134643714Y-83843809D01*
X134643714Y-84081904D01*
X134596095Y-84177142D01*
X134548476Y-84224761D01*
X134453238Y-84272380D01*
X134167523Y-84272380D01*
X134072285Y-84224761D01*
X134024666Y-84177142D01*
X118215333Y-82494380D02*
X117882000Y-82018190D01*
X117643904Y-82494380D02*
X117643904Y-81494380D01*
X118024857Y-81494380D01*
X118120095Y-81542000D01*
X118167714Y-81589619D01*
X118215333Y-81684857D01*
X118215333Y-81827714D01*
X118167714Y-81922952D01*
X118120095Y-81970571D01*
X118024857Y-82018190D01*
X117643904Y-82018190D01*
X118596285Y-81589619D02*
X118643904Y-81542000D01*
X118739142Y-81494380D01*
X118977238Y-81494380D01*
X119072476Y-81542000D01*
X119120095Y-81589619D01*
X119167714Y-81684857D01*
X119167714Y-81780095D01*
X119120095Y-81922952D01*
X118548666Y-82494380D01*
X119167714Y-82494380D01*
X118197333Y-65730380D02*
X117864000Y-65254190D01*
X117625904Y-65730380D02*
X117625904Y-64730380D01*
X118006857Y-64730380D01*
X118102095Y-64778000D01*
X118149714Y-64825619D01*
X118197333Y-64920857D01*
X118197333Y-65063714D01*
X118149714Y-65158952D01*
X118102095Y-65206571D01*
X118006857Y-65254190D01*
X117625904Y-65254190D01*
X119149714Y-65730380D02*
X118578285Y-65730380D01*
X118864000Y-65730380D02*
X118864000Y-64730380D01*
X118768761Y-64873238D01*
X118673523Y-64968476D01*
X118578285Y-65016095D01*
X128476476Y-143724380D02*
X128476476Y-144438666D01*
X128428857Y-144581523D01*
X128333619Y-144676761D01*
X128190761Y-144724380D01*
X128095523Y-144724380D01*
X129476476Y-144724380D02*
X128905047Y-144724380D01*
X129190761Y-144724380D02*
X129190761Y-143724380D01*
X129095523Y-143867238D01*
X129000285Y-143962476D01*
X128905047Y-144010095D01*
X129857428Y-143819619D02*
X129905047Y-143772000D01*
X130000285Y-143724380D01*
X130238380Y-143724380D01*
X130333619Y-143772000D01*
X130381238Y-143819619D01*
X130428857Y-143914857D01*
X130428857Y-144010095D01*
X130381238Y-144152952D01*
X129809809Y-144724380D01*
X130428857Y-144724380D01*
X128476476Y-129246380D02*
X128476476Y-129960666D01*
X128428857Y-130103523D01*
X128333619Y-130198761D01*
X128190761Y-130246380D01*
X128095523Y-130246380D01*
X129476476Y-130246380D02*
X128905047Y-130246380D01*
X129190761Y-130246380D02*
X129190761Y-129246380D01*
X129095523Y-129389238D01*
X129000285Y-129484476D01*
X128905047Y-129532095D01*
X130095523Y-129246380D02*
X130190761Y-129246380D01*
X130286000Y-129294000D01*
X130333619Y-129341619D01*
X130381238Y-129436857D01*
X130428857Y-129627333D01*
X130428857Y-129865428D01*
X130381238Y-130055904D01*
X130333619Y-130151142D01*
X130286000Y-130198761D01*
X130190761Y-130246380D01*
X130095523Y-130246380D01*
X130000285Y-130198761D01*
X129952666Y-130151142D01*
X129905047Y-130055904D01*
X129857428Y-129865428D01*
X129857428Y-129627333D01*
X129905047Y-129436857D01*
X129952666Y-129341619D01*
X130000285Y-129294000D01*
X130095523Y-129246380D01*
X118538666Y-129246380D02*
X118538666Y-129960666D01*
X118491047Y-130103523D01*
X118395809Y-130198761D01*
X118252952Y-130246380D01*
X118157714Y-130246380D01*
X119062476Y-130246380D02*
X119252952Y-130246380D01*
X119348190Y-130198761D01*
X119395809Y-130151142D01*
X119491047Y-130008285D01*
X119538666Y-129817809D01*
X119538666Y-129436857D01*
X119491047Y-129341619D01*
X119443428Y-129294000D01*
X119348190Y-129246380D01*
X119157714Y-129246380D01*
X119062476Y-129294000D01*
X119014857Y-129341619D01*
X118967238Y-129436857D01*
X118967238Y-129674952D01*
X119014857Y-129770190D01*
X119062476Y-129817809D01*
X119157714Y-129865428D01*
X119348190Y-129865428D01*
X119443428Y-129817809D01*
X119491047Y-129770190D01*
X119538666Y-129674952D01*
M02*
