G04 #@! TF.GenerationSoftware,KiCad,Pcbnew,(5.1.5-0-10_14)*
G04 #@! TF.CreationDate,2021-03-12T21:21:17+01:00*
G04 #@! TF.ProjectId,es_base,65735f62-6173-4652-9e6b-696361645f70,rev?*
G04 #@! TF.SameCoordinates,Original*
G04 #@! TF.FileFunction,Paste,Top*
G04 #@! TF.FilePolarity,Positive*
%FSLAX46Y46*%
G04 Gerber Fmt 4.6, Leading zero omitted, Abs format (unit mm)*
G04 Created by KiCad (PCBNEW (5.1.5-0-10_14)) date 2021-03-12 21:21:17*
%MOMM*%
%LPD*%
G04 APERTURE LIST*
%ADD10C,0.100000*%
G04 APERTURE END LIST*
D10*
G36*
X135348505Y-118280204D02*
G01*
X135372773Y-118283804D01*
X135396572Y-118289765D01*
X135419671Y-118298030D01*
X135441850Y-118308520D01*
X135462893Y-118321132D01*
X135482599Y-118335747D01*
X135500777Y-118352223D01*
X135517253Y-118370401D01*
X135531868Y-118390107D01*
X135544480Y-118411150D01*
X135554970Y-118433329D01*
X135563235Y-118456428D01*
X135569196Y-118480227D01*
X135572796Y-118504495D01*
X135574000Y-118528999D01*
X135574000Y-119179001D01*
X135572796Y-119203505D01*
X135569196Y-119227773D01*
X135563235Y-119251572D01*
X135554970Y-119274671D01*
X135544480Y-119296850D01*
X135531868Y-119317893D01*
X135517253Y-119337599D01*
X135500777Y-119355777D01*
X135482599Y-119372253D01*
X135462893Y-119386868D01*
X135441850Y-119399480D01*
X135419671Y-119409970D01*
X135396572Y-119418235D01*
X135372773Y-119424196D01*
X135348505Y-119427796D01*
X135324001Y-119429000D01*
X134423999Y-119429000D01*
X134399495Y-119427796D01*
X134375227Y-119424196D01*
X134351428Y-119418235D01*
X134328329Y-119409970D01*
X134306150Y-119399480D01*
X134285107Y-119386868D01*
X134265401Y-119372253D01*
X134247223Y-119355777D01*
X134230747Y-119337599D01*
X134216132Y-119317893D01*
X134203520Y-119296850D01*
X134193030Y-119274671D01*
X134184765Y-119251572D01*
X134178804Y-119227773D01*
X134175204Y-119203505D01*
X134174000Y-119179001D01*
X134174000Y-118528999D01*
X134175204Y-118504495D01*
X134178804Y-118480227D01*
X134184765Y-118456428D01*
X134193030Y-118433329D01*
X134203520Y-118411150D01*
X134216132Y-118390107D01*
X134230747Y-118370401D01*
X134247223Y-118352223D01*
X134265401Y-118335747D01*
X134285107Y-118321132D01*
X134306150Y-118308520D01*
X134328329Y-118298030D01*
X134351428Y-118289765D01*
X134375227Y-118283804D01*
X134399495Y-118280204D01*
X134423999Y-118279000D01*
X135324001Y-118279000D01*
X135348505Y-118280204D01*
G37*
G36*
X135348505Y-120330204D02*
G01*
X135372773Y-120333804D01*
X135396572Y-120339765D01*
X135419671Y-120348030D01*
X135441850Y-120358520D01*
X135462893Y-120371132D01*
X135482599Y-120385747D01*
X135500777Y-120402223D01*
X135517253Y-120420401D01*
X135531868Y-120440107D01*
X135544480Y-120461150D01*
X135554970Y-120483329D01*
X135563235Y-120506428D01*
X135569196Y-120530227D01*
X135572796Y-120554495D01*
X135574000Y-120578999D01*
X135574000Y-121229001D01*
X135572796Y-121253505D01*
X135569196Y-121277773D01*
X135563235Y-121301572D01*
X135554970Y-121324671D01*
X135544480Y-121346850D01*
X135531868Y-121367893D01*
X135517253Y-121387599D01*
X135500777Y-121405777D01*
X135482599Y-121422253D01*
X135462893Y-121436868D01*
X135441850Y-121449480D01*
X135419671Y-121459970D01*
X135396572Y-121468235D01*
X135372773Y-121474196D01*
X135348505Y-121477796D01*
X135324001Y-121479000D01*
X134423999Y-121479000D01*
X134399495Y-121477796D01*
X134375227Y-121474196D01*
X134351428Y-121468235D01*
X134328329Y-121459970D01*
X134306150Y-121449480D01*
X134285107Y-121436868D01*
X134265401Y-121422253D01*
X134247223Y-121405777D01*
X134230747Y-121387599D01*
X134216132Y-121367893D01*
X134203520Y-121346850D01*
X134193030Y-121324671D01*
X134184765Y-121301572D01*
X134178804Y-121277773D01*
X134175204Y-121253505D01*
X134174000Y-121229001D01*
X134174000Y-120578999D01*
X134175204Y-120554495D01*
X134178804Y-120530227D01*
X134184765Y-120506428D01*
X134193030Y-120483329D01*
X134203520Y-120461150D01*
X134216132Y-120440107D01*
X134230747Y-120420401D01*
X134247223Y-120402223D01*
X134265401Y-120385747D01*
X134285107Y-120371132D01*
X134306150Y-120358520D01*
X134328329Y-120348030D01*
X134351428Y-120339765D01*
X134375227Y-120333804D01*
X134399495Y-120330204D01*
X134423999Y-120329000D01*
X135324001Y-120329000D01*
X135348505Y-120330204D01*
G37*
G36*
X129760505Y-118280204D02*
G01*
X129784773Y-118283804D01*
X129808572Y-118289765D01*
X129831671Y-118298030D01*
X129853850Y-118308520D01*
X129874893Y-118321132D01*
X129894599Y-118335747D01*
X129912777Y-118352223D01*
X129929253Y-118370401D01*
X129943868Y-118390107D01*
X129956480Y-118411150D01*
X129966970Y-118433329D01*
X129975235Y-118456428D01*
X129981196Y-118480227D01*
X129984796Y-118504495D01*
X129986000Y-118528999D01*
X129986000Y-119179001D01*
X129984796Y-119203505D01*
X129981196Y-119227773D01*
X129975235Y-119251572D01*
X129966970Y-119274671D01*
X129956480Y-119296850D01*
X129943868Y-119317893D01*
X129929253Y-119337599D01*
X129912777Y-119355777D01*
X129894599Y-119372253D01*
X129874893Y-119386868D01*
X129853850Y-119399480D01*
X129831671Y-119409970D01*
X129808572Y-119418235D01*
X129784773Y-119424196D01*
X129760505Y-119427796D01*
X129736001Y-119429000D01*
X128835999Y-119429000D01*
X128811495Y-119427796D01*
X128787227Y-119424196D01*
X128763428Y-119418235D01*
X128740329Y-119409970D01*
X128718150Y-119399480D01*
X128697107Y-119386868D01*
X128677401Y-119372253D01*
X128659223Y-119355777D01*
X128642747Y-119337599D01*
X128628132Y-119317893D01*
X128615520Y-119296850D01*
X128605030Y-119274671D01*
X128596765Y-119251572D01*
X128590804Y-119227773D01*
X128587204Y-119203505D01*
X128586000Y-119179001D01*
X128586000Y-118528999D01*
X128587204Y-118504495D01*
X128590804Y-118480227D01*
X128596765Y-118456428D01*
X128605030Y-118433329D01*
X128615520Y-118411150D01*
X128628132Y-118390107D01*
X128642747Y-118370401D01*
X128659223Y-118352223D01*
X128677401Y-118335747D01*
X128697107Y-118321132D01*
X128718150Y-118308520D01*
X128740329Y-118298030D01*
X128763428Y-118289765D01*
X128787227Y-118283804D01*
X128811495Y-118280204D01*
X128835999Y-118279000D01*
X129736001Y-118279000D01*
X129760505Y-118280204D01*
G37*
G36*
X129760505Y-120330204D02*
G01*
X129784773Y-120333804D01*
X129808572Y-120339765D01*
X129831671Y-120348030D01*
X129853850Y-120358520D01*
X129874893Y-120371132D01*
X129894599Y-120385747D01*
X129912777Y-120402223D01*
X129929253Y-120420401D01*
X129943868Y-120440107D01*
X129956480Y-120461150D01*
X129966970Y-120483329D01*
X129975235Y-120506428D01*
X129981196Y-120530227D01*
X129984796Y-120554495D01*
X129986000Y-120578999D01*
X129986000Y-121229001D01*
X129984796Y-121253505D01*
X129981196Y-121277773D01*
X129975235Y-121301572D01*
X129966970Y-121324671D01*
X129956480Y-121346850D01*
X129943868Y-121367893D01*
X129929253Y-121387599D01*
X129912777Y-121405777D01*
X129894599Y-121422253D01*
X129874893Y-121436868D01*
X129853850Y-121449480D01*
X129831671Y-121459970D01*
X129808572Y-121468235D01*
X129784773Y-121474196D01*
X129760505Y-121477796D01*
X129736001Y-121479000D01*
X128835999Y-121479000D01*
X128811495Y-121477796D01*
X128787227Y-121474196D01*
X128763428Y-121468235D01*
X128740329Y-121459970D01*
X128718150Y-121449480D01*
X128697107Y-121436868D01*
X128677401Y-121422253D01*
X128659223Y-121405777D01*
X128642747Y-121387599D01*
X128628132Y-121367893D01*
X128615520Y-121346850D01*
X128605030Y-121324671D01*
X128596765Y-121301572D01*
X128590804Y-121277773D01*
X128587204Y-121253505D01*
X128586000Y-121229001D01*
X128586000Y-120578999D01*
X128587204Y-120554495D01*
X128590804Y-120530227D01*
X128596765Y-120506428D01*
X128605030Y-120483329D01*
X128615520Y-120461150D01*
X128628132Y-120440107D01*
X128642747Y-120420401D01*
X128659223Y-120402223D01*
X128677401Y-120385747D01*
X128697107Y-120371132D01*
X128718150Y-120358520D01*
X128740329Y-120348030D01*
X128763428Y-120339765D01*
X128787227Y-120333804D01*
X128811495Y-120330204D01*
X128835999Y-120329000D01*
X129736001Y-120329000D01*
X129760505Y-120330204D01*
G37*
G36*
X125188505Y-118280204D02*
G01*
X125212773Y-118283804D01*
X125236572Y-118289765D01*
X125259671Y-118298030D01*
X125281850Y-118308520D01*
X125302893Y-118321132D01*
X125322599Y-118335747D01*
X125340777Y-118352223D01*
X125357253Y-118370401D01*
X125371868Y-118390107D01*
X125384480Y-118411150D01*
X125394970Y-118433329D01*
X125403235Y-118456428D01*
X125409196Y-118480227D01*
X125412796Y-118504495D01*
X125414000Y-118528999D01*
X125414000Y-119179001D01*
X125412796Y-119203505D01*
X125409196Y-119227773D01*
X125403235Y-119251572D01*
X125394970Y-119274671D01*
X125384480Y-119296850D01*
X125371868Y-119317893D01*
X125357253Y-119337599D01*
X125340777Y-119355777D01*
X125322599Y-119372253D01*
X125302893Y-119386868D01*
X125281850Y-119399480D01*
X125259671Y-119409970D01*
X125236572Y-119418235D01*
X125212773Y-119424196D01*
X125188505Y-119427796D01*
X125164001Y-119429000D01*
X124263999Y-119429000D01*
X124239495Y-119427796D01*
X124215227Y-119424196D01*
X124191428Y-119418235D01*
X124168329Y-119409970D01*
X124146150Y-119399480D01*
X124125107Y-119386868D01*
X124105401Y-119372253D01*
X124087223Y-119355777D01*
X124070747Y-119337599D01*
X124056132Y-119317893D01*
X124043520Y-119296850D01*
X124033030Y-119274671D01*
X124024765Y-119251572D01*
X124018804Y-119227773D01*
X124015204Y-119203505D01*
X124014000Y-119179001D01*
X124014000Y-118528999D01*
X124015204Y-118504495D01*
X124018804Y-118480227D01*
X124024765Y-118456428D01*
X124033030Y-118433329D01*
X124043520Y-118411150D01*
X124056132Y-118390107D01*
X124070747Y-118370401D01*
X124087223Y-118352223D01*
X124105401Y-118335747D01*
X124125107Y-118321132D01*
X124146150Y-118308520D01*
X124168329Y-118298030D01*
X124191428Y-118289765D01*
X124215227Y-118283804D01*
X124239495Y-118280204D01*
X124263999Y-118279000D01*
X125164001Y-118279000D01*
X125188505Y-118280204D01*
G37*
G36*
X125188505Y-120330204D02*
G01*
X125212773Y-120333804D01*
X125236572Y-120339765D01*
X125259671Y-120348030D01*
X125281850Y-120358520D01*
X125302893Y-120371132D01*
X125322599Y-120385747D01*
X125340777Y-120402223D01*
X125357253Y-120420401D01*
X125371868Y-120440107D01*
X125384480Y-120461150D01*
X125394970Y-120483329D01*
X125403235Y-120506428D01*
X125409196Y-120530227D01*
X125412796Y-120554495D01*
X125414000Y-120578999D01*
X125414000Y-121229001D01*
X125412796Y-121253505D01*
X125409196Y-121277773D01*
X125403235Y-121301572D01*
X125394970Y-121324671D01*
X125384480Y-121346850D01*
X125371868Y-121367893D01*
X125357253Y-121387599D01*
X125340777Y-121405777D01*
X125322599Y-121422253D01*
X125302893Y-121436868D01*
X125281850Y-121449480D01*
X125259671Y-121459970D01*
X125236572Y-121468235D01*
X125212773Y-121474196D01*
X125188505Y-121477796D01*
X125164001Y-121479000D01*
X124263999Y-121479000D01*
X124239495Y-121477796D01*
X124215227Y-121474196D01*
X124191428Y-121468235D01*
X124168329Y-121459970D01*
X124146150Y-121449480D01*
X124125107Y-121436868D01*
X124105401Y-121422253D01*
X124087223Y-121405777D01*
X124070747Y-121387599D01*
X124056132Y-121367893D01*
X124043520Y-121346850D01*
X124033030Y-121324671D01*
X124024765Y-121301572D01*
X124018804Y-121277773D01*
X124015204Y-121253505D01*
X124014000Y-121229001D01*
X124014000Y-120578999D01*
X124015204Y-120554495D01*
X124018804Y-120530227D01*
X124024765Y-120506428D01*
X124033030Y-120483329D01*
X124043520Y-120461150D01*
X124056132Y-120440107D01*
X124070747Y-120420401D01*
X124087223Y-120402223D01*
X124105401Y-120385747D01*
X124125107Y-120371132D01*
X124146150Y-120358520D01*
X124168329Y-120348030D01*
X124191428Y-120339765D01*
X124215227Y-120333804D01*
X124239495Y-120330204D01*
X124263999Y-120329000D01*
X125164001Y-120329000D01*
X125188505Y-120330204D01*
G37*
G36*
X119854505Y-118280204D02*
G01*
X119878773Y-118283804D01*
X119902572Y-118289765D01*
X119925671Y-118298030D01*
X119947850Y-118308520D01*
X119968893Y-118321132D01*
X119988599Y-118335747D01*
X120006777Y-118352223D01*
X120023253Y-118370401D01*
X120037868Y-118390107D01*
X120050480Y-118411150D01*
X120060970Y-118433329D01*
X120069235Y-118456428D01*
X120075196Y-118480227D01*
X120078796Y-118504495D01*
X120080000Y-118528999D01*
X120080000Y-119179001D01*
X120078796Y-119203505D01*
X120075196Y-119227773D01*
X120069235Y-119251572D01*
X120060970Y-119274671D01*
X120050480Y-119296850D01*
X120037868Y-119317893D01*
X120023253Y-119337599D01*
X120006777Y-119355777D01*
X119988599Y-119372253D01*
X119968893Y-119386868D01*
X119947850Y-119399480D01*
X119925671Y-119409970D01*
X119902572Y-119418235D01*
X119878773Y-119424196D01*
X119854505Y-119427796D01*
X119830001Y-119429000D01*
X118929999Y-119429000D01*
X118905495Y-119427796D01*
X118881227Y-119424196D01*
X118857428Y-119418235D01*
X118834329Y-119409970D01*
X118812150Y-119399480D01*
X118791107Y-119386868D01*
X118771401Y-119372253D01*
X118753223Y-119355777D01*
X118736747Y-119337599D01*
X118722132Y-119317893D01*
X118709520Y-119296850D01*
X118699030Y-119274671D01*
X118690765Y-119251572D01*
X118684804Y-119227773D01*
X118681204Y-119203505D01*
X118680000Y-119179001D01*
X118680000Y-118528999D01*
X118681204Y-118504495D01*
X118684804Y-118480227D01*
X118690765Y-118456428D01*
X118699030Y-118433329D01*
X118709520Y-118411150D01*
X118722132Y-118390107D01*
X118736747Y-118370401D01*
X118753223Y-118352223D01*
X118771401Y-118335747D01*
X118791107Y-118321132D01*
X118812150Y-118308520D01*
X118834329Y-118298030D01*
X118857428Y-118289765D01*
X118881227Y-118283804D01*
X118905495Y-118280204D01*
X118929999Y-118279000D01*
X119830001Y-118279000D01*
X119854505Y-118280204D01*
G37*
G36*
X119854505Y-120330204D02*
G01*
X119878773Y-120333804D01*
X119902572Y-120339765D01*
X119925671Y-120348030D01*
X119947850Y-120358520D01*
X119968893Y-120371132D01*
X119988599Y-120385747D01*
X120006777Y-120402223D01*
X120023253Y-120420401D01*
X120037868Y-120440107D01*
X120050480Y-120461150D01*
X120060970Y-120483329D01*
X120069235Y-120506428D01*
X120075196Y-120530227D01*
X120078796Y-120554495D01*
X120080000Y-120578999D01*
X120080000Y-121229001D01*
X120078796Y-121253505D01*
X120075196Y-121277773D01*
X120069235Y-121301572D01*
X120060970Y-121324671D01*
X120050480Y-121346850D01*
X120037868Y-121367893D01*
X120023253Y-121387599D01*
X120006777Y-121405777D01*
X119988599Y-121422253D01*
X119968893Y-121436868D01*
X119947850Y-121449480D01*
X119925671Y-121459970D01*
X119902572Y-121468235D01*
X119878773Y-121474196D01*
X119854505Y-121477796D01*
X119830001Y-121479000D01*
X118929999Y-121479000D01*
X118905495Y-121477796D01*
X118881227Y-121474196D01*
X118857428Y-121468235D01*
X118834329Y-121459970D01*
X118812150Y-121449480D01*
X118791107Y-121436868D01*
X118771401Y-121422253D01*
X118753223Y-121405777D01*
X118736747Y-121387599D01*
X118722132Y-121367893D01*
X118709520Y-121346850D01*
X118699030Y-121324671D01*
X118690765Y-121301572D01*
X118684804Y-121277773D01*
X118681204Y-121253505D01*
X118680000Y-121229001D01*
X118680000Y-120578999D01*
X118681204Y-120554495D01*
X118684804Y-120530227D01*
X118690765Y-120506428D01*
X118699030Y-120483329D01*
X118709520Y-120461150D01*
X118722132Y-120440107D01*
X118736747Y-120420401D01*
X118753223Y-120402223D01*
X118771401Y-120385747D01*
X118791107Y-120371132D01*
X118812150Y-120358520D01*
X118834329Y-120348030D01*
X118857428Y-120339765D01*
X118881227Y-120333804D01*
X118905495Y-120330204D01*
X118929999Y-120329000D01*
X119830001Y-120329000D01*
X119854505Y-120330204D01*
G37*
G36*
X132665505Y-81343204D02*
G01*
X132689773Y-81346804D01*
X132713572Y-81352765D01*
X132736671Y-81361030D01*
X132758850Y-81371520D01*
X132779893Y-81384132D01*
X132799599Y-81398747D01*
X132817777Y-81415223D01*
X132834253Y-81433401D01*
X132848868Y-81453107D01*
X132861480Y-81474150D01*
X132871970Y-81496329D01*
X132880235Y-81519428D01*
X132886196Y-81543227D01*
X132889796Y-81567495D01*
X132891000Y-81591999D01*
X132891000Y-82492001D01*
X132889796Y-82516505D01*
X132886196Y-82540773D01*
X132880235Y-82564572D01*
X132871970Y-82587671D01*
X132861480Y-82609850D01*
X132848868Y-82630893D01*
X132834253Y-82650599D01*
X132817777Y-82668777D01*
X132799599Y-82685253D01*
X132779893Y-82699868D01*
X132758850Y-82712480D01*
X132736671Y-82722970D01*
X132713572Y-82731235D01*
X132689773Y-82737196D01*
X132665505Y-82740796D01*
X132641001Y-82742000D01*
X131990999Y-82742000D01*
X131966495Y-82740796D01*
X131942227Y-82737196D01*
X131918428Y-82731235D01*
X131895329Y-82722970D01*
X131873150Y-82712480D01*
X131852107Y-82699868D01*
X131832401Y-82685253D01*
X131814223Y-82668777D01*
X131797747Y-82650599D01*
X131783132Y-82630893D01*
X131770520Y-82609850D01*
X131760030Y-82587671D01*
X131751765Y-82564572D01*
X131745804Y-82540773D01*
X131742204Y-82516505D01*
X131741000Y-82492001D01*
X131741000Y-81591999D01*
X131742204Y-81567495D01*
X131745804Y-81543227D01*
X131751765Y-81519428D01*
X131760030Y-81496329D01*
X131770520Y-81474150D01*
X131783132Y-81453107D01*
X131797747Y-81433401D01*
X131814223Y-81415223D01*
X131832401Y-81398747D01*
X131852107Y-81384132D01*
X131873150Y-81371520D01*
X131895329Y-81361030D01*
X131918428Y-81352765D01*
X131942227Y-81346804D01*
X131966495Y-81343204D01*
X131990999Y-81342000D01*
X132641001Y-81342000D01*
X132665505Y-81343204D01*
G37*
G36*
X134715505Y-81343204D02*
G01*
X134739773Y-81346804D01*
X134763572Y-81352765D01*
X134786671Y-81361030D01*
X134808850Y-81371520D01*
X134829893Y-81384132D01*
X134849599Y-81398747D01*
X134867777Y-81415223D01*
X134884253Y-81433401D01*
X134898868Y-81453107D01*
X134911480Y-81474150D01*
X134921970Y-81496329D01*
X134930235Y-81519428D01*
X134936196Y-81543227D01*
X134939796Y-81567495D01*
X134941000Y-81591999D01*
X134941000Y-82492001D01*
X134939796Y-82516505D01*
X134936196Y-82540773D01*
X134930235Y-82564572D01*
X134921970Y-82587671D01*
X134911480Y-82609850D01*
X134898868Y-82630893D01*
X134884253Y-82650599D01*
X134867777Y-82668777D01*
X134849599Y-82685253D01*
X134829893Y-82699868D01*
X134808850Y-82712480D01*
X134786671Y-82722970D01*
X134763572Y-82731235D01*
X134739773Y-82737196D01*
X134715505Y-82740796D01*
X134691001Y-82742000D01*
X134040999Y-82742000D01*
X134016495Y-82740796D01*
X133992227Y-82737196D01*
X133968428Y-82731235D01*
X133945329Y-82722970D01*
X133923150Y-82712480D01*
X133902107Y-82699868D01*
X133882401Y-82685253D01*
X133864223Y-82668777D01*
X133847747Y-82650599D01*
X133833132Y-82630893D01*
X133820520Y-82609850D01*
X133810030Y-82587671D01*
X133801765Y-82564572D01*
X133795804Y-82540773D01*
X133792204Y-82516505D01*
X133791000Y-82492001D01*
X133791000Y-81591999D01*
X133792204Y-81567495D01*
X133795804Y-81543227D01*
X133801765Y-81519428D01*
X133810030Y-81496329D01*
X133820520Y-81474150D01*
X133833132Y-81453107D01*
X133847747Y-81433401D01*
X133864223Y-81415223D01*
X133882401Y-81398747D01*
X133902107Y-81384132D01*
X133923150Y-81371520D01*
X133945329Y-81361030D01*
X133968428Y-81352765D01*
X133992227Y-81346804D01*
X134016495Y-81343204D01*
X134040999Y-81342000D01*
X134691001Y-81342000D01*
X134715505Y-81343204D01*
G37*
G36*
X122541505Y-81343204D02*
G01*
X122565773Y-81346804D01*
X122589572Y-81352765D01*
X122612671Y-81361030D01*
X122634850Y-81371520D01*
X122655893Y-81384132D01*
X122675599Y-81398747D01*
X122693777Y-81415223D01*
X122710253Y-81433401D01*
X122724868Y-81453107D01*
X122737480Y-81474150D01*
X122747970Y-81496329D01*
X122756235Y-81519428D01*
X122762196Y-81543227D01*
X122765796Y-81567495D01*
X122767000Y-81591999D01*
X122767000Y-82492001D01*
X122765796Y-82516505D01*
X122762196Y-82540773D01*
X122756235Y-82564572D01*
X122747970Y-82587671D01*
X122737480Y-82609850D01*
X122724868Y-82630893D01*
X122710253Y-82650599D01*
X122693777Y-82668777D01*
X122675599Y-82685253D01*
X122655893Y-82699868D01*
X122634850Y-82712480D01*
X122612671Y-82722970D01*
X122589572Y-82731235D01*
X122565773Y-82737196D01*
X122541505Y-82740796D01*
X122517001Y-82742000D01*
X121866999Y-82742000D01*
X121842495Y-82740796D01*
X121818227Y-82737196D01*
X121794428Y-82731235D01*
X121771329Y-82722970D01*
X121749150Y-82712480D01*
X121728107Y-82699868D01*
X121708401Y-82685253D01*
X121690223Y-82668777D01*
X121673747Y-82650599D01*
X121659132Y-82630893D01*
X121646520Y-82609850D01*
X121636030Y-82587671D01*
X121627765Y-82564572D01*
X121621804Y-82540773D01*
X121618204Y-82516505D01*
X121617000Y-82492001D01*
X121617000Y-81591999D01*
X121618204Y-81567495D01*
X121621804Y-81543227D01*
X121627765Y-81519428D01*
X121636030Y-81496329D01*
X121646520Y-81474150D01*
X121659132Y-81453107D01*
X121673747Y-81433401D01*
X121690223Y-81415223D01*
X121708401Y-81398747D01*
X121728107Y-81384132D01*
X121749150Y-81371520D01*
X121771329Y-81361030D01*
X121794428Y-81352765D01*
X121818227Y-81346804D01*
X121842495Y-81343204D01*
X121866999Y-81342000D01*
X122517001Y-81342000D01*
X122541505Y-81343204D01*
G37*
G36*
X120491505Y-81343204D02*
G01*
X120515773Y-81346804D01*
X120539572Y-81352765D01*
X120562671Y-81361030D01*
X120584850Y-81371520D01*
X120605893Y-81384132D01*
X120625599Y-81398747D01*
X120643777Y-81415223D01*
X120660253Y-81433401D01*
X120674868Y-81453107D01*
X120687480Y-81474150D01*
X120697970Y-81496329D01*
X120706235Y-81519428D01*
X120712196Y-81543227D01*
X120715796Y-81567495D01*
X120717000Y-81591999D01*
X120717000Y-82492001D01*
X120715796Y-82516505D01*
X120712196Y-82540773D01*
X120706235Y-82564572D01*
X120697970Y-82587671D01*
X120687480Y-82609850D01*
X120674868Y-82630893D01*
X120660253Y-82650599D01*
X120643777Y-82668777D01*
X120625599Y-82685253D01*
X120605893Y-82699868D01*
X120584850Y-82712480D01*
X120562671Y-82722970D01*
X120539572Y-82731235D01*
X120515773Y-82737196D01*
X120491505Y-82740796D01*
X120467001Y-82742000D01*
X119816999Y-82742000D01*
X119792495Y-82740796D01*
X119768227Y-82737196D01*
X119744428Y-82731235D01*
X119721329Y-82722970D01*
X119699150Y-82712480D01*
X119678107Y-82699868D01*
X119658401Y-82685253D01*
X119640223Y-82668777D01*
X119623747Y-82650599D01*
X119609132Y-82630893D01*
X119596520Y-82609850D01*
X119586030Y-82587671D01*
X119577765Y-82564572D01*
X119571804Y-82540773D01*
X119568204Y-82516505D01*
X119567000Y-82492001D01*
X119567000Y-81591999D01*
X119568204Y-81567495D01*
X119571804Y-81543227D01*
X119577765Y-81519428D01*
X119586030Y-81496329D01*
X119596520Y-81474150D01*
X119609132Y-81453107D01*
X119623747Y-81433401D01*
X119640223Y-81415223D01*
X119658401Y-81398747D01*
X119678107Y-81384132D01*
X119699150Y-81371520D01*
X119721329Y-81361030D01*
X119744428Y-81352765D01*
X119768227Y-81346804D01*
X119792495Y-81343204D01*
X119816999Y-81342000D01*
X120467001Y-81342000D01*
X120491505Y-81343204D01*
G37*
G36*
X122541505Y-64579204D02*
G01*
X122565773Y-64582804D01*
X122589572Y-64588765D01*
X122612671Y-64597030D01*
X122634850Y-64607520D01*
X122655893Y-64620132D01*
X122675599Y-64634747D01*
X122693777Y-64651223D01*
X122710253Y-64669401D01*
X122724868Y-64689107D01*
X122737480Y-64710150D01*
X122747970Y-64732329D01*
X122756235Y-64755428D01*
X122762196Y-64779227D01*
X122765796Y-64803495D01*
X122767000Y-64827999D01*
X122767000Y-65728001D01*
X122765796Y-65752505D01*
X122762196Y-65776773D01*
X122756235Y-65800572D01*
X122747970Y-65823671D01*
X122737480Y-65845850D01*
X122724868Y-65866893D01*
X122710253Y-65886599D01*
X122693777Y-65904777D01*
X122675599Y-65921253D01*
X122655893Y-65935868D01*
X122634850Y-65948480D01*
X122612671Y-65958970D01*
X122589572Y-65967235D01*
X122565773Y-65973196D01*
X122541505Y-65976796D01*
X122517001Y-65978000D01*
X121866999Y-65978000D01*
X121842495Y-65976796D01*
X121818227Y-65973196D01*
X121794428Y-65967235D01*
X121771329Y-65958970D01*
X121749150Y-65948480D01*
X121728107Y-65935868D01*
X121708401Y-65921253D01*
X121690223Y-65904777D01*
X121673747Y-65886599D01*
X121659132Y-65866893D01*
X121646520Y-65845850D01*
X121636030Y-65823671D01*
X121627765Y-65800572D01*
X121621804Y-65776773D01*
X121618204Y-65752505D01*
X121617000Y-65728001D01*
X121617000Y-64827999D01*
X121618204Y-64803495D01*
X121621804Y-64779227D01*
X121627765Y-64755428D01*
X121636030Y-64732329D01*
X121646520Y-64710150D01*
X121659132Y-64689107D01*
X121673747Y-64669401D01*
X121690223Y-64651223D01*
X121708401Y-64634747D01*
X121728107Y-64620132D01*
X121749150Y-64607520D01*
X121771329Y-64597030D01*
X121794428Y-64588765D01*
X121818227Y-64582804D01*
X121842495Y-64579204D01*
X121866999Y-64578000D01*
X122517001Y-64578000D01*
X122541505Y-64579204D01*
G37*
G36*
X120491505Y-64579204D02*
G01*
X120515773Y-64582804D01*
X120539572Y-64588765D01*
X120562671Y-64597030D01*
X120584850Y-64607520D01*
X120605893Y-64620132D01*
X120625599Y-64634747D01*
X120643777Y-64651223D01*
X120660253Y-64669401D01*
X120674868Y-64689107D01*
X120687480Y-64710150D01*
X120697970Y-64732329D01*
X120706235Y-64755428D01*
X120712196Y-64779227D01*
X120715796Y-64803495D01*
X120717000Y-64827999D01*
X120717000Y-65728001D01*
X120715796Y-65752505D01*
X120712196Y-65776773D01*
X120706235Y-65800572D01*
X120697970Y-65823671D01*
X120687480Y-65845850D01*
X120674868Y-65866893D01*
X120660253Y-65886599D01*
X120643777Y-65904777D01*
X120625599Y-65921253D01*
X120605893Y-65935868D01*
X120584850Y-65948480D01*
X120562671Y-65958970D01*
X120539572Y-65967235D01*
X120515773Y-65973196D01*
X120491505Y-65976796D01*
X120467001Y-65978000D01*
X119816999Y-65978000D01*
X119792495Y-65976796D01*
X119768227Y-65973196D01*
X119744428Y-65967235D01*
X119721329Y-65958970D01*
X119699150Y-65948480D01*
X119678107Y-65935868D01*
X119658401Y-65921253D01*
X119640223Y-65904777D01*
X119623747Y-65886599D01*
X119609132Y-65866893D01*
X119596520Y-65845850D01*
X119586030Y-65823671D01*
X119577765Y-65800572D01*
X119571804Y-65776773D01*
X119568204Y-65752505D01*
X119567000Y-65728001D01*
X119567000Y-64827999D01*
X119568204Y-64803495D01*
X119571804Y-64779227D01*
X119577765Y-64755428D01*
X119586030Y-64732329D01*
X119596520Y-64710150D01*
X119609132Y-64689107D01*
X119623747Y-64669401D01*
X119640223Y-64651223D01*
X119658401Y-64634747D01*
X119678107Y-64620132D01*
X119699150Y-64607520D01*
X119721329Y-64597030D01*
X119744428Y-64588765D01*
X119768227Y-64582804D01*
X119792495Y-64579204D01*
X119816999Y-64578000D01*
X120467001Y-64578000D01*
X120491505Y-64579204D01*
G37*
M02*
