G04 #@! TF.GenerationSoftware,KiCad,Pcbnew,(5.1.5-0-10_14)*
G04 #@! TF.CreationDate,2020-09-26T21:14:20+02:00*
G04 #@! TF.ProjectId,es_t4,65735f74-342e-46b6-9963-61645f706362,rev?*
G04 #@! TF.SameCoordinates,Original*
G04 #@! TF.FileFunction,Legend,Bot*
G04 #@! TF.FilePolarity,Positive*
%FSLAX46Y46*%
G04 Gerber Fmt 4.6, Leading zero omitted, Abs format (unit mm)*
G04 Created by KiCad (PCBNEW (5.1.5-0-10_14)) date 2020-09-26 21:14:20*
%MOMM*%
%LPD*%
G04 APERTURE LIST*
%ADD10C,0.150000*%
%ADD11C,0.120000*%
G04 APERTURE END LIST*
D10*
X145557380Y-74382380D02*
X144985952Y-74382380D01*
X145271666Y-75382380D02*
X145271666Y-74382380D01*
X144271666Y-75334761D02*
X144366904Y-75382380D01*
X144557380Y-75382380D01*
X144652619Y-75334761D01*
X144700238Y-75239523D01*
X144700238Y-74858571D01*
X144652619Y-74763333D01*
X144557380Y-74715714D01*
X144366904Y-74715714D01*
X144271666Y-74763333D01*
X144224047Y-74858571D01*
X144224047Y-74953809D01*
X144700238Y-75049047D01*
X143414523Y-75334761D02*
X143509761Y-75382380D01*
X143700238Y-75382380D01*
X143795476Y-75334761D01*
X143843095Y-75239523D01*
X143843095Y-74858571D01*
X143795476Y-74763333D01*
X143700238Y-74715714D01*
X143509761Y-74715714D01*
X143414523Y-74763333D01*
X143366904Y-74858571D01*
X143366904Y-74953809D01*
X143843095Y-75049047D01*
X142938333Y-74715714D02*
X142938333Y-75382380D01*
X142938333Y-74810952D02*
X142890714Y-74763333D01*
X142795476Y-74715714D01*
X142652619Y-74715714D01*
X142557380Y-74763333D01*
X142509761Y-74858571D01*
X142509761Y-75382380D01*
X142081190Y-75334761D02*
X141985952Y-75382380D01*
X141795476Y-75382380D01*
X141700238Y-75334761D01*
X141652619Y-75239523D01*
X141652619Y-75191904D01*
X141700238Y-75096666D01*
X141795476Y-75049047D01*
X141938333Y-75049047D01*
X142033571Y-75001428D01*
X142081190Y-74906190D01*
X142081190Y-74858571D01*
X142033571Y-74763333D01*
X141938333Y-74715714D01*
X141795476Y-74715714D01*
X141700238Y-74763333D01*
X141319285Y-74715714D02*
X141081190Y-75382380D01*
X140843095Y-74715714D02*
X141081190Y-75382380D01*
X141176428Y-75620476D01*
X141224047Y-75668095D01*
X141319285Y-75715714D01*
X139795476Y-74382380D02*
X139176428Y-74382380D01*
X139509761Y-74763333D01*
X139366904Y-74763333D01*
X139271666Y-74810952D01*
X139224047Y-74858571D01*
X139176428Y-74953809D01*
X139176428Y-75191904D01*
X139224047Y-75287142D01*
X139271666Y-75334761D01*
X139366904Y-75382380D01*
X139652619Y-75382380D01*
X139747857Y-75334761D01*
X139795476Y-75287142D01*
X138747857Y-75287142D02*
X138700238Y-75334761D01*
X138747857Y-75382380D01*
X138795476Y-75334761D01*
X138747857Y-75287142D01*
X138747857Y-75382380D01*
X138319285Y-74477619D02*
X138271666Y-74430000D01*
X138176428Y-74382380D01*
X137938333Y-74382380D01*
X137843095Y-74430000D01*
X137795476Y-74477619D01*
X137747857Y-74572857D01*
X137747857Y-74668095D01*
X137795476Y-74810952D01*
X138366904Y-75382380D01*
X137747857Y-75382380D01*
D11*
X145415000Y-69850000D02*
X138430000Y-69850000D01*
X145415000Y-73660000D02*
X145415000Y-69850000D01*
X138430000Y-73660000D02*
X145415000Y-73660000D01*
X138430000Y-69850000D02*
X138430000Y-73660000D01*
X148590000Y-105410000D02*
X148590000Y-69850000D01*
X151130000Y-105410000D02*
X148590000Y-105410000D01*
X151130000Y-69850000D02*
X151130000Y-105410000D01*
X148590000Y-69850000D02*
X151130000Y-69850000D01*
X133350000Y-105410000D02*
X133350000Y-69850000D01*
X135890000Y-105410000D02*
X133350000Y-105410000D01*
X135890000Y-69850000D02*
X135890000Y-105410000D01*
X133350000Y-69850000D02*
X135890000Y-69850000D01*
M02*
