M48
INCH
T1C0.0157
T2C0.0394
%
G90
G05
T1
X5.55Y-2.8
X5.55Y-3.9
X5.55Y-4.1
T2
X5.8Y-2.8
X5.8Y-2.9
X5.8Y-3.0
X5.8Y-3.1
X5.8Y-3.2
X5.8Y-3.3
X5.8Y-3.4
X5.8Y-3.5
X5.8Y-3.6
X5.8Y-3.7
X5.8Y-3.8
X5.8Y-3.9
X5.8Y-4.0
X5.8Y-4.1
X5.9Y-2.8
X5.9Y-2.9
X5.9Y-3.0
X5.9Y-3.1
X5.9Y-3.2
X5.9Y-3.3
X5.9Y-3.4
X5.9Y-3.5
X5.9Y-3.6
X5.9Y-3.7
X5.9Y-3.8
X5.9Y-3.9
X5.9Y-4.0
X5.9Y-4.1
X5.2Y-2.8
X5.2Y-2.9
X5.2Y-3.0
X5.2Y-3.1
X5.2Y-3.2
X5.2Y-3.3
X5.2Y-3.4
X5.2Y-3.5
X5.2Y-3.6
X5.2Y-3.7
X5.2Y-3.8
X5.2Y-3.9
X5.2Y-4.0
X5.2Y-4.1
X5.3Y-2.8
X5.3Y-2.9
X5.3Y-3.0
X5.3Y-3.1
X5.3Y-3.2
X5.3Y-3.3
X5.3Y-3.4
X5.3Y-3.5
X5.3Y-3.6
X5.3Y-3.7
X5.3Y-3.8
X5.3Y-3.9
X5.3Y-4.0
X5.3Y-4.1
T0
M30
