G04 #@! TF.GenerationSoftware,KiCad,Pcbnew,(5.1.5-0-10_14)*
G04 #@! TF.CreationDate,2020-10-22T20:11:36+02:00*
G04 #@! TF.ProjectId,es_t4,65735f74-342e-46b6-9963-61645f706362,rev?*
G04 #@! TF.SameCoordinates,Original*
G04 #@! TF.FileFunction,Legend,Top*
G04 #@! TF.FilePolarity,Positive*
%FSLAX46Y46*%
G04 Gerber Fmt 4.6, Leading zero omitted, Abs format (unit mm)*
G04 Created by KiCad (PCBNEW (5.1.5-0-10_14)) date 2020-10-22 20:11:36*
%MOMM*%
%LPD*%
G04 APERTURE LIST*
%ADD10C,0.200000*%
%ADD11C,0.190500*%
%ADD12C,0.300000*%
%ADD13C,0.150000*%
%ADD14C,0.120000*%
G04 APERTURE END LIST*
D10*
X137708095Y-90947142D02*
X137660476Y-90994761D01*
X137517619Y-91042380D01*
X137422380Y-91042380D01*
X137279523Y-90994761D01*
X137184285Y-90899523D01*
X137136666Y-90804285D01*
X137089047Y-90613809D01*
X137089047Y-90470952D01*
X137136666Y-90280476D01*
X137184285Y-90185238D01*
X137279523Y-90090000D01*
X137422380Y-90042380D01*
X137517619Y-90042380D01*
X137660476Y-90090000D01*
X137708095Y-90137619D01*
X138708095Y-90947142D02*
X138660476Y-90994761D01*
X138517619Y-91042380D01*
X138422380Y-91042380D01*
X138279523Y-90994761D01*
X138184285Y-90899523D01*
X138136666Y-90804285D01*
X138089047Y-90613809D01*
X138089047Y-90470952D01*
X138136666Y-90280476D01*
X138184285Y-90185238D01*
X138279523Y-90090000D01*
X138422380Y-90042380D01*
X138517619Y-90042380D01*
X138660476Y-90090000D01*
X138708095Y-90137619D01*
X139136666Y-90661428D02*
X139898571Y-90661428D01*
X140708095Y-90518571D02*
X140850952Y-90566190D01*
X140898571Y-90613809D01*
X140946190Y-90709047D01*
X140946190Y-90851904D01*
X140898571Y-90947142D01*
X140850952Y-90994761D01*
X140755714Y-91042380D01*
X140374761Y-91042380D01*
X140374761Y-90042380D01*
X140708095Y-90042380D01*
X140803333Y-90090000D01*
X140850952Y-90137619D01*
X140898571Y-90232857D01*
X140898571Y-90328095D01*
X140850952Y-90423333D01*
X140803333Y-90470952D01*
X140708095Y-90518571D01*
X140374761Y-90518571D01*
X141565238Y-90566190D02*
X141565238Y-91042380D01*
X141231904Y-90042380D02*
X141565238Y-90566190D01*
X141898571Y-90042380D01*
X142231904Y-90661428D02*
X142993809Y-90661428D01*
X143422380Y-90994761D02*
X143565238Y-91042380D01*
X143803333Y-91042380D01*
X143898571Y-90994761D01*
X143946190Y-90947142D01*
X143993809Y-90851904D01*
X143993809Y-90756666D01*
X143946190Y-90661428D01*
X143898571Y-90613809D01*
X143803333Y-90566190D01*
X143612857Y-90518571D01*
X143517619Y-90470952D01*
X143470000Y-90423333D01*
X143422380Y-90328095D01*
X143422380Y-90232857D01*
X143470000Y-90137619D01*
X143517619Y-90090000D01*
X143612857Y-90042380D01*
X143850952Y-90042380D01*
X143993809Y-90090000D01*
X144374761Y-90756666D02*
X144850952Y-90756666D01*
X144279523Y-91042380D02*
X144612857Y-90042380D01*
X144946190Y-91042380D01*
X140446190Y-92075714D02*
X140446190Y-92742380D01*
X140208095Y-91694761D02*
X139970000Y-92409047D01*
X140589047Y-92409047D01*
X140970000Y-92647142D02*
X141017619Y-92694761D01*
X140970000Y-92742380D01*
X140922380Y-92694761D01*
X140970000Y-92647142D01*
X140970000Y-92742380D01*
X141636666Y-91742380D02*
X141731904Y-91742380D01*
X141827142Y-91790000D01*
X141874761Y-91837619D01*
X141922380Y-91932857D01*
X141970000Y-92123333D01*
X141970000Y-92361428D01*
X141922380Y-92551904D01*
X141874761Y-92647142D01*
X141827142Y-92694761D01*
X141731904Y-92742380D01*
X141636666Y-92742380D01*
X141541428Y-92694761D01*
X141493809Y-92647142D01*
X141446190Y-92551904D01*
X141398571Y-92361428D01*
X141398571Y-92123333D01*
X141446190Y-91932857D01*
X141493809Y-91837619D01*
X141541428Y-91790000D01*
X141636666Y-91742380D01*
D11*
X138470000Y-99921785D02*
X138541428Y-99885500D01*
X138684285Y-99849214D01*
X139041428Y-99849214D01*
X139184285Y-99885500D01*
X139255714Y-99921785D01*
X139327142Y-99994357D01*
X139327142Y-100066928D01*
X139255714Y-100175785D01*
X138398571Y-100611214D01*
X139327142Y-100611214D01*
X140184285Y-100611214D02*
X140041428Y-100574928D01*
X139970000Y-100538642D01*
X139898571Y-100466071D01*
X139898571Y-100248357D01*
X139970000Y-100175785D01*
X140041428Y-100139500D01*
X140184285Y-100103214D01*
X140398571Y-100103214D01*
X140541428Y-100139500D01*
X140612857Y-100175785D01*
X140684285Y-100248357D01*
X140684285Y-100466071D01*
X140612857Y-100538642D01*
X140541428Y-100574928D01*
X140398571Y-100611214D01*
X140184285Y-100611214D01*
X141255714Y-99921785D02*
X141327142Y-99885500D01*
X141470000Y-99849214D01*
X141827142Y-99849214D01*
X141970000Y-99885500D01*
X142041428Y-99921785D01*
X142112857Y-99994357D01*
X142112857Y-100066928D01*
X142041428Y-100175785D01*
X141184285Y-100611214D01*
X142112857Y-100611214D01*
X142970000Y-100611214D02*
X142827142Y-100574928D01*
X142755714Y-100538642D01*
X142684285Y-100466071D01*
X142684285Y-100248357D01*
X142755714Y-100175785D01*
X142827142Y-100139500D01*
X142970000Y-100103214D01*
X143184285Y-100103214D01*
X143327142Y-100139500D01*
X143398571Y-100175785D01*
X143470000Y-100248357D01*
X143470000Y-100466071D01*
X143398571Y-100538642D01*
X143327142Y-100574928D01*
X143184285Y-100611214D01*
X142970000Y-100611214D01*
X137898571Y-101944714D02*
X137755714Y-101908428D01*
X137684285Y-101835857D01*
X137684285Y-101182714D01*
X139112857Y-101944714D02*
X139112857Y-101545571D01*
X139041428Y-101473000D01*
X138898571Y-101436714D01*
X138612857Y-101436714D01*
X138470000Y-101473000D01*
X139112857Y-101908428D02*
X138970000Y-101944714D01*
X138612857Y-101944714D01*
X138470000Y-101908428D01*
X138398571Y-101835857D01*
X138398571Y-101763285D01*
X138470000Y-101690714D01*
X138612857Y-101654428D01*
X138970000Y-101654428D01*
X139112857Y-101618142D01*
X140041428Y-101944714D02*
X139898571Y-101908428D01*
X139827142Y-101835857D01*
X139827142Y-101182714D01*
X140827142Y-101944714D02*
X140684285Y-101908428D01*
X140612857Y-101835857D01*
X140612857Y-101182714D01*
X142041428Y-101944714D02*
X142041428Y-101545571D01*
X141970000Y-101473000D01*
X141827142Y-101436714D01*
X141541428Y-101436714D01*
X141398571Y-101473000D01*
X142041428Y-101908428D02*
X141898571Y-101944714D01*
X141541428Y-101944714D01*
X141398571Y-101908428D01*
X141327142Y-101835857D01*
X141327142Y-101763285D01*
X141398571Y-101690714D01*
X141541428Y-101654428D01*
X141898571Y-101654428D01*
X142041428Y-101618142D01*
X142541428Y-101436714D02*
X143112857Y-101436714D01*
X142755714Y-101944714D02*
X142755714Y-101291571D01*
X142827142Y-101219000D01*
X142970000Y-101182714D01*
X143112857Y-101182714D01*
X144255714Y-101944714D02*
X144255714Y-101545571D01*
X144184285Y-101473000D01*
X144041428Y-101436714D01*
X143755714Y-101436714D01*
X143612857Y-101473000D01*
X144255714Y-101908428D02*
X144112857Y-101944714D01*
X143755714Y-101944714D01*
X143612857Y-101908428D01*
X143541428Y-101835857D01*
X143541428Y-101763285D01*
X143612857Y-101690714D01*
X143755714Y-101654428D01*
X144112857Y-101654428D01*
X144255714Y-101618142D01*
X137862857Y-103278214D02*
X137362857Y-102915357D01*
X137005714Y-103278214D02*
X137005714Y-102516214D01*
X137577142Y-102516214D01*
X137720000Y-102552500D01*
X137791428Y-102588785D01*
X137862857Y-102661357D01*
X137862857Y-102770214D01*
X137791428Y-102842785D01*
X137720000Y-102879071D01*
X137577142Y-102915357D01*
X137005714Y-102915357D01*
X139077142Y-103241928D02*
X138934285Y-103278214D01*
X138648571Y-103278214D01*
X138505714Y-103241928D01*
X138434285Y-103169357D01*
X138434285Y-102879071D01*
X138505714Y-102806500D01*
X138648571Y-102770214D01*
X138934285Y-102770214D01*
X139077142Y-102806500D01*
X139148571Y-102879071D01*
X139148571Y-102951642D01*
X138434285Y-103024214D01*
X139648571Y-102770214D02*
X140005714Y-103278214D01*
X140362857Y-102770214D01*
X142862857Y-103278214D02*
X142005714Y-103278214D01*
X142434285Y-103278214D02*
X142434285Y-102516214D01*
X142291428Y-102625071D01*
X142148571Y-102697642D01*
X142005714Y-102733928D01*
X143505714Y-103205642D02*
X143577142Y-103241928D01*
X143505714Y-103278214D01*
X143434285Y-103241928D01*
X143505714Y-103205642D01*
X143505714Y-103278214D01*
X145005714Y-103278214D02*
X144148571Y-103278214D01*
X144577142Y-103278214D02*
X144577142Y-102516214D01*
X144434285Y-102625071D01*
X144291428Y-102697642D01*
X144148571Y-102733928D01*
D12*
X138312857Y-88157142D02*
X138312857Y-87657142D01*
X139098571Y-87442857D02*
X139098571Y-88157142D01*
X137598571Y-88157142D01*
X137598571Y-87442857D01*
X138098571Y-86157142D02*
X139098571Y-86157142D01*
X138098571Y-86800000D02*
X138884285Y-86800000D01*
X139027142Y-86728571D01*
X139098571Y-86585714D01*
X139098571Y-86371428D01*
X139027142Y-86228571D01*
X138955714Y-86157142D01*
X139098571Y-85442857D02*
X138098571Y-85442857D01*
X138384285Y-85442857D02*
X138241428Y-85371428D01*
X138170000Y-85300000D01*
X138098571Y-85157142D01*
X138098571Y-85014285D01*
X139098571Y-84300000D02*
X139027142Y-84442857D01*
X138955714Y-84514285D01*
X138812857Y-84585714D01*
X138384285Y-84585714D01*
X138241428Y-84514285D01*
X138170000Y-84442857D01*
X138098571Y-84300000D01*
X138098571Y-84085714D01*
X138170000Y-83942857D01*
X138241428Y-83871428D01*
X138384285Y-83800000D01*
X138812857Y-83800000D01*
X138955714Y-83871428D01*
X139027142Y-83942857D01*
X139098571Y-84085714D01*
X139098571Y-84300000D01*
X139027142Y-83228571D02*
X139098571Y-83014285D01*
X139098571Y-82657142D01*
X139027142Y-82514285D01*
X138955714Y-82442857D01*
X138812857Y-82371428D01*
X138670000Y-82371428D01*
X138527142Y-82442857D01*
X138455714Y-82514285D01*
X138384285Y-82657142D01*
X138312857Y-82942857D01*
X138241428Y-83085714D01*
X138170000Y-83157142D01*
X138027142Y-83228571D01*
X137884285Y-83228571D01*
X137741428Y-83157142D01*
X137670000Y-83085714D01*
X137598571Y-82942857D01*
X137598571Y-82585714D01*
X137670000Y-82371428D01*
X139098571Y-81728571D02*
X137598571Y-81728571D01*
X139098571Y-81085714D02*
X138312857Y-81085714D01*
X138170000Y-81157142D01*
X138098571Y-81300000D01*
X138098571Y-81514285D01*
X138170000Y-81657142D01*
X138241428Y-81728571D01*
X139098571Y-80371428D02*
X138098571Y-80371428D01*
X137598571Y-80371428D02*
X137670000Y-80442857D01*
X137741428Y-80371428D01*
X137670000Y-80300000D01*
X137598571Y-80371428D01*
X137741428Y-80371428D01*
X139027142Y-79085714D02*
X139098571Y-79228571D01*
X139098571Y-79514285D01*
X139027142Y-79657142D01*
X138884285Y-79728571D01*
X138312857Y-79728571D01*
X138170000Y-79657142D01*
X138098571Y-79514285D01*
X138098571Y-79228571D01*
X138170000Y-79085714D01*
X138312857Y-79014285D01*
X138455714Y-79014285D01*
X138598571Y-79728571D01*
X139098571Y-78157142D02*
X139027142Y-78300000D01*
X138884285Y-78371428D01*
X137598571Y-78371428D01*
X139098571Y-76942857D02*
X137598571Y-76942857D01*
X139027142Y-76942857D02*
X139098571Y-77085714D01*
X139098571Y-77371428D01*
X139027142Y-77514285D01*
X138955714Y-77585714D01*
X138812857Y-77657142D01*
X138384285Y-77657142D01*
X138241428Y-77585714D01*
X138170000Y-77514285D01*
X138098571Y-77371428D01*
X138098571Y-77085714D01*
X138170000Y-76942857D01*
X140148571Y-87407142D02*
X140148571Y-86550000D01*
X141648571Y-86978571D02*
X140148571Y-86978571D01*
X141577142Y-85478571D02*
X141648571Y-85621428D01*
X141648571Y-85907142D01*
X141577142Y-86050000D01*
X141434285Y-86121428D01*
X140862857Y-86121428D01*
X140720000Y-86050000D01*
X140648571Y-85907142D01*
X140648571Y-85621428D01*
X140720000Y-85478571D01*
X140862857Y-85407142D01*
X141005714Y-85407142D01*
X141148571Y-86121428D01*
X141577142Y-84192857D02*
X141648571Y-84335714D01*
X141648571Y-84621428D01*
X141577142Y-84764285D01*
X141434285Y-84835714D01*
X140862857Y-84835714D01*
X140720000Y-84764285D01*
X140648571Y-84621428D01*
X140648571Y-84335714D01*
X140720000Y-84192857D01*
X140862857Y-84121428D01*
X141005714Y-84121428D01*
X141148571Y-84835714D01*
X140648571Y-83478571D02*
X141648571Y-83478571D01*
X140791428Y-83478571D02*
X140720000Y-83407142D01*
X140648571Y-83264285D01*
X140648571Y-83050000D01*
X140720000Y-82907142D01*
X140862857Y-82835714D01*
X141648571Y-82835714D01*
X141577142Y-82192857D02*
X141648571Y-82050000D01*
X141648571Y-81764285D01*
X141577142Y-81621428D01*
X141434285Y-81550000D01*
X141362857Y-81550000D01*
X141220000Y-81621428D01*
X141148571Y-81764285D01*
X141148571Y-81978571D01*
X141077142Y-82121428D01*
X140934285Y-82192857D01*
X140862857Y-82192857D01*
X140720000Y-82121428D01*
X140648571Y-81978571D01*
X140648571Y-81764285D01*
X140720000Y-81621428D01*
X140648571Y-81050000D02*
X141648571Y-80692857D01*
X140648571Y-80335714D02*
X141648571Y-80692857D01*
X142005714Y-80835714D01*
X142077142Y-80907142D01*
X142148571Y-81050000D01*
X140648571Y-77978571D02*
X141648571Y-77978571D01*
X140077142Y-78335714D02*
X141148571Y-78692857D01*
X141148571Y-77764285D01*
X143770000Y-86478571D02*
X143770000Y-85764285D01*
X144198571Y-86621428D02*
X142698571Y-86121428D01*
X144198571Y-85621428D01*
X144198571Y-84478571D02*
X142698571Y-84478571D01*
X144127142Y-84478571D02*
X144198571Y-84621428D01*
X144198571Y-84907142D01*
X144127142Y-85050000D01*
X144055714Y-85121428D01*
X143912857Y-85192857D01*
X143484285Y-85192857D01*
X143341428Y-85121428D01*
X143270000Y-85050000D01*
X143198571Y-84907142D01*
X143198571Y-84621428D01*
X143270000Y-84478571D01*
X144198571Y-83121428D02*
X143412857Y-83121428D01*
X143270000Y-83192857D01*
X143198571Y-83335714D01*
X143198571Y-83621428D01*
X143270000Y-83764285D01*
X144127142Y-83121428D02*
X144198571Y-83264285D01*
X144198571Y-83621428D01*
X144127142Y-83764285D01*
X143984285Y-83835714D01*
X143841428Y-83835714D01*
X143698571Y-83764285D01*
X143627142Y-83621428D01*
X143627142Y-83264285D01*
X143555714Y-83121428D01*
X143198571Y-82407142D02*
X144698571Y-82407142D01*
X143270000Y-82407142D02*
X143198571Y-82264285D01*
X143198571Y-81978571D01*
X143270000Y-81835714D01*
X143341428Y-81764285D01*
X143484285Y-81692857D01*
X143912857Y-81692857D01*
X144055714Y-81764285D01*
X144127142Y-81835714D01*
X144198571Y-81978571D01*
X144198571Y-82264285D01*
X144127142Y-82407142D01*
X143198571Y-81264285D02*
X143198571Y-80692857D01*
X142698571Y-81050000D02*
X143984285Y-81050000D01*
X144127142Y-80978571D01*
X144198571Y-80835714D01*
X144198571Y-80692857D01*
X144127142Y-79621428D02*
X144198571Y-79764285D01*
X144198571Y-80050000D01*
X144127142Y-80192857D01*
X143984285Y-80264285D01*
X143412857Y-80264285D01*
X143270000Y-80192857D01*
X143198571Y-80050000D01*
X143198571Y-79764285D01*
X143270000Y-79621428D01*
X143412857Y-79550000D01*
X143555714Y-79550000D01*
X143698571Y-80264285D01*
X144198571Y-78907142D02*
X143198571Y-78907142D01*
X143484285Y-78907142D02*
X143341428Y-78835714D01*
X143270000Y-78764285D01*
X143198571Y-78621428D01*
X143198571Y-78478571D01*
D13*
X136382619Y-74382380D02*
X136954047Y-74382380D01*
X136668333Y-75382380D02*
X136668333Y-74382380D01*
X137668333Y-75334761D02*
X137573095Y-75382380D01*
X137382619Y-75382380D01*
X137287380Y-75334761D01*
X137239761Y-75239523D01*
X137239761Y-74858571D01*
X137287380Y-74763333D01*
X137382619Y-74715714D01*
X137573095Y-74715714D01*
X137668333Y-74763333D01*
X137715952Y-74858571D01*
X137715952Y-74953809D01*
X137239761Y-75049047D01*
X138525476Y-75334761D02*
X138430238Y-75382380D01*
X138239761Y-75382380D01*
X138144523Y-75334761D01*
X138096904Y-75239523D01*
X138096904Y-74858571D01*
X138144523Y-74763333D01*
X138239761Y-74715714D01*
X138430238Y-74715714D01*
X138525476Y-74763333D01*
X138573095Y-74858571D01*
X138573095Y-74953809D01*
X138096904Y-75049047D01*
X139001666Y-74715714D02*
X139001666Y-75382380D01*
X139001666Y-74810952D02*
X139049285Y-74763333D01*
X139144523Y-74715714D01*
X139287380Y-74715714D01*
X139382619Y-74763333D01*
X139430238Y-74858571D01*
X139430238Y-75382380D01*
X139858809Y-75334761D02*
X139954047Y-75382380D01*
X140144523Y-75382380D01*
X140239761Y-75334761D01*
X140287380Y-75239523D01*
X140287380Y-75191904D01*
X140239761Y-75096666D01*
X140144523Y-75049047D01*
X140001666Y-75049047D01*
X139906428Y-75001428D01*
X139858809Y-74906190D01*
X139858809Y-74858571D01*
X139906428Y-74763333D01*
X140001666Y-74715714D01*
X140144523Y-74715714D01*
X140239761Y-74763333D01*
X140620714Y-74715714D02*
X140858809Y-75382380D01*
X141096904Y-74715714D02*
X140858809Y-75382380D01*
X140763571Y-75620476D01*
X140715952Y-75668095D01*
X140620714Y-75715714D01*
X142668333Y-74715714D02*
X142668333Y-75382380D01*
X142430238Y-74334761D02*
X142192142Y-75049047D01*
X142811190Y-75049047D01*
X143192142Y-75287142D02*
X143239761Y-75334761D01*
X143192142Y-75382380D01*
X143144523Y-75334761D01*
X143192142Y-75287142D01*
X143192142Y-75382380D01*
X143858809Y-74382380D02*
X143954047Y-74382380D01*
X144049285Y-74430000D01*
X144096904Y-74477619D01*
X144144523Y-74572857D01*
X144192142Y-74763333D01*
X144192142Y-75001428D01*
X144144523Y-75191904D01*
X144096904Y-75287142D01*
X144049285Y-75334761D01*
X143954047Y-75382380D01*
X143858809Y-75382380D01*
X143763571Y-75334761D01*
X143715952Y-75287142D01*
X143668333Y-75191904D01*
X143620714Y-75001428D01*
X143620714Y-74763333D01*
X143668333Y-74572857D01*
X143715952Y-74477619D01*
X143763571Y-74430000D01*
X143858809Y-74382380D01*
D14*
X143510000Y-73660000D02*
X143510000Y-69850000D01*
X136525000Y-73660000D02*
X143510000Y-73660000D01*
X136525000Y-69850000D02*
X136525000Y-73660000D01*
X130810000Y-105410000D02*
X130810000Y-69850000D01*
X148590000Y-105410000D02*
X130810000Y-105410000D01*
X148590000Y-69850000D02*
X148590000Y-105410000D01*
X130810000Y-69850000D02*
X148590000Y-69850000D01*
X140986252Y-95810000D02*
X140463748Y-95810000D01*
X140986252Y-97230000D02*
X140463748Y-97230000D01*
D13*
X140558333Y-98622380D02*
X140225000Y-98146190D01*
X139986904Y-98622380D02*
X139986904Y-97622380D01*
X140367857Y-97622380D01*
X140463095Y-97670000D01*
X140510714Y-97717619D01*
X140558333Y-97812857D01*
X140558333Y-97955714D01*
X140510714Y-98050952D01*
X140463095Y-98098571D01*
X140367857Y-98146190D01*
X139986904Y-98146190D01*
X141510714Y-98622380D02*
X140939285Y-98622380D01*
X141225000Y-98622380D02*
X141225000Y-97622380D01*
X141129761Y-97765238D01*
X141034523Y-97860476D01*
X140939285Y-97908095D01*
X140058333Y-95322380D02*
X139486904Y-95322380D01*
X139772619Y-95322380D02*
X139772619Y-94322380D01*
X139677380Y-94465238D01*
X139582142Y-94560476D01*
X139486904Y-94608095D01*
X140677380Y-94322380D02*
X140772619Y-94322380D01*
X140867857Y-94370000D01*
X140915476Y-94417619D01*
X140963095Y-94512857D01*
X141010714Y-94703333D01*
X141010714Y-94941428D01*
X140963095Y-95131904D01*
X140915476Y-95227142D01*
X140867857Y-95274761D01*
X140772619Y-95322380D01*
X140677380Y-95322380D01*
X140582142Y-95274761D01*
X140534523Y-95227142D01*
X140486904Y-95131904D01*
X140439285Y-94941428D01*
X140439285Y-94703333D01*
X140486904Y-94512857D01*
X140534523Y-94417619D01*
X140582142Y-94370000D01*
X140677380Y-94322380D01*
X141629761Y-94322380D02*
X141725000Y-94322380D01*
X141820238Y-94370000D01*
X141867857Y-94417619D01*
X141915476Y-94512857D01*
X141963095Y-94703333D01*
X141963095Y-94941428D01*
X141915476Y-95131904D01*
X141867857Y-95227142D01*
X141820238Y-95274761D01*
X141725000Y-95322380D01*
X141629761Y-95322380D01*
X141534523Y-95274761D01*
X141486904Y-95227142D01*
X141439285Y-95131904D01*
X141391666Y-94941428D01*
X141391666Y-94703333D01*
X141439285Y-94512857D01*
X141486904Y-94417619D01*
X141534523Y-94370000D01*
X141629761Y-94322380D01*
M02*
