G04 #@! TF.GenerationSoftware,KiCad,Pcbnew,(5.1.5-0-10_14)*
G04 #@! TF.CreationDate,2020-10-09T21:57:48+02:00*
G04 #@! TF.ProjectId,es_rotary,65735f72-6f74-4617-9279-2e6b69636164,rev?*
G04 #@! TF.SameCoordinates,Original*
G04 #@! TF.FileFunction,Copper,L2,Bot*
G04 #@! TF.FilePolarity,Positive*
%FSLAX46Y46*%
G04 Gerber Fmt 4.6, Leading zero omitted, Abs format (unit mm)*
G04 Created by KiCad (PCBNEW (5.1.5-0-10_14)) date 2020-10-09 21:57:48*
%MOMM*%
%LPD*%
G04 APERTURE LIST*
%ADD10R,1.700000X1.700000*%
%ADD11O,1.700000X1.700000*%
%ADD12C,3.400000*%
%ADD13C,1.800000*%
%ADD14C,0.254000*%
G04 APERTURE END LIST*
D10*
X149860000Y-104140000D03*
D11*
X149860000Y-101600000D03*
X149860000Y-99060000D03*
X149860000Y-96520000D03*
X149860000Y-93980000D03*
X149860000Y-91440000D03*
X149860000Y-88900000D03*
X149860000Y-86360000D03*
X149860000Y-83820000D03*
X149860000Y-81280000D03*
X149860000Y-78740000D03*
X149860000Y-76200000D03*
X149860000Y-73660000D03*
X149860000Y-71120000D03*
D12*
X155874999Y-87630000D03*
X167074999Y-87630000D03*
D13*
X163974999Y-80630000D03*
X163974999Y-95130000D03*
X161474999Y-95130000D03*
X158974999Y-95130000D03*
X158974999Y-80630000D03*
D11*
X134620000Y-71120000D03*
X134620000Y-73660000D03*
X134620000Y-76200000D03*
X134620000Y-78740000D03*
X134620000Y-81280000D03*
X134620000Y-83820000D03*
X134620000Y-86360000D03*
X134620000Y-88900000D03*
X134620000Y-91440000D03*
X134620000Y-93980000D03*
X134620000Y-96520000D03*
X134620000Y-99060000D03*
X134620000Y-101600000D03*
X134620000Y-104140000D03*
D14*
G36*
X169520000Y-79746407D02*
G01*
X169520001Y-95513592D01*
X152215330Y-106020000D01*
X132740000Y-106020000D01*
X132740000Y-103993740D01*
X133135000Y-103993740D01*
X133135000Y-104286260D01*
X133192068Y-104573158D01*
X133304010Y-104843411D01*
X133466525Y-105086632D01*
X133673368Y-105293475D01*
X133916589Y-105455990D01*
X134186842Y-105567932D01*
X134473740Y-105625000D01*
X134766260Y-105625000D01*
X135053158Y-105567932D01*
X135323411Y-105455990D01*
X135566632Y-105293475D01*
X135773475Y-105086632D01*
X135838042Y-104990000D01*
X148371928Y-104990000D01*
X148384188Y-105114482D01*
X148420498Y-105234180D01*
X148479463Y-105344494D01*
X148558815Y-105441185D01*
X148655506Y-105520537D01*
X148765820Y-105579502D01*
X148885518Y-105615812D01*
X149010000Y-105628072D01*
X149574250Y-105625000D01*
X149733000Y-105466250D01*
X149733000Y-104267000D01*
X149987000Y-104267000D01*
X149987000Y-105466250D01*
X150145750Y-105625000D01*
X150710000Y-105628072D01*
X150834482Y-105615812D01*
X150954180Y-105579502D01*
X151064494Y-105520537D01*
X151161185Y-105441185D01*
X151240537Y-105344494D01*
X151299502Y-105234180D01*
X151335812Y-105114482D01*
X151348072Y-104990000D01*
X151345000Y-104425750D01*
X151186250Y-104267000D01*
X149987000Y-104267000D01*
X149733000Y-104267000D01*
X148533750Y-104267000D01*
X148375000Y-104425750D01*
X148371928Y-104990000D01*
X135838042Y-104990000D01*
X135935990Y-104843411D01*
X136047932Y-104573158D01*
X136105000Y-104286260D01*
X136105000Y-103993740D01*
X136047932Y-103706842D01*
X135935990Y-103436589D01*
X135838043Y-103290000D01*
X148371928Y-103290000D01*
X148375000Y-103854250D01*
X148533750Y-104013000D01*
X149733000Y-104013000D01*
X149733000Y-103993000D01*
X149987000Y-103993000D01*
X149987000Y-104013000D01*
X151186250Y-104013000D01*
X151345000Y-103854250D01*
X151348072Y-103290000D01*
X151335812Y-103165518D01*
X151299502Y-103045820D01*
X151240537Y-102935506D01*
X151161185Y-102838815D01*
X151064494Y-102759463D01*
X150954180Y-102700498D01*
X150881620Y-102678487D01*
X151013475Y-102546632D01*
X151175990Y-102303411D01*
X151287932Y-102033158D01*
X151345000Y-101746260D01*
X151345000Y-101453740D01*
X151287932Y-101166842D01*
X151175990Y-100896589D01*
X151013475Y-100653368D01*
X150806632Y-100446525D01*
X150632240Y-100330000D01*
X150806632Y-100213475D01*
X151013475Y-100006632D01*
X151175990Y-99763411D01*
X151287932Y-99493158D01*
X151345000Y-99206260D01*
X151345000Y-98913740D01*
X151287932Y-98626842D01*
X151175990Y-98356589D01*
X151013475Y-98113368D01*
X150806632Y-97906525D01*
X150632240Y-97790000D01*
X150806632Y-97673475D01*
X151013475Y-97466632D01*
X151175990Y-97223411D01*
X151287932Y-96953158D01*
X151345000Y-96666260D01*
X151345000Y-96373740D01*
X151287932Y-96086842D01*
X151175990Y-95816589D01*
X151013475Y-95573368D01*
X150806632Y-95366525D01*
X150632240Y-95250000D01*
X150806632Y-95133475D01*
X150961291Y-94978816D01*
X157439999Y-94978816D01*
X157439999Y-95281184D01*
X157498988Y-95577743D01*
X157614700Y-95857095D01*
X157782687Y-96108505D01*
X157996494Y-96322312D01*
X158247904Y-96490299D01*
X158527256Y-96606011D01*
X158823815Y-96665000D01*
X159126183Y-96665000D01*
X159422742Y-96606011D01*
X159702094Y-96490299D01*
X159953504Y-96322312D01*
X160081736Y-96194080D01*
X160590524Y-96194080D01*
X160674207Y-96448261D01*
X160946774Y-96579158D01*
X161239641Y-96654365D01*
X161541552Y-96670991D01*
X161840906Y-96628397D01*
X162126198Y-96528222D01*
X162275791Y-96448261D01*
X162359474Y-96194080D01*
X161474999Y-95309605D01*
X160590524Y-96194080D01*
X160081736Y-96194080D01*
X160167311Y-96108505D01*
X160262737Y-95965690D01*
X160410919Y-96014475D01*
X161295394Y-95130000D01*
X161654604Y-95130000D01*
X162539079Y-96014475D01*
X162687261Y-95965690D01*
X162782687Y-96108505D01*
X162996494Y-96322312D01*
X163247904Y-96490299D01*
X163527256Y-96606011D01*
X163823815Y-96665000D01*
X164126183Y-96665000D01*
X164422742Y-96606011D01*
X164702094Y-96490299D01*
X164953504Y-96322312D01*
X165167311Y-96108505D01*
X165335298Y-95857095D01*
X165451010Y-95577743D01*
X165509999Y-95281184D01*
X165509999Y-94978816D01*
X165451010Y-94682257D01*
X165335298Y-94402905D01*
X165167311Y-94151495D01*
X164953504Y-93937688D01*
X164702094Y-93769701D01*
X164422742Y-93653989D01*
X164126183Y-93595000D01*
X163823815Y-93595000D01*
X163527256Y-93653989D01*
X163247904Y-93769701D01*
X162996494Y-93937688D01*
X162782687Y-94151495D01*
X162687261Y-94294310D01*
X162539079Y-94245525D01*
X161654604Y-95130000D01*
X161295394Y-95130000D01*
X160410919Y-94245525D01*
X160262737Y-94294310D01*
X160167311Y-94151495D01*
X160081736Y-94065920D01*
X160590524Y-94065920D01*
X161474999Y-94950395D01*
X162359474Y-94065920D01*
X162275791Y-93811739D01*
X162003224Y-93680842D01*
X161710357Y-93605635D01*
X161408446Y-93589009D01*
X161109092Y-93631603D01*
X160823800Y-93731778D01*
X160674207Y-93811739D01*
X160590524Y-94065920D01*
X160081736Y-94065920D01*
X159953504Y-93937688D01*
X159702094Y-93769701D01*
X159422742Y-93653989D01*
X159126183Y-93595000D01*
X158823815Y-93595000D01*
X158527256Y-93653989D01*
X158247904Y-93769701D01*
X157996494Y-93937688D01*
X157782687Y-94151495D01*
X157614700Y-94402905D01*
X157498988Y-94682257D01*
X157439999Y-94978816D01*
X150961291Y-94978816D01*
X151013475Y-94926632D01*
X151175990Y-94683411D01*
X151287932Y-94413158D01*
X151345000Y-94126260D01*
X151345000Y-93833740D01*
X151287932Y-93546842D01*
X151175990Y-93276589D01*
X151013475Y-93033368D01*
X150806632Y-92826525D01*
X150632240Y-92710000D01*
X150806632Y-92593475D01*
X151013475Y-92386632D01*
X151175990Y-92143411D01*
X151287932Y-91873158D01*
X151345000Y-91586260D01*
X151345000Y-91293740D01*
X151287932Y-91006842D01*
X151175990Y-90736589D01*
X151013475Y-90493368D01*
X150806632Y-90286525D01*
X150632240Y-90170000D01*
X150806632Y-90053475D01*
X151013475Y-89846632D01*
X151175990Y-89603411D01*
X151287932Y-89333158D01*
X151345000Y-89046260D01*
X151345000Y-88753740D01*
X151287932Y-88466842D01*
X151175990Y-88196589D01*
X151013475Y-87953368D01*
X150806632Y-87746525D01*
X150632240Y-87630000D01*
X150806632Y-87513475D01*
X150920084Y-87400023D01*
X153539999Y-87400023D01*
X153539999Y-87859977D01*
X153629732Y-88311094D01*
X153805749Y-88736037D01*
X154061286Y-89118476D01*
X154386523Y-89443713D01*
X154768962Y-89699250D01*
X155193905Y-89875267D01*
X155645022Y-89965000D01*
X156104976Y-89965000D01*
X156556093Y-89875267D01*
X156981036Y-89699250D01*
X157363475Y-89443713D01*
X157688712Y-89118476D01*
X157944249Y-88736037D01*
X158120266Y-88311094D01*
X158209999Y-87859977D01*
X158209999Y-87400023D01*
X164739999Y-87400023D01*
X164739999Y-87859977D01*
X164829732Y-88311094D01*
X165005749Y-88736037D01*
X165261286Y-89118476D01*
X165586523Y-89443713D01*
X165968962Y-89699250D01*
X166393905Y-89875267D01*
X166845022Y-89965000D01*
X167304976Y-89965000D01*
X167756093Y-89875267D01*
X168181036Y-89699250D01*
X168563475Y-89443713D01*
X168888712Y-89118476D01*
X169144249Y-88736037D01*
X169320266Y-88311094D01*
X169409999Y-87859977D01*
X169409999Y-87400023D01*
X169320266Y-86948906D01*
X169144249Y-86523963D01*
X168888712Y-86141524D01*
X168563475Y-85816287D01*
X168181036Y-85560750D01*
X167756093Y-85384733D01*
X167304976Y-85295000D01*
X166845022Y-85295000D01*
X166393905Y-85384733D01*
X165968962Y-85560750D01*
X165586523Y-85816287D01*
X165261286Y-86141524D01*
X165005749Y-86523963D01*
X164829732Y-86948906D01*
X164739999Y-87400023D01*
X158209999Y-87400023D01*
X158120266Y-86948906D01*
X157944249Y-86523963D01*
X157688712Y-86141524D01*
X157363475Y-85816287D01*
X156981036Y-85560750D01*
X156556093Y-85384733D01*
X156104976Y-85295000D01*
X155645022Y-85295000D01*
X155193905Y-85384733D01*
X154768962Y-85560750D01*
X154386523Y-85816287D01*
X154061286Y-86141524D01*
X153805749Y-86523963D01*
X153629732Y-86948906D01*
X153539999Y-87400023D01*
X150920084Y-87400023D01*
X151013475Y-87306632D01*
X151175990Y-87063411D01*
X151287932Y-86793158D01*
X151345000Y-86506260D01*
X151345000Y-86213740D01*
X151287932Y-85926842D01*
X151175990Y-85656589D01*
X151013475Y-85413368D01*
X150806632Y-85206525D01*
X150632240Y-85090000D01*
X150806632Y-84973475D01*
X151013475Y-84766632D01*
X151175990Y-84523411D01*
X151287932Y-84253158D01*
X151345000Y-83966260D01*
X151345000Y-83673740D01*
X151287932Y-83386842D01*
X151175990Y-83116589D01*
X151013475Y-82873368D01*
X150806632Y-82666525D01*
X150632240Y-82550000D01*
X150806632Y-82433475D01*
X151013475Y-82226632D01*
X151175990Y-81983411D01*
X151287932Y-81713158D01*
X151345000Y-81426260D01*
X151345000Y-81133740D01*
X151287932Y-80846842D01*
X151175990Y-80576589D01*
X151110661Y-80478816D01*
X157439999Y-80478816D01*
X157439999Y-80781184D01*
X157498988Y-81077743D01*
X157614700Y-81357095D01*
X157782687Y-81608505D01*
X157996494Y-81822312D01*
X158247904Y-81990299D01*
X158527256Y-82106011D01*
X158823815Y-82165000D01*
X159126183Y-82165000D01*
X159422742Y-82106011D01*
X159702094Y-81990299D01*
X159953504Y-81822312D01*
X160081736Y-81694080D01*
X163090524Y-81694080D01*
X163174207Y-81948261D01*
X163446774Y-82079158D01*
X163739641Y-82154365D01*
X164041552Y-82170991D01*
X164340906Y-82128397D01*
X164626198Y-82028222D01*
X164775791Y-81948261D01*
X164859474Y-81694080D01*
X163974999Y-80809605D01*
X163090524Y-81694080D01*
X160081736Y-81694080D01*
X160167311Y-81608505D01*
X160335298Y-81357095D01*
X160451010Y-81077743D01*
X160509999Y-80781184D01*
X160509999Y-80696553D01*
X162434008Y-80696553D01*
X162476602Y-80995907D01*
X162576777Y-81281199D01*
X162656738Y-81430792D01*
X162910919Y-81514475D01*
X163795394Y-80630000D01*
X164154604Y-80630000D01*
X165039079Y-81514475D01*
X165293260Y-81430792D01*
X165424157Y-81158225D01*
X165499364Y-80865358D01*
X165515990Y-80563447D01*
X165473396Y-80264093D01*
X165373221Y-79978801D01*
X165293260Y-79829208D01*
X165039079Y-79745525D01*
X164154604Y-80630000D01*
X163795394Y-80630000D01*
X162910919Y-79745525D01*
X162656738Y-79829208D01*
X162525841Y-80101775D01*
X162450634Y-80394642D01*
X162434008Y-80696553D01*
X160509999Y-80696553D01*
X160509999Y-80478816D01*
X160451010Y-80182257D01*
X160335298Y-79902905D01*
X160167311Y-79651495D01*
X160081736Y-79565920D01*
X163090524Y-79565920D01*
X163974999Y-80450395D01*
X164859474Y-79565920D01*
X164775791Y-79311739D01*
X164503224Y-79180842D01*
X164210357Y-79105635D01*
X163908446Y-79089009D01*
X163609092Y-79131603D01*
X163323800Y-79231778D01*
X163174207Y-79311739D01*
X163090524Y-79565920D01*
X160081736Y-79565920D01*
X159953504Y-79437688D01*
X159702094Y-79269701D01*
X159422742Y-79153989D01*
X159126183Y-79095000D01*
X158823815Y-79095000D01*
X158527256Y-79153989D01*
X158247904Y-79269701D01*
X157996494Y-79437688D01*
X157782687Y-79651495D01*
X157614700Y-79902905D01*
X157498988Y-80182257D01*
X157439999Y-80478816D01*
X151110661Y-80478816D01*
X151013475Y-80333368D01*
X150806632Y-80126525D01*
X150632240Y-80010000D01*
X150806632Y-79893475D01*
X151013475Y-79686632D01*
X151175990Y-79443411D01*
X151287932Y-79173158D01*
X151345000Y-78886260D01*
X151345000Y-78593740D01*
X151287932Y-78306842D01*
X151175990Y-78036589D01*
X151013475Y-77793368D01*
X150806632Y-77586525D01*
X150632240Y-77470000D01*
X150806632Y-77353475D01*
X151013475Y-77146632D01*
X151175990Y-76903411D01*
X151287932Y-76633158D01*
X151345000Y-76346260D01*
X151345000Y-76053740D01*
X151287932Y-75766842D01*
X151175990Y-75496589D01*
X151013475Y-75253368D01*
X150806632Y-75046525D01*
X150632240Y-74930000D01*
X150806632Y-74813475D01*
X151013475Y-74606632D01*
X151175990Y-74363411D01*
X151287932Y-74093158D01*
X151345000Y-73806260D01*
X151345000Y-73513740D01*
X151287932Y-73226842D01*
X151175990Y-72956589D01*
X151013475Y-72713368D01*
X150806632Y-72506525D01*
X150632240Y-72390000D01*
X150806632Y-72273475D01*
X151013475Y-72066632D01*
X151175990Y-71823411D01*
X151287932Y-71553158D01*
X151345000Y-71266260D01*
X151345000Y-70973740D01*
X151287932Y-70686842D01*
X151175990Y-70416589D01*
X151013475Y-70173368D01*
X150806632Y-69966525D01*
X150563411Y-69804010D01*
X150293158Y-69692068D01*
X150006260Y-69635000D01*
X149713740Y-69635000D01*
X149426842Y-69692068D01*
X149156589Y-69804010D01*
X148913368Y-69966525D01*
X148706525Y-70173368D01*
X148544010Y-70416589D01*
X148432068Y-70686842D01*
X148375000Y-70973740D01*
X148375000Y-71266260D01*
X148432068Y-71553158D01*
X148544010Y-71823411D01*
X148706525Y-72066632D01*
X148913368Y-72273475D01*
X149087760Y-72390000D01*
X148913368Y-72506525D01*
X148706525Y-72713368D01*
X148544010Y-72956589D01*
X148432068Y-73226842D01*
X148375000Y-73513740D01*
X148375000Y-73806260D01*
X148432068Y-74093158D01*
X148544010Y-74363411D01*
X148706525Y-74606632D01*
X148913368Y-74813475D01*
X149087760Y-74930000D01*
X148913368Y-75046525D01*
X148706525Y-75253368D01*
X148544010Y-75496589D01*
X148432068Y-75766842D01*
X148375000Y-76053740D01*
X148375000Y-76346260D01*
X148432068Y-76633158D01*
X148544010Y-76903411D01*
X148706525Y-77146632D01*
X148913368Y-77353475D01*
X149087760Y-77470000D01*
X148913368Y-77586525D01*
X148706525Y-77793368D01*
X148544010Y-78036589D01*
X148432068Y-78306842D01*
X148375000Y-78593740D01*
X148375000Y-78886260D01*
X148432068Y-79173158D01*
X148544010Y-79443411D01*
X148706525Y-79686632D01*
X148913368Y-79893475D01*
X149087760Y-80010000D01*
X148913368Y-80126525D01*
X148706525Y-80333368D01*
X148544010Y-80576589D01*
X148432068Y-80846842D01*
X148375000Y-81133740D01*
X148375000Y-81426260D01*
X148432068Y-81713158D01*
X148544010Y-81983411D01*
X148706525Y-82226632D01*
X148913368Y-82433475D01*
X149087760Y-82550000D01*
X148913368Y-82666525D01*
X148706525Y-82873368D01*
X148544010Y-83116589D01*
X148432068Y-83386842D01*
X148375000Y-83673740D01*
X148375000Y-83966260D01*
X148432068Y-84253158D01*
X148544010Y-84523411D01*
X148706525Y-84766632D01*
X148913368Y-84973475D01*
X149087760Y-85090000D01*
X148913368Y-85206525D01*
X148706525Y-85413368D01*
X148544010Y-85656589D01*
X148432068Y-85926842D01*
X148375000Y-86213740D01*
X148375000Y-86506260D01*
X148432068Y-86793158D01*
X148544010Y-87063411D01*
X148706525Y-87306632D01*
X148913368Y-87513475D01*
X149087760Y-87630000D01*
X148913368Y-87746525D01*
X148706525Y-87953368D01*
X148544010Y-88196589D01*
X148432068Y-88466842D01*
X148375000Y-88753740D01*
X148375000Y-89046260D01*
X148432068Y-89333158D01*
X148544010Y-89603411D01*
X148706525Y-89846632D01*
X148913368Y-90053475D01*
X149087760Y-90170000D01*
X148913368Y-90286525D01*
X148706525Y-90493368D01*
X148544010Y-90736589D01*
X148432068Y-91006842D01*
X148375000Y-91293740D01*
X148375000Y-91586260D01*
X148432068Y-91873158D01*
X148544010Y-92143411D01*
X148706525Y-92386632D01*
X148913368Y-92593475D01*
X149087760Y-92710000D01*
X148913368Y-92826525D01*
X148706525Y-93033368D01*
X148544010Y-93276589D01*
X148432068Y-93546842D01*
X148375000Y-93833740D01*
X148375000Y-94126260D01*
X148432068Y-94413158D01*
X148544010Y-94683411D01*
X148706525Y-94926632D01*
X148913368Y-95133475D01*
X149087760Y-95250000D01*
X148913368Y-95366525D01*
X148706525Y-95573368D01*
X148544010Y-95816589D01*
X148432068Y-96086842D01*
X148375000Y-96373740D01*
X148375000Y-96666260D01*
X148432068Y-96953158D01*
X148544010Y-97223411D01*
X148706525Y-97466632D01*
X148913368Y-97673475D01*
X149087760Y-97790000D01*
X148913368Y-97906525D01*
X148706525Y-98113368D01*
X148544010Y-98356589D01*
X148432068Y-98626842D01*
X148375000Y-98913740D01*
X148375000Y-99206260D01*
X148432068Y-99493158D01*
X148544010Y-99763411D01*
X148706525Y-100006632D01*
X148913368Y-100213475D01*
X149087760Y-100330000D01*
X148913368Y-100446525D01*
X148706525Y-100653368D01*
X148544010Y-100896589D01*
X148432068Y-101166842D01*
X148375000Y-101453740D01*
X148375000Y-101746260D01*
X148432068Y-102033158D01*
X148544010Y-102303411D01*
X148706525Y-102546632D01*
X148838380Y-102678487D01*
X148765820Y-102700498D01*
X148655506Y-102759463D01*
X148558815Y-102838815D01*
X148479463Y-102935506D01*
X148420498Y-103045820D01*
X148384188Y-103165518D01*
X148371928Y-103290000D01*
X135838043Y-103290000D01*
X135773475Y-103193368D01*
X135566632Y-102986525D01*
X135384466Y-102864805D01*
X135501355Y-102795178D01*
X135717588Y-102600269D01*
X135891641Y-102366920D01*
X136016825Y-102104099D01*
X136061476Y-101956890D01*
X135940155Y-101727000D01*
X134747000Y-101727000D01*
X134747000Y-101747000D01*
X134493000Y-101747000D01*
X134493000Y-101727000D01*
X133299845Y-101727000D01*
X133178524Y-101956890D01*
X133223175Y-102104099D01*
X133348359Y-102366920D01*
X133522412Y-102600269D01*
X133738645Y-102795178D01*
X133855534Y-102864805D01*
X133673368Y-102986525D01*
X133466525Y-103193368D01*
X133304010Y-103436589D01*
X133192068Y-103706842D01*
X133135000Y-103993740D01*
X132740000Y-103993740D01*
X132740000Y-70973740D01*
X133135000Y-70973740D01*
X133135000Y-71266260D01*
X133192068Y-71553158D01*
X133304010Y-71823411D01*
X133466525Y-72066632D01*
X133673368Y-72273475D01*
X133847760Y-72390000D01*
X133673368Y-72506525D01*
X133466525Y-72713368D01*
X133304010Y-72956589D01*
X133192068Y-73226842D01*
X133135000Y-73513740D01*
X133135000Y-73806260D01*
X133192068Y-74093158D01*
X133304010Y-74363411D01*
X133466525Y-74606632D01*
X133673368Y-74813475D01*
X133847760Y-74930000D01*
X133673368Y-75046525D01*
X133466525Y-75253368D01*
X133304010Y-75496589D01*
X133192068Y-75766842D01*
X133135000Y-76053740D01*
X133135000Y-76346260D01*
X133192068Y-76633158D01*
X133304010Y-76903411D01*
X133466525Y-77146632D01*
X133673368Y-77353475D01*
X133847760Y-77470000D01*
X133673368Y-77586525D01*
X133466525Y-77793368D01*
X133304010Y-78036589D01*
X133192068Y-78306842D01*
X133135000Y-78593740D01*
X133135000Y-78886260D01*
X133192068Y-79173158D01*
X133304010Y-79443411D01*
X133466525Y-79686632D01*
X133673368Y-79893475D01*
X133847760Y-80010000D01*
X133673368Y-80126525D01*
X133466525Y-80333368D01*
X133304010Y-80576589D01*
X133192068Y-80846842D01*
X133135000Y-81133740D01*
X133135000Y-81426260D01*
X133192068Y-81713158D01*
X133304010Y-81983411D01*
X133466525Y-82226632D01*
X133673368Y-82433475D01*
X133847760Y-82550000D01*
X133673368Y-82666525D01*
X133466525Y-82873368D01*
X133304010Y-83116589D01*
X133192068Y-83386842D01*
X133135000Y-83673740D01*
X133135000Y-83966260D01*
X133192068Y-84253158D01*
X133304010Y-84523411D01*
X133466525Y-84766632D01*
X133673368Y-84973475D01*
X133847760Y-85090000D01*
X133673368Y-85206525D01*
X133466525Y-85413368D01*
X133304010Y-85656589D01*
X133192068Y-85926842D01*
X133135000Y-86213740D01*
X133135000Y-86506260D01*
X133192068Y-86793158D01*
X133304010Y-87063411D01*
X133466525Y-87306632D01*
X133673368Y-87513475D01*
X133847760Y-87630000D01*
X133673368Y-87746525D01*
X133466525Y-87953368D01*
X133304010Y-88196589D01*
X133192068Y-88466842D01*
X133135000Y-88753740D01*
X133135000Y-89046260D01*
X133192068Y-89333158D01*
X133304010Y-89603411D01*
X133466525Y-89846632D01*
X133673368Y-90053475D01*
X133847760Y-90170000D01*
X133673368Y-90286525D01*
X133466525Y-90493368D01*
X133304010Y-90736589D01*
X133192068Y-91006842D01*
X133135000Y-91293740D01*
X133135000Y-91586260D01*
X133192068Y-91873158D01*
X133304010Y-92143411D01*
X133466525Y-92386632D01*
X133673368Y-92593475D01*
X133847760Y-92710000D01*
X133673368Y-92826525D01*
X133466525Y-93033368D01*
X133304010Y-93276589D01*
X133192068Y-93546842D01*
X133135000Y-93833740D01*
X133135000Y-94126260D01*
X133192068Y-94413158D01*
X133304010Y-94683411D01*
X133466525Y-94926632D01*
X133673368Y-95133475D01*
X133847760Y-95250000D01*
X133673368Y-95366525D01*
X133466525Y-95573368D01*
X133304010Y-95816589D01*
X133192068Y-96086842D01*
X133135000Y-96373740D01*
X133135000Y-96666260D01*
X133192068Y-96953158D01*
X133304010Y-97223411D01*
X133466525Y-97466632D01*
X133673368Y-97673475D01*
X133847760Y-97790000D01*
X133673368Y-97906525D01*
X133466525Y-98113368D01*
X133304010Y-98356589D01*
X133192068Y-98626842D01*
X133135000Y-98913740D01*
X133135000Y-99206260D01*
X133192068Y-99493158D01*
X133304010Y-99763411D01*
X133466525Y-100006632D01*
X133673368Y-100213475D01*
X133855534Y-100335195D01*
X133738645Y-100404822D01*
X133522412Y-100599731D01*
X133348359Y-100833080D01*
X133223175Y-101095901D01*
X133178524Y-101243110D01*
X133299845Y-101473000D01*
X134493000Y-101473000D01*
X134493000Y-101453000D01*
X134747000Y-101453000D01*
X134747000Y-101473000D01*
X135940155Y-101473000D01*
X136061476Y-101243110D01*
X136016825Y-101095901D01*
X135891641Y-100833080D01*
X135717588Y-100599731D01*
X135501355Y-100404822D01*
X135384466Y-100335195D01*
X135566632Y-100213475D01*
X135773475Y-100006632D01*
X135935990Y-99763411D01*
X136047932Y-99493158D01*
X136105000Y-99206260D01*
X136105000Y-98913740D01*
X136047932Y-98626842D01*
X135935990Y-98356589D01*
X135773475Y-98113368D01*
X135566632Y-97906525D01*
X135392240Y-97790000D01*
X135566632Y-97673475D01*
X135773475Y-97466632D01*
X135935990Y-97223411D01*
X136047932Y-96953158D01*
X136105000Y-96666260D01*
X136105000Y-96373740D01*
X136047932Y-96086842D01*
X135935990Y-95816589D01*
X135773475Y-95573368D01*
X135566632Y-95366525D01*
X135392240Y-95250000D01*
X135566632Y-95133475D01*
X135773475Y-94926632D01*
X135935990Y-94683411D01*
X136047932Y-94413158D01*
X136105000Y-94126260D01*
X136105000Y-93833740D01*
X136047932Y-93546842D01*
X135935990Y-93276589D01*
X135773475Y-93033368D01*
X135566632Y-92826525D01*
X135392240Y-92710000D01*
X135566632Y-92593475D01*
X135773475Y-92386632D01*
X135935990Y-92143411D01*
X136047932Y-91873158D01*
X136105000Y-91586260D01*
X136105000Y-91293740D01*
X136047932Y-91006842D01*
X135935990Y-90736589D01*
X135773475Y-90493368D01*
X135566632Y-90286525D01*
X135392240Y-90170000D01*
X135566632Y-90053475D01*
X135773475Y-89846632D01*
X135935990Y-89603411D01*
X136047932Y-89333158D01*
X136105000Y-89046260D01*
X136105000Y-88753740D01*
X136047932Y-88466842D01*
X135935990Y-88196589D01*
X135773475Y-87953368D01*
X135566632Y-87746525D01*
X135392240Y-87630000D01*
X135566632Y-87513475D01*
X135773475Y-87306632D01*
X135935990Y-87063411D01*
X136047932Y-86793158D01*
X136105000Y-86506260D01*
X136105000Y-86213740D01*
X136047932Y-85926842D01*
X135935990Y-85656589D01*
X135773475Y-85413368D01*
X135566632Y-85206525D01*
X135392240Y-85090000D01*
X135566632Y-84973475D01*
X135773475Y-84766632D01*
X135935990Y-84523411D01*
X136047932Y-84253158D01*
X136105000Y-83966260D01*
X136105000Y-83673740D01*
X136047932Y-83386842D01*
X135935990Y-83116589D01*
X135773475Y-82873368D01*
X135566632Y-82666525D01*
X135392240Y-82550000D01*
X135566632Y-82433475D01*
X135773475Y-82226632D01*
X135935990Y-81983411D01*
X136047932Y-81713158D01*
X136105000Y-81426260D01*
X136105000Y-81133740D01*
X136047932Y-80846842D01*
X135935990Y-80576589D01*
X135773475Y-80333368D01*
X135566632Y-80126525D01*
X135392240Y-80010000D01*
X135566632Y-79893475D01*
X135773475Y-79686632D01*
X135935990Y-79443411D01*
X136047932Y-79173158D01*
X136105000Y-78886260D01*
X136105000Y-78593740D01*
X136047932Y-78306842D01*
X135935990Y-78036589D01*
X135773475Y-77793368D01*
X135566632Y-77586525D01*
X135392240Y-77470000D01*
X135566632Y-77353475D01*
X135773475Y-77146632D01*
X135935990Y-76903411D01*
X136047932Y-76633158D01*
X136105000Y-76346260D01*
X136105000Y-76053740D01*
X136047932Y-75766842D01*
X135935990Y-75496589D01*
X135773475Y-75253368D01*
X135566632Y-75046525D01*
X135392240Y-74930000D01*
X135566632Y-74813475D01*
X135773475Y-74606632D01*
X135935990Y-74363411D01*
X136047932Y-74093158D01*
X136105000Y-73806260D01*
X136105000Y-73513740D01*
X136047932Y-73226842D01*
X135935990Y-72956589D01*
X135773475Y-72713368D01*
X135566632Y-72506525D01*
X135392240Y-72390000D01*
X135566632Y-72273475D01*
X135773475Y-72066632D01*
X135935990Y-71823411D01*
X136047932Y-71553158D01*
X136105000Y-71266260D01*
X136105000Y-70973740D01*
X136047932Y-70686842D01*
X135935990Y-70416589D01*
X135773475Y-70173368D01*
X135566632Y-69966525D01*
X135323411Y-69804010D01*
X135053158Y-69692068D01*
X134766260Y-69635000D01*
X134473740Y-69635000D01*
X134186842Y-69692068D01*
X133916589Y-69804010D01*
X133673368Y-69966525D01*
X133466525Y-70173368D01*
X133304010Y-70416589D01*
X133192068Y-70686842D01*
X133135000Y-70973740D01*
X132740000Y-70973740D01*
X132740000Y-69240000D01*
X152215330Y-69240000D01*
X169520000Y-79746407D01*
G37*
X169520000Y-79746407D02*
X169520001Y-95513592D01*
X152215330Y-106020000D01*
X132740000Y-106020000D01*
X132740000Y-103993740D01*
X133135000Y-103993740D01*
X133135000Y-104286260D01*
X133192068Y-104573158D01*
X133304010Y-104843411D01*
X133466525Y-105086632D01*
X133673368Y-105293475D01*
X133916589Y-105455990D01*
X134186842Y-105567932D01*
X134473740Y-105625000D01*
X134766260Y-105625000D01*
X135053158Y-105567932D01*
X135323411Y-105455990D01*
X135566632Y-105293475D01*
X135773475Y-105086632D01*
X135838042Y-104990000D01*
X148371928Y-104990000D01*
X148384188Y-105114482D01*
X148420498Y-105234180D01*
X148479463Y-105344494D01*
X148558815Y-105441185D01*
X148655506Y-105520537D01*
X148765820Y-105579502D01*
X148885518Y-105615812D01*
X149010000Y-105628072D01*
X149574250Y-105625000D01*
X149733000Y-105466250D01*
X149733000Y-104267000D01*
X149987000Y-104267000D01*
X149987000Y-105466250D01*
X150145750Y-105625000D01*
X150710000Y-105628072D01*
X150834482Y-105615812D01*
X150954180Y-105579502D01*
X151064494Y-105520537D01*
X151161185Y-105441185D01*
X151240537Y-105344494D01*
X151299502Y-105234180D01*
X151335812Y-105114482D01*
X151348072Y-104990000D01*
X151345000Y-104425750D01*
X151186250Y-104267000D01*
X149987000Y-104267000D01*
X149733000Y-104267000D01*
X148533750Y-104267000D01*
X148375000Y-104425750D01*
X148371928Y-104990000D01*
X135838042Y-104990000D01*
X135935990Y-104843411D01*
X136047932Y-104573158D01*
X136105000Y-104286260D01*
X136105000Y-103993740D01*
X136047932Y-103706842D01*
X135935990Y-103436589D01*
X135838043Y-103290000D01*
X148371928Y-103290000D01*
X148375000Y-103854250D01*
X148533750Y-104013000D01*
X149733000Y-104013000D01*
X149733000Y-103993000D01*
X149987000Y-103993000D01*
X149987000Y-104013000D01*
X151186250Y-104013000D01*
X151345000Y-103854250D01*
X151348072Y-103290000D01*
X151335812Y-103165518D01*
X151299502Y-103045820D01*
X151240537Y-102935506D01*
X151161185Y-102838815D01*
X151064494Y-102759463D01*
X150954180Y-102700498D01*
X150881620Y-102678487D01*
X151013475Y-102546632D01*
X151175990Y-102303411D01*
X151287932Y-102033158D01*
X151345000Y-101746260D01*
X151345000Y-101453740D01*
X151287932Y-101166842D01*
X151175990Y-100896589D01*
X151013475Y-100653368D01*
X150806632Y-100446525D01*
X150632240Y-100330000D01*
X150806632Y-100213475D01*
X151013475Y-100006632D01*
X151175990Y-99763411D01*
X151287932Y-99493158D01*
X151345000Y-99206260D01*
X151345000Y-98913740D01*
X151287932Y-98626842D01*
X151175990Y-98356589D01*
X151013475Y-98113368D01*
X150806632Y-97906525D01*
X150632240Y-97790000D01*
X150806632Y-97673475D01*
X151013475Y-97466632D01*
X151175990Y-97223411D01*
X151287932Y-96953158D01*
X151345000Y-96666260D01*
X151345000Y-96373740D01*
X151287932Y-96086842D01*
X151175990Y-95816589D01*
X151013475Y-95573368D01*
X150806632Y-95366525D01*
X150632240Y-95250000D01*
X150806632Y-95133475D01*
X150961291Y-94978816D01*
X157439999Y-94978816D01*
X157439999Y-95281184D01*
X157498988Y-95577743D01*
X157614700Y-95857095D01*
X157782687Y-96108505D01*
X157996494Y-96322312D01*
X158247904Y-96490299D01*
X158527256Y-96606011D01*
X158823815Y-96665000D01*
X159126183Y-96665000D01*
X159422742Y-96606011D01*
X159702094Y-96490299D01*
X159953504Y-96322312D01*
X160081736Y-96194080D01*
X160590524Y-96194080D01*
X160674207Y-96448261D01*
X160946774Y-96579158D01*
X161239641Y-96654365D01*
X161541552Y-96670991D01*
X161840906Y-96628397D01*
X162126198Y-96528222D01*
X162275791Y-96448261D01*
X162359474Y-96194080D01*
X161474999Y-95309605D01*
X160590524Y-96194080D01*
X160081736Y-96194080D01*
X160167311Y-96108505D01*
X160262737Y-95965690D01*
X160410919Y-96014475D01*
X161295394Y-95130000D01*
X161654604Y-95130000D01*
X162539079Y-96014475D01*
X162687261Y-95965690D01*
X162782687Y-96108505D01*
X162996494Y-96322312D01*
X163247904Y-96490299D01*
X163527256Y-96606011D01*
X163823815Y-96665000D01*
X164126183Y-96665000D01*
X164422742Y-96606011D01*
X164702094Y-96490299D01*
X164953504Y-96322312D01*
X165167311Y-96108505D01*
X165335298Y-95857095D01*
X165451010Y-95577743D01*
X165509999Y-95281184D01*
X165509999Y-94978816D01*
X165451010Y-94682257D01*
X165335298Y-94402905D01*
X165167311Y-94151495D01*
X164953504Y-93937688D01*
X164702094Y-93769701D01*
X164422742Y-93653989D01*
X164126183Y-93595000D01*
X163823815Y-93595000D01*
X163527256Y-93653989D01*
X163247904Y-93769701D01*
X162996494Y-93937688D01*
X162782687Y-94151495D01*
X162687261Y-94294310D01*
X162539079Y-94245525D01*
X161654604Y-95130000D01*
X161295394Y-95130000D01*
X160410919Y-94245525D01*
X160262737Y-94294310D01*
X160167311Y-94151495D01*
X160081736Y-94065920D01*
X160590524Y-94065920D01*
X161474999Y-94950395D01*
X162359474Y-94065920D01*
X162275791Y-93811739D01*
X162003224Y-93680842D01*
X161710357Y-93605635D01*
X161408446Y-93589009D01*
X161109092Y-93631603D01*
X160823800Y-93731778D01*
X160674207Y-93811739D01*
X160590524Y-94065920D01*
X160081736Y-94065920D01*
X159953504Y-93937688D01*
X159702094Y-93769701D01*
X159422742Y-93653989D01*
X159126183Y-93595000D01*
X158823815Y-93595000D01*
X158527256Y-93653989D01*
X158247904Y-93769701D01*
X157996494Y-93937688D01*
X157782687Y-94151495D01*
X157614700Y-94402905D01*
X157498988Y-94682257D01*
X157439999Y-94978816D01*
X150961291Y-94978816D01*
X151013475Y-94926632D01*
X151175990Y-94683411D01*
X151287932Y-94413158D01*
X151345000Y-94126260D01*
X151345000Y-93833740D01*
X151287932Y-93546842D01*
X151175990Y-93276589D01*
X151013475Y-93033368D01*
X150806632Y-92826525D01*
X150632240Y-92710000D01*
X150806632Y-92593475D01*
X151013475Y-92386632D01*
X151175990Y-92143411D01*
X151287932Y-91873158D01*
X151345000Y-91586260D01*
X151345000Y-91293740D01*
X151287932Y-91006842D01*
X151175990Y-90736589D01*
X151013475Y-90493368D01*
X150806632Y-90286525D01*
X150632240Y-90170000D01*
X150806632Y-90053475D01*
X151013475Y-89846632D01*
X151175990Y-89603411D01*
X151287932Y-89333158D01*
X151345000Y-89046260D01*
X151345000Y-88753740D01*
X151287932Y-88466842D01*
X151175990Y-88196589D01*
X151013475Y-87953368D01*
X150806632Y-87746525D01*
X150632240Y-87630000D01*
X150806632Y-87513475D01*
X150920084Y-87400023D01*
X153539999Y-87400023D01*
X153539999Y-87859977D01*
X153629732Y-88311094D01*
X153805749Y-88736037D01*
X154061286Y-89118476D01*
X154386523Y-89443713D01*
X154768962Y-89699250D01*
X155193905Y-89875267D01*
X155645022Y-89965000D01*
X156104976Y-89965000D01*
X156556093Y-89875267D01*
X156981036Y-89699250D01*
X157363475Y-89443713D01*
X157688712Y-89118476D01*
X157944249Y-88736037D01*
X158120266Y-88311094D01*
X158209999Y-87859977D01*
X158209999Y-87400023D01*
X164739999Y-87400023D01*
X164739999Y-87859977D01*
X164829732Y-88311094D01*
X165005749Y-88736037D01*
X165261286Y-89118476D01*
X165586523Y-89443713D01*
X165968962Y-89699250D01*
X166393905Y-89875267D01*
X166845022Y-89965000D01*
X167304976Y-89965000D01*
X167756093Y-89875267D01*
X168181036Y-89699250D01*
X168563475Y-89443713D01*
X168888712Y-89118476D01*
X169144249Y-88736037D01*
X169320266Y-88311094D01*
X169409999Y-87859977D01*
X169409999Y-87400023D01*
X169320266Y-86948906D01*
X169144249Y-86523963D01*
X168888712Y-86141524D01*
X168563475Y-85816287D01*
X168181036Y-85560750D01*
X167756093Y-85384733D01*
X167304976Y-85295000D01*
X166845022Y-85295000D01*
X166393905Y-85384733D01*
X165968962Y-85560750D01*
X165586523Y-85816287D01*
X165261286Y-86141524D01*
X165005749Y-86523963D01*
X164829732Y-86948906D01*
X164739999Y-87400023D01*
X158209999Y-87400023D01*
X158120266Y-86948906D01*
X157944249Y-86523963D01*
X157688712Y-86141524D01*
X157363475Y-85816287D01*
X156981036Y-85560750D01*
X156556093Y-85384733D01*
X156104976Y-85295000D01*
X155645022Y-85295000D01*
X155193905Y-85384733D01*
X154768962Y-85560750D01*
X154386523Y-85816287D01*
X154061286Y-86141524D01*
X153805749Y-86523963D01*
X153629732Y-86948906D01*
X153539999Y-87400023D01*
X150920084Y-87400023D01*
X151013475Y-87306632D01*
X151175990Y-87063411D01*
X151287932Y-86793158D01*
X151345000Y-86506260D01*
X151345000Y-86213740D01*
X151287932Y-85926842D01*
X151175990Y-85656589D01*
X151013475Y-85413368D01*
X150806632Y-85206525D01*
X150632240Y-85090000D01*
X150806632Y-84973475D01*
X151013475Y-84766632D01*
X151175990Y-84523411D01*
X151287932Y-84253158D01*
X151345000Y-83966260D01*
X151345000Y-83673740D01*
X151287932Y-83386842D01*
X151175990Y-83116589D01*
X151013475Y-82873368D01*
X150806632Y-82666525D01*
X150632240Y-82550000D01*
X150806632Y-82433475D01*
X151013475Y-82226632D01*
X151175990Y-81983411D01*
X151287932Y-81713158D01*
X151345000Y-81426260D01*
X151345000Y-81133740D01*
X151287932Y-80846842D01*
X151175990Y-80576589D01*
X151110661Y-80478816D01*
X157439999Y-80478816D01*
X157439999Y-80781184D01*
X157498988Y-81077743D01*
X157614700Y-81357095D01*
X157782687Y-81608505D01*
X157996494Y-81822312D01*
X158247904Y-81990299D01*
X158527256Y-82106011D01*
X158823815Y-82165000D01*
X159126183Y-82165000D01*
X159422742Y-82106011D01*
X159702094Y-81990299D01*
X159953504Y-81822312D01*
X160081736Y-81694080D01*
X163090524Y-81694080D01*
X163174207Y-81948261D01*
X163446774Y-82079158D01*
X163739641Y-82154365D01*
X164041552Y-82170991D01*
X164340906Y-82128397D01*
X164626198Y-82028222D01*
X164775791Y-81948261D01*
X164859474Y-81694080D01*
X163974999Y-80809605D01*
X163090524Y-81694080D01*
X160081736Y-81694080D01*
X160167311Y-81608505D01*
X160335298Y-81357095D01*
X160451010Y-81077743D01*
X160509999Y-80781184D01*
X160509999Y-80696553D01*
X162434008Y-80696553D01*
X162476602Y-80995907D01*
X162576777Y-81281199D01*
X162656738Y-81430792D01*
X162910919Y-81514475D01*
X163795394Y-80630000D01*
X164154604Y-80630000D01*
X165039079Y-81514475D01*
X165293260Y-81430792D01*
X165424157Y-81158225D01*
X165499364Y-80865358D01*
X165515990Y-80563447D01*
X165473396Y-80264093D01*
X165373221Y-79978801D01*
X165293260Y-79829208D01*
X165039079Y-79745525D01*
X164154604Y-80630000D01*
X163795394Y-80630000D01*
X162910919Y-79745525D01*
X162656738Y-79829208D01*
X162525841Y-80101775D01*
X162450634Y-80394642D01*
X162434008Y-80696553D01*
X160509999Y-80696553D01*
X160509999Y-80478816D01*
X160451010Y-80182257D01*
X160335298Y-79902905D01*
X160167311Y-79651495D01*
X160081736Y-79565920D01*
X163090524Y-79565920D01*
X163974999Y-80450395D01*
X164859474Y-79565920D01*
X164775791Y-79311739D01*
X164503224Y-79180842D01*
X164210357Y-79105635D01*
X163908446Y-79089009D01*
X163609092Y-79131603D01*
X163323800Y-79231778D01*
X163174207Y-79311739D01*
X163090524Y-79565920D01*
X160081736Y-79565920D01*
X159953504Y-79437688D01*
X159702094Y-79269701D01*
X159422742Y-79153989D01*
X159126183Y-79095000D01*
X158823815Y-79095000D01*
X158527256Y-79153989D01*
X158247904Y-79269701D01*
X157996494Y-79437688D01*
X157782687Y-79651495D01*
X157614700Y-79902905D01*
X157498988Y-80182257D01*
X157439999Y-80478816D01*
X151110661Y-80478816D01*
X151013475Y-80333368D01*
X150806632Y-80126525D01*
X150632240Y-80010000D01*
X150806632Y-79893475D01*
X151013475Y-79686632D01*
X151175990Y-79443411D01*
X151287932Y-79173158D01*
X151345000Y-78886260D01*
X151345000Y-78593740D01*
X151287932Y-78306842D01*
X151175990Y-78036589D01*
X151013475Y-77793368D01*
X150806632Y-77586525D01*
X150632240Y-77470000D01*
X150806632Y-77353475D01*
X151013475Y-77146632D01*
X151175990Y-76903411D01*
X151287932Y-76633158D01*
X151345000Y-76346260D01*
X151345000Y-76053740D01*
X151287932Y-75766842D01*
X151175990Y-75496589D01*
X151013475Y-75253368D01*
X150806632Y-75046525D01*
X150632240Y-74930000D01*
X150806632Y-74813475D01*
X151013475Y-74606632D01*
X151175990Y-74363411D01*
X151287932Y-74093158D01*
X151345000Y-73806260D01*
X151345000Y-73513740D01*
X151287932Y-73226842D01*
X151175990Y-72956589D01*
X151013475Y-72713368D01*
X150806632Y-72506525D01*
X150632240Y-72390000D01*
X150806632Y-72273475D01*
X151013475Y-72066632D01*
X151175990Y-71823411D01*
X151287932Y-71553158D01*
X151345000Y-71266260D01*
X151345000Y-70973740D01*
X151287932Y-70686842D01*
X151175990Y-70416589D01*
X151013475Y-70173368D01*
X150806632Y-69966525D01*
X150563411Y-69804010D01*
X150293158Y-69692068D01*
X150006260Y-69635000D01*
X149713740Y-69635000D01*
X149426842Y-69692068D01*
X149156589Y-69804010D01*
X148913368Y-69966525D01*
X148706525Y-70173368D01*
X148544010Y-70416589D01*
X148432068Y-70686842D01*
X148375000Y-70973740D01*
X148375000Y-71266260D01*
X148432068Y-71553158D01*
X148544010Y-71823411D01*
X148706525Y-72066632D01*
X148913368Y-72273475D01*
X149087760Y-72390000D01*
X148913368Y-72506525D01*
X148706525Y-72713368D01*
X148544010Y-72956589D01*
X148432068Y-73226842D01*
X148375000Y-73513740D01*
X148375000Y-73806260D01*
X148432068Y-74093158D01*
X148544010Y-74363411D01*
X148706525Y-74606632D01*
X148913368Y-74813475D01*
X149087760Y-74930000D01*
X148913368Y-75046525D01*
X148706525Y-75253368D01*
X148544010Y-75496589D01*
X148432068Y-75766842D01*
X148375000Y-76053740D01*
X148375000Y-76346260D01*
X148432068Y-76633158D01*
X148544010Y-76903411D01*
X148706525Y-77146632D01*
X148913368Y-77353475D01*
X149087760Y-77470000D01*
X148913368Y-77586525D01*
X148706525Y-77793368D01*
X148544010Y-78036589D01*
X148432068Y-78306842D01*
X148375000Y-78593740D01*
X148375000Y-78886260D01*
X148432068Y-79173158D01*
X148544010Y-79443411D01*
X148706525Y-79686632D01*
X148913368Y-79893475D01*
X149087760Y-80010000D01*
X148913368Y-80126525D01*
X148706525Y-80333368D01*
X148544010Y-80576589D01*
X148432068Y-80846842D01*
X148375000Y-81133740D01*
X148375000Y-81426260D01*
X148432068Y-81713158D01*
X148544010Y-81983411D01*
X148706525Y-82226632D01*
X148913368Y-82433475D01*
X149087760Y-82550000D01*
X148913368Y-82666525D01*
X148706525Y-82873368D01*
X148544010Y-83116589D01*
X148432068Y-83386842D01*
X148375000Y-83673740D01*
X148375000Y-83966260D01*
X148432068Y-84253158D01*
X148544010Y-84523411D01*
X148706525Y-84766632D01*
X148913368Y-84973475D01*
X149087760Y-85090000D01*
X148913368Y-85206525D01*
X148706525Y-85413368D01*
X148544010Y-85656589D01*
X148432068Y-85926842D01*
X148375000Y-86213740D01*
X148375000Y-86506260D01*
X148432068Y-86793158D01*
X148544010Y-87063411D01*
X148706525Y-87306632D01*
X148913368Y-87513475D01*
X149087760Y-87630000D01*
X148913368Y-87746525D01*
X148706525Y-87953368D01*
X148544010Y-88196589D01*
X148432068Y-88466842D01*
X148375000Y-88753740D01*
X148375000Y-89046260D01*
X148432068Y-89333158D01*
X148544010Y-89603411D01*
X148706525Y-89846632D01*
X148913368Y-90053475D01*
X149087760Y-90170000D01*
X148913368Y-90286525D01*
X148706525Y-90493368D01*
X148544010Y-90736589D01*
X148432068Y-91006842D01*
X148375000Y-91293740D01*
X148375000Y-91586260D01*
X148432068Y-91873158D01*
X148544010Y-92143411D01*
X148706525Y-92386632D01*
X148913368Y-92593475D01*
X149087760Y-92710000D01*
X148913368Y-92826525D01*
X148706525Y-93033368D01*
X148544010Y-93276589D01*
X148432068Y-93546842D01*
X148375000Y-93833740D01*
X148375000Y-94126260D01*
X148432068Y-94413158D01*
X148544010Y-94683411D01*
X148706525Y-94926632D01*
X148913368Y-95133475D01*
X149087760Y-95250000D01*
X148913368Y-95366525D01*
X148706525Y-95573368D01*
X148544010Y-95816589D01*
X148432068Y-96086842D01*
X148375000Y-96373740D01*
X148375000Y-96666260D01*
X148432068Y-96953158D01*
X148544010Y-97223411D01*
X148706525Y-97466632D01*
X148913368Y-97673475D01*
X149087760Y-97790000D01*
X148913368Y-97906525D01*
X148706525Y-98113368D01*
X148544010Y-98356589D01*
X148432068Y-98626842D01*
X148375000Y-98913740D01*
X148375000Y-99206260D01*
X148432068Y-99493158D01*
X148544010Y-99763411D01*
X148706525Y-100006632D01*
X148913368Y-100213475D01*
X149087760Y-100330000D01*
X148913368Y-100446525D01*
X148706525Y-100653368D01*
X148544010Y-100896589D01*
X148432068Y-101166842D01*
X148375000Y-101453740D01*
X148375000Y-101746260D01*
X148432068Y-102033158D01*
X148544010Y-102303411D01*
X148706525Y-102546632D01*
X148838380Y-102678487D01*
X148765820Y-102700498D01*
X148655506Y-102759463D01*
X148558815Y-102838815D01*
X148479463Y-102935506D01*
X148420498Y-103045820D01*
X148384188Y-103165518D01*
X148371928Y-103290000D01*
X135838043Y-103290000D01*
X135773475Y-103193368D01*
X135566632Y-102986525D01*
X135384466Y-102864805D01*
X135501355Y-102795178D01*
X135717588Y-102600269D01*
X135891641Y-102366920D01*
X136016825Y-102104099D01*
X136061476Y-101956890D01*
X135940155Y-101727000D01*
X134747000Y-101727000D01*
X134747000Y-101747000D01*
X134493000Y-101747000D01*
X134493000Y-101727000D01*
X133299845Y-101727000D01*
X133178524Y-101956890D01*
X133223175Y-102104099D01*
X133348359Y-102366920D01*
X133522412Y-102600269D01*
X133738645Y-102795178D01*
X133855534Y-102864805D01*
X133673368Y-102986525D01*
X133466525Y-103193368D01*
X133304010Y-103436589D01*
X133192068Y-103706842D01*
X133135000Y-103993740D01*
X132740000Y-103993740D01*
X132740000Y-70973740D01*
X133135000Y-70973740D01*
X133135000Y-71266260D01*
X133192068Y-71553158D01*
X133304010Y-71823411D01*
X133466525Y-72066632D01*
X133673368Y-72273475D01*
X133847760Y-72390000D01*
X133673368Y-72506525D01*
X133466525Y-72713368D01*
X133304010Y-72956589D01*
X133192068Y-73226842D01*
X133135000Y-73513740D01*
X133135000Y-73806260D01*
X133192068Y-74093158D01*
X133304010Y-74363411D01*
X133466525Y-74606632D01*
X133673368Y-74813475D01*
X133847760Y-74930000D01*
X133673368Y-75046525D01*
X133466525Y-75253368D01*
X133304010Y-75496589D01*
X133192068Y-75766842D01*
X133135000Y-76053740D01*
X133135000Y-76346260D01*
X133192068Y-76633158D01*
X133304010Y-76903411D01*
X133466525Y-77146632D01*
X133673368Y-77353475D01*
X133847760Y-77470000D01*
X133673368Y-77586525D01*
X133466525Y-77793368D01*
X133304010Y-78036589D01*
X133192068Y-78306842D01*
X133135000Y-78593740D01*
X133135000Y-78886260D01*
X133192068Y-79173158D01*
X133304010Y-79443411D01*
X133466525Y-79686632D01*
X133673368Y-79893475D01*
X133847760Y-80010000D01*
X133673368Y-80126525D01*
X133466525Y-80333368D01*
X133304010Y-80576589D01*
X133192068Y-80846842D01*
X133135000Y-81133740D01*
X133135000Y-81426260D01*
X133192068Y-81713158D01*
X133304010Y-81983411D01*
X133466525Y-82226632D01*
X133673368Y-82433475D01*
X133847760Y-82550000D01*
X133673368Y-82666525D01*
X133466525Y-82873368D01*
X133304010Y-83116589D01*
X133192068Y-83386842D01*
X133135000Y-83673740D01*
X133135000Y-83966260D01*
X133192068Y-84253158D01*
X133304010Y-84523411D01*
X133466525Y-84766632D01*
X133673368Y-84973475D01*
X133847760Y-85090000D01*
X133673368Y-85206525D01*
X133466525Y-85413368D01*
X133304010Y-85656589D01*
X133192068Y-85926842D01*
X133135000Y-86213740D01*
X133135000Y-86506260D01*
X133192068Y-86793158D01*
X133304010Y-87063411D01*
X133466525Y-87306632D01*
X133673368Y-87513475D01*
X133847760Y-87630000D01*
X133673368Y-87746525D01*
X133466525Y-87953368D01*
X133304010Y-88196589D01*
X133192068Y-88466842D01*
X133135000Y-88753740D01*
X133135000Y-89046260D01*
X133192068Y-89333158D01*
X133304010Y-89603411D01*
X133466525Y-89846632D01*
X133673368Y-90053475D01*
X133847760Y-90170000D01*
X133673368Y-90286525D01*
X133466525Y-90493368D01*
X133304010Y-90736589D01*
X133192068Y-91006842D01*
X133135000Y-91293740D01*
X133135000Y-91586260D01*
X133192068Y-91873158D01*
X133304010Y-92143411D01*
X133466525Y-92386632D01*
X133673368Y-92593475D01*
X133847760Y-92710000D01*
X133673368Y-92826525D01*
X133466525Y-93033368D01*
X133304010Y-93276589D01*
X133192068Y-93546842D01*
X133135000Y-93833740D01*
X133135000Y-94126260D01*
X133192068Y-94413158D01*
X133304010Y-94683411D01*
X133466525Y-94926632D01*
X133673368Y-95133475D01*
X133847760Y-95250000D01*
X133673368Y-95366525D01*
X133466525Y-95573368D01*
X133304010Y-95816589D01*
X133192068Y-96086842D01*
X133135000Y-96373740D01*
X133135000Y-96666260D01*
X133192068Y-96953158D01*
X133304010Y-97223411D01*
X133466525Y-97466632D01*
X133673368Y-97673475D01*
X133847760Y-97790000D01*
X133673368Y-97906525D01*
X133466525Y-98113368D01*
X133304010Y-98356589D01*
X133192068Y-98626842D01*
X133135000Y-98913740D01*
X133135000Y-99206260D01*
X133192068Y-99493158D01*
X133304010Y-99763411D01*
X133466525Y-100006632D01*
X133673368Y-100213475D01*
X133855534Y-100335195D01*
X133738645Y-100404822D01*
X133522412Y-100599731D01*
X133348359Y-100833080D01*
X133223175Y-101095901D01*
X133178524Y-101243110D01*
X133299845Y-101473000D01*
X134493000Y-101473000D01*
X134493000Y-101453000D01*
X134747000Y-101453000D01*
X134747000Y-101473000D01*
X135940155Y-101473000D01*
X136061476Y-101243110D01*
X136016825Y-101095901D01*
X135891641Y-100833080D01*
X135717588Y-100599731D01*
X135501355Y-100404822D01*
X135384466Y-100335195D01*
X135566632Y-100213475D01*
X135773475Y-100006632D01*
X135935990Y-99763411D01*
X136047932Y-99493158D01*
X136105000Y-99206260D01*
X136105000Y-98913740D01*
X136047932Y-98626842D01*
X135935990Y-98356589D01*
X135773475Y-98113368D01*
X135566632Y-97906525D01*
X135392240Y-97790000D01*
X135566632Y-97673475D01*
X135773475Y-97466632D01*
X135935990Y-97223411D01*
X136047932Y-96953158D01*
X136105000Y-96666260D01*
X136105000Y-96373740D01*
X136047932Y-96086842D01*
X135935990Y-95816589D01*
X135773475Y-95573368D01*
X135566632Y-95366525D01*
X135392240Y-95250000D01*
X135566632Y-95133475D01*
X135773475Y-94926632D01*
X135935990Y-94683411D01*
X136047932Y-94413158D01*
X136105000Y-94126260D01*
X136105000Y-93833740D01*
X136047932Y-93546842D01*
X135935990Y-93276589D01*
X135773475Y-93033368D01*
X135566632Y-92826525D01*
X135392240Y-92710000D01*
X135566632Y-92593475D01*
X135773475Y-92386632D01*
X135935990Y-92143411D01*
X136047932Y-91873158D01*
X136105000Y-91586260D01*
X136105000Y-91293740D01*
X136047932Y-91006842D01*
X135935990Y-90736589D01*
X135773475Y-90493368D01*
X135566632Y-90286525D01*
X135392240Y-90170000D01*
X135566632Y-90053475D01*
X135773475Y-89846632D01*
X135935990Y-89603411D01*
X136047932Y-89333158D01*
X136105000Y-89046260D01*
X136105000Y-88753740D01*
X136047932Y-88466842D01*
X135935990Y-88196589D01*
X135773475Y-87953368D01*
X135566632Y-87746525D01*
X135392240Y-87630000D01*
X135566632Y-87513475D01*
X135773475Y-87306632D01*
X135935990Y-87063411D01*
X136047932Y-86793158D01*
X136105000Y-86506260D01*
X136105000Y-86213740D01*
X136047932Y-85926842D01*
X135935990Y-85656589D01*
X135773475Y-85413368D01*
X135566632Y-85206525D01*
X135392240Y-85090000D01*
X135566632Y-84973475D01*
X135773475Y-84766632D01*
X135935990Y-84523411D01*
X136047932Y-84253158D01*
X136105000Y-83966260D01*
X136105000Y-83673740D01*
X136047932Y-83386842D01*
X135935990Y-83116589D01*
X135773475Y-82873368D01*
X135566632Y-82666525D01*
X135392240Y-82550000D01*
X135566632Y-82433475D01*
X135773475Y-82226632D01*
X135935990Y-81983411D01*
X136047932Y-81713158D01*
X136105000Y-81426260D01*
X136105000Y-81133740D01*
X136047932Y-80846842D01*
X135935990Y-80576589D01*
X135773475Y-80333368D01*
X135566632Y-80126525D01*
X135392240Y-80010000D01*
X135566632Y-79893475D01*
X135773475Y-79686632D01*
X135935990Y-79443411D01*
X136047932Y-79173158D01*
X136105000Y-78886260D01*
X136105000Y-78593740D01*
X136047932Y-78306842D01*
X135935990Y-78036589D01*
X135773475Y-77793368D01*
X135566632Y-77586525D01*
X135392240Y-77470000D01*
X135566632Y-77353475D01*
X135773475Y-77146632D01*
X135935990Y-76903411D01*
X136047932Y-76633158D01*
X136105000Y-76346260D01*
X136105000Y-76053740D01*
X136047932Y-75766842D01*
X135935990Y-75496589D01*
X135773475Y-75253368D01*
X135566632Y-75046525D01*
X135392240Y-74930000D01*
X135566632Y-74813475D01*
X135773475Y-74606632D01*
X135935990Y-74363411D01*
X136047932Y-74093158D01*
X136105000Y-73806260D01*
X136105000Y-73513740D01*
X136047932Y-73226842D01*
X135935990Y-72956589D01*
X135773475Y-72713368D01*
X135566632Y-72506525D01*
X135392240Y-72390000D01*
X135566632Y-72273475D01*
X135773475Y-72066632D01*
X135935990Y-71823411D01*
X136047932Y-71553158D01*
X136105000Y-71266260D01*
X136105000Y-70973740D01*
X136047932Y-70686842D01*
X135935990Y-70416589D01*
X135773475Y-70173368D01*
X135566632Y-69966525D01*
X135323411Y-69804010D01*
X135053158Y-69692068D01*
X134766260Y-69635000D01*
X134473740Y-69635000D01*
X134186842Y-69692068D01*
X133916589Y-69804010D01*
X133673368Y-69966525D01*
X133466525Y-70173368D01*
X133304010Y-70416589D01*
X133192068Y-70686842D01*
X133135000Y-70973740D01*
X132740000Y-70973740D01*
X132740000Y-69240000D01*
X152215330Y-69240000D01*
X169520000Y-79746407D01*
M02*
