G04 #@! TF.GenerationSoftware,KiCad,Pcbnew,(5.1.5-0-10_14)*
G04 #@! TF.CreationDate,2020-09-26T23:49:40+02:00*
G04 #@! TF.ProjectId,es_rotary,65735f72-6f74-4617-9279-2e6b69636164,rev?*
G04 #@! TF.SameCoordinates,Original*
G04 #@! TF.FileFunction,Copper,L1,Top*
G04 #@! TF.FilePolarity,Positive*
%FSLAX46Y46*%
G04 Gerber Fmt 4.6, Leading zero omitted, Abs format (unit mm)*
G04 Created by KiCad (PCBNEW (5.1.5-0-10_14)) date 2020-09-26 23:49:40*
%MOMM*%
%LPD*%
G04 APERTURE LIST*
%ADD10O,1.700000X1.700000*%
%ADD11R,1.700000X1.700000*%
%ADD12C,3.000000*%
%ADD13C,1.800000*%
%ADD14C,0.100000*%
%ADD15C,0.250000*%
%ADD16C,0.254000*%
G04 APERTURE END LIST*
D10*
X149860000Y-104140000D03*
X149860000Y-101600000D03*
X149860000Y-99060000D03*
X149860000Y-96520000D03*
X149860000Y-93980000D03*
X149860000Y-91440000D03*
X149860000Y-88900000D03*
X149860000Y-86360000D03*
X149860000Y-83820000D03*
X149860000Y-81280000D03*
X149860000Y-78740000D03*
X149860000Y-76200000D03*
X149860000Y-73660000D03*
X149860000Y-71120000D03*
D11*
X134620000Y-71120000D03*
D10*
X134620000Y-73660000D03*
X134620000Y-76200000D03*
X134620000Y-78740000D03*
X134620000Y-81280000D03*
X134620000Y-83820000D03*
X134620000Y-86360000D03*
X134620000Y-88900000D03*
X134620000Y-91440000D03*
X134620000Y-93980000D03*
X134620000Y-96520000D03*
X134620000Y-99060000D03*
X134620000Y-101600000D03*
X134620000Y-104140000D03*
D12*
X155874999Y-87630000D03*
X167074999Y-87630000D03*
D13*
X163974999Y-80630000D03*
X163974999Y-95130000D03*
X161474999Y-95130000D03*
X158974999Y-95130000D03*
X158974999Y-80630000D03*
G04 #@! TA.AperFunction,SMDPad,CuDef*
D14*
G36*
X157194505Y-99631204D02*
G01*
X157218773Y-99634804D01*
X157242572Y-99640765D01*
X157265671Y-99649030D01*
X157287850Y-99659520D01*
X157308893Y-99672132D01*
X157328599Y-99686747D01*
X157346777Y-99703223D01*
X157363253Y-99721401D01*
X157377868Y-99741107D01*
X157390480Y-99762150D01*
X157400970Y-99784329D01*
X157409235Y-99807428D01*
X157415196Y-99831227D01*
X157418796Y-99855495D01*
X157420000Y-99879999D01*
X157420000Y-100780001D01*
X157418796Y-100804505D01*
X157415196Y-100828773D01*
X157409235Y-100852572D01*
X157400970Y-100875671D01*
X157390480Y-100897850D01*
X157377868Y-100918893D01*
X157363253Y-100938599D01*
X157346777Y-100956777D01*
X157328599Y-100973253D01*
X157308893Y-100987868D01*
X157287850Y-101000480D01*
X157265671Y-101010970D01*
X157242572Y-101019235D01*
X157218773Y-101025196D01*
X157194505Y-101028796D01*
X157170001Y-101030000D01*
X156519999Y-101030000D01*
X156495495Y-101028796D01*
X156471227Y-101025196D01*
X156447428Y-101019235D01*
X156424329Y-101010970D01*
X156402150Y-101000480D01*
X156381107Y-100987868D01*
X156361401Y-100973253D01*
X156343223Y-100956777D01*
X156326747Y-100938599D01*
X156312132Y-100918893D01*
X156299520Y-100897850D01*
X156289030Y-100875671D01*
X156280765Y-100852572D01*
X156274804Y-100828773D01*
X156271204Y-100804505D01*
X156270000Y-100780001D01*
X156270000Y-99879999D01*
X156271204Y-99855495D01*
X156274804Y-99831227D01*
X156280765Y-99807428D01*
X156289030Y-99784329D01*
X156299520Y-99762150D01*
X156312132Y-99741107D01*
X156326747Y-99721401D01*
X156343223Y-99703223D01*
X156361401Y-99686747D01*
X156381107Y-99672132D01*
X156402150Y-99659520D01*
X156424329Y-99649030D01*
X156447428Y-99640765D01*
X156471227Y-99634804D01*
X156495495Y-99631204D01*
X156519999Y-99630000D01*
X157170001Y-99630000D01*
X157194505Y-99631204D01*
G37*
G04 #@! TD.AperFunction*
G04 #@! TA.AperFunction,SMDPad,CuDef*
G36*
X155144505Y-99631204D02*
G01*
X155168773Y-99634804D01*
X155192572Y-99640765D01*
X155215671Y-99649030D01*
X155237850Y-99659520D01*
X155258893Y-99672132D01*
X155278599Y-99686747D01*
X155296777Y-99703223D01*
X155313253Y-99721401D01*
X155327868Y-99741107D01*
X155340480Y-99762150D01*
X155350970Y-99784329D01*
X155359235Y-99807428D01*
X155365196Y-99831227D01*
X155368796Y-99855495D01*
X155370000Y-99879999D01*
X155370000Y-100780001D01*
X155368796Y-100804505D01*
X155365196Y-100828773D01*
X155359235Y-100852572D01*
X155350970Y-100875671D01*
X155340480Y-100897850D01*
X155327868Y-100918893D01*
X155313253Y-100938599D01*
X155296777Y-100956777D01*
X155278599Y-100973253D01*
X155258893Y-100987868D01*
X155237850Y-101000480D01*
X155215671Y-101010970D01*
X155192572Y-101019235D01*
X155168773Y-101025196D01*
X155144505Y-101028796D01*
X155120001Y-101030000D01*
X154469999Y-101030000D01*
X154445495Y-101028796D01*
X154421227Y-101025196D01*
X154397428Y-101019235D01*
X154374329Y-101010970D01*
X154352150Y-101000480D01*
X154331107Y-100987868D01*
X154311401Y-100973253D01*
X154293223Y-100956777D01*
X154276747Y-100938599D01*
X154262132Y-100918893D01*
X154249520Y-100897850D01*
X154239030Y-100875671D01*
X154230765Y-100852572D01*
X154224804Y-100828773D01*
X154221204Y-100804505D01*
X154220000Y-100780001D01*
X154220000Y-99879999D01*
X154221204Y-99855495D01*
X154224804Y-99831227D01*
X154230765Y-99807428D01*
X154239030Y-99784329D01*
X154249520Y-99762150D01*
X154262132Y-99741107D01*
X154276747Y-99721401D01*
X154293223Y-99703223D01*
X154311401Y-99686747D01*
X154331107Y-99672132D01*
X154352150Y-99659520D01*
X154374329Y-99649030D01*
X154397428Y-99640765D01*
X154421227Y-99634804D01*
X154445495Y-99631204D01*
X154469999Y-99630000D01*
X155120001Y-99630000D01*
X155144505Y-99631204D01*
G37*
G04 #@! TD.AperFunction*
G04 #@! TA.AperFunction,SMDPad,CuDef*
G36*
X157194505Y-96456204D02*
G01*
X157218773Y-96459804D01*
X157242572Y-96465765D01*
X157265671Y-96474030D01*
X157287850Y-96484520D01*
X157308893Y-96497132D01*
X157328599Y-96511747D01*
X157346777Y-96528223D01*
X157363253Y-96546401D01*
X157377868Y-96566107D01*
X157390480Y-96587150D01*
X157400970Y-96609329D01*
X157409235Y-96632428D01*
X157415196Y-96656227D01*
X157418796Y-96680495D01*
X157420000Y-96704999D01*
X157420000Y-97605001D01*
X157418796Y-97629505D01*
X157415196Y-97653773D01*
X157409235Y-97677572D01*
X157400970Y-97700671D01*
X157390480Y-97722850D01*
X157377868Y-97743893D01*
X157363253Y-97763599D01*
X157346777Y-97781777D01*
X157328599Y-97798253D01*
X157308893Y-97812868D01*
X157287850Y-97825480D01*
X157265671Y-97835970D01*
X157242572Y-97844235D01*
X157218773Y-97850196D01*
X157194505Y-97853796D01*
X157170001Y-97855000D01*
X156519999Y-97855000D01*
X156495495Y-97853796D01*
X156471227Y-97850196D01*
X156447428Y-97844235D01*
X156424329Y-97835970D01*
X156402150Y-97825480D01*
X156381107Y-97812868D01*
X156361401Y-97798253D01*
X156343223Y-97781777D01*
X156326747Y-97763599D01*
X156312132Y-97743893D01*
X156299520Y-97722850D01*
X156289030Y-97700671D01*
X156280765Y-97677572D01*
X156274804Y-97653773D01*
X156271204Y-97629505D01*
X156270000Y-97605001D01*
X156270000Y-96704999D01*
X156271204Y-96680495D01*
X156274804Y-96656227D01*
X156280765Y-96632428D01*
X156289030Y-96609329D01*
X156299520Y-96587150D01*
X156312132Y-96566107D01*
X156326747Y-96546401D01*
X156343223Y-96528223D01*
X156361401Y-96511747D01*
X156381107Y-96497132D01*
X156402150Y-96484520D01*
X156424329Y-96474030D01*
X156447428Y-96465765D01*
X156471227Y-96459804D01*
X156495495Y-96456204D01*
X156519999Y-96455000D01*
X157170001Y-96455000D01*
X157194505Y-96456204D01*
G37*
G04 #@! TD.AperFunction*
G04 #@! TA.AperFunction,SMDPad,CuDef*
G36*
X155144505Y-96456204D02*
G01*
X155168773Y-96459804D01*
X155192572Y-96465765D01*
X155215671Y-96474030D01*
X155237850Y-96484520D01*
X155258893Y-96497132D01*
X155278599Y-96511747D01*
X155296777Y-96528223D01*
X155313253Y-96546401D01*
X155327868Y-96566107D01*
X155340480Y-96587150D01*
X155350970Y-96609329D01*
X155359235Y-96632428D01*
X155365196Y-96656227D01*
X155368796Y-96680495D01*
X155370000Y-96704999D01*
X155370000Y-97605001D01*
X155368796Y-97629505D01*
X155365196Y-97653773D01*
X155359235Y-97677572D01*
X155350970Y-97700671D01*
X155340480Y-97722850D01*
X155327868Y-97743893D01*
X155313253Y-97763599D01*
X155296777Y-97781777D01*
X155278599Y-97798253D01*
X155258893Y-97812868D01*
X155237850Y-97825480D01*
X155215671Y-97835970D01*
X155192572Y-97844235D01*
X155168773Y-97850196D01*
X155144505Y-97853796D01*
X155120001Y-97855000D01*
X154469999Y-97855000D01*
X154445495Y-97853796D01*
X154421227Y-97850196D01*
X154397428Y-97844235D01*
X154374329Y-97835970D01*
X154352150Y-97825480D01*
X154331107Y-97812868D01*
X154311401Y-97798253D01*
X154293223Y-97781777D01*
X154276747Y-97763599D01*
X154262132Y-97743893D01*
X154249520Y-97722850D01*
X154239030Y-97700671D01*
X154230765Y-97677572D01*
X154224804Y-97653773D01*
X154221204Y-97629505D01*
X154220000Y-97605001D01*
X154220000Y-96704999D01*
X154221204Y-96680495D01*
X154224804Y-96656227D01*
X154230765Y-96632428D01*
X154239030Y-96609329D01*
X154249520Y-96587150D01*
X154262132Y-96566107D01*
X154276747Y-96546401D01*
X154293223Y-96528223D01*
X154311401Y-96511747D01*
X154331107Y-96497132D01*
X154352150Y-96484520D01*
X154374329Y-96474030D01*
X154397428Y-96465765D01*
X154421227Y-96459804D01*
X154445495Y-96456204D01*
X154469999Y-96455000D01*
X155120001Y-96455000D01*
X155144505Y-96456204D01*
G37*
G04 #@! TD.AperFunction*
G04 #@! TA.AperFunction,SMDPad,CuDef*
G36*
X157339505Y-77406204D02*
G01*
X157363773Y-77409804D01*
X157387572Y-77415765D01*
X157410671Y-77424030D01*
X157432850Y-77434520D01*
X157453893Y-77447132D01*
X157473599Y-77461747D01*
X157491777Y-77478223D01*
X157508253Y-77496401D01*
X157522868Y-77516107D01*
X157535480Y-77537150D01*
X157545970Y-77559329D01*
X157554235Y-77582428D01*
X157560196Y-77606227D01*
X157563796Y-77630495D01*
X157565000Y-77654999D01*
X157565000Y-78555001D01*
X157563796Y-78579505D01*
X157560196Y-78603773D01*
X157554235Y-78627572D01*
X157545970Y-78650671D01*
X157535480Y-78672850D01*
X157522868Y-78693893D01*
X157508253Y-78713599D01*
X157491777Y-78731777D01*
X157473599Y-78748253D01*
X157453893Y-78762868D01*
X157432850Y-78775480D01*
X157410671Y-78785970D01*
X157387572Y-78794235D01*
X157363773Y-78800196D01*
X157339505Y-78803796D01*
X157315001Y-78805000D01*
X156664999Y-78805000D01*
X156640495Y-78803796D01*
X156616227Y-78800196D01*
X156592428Y-78794235D01*
X156569329Y-78785970D01*
X156547150Y-78775480D01*
X156526107Y-78762868D01*
X156506401Y-78748253D01*
X156488223Y-78731777D01*
X156471747Y-78713599D01*
X156457132Y-78693893D01*
X156444520Y-78672850D01*
X156434030Y-78650671D01*
X156425765Y-78627572D01*
X156419804Y-78603773D01*
X156416204Y-78579505D01*
X156415000Y-78555001D01*
X156415000Y-77654999D01*
X156416204Y-77630495D01*
X156419804Y-77606227D01*
X156425765Y-77582428D01*
X156434030Y-77559329D01*
X156444520Y-77537150D01*
X156457132Y-77516107D01*
X156471747Y-77496401D01*
X156488223Y-77478223D01*
X156506401Y-77461747D01*
X156526107Y-77447132D01*
X156547150Y-77434520D01*
X156569329Y-77424030D01*
X156592428Y-77415765D01*
X156616227Y-77409804D01*
X156640495Y-77406204D01*
X156664999Y-77405000D01*
X157315001Y-77405000D01*
X157339505Y-77406204D01*
G37*
G04 #@! TD.AperFunction*
G04 #@! TA.AperFunction,SMDPad,CuDef*
G36*
X155289505Y-77406204D02*
G01*
X155313773Y-77409804D01*
X155337572Y-77415765D01*
X155360671Y-77424030D01*
X155382850Y-77434520D01*
X155403893Y-77447132D01*
X155423599Y-77461747D01*
X155441777Y-77478223D01*
X155458253Y-77496401D01*
X155472868Y-77516107D01*
X155485480Y-77537150D01*
X155495970Y-77559329D01*
X155504235Y-77582428D01*
X155510196Y-77606227D01*
X155513796Y-77630495D01*
X155515000Y-77654999D01*
X155515000Y-78555001D01*
X155513796Y-78579505D01*
X155510196Y-78603773D01*
X155504235Y-78627572D01*
X155495970Y-78650671D01*
X155485480Y-78672850D01*
X155472868Y-78693893D01*
X155458253Y-78713599D01*
X155441777Y-78731777D01*
X155423599Y-78748253D01*
X155403893Y-78762868D01*
X155382850Y-78775480D01*
X155360671Y-78785970D01*
X155337572Y-78794235D01*
X155313773Y-78800196D01*
X155289505Y-78803796D01*
X155265001Y-78805000D01*
X154614999Y-78805000D01*
X154590495Y-78803796D01*
X154566227Y-78800196D01*
X154542428Y-78794235D01*
X154519329Y-78785970D01*
X154497150Y-78775480D01*
X154476107Y-78762868D01*
X154456401Y-78748253D01*
X154438223Y-78731777D01*
X154421747Y-78713599D01*
X154407132Y-78693893D01*
X154394520Y-78672850D01*
X154384030Y-78650671D01*
X154375765Y-78627572D01*
X154369804Y-78603773D01*
X154366204Y-78579505D01*
X154365000Y-78555001D01*
X154365000Y-77654999D01*
X154366204Y-77630495D01*
X154369804Y-77606227D01*
X154375765Y-77582428D01*
X154384030Y-77559329D01*
X154394520Y-77537150D01*
X154407132Y-77516107D01*
X154421747Y-77496401D01*
X154438223Y-77478223D01*
X154456401Y-77461747D01*
X154476107Y-77447132D01*
X154497150Y-77434520D01*
X154519329Y-77424030D01*
X154542428Y-77415765D01*
X154566227Y-77409804D01*
X154590495Y-77406204D01*
X154614999Y-77405000D01*
X155265001Y-77405000D01*
X155289505Y-77406204D01*
G37*
G04 #@! TD.AperFunction*
D15*
X156990000Y-78645001D02*
X156990000Y-78105000D01*
X158974999Y-80630000D02*
X156990000Y-78645001D01*
X135469999Y-77890001D02*
X134620000Y-78740000D01*
X138335001Y-75024999D02*
X135469999Y-77890001D01*
X156528190Y-78105000D02*
X153448189Y-75024999D01*
X153448189Y-75024999D02*
X138335001Y-75024999D01*
X156990000Y-78105000D02*
X156528190Y-78105000D01*
X158774999Y-100330000D02*
X156845000Y-100330000D01*
X163974999Y-95130000D02*
X158774999Y-100330000D01*
X150709999Y-97369999D02*
X149860000Y-96520000D01*
X151520010Y-98180010D02*
X150709999Y-97369999D01*
X155395010Y-98180010D02*
X151520010Y-98180010D01*
X156845000Y-99630000D02*
X155395010Y-98180010D01*
X156845000Y-100330000D02*
X156845000Y-99630000D01*
X157420000Y-97155000D02*
X156845000Y-97155000D01*
X158222791Y-97155000D02*
X157420000Y-97155000D01*
X158974999Y-96402792D02*
X158222791Y-97155000D01*
X158974999Y-95130000D02*
X158974999Y-96402792D01*
X154370000Y-93980000D02*
X151062081Y-93980000D01*
X156845000Y-96455000D02*
X154370000Y-93980000D01*
X151062081Y-93980000D02*
X149860000Y-93980000D01*
X156845000Y-97155000D02*
X156845000Y-96455000D01*
X153735000Y-76200000D02*
X154940000Y-77405000D01*
X154940000Y-77405000D02*
X154940000Y-78105000D01*
X149860000Y-76200000D02*
X153735000Y-76200000D01*
X154795000Y-96455000D02*
X154795000Y-97155000D01*
X153684999Y-95344999D02*
X154795000Y-96455000D01*
X148684999Y-94544001D02*
X149485997Y-95344999D01*
X149485997Y-95344999D02*
X153684999Y-95344999D01*
X149860000Y-76200000D02*
X148684999Y-77375001D01*
X149295999Y-97695001D02*
X148590000Y-96989002D01*
X150398591Y-97695001D02*
X149295999Y-97695001D01*
X148590000Y-96989002D02*
X148590000Y-92075000D01*
X154795000Y-100330000D02*
X153033590Y-100330000D01*
X153033590Y-100330000D02*
X150398591Y-97695001D01*
X148590000Y-92075000D02*
X148684999Y-94544001D01*
X148684999Y-77375001D02*
X148590000Y-92075000D01*
D16*
G36*
X169520000Y-79746407D02*
G01*
X169520001Y-95513592D01*
X152215330Y-106020000D01*
X132740000Y-106020000D01*
X132740000Y-71970000D01*
X133131928Y-71970000D01*
X133144188Y-72094482D01*
X133180498Y-72214180D01*
X133239463Y-72324494D01*
X133318815Y-72421185D01*
X133415506Y-72500537D01*
X133525820Y-72559502D01*
X133598380Y-72581513D01*
X133466525Y-72713368D01*
X133304010Y-72956589D01*
X133192068Y-73226842D01*
X133135000Y-73513740D01*
X133135000Y-73806260D01*
X133192068Y-74093158D01*
X133304010Y-74363411D01*
X133466525Y-74606632D01*
X133673368Y-74813475D01*
X133847760Y-74930000D01*
X133673368Y-75046525D01*
X133466525Y-75253368D01*
X133304010Y-75496589D01*
X133192068Y-75766842D01*
X133135000Y-76053740D01*
X133135000Y-76346260D01*
X133192068Y-76633158D01*
X133304010Y-76903411D01*
X133466525Y-77146632D01*
X133673368Y-77353475D01*
X133847760Y-77470000D01*
X133673368Y-77586525D01*
X133466525Y-77793368D01*
X133304010Y-78036589D01*
X133192068Y-78306842D01*
X133135000Y-78593740D01*
X133135000Y-78886260D01*
X133192068Y-79173158D01*
X133304010Y-79443411D01*
X133466525Y-79686632D01*
X133673368Y-79893475D01*
X133847760Y-80010000D01*
X133673368Y-80126525D01*
X133466525Y-80333368D01*
X133304010Y-80576589D01*
X133192068Y-80846842D01*
X133135000Y-81133740D01*
X133135000Y-81426260D01*
X133192068Y-81713158D01*
X133304010Y-81983411D01*
X133466525Y-82226632D01*
X133673368Y-82433475D01*
X133847760Y-82550000D01*
X133673368Y-82666525D01*
X133466525Y-82873368D01*
X133304010Y-83116589D01*
X133192068Y-83386842D01*
X133135000Y-83673740D01*
X133135000Y-83966260D01*
X133192068Y-84253158D01*
X133304010Y-84523411D01*
X133466525Y-84766632D01*
X133673368Y-84973475D01*
X133847760Y-85090000D01*
X133673368Y-85206525D01*
X133466525Y-85413368D01*
X133304010Y-85656589D01*
X133192068Y-85926842D01*
X133135000Y-86213740D01*
X133135000Y-86506260D01*
X133192068Y-86793158D01*
X133304010Y-87063411D01*
X133466525Y-87306632D01*
X133673368Y-87513475D01*
X133847760Y-87630000D01*
X133673368Y-87746525D01*
X133466525Y-87953368D01*
X133304010Y-88196589D01*
X133192068Y-88466842D01*
X133135000Y-88753740D01*
X133135000Y-89046260D01*
X133192068Y-89333158D01*
X133304010Y-89603411D01*
X133466525Y-89846632D01*
X133673368Y-90053475D01*
X133847760Y-90170000D01*
X133673368Y-90286525D01*
X133466525Y-90493368D01*
X133304010Y-90736589D01*
X133192068Y-91006842D01*
X133135000Y-91293740D01*
X133135000Y-91586260D01*
X133192068Y-91873158D01*
X133304010Y-92143411D01*
X133466525Y-92386632D01*
X133673368Y-92593475D01*
X133847760Y-92710000D01*
X133673368Y-92826525D01*
X133466525Y-93033368D01*
X133304010Y-93276589D01*
X133192068Y-93546842D01*
X133135000Y-93833740D01*
X133135000Y-94126260D01*
X133192068Y-94413158D01*
X133304010Y-94683411D01*
X133466525Y-94926632D01*
X133673368Y-95133475D01*
X133847760Y-95250000D01*
X133673368Y-95366525D01*
X133466525Y-95573368D01*
X133304010Y-95816589D01*
X133192068Y-96086842D01*
X133135000Y-96373740D01*
X133135000Y-96666260D01*
X133192068Y-96953158D01*
X133304010Y-97223411D01*
X133466525Y-97466632D01*
X133673368Y-97673475D01*
X133847760Y-97790000D01*
X133673368Y-97906525D01*
X133466525Y-98113368D01*
X133304010Y-98356589D01*
X133192068Y-98626842D01*
X133135000Y-98913740D01*
X133135000Y-99206260D01*
X133192068Y-99493158D01*
X133304010Y-99763411D01*
X133466525Y-100006632D01*
X133673368Y-100213475D01*
X133847760Y-100330000D01*
X133673368Y-100446525D01*
X133466525Y-100653368D01*
X133304010Y-100896589D01*
X133192068Y-101166842D01*
X133135000Y-101453740D01*
X133135000Y-101746260D01*
X133192068Y-102033158D01*
X133304010Y-102303411D01*
X133466525Y-102546632D01*
X133673368Y-102753475D01*
X133847760Y-102870000D01*
X133673368Y-102986525D01*
X133466525Y-103193368D01*
X133304010Y-103436589D01*
X133192068Y-103706842D01*
X133135000Y-103993740D01*
X133135000Y-104286260D01*
X133192068Y-104573158D01*
X133304010Y-104843411D01*
X133466525Y-105086632D01*
X133673368Y-105293475D01*
X133916589Y-105455990D01*
X134186842Y-105567932D01*
X134473740Y-105625000D01*
X134766260Y-105625000D01*
X135053158Y-105567932D01*
X135323411Y-105455990D01*
X135566632Y-105293475D01*
X135773475Y-105086632D01*
X135935990Y-104843411D01*
X136047932Y-104573158D01*
X136105000Y-104286260D01*
X136105000Y-103993740D01*
X136047932Y-103706842D01*
X135935990Y-103436589D01*
X135773475Y-103193368D01*
X135566632Y-102986525D01*
X135392240Y-102870000D01*
X135566632Y-102753475D01*
X135773475Y-102546632D01*
X135935990Y-102303411D01*
X136047932Y-102033158D01*
X136105000Y-101746260D01*
X136105000Y-101453740D01*
X136047932Y-101166842D01*
X135935990Y-100896589D01*
X135773475Y-100653368D01*
X135566632Y-100446525D01*
X135392240Y-100330000D01*
X135566632Y-100213475D01*
X135773475Y-100006632D01*
X135935990Y-99763411D01*
X136047932Y-99493158D01*
X136105000Y-99206260D01*
X136105000Y-98913740D01*
X136047932Y-98626842D01*
X135935990Y-98356589D01*
X135773475Y-98113368D01*
X135566632Y-97906525D01*
X135392240Y-97790000D01*
X135566632Y-97673475D01*
X135773475Y-97466632D01*
X135935990Y-97223411D01*
X136047932Y-96953158D01*
X136105000Y-96666260D01*
X136105000Y-96373740D01*
X136047932Y-96086842D01*
X135935990Y-95816589D01*
X135773475Y-95573368D01*
X135566632Y-95366525D01*
X135392240Y-95250000D01*
X135566632Y-95133475D01*
X135773475Y-94926632D01*
X135935990Y-94683411D01*
X136047932Y-94413158D01*
X136105000Y-94126260D01*
X136105000Y-93833740D01*
X136047932Y-93546842D01*
X135935990Y-93276589D01*
X135773475Y-93033368D01*
X135566632Y-92826525D01*
X135392240Y-92710000D01*
X135566632Y-92593475D01*
X135773475Y-92386632D01*
X135935990Y-92143411D01*
X136047932Y-91873158D01*
X136105000Y-91586260D01*
X136105000Y-91293740D01*
X136047932Y-91006842D01*
X135935990Y-90736589D01*
X135773475Y-90493368D01*
X135566632Y-90286525D01*
X135392240Y-90170000D01*
X135566632Y-90053475D01*
X135773475Y-89846632D01*
X135935990Y-89603411D01*
X136047932Y-89333158D01*
X136105000Y-89046260D01*
X136105000Y-88753740D01*
X136047932Y-88466842D01*
X135935990Y-88196589D01*
X135773475Y-87953368D01*
X135566632Y-87746525D01*
X135392240Y-87630000D01*
X135566632Y-87513475D01*
X135773475Y-87306632D01*
X135935990Y-87063411D01*
X136047932Y-86793158D01*
X136105000Y-86506260D01*
X136105000Y-86213740D01*
X136047932Y-85926842D01*
X135935990Y-85656589D01*
X135773475Y-85413368D01*
X135566632Y-85206525D01*
X135392240Y-85090000D01*
X135566632Y-84973475D01*
X135773475Y-84766632D01*
X135935990Y-84523411D01*
X136047932Y-84253158D01*
X136105000Y-83966260D01*
X136105000Y-83673740D01*
X136047932Y-83386842D01*
X135935990Y-83116589D01*
X135773475Y-82873368D01*
X135566632Y-82666525D01*
X135392240Y-82550000D01*
X135566632Y-82433475D01*
X135773475Y-82226632D01*
X135935990Y-81983411D01*
X136047932Y-81713158D01*
X136105000Y-81426260D01*
X136105000Y-81133740D01*
X136047932Y-80846842D01*
X135935990Y-80576589D01*
X135773475Y-80333368D01*
X135566632Y-80126525D01*
X135392240Y-80010000D01*
X135566632Y-79893475D01*
X135773475Y-79686632D01*
X135935990Y-79443411D01*
X136047932Y-79173158D01*
X136105000Y-78886260D01*
X136105000Y-78593740D01*
X136061209Y-78373592D01*
X138649803Y-75784999D01*
X148428456Y-75784999D01*
X148375000Y-76053740D01*
X148375000Y-76346260D01*
X148418791Y-76566408D01*
X148175739Y-76809460D01*
X148148499Y-76831522D01*
X148122939Y-76862260D01*
X148121200Y-76863999D01*
X148099046Y-76890993D01*
X148052781Y-76946631D01*
X148051601Y-76948805D01*
X148050025Y-76950725D01*
X148015849Y-77014664D01*
X147981357Y-77078201D01*
X147980623Y-77080567D01*
X147979453Y-77082755D01*
X147958441Y-77152026D01*
X147936975Y-77221178D01*
X147936716Y-77223646D01*
X147935997Y-77226016D01*
X147928904Y-77298027D01*
X147925257Y-77332758D01*
X147925241Y-77335221D01*
X147921323Y-77375001D01*
X147924759Y-77409882D01*
X147830242Y-92035225D01*
X147830001Y-92037667D01*
X147830001Y-92052298D01*
X147829127Y-92066916D01*
X147829906Y-92087160D01*
X147829775Y-92107420D01*
X147830001Y-92109877D01*
X147830000Y-96951679D01*
X147826324Y-96989002D01*
X147830000Y-97026324D01*
X147830000Y-97026334D01*
X147840997Y-97137987D01*
X147865474Y-97218677D01*
X147884454Y-97281248D01*
X147955026Y-97413278D01*
X147969577Y-97431008D01*
X148049999Y-97529003D01*
X148079002Y-97552805D01*
X148679704Y-98153508D01*
X148544010Y-98356589D01*
X148432068Y-98626842D01*
X148375000Y-98913740D01*
X148375000Y-99206260D01*
X148432068Y-99493158D01*
X148544010Y-99763411D01*
X148706525Y-100006632D01*
X148913368Y-100213475D01*
X149087760Y-100330000D01*
X148913368Y-100446525D01*
X148706525Y-100653368D01*
X148544010Y-100896589D01*
X148432068Y-101166842D01*
X148375000Y-101453740D01*
X148375000Y-101746260D01*
X148432068Y-102033158D01*
X148544010Y-102303411D01*
X148706525Y-102546632D01*
X148913368Y-102753475D01*
X149087760Y-102870000D01*
X148913368Y-102986525D01*
X148706525Y-103193368D01*
X148544010Y-103436589D01*
X148432068Y-103706842D01*
X148375000Y-103993740D01*
X148375000Y-104286260D01*
X148432068Y-104573158D01*
X148544010Y-104843411D01*
X148706525Y-105086632D01*
X148913368Y-105293475D01*
X149156589Y-105455990D01*
X149426842Y-105567932D01*
X149713740Y-105625000D01*
X150006260Y-105625000D01*
X150293158Y-105567932D01*
X150563411Y-105455990D01*
X150806632Y-105293475D01*
X151013475Y-105086632D01*
X151175990Y-104843411D01*
X151287932Y-104573158D01*
X151345000Y-104286260D01*
X151345000Y-103993740D01*
X151287932Y-103706842D01*
X151175990Y-103436589D01*
X151013475Y-103193368D01*
X150806632Y-102986525D01*
X150632240Y-102870000D01*
X150806632Y-102753475D01*
X151013475Y-102546632D01*
X151175990Y-102303411D01*
X151287932Y-102033158D01*
X151345000Y-101746260D01*
X151345000Y-101453740D01*
X151287932Y-101166842D01*
X151175990Y-100896589D01*
X151013475Y-100653368D01*
X150806632Y-100446525D01*
X150632240Y-100330000D01*
X150806632Y-100213475D01*
X151013475Y-100006632D01*
X151175990Y-99763411D01*
X151239316Y-99610528D01*
X152469791Y-100841003D01*
X152493589Y-100870001D01*
X152609314Y-100964974D01*
X152741343Y-101035546D01*
X152884604Y-101079003D01*
X152996257Y-101090000D01*
X152996266Y-101090000D01*
X153033589Y-101093676D01*
X153070912Y-101090000D01*
X153640473Y-101090000D01*
X153649528Y-101119851D01*
X153731595Y-101273387D01*
X153842038Y-101407962D01*
X153976613Y-101518405D01*
X154130149Y-101600472D01*
X154296745Y-101651008D01*
X154469999Y-101668072D01*
X155120001Y-101668072D01*
X155293255Y-101651008D01*
X155459851Y-101600472D01*
X155613387Y-101518405D01*
X155747962Y-101407962D01*
X155820000Y-101320184D01*
X155892038Y-101407962D01*
X156026613Y-101518405D01*
X156180149Y-101600472D01*
X156346745Y-101651008D01*
X156519999Y-101668072D01*
X157170001Y-101668072D01*
X157343255Y-101651008D01*
X157509851Y-101600472D01*
X157663387Y-101518405D01*
X157797962Y-101407962D01*
X157908405Y-101273387D01*
X157990472Y-101119851D01*
X157999527Y-101090000D01*
X158737677Y-101090000D01*
X158774999Y-101093676D01*
X158812321Y-101090000D01*
X158812332Y-101090000D01*
X158923985Y-101079003D01*
X159067246Y-101035546D01*
X159199275Y-100964974D01*
X159315000Y-100870001D01*
X159338803Y-100840997D01*
X163566069Y-96613731D01*
X163823815Y-96665000D01*
X164126183Y-96665000D01*
X164422742Y-96606011D01*
X164702094Y-96490299D01*
X164953504Y-96322312D01*
X165167311Y-96108505D01*
X165335298Y-95857095D01*
X165451010Y-95577743D01*
X165509999Y-95281184D01*
X165509999Y-94978816D01*
X165451010Y-94682257D01*
X165335298Y-94402905D01*
X165167311Y-94151495D01*
X164953504Y-93937688D01*
X164702094Y-93769701D01*
X164422742Y-93653989D01*
X164126183Y-93595000D01*
X163823815Y-93595000D01*
X163527256Y-93653989D01*
X163247904Y-93769701D01*
X162996494Y-93937688D01*
X162782687Y-94151495D01*
X162687261Y-94294310D01*
X162539079Y-94245525D01*
X161654604Y-95130000D01*
X161668747Y-95144143D01*
X161489142Y-95323748D01*
X161474999Y-95309605D01*
X160590524Y-96194080D01*
X160674207Y-96448261D01*
X160946774Y-96579158D01*
X161239641Y-96654365D01*
X161368724Y-96661473D01*
X158460198Y-99570000D01*
X157999527Y-99570000D01*
X157990472Y-99540149D01*
X157908405Y-99386613D01*
X157797962Y-99252038D01*
X157663387Y-99141595D01*
X157509851Y-99059528D01*
X157343255Y-99008992D01*
X157293936Y-99004135D01*
X156782874Y-98493072D01*
X157170001Y-98493072D01*
X157343255Y-98476008D01*
X157509851Y-98425472D01*
X157663387Y-98343405D01*
X157797962Y-98232962D01*
X157908405Y-98098387D01*
X157990472Y-97944851D01*
X157999527Y-97915000D01*
X158185469Y-97915000D01*
X158222791Y-97918676D01*
X158260113Y-97915000D01*
X158260124Y-97915000D01*
X158371777Y-97904003D01*
X158515038Y-97860546D01*
X158647067Y-97789974D01*
X158762792Y-97695001D01*
X158786594Y-97665998D01*
X159486001Y-96966591D01*
X159515000Y-96942793D01*
X159609973Y-96827068D01*
X159680545Y-96695039D01*
X159724002Y-96551778D01*
X159732027Y-96470298D01*
X159953504Y-96322312D01*
X160167311Y-96108505D01*
X160262737Y-95965690D01*
X160410919Y-96014475D01*
X161295394Y-95130000D01*
X160410919Y-94245525D01*
X160262737Y-94294310D01*
X160167311Y-94151495D01*
X160081736Y-94065920D01*
X160590524Y-94065920D01*
X161474999Y-94950395D01*
X162359474Y-94065920D01*
X162275791Y-93811739D01*
X162003224Y-93680842D01*
X161710357Y-93605635D01*
X161408446Y-93589009D01*
X161109092Y-93631603D01*
X160823800Y-93731778D01*
X160674207Y-93811739D01*
X160590524Y-94065920D01*
X160081736Y-94065920D01*
X159953504Y-93937688D01*
X159702094Y-93769701D01*
X159422742Y-93653989D01*
X159126183Y-93595000D01*
X158823815Y-93595000D01*
X158527256Y-93653989D01*
X158247904Y-93769701D01*
X157996494Y-93937688D01*
X157782687Y-94151495D01*
X157614700Y-94402905D01*
X157498988Y-94682257D01*
X157439999Y-94978816D01*
X157439999Y-95281184D01*
X157498988Y-95577743D01*
X157614700Y-95857095D01*
X157717587Y-96011076D01*
X157663387Y-95966595D01*
X157509851Y-95884528D01*
X157343255Y-95833992D01*
X157293937Y-95829135D01*
X154933804Y-93469003D01*
X154910001Y-93439999D01*
X154794276Y-93345026D01*
X154662247Y-93274454D01*
X154518986Y-93230997D01*
X154407333Y-93220000D01*
X154407322Y-93220000D01*
X154370000Y-93216324D01*
X154332678Y-93220000D01*
X151138178Y-93220000D01*
X151013475Y-93033368D01*
X150806632Y-92826525D01*
X150632240Y-92710000D01*
X150806632Y-92593475D01*
X151013475Y-92386632D01*
X151175990Y-92143411D01*
X151287932Y-91873158D01*
X151345000Y-91586260D01*
X151345000Y-91293740D01*
X151287932Y-91006842D01*
X151175990Y-90736589D01*
X151013475Y-90493368D01*
X150806632Y-90286525D01*
X150632240Y-90170000D01*
X150806632Y-90053475D01*
X151013475Y-89846632D01*
X151175990Y-89603411D01*
X151287932Y-89333158D01*
X151345000Y-89046260D01*
X151345000Y-88753740D01*
X151287932Y-88466842D01*
X151175990Y-88196589D01*
X151013475Y-87953368D01*
X150806632Y-87746525D01*
X150632240Y-87630000D01*
X150806632Y-87513475D01*
X150900386Y-87419721D01*
X153739999Y-87419721D01*
X153739999Y-87840279D01*
X153822046Y-88252756D01*
X153982987Y-88641302D01*
X154216636Y-88990983D01*
X154514016Y-89288363D01*
X154863697Y-89522012D01*
X155252243Y-89682953D01*
X155664720Y-89765000D01*
X156085278Y-89765000D01*
X156497755Y-89682953D01*
X156886301Y-89522012D01*
X157235982Y-89288363D01*
X157533362Y-88990983D01*
X157767011Y-88641302D01*
X157927952Y-88252756D01*
X158009999Y-87840279D01*
X158009999Y-87419721D01*
X164939999Y-87419721D01*
X164939999Y-87840279D01*
X165022046Y-88252756D01*
X165182987Y-88641302D01*
X165416636Y-88990983D01*
X165714016Y-89288363D01*
X166063697Y-89522012D01*
X166452243Y-89682953D01*
X166864720Y-89765000D01*
X167285278Y-89765000D01*
X167697755Y-89682953D01*
X168086301Y-89522012D01*
X168435982Y-89288363D01*
X168733362Y-88990983D01*
X168967011Y-88641302D01*
X169127952Y-88252756D01*
X169209999Y-87840279D01*
X169209999Y-87419721D01*
X169127952Y-87007244D01*
X168967011Y-86618698D01*
X168733362Y-86269017D01*
X168435982Y-85971637D01*
X168086301Y-85737988D01*
X167697755Y-85577047D01*
X167285278Y-85495000D01*
X166864720Y-85495000D01*
X166452243Y-85577047D01*
X166063697Y-85737988D01*
X165714016Y-85971637D01*
X165416636Y-86269017D01*
X165182987Y-86618698D01*
X165022046Y-87007244D01*
X164939999Y-87419721D01*
X158009999Y-87419721D01*
X157927952Y-87007244D01*
X157767011Y-86618698D01*
X157533362Y-86269017D01*
X157235982Y-85971637D01*
X156886301Y-85737988D01*
X156497755Y-85577047D01*
X156085278Y-85495000D01*
X155664720Y-85495000D01*
X155252243Y-85577047D01*
X154863697Y-85737988D01*
X154514016Y-85971637D01*
X154216636Y-86269017D01*
X153982987Y-86618698D01*
X153822046Y-87007244D01*
X153739999Y-87419721D01*
X150900386Y-87419721D01*
X151013475Y-87306632D01*
X151175990Y-87063411D01*
X151287932Y-86793158D01*
X151345000Y-86506260D01*
X151345000Y-86213740D01*
X151287932Y-85926842D01*
X151175990Y-85656589D01*
X151013475Y-85413368D01*
X150806632Y-85206525D01*
X150632240Y-85090000D01*
X150806632Y-84973475D01*
X151013475Y-84766632D01*
X151175990Y-84523411D01*
X151287932Y-84253158D01*
X151345000Y-83966260D01*
X151345000Y-83673740D01*
X151287932Y-83386842D01*
X151175990Y-83116589D01*
X151013475Y-82873368D01*
X150806632Y-82666525D01*
X150632240Y-82550000D01*
X150806632Y-82433475D01*
X151013475Y-82226632D01*
X151175990Y-81983411D01*
X151287932Y-81713158D01*
X151345000Y-81426260D01*
X151345000Y-81133740D01*
X151287932Y-80846842D01*
X151175990Y-80576589D01*
X151013475Y-80333368D01*
X150806632Y-80126525D01*
X150632240Y-80010000D01*
X150806632Y-79893475D01*
X151013475Y-79686632D01*
X151175990Y-79443411D01*
X151287932Y-79173158D01*
X151345000Y-78886260D01*
X151345000Y-78593740D01*
X151287932Y-78306842D01*
X151175990Y-78036589D01*
X151013475Y-77793368D01*
X150806632Y-77586525D01*
X150632240Y-77470000D01*
X150806632Y-77353475D01*
X151013475Y-77146632D01*
X151138178Y-76960000D01*
X153420199Y-76960000D01*
X153790064Y-77329865D01*
X153743992Y-77481745D01*
X153726928Y-77654999D01*
X153726928Y-78555001D01*
X153743992Y-78728255D01*
X153794528Y-78894851D01*
X153876595Y-79048387D01*
X153987038Y-79182962D01*
X154121613Y-79293405D01*
X154275149Y-79375472D01*
X154441745Y-79426008D01*
X154614999Y-79443072D01*
X155265001Y-79443072D01*
X155438255Y-79426008D01*
X155604851Y-79375472D01*
X155758387Y-79293405D01*
X155892962Y-79182962D01*
X155965000Y-79095184D01*
X156037038Y-79182962D01*
X156171613Y-79293405D01*
X156325149Y-79375472D01*
X156491745Y-79426008D01*
X156664999Y-79443072D01*
X156713270Y-79443072D01*
X157491268Y-80221070D01*
X157439999Y-80478816D01*
X157439999Y-80781184D01*
X157498988Y-81077743D01*
X157614700Y-81357095D01*
X157782687Y-81608505D01*
X157996494Y-81822312D01*
X158247904Y-81990299D01*
X158527256Y-82106011D01*
X158823815Y-82165000D01*
X159126183Y-82165000D01*
X159422742Y-82106011D01*
X159702094Y-81990299D01*
X159953504Y-81822312D01*
X160081736Y-81694080D01*
X163090524Y-81694080D01*
X163174207Y-81948261D01*
X163446774Y-82079158D01*
X163739641Y-82154365D01*
X164041552Y-82170991D01*
X164340906Y-82128397D01*
X164626198Y-82028222D01*
X164775791Y-81948261D01*
X164859474Y-81694080D01*
X163974999Y-80809605D01*
X163090524Y-81694080D01*
X160081736Y-81694080D01*
X160167311Y-81608505D01*
X160335298Y-81357095D01*
X160451010Y-81077743D01*
X160509999Y-80781184D01*
X160509999Y-80696553D01*
X162434008Y-80696553D01*
X162476602Y-80995907D01*
X162576777Y-81281199D01*
X162656738Y-81430792D01*
X162910919Y-81514475D01*
X163795394Y-80630000D01*
X164154604Y-80630000D01*
X165039079Y-81514475D01*
X165293260Y-81430792D01*
X165424157Y-81158225D01*
X165499364Y-80865358D01*
X165515990Y-80563447D01*
X165473396Y-80264093D01*
X165373221Y-79978801D01*
X165293260Y-79829208D01*
X165039079Y-79745525D01*
X164154604Y-80630000D01*
X163795394Y-80630000D01*
X162910919Y-79745525D01*
X162656738Y-79829208D01*
X162525841Y-80101775D01*
X162450634Y-80394642D01*
X162434008Y-80696553D01*
X160509999Y-80696553D01*
X160509999Y-80478816D01*
X160451010Y-80182257D01*
X160335298Y-79902905D01*
X160167311Y-79651495D01*
X160081736Y-79565920D01*
X163090524Y-79565920D01*
X163974999Y-80450395D01*
X164859474Y-79565920D01*
X164775791Y-79311739D01*
X164503224Y-79180842D01*
X164210357Y-79105635D01*
X163908446Y-79089009D01*
X163609092Y-79131603D01*
X163323800Y-79231778D01*
X163174207Y-79311739D01*
X163090524Y-79565920D01*
X160081736Y-79565920D01*
X159953504Y-79437688D01*
X159702094Y-79269701D01*
X159422742Y-79153989D01*
X159126183Y-79095000D01*
X158823815Y-79095000D01*
X158566069Y-79146269D01*
X158177175Y-78757374D01*
X158186008Y-78728255D01*
X158203072Y-78555001D01*
X158203072Y-77654999D01*
X158186008Y-77481745D01*
X158135472Y-77315149D01*
X158053405Y-77161613D01*
X157942962Y-77027038D01*
X157808387Y-76916595D01*
X157654851Y-76834528D01*
X157488255Y-76783992D01*
X157315001Y-76766928D01*
X156664999Y-76766928D01*
X156491745Y-76783992D01*
X156330804Y-76832813D01*
X154011993Y-74514002D01*
X153988190Y-74484998D01*
X153872465Y-74390025D01*
X153740436Y-74319453D01*
X153597175Y-74275996D01*
X153485522Y-74264999D01*
X153485511Y-74264999D01*
X153448189Y-74261323D01*
X153410867Y-74264999D01*
X151208765Y-74264999D01*
X151256825Y-74164099D01*
X151301476Y-74016890D01*
X151180155Y-73787000D01*
X149987000Y-73787000D01*
X149987000Y-73807000D01*
X149733000Y-73807000D01*
X149733000Y-73787000D01*
X148539845Y-73787000D01*
X148418524Y-74016890D01*
X148463175Y-74164099D01*
X148511235Y-74264999D01*
X138372326Y-74264999D01*
X138335001Y-74261323D01*
X138297676Y-74264999D01*
X138297668Y-74264999D01*
X138186015Y-74275996D01*
X138042754Y-74319453D01*
X137910725Y-74390025D01*
X137795000Y-74484998D01*
X137771202Y-74513996D01*
X136105000Y-76180199D01*
X136105000Y-76053740D01*
X136047932Y-75766842D01*
X135935990Y-75496589D01*
X135773475Y-75253368D01*
X135566632Y-75046525D01*
X135392240Y-74930000D01*
X135566632Y-74813475D01*
X135773475Y-74606632D01*
X135935990Y-74363411D01*
X136047932Y-74093158D01*
X136105000Y-73806260D01*
X136105000Y-73513740D01*
X136047932Y-73226842D01*
X135935990Y-72956589D01*
X135773475Y-72713368D01*
X135641620Y-72581513D01*
X135714180Y-72559502D01*
X135824494Y-72500537D01*
X135921185Y-72421185D01*
X136000537Y-72324494D01*
X136059502Y-72214180D01*
X136095812Y-72094482D01*
X136108072Y-71970000D01*
X136105000Y-71405750D01*
X135946250Y-71247000D01*
X134747000Y-71247000D01*
X134747000Y-71267000D01*
X134493000Y-71267000D01*
X134493000Y-71247000D01*
X133293750Y-71247000D01*
X133135000Y-71405750D01*
X133131928Y-71970000D01*
X132740000Y-71970000D01*
X132740000Y-70270000D01*
X133131928Y-70270000D01*
X133135000Y-70834250D01*
X133293750Y-70993000D01*
X134493000Y-70993000D01*
X134493000Y-69793750D01*
X134747000Y-69793750D01*
X134747000Y-70993000D01*
X135946250Y-70993000D01*
X135965510Y-70973740D01*
X148375000Y-70973740D01*
X148375000Y-71266260D01*
X148432068Y-71553158D01*
X148544010Y-71823411D01*
X148706525Y-72066632D01*
X148913368Y-72273475D01*
X149095534Y-72395195D01*
X148978645Y-72464822D01*
X148762412Y-72659731D01*
X148588359Y-72893080D01*
X148463175Y-73155901D01*
X148418524Y-73303110D01*
X148539845Y-73533000D01*
X149733000Y-73533000D01*
X149733000Y-73513000D01*
X149987000Y-73513000D01*
X149987000Y-73533000D01*
X151180155Y-73533000D01*
X151301476Y-73303110D01*
X151256825Y-73155901D01*
X151131641Y-72893080D01*
X150957588Y-72659731D01*
X150741355Y-72464822D01*
X150624466Y-72395195D01*
X150806632Y-72273475D01*
X151013475Y-72066632D01*
X151175990Y-71823411D01*
X151287932Y-71553158D01*
X151345000Y-71266260D01*
X151345000Y-70973740D01*
X151287932Y-70686842D01*
X151175990Y-70416589D01*
X151013475Y-70173368D01*
X150806632Y-69966525D01*
X150563411Y-69804010D01*
X150293158Y-69692068D01*
X150006260Y-69635000D01*
X149713740Y-69635000D01*
X149426842Y-69692068D01*
X149156589Y-69804010D01*
X148913368Y-69966525D01*
X148706525Y-70173368D01*
X148544010Y-70416589D01*
X148432068Y-70686842D01*
X148375000Y-70973740D01*
X135965510Y-70973740D01*
X136105000Y-70834250D01*
X136108072Y-70270000D01*
X136095812Y-70145518D01*
X136059502Y-70025820D01*
X136000537Y-69915506D01*
X135921185Y-69818815D01*
X135824494Y-69739463D01*
X135714180Y-69680498D01*
X135594482Y-69644188D01*
X135470000Y-69631928D01*
X134905750Y-69635000D01*
X134747000Y-69793750D01*
X134493000Y-69793750D01*
X134334250Y-69635000D01*
X133770000Y-69631928D01*
X133645518Y-69644188D01*
X133525820Y-69680498D01*
X133415506Y-69739463D01*
X133318815Y-69818815D01*
X133239463Y-69915506D01*
X133180498Y-70025820D01*
X133144188Y-70145518D01*
X133131928Y-70270000D01*
X132740000Y-70270000D01*
X132740000Y-69240000D01*
X152215330Y-69240000D01*
X169520000Y-79746407D01*
G37*
X169520000Y-79746407D02*
X169520001Y-95513592D01*
X152215330Y-106020000D01*
X132740000Y-106020000D01*
X132740000Y-71970000D01*
X133131928Y-71970000D01*
X133144188Y-72094482D01*
X133180498Y-72214180D01*
X133239463Y-72324494D01*
X133318815Y-72421185D01*
X133415506Y-72500537D01*
X133525820Y-72559502D01*
X133598380Y-72581513D01*
X133466525Y-72713368D01*
X133304010Y-72956589D01*
X133192068Y-73226842D01*
X133135000Y-73513740D01*
X133135000Y-73806260D01*
X133192068Y-74093158D01*
X133304010Y-74363411D01*
X133466525Y-74606632D01*
X133673368Y-74813475D01*
X133847760Y-74930000D01*
X133673368Y-75046525D01*
X133466525Y-75253368D01*
X133304010Y-75496589D01*
X133192068Y-75766842D01*
X133135000Y-76053740D01*
X133135000Y-76346260D01*
X133192068Y-76633158D01*
X133304010Y-76903411D01*
X133466525Y-77146632D01*
X133673368Y-77353475D01*
X133847760Y-77470000D01*
X133673368Y-77586525D01*
X133466525Y-77793368D01*
X133304010Y-78036589D01*
X133192068Y-78306842D01*
X133135000Y-78593740D01*
X133135000Y-78886260D01*
X133192068Y-79173158D01*
X133304010Y-79443411D01*
X133466525Y-79686632D01*
X133673368Y-79893475D01*
X133847760Y-80010000D01*
X133673368Y-80126525D01*
X133466525Y-80333368D01*
X133304010Y-80576589D01*
X133192068Y-80846842D01*
X133135000Y-81133740D01*
X133135000Y-81426260D01*
X133192068Y-81713158D01*
X133304010Y-81983411D01*
X133466525Y-82226632D01*
X133673368Y-82433475D01*
X133847760Y-82550000D01*
X133673368Y-82666525D01*
X133466525Y-82873368D01*
X133304010Y-83116589D01*
X133192068Y-83386842D01*
X133135000Y-83673740D01*
X133135000Y-83966260D01*
X133192068Y-84253158D01*
X133304010Y-84523411D01*
X133466525Y-84766632D01*
X133673368Y-84973475D01*
X133847760Y-85090000D01*
X133673368Y-85206525D01*
X133466525Y-85413368D01*
X133304010Y-85656589D01*
X133192068Y-85926842D01*
X133135000Y-86213740D01*
X133135000Y-86506260D01*
X133192068Y-86793158D01*
X133304010Y-87063411D01*
X133466525Y-87306632D01*
X133673368Y-87513475D01*
X133847760Y-87630000D01*
X133673368Y-87746525D01*
X133466525Y-87953368D01*
X133304010Y-88196589D01*
X133192068Y-88466842D01*
X133135000Y-88753740D01*
X133135000Y-89046260D01*
X133192068Y-89333158D01*
X133304010Y-89603411D01*
X133466525Y-89846632D01*
X133673368Y-90053475D01*
X133847760Y-90170000D01*
X133673368Y-90286525D01*
X133466525Y-90493368D01*
X133304010Y-90736589D01*
X133192068Y-91006842D01*
X133135000Y-91293740D01*
X133135000Y-91586260D01*
X133192068Y-91873158D01*
X133304010Y-92143411D01*
X133466525Y-92386632D01*
X133673368Y-92593475D01*
X133847760Y-92710000D01*
X133673368Y-92826525D01*
X133466525Y-93033368D01*
X133304010Y-93276589D01*
X133192068Y-93546842D01*
X133135000Y-93833740D01*
X133135000Y-94126260D01*
X133192068Y-94413158D01*
X133304010Y-94683411D01*
X133466525Y-94926632D01*
X133673368Y-95133475D01*
X133847760Y-95250000D01*
X133673368Y-95366525D01*
X133466525Y-95573368D01*
X133304010Y-95816589D01*
X133192068Y-96086842D01*
X133135000Y-96373740D01*
X133135000Y-96666260D01*
X133192068Y-96953158D01*
X133304010Y-97223411D01*
X133466525Y-97466632D01*
X133673368Y-97673475D01*
X133847760Y-97790000D01*
X133673368Y-97906525D01*
X133466525Y-98113368D01*
X133304010Y-98356589D01*
X133192068Y-98626842D01*
X133135000Y-98913740D01*
X133135000Y-99206260D01*
X133192068Y-99493158D01*
X133304010Y-99763411D01*
X133466525Y-100006632D01*
X133673368Y-100213475D01*
X133847760Y-100330000D01*
X133673368Y-100446525D01*
X133466525Y-100653368D01*
X133304010Y-100896589D01*
X133192068Y-101166842D01*
X133135000Y-101453740D01*
X133135000Y-101746260D01*
X133192068Y-102033158D01*
X133304010Y-102303411D01*
X133466525Y-102546632D01*
X133673368Y-102753475D01*
X133847760Y-102870000D01*
X133673368Y-102986525D01*
X133466525Y-103193368D01*
X133304010Y-103436589D01*
X133192068Y-103706842D01*
X133135000Y-103993740D01*
X133135000Y-104286260D01*
X133192068Y-104573158D01*
X133304010Y-104843411D01*
X133466525Y-105086632D01*
X133673368Y-105293475D01*
X133916589Y-105455990D01*
X134186842Y-105567932D01*
X134473740Y-105625000D01*
X134766260Y-105625000D01*
X135053158Y-105567932D01*
X135323411Y-105455990D01*
X135566632Y-105293475D01*
X135773475Y-105086632D01*
X135935990Y-104843411D01*
X136047932Y-104573158D01*
X136105000Y-104286260D01*
X136105000Y-103993740D01*
X136047932Y-103706842D01*
X135935990Y-103436589D01*
X135773475Y-103193368D01*
X135566632Y-102986525D01*
X135392240Y-102870000D01*
X135566632Y-102753475D01*
X135773475Y-102546632D01*
X135935990Y-102303411D01*
X136047932Y-102033158D01*
X136105000Y-101746260D01*
X136105000Y-101453740D01*
X136047932Y-101166842D01*
X135935990Y-100896589D01*
X135773475Y-100653368D01*
X135566632Y-100446525D01*
X135392240Y-100330000D01*
X135566632Y-100213475D01*
X135773475Y-100006632D01*
X135935990Y-99763411D01*
X136047932Y-99493158D01*
X136105000Y-99206260D01*
X136105000Y-98913740D01*
X136047932Y-98626842D01*
X135935990Y-98356589D01*
X135773475Y-98113368D01*
X135566632Y-97906525D01*
X135392240Y-97790000D01*
X135566632Y-97673475D01*
X135773475Y-97466632D01*
X135935990Y-97223411D01*
X136047932Y-96953158D01*
X136105000Y-96666260D01*
X136105000Y-96373740D01*
X136047932Y-96086842D01*
X135935990Y-95816589D01*
X135773475Y-95573368D01*
X135566632Y-95366525D01*
X135392240Y-95250000D01*
X135566632Y-95133475D01*
X135773475Y-94926632D01*
X135935990Y-94683411D01*
X136047932Y-94413158D01*
X136105000Y-94126260D01*
X136105000Y-93833740D01*
X136047932Y-93546842D01*
X135935990Y-93276589D01*
X135773475Y-93033368D01*
X135566632Y-92826525D01*
X135392240Y-92710000D01*
X135566632Y-92593475D01*
X135773475Y-92386632D01*
X135935990Y-92143411D01*
X136047932Y-91873158D01*
X136105000Y-91586260D01*
X136105000Y-91293740D01*
X136047932Y-91006842D01*
X135935990Y-90736589D01*
X135773475Y-90493368D01*
X135566632Y-90286525D01*
X135392240Y-90170000D01*
X135566632Y-90053475D01*
X135773475Y-89846632D01*
X135935990Y-89603411D01*
X136047932Y-89333158D01*
X136105000Y-89046260D01*
X136105000Y-88753740D01*
X136047932Y-88466842D01*
X135935990Y-88196589D01*
X135773475Y-87953368D01*
X135566632Y-87746525D01*
X135392240Y-87630000D01*
X135566632Y-87513475D01*
X135773475Y-87306632D01*
X135935990Y-87063411D01*
X136047932Y-86793158D01*
X136105000Y-86506260D01*
X136105000Y-86213740D01*
X136047932Y-85926842D01*
X135935990Y-85656589D01*
X135773475Y-85413368D01*
X135566632Y-85206525D01*
X135392240Y-85090000D01*
X135566632Y-84973475D01*
X135773475Y-84766632D01*
X135935990Y-84523411D01*
X136047932Y-84253158D01*
X136105000Y-83966260D01*
X136105000Y-83673740D01*
X136047932Y-83386842D01*
X135935990Y-83116589D01*
X135773475Y-82873368D01*
X135566632Y-82666525D01*
X135392240Y-82550000D01*
X135566632Y-82433475D01*
X135773475Y-82226632D01*
X135935990Y-81983411D01*
X136047932Y-81713158D01*
X136105000Y-81426260D01*
X136105000Y-81133740D01*
X136047932Y-80846842D01*
X135935990Y-80576589D01*
X135773475Y-80333368D01*
X135566632Y-80126525D01*
X135392240Y-80010000D01*
X135566632Y-79893475D01*
X135773475Y-79686632D01*
X135935990Y-79443411D01*
X136047932Y-79173158D01*
X136105000Y-78886260D01*
X136105000Y-78593740D01*
X136061209Y-78373592D01*
X138649803Y-75784999D01*
X148428456Y-75784999D01*
X148375000Y-76053740D01*
X148375000Y-76346260D01*
X148418791Y-76566408D01*
X148175739Y-76809460D01*
X148148499Y-76831522D01*
X148122939Y-76862260D01*
X148121200Y-76863999D01*
X148099046Y-76890993D01*
X148052781Y-76946631D01*
X148051601Y-76948805D01*
X148050025Y-76950725D01*
X148015849Y-77014664D01*
X147981357Y-77078201D01*
X147980623Y-77080567D01*
X147979453Y-77082755D01*
X147958441Y-77152026D01*
X147936975Y-77221178D01*
X147936716Y-77223646D01*
X147935997Y-77226016D01*
X147928904Y-77298027D01*
X147925257Y-77332758D01*
X147925241Y-77335221D01*
X147921323Y-77375001D01*
X147924759Y-77409882D01*
X147830242Y-92035225D01*
X147830001Y-92037667D01*
X147830001Y-92052298D01*
X147829127Y-92066916D01*
X147829906Y-92087160D01*
X147829775Y-92107420D01*
X147830001Y-92109877D01*
X147830000Y-96951679D01*
X147826324Y-96989002D01*
X147830000Y-97026324D01*
X147830000Y-97026334D01*
X147840997Y-97137987D01*
X147865474Y-97218677D01*
X147884454Y-97281248D01*
X147955026Y-97413278D01*
X147969577Y-97431008D01*
X148049999Y-97529003D01*
X148079002Y-97552805D01*
X148679704Y-98153508D01*
X148544010Y-98356589D01*
X148432068Y-98626842D01*
X148375000Y-98913740D01*
X148375000Y-99206260D01*
X148432068Y-99493158D01*
X148544010Y-99763411D01*
X148706525Y-100006632D01*
X148913368Y-100213475D01*
X149087760Y-100330000D01*
X148913368Y-100446525D01*
X148706525Y-100653368D01*
X148544010Y-100896589D01*
X148432068Y-101166842D01*
X148375000Y-101453740D01*
X148375000Y-101746260D01*
X148432068Y-102033158D01*
X148544010Y-102303411D01*
X148706525Y-102546632D01*
X148913368Y-102753475D01*
X149087760Y-102870000D01*
X148913368Y-102986525D01*
X148706525Y-103193368D01*
X148544010Y-103436589D01*
X148432068Y-103706842D01*
X148375000Y-103993740D01*
X148375000Y-104286260D01*
X148432068Y-104573158D01*
X148544010Y-104843411D01*
X148706525Y-105086632D01*
X148913368Y-105293475D01*
X149156589Y-105455990D01*
X149426842Y-105567932D01*
X149713740Y-105625000D01*
X150006260Y-105625000D01*
X150293158Y-105567932D01*
X150563411Y-105455990D01*
X150806632Y-105293475D01*
X151013475Y-105086632D01*
X151175990Y-104843411D01*
X151287932Y-104573158D01*
X151345000Y-104286260D01*
X151345000Y-103993740D01*
X151287932Y-103706842D01*
X151175990Y-103436589D01*
X151013475Y-103193368D01*
X150806632Y-102986525D01*
X150632240Y-102870000D01*
X150806632Y-102753475D01*
X151013475Y-102546632D01*
X151175990Y-102303411D01*
X151287932Y-102033158D01*
X151345000Y-101746260D01*
X151345000Y-101453740D01*
X151287932Y-101166842D01*
X151175990Y-100896589D01*
X151013475Y-100653368D01*
X150806632Y-100446525D01*
X150632240Y-100330000D01*
X150806632Y-100213475D01*
X151013475Y-100006632D01*
X151175990Y-99763411D01*
X151239316Y-99610528D01*
X152469791Y-100841003D01*
X152493589Y-100870001D01*
X152609314Y-100964974D01*
X152741343Y-101035546D01*
X152884604Y-101079003D01*
X152996257Y-101090000D01*
X152996266Y-101090000D01*
X153033589Y-101093676D01*
X153070912Y-101090000D01*
X153640473Y-101090000D01*
X153649528Y-101119851D01*
X153731595Y-101273387D01*
X153842038Y-101407962D01*
X153976613Y-101518405D01*
X154130149Y-101600472D01*
X154296745Y-101651008D01*
X154469999Y-101668072D01*
X155120001Y-101668072D01*
X155293255Y-101651008D01*
X155459851Y-101600472D01*
X155613387Y-101518405D01*
X155747962Y-101407962D01*
X155820000Y-101320184D01*
X155892038Y-101407962D01*
X156026613Y-101518405D01*
X156180149Y-101600472D01*
X156346745Y-101651008D01*
X156519999Y-101668072D01*
X157170001Y-101668072D01*
X157343255Y-101651008D01*
X157509851Y-101600472D01*
X157663387Y-101518405D01*
X157797962Y-101407962D01*
X157908405Y-101273387D01*
X157990472Y-101119851D01*
X157999527Y-101090000D01*
X158737677Y-101090000D01*
X158774999Y-101093676D01*
X158812321Y-101090000D01*
X158812332Y-101090000D01*
X158923985Y-101079003D01*
X159067246Y-101035546D01*
X159199275Y-100964974D01*
X159315000Y-100870001D01*
X159338803Y-100840997D01*
X163566069Y-96613731D01*
X163823815Y-96665000D01*
X164126183Y-96665000D01*
X164422742Y-96606011D01*
X164702094Y-96490299D01*
X164953504Y-96322312D01*
X165167311Y-96108505D01*
X165335298Y-95857095D01*
X165451010Y-95577743D01*
X165509999Y-95281184D01*
X165509999Y-94978816D01*
X165451010Y-94682257D01*
X165335298Y-94402905D01*
X165167311Y-94151495D01*
X164953504Y-93937688D01*
X164702094Y-93769701D01*
X164422742Y-93653989D01*
X164126183Y-93595000D01*
X163823815Y-93595000D01*
X163527256Y-93653989D01*
X163247904Y-93769701D01*
X162996494Y-93937688D01*
X162782687Y-94151495D01*
X162687261Y-94294310D01*
X162539079Y-94245525D01*
X161654604Y-95130000D01*
X161668747Y-95144143D01*
X161489142Y-95323748D01*
X161474999Y-95309605D01*
X160590524Y-96194080D01*
X160674207Y-96448261D01*
X160946774Y-96579158D01*
X161239641Y-96654365D01*
X161368724Y-96661473D01*
X158460198Y-99570000D01*
X157999527Y-99570000D01*
X157990472Y-99540149D01*
X157908405Y-99386613D01*
X157797962Y-99252038D01*
X157663387Y-99141595D01*
X157509851Y-99059528D01*
X157343255Y-99008992D01*
X157293936Y-99004135D01*
X156782874Y-98493072D01*
X157170001Y-98493072D01*
X157343255Y-98476008D01*
X157509851Y-98425472D01*
X157663387Y-98343405D01*
X157797962Y-98232962D01*
X157908405Y-98098387D01*
X157990472Y-97944851D01*
X157999527Y-97915000D01*
X158185469Y-97915000D01*
X158222791Y-97918676D01*
X158260113Y-97915000D01*
X158260124Y-97915000D01*
X158371777Y-97904003D01*
X158515038Y-97860546D01*
X158647067Y-97789974D01*
X158762792Y-97695001D01*
X158786594Y-97665998D01*
X159486001Y-96966591D01*
X159515000Y-96942793D01*
X159609973Y-96827068D01*
X159680545Y-96695039D01*
X159724002Y-96551778D01*
X159732027Y-96470298D01*
X159953504Y-96322312D01*
X160167311Y-96108505D01*
X160262737Y-95965690D01*
X160410919Y-96014475D01*
X161295394Y-95130000D01*
X160410919Y-94245525D01*
X160262737Y-94294310D01*
X160167311Y-94151495D01*
X160081736Y-94065920D01*
X160590524Y-94065920D01*
X161474999Y-94950395D01*
X162359474Y-94065920D01*
X162275791Y-93811739D01*
X162003224Y-93680842D01*
X161710357Y-93605635D01*
X161408446Y-93589009D01*
X161109092Y-93631603D01*
X160823800Y-93731778D01*
X160674207Y-93811739D01*
X160590524Y-94065920D01*
X160081736Y-94065920D01*
X159953504Y-93937688D01*
X159702094Y-93769701D01*
X159422742Y-93653989D01*
X159126183Y-93595000D01*
X158823815Y-93595000D01*
X158527256Y-93653989D01*
X158247904Y-93769701D01*
X157996494Y-93937688D01*
X157782687Y-94151495D01*
X157614700Y-94402905D01*
X157498988Y-94682257D01*
X157439999Y-94978816D01*
X157439999Y-95281184D01*
X157498988Y-95577743D01*
X157614700Y-95857095D01*
X157717587Y-96011076D01*
X157663387Y-95966595D01*
X157509851Y-95884528D01*
X157343255Y-95833992D01*
X157293937Y-95829135D01*
X154933804Y-93469003D01*
X154910001Y-93439999D01*
X154794276Y-93345026D01*
X154662247Y-93274454D01*
X154518986Y-93230997D01*
X154407333Y-93220000D01*
X154407322Y-93220000D01*
X154370000Y-93216324D01*
X154332678Y-93220000D01*
X151138178Y-93220000D01*
X151013475Y-93033368D01*
X150806632Y-92826525D01*
X150632240Y-92710000D01*
X150806632Y-92593475D01*
X151013475Y-92386632D01*
X151175990Y-92143411D01*
X151287932Y-91873158D01*
X151345000Y-91586260D01*
X151345000Y-91293740D01*
X151287932Y-91006842D01*
X151175990Y-90736589D01*
X151013475Y-90493368D01*
X150806632Y-90286525D01*
X150632240Y-90170000D01*
X150806632Y-90053475D01*
X151013475Y-89846632D01*
X151175990Y-89603411D01*
X151287932Y-89333158D01*
X151345000Y-89046260D01*
X151345000Y-88753740D01*
X151287932Y-88466842D01*
X151175990Y-88196589D01*
X151013475Y-87953368D01*
X150806632Y-87746525D01*
X150632240Y-87630000D01*
X150806632Y-87513475D01*
X150900386Y-87419721D01*
X153739999Y-87419721D01*
X153739999Y-87840279D01*
X153822046Y-88252756D01*
X153982987Y-88641302D01*
X154216636Y-88990983D01*
X154514016Y-89288363D01*
X154863697Y-89522012D01*
X155252243Y-89682953D01*
X155664720Y-89765000D01*
X156085278Y-89765000D01*
X156497755Y-89682953D01*
X156886301Y-89522012D01*
X157235982Y-89288363D01*
X157533362Y-88990983D01*
X157767011Y-88641302D01*
X157927952Y-88252756D01*
X158009999Y-87840279D01*
X158009999Y-87419721D01*
X164939999Y-87419721D01*
X164939999Y-87840279D01*
X165022046Y-88252756D01*
X165182987Y-88641302D01*
X165416636Y-88990983D01*
X165714016Y-89288363D01*
X166063697Y-89522012D01*
X166452243Y-89682953D01*
X166864720Y-89765000D01*
X167285278Y-89765000D01*
X167697755Y-89682953D01*
X168086301Y-89522012D01*
X168435982Y-89288363D01*
X168733362Y-88990983D01*
X168967011Y-88641302D01*
X169127952Y-88252756D01*
X169209999Y-87840279D01*
X169209999Y-87419721D01*
X169127952Y-87007244D01*
X168967011Y-86618698D01*
X168733362Y-86269017D01*
X168435982Y-85971637D01*
X168086301Y-85737988D01*
X167697755Y-85577047D01*
X167285278Y-85495000D01*
X166864720Y-85495000D01*
X166452243Y-85577047D01*
X166063697Y-85737988D01*
X165714016Y-85971637D01*
X165416636Y-86269017D01*
X165182987Y-86618698D01*
X165022046Y-87007244D01*
X164939999Y-87419721D01*
X158009999Y-87419721D01*
X157927952Y-87007244D01*
X157767011Y-86618698D01*
X157533362Y-86269017D01*
X157235982Y-85971637D01*
X156886301Y-85737988D01*
X156497755Y-85577047D01*
X156085278Y-85495000D01*
X155664720Y-85495000D01*
X155252243Y-85577047D01*
X154863697Y-85737988D01*
X154514016Y-85971637D01*
X154216636Y-86269017D01*
X153982987Y-86618698D01*
X153822046Y-87007244D01*
X153739999Y-87419721D01*
X150900386Y-87419721D01*
X151013475Y-87306632D01*
X151175990Y-87063411D01*
X151287932Y-86793158D01*
X151345000Y-86506260D01*
X151345000Y-86213740D01*
X151287932Y-85926842D01*
X151175990Y-85656589D01*
X151013475Y-85413368D01*
X150806632Y-85206525D01*
X150632240Y-85090000D01*
X150806632Y-84973475D01*
X151013475Y-84766632D01*
X151175990Y-84523411D01*
X151287932Y-84253158D01*
X151345000Y-83966260D01*
X151345000Y-83673740D01*
X151287932Y-83386842D01*
X151175990Y-83116589D01*
X151013475Y-82873368D01*
X150806632Y-82666525D01*
X150632240Y-82550000D01*
X150806632Y-82433475D01*
X151013475Y-82226632D01*
X151175990Y-81983411D01*
X151287932Y-81713158D01*
X151345000Y-81426260D01*
X151345000Y-81133740D01*
X151287932Y-80846842D01*
X151175990Y-80576589D01*
X151013475Y-80333368D01*
X150806632Y-80126525D01*
X150632240Y-80010000D01*
X150806632Y-79893475D01*
X151013475Y-79686632D01*
X151175990Y-79443411D01*
X151287932Y-79173158D01*
X151345000Y-78886260D01*
X151345000Y-78593740D01*
X151287932Y-78306842D01*
X151175990Y-78036589D01*
X151013475Y-77793368D01*
X150806632Y-77586525D01*
X150632240Y-77470000D01*
X150806632Y-77353475D01*
X151013475Y-77146632D01*
X151138178Y-76960000D01*
X153420199Y-76960000D01*
X153790064Y-77329865D01*
X153743992Y-77481745D01*
X153726928Y-77654999D01*
X153726928Y-78555001D01*
X153743992Y-78728255D01*
X153794528Y-78894851D01*
X153876595Y-79048387D01*
X153987038Y-79182962D01*
X154121613Y-79293405D01*
X154275149Y-79375472D01*
X154441745Y-79426008D01*
X154614999Y-79443072D01*
X155265001Y-79443072D01*
X155438255Y-79426008D01*
X155604851Y-79375472D01*
X155758387Y-79293405D01*
X155892962Y-79182962D01*
X155965000Y-79095184D01*
X156037038Y-79182962D01*
X156171613Y-79293405D01*
X156325149Y-79375472D01*
X156491745Y-79426008D01*
X156664999Y-79443072D01*
X156713270Y-79443072D01*
X157491268Y-80221070D01*
X157439999Y-80478816D01*
X157439999Y-80781184D01*
X157498988Y-81077743D01*
X157614700Y-81357095D01*
X157782687Y-81608505D01*
X157996494Y-81822312D01*
X158247904Y-81990299D01*
X158527256Y-82106011D01*
X158823815Y-82165000D01*
X159126183Y-82165000D01*
X159422742Y-82106011D01*
X159702094Y-81990299D01*
X159953504Y-81822312D01*
X160081736Y-81694080D01*
X163090524Y-81694080D01*
X163174207Y-81948261D01*
X163446774Y-82079158D01*
X163739641Y-82154365D01*
X164041552Y-82170991D01*
X164340906Y-82128397D01*
X164626198Y-82028222D01*
X164775791Y-81948261D01*
X164859474Y-81694080D01*
X163974999Y-80809605D01*
X163090524Y-81694080D01*
X160081736Y-81694080D01*
X160167311Y-81608505D01*
X160335298Y-81357095D01*
X160451010Y-81077743D01*
X160509999Y-80781184D01*
X160509999Y-80696553D01*
X162434008Y-80696553D01*
X162476602Y-80995907D01*
X162576777Y-81281199D01*
X162656738Y-81430792D01*
X162910919Y-81514475D01*
X163795394Y-80630000D01*
X164154604Y-80630000D01*
X165039079Y-81514475D01*
X165293260Y-81430792D01*
X165424157Y-81158225D01*
X165499364Y-80865358D01*
X165515990Y-80563447D01*
X165473396Y-80264093D01*
X165373221Y-79978801D01*
X165293260Y-79829208D01*
X165039079Y-79745525D01*
X164154604Y-80630000D01*
X163795394Y-80630000D01*
X162910919Y-79745525D01*
X162656738Y-79829208D01*
X162525841Y-80101775D01*
X162450634Y-80394642D01*
X162434008Y-80696553D01*
X160509999Y-80696553D01*
X160509999Y-80478816D01*
X160451010Y-80182257D01*
X160335298Y-79902905D01*
X160167311Y-79651495D01*
X160081736Y-79565920D01*
X163090524Y-79565920D01*
X163974999Y-80450395D01*
X164859474Y-79565920D01*
X164775791Y-79311739D01*
X164503224Y-79180842D01*
X164210357Y-79105635D01*
X163908446Y-79089009D01*
X163609092Y-79131603D01*
X163323800Y-79231778D01*
X163174207Y-79311739D01*
X163090524Y-79565920D01*
X160081736Y-79565920D01*
X159953504Y-79437688D01*
X159702094Y-79269701D01*
X159422742Y-79153989D01*
X159126183Y-79095000D01*
X158823815Y-79095000D01*
X158566069Y-79146269D01*
X158177175Y-78757374D01*
X158186008Y-78728255D01*
X158203072Y-78555001D01*
X158203072Y-77654999D01*
X158186008Y-77481745D01*
X158135472Y-77315149D01*
X158053405Y-77161613D01*
X157942962Y-77027038D01*
X157808387Y-76916595D01*
X157654851Y-76834528D01*
X157488255Y-76783992D01*
X157315001Y-76766928D01*
X156664999Y-76766928D01*
X156491745Y-76783992D01*
X156330804Y-76832813D01*
X154011993Y-74514002D01*
X153988190Y-74484998D01*
X153872465Y-74390025D01*
X153740436Y-74319453D01*
X153597175Y-74275996D01*
X153485522Y-74264999D01*
X153485511Y-74264999D01*
X153448189Y-74261323D01*
X153410867Y-74264999D01*
X151208765Y-74264999D01*
X151256825Y-74164099D01*
X151301476Y-74016890D01*
X151180155Y-73787000D01*
X149987000Y-73787000D01*
X149987000Y-73807000D01*
X149733000Y-73807000D01*
X149733000Y-73787000D01*
X148539845Y-73787000D01*
X148418524Y-74016890D01*
X148463175Y-74164099D01*
X148511235Y-74264999D01*
X138372326Y-74264999D01*
X138335001Y-74261323D01*
X138297676Y-74264999D01*
X138297668Y-74264999D01*
X138186015Y-74275996D01*
X138042754Y-74319453D01*
X137910725Y-74390025D01*
X137795000Y-74484998D01*
X137771202Y-74513996D01*
X136105000Y-76180199D01*
X136105000Y-76053740D01*
X136047932Y-75766842D01*
X135935990Y-75496589D01*
X135773475Y-75253368D01*
X135566632Y-75046525D01*
X135392240Y-74930000D01*
X135566632Y-74813475D01*
X135773475Y-74606632D01*
X135935990Y-74363411D01*
X136047932Y-74093158D01*
X136105000Y-73806260D01*
X136105000Y-73513740D01*
X136047932Y-73226842D01*
X135935990Y-72956589D01*
X135773475Y-72713368D01*
X135641620Y-72581513D01*
X135714180Y-72559502D01*
X135824494Y-72500537D01*
X135921185Y-72421185D01*
X136000537Y-72324494D01*
X136059502Y-72214180D01*
X136095812Y-72094482D01*
X136108072Y-71970000D01*
X136105000Y-71405750D01*
X135946250Y-71247000D01*
X134747000Y-71247000D01*
X134747000Y-71267000D01*
X134493000Y-71267000D01*
X134493000Y-71247000D01*
X133293750Y-71247000D01*
X133135000Y-71405750D01*
X133131928Y-71970000D01*
X132740000Y-71970000D01*
X132740000Y-70270000D01*
X133131928Y-70270000D01*
X133135000Y-70834250D01*
X133293750Y-70993000D01*
X134493000Y-70993000D01*
X134493000Y-69793750D01*
X134747000Y-69793750D01*
X134747000Y-70993000D01*
X135946250Y-70993000D01*
X135965510Y-70973740D01*
X148375000Y-70973740D01*
X148375000Y-71266260D01*
X148432068Y-71553158D01*
X148544010Y-71823411D01*
X148706525Y-72066632D01*
X148913368Y-72273475D01*
X149095534Y-72395195D01*
X148978645Y-72464822D01*
X148762412Y-72659731D01*
X148588359Y-72893080D01*
X148463175Y-73155901D01*
X148418524Y-73303110D01*
X148539845Y-73533000D01*
X149733000Y-73533000D01*
X149733000Y-73513000D01*
X149987000Y-73513000D01*
X149987000Y-73533000D01*
X151180155Y-73533000D01*
X151301476Y-73303110D01*
X151256825Y-73155901D01*
X151131641Y-72893080D01*
X150957588Y-72659731D01*
X150741355Y-72464822D01*
X150624466Y-72395195D01*
X150806632Y-72273475D01*
X151013475Y-72066632D01*
X151175990Y-71823411D01*
X151287932Y-71553158D01*
X151345000Y-71266260D01*
X151345000Y-70973740D01*
X151287932Y-70686842D01*
X151175990Y-70416589D01*
X151013475Y-70173368D01*
X150806632Y-69966525D01*
X150563411Y-69804010D01*
X150293158Y-69692068D01*
X150006260Y-69635000D01*
X149713740Y-69635000D01*
X149426842Y-69692068D01*
X149156589Y-69804010D01*
X148913368Y-69966525D01*
X148706525Y-70173368D01*
X148544010Y-70416589D01*
X148432068Y-70686842D01*
X148375000Y-70973740D01*
X135965510Y-70973740D01*
X136105000Y-70834250D01*
X136108072Y-70270000D01*
X136095812Y-70145518D01*
X136059502Y-70025820D01*
X136000537Y-69915506D01*
X135921185Y-69818815D01*
X135824494Y-69739463D01*
X135714180Y-69680498D01*
X135594482Y-69644188D01*
X135470000Y-69631928D01*
X134905750Y-69635000D01*
X134747000Y-69793750D01*
X134493000Y-69793750D01*
X134334250Y-69635000D01*
X133770000Y-69631928D01*
X133645518Y-69644188D01*
X133525820Y-69680498D01*
X133415506Y-69739463D01*
X133318815Y-69818815D01*
X133239463Y-69915506D01*
X133180498Y-70025820D01*
X133144188Y-70145518D01*
X133131928Y-70270000D01*
X132740000Y-70270000D01*
X132740000Y-69240000D01*
X152215330Y-69240000D01*
X169520000Y-79746407D01*
M02*
