G04 #@! TF.GenerationSoftware,KiCad,Pcbnew,(5.1.5-0-10_14)*
G04 #@! TF.CreationDate,2020-09-26T23:49:40+02:00*
G04 #@! TF.ProjectId,es_rotary,65735f72-6f74-4617-9279-2e6b69636164,rev?*
G04 #@! TF.SameCoordinates,Original*
G04 #@! TF.FileFunction,Paste,Top*
G04 #@! TF.FilePolarity,Positive*
%FSLAX46Y46*%
G04 Gerber Fmt 4.6, Leading zero omitted, Abs format (unit mm)*
G04 Created by KiCad (PCBNEW (5.1.5-0-10_14)) date 2020-09-26 23:49:40*
%MOMM*%
%LPD*%
G04 APERTURE LIST*
%ADD10C,0.100000*%
G04 APERTURE END LIST*
D10*
G36*
X157194505Y-99631204D02*
G01*
X157218773Y-99634804D01*
X157242572Y-99640765D01*
X157265671Y-99649030D01*
X157287850Y-99659520D01*
X157308893Y-99672132D01*
X157328599Y-99686747D01*
X157346777Y-99703223D01*
X157363253Y-99721401D01*
X157377868Y-99741107D01*
X157390480Y-99762150D01*
X157400970Y-99784329D01*
X157409235Y-99807428D01*
X157415196Y-99831227D01*
X157418796Y-99855495D01*
X157420000Y-99879999D01*
X157420000Y-100780001D01*
X157418796Y-100804505D01*
X157415196Y-100828773D01*
X157409235Y-100852572D01*
X157400970Y-100875671D01*
X157390480Y-100897850D01*
X157377868Y-100918893D01*
X157363253Y-100938599D01*
X157346777Y-100956777D01*
X157328599Y-100973253D01*
X157308893Y-100987868D01*
X157287850Y-101000480D01*
X157265671Y-101010970D01*
X157242572Y-101019235D01*
X157218773Y-101025196D01*
X157194505Y-101028796D01*
X157170001Y-101030000D01*
X156519999Y-101030000D01*
X156495495Y-101028796D01*
X156471227Y-101025196D01*
X156447428Y-101019235D01*
X156424329Y-101010970D01*
X156402150Y-101000480D01*
X156381107Y-100987868D01*
X156361401Y-100973253D01*
X156343223Y-100956777D01*
X156326747Y-100938599D01*
X156312132Y-100918893D01*
X156299520Y-100897850D01*
X156289030Y-100875671D01*
X156280765Y-100852572D01*
X156274804Y-100828773D01*
X156271204Y-100804505D01*
X156270000Y-100780001D01*
X156270000Y-99879999D01*
X156271204Y-99855495D01*
X156274804Y-99831227D01*
X156280765Y-99807428D01*
X156289030Y-99784329D01*
X156299520Y-99762150D01*
X156312132Y-99741107D01*
X156326747Y-99721401D01*
X156343223Y-99703223D01*
X156361401Y-99686747D01*
X156381107Y-99672132D01*
X156402150Y-99659520D01*
X156424329Y-99649030D01*
X156447428Y-99640765D01*
X156471227Y-99634804D01*
X156495495Y-99631204D01*
X156519999Y-99630000D01*
X157170001Y-99630000D01*
X157194505Y-99631204D01*
G37*
G36*
X155144505Y-99631204D02*
G01*
X155168773Y-99634804D01*
X155192572Y-99640765D01*
X155215671Y-99649030D01*
X155237850Y-99659520D01*
X155258893Y-99672132D01*
X155278599Y-99686747D01*
X155296777Y-99703223D01*
X155313253Y-99721401D01*
X155327868Y-99741107D01*
X155340480Y-99762150D01*
X155350970Y-99784329D01*
X155359235Y-99807428D01*
X155365196Y-99831227D01*
X155368796Y-99855495D01*
X155370000Y-99879999D01*
X155370000Y-100780001D01*
X155368796Y-100804505D01*
X155365196Y-100828773D01*
X155359235Y-100852572D01*
X155350970Y-100875671D01*
X155340480Y-100897850D01*
X155327868Y-100918893D01*
X155313253Y-100938599D01*
X155296777Y-100956777D01*
X155278599Y-100973253D01*
X155258893Y-100987868D01*
X155237850Y-101000480D01*
X155215671Y-101010970D01*
X155192572Y-101019235D01*
X155168773Y-101025196D01*
X155144505Y-101028796D01*
X155120001Y-101030000D01*
X154469999Y-101030000D01*
X154445495Y-101028796D01*
X154421227Y-101025196D01*
X154397428Y-101019235D01*
X154374329Y-101010970D01*
X154352150Y-101000480D01*
X154331107Y-100987868D01*
X154311401Y-100973253D01*
X154293223Y-100956777D01*
X154276747Y-100938599D01*
X154262132Y-100918893D01*
X154249520Y-100897850D01*
X154239030Y-100875671D01*
X154230765Y-100852572D01*
X154224804Y-100828773D01*
X154221204Y-100804505D01*
X154220000Y-100780001D01*
X154220000Y-99879999D01*
X154221204Y-99855495D01*
X154224804Y-99831227D01*
X154230765Y-99807428D01*
X154239030Y-99784329D01*
X154249520Y-99762150D01*
X154262132Y-99741107D01*
X154276747Y-99721401D01*
X154293223Y-99703223D01*
X154311401Y-99686747D01*
X154331107Y-99672132D01*
X154352150Y-99659520D01*
X154374329Y-99649030D01*
X154397428Y-99640765D01*
X154421227Y-99634804D01*
X154445495Y-99631204D01*
X154469999Y-99630000D01*
X155120001Y-99630000D01*
X155144505Y-99631204D01*
G37*
G36*
X157194505Y-96456204D02*
G01*
X157218773Y-96459804D01*
X157242572Y-96465765D01*
X157265671Y-96474030D01*
X157287850Y-96484520D01*
X157308893Y-96497132D01*
X157328599Y-96511747D01*
X157346777Y-96528223D01*
X157363253Y-96546401D01*
X157377868Y-96566107D01*
X157390480Y-96587150D01*
X157400970Y-96609329D01*
X157409235Y-96632428D01*
X157415196Y-96656227D01*
X157418796Y-96680495D01*
X157420000Y-96704999D01*
X157420000Y-97605001D01*
X157418796Y-97629505D01*
X157415196Y-97653773D01*
X157409235Y-97677572D01*
X157400970Y-97700671D01*
X157390480Y-97722850D01*
X157377868Y-97743893D01*
X157363253Y-97763599D01*
X157346777Y-97781777D01*
X157328599Y-97798253D01*
X157308893Y-97812868D01*
X157287850Y-97825480D01*
X157265671Y-97835970D01*
X157242572Y-97844235D01*
X157218773Y-97850196D01*
X157194505Y-97853796D01*
X157170001Y-97855000D01*
X156519999Y-97855000D01*
X156495495Y-97853796D01*
X156471227Y-97850196D01*
X156447428Y-97844235D01*
X156424329Y-97835970D01*
X156402150Y-97825480D01*
X156381107Y-97812868D01*
X156361401Y-97798253D01*
X156343223Y-97781777D01*
X156326747Y-97763599D01*
X156312132Y-97743893D01*
X156299520Y-97722850D01*
X156289030Y-97700671D01*
X156280765Y-97677572D01*
X156274804Y-97653773D01*
X156271204Y-97629505D01*
X156270000Y-97605001D01*
X156270000Y-96704999D01*
X156271204Y-96680495D01*
X156274804Y-96656227D01*
X156280765Y-96632428D01*
X156289030Y-96609329D01*
X156299520Y-96587150D01*
X156312132Y-96566107D01*
X156326747Y-96546401D01*
X156343223Y-96528223D01*
X156361401Y-96511747D01*
X156381107Y-96497132D01*
X156402150Y-96484520D01*
X156424329Y-96474030D01*
X156447428Y-96465765D01*
X156471227Y-96459804D01*
X156495495Y-96456204D01*
X156519999Y-96455000D01*
X157170001Y-96455000D01*
X157194505Y-96456204D01*
G37*
G36*
X155144505Y-96456204D02*
G01*
X155168773Y-96459804D01*
X155192572Y-96465765D01*
X155215671Y-96474030D01*
X155237850Y-96484520D01*
X155258893Y-96497132D01*
X155278599Y-96511747D01*
X155296777Y-96528223D01*
X155313253Y-96546401D01*
X155327868Y-96566107D01*
X155340480Y-96587150D01*
X155350970Y-96609329D01*
X155359235Y-96632428D01*
X155365196Y-96656227D01*
X155368796Y-96680495D01*
X155370000Y-96704999D01*
X155370000Y-97605001D01*
X155368796Y-97629505D01*
X155365196Y-97653773D01*
X155359235Y-97677572D01*
X155350970Y-97700671D01*
X155340480Y-97722850D01*
X155327868Y-97743893D01*
X155313253Y-97763599D01*
X155296777Y-97781777D01*
X155278599Y-97798253D01*
X155258893Y-97812868D01*
X155237850Y-97825480D01*
X155215671Y-97835970D01*
X155192572Y-97844235D01*
X155168773Y-97850196D01*
X155144505Y-97853796D01*
X155120001Y-97855000D01*
X154469999Y-97855000D01*
X154445495Y-97853796D01*
X154421227Y-97850196D01*
X154397428Y-97844235D01*
X154374329Y-97835970D01*
X154352150Y-97825480D01*
X154331107Y-97812868D01*
X154311401Y-97798253D01*
X154293223Y-97781777D01*
X154276747Y-97763599D01*
X154262132Y-97743893D01*
X154249520Y-97722850D01*
X154239030Y-97700671D01*
X154230765Y-97677572D01*
X154224804Y-97653773D01*
X154221204Y-97629505D01*
X154220000Y-97605001D01*
X154220000Y-96704999D01*
X154221204Y-96680495D01*
X154224804Y-96656227D01*
X154230765Y-96632428D01*
X154239030Y-96609329D01*
X154249520Y-96587150D01*
X154262132Y-96566107D01*
X154276747Y-96546401D01*
X154293223Y-96528223D01*
X154311401Y-96511747D01*
X154331107Y-96497132D01*
X154352150Y-96484520D01*
X154374329Y-96474030D01*
X154397428Y-96465765D01*
X154421227Y-96459804D01*
X154445495Y-96456204D01*
X154469999Y-96455000D01*
X155120001Y-96455000D01*
X155144505Y-96456204D01*
G37*
G36*
X157339505Y-77406204D02*
G01*
X157363773Y-77409804D01*
X157387572Y-77415765D01*
X157410671Y-77424030D01*
X157432850Y-77434520D01*
X157453893Y-77447132D01*
X157473599Y-77461747D01*
X157491777Y-77478223D01*
X157508253Y-77496401D01*
X157522868Y-77516107D01*
X157535480Y-77537150D01*
X157545970Y-77559329D01*
X157554235Y-77582428D01*
X157560196Y-77606227D01*
X157563796Y-77630495D01*
X157565000Y-77654999D01*
X157565000Y-78555001D01*
X157563796Y-78579505D01*
X157560196Y-78603773D01*
X157554235Y-78627572D01*
X157545970Y-78650671D01*
X157535480Y-78672850D01*
X157522868Y-78693893D01*
X157508253Y-78713599D01*
X157491777Y-78731777D01*
X157473599Y-78748253D01*
X157453893Y-78762868D01*
X157432850Y-78775480D01*
X157410671Y-78785970D01*
X157387572Y-78794235D01*
X157363773Y-78800196D01*
X157339505Y-78803796D01*
X157315001Y-78805000D01*
X156664999Y-78805000D01*
X156640495Y-78803796D01*
X156616227Y-78800196D01*
X156592428Y-78794235D01*
X156569329Y-78785970D01*
X156547150Y-78775480D01*
X156526107Y-78762868D01*
X156506401Y-78748253D01*
X156488223Y-78731777D01*
X156471747Y-78713599D01*
X156457132Y-78693893D01*
X156444520Y-78672850D01*
X156434030Y-78650671D01*
X156425765Y-78627572D01*
X156419804Y-78603773D01*
X156416204Y-78579505D01*
X156415000Y-78555001D01*
X156415000Y-77654999D01*
X156416204Y-77630495D01*
X156419804Y-77606227D01*
X156425765Y-77582428D01*
X156434030Y-77559329D01*
X156444520Y-77537150D01*
X156457132Y-77516107D01*
X156471747Y-77496401D01*
X156488223Y-77478223D01*
X156506401Y-77461747D01*
X156526107Y-77447132D01*
X156547150Y-77434520D01*
X156569329Y-77424030D01*
X156592428Y-77415765D01*
X156616227Y-77409804D01*
X156640495Y-77406204D01*
X156664999Y-77405000D01*
X157315001Y-77405000D01*
X157339505Y-77406204D01*
G37*
G36*
X155289505Y-77406204D02*
G01*
X155313773Y-77409804D01*
X155337572Y-77415765D01*
X155360671Y-77424030D01*
X155382850Y-77434520D01*
X155403893Y-77447132D01*
X155423599Y-77461747D01*
X155441777Y-77478223D01*
X155458253Y-77496401D01*
X155472868Y-77516107D01*
X155485480Y-77537150D01*
X155495970Y-77559329D01*
X155504235Y-77582428D01*
X155510196Y-77606227D01*
X155513796Y-77630495D01*
X155515000Y-77654999D01*
X155515000Y-78555001D01*
X155513796Y-78579505D01*
X155510196Y-78603773D01*
X155504235Y-78627572D01*
X155495970Y-78650671D01*
X155485480Y-78672850D01*
X155472868Y-78693893D01*
X155458253Y-78713599D01*
X155441777Y-78731777D01*
X155423599Y-78748253D01*
X155403893Y-78762868D01*
X155382850Y-78775480D01*
X155360671Y-78785970D01*
X155337572Y-78794235D01*
X155313773Y-78800196D01*
X155289505Y-78803796D01*
X155265001Y-78805000D01*
X154614999Y-78805000D01*
X154590495Y-78803796D01*
X154566227Y-78800196D01*
X154542428Y-78794235D01*
X154519329Y-78785970D01*
X154497150Y-78775480D01*
X154476107Y-78762868D01*
X154456401Y-78748253D01*
X154438223Y-78731777D01*
X154421747Y-78713599D01*
X154407132Y-78693893D01*
X154394520Y-78672850D01*
X154384030Y-78650671D01*
X154375765Y-78627572D01*
X154369804Y-78603773D01*
X154366204Y-78579505D01*
X154365000Y-78555001D01*
X154365000Y-77654999D01*
X154366204Y-77630495D01*
X154369804Y-77606227D01*
X154375765Y-77582428D01*
X154384030Y-77559329D01*
X154394520Y-77537150D01*
X154407132Y-77516107D01*
X154421747Y-77496401D01*
X154438223Y-77478223D01*
X154456401Y-77461747D01*
X154476107Y-77447132D01*
X154497150Y-77434520D01*
X154519329Y-77424030D01*
X154542428Y-77415765D01*
X154566227Y-77409804D01*
X154590495Y-77406204D01*
X154614999Y-77405000D01*
X155265001Y-77405000D01*
X155289505Y-77406204D01*
G37*
M02*
