G04 #@! TF.GenerationSoftware,KiCad,Pcbnew,(5.1.5-0-10_14)*
G04 #@! TF.CreationDate,2020-10-22T20:13:41+02:00*
G04 #@! TF.ProjectId,es_rotary,65735f72-6f74-4617-9279-2e6b69636164,rev?*
G04 #@! TF.SameCoordinates,Original*
G04 #@! TF.FileFunction,Soldermask,Bot*
G04 #@! TF.FilePolarity,Negative*
%FSLAX46Y46*%
G04 Gerber Fmt 4.6, Leading zero omitted, Abs format (unit mm)*
G04 Created by KiCad (PCBNEW (5.1.5-0-10_14)) date 2020-10-22 20:13:41*
%MOMM*%
%LPD*%
G04 APERTURE LIST*
%ADD10C,0.100000*%
G04 APERTURE END LIST*
D10*
G36*
X150761000Y-105041000D02*
G01*
X148959000Y-105041000D01*
X148959000Y-103239000D01*
X150761000Y-103239000D01*
X150761000Y-105041000D01*
G37*
G36*
X134733512Y-103243927D02*
G01*
X134882812Y-103273624D01*
X135046784Y-103341544D01*
X135194354Y-103440147D01*
X135319853Y-103565646D01*
X135418456Y-103713216D01*
X135486376Y-103877188D01*
X135521000Y-104051259D01*
X135521000Y-104228741D01*
X135486376Y-104402812D01*
X135418456Y-104566784D01*
X135319853Y-104714354D01*
X135194354Y-104839853D01*
X135046784Y-104938456D01*
X134882812Y-105006376D01*
X134733512Y-105036073D01*
X134708742Y-105041000D01*
X134531258Y-105041000D01*
X134506488Y-105036073D01*
X134357188Y-105006376D01*
X134193216Y-104938456D01*
X134045646Y-104839853D01*
X133920147Y-104714354D01*
X133821544Y-104566784D01*
X133753624Y-104402812D01*
X133719000Y-104228741D01*
X133719000Y-104051259D01*
X133753624Y-103877188D01*
X133821544Y-103713216D01*
X133920147Y-103565646D01*
X134045646Y-103440147D01*
X134193216Y-103341544D01*
X134357188Y-103273624D01*
X134506488Y-103243927D01*
X134531258Y-103239000D01*
X134708742Y-103239000D01*
X134733512Y-103243927D01*
G37*
G36*
X149973512Y-100703927D02*
G01*
X150122812Y-100733624D01*
X150286784Y-100801544D01*
X150434354Y-100900147D01*
X150559853Y-101025646D01*
X150658456Y-101173216D01*
X150726376Y-101337188D01*
X150761000Y-101511259D01*
X150761000Y-101688741D01*
X150726376Y-101862812D01*
X150658456Y-102026784D01*
X150559853Y-102174354D01*
X150434354Y-102299853D01*
X150286784Y-102398456D01*
X150122812Y-102466376D01*
X149973512Y-102496073D01*
X149948742Y-102501000D01*
X149771258Y-102501000D01*
X149746488Y-102496073D01*
X149597188Y-102466376D01*
X149433216Y-102398456D01*
X149285646Y-102299853D01*
X149160147Y-102174354D01*
X149061544Y-102026784D01*
X148993624Y-101862812D01*
X148959000Y-101688741D01*
X148959000Y-101511259D01*
X148993624Y-101337188D01*
X149061544Y-101173216D01*
X149160147Y-101025646D01*
X149285646Y-100900147D01*
X149433216Y-100801544D01*
X149597188Y-100733624D01*
X149746488Y-100703927D01*
X149771258Y-100699000D01*
X149948742Y-100699000D01*
X149973512Y-100703927D01*
G37*
G36*
X134733512Y-100703927D02*
G01*
X134882812Y-100733624D01*
X135046784Y-100801544D01*
X135194354Y-100900147D01*
X135319853Y-101025646D01*
X135418456Y-101173216D01*
X135486376Y-101337188D01*
X135521000Y-101511259D01*
X135521000Y-101688741D01*
X135486376Y-101862812D01*
X135418456Y-102026784D01*
X135319853Y-102174354D01*
X135194354Y-102299853D01*
X135046784Y-102398456D01*
X134882812Y-102466376D01*
X134733512Y-102496073D01*
X134708742Y-102501000D01*
X134531258Y-102501000D01*
X134506488Y-102496073D01*
X134357188Y-102466376D01*
X134193216Y-102398456D01*
X134045646Y-102299853D01*
X133920147Y-102174354D01*
X133821544Y-102026784D01*
X133753624Y-101862812D01*
X133719000Y-101688741D01*
X133719000Y-101511259D01*
X133753624Y-101337188D01*
X133821544Y-101173216D01*
X133920147Y-101025646D01*
X134045646Y-100900147D01*
X134193216Y-100801544D01*
X134357188Y-100733624D01*
X134506488Y-100703927D01*
X134531258Y-100699000D01*
X134708742Y-100699000D01*
X134733512Y-100703927D01*
G37*
G36*
X149973512Y-98163927D02*
G01*
X150122812Y-98193624D01*
X150286784Y-98261544D01*
X150434354Y-98360147D01*
X150559853Y-98485646D01*
X150658456Y-98633216D01*
X150726376Y-98797188D01*
X150761000Y-98971259D01*
X150761000Y-99148741D01*
X150726376Y-99322812D01*
X150658456Y-99486784D01*
X150559853Y-99634354D01*
X150434354Y-99759853D01*
X150286784Y-99858456D01*
X150122812Y-99926376D01*
X149973512Y-99956073D01*
X149948742Y-99961000D01*
X149771258Y-99961000D01*
X149746488Y-99956073D01*
X149597188Y-99926376D01*
X149433216Y-99858456D01*
X149285646Y-99759853D01*
X149160147Y-99634354D01*
X149061544Y-99486784D01*
X148993624Y-99322812D01*
X148959000Y-99148741D01*
X148959000Y-98971259D01*
X148993624Y-98797188D01*
X149061544Y-98633216D01*
X149160147Y-98485646D01*
X149285646Y-98360147D01*
X149433216Y-98261544D01*
X149597188Y-98193624D01*
X149746488Y-98163927D01*
X149771258Y-98159000D01*
X149948742Y-98159000D01*
X149973512Y-98163927D01*
G37*
G36*
X134733512Y-98163927D02*
G01*
X134882812Y-98193624D01*
X135046784Y-98261544D01*
X135194354Y-98360147D01*
X135319853Y-98485646D01*
X135418456Y-98633216D01*
X135486376Y-98797188D01*
X135521000Y-98971259D01*
X135521000Y-99148741D01*
X135486376Y-99322812D01*
X135418456Y-99486784D01*
X135319853Y-99634354D01*
X135194354Y-99759853D01*
X135046784Y-99858456D01*
X134882812Y-99926376D01*
X134733512Y-99956073D01*
X134708742Y-99961000D01*
X134531258Y-99961000D01*
X134506488Y-99956073D01*
X134357188Y-99926376D01*
X134193216Y-99858456D01*
X134045646Y-99759853D01*
X133920147Y-99634354D01*
X133821544Y-99486784D01*
X133753624Y-99322812D01*
X133719000Y-99148741D01*
X133719000Y-98971259D01*
X133753624Y-98797188D01*
X133821544Y-98633216D01*
X133920147Y-98485646D01*
X134045646Y-98360147D01*
X134193216Y-98261544D01*
X134357188Y-98193624D01*
X134506488Y-98163927D01*
X134531258Y-98159000D01*
X134708742Y-98159000D01*
X134733512Y-98163927D01*
G37*
G36*
X134733512Y-95623927D02*
G01*
X134882812Y-95653624D01*
X135046784Y-95721544D01*
X135194354Y-95820147D01*
X135319853Y-95945646D01*
X135418456Y-96093216D01*
X135486376Y-96257188D01*
X135521000Y-96431259D01*
X135521000Y-96608741D01*
X135486376Y-96782812D01*
X135418456Y-96946784D01*
X135319853Y-97094354D01*
X135194354Y-97219853D01*
X135046784Y-97318456D01*
X134882812Y-97386376D01*
X134733512Y-97416073D01*
X134708742Y-97421000D01*
X134531258Y-97421000D01*
X134506488Y-97416073D01*
X134357188Y-97386376D01*
X134193216Y-97318456D01*
X134045646Y-97219853D01*
X133920147Y-97094354D01*
X133821544Y-96946784D01*
X133753624Y-96782812D01*
X133719000Y-96608741D01*
X133719000Y-96431259D01*
X133753624Y-96257188D01*
X133821544Y-96093216D01*
X133920147Y-95945646D01*
X134045646Y-95820147D01*
X134193216Y-95721544D01*
X134357188Y-95653624D01*
X134506488Y-95623927D01*
X134531258Y-95619000D01*
X134708742Y-95619000D01*
X134733512Y-95623927D01*
G37*
G36*
X149973512Y-95623927D02*
G01*
X150122812Y-95653624D01*
X150286784Y-95721544D01*
X150434354Y-95820147D01*
X150559853Y-95945646D01*
X150658456Y-96093216D01*
X150726376Y-96257188D01*
X150761000Y-96431259D01*
X150761000Y-96608741D01*
X150726376Y-96782812D01*
X150658456Y-96946784D01*
X150559853Y-97094354D01*
X150434354Y-97219853D01*
X150286784Y-97318456D01*
X150122812Y-97386376D01*
X149973512Y-97416073D01*
X149948742Y-97421000D01*
X149771258Y-97421000D01*
X149746488Y-97416073D01*
X149597188Y-97386376D01*
X149433216Y-97318456D01*
X149285646Y-97219853D01*
X149160147Y-97094354D01*
X149061544Y-96946784D01*
X148993624Y-96782812D01*
X148959000Y-96608741D01*
X148959000Y-96431259D01*
X148993624Y-96257188D01*
X149061544Y-96093216D01*
X149160147Y-95945646D01*
X149285646Y-95820147D01*
X149433216Y-95721544D01*
X149597188Y-95653624D01*
X149746488Y-95623927D01*
X149771258Y-95619000D01*
X149948742Y-95619000D01*
X149973512Y-95623927D01*
G37*
G36*
X161752394Y-94215546D02*
G01*
X161925465Y-94287234D01*
X161925466Y-94287235D01*
X162081226Y-94391310D01*
X162213689Y-94523773D01*
X162213690Y-94523775D01*
X162317765Y-94679534D01*
X162389453Y-94852605D01*
X162425999Y-95036333D01*
X162425999Y-95223667D01*
X162389453Y-95407395D01*
X162317765Y-95580466D01*
X162317764Y-95580467D01*
X162213689Y-95736227D01*
X162081226Y-95868690D01*
X162002817Y-95921081D01*
X161925465Y-95972766D01*
X161752394Y-96044454D01*
X161568666Y-96081000D01*
X161381332Y-96081000D01*
X161197604Y-96044454D01*
X161024533Y-95972766D01*
X160947181Y-95921081D01*
X160868772Y-95868690D01*
X160736309Y-95736227D01*
X160632234Y-95580467D01*
X160632233Y-95580466D01*
X160560545Y-95407395D01*
X160523999Y-95223667D01*
X160523999Y-95036333D01*
X160560545Y-94852605D01*
X160632233Y-94679534D01*
X160736308Y-94523775D01*
X160736309Y-94523773D01*
X160868772Y-94391310D01*
X161024532Y-94287235D01*
X161024533Y-94287234D01*
X161197604Y-94215546D01*
X161381332Y-94179000D01*
X161568666Y-94179000D01*
X161752394Y-94215546D01*
G37*
G36*
X159252394Y-94215546D02*
G01*
X159425465Y-94287234D01*
X159425466Y-94287235D01*
X159581226Y-94391310D01*
X159713689Y-94523773D01*
X159713690Y-94523775D01*
X159817765Y-94679534D01*
X159889453Y-94852605D01*
X159925999Y-95036333D01*
X159925999Y-95223667D01*
X159889453Y-95407395D01*
X159817765Y-95580466D01*
X159817764Y-95580467D01*
X159713689Y-95736227D01*
X159581226Y-95868690D01*
X159502817Y-95921081D01*
X159425465Y-95972766D01*
X159252394Y-96044454D01*
X159068666Y-96081000D01*
X158881332Y-96081000D01*
X158697604Y-96044454D01*
X158524533Y-95972766D01*
X158447181Y-95921081D01*
X158368772Y-95868690D01*
X158236309Y-95736227D01*
X158132234Y-95580467D01*
X158132233Y-95580466D01*
X158060545Y-95407395D01*
X158023999Y-95223667D01*
X158023999Y-95036333D01*
X158060545Y-94852605D01*
X158132233Y-94679534D01*
X158236308Y-94523775D01*
X158236309Y-94523773D01*
X158368772Y-94391310D01*
X158524532Y-94287235D01*
X158524533Y-94287234D01*
X158697604Y-94215546D01*
X158881332Y-94179000D01*
X159068666Y-94179000D01*
X159252394Y-94215546D01*
G37*
G36*
X164252394Y-94215546D02*
G01*
X164425465Y-94287234D01*
X164425466Y-94287235D01*
X164581226Y-94391310D01*
X164713689Y-94523773D01*
X164713690Y-94523775D01*
X164817765Y-94679534D01*
X164889453Y-94852605D01*
X164925999Y-95036333D01*
X164925999Y-95223667D01*
X164889453Y-95407395D01*
X164817765Y-95580466D01*
X164817764Y-95580467D01*
X164713689Y-95736227D01*
X164581226Y-95868690D01*
X164502817Y-95921081D01*
X164425465Y-95972766D01*
X164252394Y-96044454D01*
X164068666Y-96081000D01*
X163881332Y-96081000D01*
X163697604Y-96044454D01*
X163524533Y-95972766D01*
X163447181Y-95921081D01*
X163368772Y-95868690D01*
X163236309Y-95736227D01*
X163132234Y-95580467D01*
X163132233Y-95580466D01*
X163060545Y-95407395D01*
X163023999Y-95223667D01*
X163023999Y-95036333D01*
X163060545Y-94852605D01*
X163132233Y-94679534D01*
X163236308Y-94523775D01*
X163236309Y-94523773D01*
X163368772Y-94391310D01*
X163524532Y-94287235D01*
X163524533Y-94287234D01*
X163697604Y-94215546D01*
X163881332Y-94179000D01*
X164068666Y-94179000D01*
X164252394Y-94215546D01*
G37*
G36*
X149973512Y-93083927D02*
G01*
X150122812Y-93113624D01*
X150286784Y-93181544D01*
X150434354Y-93280147D01*
X150559853Y-93405646D01*
X150658456Y-93553216D01*
X150726376Y-93717188D01*
X150761000Y-93891259D01*
X150761000Y-94068741D01*
X150726376Y-94242812D01*
X150658456Y-94406784D01*
X150559853Y-94554354D01*
X150434354Y-94679853D01*
X150286784Y-94778456D01*
X150122812Y-94846376D01*
X149973512Y-94876073D01*
X149948742Y-94881000D01*
X149771258Y-94881000D01*
X149746488Y-94876073D01*
X149597188Y-94846376D01*
X149433216Y-94778456D01*
X149285646Y-94679853D01*
X149160147Y-94554354D01*
X149061544Y-94406784D01*
X148993624Y-94242812D01*
X148959000Y-94068741D01*
X148959000Y-93891259D01*
X148993624Y-93717188D01*
X149061544Y-93553216D01*
X149160147Y-93405646D01*
X149285646Y-93280147D01*
X149433216Y-93181544D01*
X149597188Y-93113624D01*
X149746488Y-93083927D01*
X149771258Y-93079000D01*
X149948742Y-93079000D01*
X149973512Y-93083927D01*
G37*
G36*
X134733512Y-93083927D02*
G01*
X134882812Y-93113624D01*
X135046784Y-93181544D01*
X135194354Y-93280147D01*
X135319853Y-93405646D01*
X135418456Y-93553216D01*
X135486376Y-93717188D01*
X135521000Y-93891259D01*
X135521000Y-94068741D01*
X135486376Y-94242812D01*
X135418456Y-94406784D01*
X135319853Y-94554354D01*
X135194354Y-94679853D01*
X135046784Y-94778456D01*
X134882812Y-94846376D01*
X134733512Y-94876073D01*
X134708742Y-94881000D01*
X134531258Y-94881000D01*
X134506488Y-94876073D01*
X134357188Y-94846376D01*
X134193216Y-94778456D01*
X134045646Y-94679853D01*
X133920147Y-94554354D01*
X133821544Y-94406784D01*
X133753624Y-94242812D01*
X133719000Y-94068741D01*
X133719000Y-93891259D01*
X133753624Y-93717188D01*
X133821544Y-93553216D01*
X133920147Y-93405646D01*
X134045646Y-93280147D01*
X134193216Y-93181544D01*
X134357188Y-93113624D01*
X134506488Y-93083927D01*
X134531258Y-93079000D01*
X134708742Y-93079000D01*
X134733512Y-93083927D01*
G37*
G36*
X134733512Y-90543927D02*
G01*
X134882812Y-90573624D01*
X135046784Y-90641544D01*
X135194354Y-90740147D01*
X135319853Y-90865646D01*
X135418456Y-91013216D01*
X135486376Y-91177188D01*
X135521000Y-91351259D01*
X135521000Y-91528741D01*
X135486376Y-91702812D01*
X135418456Y-91866784D01*
X135319853Y-92014354D01*
X135194354Y-92139853D01*
X135046784Y-92238456D01*
X134882812Y-92306376D01*
X134733512Y-92336073D01*
X134708742Y-92341000D01*
X134531258Y-92341000D01*
X134506488Y-92336073D01*
X134357188Y-92306376D01*
X134193216Y-92238456D01*
X134045646Y-92139853D01*
X133920147Y-92014354D01*
X133821544Y-91866784D01*
X133753624Y-91702812D01*
X133719000Y-91528741D01*
X133719000Y-91351259D01*
X133753624Y-91177188D01*
X133821544Y-91013216D01*
X133920147Y-90865646D01*
X134045646Y-90740147D01*
X134193216Y-90641544D01*
X134357188Y-90573624D01*
X134506488Y-90543927D01*
X134531258Y-90539000D01*
X134708742Y-90539000D01*
X134733512Y-90543927D01*
G37*
G36*
X149973512Y-90543927D02*
G01*
X150122812Y-90573624D01*
X150286784Y-90641544D01*
X150434354Y-90740147D01*
X150559853Y-90865646D01*
X150658456Y-91013216D01*
X150726376Y-91177188D01*
X150761000Y-91351259D01*
X150761000Y-91528741D01*
X150726376Y-91702812D01*
X150658456Y-91866784D01*
X150559853Y-92014354D01*
X150434354Y-92139853D01*
X150286784Y-92238456D01*
X150122812Y-92306376D01*
X149973512Y-92336073D01*
X149948742Y-92341000D01*
X149771258Y-92341000D01*
X149746488Y-92336073D01*
X149597188Y-92306376D01*
X149433216Y-92238456D01*
X149285646Y-92139853D01*
X149160147Y-92014354D01*
X149061544Y-91866784D01*
X148993624Y-91702812D01*
X148959000Y-91528741D01*
X148959000Y-91351259D01*
X148993624Y-91177188D01*
X149061544Y-91013216D01*
X149160147Y-90865646D01*
X149285646Y-90740147D01*
X149433216Y-90641544D01*
X149597188Y-90573624D01*
X149746488Y-90543927D01*
X149771258Y-90539000D01*
X149948742Y-90539000D01*
X149973512Y-90543927D01*
G37*
G36*
X134733512Y-88003927D02*
G01*
X134882812Y-88033624D01*
X135046784Y-88101544D01*
X135194354Y-88200147D01*
X135319853Y-88325646D01*
X135418456Y-88473216D01*
X135486376Y-88637188D01*
X135516073Y-88786488D01*
X135521000Y-88811258D01*
X135521000Y-88988742D01*
X135516073Y-89013512D01*
X135486376Y-89162812D01*
X135418456Y-89326784D01*
X135319853Y-89474354D01*
X135194354Y-89599853D01*
X135046784Y-89698456D01*
X134882812Y-89766376D01*
X134733512Y-89796073D01*
X134708742Y-89801000D01*
X134531258Y-89801000D01*
X134506488Y-89796073D01*
X134357188Y-89766376D01*
X134193216Y-89698456D01*
X134045646Y-89599853D01*
X133920147Y-89474354D01*
X133821544Y-89326784D01*
X133753624Y-89162812D01*
X133723927Y-89013512D01*
X133719000Y-88988742D01*
X133719000Y-88811258D01*
X133723927Y-88786488D01*
X133753624Y-88637188D01*
X133821544Y-88473216D01*
X133920147Y-88325646D01*
X134045646Y-88200147D01*
X134193216Y-88101544D01*
X134357188Y-88033624D01*
X134506488Y-88003927D01*
X134531258Y-87999000D01*
X134708742Y-87999000D01*
X134733512Y-88003927D01*
G37*
G36*
X149973512Y-88003927D02*
G01*
X150122812Y-88033624D01*
X150286784Y-88101544D01*
X150434354Y-88200147D01*
X150559853Y-88325646D01*
X150658456Y-88473216D01*
X150726376Y-88637188D01*
X150756073Y-88786488D01*
X150761000Y-88811258D01*
X150761000Y-88988742D01*
X150756073Y-89013512D01*
X150726376Y-89162812D01*
X150658456Y-89326784D01*
X150559853Y-89474354D01*
X150434354Y-89599853D01*
X150286784Y-89698456D01*
X150122812Y-89766376D01*
X149973512Y-89796073D01*
X149948742Y-89801000D01*
X149771258Y-89801000D01*
X149746488Y-89796073D01*
X149597188Y-89766376D01*
X149433216Y-89698456D01*
X149285646Y-89599853D01*
X149160147Y-89474354D01*
X149061544Y-89326784D01*
X148993624Y-89162812D01*
X148963927Y-89013512D01*
X148959000Y-88988742D01*
X148959000Y-88811258D01*
X148963927Y-88786488D01*
X148993624Y-88637188D01*
X149061544Y-88473216D01*
X149160147Y-88325646D01*
X149285646Y-88200147D01*
X149433216Y-88101544D01*
X149597188Y-88033624D01*
X149746488Y-88003927D01*
X149771258Y-87999000D01*
X149948742Y-87999000D01*
X149973512Y-88003927D01*
G37*
G36*
X167472984Y-85923860D02*
G01*
X167585747Y-85946290D01*
X167717740Y-86000963D01*
X167904407Y-86078283D01*
X168191195Y-86269909D01*
X168435090Y-86513804D01*
X168626716Y-86800592D01*
X168682121Y-86934353D01*
X168758709Y-87119252D01*
X168825999Y-87457542D01*
X168825999Y-87802458D01*
X168758709Y-88140748D01*
X168704036Y-88272741D01*
X168626716Y-88459408D01*
X168435090Y-88746196D01*
X168191195Y-88990091D01*
X167904407Y-89181717D01*
X167717740Y-89259037D01*
X167585747Y-89313710D01*
X167472984Y-89336140D01*
X167247459Y-89381000D01*
X166902539Y-89381000D01*
X166677014Y-89336140D01*
X166564251Y-89313710D01*
X166432258Y-89259037D01*
X166245591Y-89181717D01*
X165958803Y-88990091D01*
X165714908Y-88746196D01*
X165523282Y-88459408D01*
X165445962Y-88272741D01*
X165391289Y-88140748D01*
X165323999Y-87802458D01*
X165323999Y-87457542D01*
X165391289Y-87119252D01*
X165467877Y-86934353D01*
X165523282Y-86800592D01*
X165714908Y-86513804D01*
X165958803Y-86269909D01*
X166245591Y-86078283D01*
X166432258Y-86000963D01*
X166564251Y-85946290D01*
X166677014Y-85923860D01*
X166902539Y-85879000D01*
X167247459Y-85879000D01*
X167472984Y-85923860D01*
G37*
G36*
X156272984Y-85923860D02*
G01*
X156385747Y-85946290D01*
X156517740Y-86000963D01*
X156704407Y-86078283D01*
X156991195Y-86269909D01*
X157235090Y-86513804D01*
X157426716Y-86800592D01*
X157482121Y-86934353D01*
X157558709Y-87119252D01*
X157625999Y-87457542D01*
X157625999Y-87802458D01*
X157558709Y-88140748D01*
X157504036Y-88272741D01*
X157426716Y-88459408D01*
X157235090Y-88746196D01*
X156991195Y-88990091D01*
X156704407Y-89181717D01*
X156517740Y-89259037D01*
X156385747Y-89313710D01*
X156272984Y-89336140D01*
X156047459Y-89381000D01*
X155702539Y-89381000D01*
X155477014Y-89336140D01*
X155364251Y-89313710D01*
X155232258Y-89259037D01*
X155045591Y-89181717D01*
X154758803Y-88990091D01*
X154514908Y-88746196D01*
X154323282Y-88459408D01*
X154245962Y-88272741D01*
X154191289Y-88140748D01*
X154123999Y-87802458D01*
X154123999Y-87457542D01*
X154191289Y-87119252D01*
X154267877Y-86934353D01*
X154323282Y-86800592D01*
X154514908Y-86513804D01*
X154758803Y-86269909D01*
X155045591Y-86078283D01*
X155232258Y-86000963D01*
X155364251Y-85946290D01*
X155477014Y-85923860D01*
X155702539Y-85879000D01*
X156047459Y-85879000D01*
X156272984Y-85923860D01*
G37*
G36*
X149973512Y-85463927D02*
G01*
X150122812Y-85493624D01*
X150286784Y-85561544D01*
X150434354Y-85660147D01*
X150559853Y-85785646D01*
X150658456Y-85933216D01*
X150726376Y-86097188D01*
X150756073Y-86246488D01*
X150760732Y-86269909D01*
X150761000Y-86271259D01*
X150761000Y-86448741D01*
X150726376Y-86622812D01*
X150658456Y-86786784D01*
X150559853Y-86934354D01*
X150434354Y-87059853D01*
X150286784Y-87158456D01*
X150122812Y-87226376D01*
X149973512Y-87256073D01*
X149948742Y-87261000D01*
X149771258Y-87261000D01*
X149746488Y-87256073D01*
X149597188Y-87226376D01*
X149433216Y-87158456D01*
X149285646Y-87059853D01*
X149160147Y-86934354D01*
X149061544Y-86786784D01*
X148993624Y-86622812D01*
X148959000Y-86448741D01*
X148959000Y-86271259D01*
X148959269Y-86269909D01*
X148963927Y-86246488D01*
X148993624Y-86097188D01*
X149061544Y-85933216D01*
X149160147Y-85785646D01*
X149285646Y-85660147D01*
X149433216Y-85561544D01*
X149597188Y-85493624D01*
X149746488Y-85463927D01*
X149771258Y-85459000D01*
X149948742Y-85459000D01*
X149973512Y-85463927D01*
G37*
G36*
X134733512Y-85463927D02*
G01*
X134882812Y-85493624D01*
X135046784Y-85561544D01*
X135194354Y-85660147D01*
X135319853Y-85785646D01*
X135418456Y-85933216D01*
X135486376Y-86097188D01*
X135516073Y-86246488D01*
X135520732Y-86269909D01*
X135521000Y-86271259D01*
X135521000Y-86448741D01*
X135486376Y-86622812D01*
X135418456Y-86786784D01*
X135319853Y-86934354D01*
X135194354Y-87059853D01*
X135046784Y-87158456D01*
X134882812Y-87226376D01*
X134733512Y-87256073D01*
X134708742Y-87261000D01*
X134531258Y-87261000D01*
X134506488Y-87256073D01*
X134357188Y-87226376D01*
X134193216Y-87158456D01*
X134045646Y-87059853D01*
X133920147Y-86934354D01*
X133821544Y-86786784D01*
X133753624Y-86622812D01*
X133719000Y-86448741D01*
X133719000Y-86271259D01*
X133719269Y-86269909D01*
X133723927Y-86246488D01*
X133753624Y-86097188D01*
X133821544Y-85933216D01*
X133920147Y-85785646D01*
X134045646Y-85660147D01*
X134193216Y-85561544D01*
X134357188Y-85493624D01*
X134506488Y-85463927D01*
X134531258Y-85459000D01*
X134708742Y-85459000D01*
X134733512Y-85463927D01*
G37*
G36*
X149973512Y-82923927D02*
G01*
X150122812Y-82953624D01*
X150286784Y-83021544D01*
X150434354Y-83120147D01*
X150559853Y-83245646D01*
X150658456Y-83393216D01*
X150726376Y-83557188D01*
X150761000Y-83731259D01*
X150761000Y-83908741D01*
X150726376Y-84082812D01*
X150658456Y-84246784D01*
X150559853Y-84394354D01*
X150434354Y-84519853D01*
X150286784Y-84618456D01*
X150122812Y-84686376D01*
X149973512Y-84716073D01*
X149948742Y-84721000D01*
X149771258Y-84721000D01*
X149746488Y-84716073D01*
X149597188Y-84686376D01*
X149433216Y-84618456D01*
X149285646Y-84519853D01*
X149160147Y-84394354D01*
X149061544Y-84246784D01*
X148993624Y-84082812D01*
X148959000Y-83908741D01*
X148959000Y-83731259D01*
X148993624Y-83557188D01*
X149061544Y-83393216D01*
X149160147Y-83245646D01*
X149285646Y-83120147D01*
X149433216Y-83021544D01*
X149597188Y-82953624D01*
X149746488Y-82923927D01*
X149771258Y-82919000D01*
X149948742Y-82919000D01*
X149973512Y-82923927D01*
G37*
G36*
X134733512Y-82923927D02*
G01*
X134882812Y-82953624D01*
X135046784Y-83021544D01*
X135194354Y-83120147D01*
X135319853Y-83245646D01*
X135418456Y-83393216D01*
X135486376Y-83557188D01*
X135521000Y-83731259D01*
X135521000Y-83908741D01*
X135486376Y-84082812D01*
X135418456Y-84246784D01*
X135319853Y-84394354D01*
X135194354Y-84519853D01*
X135046784Y-84618456D01*
X134882812Y-84686376D01*
X134733512Y-84716073D01*
X134708742Y-84721000D01*
X134531258Y-84721000D01*
X134506488Y-84716073D01*
X134357188Y-84686376D01*
X134193216Y-84618456D01*
X134045646Y-84519853D01*
X133920147Y-84394354D01*
X133821544Y-84246784D01*
X133753624Y-84082812D01*
X133719000Y-83908741D01*
X133719000Y-83731259D01*
X133753624Y-83557188D01*
X133821544Y-83393216D01*
X133920147Y-83245646D01*
X134045646Y-83120147D01*
X134193216Y-83021544D01*
X134357188Y-82953624D01*
X134506488Y-82923927D01*
X134531258Y-82919000D01*
X134708742Y-82919000D01*
X134733512Y-82923927D01*
G37*
G36*
X149973512Y-80383927D02*
G01*
X150122812Y-80413624D01*
X150286784Y-80481544D01*
X150434354Y-80580147D01*
X150559853Y-80705646D01*
X150658456Y-80853216D01*
X150726376Y-81017188D01*
X150761000Y-81191259D01*
X150761000Y-81368741D01*
X150726376Y-81542812D01*
X150658456Y-81706784D01*
X150559853Y-81854354D01*
X150434354Y-81979853D01*
X150286784Y-82078456D01*
X150122812Y-82146376D01*
X149973512Y-82176073D01*
X149948742Y-82181000D01*
X149771258Y-82181000D01*
X149746488Y-82176073D01*
X149597188Y-82146376D01*
X149433216Y-82078456D01*
X149285646Y-81979853D01*
X149160147Y-81854354D01*
X149061544Y-81706784D01*
X148993624Y-81542812D01*
X148959000Y-81368741D01*
X148959000Y-81191259D01*
X148993624Y-81017188D01*
X149061544Y-80853216D01*
X149160147Y-80705646D01*
X149285646Y-80580147D01*
X149433216Y-80481544D01*
X149597188Y-80413624D01*
X149746488Y-80383927D01*
X149771258Y-80379000D01*
X149948742Y-80379000D01*
X149973512Y-80383927D01*
G37*
G36*
X134733512Y-80383927D02*
G01*
X134882812Y-80413624D01*
X135046784Y-80481544D01*
X135194354Y-80580147D01*
X135319853Y-80705646D01*
X135418456Y-80853216D01*
X135486376Y-81017188D01*
X135521000Y-81191259D01*
X135521000Y-81368741D01*
X135486376Y-81542812D01*
X135418456Y-81706784D01*
X135319853Y-81854354D01*
X135194354Y-81979853D01*
X135046784Y-82078456D01*
X134882812Y-82146376D01*
X134733512Y-82176073D01*
X134708742Y-82181000D01*
X134531258Y-82181000D01*
X134506488Y-82176073D01*
X134357188Y-82146376D01*
X134193216Y-82078456D01*
X134045646Y-81979853D01*
X133920147Y-81854354D01*
X133821544Y-81706784D01*
X133753624Y-81542812D01*
X133719000Y-81368741D01*
X133719000Y-81191259D01*
X133753624Y-81017188D01*
X133821544Y-80853216D01*
X133920147Y-80705646D01*
X134045646Y-80580147D01*
X134193216Y-80481544D01*
X134357188Y-80413624D01*
X134506488Y-80383927D01*
X134531258Y-80379000D01*
X134708742Y-80379000D01*
X134733512Y-80383927D01*
G37*
G36*
X159252394Y-79715546D02*
G01*
X159425465Y-79787234D01*
X159425466Y-79787235D01*
X159581226Y-79891310D01*
X159713689Y-80023773D01*
X159713690Y-80023775D01*
X159817765Y-80179534D01*
X159889453Y-80352605D01*
X159925999Y-80536333D01*
X159925999Y-80723667D01*
X159889453Y-80907395D01*
X159817765Y-81080466D01*
X159817764Y-81080467D01*
X159713689Y-81236227D01*
X159581226Y-81368690D01*
X159581148Y-81368742D01*
X159425465Y-81472766D01*
X159252394Y-81544454D01*
X159068666Y-81581000D01*
X158881332Y-81581000D01*
X158697604Y-81544454D01*
X158524533Y-81472766D01*
X158368850Y-81368742D01*
X158368772Y-81368690D01*
X158236309Y-81236227D01*
X158132234Y-81080467D01*
X158132233Y-81080466D01*
X158060545Y-80907395D01*
X158023999Y-80723667D01*
X158023999Y-80536333D01*
X158060545Y-80352605D01*
X158132233Y-80179534D01*
X158236308Y-80023775D01*
X158236309Y-80023773D01*
X158368772Y-79891310D01*
X158524532Y-79787235D01*
X158524533Y-79787234D01*
X158697604Y-79715546D01*
X158881332Y-79679000D01*
X159068666Y-79679000D01*
X159252394Y-79715546D01*
G37*
G36*
X164252394Y-79715546D02*
G01*
X164425465Y-79787234D01*
X164425466Y-79787235D01*
X164581226Y-79891310D01*
X164713689Y-80023773D01*
X164713690Y-80023775D01*
X164817765Y-80179534D01*
X164889453Y-80352605D01*
X164925999Y-80536333D01*
X164925999Y-80723667D01*
X164889453Y-80907395D01*
X164817765Y-81080466D01*
X164817764Y-81080467D01*
X164713689Y-81236227D01*
X164581226Y-81368690D01*
X164581148Y-81368742D01*
X164425465Y-81472766D01*
X164252394Y-81544454D01*
X164068666Y-81581000D01*
X163881332Y-81581000D01*
X163697604Y-81544454D01*
X163524533Y-81472766D01*
X163368850Y-81368742D01*
X163368772Y-81368690D01*
X163236309Y-81236227D01*
X163132234Y-81080467D01*
X163132233Y-81080466D01*
X163060545Y-80907395D01*
X163023999Y-80723667D01*
X163023999Y-80536333D01*
X163060545Y-80352605D01*
X163132233Y-80179534D01*
X163236308Y-80023775D01*
X163236309Y-80023773D01*
X163368772Y-79891310D01*
X163524532Y-79787235D01*
X163524533Y-79787234D01*
X163697604Y-79715546D01*
X163881332Y-79679000D01*
X164068666Y-79679000D01*
X164252394Y-79715546D01*
G37*
G36*
X134733512Y-77843927D02*
G01*
X134882812Y-77873624D01*
X135046784Y-77941544D01*
X135194354Y-78040147D01*
X135319853Y-78165646D01*
X135418456Y-78313216D01*
X135486376Y-78477188D01*
X135521000Y-78651259D01*
X135521000Y-78828741D01*
X135486376Y-79002812D01*
X135418456Y-79166784D01*
X135319853Y-79314354D01*
X135194354Y-79439853D01*
X135046784Y-79538456D01*
X134882812Y-79606376D01*
X134733512Y-79636073D01*
X134708742Y-79641000D01*
X134531258Y-79641000D01*
X134506488Y-79636073D01*
X134357188Y-79606376D01*
X134193216Y-79538456D01*
X134045646Y-79439853D01*
X133920147Y-79314354D01*
X133821544Y-79166784D01*
X133753624Y-79002812D01*
X133719000Y-78828741D01*
X133719000Y-78651259D01*
X133753624Y-78477188D01*
X133821544Y-78313216D01*
X133920147Y-78165646D01*
X134045646Y-78040147D01*
X134193216Y-77941544D01*
X134357188Y-77873624D01*
X134506488Y-77843927D01*
X134531258Y-77839000D01*
X134708742Y-77839000D01*
X134733512Y-77843927D01*
G37*
G36*
X149973512Y-77843927D02*
G01*
X150122812Y-77873624D01*
X150286784Y-77941544D01*
X150434354Y-78040147D01*
X150559853Y-78165646D01*
X150658456Y-78313216D01*
X150726376Y-78477188D01*
X150761000Y-78651259D01*
X150761000Y-78828741D01*
X150726376Y-79002812D01*
X150658456Y-79166784D01*
X150559853Y-79314354D01*
X150434354Y-79439853D01*
X150286784Y-79538456D01*
X150122812Y-79606376D01*
X149973512Y-79636073D01*
X149948742Y-79641000D01*
X149771258Y-79641000D01*
X149746488Y-79636073D01*
X149597188Y-79606376D01*
X149433216Y-79538456D01*
X149285646Y-79439853D01*
X149160147Y-79314354D01*
X149061544Y-79166784D01*
X148993624Y-79002812D01*
X148959000Y-78828741D01*
X148959000Y-78651259D01*
X148993624Y-78477188D01*
X149061544Y-78313216D01*
X149160147Y-78165646D01*
X149285646Y-78040147D01*
X149433216Y-77941544D01*
X149597188Y-77873624D01*
X149746488Y-77843927D01*
X149771258Y-77839000D01*
X149948742Y-77839000D01*
X149973512Y-77843927D01*
G37*
G36*
X134733512Y-75303927D02*
G01*
X134882812Y-75333624D01*
X135046784Y-75401544D01*
X135194354Y-75500147D01*
X135319853Y-75625646D01*
X135418456Y-75773216D01*
X135486376Y-75937188D01*
X135521000Y-76111259D01*
X135521000Y-76288741D01*
X135486376Y-76462812D01*
X135418456Y-76626784D01*
X135319853Y-76774354D01*
X135194354Y-76899853D01*
X135046784Y-76998456D01*
X134882812Y-77066376D01*
X134733512Y-77096073D01*
X134708742Y-77101000D01*
X134531258Y-77101000D01*
X134506488Y-77096073D01*
X134357188Y-77066376D01*
X134193216Y-76998456D01*
X134045646Y-76899853D01*
X133920147Y-76774354D01*
X133821544Y-76626784D01*
X133753624Y-76462812D01*
X133719000Y-76288741D01*
X133719000Y-76111259D01*
X133753624Y-75937188D01*
X133821544Y-75773216D01*
X133920147Y-75625646D01*
X134045646Y-75500147D01*
X134193216Y-75401544D01*
X134357188Y-75333624D01*
X134506488Y-75303927D01*
X134531258Y-75299000D01*
X134708742Y-75299000D01*
X134733512Y-75303927D01*
G37*
G36*
X149973512Y-75303927D02*
G01*
X150122812Y-75333624D01*
X150286784Y-75401544D01*
X150434354Y-75500147D01*
X150559853Y-75625646D01*
X150658456Y-75773216D01*
X150726376Y-75937188D01*
X150761000Y-76111259D01*
X150761000Y-76288741D01*
X150726376Y-76462812D01*
X150658456Y-76626784D01*
X150559853Y-76774354D01*
X150434354Y-76899853D01*
X150286784Y-76998456D01*
X150122812Y-77066376D01*
X149973512Y-77096073D01*
X149948742Y-77101000D01*
X149771258Y-77101000D01*
X149746488Y-77096073D01*
X149597188Y-77066376D01*
X149433216Y-76998456D01*
X149285646Y-76899853D01*
X149160147Y-76774354D01*
X149061544Y-76626784D01*
X148993624Y-76462812D01*
X148959000Y-76288741D01*
X148959000Y-76111259D01*
X148993624Y-75937188D01*
X149061544Y-75773216D01*
X149160147Y-75625646D01*
X149285646Y-75500147D01*
X149433216Y-75401544D01*
X149597188Y-75333624D01*
X149746488Y-75303927D01*
X149771258Y-75299000D01*
X149948742Y-75299000D01*
X149973512Y-75303927D01*
G37*
G36*
X149973512Y-72763927D02*
G01*
X150122812Y-72793624D01*
X150286784Y-72861544D01*
X150434354Y-72960147D01*
X150559853Y-73085646D01*
X150658456Y-73233216D01*
X150726376Y-73397188D01*
X150761000Y-73571259D01*
X150761000Y-73748741D01*
X150726376Y-73922812D01*
X150658456Y-74086784D01*
X150559853Y-74234354D01*
X150434354Y-74359853D01*
X150286784Y-74458456D01*
X150122812Y-74526376D01*
X149973512Y-74556073D01*
X149948742Y-74561000D01*
X149771258Y-74561000D01*
X149746488Y-74556073D01*
X149597188Y-74526376D01*
X149433216Y-74458456D01*
X149285646Y-74359853D01*
X149160147Y-74234354D01*
X149061544Y-74086784D01*
X148993624Y-73922812D01*
X148959000Y-73748741D01*
X148959000Y-73571259D01*
X148993624Y-73397188D01*
X149061544Y-73233216D01*
X149160147Y-73085646D01*
X149285646Y-72960147D01*
X149433216Y-72861544D01*
X149597188Y-72793624D01*
X149746488Y-72763927D01*
X149771258Y-72759000D01*
X149948742Y-72759000D01*
X149973512Y-72763927D01*
G37*
G36*
X134733512Y-72763927D02*
G01*
X134882812Y-72793624D01*
X135046784Y-72861544D01*
X135194354Y-72960147D01*
X135319853Y-73085646D01*
X135418456Y-73233216D01*
X135486376Y-73397188D01*
X135521000Y-73571259D01*
X135521000Y-73748741D01*
X135486376Y-73922812D01*
X135418456Y-74086784D01*
X135319853Y-74234354D01*
X135194354Y-74359853D01*
X135046784Y-74458456D01*
X134882812Y-74526376D01*
X134733512Y-74556073D01*
X134708742Y-74561000D01*
X134531258Y-74561000D01*
X134506488Y-74556073D01*
X134357188Y-74526376D01*
X134193216Y-74458456D01*
X134045646Y-74359853D01*
X133920147Y-74234354D01*
X133821544Y-74086784D01*
X133753624Y-73922812D01*
X133719000Y-73748741D01*
X133719000Y-73571259D01*
X133753624Y-73397188D01*
X133821544Y-73233216D01*
X133920147Y-73085646D01*
X134045646Y-72960147D01*
X134193216Y-72861544D01*
X134357188Y-72793624D01*
X134506488Y-72763927D01*
X134531258Y-72759000D01*
X134708742Y-72759000D01*
X134733512Y-72763927D01*
G37*
G36*
X149973512Y-70223927D02*
G01*
X150122812Y-70253624D01*
X150286784Y-70321544D01*
X150434354Y-70420147D01*
X150559853Y-70545646D01*
X150658456Y-70693216D01*
X150726376Y-70857188D01*
X150761000Y-71031259D01*
X150761000Y-71208741D01*
X150726376Y-71382812D01*
X150658456Y-71546784D01*
X150559853Y-71694354D01*
X150434354Y-71819853D01*
X150286784Y-71918456D01*
X150122812Y-71986376D01*
X149973512Y-72016073D01*
X149948742Y-72021000D01*
X149771258Y-72021000D01*
X149746488Y-72016073D01*
X149597188Y-71986376D01*
X149433216Y-71918456D01*
X149285646Y-71819853D01*
X149160147Y-71694354D01*
X149061544Y-71546784D01*
X148993624Y-71382812D01*
X148959000Y-71208741D01*
X148959000Y-71031259D01*
X148993624Y-70857188D01*
X149061544Y-70693216D01*
X149160147Y-70545646D01*
X149285646Y-70420147D01*
X149433216Y-70321544D01*
X149597188Y-70253624D01*
X149746488Y-70223927D01*
X149771258Y-70219000D01*
X149948742Y-70219000D01*
X149973512Y-70223927D01*
G37*
G36*
X134733512Y-70223927D02*
G01*
X134882812Y-70253624D01*
X135046784Y-70321544D01*
X135194354Y-70420147D01*
X135319853Y-70545646D01*
X135418456Y-70693216D01*
X135486376Y-70857188D01*
X135521000Y-71031259D01*
X135521000Y-71208741D01*
X135486376Y-71382812D01*
X135418456Y-71546784D01*
X135319853Y-71694354D01*
X135194354Y-71819853D01*
X135046784Y-71918456D01*
X134882812Y-71986376D01*
X134733512Y-72016073D01*
X134708742Y-72021000D01*
X134531258Y-72021000D01*
X134506488Y-72016073D01*
X134357188Y-71986376D01*
X134193216Y-71918456D01*
X134045646Y-71819853D01*
X133920147Y-71694354D01*
X133821544Y-71546784D01*
X133753624Y-71382812D01*
X133719000Y-71208741D01*
X133719000Y-71031259D01*
X133753624Y-70857188D01*
X133821544Y-70693216D01*
X133920147Y-70545646D01*
X134045646Y-70420147D01*
X134193216Y-70321544D01*
X134357188Y-70253624D01*
X134506488Y-70223927D01*
X134531258Y-70219000D01*
X134708742Y-70219000D01*
X134733512Y-70223927D01*
G37*
M02*
