G04 #@! TF.GenerationSoftware,KiCad,Pcbnew,(5.1.5-0-10_14)*
G04 #@! TF.CreationDate,2020-10-09T21:57:48+02:00*
G04 #@! TF.ProjectId,es_rotary,65735f72-6f74-4617-9279-2e6b69636164,rev?*
G04 #@! TF.SameCoordinates,Original*
G04 #@! TF.FileFunction,Legend,Top*
G04 #@! TF.FilePolarity,Positive*
%FSLAX46Y46*%
G04 Gerber Fmt 4.6, Leading zero omitted, Abs format (unit mm)*
G04 Created by KiCad (PCBNEW (5.1.5-0-10_14)) date 2020-10-09 21:57:48*
%MOMM*%
%LPD*%
G04 APERTURE LIST*
%ADD10C,0.190500*%
%ADD11C,0.300000*%
%ADD12C,0.150000*%
%ADD13C,0.120000*%
%ADD14C,0.203200*%
%ADD15C,0.152400*%
G04 APERTURE END LIST*
D10*
X139740000Y-71981785D02*
X139811428Y-71945500D01*
X139954285Y-71909214D01*
X140311428Y-71909214D01*
X140454285Y-71945500D01*
X140525714Y-71981785D01*
X140597142Y-72054357D01*
X140597142Y-72126928D01*
X140525714Y-72235785D01*
X139668571Y-72671214D01*
X140597142Y-72671214D01*
X141454285Y-72671214D02*
X141311428Y-72634928D01*
X141240000Y-72598642D01*
X141168571Y-72526071D01*
X141168571Y-72308357D01*
X141240000Y-72235785D01*
X141311428Y-72199500D01*
X141454285Y-72163214D01*
X141668571Y-72163214D01*
X141811428Y-72199500D01*
X141882857Y-72235785D01*
X141954285Y-72308357D01*
X141954285Y-72526071D01*
X141882857Y-72598642D01*
X141811428Y-72634928D01*
X141668571Y-72671214D01*
X141454285Y-72671214D01*
X142525714Y-71981785D02*
X142597142Y-71945500D01*
X142740000Y-71909214D01*
X143097142Y-71909214D01*
X143240000Y-71945500D01*
X143311428Y-71981785D01*
X143382857Y-72054357D01*
X143382857Y-72126928D01*
X143311428Y-72235785D01*
X142454285Y-72671214D01*
X143382857Y-72671214D01*
X144240000Y-72671214D02*
X144097142Y-72634928D01*
X144025714Y-72598642D01*
X143954285Y-72526071D01*
X143954285Y-72308357D01*
X144025714Y-72235785D01*
X144097142Y-72199500D01*
X144240000Y-72163214D01*
X144454285Y-72163214D01*
X144597142Y-72199500D01*
X144668571Y-72235785D01*
X144740000Y-72308357D01*
X144740000Y-72526071D01*
X144668571Y-72598642D01*
X144597142Y-72634928D01*
X144454285Y-72671214D01*
X144240000Y-72671214D01*
X139168571Y-74004714D02*
X139025714Y-73968428D01*
X138954285Y-73895857D01*
X138954285Y-73242714D01*
X140382857Y-74004714D02*
X140382857Y-73605571D01*
X140311428Y-73533000D01*
X140168571Y-73496714D01*
X139882857Y-73496714D01*
X139740000Y-73533000D01*
X140382857Y-73968428D02*
X140240000Y-74004714D01*
X139882857Y-74004714D01*
X139740000Y-73968428D01*
X139668571Y-73895857D01*
X139668571Y-73823285D01*
X139740000Y-73750714D01*
X139882857Y-73714428D01*
X140240000Y-73714428D01*
X140382857Y-73678142D01*
X141311428Y-74004714D02*
X141168571Y-73968428D01*
X141097142Y-73895857D01*
X141097142Y-73242714D01*
X142097142Y-74004714D02*
X141954285Y-73968428D01*
X141882857Y-73895857D01*
X141882857Y-73242714D01*
X143311428Y-74004714D02*
X143311428Y-73605571D01*
X143240000Y-73533000D01*
X143097142Y-73496714D01*
X142811428Y-73496714D01*
X142668571Y-73533000D01*
X143311428Y-73968428D02*
X143168571Y-74004714D01*
X142811428Y-74004714D01*
X142668571Y-73968428D01*
X142597142Y-73895857D01*
X142597142Y-73823285D01*
X142668571Y-73750714D01*
X142811428Y-73714428D01*
X143168571Y-73714428D01*
X143311428Y-73678142D01*
X143811428Y-73496714D02*
X144382857Y-73496714D01*
X144025714Y-74004714D02*
X144025714Y-73351571D01*
X144097142Y-73279000D01*
X144240000Y-73242714D01*
X144382857Y-73242714D01*
X145525714Y-74004714D02*
X145525714Y-73605571D01*
X145454285Y-73533000D01*
X145311428Y-73496714D01*
X145025714Y-73496714D01*
X144882857Y-73533000D01*
X145525714Y-73968428D02*
X145382857Y-74004714D01*
X145025714Y-74004714D01*
X144882857Y-73968428D01*
X144811428Y-73895857D01*
X144811428Y-73823285D01*
X144882857Y-73750714D01*
X145025714Y-73714428D01*
X145382857Y-73714428D01*
X145525714Y-73678142D01*
X139132857Y-75338214D02*
X138632857Y-74975357D01*
X138275714Y-75338214D02*
X138275714Y-74576214D01*
X138847142Y-74576214D01*
X138990000Y-74612500D01*
X139061428Y-74648785D01*
X139132857Y-74721357D01*
X139132857Y-74830214D01*
X139061428Y-74902785D01*
X138990000Y-74939071D01*
X138847142Y-74975357D01*
X138275714Y-74975357D01*
X140347142Y-75301928D02*
X140204285Y-75338214D01*
X139918571Y-75338214D01*
X139775714Y-75301928D01*
X139704285Y-75229357D01*
X139704285Y-74939071D01*
X139775714Y-74866500D01*
X139918571Y-74830214D01*
X140204285Y-74830214D01*
X140347142Y-74866500D01*
X140418571Y-74939071D01*
X140418571Y-75011642D01*
X139704285Y-75084214D01*
X140918571Y-74830214D02*
X141275714Y-75338214D01*
X141632857Y-74830214D01*
X144132857Y-75338214D02*
X143275714Y-75338214D01*
X143704285Y-75338214D02*
X143704285Y-74576214D01*
X143561428Y-74685071D01*
X143418571Y-74757642D01*
X143275714Y-74793928D01*
X144775714Y-75265642D02*
X144847142Y-75301928D01*
X144775714Y-75338214D01*
X144704285Y-75301928D01*
X144775714Y-75265642D01*
X144775714Y-75338214D01*
X146275714Y-75338214D02*
X145418571Y-75338214D01*
X145847142Y-75338214D02*
X145847142Y-74576214D01*
X145704285Y-74685071D01*
X145561428Y-74757642D01*
X145418571Y-74793928D01*
D11*
X144897142Y-82022857D02*
X144897142Y-82522857D01*
X144111428Y-82737142D02*
X144111428Y-82022857D01*
X145611428Y-82022857D01*
X145611428Y-82737142D01*
X145111428Y-84022857D02*
X144111428Y-84022857D01*
X145111428Y-83380000D02*
X144325714Y-83380000D01*
X144182857Y-83451428D01*
X144111428Y-83594285D01*
X144111428Y-83808571D01*
X144182857Y-83951428D01*
X144254285Y-84022857D01*
X144111428Y-84737142D02*
X145111428Y-84737142D01*
X144825714Y-84737142D02*
X144968571Y-84808571D01*
X145040000Y-84880000D01*
X145111428Y-85022857D01*
X145111428Y-85165714D01*
X144111428Y-85880000D02*
X144182857Y-85737142D01*
X144254285Y-85665714D01*
X144397142Y-85594285D01*
X144825714Y-85594285D01*
X144968571Y-85665714D01*
X145040000Y-85737142D01*
X145111428Y-85880000D01*
X145111428Y-86094285D01*
X145040000Y-86237142D01*
X144968571Y-86308571D01*
X144825714Y-86380000D01*
X144397142Y-86380000D01*
X144254285Y-86308571D01*
X144182857Y-86237142D01*
X144111428Y-86094285D01*
X144111428Y-85880000D01*
X144182857Y-86951428D02*
X144111428Y-87165714D01*
X144111428Y-87522857D01*
X144182857Y-87665714D01*
X144254285Y-87737142D01*
X144397142Y-87808571D01*
X144540000Y-87808571D01*
X144682857Y-87737142D01*
X144754285Y-87665714D01*
X144825714Y-87522857D01*
X144897142Y-87237142D01*
X144968571Y-87094285D01*
X145040000Y-87022857D01*
X145182857Y-86951428D01*
X145325714Y-86951428D01*
X145468571Y-87022857D01*
X145540000Y-87094285D01*
X145611428Y-87237142D01*
X145611428Y-87594285D01*
X145540000Y-87808571D01*
X144111428Y-88451428D02*
X145611428Y-88451428D01*
X144111428Y-89094285D02*
X144897142Y-89094285D01*
X145040000Y-89022857D01*
X145111428Y-88880000D01*
X145111428Y-88665714D01*
X145040000Y-88522857D01*
X144968571Y-88451428D01*
X144111428Y-89808571D02*
X145111428Y-89808571D01*
X145611428Y-89808571D02*
X145540000Y-89737142D01*
X145468571Y-89808571D01*
X145540000Y-89880000D01*
X145611428Y-89808571D01*
X145468571Y-89808571D01*
X144182857Y-91094285D02*
X144111428Y-90951428D01*
X144111428Y-90665714D01*
X144182857Y-90522857D01*
X144325714Y-90451428D01*
X144897142Y-90451428D01*
X145040000Y-90522857D01*
X145111428Y-90665714D01*
X145111428Y-90951428D01*
X145040000Y-91094285D01*
X144897142Y-91165714D01*
X144754285Y-91165714D01*
X144611428Y-90451428D01*
X144111428Y-92022857D02*
X144182857Y-91880000D01*
X144325714Y-91808571D01*
X145611428Y-91808571D01*
X144111428Y-93237142D02*
X145611428Y-93237142D01*
X144182857Y-93237142D02*
X144111428Y-93094285D01*
X144111428Y-92808571D01*
X144182857Y-92665714D01*
X144254285Y-92594285D01*
X144397142Y-92522857D01*
X144825714Y-92522857D01*
X144968571Y-92594285D01*
X145040000Y-92665714D01*
X145111428Y-92808571D01*
X145111428Y-93094285D01*
X145040000Y-93237142D01*
X141561428Y-80237142D02*
X142275714Y-79737142D01*
X141561428Y-79379999D02*
X143061428Y-79379999D01*
X143061428Y-79951428D01*
X142990000Y-80094285D01*
X142918571Y-80165714D01*
X142775714Y-80237142D01*
X142561428Y-80237142D01*
X142418571Y-80165714D01*
X142347142Y-80094285D01*
X142275714Y-79951428D01*
X142275714Y-79379999D01*
X141561428Y-81094285D02*
X141632857Y-80951428D01*
X141704285Y-80880000D01*
X141847142Y-80808571D01*
X142275714Y-80808571D01*
X142418571Y-80880000D01*
X142490000Y-80951428D01*
X142561428Y-81094285D01*
X142561428Y-81308571D01*
X142490000Y-81451428D01*
X142418571Y-81522857D01*
X142275714Y-81594285D01*
X141847142Y-81594285D01*
X141704285Y-81522857D01*
X141632857Y-81451428D01*
X141561428Y-81308571D01*
X141561428Y-81094285D01*
X142561428Y-82022857D02*
X142561428Y-82594285D01*
X143061428Y-82237142D02*
X141775714Y-82237142D01*
X141632857Y-82308571D01*
X141561428Y-82451428D01*
X141561428Y-82594285D01*
X141561428Y-83737142D02*
X142347142Y-83737142D01*
X142490000Y-83665714D01*
X142561428Y-83522857D01*
X142561428Y-83237142D01*
X142490000Y-83094285D01*
X141632857Y-83737142D02*
X141561428Y-83594285D01*
X141561428Y-83237142D01*
X141632857Y-83094285D01*
X141775714Y-83022857D01*
X141918571Y-83022857D01*
X142061428Y-83094285D01*
X142132857Y-83237142D01*
X142132857Y-83594285D01*
X142204285Y-83737142D01*
X141561428Y-84451428D02*
X142561428Y-84451428D01*
X142275714Y-84451428D02*
X142418571Y-84522857D01*
X142490000Y-84594285D01*
X142561428Y-84737142D01*
X142561428Y-84880000D01*
X142561428Y-85237142D02*
X141561428Y-85594285D01*
X142561428Y-85951428D02*
X141561428Y-85594285D01*
X141204285Y-85451428D01*
X141132857Y-85380000D01*
X141061428Y-85237142D01*
X142347142Y-87665714D02*
X142347142Y-88165714D01*
X141561428Y-88380000D02*
X141561428Y-87665714D01*
X143061428Y-87665714D01*
X143061428Y-88380000D01*
X142561428Y-89022857D02*
X141561428Y-89022857D01*
X142418571Y-89022857D02*
X142490000Y-89094285D01*
X142561428Y-89237142D01*
X142561428Y-89451428D01*
X142490000Y-89594285D01*
X142347142Y-89665714D01*
X141561428Y-89665714D01*
X141632857Y-91022857D02*
X141561428Y-90880000D01*
X141561428Y-90594285D01*
X141632857Y-90451428D01*
X141704285Y-90380000D01*
X141847142Y-90308571D01*
X142275714Y-90308571D01*
X142418571Y-90380000D01*
X142490000Y-90451428D01*
X142561428Y-90594285D01*
X142561428Y-90880000D01*
X142490000Y-91022857D01*
X141561428Y-91880000D02*
X141632857Y-91737142D01*
X141704285Y-91665714D01*
X141847142Y-91594285D01*
X142275714Y-91594285D01*
X142418571Y-91665714D01*
X142490000Y-91737142D01*
X142561428Y-91880000D01*
X142561428Y-92094285D01*
X142490000Y-92237142D01*
X142418571Y-92308571D01*
X142275714Y-92380000D01*
X141847142Y-92380000D01*
X141704285Y-92308571D01*
X141632857Y-92237142D01*
X141561428Y-92094285D01*
X141561428Y-91880000D01*
X141561428Y-93665714D02*
X143061428Y-93665714D01*
X141632857Y-93665714D02*
X141561428Y-93522857D01*
X141561428Y-93237142D01*
X141632857Y-93094285D01*
X141704285Y-93022857D01*
X141847142Y-92951428D01*
X142275714Y-92951428D01*
X142418571Y-93022857D01*
X142490000Y-93094285D01*
X142561428Y-93237142D01*
X142561428Y-93522857D01*
X142490000Y-93665714D01*
X141632857Y-94951428D02*
X141561428Y-94808571D01*
X141561428Y-94522857D01*
X141632857Y-94380000D01*
X141775714Y-94308571D01*
X142347142Y-94308571D01*
X142490000Y-94380000D01*
X142561428Y-94522857D01*
X142561428Y-94808571D01*
X142490000Y-94951428D01*
X142347142Y-95022857D01*
X142204285Y-95022857D01*
X142061428Y-94308571D01*
X141561428Y-95665714D02*
X142561428Y-95665714D01*
X142275714Y-95665714D02*
X142418571Y-95737142D01*
X142490000Y-95808571D01*
X142561428Y-95951428D01*
X142561428Y-96094285D01*
X139797142Y-85130000D02*
X139725714Y-85344285D01*
X139654285Y-85415714D01*
X139511428Y-85487142D01*
X139297142Y-85487142D01*
X139154285Y-85415714D01*
X139082857Y-85344285D01*
X139011428Y-85201428D01*
X139011428Y-84630000D01*
X140511428Y-84630000D01*
X140511428Y-85130000D01*
X140440000Y-85272857D01*
X140368571Y-85344285D01*
X140225714Y-85415714D01*
X140082857Y-85415714D01*
X139940000Y-85344285D01*
X139868571Y-85272857D01*
X139797142Y-85130000D01*
X139797142Y-84630000D01*
X140011428Y-86772857D02*
X139011428Y-86772857D01*
X140011428Y-86130000D02*
X139225714Y-86130000D01*
X139082857Y-86201428D01*
X139011428Y-86344285D01*
X139011428Y-86558571D01*
X139082857Y-86701428D01*
X139154285Y-86772857D01*
X139011428Y-88130000D02*
X140511428Y-88130000D01*
X139082857Y-88130000D02*
X139011428Y-87987142D01*
X139011428Y-87701428D01*
X139082857Y-87558571D01*
X139154285Y-87487142D01*
X139297142Y-87415714D01*
X139725714Y-87415714D01*
X139868571Y-87487142D01*
X139940000Y-87558571D01*
X140011428Y-87701428D01*
X140011428Y-87987142D01*
X139940000Y-88130000D01*
X139011428Y-89487142D02*
X140511428Y-89487142D01*
X139082857Y-89487142D02*
X139011428Y-89344285D01*
X139011428Y-89058571D01*
X139082857Y-88915714D01*
X139154285Y-88844285D01*
X139297142Y-88772857D01*
X139725714Y-88772857D01*
X139868571Y-88844285D01*
X139940000Y-88915714D01*
X140011428Y-89058571D01*
X140011428Y-89344285D01*
X139940000Y-89487142D01*
X140011428Y-90058571D02*
X139011428Y-90415714D01*
X140011428Y-90772857D02*
X139011428Y-90415714D01*
X138654285Y-90272857D01*
X138582857Y-90201428D01*
X138511428Y-90058571D01*
D12*
X138359047Y-99592380D02*
X138930476Y-99592380D01*
X138644761Y-100592380D02*
X138644761Y-99592380D01*
X139644761Y-100544761D02*
X139549523Y-100592380D01*
X139359047Y-100592380D01*
X139263809Y-100544761D01*
X139216190Y-100449523D01*
X139216190Y-100068571D01*
X139263809Y-99973333D01*
X139359047Y-99925714D01*
X139549523Y-99925714D01*
X139644761Y-99973333D01*
X139692380Y-100068571D01*
X139692380Y-100163809D01*
X139216190Y-100259047D01*
X140501904Y-100544761D02*
X140406666Y-100592380D01*
X140216190Y-100592380D01*
X140120952Y-100544761D01*
X140073333Y-100449523D01*
X140073333Y-100068571D01*
X140120952Y-99973333D01*
X140216190Y-99925714D01*
X140406666Y-99925714D01*
X140501904Y-99973333D01*
X140549523Y-100068571D01*
X140549523Y-100163809D01*
X140073333Y-100259047D01*
X140978095Y-99925714D02*
X140978095Y-100592380D01*
X140978095Y-100020952D02*
X141025714Y-99973333D01*
X141120952Y-99925714D01*
X141263809Y-99925714D01*
X141359047Y-99973333D01*
X141406666Y-100068571D01*
X141406666Y-100592380D01*
X141835238Y-100544761D02*
X141930476Y-100592380D01*
X142120952Y-100592380D01*
X142216190Y-100544761D01*
X142263809Y-100449523D01*
X142263809Y-100401904D01*
X142216190Y-100306666D01*
X142120952Y-100259047D01*
X141978095Y-100259047D01*
X141882857Y-100211428D01*
X141835238Y-100116190D01*
X141835238Y-100068571D01*
X141882857Y-99973333D01*
X141978095Y-99925714D01*
X142120952Y-99925714D01*
X142216190Y-99973333D01*
X142597142Y-99925714D02*
X142835238Y-100592380D01*
X143073333Y-99925714D02*
X142835238Y-100592380D01*
X142740000Y-100830476D01*
X142692380Y-100878095D01*
X142597142Y-100925714D01*
X144120952Y-99592380D02*
X144740000Y-99592380D01*
X144406666Y-99973333D01*
X144549523Y-99973333D01*
X144644761Y-100020952D01*
X144692380Y-100068571D01*
X144740000Y-100163809D01*
X144740000Y-100401904D01*
X144692380Y-100497142D01*
X144644761Y-100544761D01*
X144549523Y-100592380D01*
X144263809Y-100592380D01*
X144168571Y-100544761D01*
X144120952Y-100497142D01*
X145168571Y-100497142D02*
X145216190Y-100544761D01*
X145168571Y-100592380D01*
X145120952Y-100544761D01*
X145168571Y-100497142D01*
X145168571Y-100592380D01*
X145549523Y-100592380D02*
X146073333Y-99925714D01*
X145549523Y-99925714D02*
X146073333Y-100592380D01*
D13*
X138430000Y-101600000D02*
X138430000Y-105410000D01*
X145415000Y-101600000D02*
X138430000Y-101600000D01*
X145415000Y-105410000D02*
X145415000Y-101600000D01*
X151130000Y-69850000D02*
X151130000Y-105410000D01*
X133350000Y-69850000D02*
X151130000Y-69850000D01*
X133350000Y-105410000D02*
X133350000Y-69850000D01*
X151130000Y-105410000D02*
X133350000Y-105410000D01*
X154321252Y-98985000D02*
X153798748Y-98985000D01*
X154321252Y-100405000D02*
X153798748Y-100405000D01*
D14*
X167474999Y-81130000D02*
X167474999Y-94130000D01*
X155474999Y-81130000D02*
X167474999Y-81130000D01*
X155474999Y-94130000D02*
X155474999Y-81130000D01*
X167474999Y-94130000D02*
X155474999Y-94130000D01*
X164974999Y-87630000D02*
G75*
G03X164974999Y-87630000I-3500000J0D01*
G01*
X164474999Y-86130000D02*
X158474999Y-86130000D01*
D13*
X154321252Y-95810000D02*
X153798748Y-95810000D01*
X154321252Y-97230000D02*
X153798748Y-97230000D01*
X154321252Y-78030000D02*
X153798748Y-78030000D01*
X154321252Y-79450000D02*
X153798748Y-79450000D01*
D12*
X153893333Y-101797380D02*
X153560000Y-101321190D01*
X153321904Y-101797380D02*
X153321904Y-100797380D01*
X153702857Y-100797380D01*
X153798095Y-100845000D01*
X153845714Y-100892619D01*
X153893333Y-100987857D01*
X153893333Y-101130714D01*
X153845714Y-101225952D01*
X153798095Y-101273571D01*
X153702857Y-101321190D01*
X153321904Y-101321190D01*
X154226666Y-100797380D02*
X154845714Y-100797380D01*
X154512380Y-101178333D01*
X154655238Y-101178333D01*
X154750476Y-101225952D01*
X154798095Y-101273571D01*
X154845714Y-101368809D01*
X154845714Y-101606904D01*
X154798095Y-101702142D01*
X154750476Y-101749761D01*
X154655238Y-101797380D01*
X154369523Y-101797380D01*
X154274285Y-101749761D01*
X154226666Y-101702142D01*
D15*
X160658570Y-97474714D02*
X160404570Y-97111857D01*
X160223141Y-97474714D02*
X160223141Y-96712714D01*
X160513427Y-96712714D01*
X160585999Y-96749000D01*
X160622284Y-96785285D01*
X160658570Y-96857857D01*
X160658570Y-96966714D01*
X160622284Y-97039285D01*
X160585999Y-97075571D01*
X160513427Y-97111857D01*
X160223141Y-97111857D01*
X161130284Y-96712714D02*
X161275427Y-96712714D01*
X161347999Y-96749000D01*
X161420570Y-96821571D01*
X161456856Y-96966714D01*
X161456856Y-97220714D01*
X161420570Y-97365857D01*
X161347999Y-97438428D01*
X161275427Y-97474714D01*
X161130284Y-97474714D01*
X161057713Y-97438428D01*
X160985141Y-97365857D01*
X160948856Y-97220714D01*
X160948856Y-96966714D01*
X160985141Y-96821571D01*
X161057713Y-96749000D01*
X161130284Y-96712714D01*
X161674570Y-96712714D02*
X162109999Y-96712714D01*
X161892284Y-97474714D02*
X161892284Y-96712714D01*
X162763141Y-97474714D02*
X162327713Y-97474714D01*
X162545427Y-97474714D02*
X162545427Y-96712714D01*
X162472856Y-96821571D01*
X162400284Y-96894142D01*
X162327713Y-96930428D01*
D12*
X153893333Y-98622380D02*
X153560000Y-98146190D01*
X153321904Y-98622380D02*
X153321904Y-97622380D01*
X153702857Y-97622380D01*
X153798095Y-97670000D01*
X153845714Y-97717619D01*
X153893333Y-97812857D01*
X153893333Y-97955714D01*
X153845714Y-98050952D01*
X153798095Y-98098571D01*
X153702857Y-98146190D01*
X153321904Y-98146190D01*
X154274285Y-97717619D02*
X154321904Y-97670000D01*
X154417142Y-97622380D01*
X154655238Y-97622380D01*
X154750476Y-97670000D01*
X154798095Y-97717619D01*
X154845714Y-97812857D01*
X154845714Y-97908095D01*
X154798095Y-98050952D01*
X154226666Y-98622380D01*
X154845714Y-98622380D01*
X153893333Y-80842380D02*
X153560000Y-80366190D01*
X153321904Y-80842380D02*
X153321904Y-79842380D01*
X153702857Y-79842380D01*
X153798095Y-79890000D01*
X153845714Y-79937619D01*
X153893333Y-80032857D01*
X153893333Y-80175714D01*
X153845714Y-80270952D01*
X153798095Y-80318571D01*
X153702857Y-80366190D01*
X153321904Y-80366190D01*
X154845714Y-80842380D02*
X154274285Y-80842380D01*
X154560000Y-80842380D02*
X154560000Y-79842380D01*
X154464761Y-79985238D01*
X154369523Y-80080476D01*
X154274285Y-80128095D01*
M02*
