G04 #@! TF.GenerationSoftware,KiCad,Pcbnew,(5.1.5-0-10_14)*
G04 #@! TF.CreationDate,2020-09-26T23:49:40+02:00*
G04 #@! TF.ProjectId,es_rotary,65735f72-6f74-4617-9279-2e6b69636164,rev?*
G04 #@! TF.SameCoordinates,Original*
G04 #@! TF.FileFunction,Legend,Top*
G04 #@! TF.FilePolarity,Positive*
%FSLAX46Y46*%
G04 Gerber Fmt 4.6, Leading zero omitted, Abs format (unit mm)*
G04 Created by KiCad (PCBNEW (5.1.5-0-10_14)) date 2020-09-26 23:49:40*
%MOMM*%
%LPD*%
G04 APERTURE LIST*
%ADD10C,0.190500*%
%ADD11C,0.300000*%
%ADD12C,0.150000*%
%ADD13C,0.120000*%
%ADD14C,0.203200*%
%ADD15C,0.152400*%
G04 APERTURE END LIST*
D10*
X139740000Y-99921785D02*
X139811428Y-99885500D01*
X139954285Y-99849214D01*
X140311428Y-99849214D01*
X140454285Y-99885500D01*
X140525714Y-99921785D01*
X140597142Y-99994357D01*
X140597142Y-100066928D01*
X140525714Y-100175785D01*
X139668571Y-100611214D01*
X140597142Y-100611214D01*
X141454285Y-100611214D02*
X141311428Y-100574928D01*
X141240000Y-100538642D01*
X141168571Y-100466071D01*
X141168571Y-100248357D01*
X141240000Y-100175785D01*
X141311428Y-100139500D01*
X141454285Y-100103214D01*
X141668571Y-100103214D01*
X141811428Y-100139500D01*
X141882857Y-100175785D01*
X141954285Y-100248357D01*
X141954285Y-100466071D01*
X141882857Y-100538642D01*
X141811428Y-100574928D01*
X141668571Y-100611214D01*
X141454285Y-100611214D01*
X142525714Y-99921785D02*
X142597142Y-99885500D01*
X142740000Y-99849214D01*
X143097142Y-99849214D01*
X143240000Y-99885500D01*
X143311428Y-99921785D01*
X143382857Y-99994357D01*
X143382857Y-100066928D01*
X143311428Y-100175785D01*
X142454285Y-100611214D01*
X143382857Y-100611214D01*
X144240000Y-100611214D02*
X144097142Y-100574928D01*
X144025714Y-100538642D01*
X143954285Y-100466071D01*
X143954285Y-100248357D01*
X144025714Y-100175785D01*
X144097142Y-100139500D01*
X144240000Y-100103214D01*
X144454285Y-100103214D01*
X144597142Y-100139500D01*
X144668571Y-100175785D01*
X144740000Y-100248357D01*
X144740000Y-100466071D01*
X144668571Y-100538642D01*
X144597142Y-100574928D01*
X144454285Y-100611214D01*
X144240000Y-100611214D01*
X139168571Y-101944714D02*
X139025714Y-101908428D01*
X138954285Y-101835857D01*
X138954285Y-101182714D01*
X140382857Y-101944714D02*
X140382857Y-101545571D01*
X140311428Y-101473000D01*
X140168571Y-101436714D01*
X139882857Y-101436714D01*
X139740000Y-101473000D01*
X140382857Y-101908428D02*
X140240000Y-101944714D01*
X139882857Y-101944714D01*
X139740000Y-101908428D01*
X139668571Y-101835857D01*
X139668571Y-101763285D01*
X139740000Y-101690714D01*
X139882857Y-101654428D01*
X140240000Y-101654428D01*
X140382857Y-101618142D01*
X141311428Y-101944714D02*
X141168571Y-101908428D01*
X141097142Y-101835857D01*
X141097142Y-101182714D01*
X142097142Y-101944714D02*
X141954285Y-101908428D01*
X141882857Y-101835857D01*
X141882857Y-101182714D01*
X143311428Y-101944714D02*
X143311428Y-101545571D01*
X143240000Y-101473000D01*
X143097142Y-101436714D01*
X142811428Y-101436714D01*
X142668571Y-101473000D01*
X143311428Y-101908428D02*
X143168571Y-101944714D01*
X142811428Y-101944714D01*
X142668571Y-101908428D01*
X142597142Y-101835857D01*
X142597142Y-101763285D01*
X142668571Y-101690714D01*
X142811428Y-101654428D01*
X143168571Y-101654428D01*
X143311428Y-101618142D01*
X143811428Y-101436714D02*
X144382857Y-101436714D01*
X144025714Y-101944714D02*
X144025714Y-101291571D01*
X144097142Y-101219000D01*
X144240000Y-101182714D01*
X144382857Y-101182714D01*
X145525714Y-101944714D02*
X145525714Y-101545571D01*
X145454285Y-101473000D01*
X145311428Y-101436714D01*
X145025714Y-101436714D01*
X144882857Y-101473000D01*
X145525714Y-101908428D02*
X145382857Y-101944714D01*
X145025714Y-101944714D01*
X144882857Y-101908428D01*
X144811428Y-101835857D01*
X144811428Y-101763285D01*
X144882857Y-101690714D01*
X145025714Y-101654428D01*
X145382857Y-101654428D01*
X145525714Y-101618142D01*
X139132857Y-103278214D02*
X138632857Y-102915357D01*
X138275714Y-103278214D02*
X138275714Y-102516214D01*
X138847142Y-102516214D01*
X138990000Y-102552500D01*
X139061428Y-102588785D01*
X139132857Y-102661357D01*
X139132857Y-102770214D01*
X139061428Y-102842785D01*
X138990000Y-102879071D01*
X138847142Y-102915357D01*
X138275714Y-102915357D01*
X140347142Y-103241928D02*
X140204285Y-103278214D01*
X139918571Y-103278214D01*
X139775714Y-103241928D01*
X139704285Y-103169357D01*
X139704285Y-102879071D01*
X139775714Y-102806500D01*
X139918571Y-102770214D01*
X140204285Y-102770214D01*
X140347142Y-102806500D01*
X140418571Y-102879071D01*
X140418571Y-102951642D01*
X139704285Y-103024214D01*
X140918571Y-102770214D02*
X141275714Y-103278214D01*
X141632857Y-102770214D01*
X144132857Y-103278214D02*
X143275714Y-103278214D01*
X143704285Y-103278214D02*
X143704285Y-102516214D01*
X143561428Y-102625071D01*
X143418571Y-102697642D01*
X143275714Y-102733928D01*
X144775714Y-103205642D02*
X144847142Y-103241928D01*
X144775714Y-103278214D01*
X144704285Y-103241928D01*
X144775714Y-103205642D01*
X144775714Y-103278214D01*
X145775714Y-102516214D02*
X145918571Y-102516214D01*
X146061428Y-102552500D01*
X146132857Y-102588785D01*
X146204285Y-102661357D01*
X146275714Y-102806500D01*
X146275714Y-102987928D01*
X146204285Y-103133071D01*
X146132857Y-103205642D01*
X146061428Y-103241928D01*
X145918571Y-103278214D01*
X145775714Y-103278214D01*
X145632857Y-103241928D01*
X145561428Y-103205642D01*
X145490000Y-103133071D01*
X145418571Y-102987928D01*
X145418571Y-102806500D01*
X145490000Y-102661357D01*
X145561428Y-102588785D01*
X145632857Y-102552500D01*
X145775714Y-102516214D01*
D11*
X139582857Y-93237142D02*
X139582857Y-92737142D01*
X140368571Y-92522857D02*
X140368571Y-93237142D01*
X138868571Y-93237142D01*
X138868571Y-92522857D01*
X139368571Y-91237142D02*
X140368571Y-91237142D01*
X139368571Y-91880000D02*
X140154285Y-91880000D01*
X140297142Y-91808571D01*
X140368571Y-91665714D01*
X140368571Y-91451428D01*
X140297142Y-91308571D01*
X140225714Y-91237142D01*
X140368571Y-90522857D02*
X139368571Y-90522857D01*
X139654285Y-90522857D02*
X139511428Y-90451428D01*
X139440000Y-90380000D01*
X139368571Y-90237142D01*
X139368571Y-90094285D01*
X140368571Y-89380000D02*
X140297142Y-89522857D01*
X140225714Y-89594285D01*
X140082857Y-89665714D01*
X139654285Y-89665714D01*
X139511428Y-89594285D01*
X139440000Y-89522857D01*
X139368571Y-89380000D01*
X139368571Y-89165714D01*
X139440000Y-89022857D01*
X139511428Y-88951428D01*
X139654285Y-88880000D01*
X140082857Y-88880000D01*
X140225714Y-88951428D01*
X140297142Y-89022857D01*
X140368571Y-89165714D01*
X140368571Y-89380000D01*
X140297142Y-88308571D02*
X140368571Y-88094285D01*
X140368571Y-87737142D01*
X140297142Y-87594285D01*
X140225714Y-87522857D01*
X140082857Y-87451428D01*
X139940000Y-87451428D01*
X139797142Y-87522857D01*
X139725714Y-87594285D01*
X139654285Y-87737142D01*
X139582857Y-88022857D01*
X139511428Y-88165714D01*
X139440000Y-88237142D01*
X139297142Y-88308571D01*
X139154285Y-88308571D01*
X139011428Y-88237142D01*
X138940000Y-88165714D01*
X138868571Y-88022857D01*
X138868571Y-87665714D01*
X138940000Y-87451428D01*
X140368571Y-86808571D02*
X138868571Y-86808571D01*
X140368571Y-86165714D02*
X139582857Y-86165714D01*
X139440000Y-86237142D01*
X139368571Y-86380000D01*
X139368571Y-86594285D01*
X139440000Y-86737142D01*
X139511428Y-86808571D01*
X140368571Y-85451428D02*
X139368571Y-85451428D01*
X138868571Y-85451428D02*
X138940000Y-85522857D01*
X139011428Y-85451428D01*
X138940000Y-85380000D01*
X138868571Y-85451428D01*
X139011428Y-85451428D01*
X140297142Y-84165714D02*
X140368571Y-84308571D01*
X140368571Y-84594285D01*
X140297142Y-84737142D01*
X140154285Y-84808571D01*
X139582857Y-84808571D01*
X139440000Y-84737142D01*
X139368571Y-84594285D01*
X139368571Y-84308571D01*
X139440000Y-84165714D01*
X139582857Y-84094285D01*
X139725714Y-84094285D01*
X139868571Y-84808571D01*
X140368571Y-83237142D02*
X140297142Y-83380000D01*
X140154285Y-83451428D01*
X138868571Y-83451428D01*
X140368571Y-82022857D02*
X138868571Y-82022857D01*
X140297142Y-82022857D02*
X140368571Y-82165714D01*
X140368571Y-82451428D01*
X140297142Y-82594285D01*
X140225714Y-82665714D01*
X140082857Y-82737142D01*
X139654285Y-82737142D01*
X139511428Y-82665714D01*
X139440000Y-82594285D01*
X139368571Y-82451428D01*
X139368571Y-82165714D01*
X139440000Y-82022857D01*
X142918571Y-89987142D02*
X142204285Y-90487142D01*
X142918571Y-90844285D02*
X141418571Y-90844285D01*
X141418571Y-90272857D01*
X141490000Y-90130000D01*
X141561428Y-90058571D01*
X141704285Y-89987142D01*
X141918571Y-89987142D01*
X142061428Y-90058571D01*
X142132857Y-90130000D01*
X142204285Y-90272857D01*
X142204285Y-90844285D01*
X142918571Y-89130000D02*
X142847142Y-89272857D01*
X142775714Y-89344285D01*
X142632857Y-89415714D01*
X142204285Y-89415714D01*
X142061428Y-89344285D01*
X141990000Y-89272857D01*
X141918571Y-89130000D01*
X141918571Y-88915714D01*
X141990000Y-88772857D01*
X142061428Y-88701428D01*
X142204285Y-88630000D01*
X142632857Y-88630000D01*
X142775714Y-88701428D01*
X142847142Y-88772857D01*
X142918571Y-88915714D01*
X142918571Y-89130000D01*
X141918571Y-88201428D02*
X141918571Y-87630000D01*
X141418571Y-87987142D02*
X142704285Y-87987142D01*
X142847142Y-87915714D01*
X142918571Y-87772857D01*
X142918571Y-87630000D01*
X142918571Y-86487142D02*
X142132857Y-86487142D01*
X141990000Y-86558571D01*
X141918571Y-86701428D01*
X141918571Y-86987142D01*
X141990000Y-87130000D01*
X142847142Y-86487142D02*
X142918571Y-86630000D01*
X142918571Y-86987142D01*
X142847142Y-87130000D01*
X142704285Y-87201428D01*
X142561428Y-87201428D01*
X142418571Y-87130000D01*
X142347142Y-86987142D01*
X142347142Y-86630000D01*
X142275714Y-86487142D01*
X142918571Y-85772857D02*
X141918571Y-85772857D01*
X142204285Y-85772857D02*
X142061428Y-85701428D01*
X141990000Y-85630000D01*
X141918571Y-85487142D01*
X141918571Y-85344285D01*
X141918571Y-84987142D02*
X142918571Y-84630000D01*
X141918571Y-84272857D02*
X142918571Y-84630000D01*
X143275714Y-84772857D01*
X143347142Y-84844285D01*
X143418571Y-84987142D01*
X144682857Y-90130000D02*
X144754285Y-89915714D01*
X144825714Y-89844285D01*
X144968571Y-89772857D01*
X145182857Y-89772857D01*
X145325714Y-89844285D01*
X145397142Y-89915714D01*
X145468571Y-90058571D01*
X145468571Y-90630000D01*
X143968571Y-90630000D01*
X143968571Y-90130000D01*
X144040000Y-89987142D01*
X144111428Y-89915714D01*
X144254285Y-89844285D01*
X144397142Y-89844285D01*
X144540000Y-89915714D01*
X144611428Y-89987142D01*
X144682857Y-90130000D01*
X144682857Y-90630000D01*
X144468571Y-88487142D02*
X145468571Y-88487142D01*
X144468571Y-89130000D02*
X145254285Y-89130000D01*
X145397142Y-89058571D01*
X145468571Y-88915714D01*
X145468571Y-88701428D01*
X145397142Y-88558571D01*
X145325714Y-88487142D01*
X145468571Y-87130000D02*
X143968571Y-87130000D01*
X145397142Y-87130000D02*
X145468571Y-87272857D01*
X145468571Y-87558571D01*
X145397142Y-87701428D01*
X145325714Y-87772857D01*
X145182857Y-87844285D01*
X144754285Y-87844285D01*
X144611428Y-87772857D01*
X144540000Y-87701428D01*
X144468571Y-87558571D01*
X144468571Y-87272857D01*
X144540000Y-87130000D01*
X145468571Y-85772857D02*
X143968571Y-85772857D01*
X145397142Y-85772857D02*
X145468571Y-85915714D01*
X145468571Y-86201428D01*
X145397142Y-86344285D01*
X145325714Y-86415714D01*
X145182857Y-86487142D01*
X144754285Y-86487142D01*
X144611428Y-86415714D01*
X144540000Y-86344285D01*
X144468571Y-86201428D01*
X144468571Y-85915714D01*
X144540000Y-85772857D01*
X144468571Y-85201428D02*
X145468571Y-84844285D01*
X144468571Y-84487142D02*
X145468571Y-84844285D01*
X145825714Y-84987142D01*
X145897142Y-85058571D01*
X145968571Y-85201428D01*
D12*
X138359047Y-74192380D02*
X138930476Y-74192380D01*
X138644761Y-75192380D02*
X138644761Y-74192380D01*
X139644761Y-75144761D02*
X139549523Y-75192380D01*
X139359047Y-75192380D01*
X139263809Y-75144761D01*
X139216190Y-75049523D01*
X139216190Y-74668571D01*
X139263809Y-74573333D01*
X139359047Y-74525714D01*
X139549523Y-74525714D01*
X139644761Y-74573333D01*
X139692380Y-74668571D01*
X139692380Y-74763809D01*
X139216190Y-74859047D01*
X140501904Y-75144761D02*
X140406666Y-75192380D01*
X140216190Y-75192380D01*
X140120952Y-75144761D01*
X140073333Y-75049523D01*
X140073333Y-74668571D01*
X140120952Y-74573333D01*
X140216190Y-74525714D01*
X140406666Y-74525714D01*
X140501904Y-74573333D01*
X140549523Y-74668571D01*
X140549523Y-74763809D01*
X140073333Y-74859047D01*
X140978095Y-74525714D02*
X140978095Y-75192380D01*
X140978095Y-74620952D02*
X141025714Y-74573333D01*
X141120952Y-74525714D01*
X141263809Y-74525714D01*
X141359047Y-74573333D01*
X141406666Y-74668571D01*
X141406666Y-75192380D01*
X141835238Y-75144761D02*
X141930476Y-75192380D01*
X142120952Y-75192380D01*
X142216190Y-75144761D01*
X142263809Y-75049523D01*
X142263809Y-75001904D01*
X142216190Y-74906666D01*
X142120952Y-74859047D01*
X141978095Y-74859047D01*
X141882857Y-74811428D01*
X141835238Y-74716190D01*
X141835238Y-74668571D01*
X141882857Y-74573333D01*
X141978095Y-74525714D01*
X142120952Y-74525714D01*
X142216190Y-74573333D01*
X142597142Y-74525714D02*
X142835238Y-75192380D01*
X143073333Y-74525714D02*
X142835238Y-75192380D01*
X142740000Y-75430476D01*
X142692380Y-75478095D01*
X142597142Y-75525714D01*
X144120952Y-74192380D02*
X144740000Y-74192380D01*
X144406666Y-74573333D01*
X144549523Y-74573333D01*
X144644761Y-74620952D01*
X144692380Y-74668571D01*
X144740000Y-74763809D01*
X144740000Y-75001904D01*
X144692380Y-75097142D01*
X144644761Y-75144761D01*
X144549523Y-75192380D01*
X144263809Y-75192380D01*
X144168571Y-75144761D01*
X144120952Y-75097142D01*
X145168571Y-75097142D02*
X145216190Y-75144761D01*
X145168571Y-75192380D01*
X145120952Y-75144761D01*
X145168571Y-75097142D01*
X145168571Y-75192380D01*
X145549523Y-75192380D02*
X146073333Y-74525714D01*
X145549523Y-74525714D02*
X146073333Y-75192380D01*
D13*
X146050000Y-73660000D02*
X146050000Y-69850000D01*
X139065000Y-73660000D02*
X146050000Y-73660000D01*
X139065000Y-69850000D02*
X139065000Y-73660000D01*
X133350000Y-105410000D02*
X133350000Y-69850000D01*
X151130000Y-105410000D02*
X133350000Y-105410000D01*
X151130000Y-69850000D02*
X151130000Y-105410000D01*
X133350000Y-69850000D02*
X151130000Y-69850000D01*
D14*
X167474999Y-81130000D02*
X167474999Y-94130000D01*
X155474999Y-81130000D02*
X167474999Y-81130000D01*
X155474999Y-94130000D02*
X155474999Y-81130000D01*
X167474999Y-94130000D02*
X155474999Y-94130000D01*
X164974999Y-87630000D02*
G75*
G03X164974999Y-87630000I-3500000J0D01*
G01*
X164474999Y-86130000D02*
X158474999Y-86130000D01*
D13*
X155558748Y-101040000D02*
X156081252Y-101040000D01*
X155558748Y-99620000D02*
X156081252Y-99620000D01*
X155558748Y-97865000D02*
X156081252Y-97865000D01*
X155558748Y-96445000D02*
X156081252Y-96445000D01*
X155703748Y-78815000D02*
X156226252Y-78815000D01*
X155703748Y-77395000D02*
X156226252Y-77395000D01*
D15*
X160658570Y-97474714D02*
X160404570Y-97111857D01*
X160223141Y-97474714D02*
X160223141Y-96712714D01*
X160513427Y-96712714D01*
X160585999Y-96749000D01*
X160622284Y-96785285D01*
X160658570Y-96857857D01*
X160658570Y-96966714D01*
X160622284Y-97039285D01*
X160585999Y-97075571D01*
X160513427Y-97111857D01*
X160223141Y-97111857D01*
X161130284Y-96712714D02*
X161275427Y-96712714D01*
X161347999Y-96749000D01*
X161420570Y-96821571D01*
X161456856Y-96966714D01*
X161456856Y-97220714D01*
X161420570Y-97365857D01*
X161347999Y-97438428D01*
X161275427Y-97474714D01*
X161130284Y-97474714D01*
X161057713Y-97438428D01*
X160985141Y-97365857D01*
X160948856Y-97220714D01*
X160948856Y-96966714D01*
X160985141Y-96821571D01*
X161057713Y-96749000D01*
X161130284Y-96712714D01*
X161674570Y-96712714D02*
X162109999Y-96712714D01*
X161892284Y-97474714D02*
X161892284Y-96712714D01*
X162763141Y-97474714D02*
X162327713Y-97474714D01*
X162545427Y-97474714D02*
X162545427Y-96712714D01*
X162472856Y-96821571D01*
X162400284Y-96894142D01*
X162327713Y-96930428D01*
D12*
X155653333Y-99132380D02*
X155320000Y-98656190D01*
X155081904Y-99132380D02*
X155081904Y-98132380D01*
X155462857Y-98132380D01*
X155558095Y-98180000D01*
X155605714Y-98227619D01*
X155653333Y-98322857D01*
X155653333Y-98465714D01*
X155605714Y-98560952D01*
X155558095Y-98608571D01*
X155462857Y-98656190D01*
X155081904Y-98656190D01*
X155986666Y-98132380D02*
X156605714Y-98132380D01*
X156272380Y-98513333D01*
X156415238Y-98513333D01*
X156510476Y-98560952D01*
X156558095Y-98608571D01*
X156605714Y-98703809D01*
X156605714Y-98941904D01*
X156558095Y-99037142D01*
X156510476Y-99084761D01*
X156415238Y-99132380D01*
X156129523Y-99132380D01*
X156034285Y-99084761D01*
X155986666Y-99037142D01*
X155653333Y-95957380D02*
X155320000Y-95481190D01*
X155081904Y-95957380D02*
X155081904Y-94957380D01*
X155462857Y-94957380D01*
X155558095Y-95005000D01*
X155605714Y-95052619D01*
X155653333Y-95147857D01*
X155653333Y-95290714D01*
X155605714Y-95385952D01*
X155558095Y-95433571D01*
X155462857Y-95481190D01*
X155081904Y-95481190D01*
X156034285Y-95052619D02*
X156081904Y-95005000D01*
X156177142Y-94957380D01*
X156415238Y-94957380D01*
X156510476Y-95005000D01*
X156558095Y-95052619D01*
X156605714Y-95147857D01*
X156605714Y-95243095D01*
X156558095Y-95385952D01*
X155986666Y-95957380D01*
X156605714Y-95957380D01*
X155798333Y-76907380D02*
X155465000Y-76431190D01*
X155226904Y-76907380D02*
X155226904Y-75907380D01*
X155607857Y-75907380D01*
X155703095Y-75955000D01*
X155750714Y-76002619D01*
X155798333Y-76097857D01*
X155798333Y-76240714D01*
X155750714Y-76335952D01*
X155703095Y-76383571D01*
X155607857Y-76431190D01*
X155226904Y-76431190D01*
X156750714Y-76907380D02*
X156179285Y-76907380D01*
X156465000Y-76907380D02*
X156465000Y-75907380D01*
X156369761Y-76050238D01*
X156274523Y-76145476D01*
X156179285Y-76193095D01*
M02*
