G04 #@! TF.GenerationSoftware,KiCad,Pcbnew,(5.1.5-0-10_14)*
G04 #@! TF.CreationDate,2020-10-22T20:15:14+02:00*
G04 #@! TF.ProjectId,es_display,65735f64-6973-4706-9c61-792e6b696361,rev?*
G04 #@! TF.SameCoordinates,Original*
G04 #@! TF.FileFunction,Copper,L1,Top*
G04 #@! TF.FilePolarity,Positive*
%FSLAX46Y46*%
G04 Gerber Fmt 4.6, Leading zero omitted, Abs format (unit mm)*
G04 Created by KiCad (PCBNEW (5.1.5-0-10_14)) date 2020-10-22 20:15:14*
%MOMM*%
%LPD*%
G04 APERTURE LIST*
%ADD10R,1.700000X1.700000*%
%ADD11O,1.700000X1.700000*%
%ADD12C,3.500000*%
%ADD13C,0.800000*%
%ADD14C,0.381000*%
%ADD15C,0.254000*%
G04 APERTURE END LIST*
D10*
X149860000Y-104140000D03*
D11*
X149860000Y-101600000D03*
X149860000Y-99060000D03*
X149860000Y-96520000D03*
X149860000Y-93980000D03*
X149860000Y-91440000D03*
X149860000Y-88900000D03*
X149860000Y-86360000D03*
X149860000Y-83820000D03*
X149860000Y-81280000D03*
X149860000Y-78740000D03*
X149860000Y-76200000D03*
X149860000Y-73660000D03*
X149860000Y-71120000D03*
X114935000Y-135255000D03*
X114935000Y-132715000D03*
X114935000Y-130175000D03*
X114935000Y-127635000D03*
X114935000Y-125095000D03*
X114935000Y-122555000D03*
X114935000Y-120015000D03*
X114935000Y-117475000D03*
X114935000Y-114935000D03*
D10*
X114935000Y-112395000D03*
D12*
X146685000Y-137795000D03*
X146685000Y-109855000D03*
X118745000Y-137795000D03*
X118745000Y-109855000D03*
D11*
X123825000Y-110490000D03*
X126365000Y-110490000D03*
X128905000Y-110490000D03*
X131445000Y-110490000D03*
X133985000Y-110490000D03*
X136525000Y-110490000D03*
X139065000Y-110490000D03*
D10*
X141605000Y-110490000D03*
D11*
X134620000Y-71120000D03*
X134620000Y-73660000D03*
X134620000Y-76200000D03*
X134620000Y-78740000D03*
X134620000Y-81280000D03*
X134620000Y-83820000D03*
X134620000Y-86360000D03*
X134620000Y-88900000D03*
X134620000Y-91440000D03*
X134620000Y-93980000D03*
X134620000Y-96520000D03*
X134620000Y-99060000D03*
X134620000Y-101600000D03*
X134620000Y-104140000D03*
D13*
X128905000Y-125095000D03*
X123825000Y-117475000D03*
X142875000Y-82550000D03*
X133985000Y-127635000D03*
X126365000Y-120015000D03*
D14*
X150709999Y-71969999D02*
X149860000Y-71120000D01*
X151100501Y-72360501D02*
X150709999Y-71969999D01*
X144780000Y-132715000D02*
X151100501Y-126394499D01*
X151100501Y-126394499D02*
X151100501Y-72360501D01*
X114935000Y-132715000D02*
X144780000Y-132715000D01*
X128905000Y-125095000D02*
X123825000Y-125095000D01*
X123825000Y-125095000D02*
X125730000Y-125095000D01*
X114935000Y-125095000D02*
X123825000Y-125095000D01*
X128905000Y-125095000D02*
X141605000Y-125095000D01*
X144544499Y-122155501D02*
X144544499Y-79610501D01*
X141605000Y-125095000D02*
X144544499Y-122155501D01*
X147955000Y-76200000D02*
X149860000Y-76200000D01*
X144544499Y-79610501D02*
X147955000Y-76200000D01*
X120015000Y-117475000D02*
X121285000Y-117475000D01*
X123825000Y-117475000D02*
X120015000Y-117475000D01*
X114935000Y-117475000D02*
X120015000Y-117475000D01*
X123825000Y-117475000D02*
X137022902Y-117475000D01*
X142875000Y-111622902D02*
X137022902Y-117475000D01*
X142875000Y-82550000D02*
X142875000Y-111622902D01*
X133985000Y-127635000D02*
X129540000Y-127635000D01*
X129540000Y-127635000D02*
X114935000Y-127635000D01*
X131445000Y-127635000D02*
X129540000Y-127635000D01*
X148825501Y-108827559D02*
X148825501Y-125494499D01*
X148590000Y-108592058D02*
X148825501Y-108827559D01*
X148590000Y-85090000D02*
X148590000Y-108592058D01*
X149860000Y-83820000D02*
X148590000Y-85090000D01*
X146685000Y-127635000D02*
X133985000Y-127635000D01*
X148825501Y-125494499D02*
X146685000Y-127635000D01*
X135469999Y-74509999D02*
X134620000Y-73660000D01*
X140305501Y-79345501D02*
X135469999Y-74509999D01*
X140305501Y-111085441D02*
X140305501Y-79345501D01*
X139660441Y-111730501D02*
X140305501Y-111085441D01*
X132685501Y-111730501D02*
X139660441Y-111730501D01*
X131445000Y-110490000D02*
X132685501Y-111730501D01*
X114935000Y-120015000D02*
X124460000Y-120015000D01*
X126365000Y-120015000D02*
X124460000Y-120015000D01*
X139700000Y-81280000D02*
X134620000Y-76200000D01*
X139700000Y-99695000D02*
X139700000Y-81280000D01*
X128270000Y-108585000D02*
X137160000Y-108585000D01*
X137160000Y-108585000D02*
X139700000Y-106045000D01*
X126365000Y-110490000D02*
X128270000Y-108585000D01*
X139700000Y-106045000D02*
X139700000Y-99695000D01*
X139700000Y-100895942D02*
X139700000Y-99695000D01*
D15*
G36*
X151740000Y-71838490D02*
G01*
X151687042Y-71773960D01*
X151655535Y-71748103D01*
X151322395Y-71414963D01*
X151322390Y-71414957D01*
X151316578Y-71409145D01*
X151345000Y-71266260D01*
X151345000Y-70973740D01*
X151287932Y-70686842D01*
X151175990Y-70416589D01*
X151013475Y-70173368D01*
X150806632Y-69966525D01*
X150563411Y-69804010D01*
X150293158Y-69692068D01*
X150006260Y-69635000D01*
X149713740Y-69635000D01*
X149426842Y-69692068D01*
X149156589Y-69804010D01*
X148913368Y-69966525D01*
X148706525Y-70173368D01*
X148544010Y-70416589D01*
X148432068Y-70686842D01*
X148375000Y-70973740D01*
X148375000Y-71266260D01*
X148432068Y-71553158D01*
X148544010Y-71823411D01*
X148706525Y-72066632D01*
X148913368Y-72273475D01*
X149087760Y-72390000D01*
X148913368Y-72506525D01*
X148706525Y-72713368D01*
X148544010Y-72956589D01*
X148432068Y-73226842D01*
X148375000Y-73513740D01*
X148375000Y-73806260D01*
X148432068Y-74093158D01*
X148544010Y-74363411D01*
X148706525Y-74606632D01*
X148913368Y-74813475D01*
X149087760Y-74930000D01*
X148913368Y-75046525D01*
X148706525Y-75253368D01*
X148625587Y-75374500D01*
X147995550Y-75374500D01*
X147955000Y-75370506D01*
X147914449Y-75374500D01*
X147914447Y-75374500D01*
X147793174Y-75386444D01*
X147637566Y-75433647D01*
X147494157Y-75510301D01*
X147399958Y-75587608D01*
X147399957Y-75587609D01*
X147368459Y-75613459D01*
X147342611Y-75644955D01*
X143989460Y-78998108D01*
X143957959Y-79023960D01*
X143932108Y-79055460D01*
X143854800Y-79149659D01*
X143778146Y-79293068D01*
X143730944Y-79448675D01*
X143715005Y-79610501D01*
X143719000Y-79651062D01*
X143719000Y-81950185D01*
X143678937Y-81890226D01*
X143534774Y-81746063D01*
X143365256Y-81632795D01*
X143176898Y-81554774D01*
X142976939Y-81515000D01*
X142773061Y-81515000D01*
X142573102Y-81554774D01*
X142384744Y-81632795D01*
X142215226Y-81746063D01*
X142071063Y-81890226D01*
X141957795Y-82059744D01*
X141879774Y-82248102D01*
X141840000Y-82448061D01*
X141840000Y-82651939D01*
X141879774Y-82851898D01*
X141957795Y-83040256D01*
X142049500Y-83177503D01*
X142049501Y-109001928D01*
X141131001Y-109001928D01*
X141131001Y-79386051D01*
X141134995Y-79345501D01*
X141129831Y-79293067D01*
X141119057Y-79183675D01*
X141071854Y-79028067D01*
X140996056Y-78886260D01*
X140995200Y-78884658D01*
X140917893Y-78790460D01*
X140892042Y-78758960D01*
X140860541Y-78733108D01*
X136082395Y-73954963D01*
X136082390Y-73954957D01*
X136076578Y-73949145D01*
X136105000Y-73806260D01*
X136105000Y-73513740D01*
X136047932Y-73226842D01*
X135935990Y-72956589D01*
X135773475Y-72713368D01*
X135566632Y-72506525D01*
X135392240Y-72390000D01*
X135566632Y-72273475D01*
X135773475Y-72066632D01*
X135935990Y-71823411D01*
X136047932Y-71553158D01*
X136105000Y-71266260D01*
X136105000Y-70973740D01*
X136047932Y-70686842D01*
X135935990Y-70416589D01*
X135773475Y-70173368D01*
X135566632Y-69966525D01*
X135323411Y-69804010D01*
X135053158Y-69692068D01*
X134766260Y-69635000D01*
X134473740Y-69635000D01*
X134186842Y-69692068D01*
X133916589Y-69804010D01*
X133673368Y-69966525D01*
X133466525Y-70173368D01*
X133304010Y-70416589D01*
X133192068Y-70686842D01*
X133135000Y-70973740D01*
X133135000Y-71266260D01*
X133192068Y-71553158D01*
X133304010Y-71823411D01*
X133466525Y-72066632D01*
X133673368Y-72273475D01*
X133847760Y-72390000D01*
X133673368Y-72506525D01*
X133466525Y-72713368D01*
X133304010Y-72956589D01*
X133192068Y-73226842D01*
X133135000Y-73513740D01*
X133135000Y-73806260D01*
X133192068Y-74093158D01*
X133304010Y-74363411D01*
X133466525Y-74606632D01*
X133673368Y-74813475D01*
X133847760Y-74930000D01*
X133673368Y-75046525D01*
X133466525Y-75253368D01*
X133304010Y-75496589D01*
X133192068Y-75766842D01*
X133135000Y-76053740D01*
X133135000Y-76346260D01*
X133192068Y-76633158D01*
X133304010Y-76903411D01*
X133466525Y-77146632D01*
X133673368Y-77353475D01*
X133847760Y-77470000D01*
X133673368Y-77586525D01*
X133466525Y-77793368D01*
X133304010Y-78036589D01*
X133192068Y-78306842D01*
X133135000Y-78593740D01*
X133135000Y-78886260D01*
X133192068Y-79173158D01*
X133304010Y-79443411D01*
X133466525Y-79686632D01*
X133673368Y-79893475D01*
X133847760Y-80010000D01*
X133673368Y-80126525D01*
X133466525Y-80333368D01*
X133304010Y-80576589D01*
X133192068Y-80846842D01*
X133135000Y-81133740D01*
X133135000Y-81426260D01*
X133192068Y-81713158D01*
X133304010Y-81983411D01*
X133466525Y-82226632D01*
X133673368Y-82433475D01*
X133847760Y-82550000D01*
X133673368Y-82666525D01*
X133466525Y-82873368D01*
X133304010Y-83116589D01*
X133192068Y-83386842D01*
X133135000Y-83673740D01*
X133135000Y-83966260D01*
X133192068Y-84253158D01*
X133304010Y-84523411D01*
X133466525Y-84766632D01*
X133673368Y-84973475D01*
X133847760Y-85090000D01*
X133673368Y-85206525D01*
X133466525Y-85413368D01*
X133304010Y-85656589D01*
X133192068Y-85926842D01*
X133135000Y-86213740D01*
X133135000Y-86506260D01*
X133192068Y-86793158D01*
X133304010Y-87063411D01*
X133466525Y-87306632D01*
X133673368Y-87513475D01*
X133847760Y-87630000D01*
X133673368Y-87746525D01*
X133466525Y-87953368D01*
X133304010Y-88196589D01*
X133192068Y-88466842D01*
X133135000Y-88753740D01*
X133135000Y-89046260D01*
X133192068Y-89333158D01*
X133304010Y-89603411D01*
X133466525Y-89846632D01*
X133673368Y-90053475D01*
X133847760Y-90170000D01*
X133673368Y-90286525D01*
X133466525Y-90493368D01*
X133304010Y-90736589D01*
X133192068Y-91006842D01*
X133135000Y-91293740D01*
X133135000Y-91586260D01*
X133192068Y-91873158D01*
X133304010Y-92143411D01*
X133466525Y-92386632D01*
X133673368Y-92593475D01*
X133847760Y-92710000D01*
X133673368Y-92826525D01*
X133466525Y-93033368D01*
X133304010Y-93276589D01*
X133192068Y-93546842D01*
X133135000Y-93833740D01*
X133135000Y-94126260D01*
X133192068Y-94413158D01*
X133304010Y-94683411D01*
X133466525Y-94926632D01*
X133673368Y-95133475D01*
X133847760Y-95250000D01*
X133673368Y-95366525D01*
X133466525Y-95573368D01*
X133304010Y-95816589D01*
X133192068Y-96086842D01*
X133135000Y-96373740D01*
X133135000Y-96666260D01*
X133192068Y-96953158D01*
X133304010Y-97223411D01*
X133466525Y-97466632D01*
X133673368Y-97673475D01*
X133847760Y-97790000D01*
X133673368Y-97906525D01*
X133466525Y-98113368D01*
X133304010Y-98356589D01*
X133192068Y-98626842D01*
X133135000Y-98913740D01*
X133135000Y-99206260D01*
X133192068Y-99493158D01*
X133304010Y-99763411D01*
X133466525Y-100006632D01*
X133673368Y-100213475D01*
X133855534Y-100335195D01*
X133738645Y-100404822D01*
X133522412Y-100599731D01*
X133348359Y-100833080D01*
X133223175Y-101095901D01*
X133178524Y-101243110D01*
X133299845Y-101473000D01*
X134493000Y-101473000D01*
X134493000Y-101453000D01*
X134747000Y-101453000D01*
X134747000Y-101473000D01*
X135940155Y-101473000D01*
X136061476Y-101243110D01*
X136016825Y-101095901D01*
X135891641Y-100833080D01*
X135717588Y-100599731D01*
X135501355Y-100404822D01*
X135384466Y-100335195D01*
X135566632Y-100213475D01*
X135773475Y-100006632D01*
X135935990Y-99763411D01*
X136047932Y-99493158D01*
X136105000Y-99206260D01*
X136105000Y-98913740D01*
X136047932Y-98626842D01*
X135935990Y-98356589D01*
X135773475Y-98113368D01*
X135566632Y-97906525D01*
X135392240Y-97790000D01*
X135566632Y-97673475D01*
X135773475Y-97466632D01*
X135935990Y-97223411D01*
X136047932Y-96953158D01*
X136105000Y-96666260D01*
X136105000Y-96373740D01*
X136047932Y-96086842D01*
X135935990Y-95816589D01*
X135773475Y-95573368D01*
X135566632Y-95366525D01*
X135392240Y-95250000D01*
X135566632Y-95133475D01*
X135773475Y-94926632D01*
X135935990Y-94683411D01*
X136047932Y-94413158D01*
X136105000Y-94126260D01*
X136105000Y-93833740D01*
X136047932Y-93546842D01*
X135935990Y-93276589D01*
X135773475Y-93033368D01*
X135566632Y-92826525D01*
X135392240Y-92710000D01*
X135566632Y-92593475D01*
X135773475Y-92386632D01*
X135935990Y-92143411D01*
X136047932Y-91873158D01*
X136105000Y-91586260D01*
X136105000Y-91293740D01*
X136047932Y-91006842D01*
X135935990Y-90736589D01*
X135773475Y-90493368D01*
X135566632Y-90286525D01*
X135392240Y-90170000D01*
X135566632Y-90053475D01*
X135773475Y-89846632D01*
X135935990Y-89603411D01*
X136047932Y-89333158D01*
X136105000Y-89046260D01*
X136105000Y-88753740D01*
X136047932Y-88466842D01*
X135935990Y-88196589D01*
X135773475Y-87953368D01*
X135566632Y-87746525D01*
X135392240Y-87630000D01*
X135566632Y-87513475D01*
X135773475Y-87306632D01*
X135935990Y-87063411D01*
X136047932Y-86793158D01*
X136105000Y-86506260D01*
X136105000Y-86213740D01*
X136047932Y-85926842D01*
X135935990Y-85656589D01*
X135773475Y-85413368D01*
X135566632Y-85206525D01*
X135392240Y-85090000D01*
X135566632Y-84973475D01*
X135773475Y-84766632D01*
X135935990Y-84523411D01*
X136047932Y-84253158D01*
X136105000Y-83966260D01*
X136105000Y-83673740D01*
X136047932Y-83386842D01*
X135935990Y-83116589D01*
X135773475Y-82873368D01*
X135566632Y-82666525D01*
X135392240Y-82550000D01*
X135566632Y-82433475D01*
X135773475Y-82226632D01*
X135935990Y-81983411D01*
X136047932Y-81713158D01*
X136105000Y-81426260D01*
X136105000Y-81133740D01*
X136047932Y-80846842D01*
X135935990Y-80576589D01*
X135773475Y-80333368D01*
X135566632Y-80126525D01*
X135392240Y-80010000D01*
X135566632Y-79893475D01*
X135773475Y-79686632D01*
X135935990Y-79443411D01*
X136047932Y-79173158D01*
X136105000Y-78886260D01*
X136105000Y-78852433D01*
X138874501Y-81621935D01*
X138874500Y-99735552D01*
X138874501Y-99735562D01*
X138874500Y-100936494D01*
X138874501Y-100936502D01*
X138874500Y-105703067D01*
X136818068Y-107759500D01*
X128310550Y-107759500D01*
X128270000Y-107755506D01*
X128229449Y-107759500D01*
X128229447Y-107759500D01*
X128108174Y-107771444D01*
X127952566Y-107818647D01*
X127809157Y-107895301D01*
X127714958Y-107972608D01*
X127714955Y-107972611D01*
X127683459Y-107998459D01*
X127657611Y-108029955D01*
X126654145Y-109033422D01*
X126511260Y-109005000D01*
X126218740Y-109005000D01*
X125931842Y-109062068D01*
X125661589Y-109174010D01*
X125418368Y-109336525D01*
X125211525Y-109543368D01*
X125095000Y-109717760D01*
X124978475Y-109543368D01*
X124771632Y-109336525D01*
X124528411Y-109174010D01*
X124258158Y-109062068D01*
X123971260Y-109005000D01*
X123678740Y-109005000D01*
X123391842Y-109062068D01*
X123121589Y-109174010D01*
X122878368Y-109336525D01*
X122671525Y-109543368D01*
X122509010Y-109786589D01*
X122397068Y-110056842D01*
X122340000Y-110343740D01*
X122340000Y-110636260D01*
X122397068Y-110923158D01*
X122509010Y-111193411D01*
X122671525Y-111436632D01*
X122878368Y-111643475D01*
X123121589Y-111805990D01*
X123391842Y-111917932D01*
X123678740Y-111975000D01*
X123971260Y-111975000D01*
X124258158Y-111917932D01*
X124528411Y-111805990D01*
X124771632Y-111643475D01*
X124978475Y-111436632D01*
X125095000Y-111262240D01*
X125211525Y-111436632D01*
X125418368Y-111643475D01*
X125661589Y-111805990D01*
X125931842Y-111917932D01*
X126218740Y-111975000D01*
X126511260Y-111975000D01*
X126798158Y-111917932D01*
X127068411Y-111805990D01*
X127311632Y-111643475D01*
X127518475Y-111436632D01*
X127635000Y-111262240D01*
X127751525Y-111436632D01*
X127958368Y-111643475D01*
X128201589Y-111805990D01*
X128471842Y-111917932D01*
X128758740Y-111975000D01*
X129051260Y-111975000D01*
X129338158Y-111917932D01*
X129608411Y-111805990D01*
X129851632Y-111643475D01*
X130058475Y-111436632D01*
X130175000Y-111262240D01*
X130291525Y-111436632D01*
X130498368Y-111643475D01*
X130741589Y-111805990D01*
X131011842Y-111917932D01*
X131298740Y-111975000D01*
X131591260Y-111975000D01*
X131734145Y-111946578D01*
X132073107Y-112285540D01*
X132098960Y-112317042D01*
X132224659Y-112420200D01*
X132368067Y-112496854D01*
X132523675Y-112544057D01*
X132644948Y-112556001D01*
X132644957Y-112556001D01*
X132685500Y-112559994D01*
X132726043Y-112556001D01*
X139619891Y-112556001D01*
X139660441Y-112559995D01*
X139700991Y-112556001D01*
X139700994Y-112556001D01*
X139822267Y-112544057D01*
X139977875Y-112496854D01*
X140121283Y-112420200D01*
X140246982Y-112317042D01*
X140272838Y-112285536D01*
X140601397Y-111956978D01*
X140630518Y-111965812D01*
X140755000Y-111978072D01*
X141352397Y-111978072D01*
X136680970Y-116649500D01*
X124452503Y-116649500D01*
X124315256Y-116557795D01*
X124126898Y-116479774D01*
X123926939Y-116440000D01*
X123723061Y-116440000D01*
X123523102Y-116479774D01*
X123334744Y-116557795D01*
X123197497Y-116649500D01*
X116169413Y-116649500D01*
X116088475Y-116528368D01*
X115881632Y-116321525D01*
X115707240Y-116205000D01*
X115881632Y-116088475D01*
X116088475Y-115881632D01*
X116250990Y-115638411D01*
X116362932Y-115368158D01*
X116420000Y-115081260D01*
X116420000Y-114788740D01*
X116362932Y-114501842D01*
X116250990Y-114231589D01*
X116088475Y-113988368D01*
X115956620Y-113856513D01*
X116029180Y-113834502D01*
X116139494Y-113775537D01*
X116236185Y-113696185D01*
X116315537Y-113599494D01*
X116374502Y-113489180D01*
X116410812Y-113369482D01*
X116423072Y-113245000D01*
X116420000Y-112680750D01*
X116261250Y-112522000D01*
X115062000Y-112522000D01*
X115062000Y-112542000D01*
X114808000Y-112542000D01*
X114808000Y-112522000D01*
X113608750Y-112522000D01*
X113450000Y-112680750D01*
X113446928Y-113245000D01*
X113459188Y-113369482D01*
X113495498Y-113489180D01*
X113554463Y-113599494D01*
X113633815Y-113696185D01*
X113730506Y-113775537D01*
X113840820Y-113834502D01*
X113913380Y-113856513D01*
X113781525Y-113988368D01*
X113619010Y-114231589D01*
X113507068Y-114501842D01*
X113450000Y-114788740D01*
X113450000Y-115081260D01*
X113507068Y-115368158D01*
X113619010Y-115638411D01*
X113781525Y-115881632D01*
X113988368Y-116088475D01*
X114162760Y-116205000D01*
X113988368Y-116321525D01*
X113781525Y-116528368D01*
X113619010Y-116771589D01*
X113507068Y-117041842D01*
X113450000Y-117328740D01*
X113450000Y-117621260D01*
X113507068Y-117908158D01*
X113619010Y-118178411D01*
X113781525Y-118421632D01*
X113988368Y-118628475D01*
X114162760Y-118745000D01*
X113988368Y-118861525D01*
X113781525Y-119068368D01*
X113619010Y-119311589D01*
X113507068Y-119581842D01*
X113450000Y-119868740D01*
X113450000Y-120161260D01*
X113507068Y-120448158D01*
X113619010Y-120718411D01*
X113781525Y-120961632D01*
X113988368Y-121168475D01*
X114162760Y-121285000D01*
X113988368Y-121401525D01*
X113781525Y-121608368D01*
X113619010Y-121851589D01*
X113507068Y-122121842D01*
X113450000Y-122408740D01*
X113450000Y-122701260D01*
X113507068Y-122988158D01*
X113619010Y-123258411D01*
X113781525Y-123501632D01*
X113988368Y-123708475D01*
X114162760Y-123825000D01*
X113988368Y-123941525D01*
X113781525Y-124148368D01*
X113619010Y-124391589D01*
X113507068Y-124661842D01*
X113450000Y-124948740D01*
X113450000Y-125241260D01*
X113507068Y-125528158D01*
X113619010Y-125798411D01*
X113781525Y-126041632D01*
X113988368Y-126248475D01*
X114162760Y-126365000D01*
X113988368Y-126481525D01*
X113781525Y-126688368D01*
X113619010Y-126931589D01*
X113507068Y-127201842D01*
X113450000Y-127488740D01*
X113450000Y-127781260D01*
X113507068Y-128068158D01*
X113619010Y-128338411D01*
X113781525Y-128581632D01*
X113988368Y-128788475D01*
X114162760Y-128905000D01*
X113988368Y-129021525D01*
X113781525Y-129228368D01*
X113619010Y-129471589D01*
X113507068Y-129741842D01*
X113450000Y-130028740D01*
X113450000Y-130321260D01*
X113507068Y-130608158D01*
X113619010Y-130878411D01*
X113781525Y-131121632D01*
X113988368Y-131328475D01*
X114162760Y-131445000D01*
X113988368Y-131561525D01*
X113781525Y-131768368D01*
X113619010Y-132011589D01*
X113507068Y-132281842D01*
X113450000Y-132568740D01*
X113450000Y-132861260D01*
X113507068Y-133148158D01*
X113619010Y-133418411D01*
X113781525Y-133661632D01*
X113988368Y-133868475D01*
X114162760Y-133985000D01*
X113988368Y-134101525D01*
X113781525Y-134308368D01*
X113619010Y-134551589D01*
X113507068Y-134821842D01*
X113450000Y-135108740D01*
X113450000Y-135401260D01*
X113507068Y-135688158D01*
X113619010Y-135958411D01*
X113781525Y-136201632D01*
X113988368Y-136408475D01*
X114231589Y-136570990D01*
X114501842Y-136682932D01*
X114788740Y-136740000D01*
X115081260Y-136740000D01*
X115368158Y-136682932D01*
X115638411Y-136570990D01*
X115881632Y-136408475D01*
X116088475Y-136201632D01*
X116250990Y-135958411D01*
X116362932Y-135688158D01*
X116420000Y-135401260D01*
X116420000Y-135108740D01*
X116362932Y-134821842D01*
X116250990Y-134551589D01*
X116088475Y-134308368D01*
X115881632Y-134101525D01*
X115707240Y-133985000D01*
X115881632Y-133868475D01*
X116088475Y-133661632D01*
X116169413Y-133540500D01*
X144739450Y-133540500D01*
X144780000Y-133544494D01*
X144820550Y-133540500D01*
X144820553Y-133540500D01*
X144941826Y-133528556D01*
X145097434Y-133481353D01*
X145240842Y-133404699D01*
X145366541Y-133301541D01*
X145392398Y-133270034D01*
X151655542Y-127006891D01*
X151687042Y-126981040D01*
X151739678Y-126916903D01*
X151740001Y-126916509D01*
X151740001Y-140310000D01*
X113055000Y-140310000D01*
X113055000Y-137560098D01*
X116360000Y-137560098D01*
X116360000Y-138029902D01*
X116451654Y-138490679D01*
X116631440Y-138924721D01*
X116892450Y-139315349D01*
X117224651Y-139647550D01*
X117615279Y-139908560D01*
X118049321Y-140088346D01*
X118510098Y-140180000D01*
X118979902Y-140180000D01*
X119440679Y-140088346D01*
X119874721Y-139908560D01*
X120265349Y-139647550D01*
X120597550Y-139315349D01*
X120858560Y-138924721D01*
X121038346Y-138490679D01*
X121130000Y-138029902D01*
X121130000Y-137560098D01*
X144300000Y-137560098D01*
X144300000Y-138029902D01*
X144391654Y-138490679D01*
X144571440Y-138924721D01*
X144832450Y-139315349D01*
X145164651Y-139647550D01*
X145555279Y-139908560D01*
X145989321Y-140088346D01*
X146450098Y-140180000D01*
X146919902Y-140180000D01*
X147380679Y-140088346D01*
X147814721Y-139908560D01*
X148205349Y-139647550D01*
X148537550Y-139315349D01*
X148798560Y-138924721D01*
X148978346Y-138490679D01*
X149070000Y-138029902D01*
X149070000Y-137560098D01*
X148978346Y-137099321D01*
X148798560Y-136665279D01*
X148537550Y-136274651D01*
X148205349Y-135942450D01*
X147814721Y-135681440D01*
X147380679Y-135501654D01*
X146919902Y-135410000D01*
X146450098Y-135410000D01*
X145989321Y-135501654D01*
X145555279Y-135681440D01*
X145164651Y-135942450D01*
X144832450Y-136274651D01*
X144571440Y-136665279D01*
X144391654Y-137099321D01*
X144300000Y-137560098D01*
X121130000Y-137560098D01*
X121038346Y-137099321D01*
X120858560Y-136665279D01*
X120597550Y-136274651D01*
X120265349Y-135942450D01*
X119874721Y-135681440D01*
X119440679Y-135501654D01*
X118979902Y-135410000D01*
X118510098Y-135410000D01*
X118049321Y-135501654D01*
X117615279Y-135681440D01*
X117224651Y-135942450D01*
X116892450Y-136274651D01*
X116631440Y-136665279D01*
X116451654Y-137099321D01*
X116360000Y-137560098D01*
X113055000Y-137560098D01*
X113055000Y-111545000D01*
X113446928Y-111545000D01*
X113450000Y-112109250D01*
X113608750Y-112268000D01*
X114808000Y-112268000D01*
X114808000Y-111068750D01*
X115062000Y-111068750D01*
X115062000Y-112268000D01*
X116261250Y-112268000D01*
X116420000Y-112109250D01*
X116423072Y-111545000D01*
X116410812Y-111420518D01*
X116374502Y-111300820D01*
X116315537Y-111190506D01*
X116236185Y-111093815D01*
X116139494Y-111014463D01*
X116029180Y-110955498D01*
X115909482Y-110919188D01*
X115785000Y-110906928D01*
X115220750Y-110910000D01*
X115062000Y-111068750D01*
X114808000Y-111068750D01*
X114649250Y-110910000D01*
X114085000Y-110906928D01*
X113960518Y-110919188D01*
X113840820Y-110955498D01*
X113730506Y-111014463D01*
X113633815Y-111093815D01*
X113554463Y-111190506D01*
X113495498Y-111300820D01*
X113459188Y-111420518D01*
X113446928Y-111545000D01*
X113055000Y-111545000D01*
X113055000Y-109620098D01*
X116360000Y-109620098D01*
X116360000Y-110089902D01*
X116451654Y-110550679D01*
X116631440Y-110984721D01*
X116892450Y-111375349D01*
X117224651Y-111707550D01*
X117615279Y-111968560D01*
X118049321Y-112148346D01*
X118510098Y-112240000D01*
X118979902Y-112240000D01*
X119440679Y-112148346D01*
X119874721Y-111968560D01*
X120265349Y-111707550D01*
X120597550Y-111375349D01*
X120858560Y-110984721D01*
X121038346Y-110550679D01*
X121130000Y-110089902D01*
X121130000Y-109620098D01*
X121038346Y-109159321D01*
X120858560Y-108725279D01*
X120597550Y-108334651D01*
X120265349Y-108002450D01*
X119874721Y-107741440D01*
X119440679Y-107561654D01*
X118979902Y-107470000D01*
X118510098Y-107470000D01*
X118049321Y-107561654D01*
X117615279Y-107741440D01*
X117224651Y-108002450D01*
X116892450Y-108334651D01*
X116631440Y-108725279D01*
X116451654Y-109159321D01*
X116360000Y-109620098D01*
X113055000Y-109620098D01*
X113055000Y-107340000D01*
X132047581Y-107340000D01*
X132080000Y-107343193D01*
X132112419Y-107340000D01*
X132209383Y-107330450D01*
X132333793Y-107292710D01*
X132448450Y-107231425D01*
X132548948Y-107148948D01*
X132631425Y-107048450D01*
X132692710Y-106933793D01*
X132730450Y-106809383D01*
X132743193Y-106680000D01*
X132740000Y-106647581D01*
X132740000Y-103993740D01*
X133135000Y-103993740D01*
X133135000Y-104286260D01*
X133192068Y-104573158D01*
X133304010Y-104843411D01*
X133466525Y-105086632D01*
X133673368Y-105293475D01*
X133916589Y-105455990D01*
X134186842Y-105567932D01*
X134473740Y-105625000D01*
X134766260Y-105625000D01*
X135053158Y-105567932D01*
X135323411Y-105455990D01*
X135566632Y-105293475D01*
X135773475Y-105086632D01*
X135935990Y-104843411D01*
X136047932Y-104573158D01*
X136105000Y-104286260D01*
X136105000Y-103993740D01*
X136047932Y-103706842D01*
X135935990Y-103436589D01*
X135773475Y-103193368D01*
X135566632Y-102986525D01*
X135384466Y-102864805D01*
X135501355Y-102795178D01*
X135717588Y-102600269D01*
X135891641Y-102366920D01*
X136016825Y-102104099D01*
X136061476Y-101956890D01*
X135940155Y-101727000D01*
X134747000Y-101727000D01*
X134747000Y-101747000D01*
X134493000Y-101747000D01*
X134493000Y-101727000D01*
X133299845Y-101727000D01*
X133178524Y-101956890D01*
X133223175Y-102104099D01*
X133348359Y-102366920D01*
X133522412Y-102600269D01*
X133738645Y-102795178D01*
X133855534Y-102864805D01*
X133673368Y-102986525D01*
X133466525Y-103193368D01*
X133304010Y-103436589D01*
X133192068Y-103706842D01*
X133135000Y-103993740D01*
X132740000Y-103993740D01*
X132740000Y-69240000D01*
X151740000Y-69240000D01*
X151740000Y-71838490D01*
G37*
X151740000Y-71838490D02*
X151687042Y-71773960D01*
X151655535Y-71748103D01*
X151322395Y-71414963D01*
X151322390Y-71414957D01*
X151316578Y-71409145D01*
X151345000Y-71266260D01*
X151345000Y-70973740D01*
X151287932Y-70686842D01*
X151175990Y-70416589D01*
X151013475Y-70173368D01*
X150806632Y-69966525D01*
X150563411Y-69804010D01*
X150293158Y-69692068D01*
X150006260Y-69635000D01*
X149713740Y-69635000D01*
X149426842Y-69692068D01*
X149156589Y-69804010D01*
X148913368Y-69966525D01*
X148706525Y-70173368D01*
X148544010Y-70416589D01*
X148432068Y-70686842D01*
X148375000Y-70973740D01*
X148375000Y-71266260D01*
X148432068Y-71553158D01*
X148544010Y-71823411D01*
X148706525Y-72066632D01*
X148913368Y-72273475D01*
X149087760Y-72390000D01*
X148913368Y-72506525D01*
X148706525Y-72713368D01*
X148544010Y-72956589D01*
X148432068Y-73226842D01*
X148375000Y-73513740D01*
X148375000Y-73806260D01*
X148432068Y-74093158D01*
X148544010Y-74363411D01*
X148706525Y-74606632D01*
X148913368Y-74813475D01*
X149087760Y-74930000D01*
X148913368Y-75046525D01*
X148706525Y-75253368D01*
X148625587Y-75374500D01*
X147995550Y-75374500D01*
X147955000Y-75370506D01*
X147914449Y-75374500D01*
X147914447Y-75374500D01*
X147793174Y-75386444D01*
X147637566Y-75433647D01*
X147494157Y-75510301D01*
X147399958Y-75587608D01*
X147399957Y-75587609D01*
X147368459Y-75613459D01*
X147342611Y-75644955D01*
X143989460Y-78998108D01*
X143957959Y-79023960D01*
X143932108Y-79055460D01*
X143854800Y-79149659D01*
X143778146Y-79293068D01*
X143730944Y-79448675D01*
X143715005Y-79610501D01*
X143719000Y-79651062D01*
X143719000Y-81950185D01*
X143678937Y-81890226D01*
X143534774Y-81746063D01*
X143365256Y-81632795D01*
X143176898Y-81554774D01*
X142976939Y-81515000D01*
X142773061Y-81515000D01*
X142573102Y-81554774D01*
X142384744Y-81632795D01*
X142215226Y-81746063D01*
X142071063Y-81890226D01*
X141957795Y-82059744D01*
X141879774Y-82248102D01*
X141840000Y-82448061D01*
X141840000Y-82651939D01*
X141879774Y-82851898D01*
X141957795Y-83040256D01*
X142049500Y-83177503D01*
X142049501Y-109001928D01*
X141131001Y-109001928D01*
X141131001Y-79386051D01*
X141134995Y-79345501D01*
X141129831Y-79293067D01*
X141119057Y-79183675D01*
X141071854Y-79028067D01*
X140996056Y-78886260D01*
X140995200Y-78884658D01*
X140917893Y-78790460D01*
X140892042Y-78758960D01*
X140860541Y-78733108D01*
X136082395Y-73954963D01*
X136082390Y-73954957D01*
X136076578Y-73949145D01*
X136105000Y-73806260D01*
X136105000Y-73513740D01*
X136047932Y-73226842D01*
X135935990Y-72956589D01*
X135773475Y-72713368D01*
X135566632Y-72506525D01*
X135392240Y-72390000D01*
X135566632Y-72273475D01*
X135773475Y-72066632D01*
X135935990Y-71823411D01*
X136047932Y-71553158D01*
X136105000Y-71266260D01*
X136105000Y-70973740D01*
X136047932Y-70686842D01*
X135935990Y-70416589D01*
X135773475Y-70173368D01*
X135566632Y-69966525D01*
X135323411Y-69804010D01*
X135053158Y-69692068D01*
X134766260Y-69635000D01*
X134473740Y-69635000D01*
X134186842Y-69692068D01*
X133916589Y-69804010D01*
X133673368Y-69966525D01*
X133466525Y-70173368D01*
X133304010Y-70416589D01*
X133192068Y-70686842D01*
X133135000Y-70973740D01*
X133135000Y-71266260D01*
X133192068Y-71553158D01*
X133304010Y-71823411D01*
X133466525Y-72066632D01*
X133673368Y-72273475D01*
X133847760Y-72390000D01*
X133673368Y-72506525D01*
X133466525Y-72713368D01*
X133304010Y-72956589D01*
X133192068Y-73226842D01*
X133135000Y-73513740D01*
X133135000Y-73806260D01*
X133192068Y-74093158D01*
X133304010Y-74363411D01*
X133466525Y-74606632D01*
X133673368Y-74813475D01*
X133847760Y-74930000D01*
X133673368Y-75046525D01*
X133466525Y-75253368D01*
X133304010Y-75496589D01*
X133192068Y-75766842D01*
X133135000Y-76053740D01*
X133135000Y-76346260D01*
X133192068Y-76633158D01*
X133304010Y-76903411D01*
X133466525Y-77146632D01*
X133673368Y-77353475D01*
X133847760Y-77470000D01*
X133673368Y-77586525D01*
X133466525Y-77793368D01*
X133304010Y-78036589D01*
X133192068Y-78306842D01*
X133135000Y-78593740D01*
X133135000Y-78886260D01*
X133192068Y-79173158D01*
X133304010Y-79443411D01*
X133466525Y-79686632D01*
X133673368Y-79893475D01*
X133847760Y-80010000D01*
X133673368Y-80126525D01*
X133466525Y-80333368D01*
X133304010Y-80576589D01*
X133192068Y-80846842D01*
X133135000Y-81133740D01*
X133135000Y-81426260D01*
X133192068Y-81713158D01*
X133304010Y-81983411D01*
X133466525Y-82226632D01*
X133673368Y-82433475D01*
X133847760Y-82550000D01*
X133673368Y-82666525D01*
X133466525Y-82873368D01*
X133304010Y-83116589D01*
X133192068Y-83386842D01*
X133135000Y-83673740D01*
X133135000Y-83966260D01*
X133192068Y-84253158D01*
X133304010Y-84523411D01*
X133466525Y-84766632D01*
X133673368Y-84973475D01*
X133847760Y-85090000D01*
X133673368Y-85206525D01*
X133466525Y-85413368D01*
X133304010Y-85656589D01*
X133192068Y-85926842D01*
X133135000Y-86213740D01*
X133135000Y-86506260D01*
X133192068Y-86793158D01*
X133304010Y-87063411D01*
X133466525Y-87306632D01*
X133673368Y-87513475D01*
X133847760Y-87630000D01*
X133673368Y-87746525D01*
X133466525Y-87953368D01*
X133304010Y-88196589D01*
X133192068Y-88466842D01*
X133135000Y-88753740D01*
X133135000Y-89046260D01*
X133192068Y-89333158D01*
X133304010Y-89603411D01*
X133466525Y-89846632D01*
X133673368Y-90053475D01*
X133847760Y-90170000D01*
X133673368Y-90286525D01*
X133466525Y-90493368D01*
X133304010Y-90736589D01*
X133192068Y-91006842D01*
X133135000Y-91293740D01*
X133135000Y-91586260D01*
X133192068Y-91873158D01*
X133304010Y-92143411D01*
X133466525Y-92386632D01*
X133673368Y-92593475D01*
X133847760Y-92710000D01*
X133673368Y-92826525D01*
X133466525Y-93033368D01*
X133304010Y-93276589D01*
X133192068Y-93546842D01*
X133135000Y-93833740D01*
X133135000Y-94126260D01*
X133192068Y-94413158D01*
X133304010Y-94683411D01*
X133466525Y-94926632D01*
X133673368Y-95133475D01*
X133847760Y-95250000D01*
X133673368Y-95366525D01*
X133466525Y-95573368D01*
X133304010Y-95816589D01*
X133192068Y-96086842D01*
X133135000Y-96373740D01*
X133135000Y-96666260D01*
X133192068Y-96953158D01*
X133304010Y-97223411D01*
X133466525Y-97466632D01*
X133673368Y-97673475D01*
X133847760Y-97790000D01*
X133673368Y-97906525D01*
X133466525Y-98113368D01*
X133304010Y-98356589D01*
X133192068Y-98626842D01*
X133135000Y-98913740D01*
X133135000Y-99206260D01*
X133192068Y-99493158D01*
X133304010Y-99763411D01*
X133466525Y-100006632D01*
X133673368Y-100213475D01*
X133855534Y-100335195D01*
X133738645Y-100404822D01*
X133522412Y-100599731D01*
X133348359Y-100833080D01*
X133223175Y-101095901D01*
X133178524Y-101243110D01*
X133299845Y-101473000D01*
X134493000Y-101473000D01*
X134493000Y-101453000D01*
X134747000Y-101453000D01*
X134747000Y-101473000D01*
X135940155Y-101473000D01*
X136061476Y-101243110D01*
X136016825Y-101095901D01*
X135891641Y-100833080D01*
X135717588Y-100599731D01*
X135501355Y-100404822D01*
X135384466Y-100335195D01*
X135566632Y-100213475D01*
X135773475Y-100006632D01*
X135935990Y-99763411D01*
X136047932Y-99493158D01*
X136105000Y-99206260D01*
X136105000Y-98913740D01*
X136047932Y-98626842D01*
X135935990Y-98356589D01*
X135773475Y-98113368D01*
X135566632Y-97906525D01*
X135392240Y-97790000D01*
X135566632Y-97673475D01*
X135773475Y-97466632D01*
X135935990Y-97223411D01*
X136047932Y-96953158D01*
X136105000Y-96666260D01*
X136105000Y-96373740D01*
X136047932Y-96086842D01*
X135935990Y-95816589D01*
X135773475Y-95573368D01*
X135566632Y-95366525D01*
X135392240Y-95250000D01*
X135566632Y-95133475D01*
X135773475Y-94926632D01*
X135935990Y-94683411D01*
X136047932Y-94413158D01*
X136105000Y-94126260D01*
X136105000Y-93833740D01*
X136047932Y-93546842D01*
X135935990Y-93276589D01*
X135773475Y-93033368D01*
X135566632Y-92826525D01*
X135392240Y-92710000D01*
X135566632Y-92593475D01*
X135773475Y-92386632D01*
X135935990Y-92143411D01*
X136047932Y-91873158D01*
X136105000Y-91586260D01*
X136105000Y-91293740D01*
X136047932Y-91006842D01*
X135935990Y-90736589D01*
X135773475Y-90493368D01*
X135566632Y-90286525D01*
X135392240Y-90170000D01*
X135566632Y-90053475D01*
X135773475Y-89846632D01*
X135935990Y-89603411D01*
X136047932Y-89333158D01*
X136105000Y-89046260D01*
X136105000Y-88753740D01*
X136047932Y-88466842D01*
X135935990Y-88196589D01*
X135773475Y-87953368D01*
X135566632Y-87746525D01*
X135392240Y-87630000D01*
X135566632Y-87513475D01*
X135773475Y-87306632D01*
X135935990Y-87063411D01*
X136047932Y-86793158D01*
X136105000Y-86506260D01*
X136105000Y-86213740D01*
X136047932Y-85926842D01*
X135935990Y-85656589D01*
X135773475Y-85413368D01*
X135566632Y-85206525D01*
X135392240Y-85090000D01*
X135566632Y-84973475D01*
X135773475Y-84766632D01*
X135935990Y-84523411D01*
X136047932Y-84253158D01*
X136105000Y-83966260D01*
X136105000Y-83673740D01*
X136047932Y-83386842D01*
X135935990Y-83116589D01*
X135773475Y-82873368D01*
X135566632Y-82666525D01*
X135392240Y-82550000D01*
X135566632Y-82433475D01*
X135773475Y-82226632D01*
X135935990Y-81983411D01*
X136047932Y-81713158D01*
X136105000Y-81426260D01*
X136105000Y-81133740D01*
X136047932Y-80846842D01*
X135935990Y-80576589D01*
X135773475Y-80333368D01*
X135566632Y-80126525D01*
X135392240Y-80010000D01*
X135566632Y-79893475D01*
X135773475Y-79686632D01*
X135935990Y-79443411D01*
X136047932Y-79173158D01*
X136105000Y-78886260D01*
X136105000Y-78852433D01*
X138874501Y-81621935D01*
X138874500Y-99735552D01*
X138874501Y-99735562D01*
X138874500Y-100936494D01*
X138874501Y-100936502D01*
X138874500Y-105703067D01*
X136818068Y-107759500D01*
X128310550Y-107759500D01*
X128270000Y-107755506D01*
X128229449Y-107759500D01*
X128229447Y-107759500D01*
X128108174Y-107771444D01*
X127952566Y-107818647D01*
X127809157Y-107895301D01*
X127714958Y-107972608D01*
X127714955Y-107972611D01*
X127683459Y-107998459D01*
X127657611Y-108029955D01*
X126654145Y-109033422D01*
X126511260Y-109005000D01*
X126218740Y-109005000D01*
X125931842Y-109062068D01*
X125661589Y-109174010D01*
X125418368Y-109336525D01*
X125211525Y-109543368D01*
X125095000Y-109717760D01*
X124978475Y-109543368D01*
X124771632Y-109336525D01*
X124528411Y-109174010D01*
X124258158Y-109062068D01*
X123971260Y-109005000D01*
X123678740Y-109005000D01*
X123391842Y-109062068D01*
X123121589Y-109174010D01*
X122878368Y-109336525D01*
X122671525Y-109543368D01*
X122509010Y-109786589D01*
X122397068Y-110056842D01*
X122340000Y-110343740D01*
X122340000Y-110636260D01*
X122397068Y-110923158D01*
X122509010Y-111193411D01*
X122671525Y-111436632D01*
X122878368Y-111643475D01*
X123121589Y-111805990D01*
X123391842Y-111917932D01*
X123678740Y-111975000D01*
X123971260Y-111975000D01*
X124258158Y-111917932D01*
X124528411Y-111805990D01*
X124771632Y-111643475D01*
X124978475Y-111436632D01*
X125095000Y-111262240D01*
X125211525Y-111436632D01*
X125418368Y-111643475D01*
X125661589Y-111805990D01*
X125931842Y-111917932D01*
X126218740Y-111975000D01*
X126511260Y-111975000D01*
X126798158Y-111917932D01*
X127068411Y-111805990D01*
X127311632Y-111643475D01*
X127518475Y-111436632D01*
X127635000Y-111262240D01*
X127751525Y-111436632D01*
X127958368Y-111643475D01*
X128201589Y-111805990D01*
X128471842Y-111917932D01*
X128758740Y-111975000D01*
X129051260Y-111975000D01*
X129338158Y-111917932D01*
X129608411Y-111805990D01*
X129851632Y-111643475D01*
X130058475Y-111436632D01*
X130175000Y-111262240D01*
X130291525Y-111436632D01*
X130498368Y-111643475D01*
X130741589Y-111805990D01*
X131011842Y-111917932D01*
X131298740Y-111975000D01*
X131591260Y-111975000D01*
X131734145Y-111946578D01*
X132073107Y-112285540D01*
X132098960Y-112317042D01*
X132224659Y-112420200D01*
X132368067Y-112496854D01*
X132523675Y-112544057D01*
X132644948Y-112556001D01*
X132644957Y-112556001D01*
X132685500Y-112559994D01*
X132726043Y-112556001D01*
X139619891Y-112556001D01*
X139660441Y-112559995D01*
X139700991Y-112556001D01*
X139700994Y-112556001D01*
X139822267Y-112544057D01*
X139977875Y-112496854D01*
X140121283Y-112420200D01*
X140246982Y-112317042D01*
X140272838Y-112285536D01*
X140601397Y-111956978D01*
X140630518Y-111965812D01*
X140755000Y-111978072D01*
X141352397Y-111978072D01*
X136680970Y-116649500D01*
X124452503Y-116649500D01*
X124315256Y-116557795D01*
X124126898Y-116479774D01*
X123926939Y-116440000D01*
X123723061Y-116440000D01*
X123523102Y-116479774D01*
X123334744Y-116557795D01*
X123197497Y-116649500D01*
X116169413Y-116649500D01*
X116088475Y-116528368D01*
X115881632Y-116321525D01*
X115707240Y-116205000D01*
X115881632Y-116088475D01*
X116088475Y-115881632D01*
X116250990Y-115638411D01*
X116362932Y-115368158D01*
X116420000Y-115081260D01*
X116420000Y-114788740D01*
X116362932Y-114501842D01*
X116250990Y-114231589D01*
X116088475Y-113988368D01*
X115956620Y-113856513D01*
X116029180Y-113834502D01*
X116139494Y-113775537D01*
X116236185Y-113696185D01*
X116315537Y-113599494D01*
X116374502Y-113489180D01*
X116410812Y-113369482D01*
X116423072Y-113245000D01*
X116420000Y-112680750D01*
X116261250Y-112522000D01*
X115062000Y-112522000D01*
X115062000Y-112542000D01*
X114808000Y-112542000D01*
X114808000Y-112522000D01*
X113608750Y-112522000D01*
X113450000Y-112680750D01*
X113446928Y-113245000D01*
X113459188Y-113369482D01*
X113495498Y-113489180D01*
X113554463Y-113599494D01*
X113633815Y-113696185D01*
X113730506Y-113775537D01*
X113840820Y-113834502D01*
X113913380Y-113856513D01*
X113781525Y-113988368D01*
X113619010Y-114231589D01*
X113507068Y-114501842D01*
X113450000Y-114788740D01*
X113450000Y-115081260D01*
X113507068Y-115368158D01*
X113619010Y-115638411D01*
X113781525Y-115881632D01*
X113988368Y-116088475D01*
X114162760Y-116205000D01*
X113988368Y-116321525D01*
X113781525Y-116528368D01*
X113619010Y-116771589D01*
X113507068Y-117041842D01*
X113450000Y-117328740D01*
X113450000Y-117621260D01*
X113507068Y-117908158D01*
X113619010Y-118178411D01*
X113781525Y-118421632D01*
X113988368Y-118628475D01*
X114162760Y-118745000D01*
X113988368Y-118861525D01*
X113781525Y-119068368D01*
X113619010Y-119311589D01*
X113507068Y-119581842D01*
X113450000Y-119868740D01*
X113450000Y-120161260D01*
X113507068Y-120448158D01*
X113619010Y-120718411D01*
X113781525Y-120961632D01*
X113988368Y-121168475D01*
X114162760Y-121285000D01*
X113988368Y-121401525D01*
X113781525Y-121608368D01*
X113619010Y-121851589D01*
X113507068Y-122121842D01*
X113450000Y-122408740D01*
X113450000Y-122701260D01*
X113507068Y-122988158D01*
X113619010Y-123258411D01*
X113781525Y-123501632D01*
X113988368Y-123708475D01*
X114162760Y-123825000D01*
X113988368Y-123941525D01*
X113781525Y-124148368D01*
X113619010Y-124391589D01*
X113507068Y-124661842D01*
X113450000Y-124948740D01*
X113450000Y-125241260D01*
X113507068Y-125528158D01*
X113619010Y-125798411D01*
X113781525Y-126041632D01*
X113988368Y-126248475D01*
X114162760Y-126365000D01*
X113988368Y-126481525D01*
X113781525Y-126688368D01*
X113619010Y-126931589D01*
X113507068Y-127201842D01*
X113450000Y-127488740D01*
X113450000Y-127781260D01*
X113507068Y-128068158D01*
X113619010Y-128338411D01*
X113781525Y-128581632D01*
X113988368Y-128788475D01*
X114162760Y-128905000D01*
X113988368Y-129021525D01*
X113781525Y-129228368D01*
X113619010Y-129471589D01*
X113507068Y-129741842D01*
X113450000Y-130028740D01*
X113450000Y-130321260D01*
X113507068Y-130608158D01*
X113619010Y-130878411D01*
X113781525Y-131121632D01*
X113988368Y-131328475D01*
X114162760Y-131445000D01*
X113988368Y-131561525D01*
X113781525Y-131768368D01*
X113619010Y-132011589D01*
X113507068Y-132281842D01*
X113450000Y-132568740D01*
X113450000Y-132861260D01*
X113507068Y-133148158D01*
X113619010Y-133418411D01*
X113781525Y-133661632D01*
X113988368Y-133868475D01*
X114162760Y-133985000D01*
X113988368Y-134101525D01*
X113781525Y-134308368D01*
X113619010Y-134551589D01*
X113507068Y-134821842D01*
X113450000Y-135108740D01*
X113450000Y-135401260D01*
X113507068Y-135688158D01*
X113619010Y-135958411D01*
X113781525Y-136201632D01*
X113988368Y-136408475D01*
X114231589Y-136570990D01*
X114501842Y-136682932D01*
X114788740Y-136740000D01*
X115081260Y-136740000D01*
X115368158Y-136682932D01*
X115638411Y-136570990D01*
X115881632Y-136408475D01*
X116088475Y-136201632D01*
X116250990Y-135958411D01*
X116362932Y-135688158D01*
X116420000Y-135401260D01*
X116420000Y-135108740D01*
X116362932Y-134821842D01*
X116250990Y-134551589D01*
X116088475Y-134308368D01*
X115881632Y-134101525D01*
X115707240Y-133985000D01*
X115881632Y-133868475D01*
X116088475Y-133661632D01*
X116169413Y-133540500D01*
X144739450Y-133540500D01*
X144780000Y-133544494D01*
X144820550Y-133540500D01*
X144820553Y-133540500D01*
X144941826Y-133528556D01*
X145097434Y-133481353D01*
X145240842Y-133404699D01*
X145366541Y-133301541D01*
X145392398Y-133270034D01*
X151655542Y-127006891D01*
X151687042Y-126981040D01*
X151739678Y-126916903D01*
X151740001Y-126916509D01*
X151740001Y-140310000D01*
X113055000Y-140310000D01*
X113055000Y-137560098D01*
X116360000Y-137560098D01*
X116360000Y-138029902D01*
X116451654Y-138490679D01*
X116631440Y-138924721D01*
X116892450Y-139315349D01*
X117224651Y-139647550D01*
X117615279Y-139908560D01*
X118049321Y-140088346D01*
X118510098Y-140180000D01*
X118979902Y-140180000D01*
X119440679Y-140088346D01*
X119874721Y-139908560D01*
X120265349Y-139647550D01*
X120597550Y-139315349D01*
X120858560Y-138924721D01*
X121038346Y-138490679D01*
X121130000Y-138029902D01*
X121130000Y-137560098D01*
X144300000Y-137560098D01*
X144300000Y-138029902D01*
X144391654Y-138490679D01*
X144571440Y-138924721D01*
X144832450Y-139315349D01*
X145164651Y-139647550D01*
X145555279Y-139908560D01*
X145989321Y-140088346D01*
X146450098Y-140180000D01*
X146919902Y-140180000D01*
X147380679Y-140088346D01*
X147814721Y-139908560D01*
X148205349Y-139647550D01*
X148537550Y-139315349D01*
X148798560Y-138924721D01*
X148978346Y-138490679D01*
X149070000Y-138029902D01*
X149070000Y-137560098D01*
X148978346Y-137099321D01*
X148798560Y-136665279D01*
X148537550Y-136274651D01*
X148205349Y-135942450D01*
X147814721Y-135681440D01*
X147380679Y-135501654D01*
X146919902Y-135410000D01*
X146450098Y-135410000D01*
X145989321Y-135501654D01*
X145555279Y-135681440D01*
X145164651Y-135942450D01*
X144832450Y-136274651D01*
X144571440Y-136665279D01*
X144391654Y-137099321D01*
X144300000Y-137560098D01*
X121130000Y-137560098D01*
X121038346Y-137099321D01*
X120858560Y-136665279D01*
X120597550Y-136274651D01*
X120265349Y-135942450D01*
X119874721Y-135681440D01*
X119440679Y-135501654D01*
X118979902Y-135410000D01*
X118510098Y-135410000D01*
X118049321Y-135501654D01*
X117615279Y-135681440D01*
X117224651Y-135942450D01*
X116892450Y-136274651D01*
X116631440Y-136665279D01*
X116451654Y-137099321D01*
X116360000Y-137560098D01*
X113055000Y-137560098D01*
X113055000Y-111545000D01*
X113446928Y-111545000D01*
X113450000Y-112109250D01*
X113608750Y-112268000D01*
X114808000Y-112268000D01*
X114808000Y-111068750D01*
X115062000Y-111068750D01*
X115062000Y-112268000D01*
X116261250Y-112268000D01*
X116420000Y-112109250D01*
X116423072Y-111545000D01*
X116410812Y-111420518D01*
X116374502Y-111300820D01*
X116315537Y-111190506D01*
X116236185Y-111093815D01*
X116139494Y-111014463D01*
X116029180Y-110955498D01*
X115909482Y-110919188D01*
X115785000Y-110906928D01*
X115220750Y-110910000D01*
X115062000Y-111068750D01*
X114808000Y-111068750D01*
X114649250Y-110910000D01*
X114085000Y-110906928D01*
X113960518Y-110919188D01*
X113840820Y-110955498D01*
X113730506Y-111014463D01*
X113633815Y-111093815D01*
X113554463Y-111190506D01*
X113495498Y-111300820D01*
X113459188Y-111420518D01*
X113446928Y-111545000D01*
X113055000Y-111545000D01*
X113055000Y-109620098D01*
X116360000Y-109620098D01*
X116360000Y-110089902D01*
X116451654Y-110550679D01*
X116631440Y-110984721D01*
X116892450Y-111375349D01*
X117224651Y-111707550D01*
X117615279Y-111968560D01*
X118049321Y-112148346D01*
X118510098Y-112240000D01*
X118979902Y-112240000D01*
X119440679Y-112148346D01*
X119874721Y-111968560D01*
X120265349Y-111707550D01*
X120597550Y-111375349D01*
X120858560Y-110984721D01*
X121038346Y-110550679D01*
X121130000Y-110089902D01*
X121130000Y-109620098D01*
X121038346Y-109159321D01*
X120858560Y-108725279D01*
X120597550Y-108334651D01*
X120265349Y-108002450D01*
X119874721Y-107741440D01*
X119440679Y-107561654D01*
X118979902Y-107470000D01*
X118510098Y-107470000D01*
X118049321Y-107561654D01*
X117615279Y-107741440D01*
X117224651Y-108002450D01*
X116892450Y-108334651D01*
X116631440Y-108725279D01*
X116451654Y-109159321D01*
X116360000Y-109620098D01*
X113055000Y-109620098D01*
X113055000Y-107340000D01*
X132047581Y-107340000D01*
X132080000Y-107343193D01*
X132112419Y-107340000D01*
X132209383Y-107330450D01*
X132333793Y-107292710D01*
X132448450Y-107231425D01*
X132548948Y-107148948D01*
X132631425Y-107048450D01*
X132692710Y-106933793D01*
X132730450Y-106809383D01*
X132743193Y-106680000D01*
X132740000Y-106647581D01*
X132740000Y-103993740D01*
X133135000Y-103993740D01*
X133135000Y-104286260D01*
X133192068Y-104573158D01*
X133304010Y-104843411D01*
X133466525Y-105086632D01*
X133673368Y-105293475D01*
X133916589Y-105455990D01*
X134186842Y-105567932D01*
X134473740Y-105625000D01*
X134766260Y-105625000D01*
X135053158Y-105567932D01*
X135323411Y-105455990D01*
X135566632Y-105293475D01*
X135773475Y-105086632D01*
X135935990Y-104843411D01*
X136047932Y-104573158D01*
X136105000Y-104286260D01*
X136105000Y-103993740D01*
X136047932Y-103706842D01*
X135935990Y-103436589D01*
X135773475Y-103193368D01*
X135566632Y-102986525D01*
X135384466Y-102864805D01*
X135501355Y-102795178D01*
X135717588Y-102600269D01*
X135891641Y-102366920D01*
X136016825Y-102104099D01*
X136061476Y-101956890D01*
X135940155Y-101727000D01*
X134747000Y-101727000D01*
X134747000Y-101747000D01*
X134493000Y-101747000D01*
X134493000Y-101727000D01*
X133299845Y-101727000D01*
X133178524Y-101956890D01*
X133223175Y-102104099D01*
X133348359Y-102366920D01*
X133522412Y-102600269D01*
X133738645Y-102795178D01*
X133855534Y-102864805D01*
X133673368Y-102986525D01*
X133466525Y-103193368D01*
X133304010Y-103436589D01*
X133192068Y-103706842D01*
X133135000Y-103993740D01*
X132740000Y-103993740D01*
X132740000Y-69240000D01*
X151740000Y-69240000D01*
X151740000Y-71838490D01*
G36*
X149987000Y-104013000D02*
G01*
X150007000Y-104013000D01*
X150007000Y-104267000D01*
X149987000Y-104267000D01*
X149987000Y-105466250D01*
X150145750Y-105625000D01*
X150275001Y-105625704D01*
X150275001Y-126052566D01*
X144438068Y-131889500D01*
X116169413Y-131889500D01*
X116088475Y-131768368D01*
X115881632Y-131561525D01*
X115707240Y-131445000D01*
X115881632Y-131328475D01*
X116088475Y-131121632D01*
X116250990Y-130878411D01*
X116362932Y-130608158D01*
X116420000Y-130321260D01*
X116420000Y-130028740D01*
X116362932Y-129741842D01*
X116250990Y-129471589D01*
X116088475Y-129228368D01*
X115881632Y-129021525D01*
X115707240Y-128905000D01*
X115881632Y-128788475D01*
X116088475Y-128581632D01*
X116169413Y-128460500D01*
X133357497Y-128460500D01*
X133494744Y-128552205D01*
X133683102Y-128630226D01*
X133883061Y-128670000D01*
X134086939Y-128670000D01*
X134286898Y-128630226D01*
X134475256Y-128552205D01*
X134612503Y-128460500D01*
X146644450Y-128460500D01*
X146685000Y-128464494D01*
X146725550Y-128460500D01*
X146725553Y-128460500D01*
X146846826Y-128448556D01*
X147002434Y-128401353D01*
X147145842Y-128324699D01*
X147271541Y-128221541D01*
X147297398Y-128190034D01*
X149380546Y-126106888D01*
X149412042Y-126081040D01*
X149437890Y-126049544D01*
X149437893Y-126049541D01*
X149515200Y-125955342D01*
X149591854Y-125811933D01*
X149624352Y-125704800D01*
X149639057Y-125656325D01*
X149651001Y-125535052D01*
X149651001Y-125535050D01*
X149654995Y-125494499D01*
X149651001Y-125453949D01*
X149651001Y-108868109D01*
X149654995Y-108827559D01*
X149651001Y-108787006D01*
X149639057Y-108665733D01*
X149591854Y-108510125D01*
X149515200Y-108366717D01*
X149415500Y-108245232D01*
X149415500Y-105625864D01*
X149574250Y-105625000D01*
X149733000Y-105466250D01*
X149733000Y-104267000D01*
X149713000Y-104267000D01*
X149713000Y-104013000D01*
X149733000Y-104013000D01*
X149733000Y-103993000D01*
X149987000Y-103993000D01*
X149987000Y-104013000D01*
G37*
X149987000Y-104013000D02*
X150007000Y-104013000D01*
X150007000Y-104267000D01*
X149987000Y-104267000D01*
X149987000Y-105466250D01*
X150145750Y-105625000D01*
X150275001Y-105625704D01*
X150275001Y-126052566D01*
X144438068Y-131889500D01*
X116169413Y-131889500D01*
X116088475Y-131768368D01*
X115881632Y-131561525D01*
X115707240Y-131445000D01*
X115881632Y-131328475D01*
X116088475Y-131121632D01*
X116250990Y-130878411D01*
X116362932Y-130608158D01*
X116420000Y-130321260D01*
X116420000Y-130028740D01*
X116362932Y-129741842D01*
X116250990Y-129471589D01*
X116088475Y-129228368D01*
X115881632Y-129021525D01*
X115707240Y-128905000D01*
X115881632Y-128788475D01*
X116088475Y-128581632D01*
X116169413Y-128460500D01*
X133357497Y-128460500D01*
X133494744Y-128552205D01*
X133683102Y-128630226D01*
X133883061Y-128670000D01*
X134086939Y-128670000D01*
X134286898Y-128630226D01*
X134475256Y-128552205D01*
X134612503Y-128460500D01*
X146644450Y-128460500D01*
X146685000Y-128464494D01*
X146725550Y-128460500D01*
X146725553Y-128460500D01*
X146846826Y-128448556D01*
X147002434Y-128401353D01*
X147145842Y-128324699D01*
X147271541Y-128221541D01*
X147297398Y-128190034D01*
X149380546Y-126106888D01*
X149412042Y-126081040D01*
X149437890Y-126049544D01*
X149437893Y-126049541D01*
X149515200Y-125955342D01*
X149591854Y-125811933D01*
X149624352Y-125704800D01*
X149639057Y-125656325D01*
X149651001Y-125535052D01*
X149651001Y-125535050D01*
X149654995Y-125494499D01*
X149651001Y-125453949D01*
X149651001Y-108868109D01*
X149654995Y-108827559D01*
X149651001Y-108787006D01*
X149639057Y-108665733D01*
X149591854Y-108510125D01*
X149515200Y-108366717D01*
X149415500Y-108245232D01*
X149415500Y-105625864D01*
X149574250Y-105625000D01*
X149733000Y-105466250D01*
X149733000Y-104267000D01*
X149713000Y-104267000D01*
X149713000Y-104013000D01*
X149733000Y-104013000D01*
X149733000Y-103993000D01*
X149987000Y-103993000D01*
X149987000Y-104013000D01*
G36*
X139480001Y-109066150D02*
G01*
X139421890Y-109048524D01*
X139192000Y-109169845D01*
X139192000Y-110363000D01*
X139212000Y-110363000D01*
X139212000Y-110617000D01*
X139192000Y-110617000D01*
X139192000Y-110637000D01*
X138938000Y-110637000D01*
X138938000Y-110617000D01*
X138918000Y-110617000D01*
X138918000Y-110363000D01*
X138938000Y-110363000D01*
X138938000Y-109169845D01*
X138708110Y-109048524D01*
X138560901Y-109093175D01*
X138298080Y-109218359D01*
X138064731Y-109392412D01*
X137869822Y-109608645D01*
X137800195Y-109725534D01*
X137678475Y-109543368D01*
X137483316Y-109348209D01*
X137620842Y-109274699D01*
X137746541Y-109171541D01*
X137772398Y-109140034D01*
X139480001Y-107432432D01*
X139480001Y-109066150D01*
G37*
X139480001Y-109066150D02*
X139421890Y-109048524D01*
X139192000Y-109169845D01*
X139192000Y-110363000D01*
X139212000Y-110363000D01*
X139212000Y-110617000D01*
X139192000Y-110617000D01*
X139192000Y-110637000D01*
X138938000Y-110637000D01*
X138938000Y-110617000D01*
X138918000Y-110617000D01*
X138918000Y-110363000D01*
X138938000Y-110363000D01*
X138938000Y-109169845D01*
X138708110Y-109048524D01*
X138560901Y-109093175D01*
X138298080Y-109218359D01*
X138064731Y-109392412D01*
X137869822Y-109608645D01*
X137800195Y-109725534D01*
X137678475Y-109543368D01*
X137483316Y-109348209D01*
X137620842Y-109274699D01*
X137746541Y-109171541D01*
X137772398Y-109140034D01*
X139480001Y-107432432D01*
X139480001Y-109066150D01*
M02*
