G04 #@! TF.GenerationSoftware,KiCad,Pcbnew,(5.1.5-0-10_14)*
G04 #@! TF.CreationDate,2020-09-26T22:56:57+02:00*
G04 #@! TF.ProjectId,es_display,65735f64-6973-4706-9c61-792e6b696361,rev?*
G04 #@! TF.SameCoordinates,Original*
G04 #@! TF.FileFunction,Legend,Top*
G04 #@! TF.FilePolarity,Positive*
%FSLAX46Y46*%
G04 Gerber Fmt 4.6, Leading zero omitted, Abs format (unit mm)*
G04 Created by KiCad (PCBNEW (5.1.5-0-10_14)) date 2020-09-26 22:56:57*
%MOMM*%
%LPD*%
G04 APERTURE LIST*
%ADD10C,0.150000*%
%ADD11C,0.300000*%
%ADD12C,0.190500*%
%ADD13C,0.120000*%
G04 APERTURE END LIST*
D10*
X117500476Y-135616904D02*
X117119523Y-135616904D01*
X117119523Y-134816904D01*
X117767142Y-135616904D02*
X117767142Y-134816904D01*
X118033809Y-134816904D02*
X118490952Y-134816904D01*
X118262380Y-135616904D02*
X118262380Y-134816904D01*
X118757619Y-135197857D02*
X119024285Y-135197857D01*
X119138571Y-135616904D02*
X118757619Y-135616904D01*
X118757619Y-134816904D01*
X119138571Y-134816904D01*
X116852857Y-133076904D02*
X116852857Y-132276904D01*
X117119523Y-132848333D01*
X117386190Y-132276904D01*
X117386190Y-133076904D01*
X117767142Y-133076904D02*
X117767142Y-132276904D01*
X118110000Y-133038809D02*
X118224285Y-133076904D01*
X118414761Y-133076904D01*
X118490952Y-133038809D01*
X118529047Y-133000714D01*
X118567142Y-132924523D01*
X118567142Y-132848333D01*
X118529047Y-132772142D01*
X118490952Y-132734047D01*
X118414761Y-132695952D01*
X118262380Y-132657857D01*
X118186190Y-132619761D01*
X118148095Y-132581666D01*
X118110000Y-132505476D01*
X118110000Y-132429285D01*
X118148095Y-132353095D01*
X118186190Y-132315000D01*
X118262380Y-132276904D01*
X118452857Y-132276904D01*
X118567142Y-132315000D01*
X119062380Y-132276904D02*
X119214761Y-132276904D01*
X119290952Y-132315000D01*
X119367142Y-132391190D01*
X119405238Y-132543571D01*
X119405238Y-132810238D01*
X119367142Y-132962619D01*
X119290952Y-133038809D01*
X119214761Y-133076904D01*
X119062380Y-133076904D01*
X118986190Y-133038809D01*
X118910000Y-132962619D01*
X118871904Y-132810238D01*
X118871904Y-132543571D01*
X118910000Y-132391190D01*
X118986190Y-132315000D01*
X119062380Y-132276904D01*
X117081428Y-130498809D02*
X117195714Y-130536904D01*
X117386190Y-130536904D01*
X117462380Y-130498809D01*
X117500476Y-130460714D01*
X117538571Y-130384523D01*
X117538571Y-130308333D01*
X117500476Y-130232142D01*
X117462380Y-130194047D01*
X117386190Y-130155952D01*
X117233809Y-130117857D01*
X117157619Y-130079761D01*
X117119523Y-130041666D01*
X117081428Y-129965476D01*
X117081428Y-129889285D01*
X117119523Y-129813095D01*
X117157619Y-129775000D01*
X117233809Y-129736904D01*
X117424285Y-129736904D01*
X117538571Y-129775000D01*
X118338571Y-130460714D02*
X118300476Y-130498809D01*
X118186190Y-130536904D01*
X118110000Y-130536904D01*
X117995714Y-130498809D01*
X117919523Y-130422619D01*
X117881428Y-130346428D01*
X117843333Y-130194047D01*
X117843333Y-130079761D01*
X117881428Y-129927380D01*
X117919523Y-129851190D01*
X117995714Y-129775000D01*
X118110000Y-129736904D01*
X118186190Y-129736904D01*
X118300476Y-129775000D01*
X118338571Y-129813095D01*
X118681428Y-130536904D02*
X118681428Y-129736904D01*
X119138571Y-130536904D02*
X118795714Y-130079761D01*
X119138571Y-129736904D02*
X118681428Y-130194047D01*
X116852857Y-127996904D02*
X116852857Y-127196904D01*
X117119523Y-127768333D01*
X117386190Y-127196904D01*
X117386190Y-127996904D01*
X117919523Y-127196904D02*
X118071904Y-127196904D01*
X118148095Y-127235000D01*
X118224285Y-127311190D01*
X118262380Y-127463571D01*
X118262380Y-127730238D01*
X118224285Y-127882619D01*
X118148095Y-127958809D01*
X118071904Y-127996904D01*
X117919523Y-127996904D01*
X117843333Y-127958809D01*
X117767142Y-127882619D01*
X117729047Y-127730238D01*
X117729047Y-127463571D01*
X117767142Y-127311190D01*
X117843333Y-127235000D01*
X117919523Y-127196904D01*
X118567142Y-127958809D02*
X118681428Y-127996904D01*
X118871904Y-127996904D01*
X118948095Y-127958809D01*
X118986190Y-127920714D01*
X119024285Y-127844523D01*
X119024285Y-127768333D01*
X118986190Y-127692142D01*
X118948095Y-127654047D01*
X118871904Y-127615952D01*
X118719523Y-127577857D01*
X118643333Y-127539761D01*
X118605238Y-127501666D01*
X118567142Y-127425476D01*
X118567142Y-127349285D01*
X118605238Y-127273095D01*
X118643333Y-127235000D01*
X118719523Y-127196904D01*
X118910000Y-127196904D01*
X119024285Y-127235000D01*
X119367142Y-127996904D02*
X119367142Y-127196904D01*
X117976666Y-125380714D02*
X117938571Y-125418809D01*
X117824285Y-125456904D01*
X117748095Y-125456904D01*
X117633809Y-125418809D01*
X117557619Y-125342619D01*
X117519523Y-125266428D01*
X117481428Y-125114047D01*
X117481428Y-124999761D01*
X117519523Y-124847380D01*
X117557619Y-124771190D01*
X117633809Y-124695000D01*
X117748095Y-124656904D01*
X117824285Y-124656904D01*
X117938571Y-124695000D01*
X117976666Y-124733095D01*
X118281428Y-125418809D02*
X118395714Y-125456904D01*
X118586190Y-125456904D01*
X118662380Y-125418809D01*
X118700476Y-125380714D01*
X118738571Y-125304523D01*
X118738571Y-125228333D01*
X118700476Y-125152142D01*
X118662380Y-125114047D01*
X118586190Y-125075952D01*
X118433809Y-125037857D01*
X118357619Y-124999761D01*
X118319523Y-124961666D01*
X118281428Y-124885476D01*
X118281428Y-124809285D01*
X118319523Y-124733095D01*
X118357619Y-124695000D01*
X118433809Y-124656904D01*
X118624285Y-124656904D01*
X118738571Y-124695000D01*
X117081428Y-120376904D02*
X117081428Y-119576904D01*
X117271904Y-119576904D01*
X117386190Y-119615000D01*
X117462380Y-119691190D01*
X117500476Y-119767380D01*
X117538571Y-119919761D01*
X117538571Y-120034047D01*
X117500476Y-120186428D01*
X117462380Y-120262619D01*
X117386190Y-120338809D01*
X117271904Y-120376904D01*
X117081428Y-120376904D01*
X118452857Y-119538809D02*
X117767142Y-120567380D01*
X119176666Y-120300714D02*
X119138571Y-120338809D01*
X119024285Y-120376904D01*
X118948095Y-120376904D01*
X118833809Y-120338809D01*
X118757619Y-120262619D01*
X118719523Y-120186428D01*
X118681428Y-120034047D01*
X118681428Y-119919761D01*
X118719523Y-119767380D01*
X118757619Y-119691190D01*
X118833809Y-119615000D01*
X118948095Y-119576904D01*
X119024285Y-119576904D01*
X119138571Y-119615000D01*
X119176666Y-119653095D01*
X117583095Y-117836904D02*
X117316428Y-117455952D01*
X117125952Y-117836904D02*
X117125952Y-117036904D01*
X117430714Y-117036904D01*
X117506904Y-117075000D01*
X117545000Y-117113095D01*
X117583095Y-117189285D01*
X117583095Y-117303571D01*
X117545000Y-117379761D01*
X117506904Y-117417857D01*
X117430714Y-117455952D01*
X117125952Y-117455952D01*
X117925952Y-117417857D02*
X118192619Y-117417857D01*
X118306904Y-117836904D02*
X117925952Y-117836904D01*
X117925952Y-117036904D01*
X118306904Y-117036904D01*
X118611666Y-117798809D02*
X118725952Y-117836904D01*
X118916428Y-117836904D01*
X118992619Y-117798809D01*
X119030714Y-117760714D01*
X119068809Y-117684523D01*
X119068809Y-117608333D01*
X119030714Y-117532142D01*
X118992619Y-117494047D01*
X118916428Y-117455952D01*
X118764047Y-117417857D01*
X118687857Y-117379761D01*
X118649761Y-117341666D01*
X118611666Y-117265476D01*
X118611666Y-117189285D01*
X118649761Y-117113095D01*
X118687857Y-117075000D01*
X118764047Y-117036904D01*
X118954523Y-117036904D01*
X119068809Y-117075000D01*
X119411666Y-117417857D02*
X119678333Y-117417857D01*
X119792619Y-117836904D02*
X119411666Y-117836904D01*
X119411666Y-117036904D01*
X119792619Y-117036904D01*
X120021190Y-117036904D02*
X120478333Y-117036904D01*
X120249761Y-117836904D02*
X120249761Y-117036904D01*
X117043333Y-114496904D02*
X117310000Y-115296904D01*
X117576666Y-114496904D01*
X118300476Y-115220714D02*
X118262380Y-115258809D01*
X118148095Y-115296904D01*
X118071904Y-115296904D01*
X117957619Y-115258809D01*
X117881428Y-115182619D01*
X117843333Y-115106428D01*
X117805238Y-114954047D01*
X117805238Y-114839761D01*
X117843333Y-114687380D01*
X117881428Y-114611190D01*
X117957619Y-114535000D01*
X118071904Y-114496904D01*
X118148095Y-114496904D01*
X118262380Y-114535000D01*
X118300476Y-114573095D01*
X119100476Y-115220714D02*
X119062380Y-115258809D01*
X118948095Y-115296904D01*
X118871904Y-115296904D01*
X118757619Y-115258809D01*
X118681428Y-115182619D01*
X118643333Y-115106428D01*
X118605238Y-114954047D01*
X118605238Y-114839761D01*
X118643333Y-114687380D01*
X118681428Y-114611190D01*
X118757619Y-114535000D01*
X118871904Y-114496904D01*
X118948095Y-114496904D01*
X119062380Y-114535000D01*
X119100476Y-114573095D01*
X117500476Y-111995000D02*
X117424285Y-111956904D01*
X117310000Y-111956904D01*
X117195714Y-111995000D01*
X117119523Y-112071190D01*
X117081428Y-112147380D01*
X117043333Y-112299761D01*
X117043333Y-112414047D01*
X117081428Y-112566428D01*
X117119523Y-112642619D01*
X117195714Y-112718809D01*
X117310000Y-112756904D01*
X117386190Y-112756904D01*
X117500476Y-112718809D01*
X117538571Y-112680714D01*
X117538571Y-112414047D01*
X117386190Y-112414047D01*
X117881428Y-112756904D02*
X117881428Y-111956904D01*
X118338571Y-112756904D01*
X118338571Y-111956904D01*
X118719523Y-112756904D02*
X118719523Y-111956904D01*
X118910000Y-111956904D01*
X119024285Y-111995000D01*
X119100476Y-112071190D01*
X119138571Y-112147380D01*
X119176666Y-112299761D01*
X119176666Y-112414047D01*
X119138571Y-112566428D01*
X119100476Y-112642619D01*
X119024285Y-112718809D01*
X118910000Y-112756904D01*
X118719523Y-112756904D01*
X123463095Y-113169761D02*
X123844047Y-112903095D01*
X123463095Y-112712619D02*
X124263095Y-112712619D01*
X124263095Y-113017380D01*
X124225000Y-113093571D01*
X124186904Y-113131666D01*
X124110714Y-113169761D01*
X123996428Y-113169761D01*
X123920238Y-113131666D01*
X123882142Y-113093571D01*
X123844047Y-113017380D01*
X123844047Y-112712619D01*
X123882142Y-113512619D02*
X123882142Y-113779285D01*
X123463095Y-113893571D02*
X123463095Y-113512619D01*
X124263095Y-113512619D01*
X124263095Y-113893571D01*
X123501190Y-114198333D02*
X123463095Y-114312619D01*
X123463095Y-114503095D01*
X123501190Y-114579285D01*
X123539285Y-114617380D01*
X123615476Y-114655476D01*
X123691666Y-114655476D01*
X123767857Y-114617380D01*
X123805952Y-114579285D01*
X123844047Y-114503095D01*
X123882142Y-114350714D01*
X123920238Y-114274523D01*
X123958333Y-114236428D01*
X124034523Y-114198333D01*
X124110714Y-114198333D01*
X124186904Y-114236428D01*
X124225000Y-114274523D01*
X124263095Y-114350714D01*
X124263095Y-114541190D01*
X124225000Y-114655476D01*
X126003095Y-112636428D02*
X126803095Y-112636428D01*
X126803095Y-112826904D01*
X126765000Y-112941190D01*
X126688809Y-113017380D01*
X126612619Y-113055476D01*
X126460238Y-113093571D01*
X126345952Y-113093571D01*
X126193571Y-113055476D01*
X126117380Y-113017380D01*
X126041190Y-112941190D01*
X126003095Y-112826904D01*
X126003095Y-112636428D01*
X126841190Y-114007857D02*
X125812619Y-113322142D01*
X126079285Y-114731666D02*
X126041190Y-114693571D01*
X126003095Y-114579285D01*
X126003095Y-114503095D01*
X126041190Y-114388809D01*
X126117380Y-114312619D01*
X126193571Y-114274523D01*
X126345952Y-114236428D01*
X126460238Y-114236428D01*
X126612619Y-114274523D01*
X126688809Y-114312619D01*
X126765000Y-114388809D01*
X126803095Y-114503095D01*
X126803095Y-114579285D01*
X126765000Y-114693571D01*
X126726904Y-114731666D01*
X128619285Y-113531666D02*
X128581190Y-113493571D01*
X128543095Y-113379285D01*
X128543095Y-113303095D01*
X128581190Y-113188809D01*
X128657380Y-113112619D01*
X128733571Y-113074523D01*
X128885952Y-113036428D01*
X129000238Y-113036428D01*
X129152619Y-113074523D01*
X129228809Y-113112619D01*
X129305000Y-113188809D01*
X129343095Y-113303095D01*
X129343095Y-113379285D01*
X129305000Y-113493571D01*
X129266904Y-113531666D01*
X128581190Y-113836428D02*
X128543095Y-113950714D01*
X128543095Y-114141190D01*
X128581190Y-114217380D01*
X128619285Y-114255476D01*
X128695476Y-114293571D01*
X128771666Y-114293571D01*
X128847857Y-114255476D01*
X128885952Y-114217380D01*
X128924047Y-114141190D01*
X128962142Y-113988809D01*
X129000238Y-113912619D01*
X129038333Y-113874523D01*
X129114523Y-113836428D01*
X129190714Y-113836428D01*
X129266904Y-113874523D01*
X129305000Y-113912619D01*
X129343095Y-113988809D01*
X129343095Y-114179285D01*
X129305000Y-114293571D01*
X131159285Y-113188809D02*
X131121190Y-113150714D01*
X131083095Y-113036428D01*
X131083095Y-112960238D01*
X131121190Y-112845952D01*
X131197380Y-112769761D01*
X131273571Y-112731666D01*
X131425952Y-112693571D01*
X131540238Y-112693571D01*
X131692619Y-112731666D01*
X131768809Y-112769761D01*
X131845000Y-112845952D01*
X131883095Y-112960238D01*
X131883095Y-113036428D01*
X131845000Y-113150714D01*
X131806904Y-113188809D01*
X131083095Y-113912619D02*
X131083095Y-113531666D01*
X131883095Y-113531666D01*
X131083095Y-114179285D02*
X131883095Y-114179285D01*
X131083095Y-114636428D02*
X131540238Y-114293571D01*
X131883095Y-114636428D02*
X131425952Y-114179285D01*
X133623095Y-112845952D02*
X134423095Y-112845952D01*
X134423095Y-113036428D01*
X134385000Y-113150714D01*
X134308809Y-113226904D01*
X134232619Y-113265000D01*
X134080238Y-113303095D01*
X133965952Y-113303095D01*
X133813571Y-113265000D01*
X133737380Y-113226904D01*
X133661190Y-113150714D01*
X133623095Y-113036428D01*
X133623095Y-112845952D01*
X133623095Y-113645952D02*
X134423095Y-113645952D01*
X133623095Y-114026904D02*
X134423095Y-114026904D01*
X133623095Y-114484047D01*
X134423095Y-114484047D01*
X139465000Y-113055476D02*
X139503095Y-112979285D01*
X139503095Y-112865000D01*
X139465000Y-112750714D01*
X139388809Y-112674523D01*
X139312619Y-112636428D01*
X139160238Y-112598333D01*
X139045952Y-112598333D01*
X138893571Y-112636428D01*
X138817380Y-112674523D01*
X138741190Y-112750714D01*
X138703095Y-112865000D01*
X138703095Y-112941190D01*
X138741190Y-113055476D01*
X138779285Y-113093571D01*
X139045952Y-113093571D01*
X139045952Y-112941190D01*
X138703095Y-113436428D02*
X139503095Y-113436428D01*
X138703095Y-113893571D01*
X139503095Y-113893571D01*
X138703095Y-114274523D02*
X139503095Y-114274523D01*
X139503095Y-114465000D01*
X139465000Y-114579285D01*
X139388809Y-114655476D01*
X139312619Y-114693571D01*
X139160238Y-114731666D01*
X139045952Y-114731666D01*
X138893571Y-114693571D01*
X138817380Y-114655476D01*
X138741190Y-114579285D01*
X138703095Y-114465000D01*
X138703095Y-114274523D01*
X142043095Y-112598333D02*
X141243095Y-112865000D01*
X142043095Y-113131666D01*
X141319285Y-113855476D02*
X141281190Y-113817380D01*
X141243095Y-113703095D01*
X141243095Y-113626904D01*
X141281190Y-113512619D01*
X141357380Y-113436428D01*
X141433571Y-113398333D01*
X141585952Y-113360238D01*
X141700238Y-113360238D01*
X141852619Y-113398333D01*
X141928809Y-113436428D01*
X142005000Y-113512619D01*
X142043095Y-113626904D01*
X142043095Y-113703095D01*
X142005000Y-113817380D01*
X141966904Y-113855476D01*
X141319285Y-114655476D02*
X141281190Y-114617380D01*
X141243095Y-114503095D01*
X141243095Y-114426904D01*
X141281190Y-114312619D01*
X141357380Y-114236428D01*
X141433571Y-114198333D01*
X141585952Y-114160238D01*
X141700238Y-114160238D01*
X141852619Y-114198333D01*
X141928809Y-114236428D01*
X142005000Y-114312619D01*
X142043095Y-114426904D01*
X142043095Y-114503095D01*
X142005000Y-114617380D01*
X141966904Y-114655476D01*
X122817380Y-127896428D02*
X122817380Y-128467857D01*
X122817380Y-128182142D02*
X121817380Y-128182142D01*
X121960238Y-128277380D01*
X122055476Y-128372619D01*
X122103095Y-128467857D01*
X121817380Y-127039285D02*
X121817380Y-127229761D01*
X121865000Y-127325000D01*
X121912619Y-127372619D01*
X122055476Y-127467857D01*
X122245952Y-127515476D01*
X122626904Y-127515476D01*
X122722142Y-127467857D01*
X122769761Y-127420238D01*
X122817380Y-127325000D01*
X122817380Y-127134523D01*
X122769761Y-127039285D01*
X122722142Y-126991666D01*
X122626904Y-126944047D01*
X122388809Y-126944047D01*
X122293571Y-126991666D01*
X122245952Y-127039285D01*
X122198333Y-127134523D01*
X122198333Y-127325000D01*
X122245952Y-127420238D01*
X122293571Y-127467857D01*
X122388809Y-127515476D01*
X121817380Y-126325000D02*
X121817380Y-126229761D01*
X121865000Y-126134523D01*
X121912619Y-126086904D01*
X122007857Y-126039285D01*
X122198333Y-125991666D01*
X122436428Y-125991666D01*
X122626904Y-126039285D01*
X122722142Y-126086904D01*
X122769761Y-126134523D01*
X122817380Y-126229761D01*
X122817380Y-126325000D01*
X122769761Y-126420238D01*
X122722142Y-126467857D01*
X122626904Y-126515476D01*
X122436428Y-126563095D01*
X122198333Y-126563095D01*
X122007857Y-126515476D01*
X121912619Y-126467857D01*
X121865000Y-126420238D01*
X121817380Y-126325000D01*
X122817380Y-125658333D02*
X122150714Y-125134523D01*
X122150714Y-125658333D02*
X122817380Y-125134523D01*
X122817380Y-124229761D02*
X122817380Y-124801190D01*
X122817380Y-124515476D02*
X121817380Y-124515476D01*
X121960238Y-124610714D01*
X122055476Y-124705952D01*
X122103095Y-124801190D01*
X121912619Y-123848809D02*
X121865000Y-123801190D01*
X121817380Y-123705952D01*
X121817380Y-123467857D01*
X121865000Y-123372619D01*
X121912619Y-123325000D01*
X122007857Y-123277380D01*
X122103095Y-123277380D01*
X122245952Y-123325000D01*
X122817380Y-123896428D01*
X122817380Y-123277380D01*
X122245952Y-122705952D02*
X122198333Y-122801190D01*
X122150714Y-122848809D01*
X122055476Y-122896428D01*
X122007857Y-122896428D01*
X121912619Y-122848809D01*
X121865000Y-122801190D01*
X121817380Y-122705952D01*
X121817380Y-122515476D01*
X121865000Y-122420238D01*
X121912619Y-122372619D01*
X122007857Y-122325000D01*
X122055476Y-122325000D01*
X122150714Y-122372619D01*
X122198333Y-122420238D01*
X122245952Y-122515476D01*
X122245952Y-122705952D01*
X122293571Y-122801190D01*
X122341190Y-122848809D01*
X122436428Y-122896428D01*
X122626904Y-122896428D01*
X122722142Y-122848809D01*
X122769761Y-122801190D01*
X122817380Y-122705952D01*
X122817380Y-122515476D01*
X122769761Y-122420238D01*
X122722142Y-122372619D01*
X122626904Y-122325000D01*
X122436428Y-122325000D01*
X122341190Y-122372619D01*
X122293571Y-122420238D01*
X122245952Y-122515476D01*
X121817380Y-121277380D02*
X121817380Y-120705952D01*
X122817380Y-120991666D02*
X121817380Y-120991666D01*
X122293571Y-120039285D02*
X122293571Y-120372619D01*
X122817380Y-120372619D02*
X121817380Y-120372619D01*
X121817380Y-119896428D01*
X121817380Y-119658333D02*
X121817380Y-119086904D01*
X122817380Y-119372619D02*
X121817380Y-119372619D01*
X123943571Y-126539285D02*
X123991190Y-126396428D01*
X124038809Y-126348809D01*
X124134047Y-126301190D01*
X124276904Y-126301190D01*
X124372142Y-126348809D01*
X124419761Y-126396428D01*
X124467380Y-126491666D01*
X124467380Y-126872619D01*
X123467380Y-126872619D01*
X123467380Y-126539285D01*
X123515000Y-126444047D01*
X123562619Y-126396428D01*
X123657857Y-126348809D01*
X123753095Y-126348809D01*
X123848333Y-126396428D01*
X123895952Y-126444047D01*
X123943571Y-126539285D01*
X123943571Y-126872619D01*
X124467380Y-125872619D02*
X123800714Y-125872619D01*
X123991190Y-125872619D02*
X123895952Y-125825000D01*
X123848333Y-125777380D01*
X123800714Y-125682142D01*
X123800714Y-125586904D01*
X124419761Y-124872619D02*
X124467380Y-124967857D01*
X124467380Y-125158333D01*
X124419761Y-125253571D01*
X124324523Y-125301190D01*
X123943571Y-125301190D01*
X123848333Y-125253571D01*
X123800714Y-125158333D01*
X123800714Y-124967857D01*
X123848333Y-124872619D01*
X123943571Y-124825000D01*
X124038809Y-124825000D01*
X124134047Y-125301190D01*
X124467380Y-123967857D02*
X123943571Y-123967857D01*
X123848333Y-124015476D01*
X123800714Y-124110714D01*
X123800714Y-124301190D01*
X123848333Y-124396428D01*
X124419761Y-123967857D02*
X124467380Y-124063095D01*
X124467380Y-124301190D01*
X124419761Y-124396428D01*
X124324523Y-124444047D01*
X124229285Y-124444047D01*
X124134047Y-124396428D01*
X124086428Y-124301190D01*
X124086428Y-124063095D01*
X124038809Y-123967857D01*
X124467380Y-123491666D02*
X123467380Y-123491666D01*
X124086428Y-123396428D02*
X124467380Y-123110714D01*
X123800714Y-123110714D02*
X124181666Y-123491666D01*
X124467380Y-122539285D02*
X124419761Y-122634523D01*
X124372142Y-122682142D01*
X124276904Y-122729761D01*
X123991190Y-122729761D01*
X123895952Y-122682142D01*
X123848333Y-122634523D01*
X123800714Y-122539285D01*
X123800714Y-122396428D01*
X123848333Y-122301190D01*
X123895952Y-122253571D01*
X123991190Y-122205952D01*
X124276904Y-122205952D01*
X124372142Y-122253571D01*
X124419761Y-122301190D01*
X124467380Y-122396428D01*
X124467380Y-122539285D01*
X123800714Y-121348809D02*
X124467380Y-121348809D01*
X123800714Y-121777380D02*
X124324523Y-121777380D01*
X124419761Y-121729761D01*
X124467380Y-121634523D01*
X124467380Y-121491666D01*
X124419761Y-121396428D01*
X124372142Y-121348809D01*
X123800714Y-121015476D02*
X123800714Y-120634523D01*
X123467380Y-120872619D02*
X124324523Y-120872619D01*
X124419761Y-120825000D01*
X124467380Y-120729761D01*
X124467380Y-120634523D01*
X128429285Y-117102380D02*
X127857857Y-117102380D01*
X128143571Y-117102380D02*
X128143571Y-116102380D01*
X128048333Y-116245238D01*
X127953095Y-116340476D01*
X127857857Y-116388095D01*
X128810238Y-116197619D02*
X128857857Y-116150000D01*
X128953095Y-116102380D01*
X129191190Y-116102380D01*
X129286428Y-116150000D01*
X129334047Y-116197619D01*
X129381666Y-116292857D01*
X129381666Y-116388095D01*
X129334047Y-116530952D01*
X128762619Y-117102380D01*
X129381666Y-117102380D01*
X129953095Y-116530952D02*
X129857857Y-116483333D01*
X129810238Y-116435714D01*
X129762619Y-116340476D01*
X129762619Y-116292857D01*
X129810238Y-116197619D01*
X129857857Y-116150000D01*
X129953095Y-116102380D01*
X130143571Y-116102380D01*
X130238809Y-116150000D01*
X130286428Y-116197619D01*
X130334047Y-116292857D01*
X130334047Y-116340476D01*
X130286428Y-116435714D01*
X130238809Y-116483333D01*
X130143571Y-116530952D01*
X129953095Y-116530952D01*
X129857857Y-116578571D01*
X129810238Y-116626190D01*
X129762619Y-116721428D01*
X129762619Y-116911904D01*
X129810238Y-117007142D01*
X129857857Y-117054761D01*
X129953095Y-117102380D01*
X130143571Y-117102380D01*
X130238809Y-117054761D01*
X130286428Y-117007142D01*
X130334047Y-116911904D01*
X130334047Y-116721428D01*
X130286428Y-116626190D01*
X130238809Y-116578571D01*
X130143571Y-116530952D01*
X130667380Y-117102380D02*
X131191190Y-116435714D01*
X130667380Y-116435714D02*
X131191190Y-117102380D01*
X132000714Y-116102380D02*
X131810238Y-116102380D01*
X131715000Y-116150000D01*
X131667380Y-116197619D01*
X131572142Y-116340476D01*
X131524523Y-116530952D01*
X131524523Y-116911904D01*
X131572142Y-117007142D01*
X131619761Y-117054761D01*
X131715000Y-117102380D01*
X131905476Y-117102380D01*
X132000714Y-117054761D01*
X132048333Y-117007142D01*
X132095952Y-116911904D01*
X132095952Y-116673809D01*
X132048333Y-116578571D01*
X132000714Y-116530952D01*
X131905476Y-116483333D01*
X131715000Y-116483333D01*
X131619761Y-116530952D01*
X131572142Y-116578571D01*
X131524523Y-116673809D01*
X132953095Y-116435714D02*
X132953095Y-117102380D01*
X132715000Y-116054761D02*
X132476904Y-116769047D01*
X133095952Y-116769047D01*
X134429285Y-116102380D02*
X134619761Y-116102380D01*
X134715000Y-116150000D01*
X134810238Y-116245238D01*
X134857857Y-116435714D01*
X134857857Y-116769047D01*
X134810238Y-116959523D01*
X134715000Y-117054761D01*
X134619761Y-117102380D01*
X134429285Y-117102380D01*
X134334047Y-117054761D01*
X134238809Y-116959523D01*
X134191190Y-116769047D01*
X134191190Y-116435714D01*
X134238809Y-116245238D01*
X134334047Y-116150000D01*
X134429285Y-116102380D01*
X135762619Y-117102380D02*
X135286428Y-117102380D01*
X135286428Y-116102380D01*
X136095952Y-116578571D02*
X136429285Y-116578571D01*
X136572142Y-117102380D02*
X136095952Y-117102380D01*
X136095952Y-116102380D01*
X136572142Y-116102380D01*
X137000714Y-117102380D02*
X137000714Y-116102380D01*
X137238809Y-116102380D01*
X137381666Y-116150000D01*
X137476904Y-116245238D01*
X137524523Y-116340476D01*
X137572142Y-116530952D01*
X137572142Y-116673809D01*
X137524523Y-116864285D01*
X137476904Y-116959523D01*
X137381666Y-117054761D01*
X137238809Y-117102380D01*
X137000714Y-117102380D01*
X131095952Y-117752380D02*
X131191190Y-117752380D01*
X131286428Y-117800000D01*
X131334047Y-117847619D01*
X131381666Y-117942857D01*
X131429285Y-118133333D01*
X131429285Y-118371428D01*
X131381666Y-118561904D01*
X131334047Y-118657142D01*
X131286428Y-118704761D01*
X131191190Y-118752380D01*
X131095952Y-118752380D01*
X131000714Y-118704761D01*
X130953095Y-118657142D01*
X130905476Y-118561904D01*
X130857857Y-118371428D01*
X130857857Y-118133333D01*
X130905476Y-117942857D01*
X130953095Y-117847619D01*
X131000714Y-117800000D01*
X131095952Y-117752380D01*
X131857857Y-118657142D02*
X131905476Y-118704761D01*
X131857857Y-118752380D01*
X131810238Y-118704761D01*
X131857857Y-118657142D01*
X131857857Y-118752380D01*
X132381666Y-118752380D02*
X132572142Y-118752380D01*
X132667380Y-118704761D01*
X132715000Y-118657142D01*
X132810238Y-118514285D01*
X132857857Y-118323809D01*
X132857857Y-117942857D01*
X132810238Y-117847619D01*
X132762619Y-117800000D01*
X132667380Y-117752380D01*
X132476904Y-117752380D01*
X132381666Y-117800000D01*
X132334047Y-117847619D01*
X132286428Y-117942857D01*
X132286428Y-118180952D01*
X132334047Y-118276190D01*
X132381666Y-118323809D01*
X132476904Y-118371428D01*
X132667380Y-118371428D01*
X132762619Y-118323809D01*
X132810238Y-118276190D01*
X132857857Y-118180952D01*
X133715000Y-117752380D02*
X133524523Y-117752380D01*
X133429285Y-117800000D01*
X133381666Y-117847619D01*
X133286428Y-117990476D01*
X133238809Y-118180952D01*
X133238809Y-118561904D01*
X133286428Y-118657142D01*
X133334047Y-118704761D01*
X133429285Y-118752380D01*
X133619761Y-118752380D01*
X133715000Y-118704761D01*
X133762619Y-118657142D01*
X133810238Y-118561904D01*
X133810238Y-118323809D01*
X133762619Y-118228571D01*
X133715000Y-118180952D01*
X133619761Y-118133333D01*
X133429285Y-118133333D01*
X133334047Y-118180952D01*
X133286428Y-118228571D01*
X133238809Y-118323809D01*
X134524523Y-117800000D02*
X134524523Y-117752380D01*
X134572142Y-117657142D01*
X134619761Y-117609523D01*
X134143571Y-117800000D02*
X134143571Y-117752380D01*
X134191190Y-117657142D01*
X134238809Y-117609523D01*
D11*
X140857857Y-93237142D02*
X140857857Y-92737142D01*
X141643571Y-92522857D02*
X141643571Y-93237142D01*
X140143571Y-93237142D01*
X140143571Y-92522857D01*
X140643571Y-91237142D02*
X141643571Y-91237142D01*
X140643571Y-91880000D02*
X141429285Y-91880000D01*
X141572142Y-91808571D01*
X141643571Y-91665714D01*
X141643571Y-91451428D01*
X141572142Y-91308571D01*
X141500714Y-91237142D01*
X141643571Y-90522857D02*
X140643571Y-90522857D01*
X140929285Y-90522857D02*
X140786428Y-90451428D01*
X140715000Y-90380000D01*
X140643571Y-90237142D01*
X140643571Y-90094285D01*
X141643571Y-89380000D02*
X141572142Y-89522857D01*
X141500714Y-89594285D01*
X141357857Y-89665714D01*
X140929285Y-89665714D01*
X140786428Y-89594285D01*
X140715000Y-89522857D01*
X140643571Y-89380000D01*
X140643571Y-89165714D01*
X140715000Y-89022857D01*
X140786428Y-88951428D01*
X140929285Y-88880000D01*
X141357857Y-88880000D01*
X141500714Y-88951428D01*
X141572142Y-89022857D01*
X141643571Y-89165714D01*
X141643571Y-89380000D01*
X141572142Y-88308571D02*
X141643571Y-88094285D01*
X141643571Y-87737142D01*
X141572142Y-87594285D01*
X141500714Y-87522857D01*
X141357857Y-87451428D01*
X141215000Y-87451428D01*
X141072142Y-87522857D01*
X141000714Y-87594285D01*
X140929285Y-87737142D01*
X140857857Y-88022857D01*
X140786428Y-88165714D01*
X140715000Y-88237142D01*
X140572142Y-88308571D01*
X140429285Y-88308571D01*
X140286428Y-88237142D01*
X140215000Y-88165714D01*
X140143571Y-88022857D01*
X140143571Y-87665714D01*
X140215000Y-87451428D01*
X141643571Y-86808571D02*
X140143571Y-86808571D01*
X141643571Y-86165714D02*
X140857857Y-86165714D01*
X140715000Y-86237142D01*
X140643571Y-86380000D01*
X140643571Y-86594285D01*
X140715000Y-86737142D01*
X140786428Y-86808571D01*
X141643571Y-85451428D02*
X140643571Y-85451428D01*
X140143571Y-85451428D02*
X140215000Y-85522857D01*
X140286428Y-85451428D01*
X140215000Y-85380000D01*
X140143571Y-85451428D01*
X140286428Y-85451428D01*
X141572142Y-84165714D02*
X141643571Y-84308571D01*
X141643571Y-84594285D01*
X141572142Y-84737142D01*
X141429285Y-84808571D01*
X140857857Y-84808571D01*
X140715000Y-84737142D01*
X140643571Y-84594285D01*
X140643571Y-84308571D01*
X140715000Y-84165714D01*
X140857857Y-84094285D01*
X141000714Y-84094285D01*
X141143571Y-84808571D01*
X141643571Y-83237142D02*
X141572142Y-83380000D01*
X141429285Y-83451428D01*
X140143571Y-83451428D01*
X141643571Y-82022857D02*
X140143571Y-82022857D01*
X141572142Y-82022857D02*
X141643571Y-82165714D01*
X141643571Y-82451428D01*
X141572142Y-82594285D01*
X141500714Y-82665714D01*
X141357857Y-82737142D01*
X140929285Y-82737142D01*
X140786428Y-82665714D01*
X140715000Y-82594285D01*
X140643571Y-82451428D01*
X140643571Y-82165714D01*
X140715000Y-82022857D01*
X144193571Y-95237142D02*
X142693571Y-95237142D01*
X142693571Y-94880000D01*
X142765000Y-94665714D01*
X142907857Y-94522857D01*
X143050714Y-94451428D01*
X143336428Y-94380000D01*
X143550714Y-94380000D01*
X143836428Y-94451428D01*
X143979285Y-94522857D01*
X144122142Y-94665714D01*
X144193571Y-94880000D01*
X144193571Y-95237142D01*
X144193571Y-93737142D02*
X143193571Y-93737142D01*
X142693571Y-93737142D02*
X142765000Y-93808571D01*
X142836428Y-93737142D01*
X142765000Y-93665714D01*
X142693571Y-93737142D01*
X142836428Y-93737142D01*
X144122142Y-93094285D02*
X144193571Y-92951428D01*
X144193571Y-92665714D01*
X144122142Y-92522857D01*
X143979285Y-92451428D01*
X143907857Y-92451428D01*
X143765000Y-92522857D01*
X143693571Y-92665714D01*
X143693571Y-92880000D01*
X143622142Y-93022857D01*
X143479285Y-93094285D01*
X143407857Y-93094285D01*
X143265000Y-93022857D01*
X143193571Y-92880000D01*
X143193571Y-92665714D01*
X143265000Y-92522857D01*
X143193571Y-91808571D02*
X144693571Y-91808571D01*
X143265000Y-91808571D02*
X143193571Y-91665714D01*
X143193571Y-91380000D01*
X143265000Y-91237142D01*
X143336428Y-91165714D01*
X143479285Y-91094285D01*
X143907857Y-91094285D01*
X144050714Y-91165714D01*
X144122142Y-91237142D01*
X144193571Y-91380000D01*
X144193571Y-91665714D01*
X144122142Y-91808571D01*
X144193571Y-90237142D02*
X144122142Y-90380000D01*
X143979285Y-90451428D01*
X142693571Y-90451428D01*
X144193571Y-89022857D02*
X143407857Y-89022857D01*
X143265000Y-89094285D01*
X143193571Y-89237142D01*
X143193571Y-89522857D01*
X143265000Y-89665714D01*
X144122142Y-89022857D02*
X144193571Y-89165714D01*
X144193571Y-89522857D01*
X144122142Y-89665714D01*
X143979285Y-89737142D01*
X143836428Y-89737142D01*
X143693571Y-89665714D01*
X143622142Y-89522857D01*
X143622142Y-89165714D01*
X143550714Y-89022857D01*
X143193571Y-88451428D02*
X144193571Y-88094285D01*
X143193571Y-87737142D02*
X144193571Y-88094285D01*
X144550714Y-88237142D01*
X144622142Y-88308571D01*
X144693571Y-88451428D01*
X143407857Y-85522857D02*
X143479285Y-85308571D01*
X143550714Y-85237142D01*
X143693571Y-85165714D01*
X143907857Y-85165714D01*
X144050714Y-85237142D01*
X144122142Y-85308571D01*
X144193571Y-85451428D01*
X144193571Y-86022857D01*
X142693571Y-86022857D01*
X142693571Y-85522857D01*
X142765000Y-85380000D01*
X142836428Y-85308571D01*
X142979285Y-85237142D01*
X143122142Y-85237142D01*
X143265000Y-85308571D01*
X143336428Y-85380000D01*
X143407857Y-85522857D01*
X143407857Y-86022857D01*
X143193571Y-83880000D02*
X144193571Y-83880000D01*
X143193571Y-84522857D02*
X143979285Y-84522857D01*
X144122142Y-84451428D01*
X144193571Y-84308571D01*
X144193571Y-84094285D01*
X144122142Y-83951428D01*
X144050714Y-83880000D01*
X144193571Y-82522857D02*
X142693571Y-82522857D01*
X144122142Y-82522857D02*
X144193571Y-82665714D01*
X144193571Y-82951428D01*
X144122142Y-83094285D01*
X144050714Y-83165714D01*
X143907857Y-83237142D01*
X143479285Y-83237142D01*
X143336428Y-83165714D01*
X143265000Y-83094285D01*
X143193571Y-82951428D01*
X143193571Y-82665714D01*
X143265000Y-82522857D01*
X144193571Y-81165714D02*
X142693571Y-81165714D01*
X144122142Y-81165714D02*
X144193571Y-81308571D01*
X144193571Y-81594285D01*
X144122142Y-81737142D01*
X144050714Y-81808571D01*
X143907857Y-81880000D01*
X143479285Y-81880000D01*
X143336428Y-81808571D01*
X143265000Y-81737142D01*
X143193571Y-81594285D01*
X143193571Y-81308571D01*
X143265000Y-81165714D01*
X143193571Y-80594285D02*
X144193571Y-80237142D01*
X143193571Y-79880000D02*
X144193571Y-80237142D01*
X144550714Y-80380000D01*
X144622142Y-80451428D01*
X144693571Y-80594285D01*
D12*
X139740000Y-99921785D02*
X139811428Y-99885500D01*
X139954285Y-99849214D01*
X140311428Y-99849214D01*
X140454285Y-99885500D01*
X140525714Y-99921785D01*
X140597142Y-99994357D01*
X140597142Y-100066928D01*
X140525714Y-100175785D01*
X139668571Y-100611214D01*
X140597142Y-100611214D01*
X141454285Y-100611214D02*
X141311428Y-100574928D01*
X141240000Y-100538642D01*
X141168571Y-100466071D01*
X141168571Y-100248357D01*
X141240000Y-100175785D01*
X141311428Y-100139500D01*
X141454285Y-100103214D01*
X141668571Y-100103214D01*
X141811428Y-100139500D01*
X141882857Y-100175785D01*
X141954285Y-100248357D01*
X141954285Y-100466071D01*
X141882857Y-100538642D01*
X141811428Y-100574928D01*
X141668571Y-100611214D01*
X141454285Y-100611214D01*
X142525714Y-99921785D02*
X142597142Y-99885500D01*
X142740000Y-99849214D01*
X143097142Y-99849214D01*
X143240000Y-99885500D01*
X143311428Y-99921785D01*
X143382857Y-99994357D01*
X143382857Y-100066928D01*
X143311428Y-100175785D01*
X142454285Y-100611214D01*
X143382857Y-100611214D01*
X144240000Y-100611214D02*
X144097142Y-100574928D01*
X144025714Y-100538642D01*
X143954285Y-100466071D01*
X143954285Y-100248357D01*
X144025714Y-100175785D01*
X144097142Y-100139500D01*
X144240000Y-100103214D01*
X144454285Y-100103214D01*
X144597142Y-100139500D01*
X144668571Y-100175785D01*
X144740000Y-100248357D01*
X144740000Y-100466071D01*
X144668571Y-100538642D01*
X144597142Y-100574928D01*
X144454285Y-100611214D01*
X144240000Y-100611214D01*
X139168571Y-101944714D02*
X139025714Y-101908428D01*
X138954285Y-101835857D01*
X138954285Y-101182714D01*
X140382857Y-101944714D02*
X140382857Y-101545571D01*
X140311428Y-101473000D01*
X140168571Y-101436714D01*
X139882857Y-101436714D01*
X139740000Y-101473000D01*
X140382857Y-101908428D02*
X140240000Y-101944714D01*
X139882857Y-101944714D01*
X139740000Y-101908428D01*
X139668571Y-101835857D01*
X139668571Y-101763285D01*
X139740000Y-101690714D01*
X139882857Y-101654428D01*
X140240000Y-101654428D01*
X140382857Y-101618142D01*
X141311428Y-101944714D02*
X141168571Y-101908428D01*
X141097142Y-101835857D01*
X141097142Y-101182714D01*
X142097142Y-101944714D02*
X141954285Y-101908428D01*
X141882857Y-101835857D01*
X141882857Y-101182714D01*
X143311428Y-101944714D02*
X143311428Y-101545571D01*
X143240000Y-101473000D01*
X143097142Y-101436714D01*
X142811428Y-101436714D01*
X142668571Y-101473000D01*
X143311428Y-101908428D02*
X143168571Y-101944714D01*
X142811428Y-101944714D01*
X142668571Y-101908428D01*
X142597142Y-101835857D01*
X142597142Y-101763285D01*
X142668571Y-101690714D01*
X142811428Y-101654428D01*
X143168571Y-101654428D01*
X143311428Y-101618142D01*
X143811428Y-101436714D02*
X144382857Y-101436714D01*
X144025714Y-101944714D02*
X144025714Y-101291571D01*
X144097142Y-101219000D01*
X144240000Y-101182714D01*
X144382857Y-101182714D01*
X145525714Y-101944714D02*
X145525714Y-101545571D01*
X145454285Y-101473000D01*
X145311428Y-101436714D01*
X145025714Y-101436714D01*
X144882857Y-101473000D01*
X145525714Y-101908428D02*
X145382857Y-101944714D01*
X145025714Y-101944714D01*
X144882857Y-101908428D01*
X144811428Y-101835857D01*
X144811428Y-101763285D01*
X144882857Y-101690714D01*
X145025714Y-101654428D01*
X145382857Y-101654428D01*
X145525714Y-101618142D01*
X139132857Y-103278214D02*
X138632857Y-102915357D01*
X138275714Y-103278214D02*
X138275714Y-102516214D01*
X138847142Y-102516214D01*
X138990000Y-102552500D01*
X139061428Y-102588785D01*
X139132857Y-102661357D01*
X139132857Y-102770214D01*
X139061428Y-102842785D01*
X138990000Y-102879071D01*
X138847142Y-102915357D01*
X138275714Y-102915357D01*
X140347142Y-103241928D02*
X140204285Y-103278214D01*
X139918571Y-103278214D01*
X139775714Y-103241928D01*
X139704285Y-103169357D01*
X139704285Y-102879071D01*
X139775714Y-102806500D01*
X139918571Y-102770214D01*
X140204285Y-102770214D01*
X140347142Y-102806500D01*
X140418571Y-102879071D01*
X140418571Y-102951642D01*
X139704285Y-103024214D01*
X140918571Y-102770214D02*
X141275714Y-103278214D01*
X141632857Y-102770214D01*
X144132857Y-103278214D02*
X143275714Y-103278214D01*
X143704285Y-103278214D02*
X143704285Y-102516214D01*
X143561428Y-102625071D01*
X143418571Y-102697642D01*
X143275714Y-102733928D01*
X144775714Y-103205642D02*
X144847142Y-103241928D01*
X144775714Y-103278214D01*
X144704285Y-103241928D01*
X144775714Y-103205642D01*
X144775714Y-103278214D01*
X145775714Y-102516214D02*
X145918571Y-102516214D01*
X146061428Y-102552500D01*
X146132857Y-102588785D01*
X146204285Y-102661357D01*
X146275714Y-102806500D01*
X146275714Y-102987928D01*
X146204285Y-103133071D01*
X146132857Y-103205642D01*
X146061428Y-103241928D01*
X145918571Y-103278214D01*
X145775714Y-103278214D01*
X145632857Y-103241928D01*
X145561428Y-103205642D01*
X145490000Y-103133071D01*
X145418571Y-102987928D01*
X145418571Y-102806500D01*
X145490000Y-102661357D01*
X145561428Y-102588785D01*
X145632857Y-102552500D01*
X145775714Y-102516214D01*
D10*
X138359047Y-74382380D02*
X138930476Y-74382380D01*
X138644761Y-75382380D02*
X138644761Y-74382380D01*
X139644761Y-75334761D02*
X139549523Y-75382380D01*
X139359047Y-75382380D01*
X139263809Y-75334761D01*
X139216190Y-75239523D01*
X139216190Y-74858571D01*
X139263809Y-74763333D01*
X139359047Y-74715714D01*
X139549523Y-74715714D01*
X139644761Y-74763333D01*
X139692380Y-74858571D01*
X139692380Y-74953809D01*
X139216190Y-75049047D01*
X140501904Y-75334761D02*
X140406666Y-75382380D01*
X140216190Y-75382380D01*
X140120952Y-75334761D01*
X140073333Y-75239523D01*
X140073333Y-74858571D01*
X140120952Y-74763333D01*
X140216190Y-74715714D01*
X140406666Y-74715714D01*
X140501904Y-74763333D01*
X140549523Y-74858571D01*
X140549523Y-74953809D01*
X140073333Y-75049047D01*
X140978095Y-74715714D02*
X140978095Y-75382380D01*
X140978095Y-74810952D02*
X141025714Y-74763333D01*
X141120952Y-74715714D01*
X141263809Y-74715714D01*
X141359047Y-74763333D01*
X141406666Y-74858571D01*
X141406666Y-75382380D01*
X141835238Y-75334761D02*
X141930476Y-75382380D01*
X142120952Y-75382380D01*
X142216190Y-75334761D01*
X142263809Y-75239523D01*
X142263809Y-75191904D01*
X142216190Y-75096666D01*
X142120952Y-75049047D01*
X141978095Y-75049047D01*
X141882857Y-75001428D01*
X141835238Y-74906190D01*
X141835238Y-74858571D01*
X141882857Y-74763333D01*
X141978095Y-74715714D01*
X142120952Y-74715714D01*
X142216190Y-74763333D01*
X142597142Y-74715714D02*
X142835238Y-75382380D01*
X143073333Y-74715714D02*
X142835238Y-75382380D01*
X142740000Y-75620476D01*
X142692380Y-75668095D01*
X142597142Y-75715714D01*
X144120952Y-74382380D02*
X144740000Y-74382380D01*
X144406666Y-74763333D01*
X144549523Y-74763333D01*
X144644761Y-74810952D01*
X144692380Y-74858571D01*
X144740000Y-74953809D01*
X144740000Y-75191904D01*
X144692380Y-75287142D01*
X144644761Y-75334761D01*
X144549523Y-75382380D01*
X144263809Y-75382380D01*
X144168571Y-75334761D01*
X144120952Y-75287142D01*
X145168571Y-75287142D02*
X145216190Y-75334761D01*
X145168571Y-75382380D01*
X145120952Y-75334761D01*
X145168571Y-75287142D01*
X145168571Y-75382380D01*
X145549523Y-75382380D02*
X146073333Y-74715714D01*
X145549523Y-74715714D02*
X146073333Y-75382380D01*
D13*
X146050000Y-73660000D02*
X146050000Y-69850000D01*
X139065000Y-73660000D02*
X146050000Y-73660000D01*
X139065000Y-69850000D02*
X139065000Y-73660000D01*
X133350000Y-105410000D02*
X133350000Y-69850000D01*
X151130000Y-105410000D02*
X133350000Y-105410000D01*
X151130000Y-69850000D02*
X151130000Y-105410000D01*
X133350000Y-69850000D02*
X151130000Y-69850000D01*
X113605000Y-111065000D02*
X114935000Y-111065000D01*
X113605000Y-112395000D02*
X113605000Y-111065000D01*
X113605000Y-113665000D02*
X116265000Y-113665000D01*
X116265000Y-113665000D02*
X116265000Y-136585000D01*
X113605000Y-113665000D02*
X113605000Y-136585000D01*
X113605000Y-136585000D02*
X116265000Y-136585000D01*
X142935000Y-109160000D02*
X142935000Y-110490000D01*
X141605000Y-109160000D02*
X142935000Y-109160000D01*
X140335000Y-109160000D02*
X140335000Y-111820000D01*
X140335000Y-111820000D02*
X122495000Y-111820000D01*
X140335000Y-109160000D02*
X122495000Y-109160000D01*
X122495000Y-109160000D02*
X122495000Y-111820000D01*
D10*
X114601666Y-109517380D02*
X114601666Y-110231666D01*
X114554047Y-110374523D01*
X114458809Y-110469761D01*
X114315952Y-110517380D01*
X114220714Y-110517380D01*
X115506428Y-109850714D02*
X115506428Y-110517380D01*
X115268333Y-109469761D02*
X115030238Y-110184047D01*
X115649285Y-110184047D01*
X143387380Y-110823333D02*
X144101666Y-110823333D01*
X144244523Y-110870952D01*
X144339761Y-110966190D01*
X144387380Y-111109047D01*
X144387380Y-111204285D01*
X143387380Y-110442380D02*
X143387380Y-109823333D01*
X143768333Y-110156666D01*
X143768333Y-110013809D01*
X143815952Y-109918571D01*
X143863571Y-109870952D01*
X143958809Y-109823333D01*
X144196904Y-109823333D01*
X144292142Y-109870952D01*
X144339761Y-109918571D01*
X144387380Y-110013809D01*
X144387380Y-110299523D01*
X144339761Y-110394761D01*
X144292142Y-110442380D01*
M02*
