M48
INCH
T1C0.0157
T2C0.0394
T3C0.0866
%
G90
G05
T1
X5.075Y-4.925
T2
X4.525Y-4.425
X4.525Y-4.525
X4.525Y-4.625
X4.525Y-4.725
X4.525Y-4.825
X4.525Y-4.925
X4.525Y-5.025
X4.525Y-5.125
X4.525Y-5.225
X4.525Y-5.325
X4.875Y-4.35
X4.975Y-4.35
X5.075Y-4.35
X5.175Y-4.35
X5.275Y-4.35
X5.375Y-4.35
X5.475Y-4.35
X5.575Y-4.35
X5.9Y-2.8
X5.9Y-2.9
X5.9Y-3.0
X5.9Y-3.1
X5.9Y-3.2
X5.9Y-3.3
X5.9Y-3.4
X5.9Y-3.5
X5.9Y-3.6
X5.9Y-3.7
X5.9Y-3.8
X5.9Y-3.9
X5.9Y-4.0
X5.9Y-4.1
X5.3Y-2.8
X5.3Y-2.9
X5.3Y-3.0
X5.3Y-3.1
X5.3Y-3.2
X5.3Y-3.3
X5.3Y-3.4
X5.3Y-3.5
X5.3Y-3.6
X5.3Y-3.7
X5.3Y-3.8
X5.3Y-3.9
X5.3Y-4.0
X5.3Y-4.1
T3
X4.675Y-5.425
X5.775Y-4.325
X4.675Y-4.325
X5.775Y-5.425
T0
M30
