G04 #@! TF.GenerationSoftware,KiCad,Pcbnew,(5.1.5-0-10_14)*
G04 #@! TF.CreationDate,2020-09-26T22:56:57+02:00*
G04 #@! TF.ProjectId,es_display,65735f64-6973-4706-9c61-792e6b696361,rev?*
G04 #@! TF.SameCoordinates,Original*
G04 #@! TF.FileFunction,Copper,L1,Top*
G04 #@! TF.FilePolarity,Positive*
%FSLAX46Y46*%
G04 Gerber Fmt 4.6, Leading zero omitted, Abs format (unit mm)*
G04 Created by KiCad (PCBNEW (5.1.5-0-10_14)) date 2020-09-26 22:56:57*
%MOMM*%
%LPD*%
G04 APERTURE LIST*
%ADD10R,1.700000X1.700000*%
%ADD11O,1.700000X1.700000*%
%ADD12C,3.500000*%
%ADD13C,0.800000*%
%ADD14C,0.254000*%
G04 APERTURE END LIST*
D10*
X134620000Y-71120000D03*
D11*
X134620000Y-73660000D03*
X134620000Y-76200000D03*
X134620000Y-78740000D03*
X134620000Y-81280000D03*
X134620000Y-83820000D03*
X134620000Y-86360000D03*
X134620000Y-88900000D03*
X134620000Y-91440000D03*
X134620000Y-93980000D03*
X134620000Y-96520000D03*
X134620000Y-99060000D03*
X134620000Y-101600000D03*
X134620000Y-104140000D03*
X114935000Y-135255000D03*
X114935000Y-132715000D03*
X114935000Y-130175000D03*
X114935000Y-127635000D03*
X114935000Y-125095000D03*
X114935000Y-122555000D03*
X114935000Y-120015000D03*
X114935000Y-117475000D03*
X114935000Y-114935000D03*
D10*
X114935000Y-112395000D03*
D12*
X146685000Y-137795000D03*
X146685000Y-109855000D03*
X118745000Y-137795000D03*
X118745000Y-109855000D03*
D11*
X123825000Y-110490000D03*
X126365000Y-110490000D03*
X128905000Y-110490000D03*
X131445000Y-110490000D03*
X133985000Y-110490000D03*
X136525000Y-110490000D03*
X139065000Y-110490000D03*
D10*
X141605000Y-110490000D03*
D11*
X149860000Y-104140000D03*
X149860000Y-101600000D03*
X149860000Y-99060000D03*
X149860000Y-96520000D03*
X149860000Y-93980000D03*
X149860000Y-91440000D03*
X149860000Y-88900000D03*
X149860000Y-86360000D03*
X149860000Y-83820000D03*
X149860000Y-81280000D03*
X149860000Y-78740000D03*
X149860000Y-76200000D03*
X149860000Y-73660000D03*
X149860000Y-71120000D03*
D13*
X128905000Y-125095000D03*
D14*
X113757999Y-130739961D02*
X113757999Y-111283399D01*
X114935000Y-131916962D02*
X113757999Y-130739961D01*
X113757999Y-111283399D02*
X117545408Y-107495990D01*
X114935000Y-132715000D02*
X114935000Y-131916962D01*
X134620000Y-105342081D02*
X134620000Y-104140000D01*
X132466091Y-107495990D02*
X134620000Y-105342081D01*
X117545408Y-107495990D02*
X132466091Y-107495990D01*
X133985000Y-110490000D02*
X133985000Y-125730000D01*
X132080000Y-127635000D02*
X114935000Y-127635000D01*
X133985000Y-125730000D02*
X132080000Y-127635000D01*
X132243038Y-110490000D02*
X134148038Y-108585000D01*
X131445000Y-110490000D02*
X132243038Y-110490000D01*
X142875000Y-108585000D02*
X149860000Y-101600000D01*
X134148038Y-108585000D02*
X142875000Y-108585000D01*
X126365000Y-110490000D02*
X128905000Y-107950000D01*
X128905000Y-107950000D02*
X140970000Y-107950000D01*
X140970000Y-107950000D02*
X149860000Y-99060000D01*
G36*
X151740001Y-140310000D02*
G01*
X113055000Y-140310000D01*
X113055000Y-137560098D01*
X116360000Y-137560098D01*
X116360000Y-138029902D01*
X116451654Y-138490679D01*
X116631440Y-138924721D01*
X116892450Y-139315349D01*
X117224651Y-139647550D01*
X117615279Y-139908560D01*
X118049321Y-140088346D01*
X118510098Y-140180000D01*
X118979902Y-140180000D01*
X119440679Y-140088346D01*
X119874721Y-139908560D01*
X120265349Y-139647550D01*
X120597550Y-139315349D01*
X120858560Y-138924721D01*
X121038346Y-138490679D01*
X121130000Y-138029902D01*
X121130000Y-137560098D01*
X144300000Y-137560098D01*
X144300000Y-138029902D01*
X144391654Y-138490679D01*
X144571440Y-138924721D01*
X144832450Y-139315349D01*
X145164651Y-139647550D01*
X145555279Y-139908560D01*
X145989321Y-140088346D01*
X146450098Y-140180000D01*
X146919902Y-140180000D01*
X147380679Y-140088346D01*
X147814721Y-139908560D01*
X148205349Y-139647550D01*
X148537550Y-139315349D01*
X148798560Y-138924721D01*
X148978346Y-138490679D01*
X149070000Y-138029902D01*
X149070000Y-137560098D01*
X148978346Y-137099321D01*
X148798560Y-136665279D01*
X148537550Y-136274651D01*
X148205349Y-135942450D01*
X147814721Y-135681440D01*
X147380679Y-135501654D01*
X146919902Y-135410000D01*
X146450098Y-135410000D01*
X145989321Y-135501654D01*
X145555279Y-135681440D01*
X145164651Y-135942450D01*
X144832450Y-136274651D01*
X144571440Y-136665279D01*
X144391654Y-137099321D01*
X144300000Y-137560098D01*
X121130000Y-137560098D01*
X121038346Y-137099321D01*
X120858560Y-136665279D01*
X120597550Y-136274651D01*
X120265349Y-135942450D01*
X119874721Y-135681440D01*
X119440679Y-135501654D01*
X118979902Y-135410000D01*
X118510098Y-135410000D01*
X118049321Y-135501654D01*
X117615279Y-135681440D01*
X117224651Y-135942450D01*
X116892450Y-136274651D01*
X116631440Y-136665279D01*
X116451654Y-137099321D01*
X116360000Y-137560098D01*
X113055000Y-137560098D01*
X113055000Y-131041212D01*
X113121354Y-131165353D01*
X113157634Y-131209560D01*
X113216577Y-131281383D01*
X113245653Y-131305245D01*
X113752386Y-131811978D01*
X113619010Y-132011589D01*
X113507068Y-132281842D01*
X113450000Y-132568740D01*
X113450000Y-132861260D01*
X113507068Y-133148158D01*
X113619010Y-133418411D01*
X113781525Y-133661632D01*
X113988368Y-133868475D01*
X114162760Y-133985000D01*
X113988368Y-134101525D01*
X113781525Y-134308368D01*
X113619010Y-134551589D01*
X113507068Y-134821842D01*
X113450000Y-135108740D01*
X113450000Y-135401260D01*
X113507068Y-135688158D01*
X113619010Y-135958411D01*
X113781525Y-136201632D01*
X113988368Y-136408475D01*
X114231589Y-136570990D01*
X114501842Y-136682932D01*
X114788740Y-136740000D01*
X115081260Y-136740000D01*
X115368158Y-136682932D01*
X115638411Y-136570990D01*
X115881632Y-136408475D01*
X116088475Y-136201632D01*
X116250990Y-135958411D01*
X116362932Y-135688158D01*
X116420000Y-135401260D01*
X116420000Y-135108740D01*
X116362932Y-134821842D01*
X116250990Y-134551589D01*
X116088475Y-134308368D01*
X115881632Y-134101525D01*
X115707240Y-133985000D01*
X115881632Y-133868475D01*
X116088475Y-133661632D01*
X116250990Y-133418411D01*
X116362932Y-133148158D01*
X116420000Y-132861260D01*
X116420000Y-132568740D01*
X116362932Y-132281842D01*
X116250990Y-132011589D01*
X116088475Y-131768368D01*
X115881632Y-131561525D01*
X115707240Y-131445000D01*
X115881632Y-131328475D01*
X116088475Y-131121632D01*
X116250990Y-130878411D01*
X116362932Y-130608158D01*
X116420000Y-130321260D01*
X116420000Y-130028740D01*
X116362932Y-129741842D01*
X116250990Y-129471589D01*
X116088475Y-129228368D01*
X115881632Y-129021525D01*
X115707240Y-128905000D01*
X115881632Y-128788475D01*
X116088475Y-128581632D01*
X116211842Y-128397000D01*
X132042577Y-128397000D01*
X132080000Y-128400686D01*
X132117423Y-128397000D01*
X132117426Y-128397000D01*
X132229378Y-128385974D01*
X132373015Y-128342402D01*
X132505392Y-128271645D01*
X132621422Y-128176422D01*
X132645284Y-128147346D01*
X134497352Y-126295279D01*
X134526422Y-126271422D01*
X134579236Y-126207068D01*
X134621645Y-126155393D01*
X134692401Y-126023016D01*
X134692402Y-126023015D01*
X134735974Y-125879378D01*
X134747000Y-125767426D01*
X134747000Y-125767423D01*
X134750686Y-125730000D01*
X134747000Y-125692577D01*
X134747000Y-111766842D01*
X134931632Y-111643475D01*
X135138475Y-111436632D01*
X135255000Y-111262240D01*
X135371525Y-111436632D01*
X135578368Y-111643475D01*
X135821589Y-111805990D01*
X136091842Y-111917932D01*
X136378740Y-111975000D01*
X136671260Y-111975000D01*
X136958158Y-111917932D01*
X137228411Y-111805990D01*
X137471632Y-111643475D01*
X137678475Y-111436632D01*
X137800195Y-111254466D01*
X137869822Y-111371355D01*
X138064731Y-111587588D01*
X138298080Y-111761641D01*
X138560901Y-111886825D01*
X138708110Y-111931476D01*
X138938000Y-111810155D01*
X138938000Y-110617000D01*
X138918000Y-110617000D01*
X138918000Y-110363000D01*
X138938000Y-110363000D01*
X138938000Y-110343000D01*
X139192000Y-110343000D01*
X139192000Y-110363000D01*
X139212000Y-110363000D01*
X139212000Y-110617000D01*
X139192000Y-110617000D01*
X139192000Y-111810155D01*
X139421890Y-111931476D01*
X139569099Y-111886825D01*
X139831920Y-111761641D01*
X140065269Y-111587588D01*
X140141034Y-111503534D01*
X140165498Y-111584180D01*
X140224463Y-111694494D01*
X140303815Y-111791185D01*
X140400506Y-111870537D01*
X140510820Y-111929502D01*
X140630518Y-111965812D01*
X140755000Y-111978072D01*
X142455000Y-111978072D01*
X142579482Y-111965812D01*
X142699180Y-111929502D01*
X142809494Y-111870537D01*
X142906185Y-111791185D01*
X142985537Y-111694494D01*
X143044502Y-111584180D01*
X143080812Y-111464482D01*
X143093072Y-111340000D01*
X143093072Y-109640000D01*
X143091112Y-109620098D01*
X144300000Y-109620098D01*
X144300000Y-110089902D01*
X144391654Y-110550679D01*
X144571440Y-110984721D01*
X144832450Y-111375349D01*
X145164651Y-111707550D01*
X145555279Y-111968560D01*
X145989321Y-112148346D01*
X146450098Y-112240000D01*
X146919902Y-112240000D01*
X147380679Y-112148346D01*
X147814721Y-111968560D01*
X148205349Y-111707550D01*
X148537550Y-111375349D01*
X148798560Y-110984721D01*
X148978346Y-110550679D01*
X149070000Y-110089902D01*
X149070000Y-109620098D01*
X148978346Y-109159321D01*
X148798560Y-108725279D01*
X148537550Y-108334651D01*
X148205349Y-108002450D01*
X147814721Y-107741440D01*
X147380679Y-107561654D01*
X146919902Y-107470000D01*
X146450098Y-107470000D01*
X145989321Y-107561654D01*
X145555279Y-107741440D01*
X145164651Y-108002450D01*
X144832450Y-108334651D01*
X144571440Y-108725279D01*
X144391654Y-109159321D01*
X144300000Y-109620098D01*
X143091112Y-109620098D01*
X143080812Y-109515518D01*
X143044502Y-109395820D01*
X143013107Y-109337084D01*
X143024378Y-109335974D01*
X143168015Y-109292402D01*
X143300392Y-109221645D01*
X143416422Y-109126422D01*
X143440284Y-109097346D01*
X148375000Y-104162631D01*
X148375000Y-104286260D01*
X148432068Y-104573158D01*
X148544010Y-104843411D01*
X148706525Y-105086632D01*
X148913368Y-105293475D01*
X149156589Y-105455990D01*
X149426842Y-105567932D01*
X149713740Y-105625000D01*
X150006260Y-105625000D01*
X150293158Y-105567932D01*
X150563411Y-105455990D01*
X150806632Y-105293475D01*
X151013475Y-105086632D01*
X151175990Y-104843411D01*
X151287932Y-104573158D01*
X151345000Y-104286260D01*
X151345000Y-103993740D01*
X151287932Y-103706842D01*
X151175990Y-103436589D01*
X151013475Y-103193368D01*
X150806632Y-102986525D01*
X150632240Y-102870000D01*
X150806632Y-102753475D01*
X151013475Y-102546632D01*
X151175990Y-102303411D01*
X151287932Y-102033158D01*
X151345000Y-101746260D01*
X151345000Y-101453740D01*
X151287932Y-101166842D01*
X151175990Y-100896589D01*
X151013475Y-100653368D01*
X150806632Y-100446525D01*
X150632240Y-100330000D01*
X150806632Y-100213475D01*
X151013475Y-100006632D01*
X151175990Y-99763411D01*
X151287932Y-99493158D01*
X151345000Y-99206260D01*
X151345000Y-98913740D01*
X151287932Y-98626842D01*
X151175990Y-98356589D01*
X151013475Y-98113368D01*
X150806632Y-97906525D01*
X150632240Y-97790000D01*
X150806632Y-97673475D01*
X151013475Y-97466632D01*
X151175990Y-97223411D01*
X151287932Y-96953158D01*
X151345000Y-96666260D01*
X151345000Y-96373740D01*
X151287932Y-96086842D01*
X151175990Y-95816589D01*
X151013475Y-95573368D01*
X150806632Y-95366525D01*
X150632240Y-95250000D01*
X150806632Y-95133475D01*
X151013475Y-94926632D01*
X151175990Y-94683411D01*
X151287932Y-94413158D01*
X151345000Y-94126260D01*
X151345000Y-93833740D01*
X151287932Y-93546842D01*
X151175990Y-93276589D01*
X151013475Y-93033368D01*
X150806632Y-92826525D01*
X150632240Y-92710000D01*
X150806632Y-92593475D01*
X151013475Y-92386632D01*
X151175990Y-92143411D01*
X151287932Y-91873158D01*
X151345000Y-91586260D01*
X151345000Y-91293740D01*
X151287932Y-91006842D01*
X151175990Y-90736589D01*
X151013475Y-90493368D01*
X150806632Y-90286525D01*
X150632240Y-90170000D01*
X150806632Y-90053475D01*
X151013475Y-89846632D01*
X151175990Y-89603411D01*
X151287932Y-89333158D01*
X151345000Y-89046260D01*
X151345000Y-88753740D01*
X151287932Y-88466842D01*
X151175990Y-88196589D01*
X151013475Y-87953368D01*
X150806632Y-87746525D01*
X150632240Y-87630000D01*
X150806632Y-87513475D01*
X151013475Y-87306632D01*
X151175990Y-87063411D01*
X151287932Y-86793158D01*
X151345000Y-86506260D01*
X151345000Y-86213740D01*
X151287932Y-85926842D01*
X151175990Y-85656589D01*
X151013475Y-85413368D01*
X150806632Y-85206525D01*
X150632240Y-85090000D01*
X150806632Y-84973475D01*
X151013475Y-84766632D01*
X151175990Y-84523411D01*
X151287932Y-84253158D01*
X151345000Y-83966260D01*
X151345000Y-83673740D01*
X151287932Y-83386842D01*
X151175990Y-83116589D01*
X151013475Y-82873368D01*
X150806632Y-82666525D01*
X150632240Y-82550000D01*
X150806632Y-82433475D01*
X151013475Y-82226632D01*
X151175990Y-81983411D01*
X151287932Y-81713158D01*
X151345000Y-81426260D01*
X151345000Y-81133740D01*
X151287932Y-80846842D01*
X151175990Y-80576589D01*
X151013475Y-80333368D01*
X150806632Y-80126525D01*
X150632240Y-80010000D01*
X150806632Y-79893475D01*
X151013475Y-79686632D01*
X151175990Y-79443411D01*
X151287932Y-79173158D01*
X151345000Y-78886260D01*
X151345000Y-78593740D01*
X151287932Y-78306842D01*
X151175990Y-78036589D01*
X151013475Y-77793368D01*
X150806632Y-77586525D01*
X150632240Y-77470000D01*
X150806632Y-77353475D01*
X151013475Y-77146632D01*
X151175990Y-76903411D01*
X151287932Y-76633158D01*
X151345000Y-76346260D01*
X151345000Y-76053740D01*
X151287932Y-75766842D01*
X151175990Y-75496589D01*
X151013475Y-75253368D01*
X150806632Y-75046525D01*
X150624466Y-74924805D01*
X150741355Y-74855178D01*
X150957588Y-74660269D01*
X151131641Y-74426920D01*
X151256825Y-74164099D01*
X151301476Y-74016890D01*
X151180155Y-73787000D01*
X149987000Y-73787000D01*
X149987000Y-73807000D01*
X149733000Y-73807000D01*
X149733000Y-73787000D01*
X148539845Y-73787000D01*
X148418524Y-74016890D01*
X148463175Y-74164099D01*
X148588359Y-74426920D01*
X148762412Y-74660269D01*
X148978645Y-74855178D01*
X149095534Y-74924805D01*
X148913368Y-75046525D01*
X148706525Y-75253368D01*
X148544010Y-75496589D01*
X148432068Y-75766842D01*
X148375000Y-76053740D01*
X148375000Y-76346260D01*
X148432068Y-76633158D01*
X148544010Y-76903411D01*
X148706525Y-77146632D01*
X148913368Y-77353475D01*
X149087760Y-77470000D01*
X148913368Y-77586525D01*
X148706525Y-77793368D01*
X148544010Y-78036589D01*
X148432068Y-78306842D01*
X148375000Y-78593740D01*
X148375000Y-78886260D01*
X148432068Y-79173158D01*
X148544010Y-79443411D01*
X148706525Y-79686632D01*
X148913368Y-79893475D01*
X149087760Y-80010000D01*
X148913368Y-80126525D01*
X148706525Y-80333368D01*
X148544010Y-80576589D01*
X148432068Y-80846842D01*
X148375000Y-81133740D01*
X148375000Y-81426260D01*
X148432068Y-81713158D01*
X148544010Y-81983411D01*
X148706525Y-82226632D01*
X148913368Y-82433475D01*
X149087760Y-82550000D01*
X148913368Y-82666525D01*
X148706525Y-82873368D01*
X148544010Y-83116589D01*
X148432068Y-83386842D01*
X148375000Y-83673740D01*
X148375000Y-83966260D01*
X148432068Y-84253158D01*
X148544010Y-84523411D01*
X148706525Y-84766632D01*
X148913368Y-84973475D01*
X149087760Y-85090000D01*
X148913368Y-85206525D01*
X148706525Y-85413368D01*
X148544010Y-85656589D01*
X148432068Y-85926842D01*
X148375000Y-86213740D01*
X148375000Y-86506260D01*
X148432068Y-86793158D01*
X148544010Y-87063411D01*
X148706525Y-87306632D01*
X148913368Y-87513475D01*
X149087760Y-87630000D01*
X148913368Y-87746525D01*
X148706525Y-87953368D01*
X148544010Y-88196589D01*
X148432068Y-88466842D01*
X148375000Y-88753740D01*
X148375000Y-89046260D01*
X148432068Y-89333158D01*
X148544010Y-89603411D01*
X148706525Y-89846632D01*
X148913368Y-90053475D01*
X149087760Y-90170000D01*
X148913368Y-90286525D01*
X148706525Y-90493368D01*
X148544010Y-90736589D01*
X148432068Y-91006842D01*
X148375000Y-91293740D01*
X148375000Y-91586260D01*
X148432068Y-91873158D01*
X148544010Y-92143411D01*
X148706525Y-92386632D01*
X148913368Y-92593475D01*
X149087760Y-92710000D01*
X148913368Y-92826525D01*
X148706525Y-93033368D01*
X148544010Y-93276589D01*
X148432068Y-93546842D01*
X148375000Y-93833740D01*
X148375000Y-94126260D01*
X148432068Y-94413158D01*
X148544010Y-94683411D01*
X148706525Y-94926632D01*
X148913368Y-95133475D01*
X149087760Y-95250000D01*
X148913368Y-95366525D01*
X148706525Y-95573368D01*
X148544010Y-95816589D01*
X148432068Y-96086842D01*
X148375000Y-96373740D01*
X148375000Y-96666260D01*
X148432068Y-96953158D01*
X148544010Y-97223411D01*
X148706525Y-97466632D01*
X148913368Y-97673475D01*
X149087760Y-97790000D01*
X148913368Y-97906525D01*
X148706525Y-98113368D01*
X148544010Y-98356589D01*
X148432068Y-98626842D01*
X148375000Y-98913740D01*
X148375000Y-99206260D01*
X148418321Y-99424049D01*
X140654370Y-107188000D01*
X133851711Y-107188000D01*
X135132353Y-105907359D01*
X135161422Y-105883503D01*
X135256645Y-105767473D01*
X135327402Y-105635096D01*
X135370974Y-105491459D01*
X135378064Y-105419472D01*
X135566632Y-105293475D01*
X135773475Y-105086632D01*
X135935990Y-104843411D01*
X136047932Y-104573158D01*
X136105000Y-104286260D01*
X136105000Y-103993740D01*
X136047932Y-103706842D01*
X135935990Y-103436589D01*
X135773475Y-103193368D01*
X135566632Y-102986525D01*
X135392240Y-102870000D01*
X135566632Y-102753475D01*
X135773475Y-102546632D01*
X135935990Y-102303411D01*
X136047932Y-102033158D01*
X136105000Y-101746260D01*
X136105000Y-101453740D01*
X136047932Y-101166842D01*
X135935990Y-100896589D01*
X135773475Y-100653368D01*
X135566632Y-100446525D01*
X135392240Y-100330000D01*
X135566632Y-100213475D01*
X135773475Y-100006632D01*
X135935990Y-99763411D01*
X136047932Y-99493158D01*
X136105000Y-99206260D01*
X136105000Y-98913740D01*
X136047932Y-98626842D01*
X135935990Y-98356589D01*
X135773475Y-98113368D01*
X135566632Y-97906525D01*
X135392240Y-97790000D01*
X135566632Y-97673475D01*
X135773475Y-97466632D01*
X135935990Y-97223411D01*
X136047932Y-96953158D01*
X136105000Y-96666260D01*
X136105000Y-96373740D01*
X136047932Y-96086842D01*
X135935990Y-95816589D01*
X135773475Y-95573368D01*
X135566632Y-95366525D01*
X135392240Y-95250000D01*
X135566632Y-95133475D01*
X135773475Y-94926632D01*
X135935990Y-94683411D01*
X136047932Y-94413158D01*
X136105000Y-94126260D01*
X136105000Y-93833740D01*
X136047932Y-93546842D01*
X135935990Y-93276589D01*
X135773475Y-93033368D01*
X135566632Y-92826525D01*
X135392240Y-92710000D01*
X135566632Y-92593475D01*
X135773475Y-92386632D01*
X135935990Y-92143411D01*
X136047932Y-91873158D01*
X136105000Y-91586260D01*
X136105000Y-91293740D01*
X136047932Y-91006842D01*
X135935990Y-90736589D01*
X135773475Y-90493368D01*
X135566632Y-90286525D01*
X135392240Y-90170000D01*
X135566632Y-90053475D01*
X135773475Y-89846632D01*
X135935990Y-89603411D01*
X136047932Y-89333158D01*
X136105000Y-89046260D01*
X136105000Y-88753740D01*
X136047932Y-88466842D01*
X135935990Y-88196589D01*
X135773475Y-87953368D01*
X135566632Y-87746525D01*
X135392240Y-87630000D01*
X135566632Y-87513475D01*
X135773475Y-87306632D01*
X135935990Y-87063411D01*
X136047932Y-86793158D01*
X136105000Y-86506260D01*
X136105000Y-86213740D01*
X136047932Y-85926842D01*
X135935990Y-85656589D01*
X135773475Y-85413368D01*
X135566632Y-85206525D01*
X135392240Y-85090000D01*
X135566632Y-84973475D01*
X135773475Y-84766632D01*
X135935990Y-84523411D01*
X136047932Y-84253158D01*
X136105000Y-83966260D01*
X136105000Y-83673740D01*
X136047932Y-83386842D01*
X135935990Y-83116589D01*
X135773475Y-82873368D01*
X135566632Y-82666525D01*
X135392240Y-82550000D01*
X135566632Y-82433475D01*
X135773475Y-82226632D01*
X135935990Y-81983411D01*
X136047932Y-81713158D01*
X136105000Y-81426260D01*
X136105000Y-81133740D01*
X136047932Y-80846842D01*
X135935990Y-80576589D01*
X135773475Y-80333368D01*
X135566632Y-80126525D01*
X135392240Y-80010000D01*
X135566632Y-79893475D01*
X135773475Y-79686632D01*
X135935990Y-79443411D01*
X136047932Y-79173158D01*
X136105000Y-78886260D01*
X136105000Y-78593740D01*
X136047932Y-78306842D01*
X135935990Y-78036589D01*
X135773475Y-77793368D01*
X135566632Y-77586525D01*
X135392240Y-77470000D01*
X135566632Y-77353475D01*
X135773475Y-77146632D01*
X135935990Y-76903411D01*
X136047932Y-76633158D01*
X136105000Y-76346260D01*
X136105000Y-76053740D01*
X136047932Y-75766842D01*
X135935990Y-75496589D01*
X135773475Y-75253368D01*
X135566632Y-75046525D01*
X135392240Y-74930000D01*
X135566632Y-74813475D01*
X135773475Y-74606632D01*
X135935990Y-74363411D01*
X136047932Y-74093158D01*
X136105000Y-73806260D01*
X136105000Y-73513740D01*
X136047932Y-73226842D01*
X135935990Y-72956589D01*
X135773475Y-72713368D01*
X135641620Y-72581513D01*
X135714180Y-72559502D01*
X135824494Y-72500537D01*
X135921185Y-72421185D01*
X136000537Y-72324494D01*
X136059502Y-72214180D01*
X136095812Y-72094482D01*
X136108072Y-71970000D01*
X136105000Y-71405750D01*
X135946250Y-71247000D01*
X134747000Y-71247000D01*
X134747000Y-71267000D01*
X134493000Y-71267000D01*
X134493000Y-71247000D01*
X133293750Y-71247000D01*
X133135000Y-71405750D01*
X133131928Y-71970000D01*
X133144188Y-72094482D01*
X133180498Y-72214180D01*
X133239463Y-72324494D01*
X133318815Y-72421185D01*
X133415506Y-72500537D01*
X133525820Y-72559502D01*
X133598380Y-72581513D01*
X133466525Y-72713368D01*
X133304010Y-72956589D01*
X133192068Y-73226842D01*
X133135000Y-73513740D01*
X133135000Y-73806260D01*
X133192068Y-74093158D01*
X133304010Y-74363411D01*
X133466525Y-74606632D01*
X133673368Y-74813475D01*
X133847760Y-74930000D01*
X133673368Y-75046525D01*
X133466525Y-75253368D01*
X133304010Y-75496589D01*
X133192068Y-75766842D01*
X133135000Y-76053740D01*
X133135000Y-76346260D01*
X133192068Y-76633158D01*
X133304010Y-76903411D01*
X133466525Y-77146632D01*
X133673368Y-77353475D01*
X133847760Y-77470000D01*
X133673368Y-77586525D01*
X133466525Y-77793368D01*
X133304010Y-78036589D01*
X133192068Y-78306842D01*
X133135000Y-78593740D01*
X133135000Y-78886260D01*
X133192068Y-79173158D01*
X133304010Y-79443411D01*
X133466525Y-79686632D01*
X133673368Y-79893475D01*
X133847760Y-80010000D01*
X133673368Y-80126525D01*
X133466525Y-80333368D01*
X133304010Y-80576589D01*
X133192068Y-80846842D01*
X133135000Y-81133740D01*
X133135000Y-81426260D01*
X133192068Y-81713158D01*
X133304010Y-81983411D01*
X133466525Y-82226632D01*
X133673368Y-82433475D01*
X133847760Y-82550000D01*
X133673368Y-82666525D01*
X133466525Y-82873368D01*
X133304010Y-83116589D01*
X133192068Y-83386842D01*
X133135000Y-83673740D01*
X133135000Y-83966260D01*
X133192068Y-84253158D01*
X133304010Y-84523411D01*
X133466525Y-84766632D01*
X133673368Y-84973475D01*
X133847760Y-85090000D01*
X133673368Y-85206525D01*
X133466525Y-85413368D01*
X133304010Y-85656589D01*
X133192068Y-85926842D01*
X133135000Y-86213740D01*
X133135000Y-86506260D01*
X133192068Y-86793158D01*
X133304010Y-87063411D01*
X133466525Y-87306632D01*
X133673368Y-87513475D01*
X133847760Y-87630000D01*
X133673368Y-87746525D01*
X133466525Y-87953368D01*
X133304010Y-88196589D01*
X133192068Y-88466842D01*
X133135000Y-88753740D01*
X133135000Y-89046260D01*
X133192068Y-89333158D01*
X133304010Y-89603411D01*
X133466525Y-89846632D01*
X133673368Y-90053475D01*
X133847760Y-90170000D01*
X133673368Y-90286525D01*
X133466525Y-90493368D01*
X133304010Y-90736589D01*
X133192068Y-91006842D01*
X133135000Y-91293740D01*
X133135000Y-91586260D01*
X133192068Y-91873158D01*
X133304010Y-92143411D01*
X133466525Y-92386632D01*
X133673368Y-92593475D01*
X133847760Y-92710000D01*
X133673368Y-92826525D01*
X133466525Y-93033368D01*
X133304010Y-93276589D01*
X133192068Y-93546842D01*
X133135000Y-93833740D01*
X133135000Y-94126260D01*
X133192068Y-94413158D01*
X133304010Y-94683411D01*
X133466525Y-94926632D01*
X133673368Y-95133475D01*
X133847760Y-95250000D01*
X133673368Y-95366525D01*
X133466525Y-95573368D01*
X133304010Y-95816589D01*
X133192068Y-96086842D01*
X133135000Y-96373740D01*
X133135000Y-96666260D01*
X133192068Y-96953158D01*
X133304010Y-97223411D01*
X133466525Y-97466632D01*
X133673368Y-97673475D01*
X133847760Y-97790000D01*
X133673368Y-97906525D01*
X133466525Y-98113368D01*
X133304010Y-98356589D01*
X133192068Y-98626842D01*
X133135000Y-98913740D01*
X133135000Y-99206260D01*
X133192068Y-99493158D01*
X133304010Y-99763411D01*
X133466525Y-100006632D01*
X133673368Y-100213475D01*
X133847760Y-100330000D01*
X133673368Y-100446525D01*
X133466525Y-100653368D01*
X133304010Y-100896589D01*
X133192068Y-101166842D01*
X133135000Y-101453740D01*
X133135000Y-101746260D01*
X133192068Y-102033158D01*
X133304010Y-102303411D01*
X133466525Y-102546632D01*
X133673368Y-102753475D01*
X133847760Y-102870000D01*
X133673368Y-102986525D01*
X133466525Y-103193368D01*
X133304010Y-103436589D01*
X133192068Y-103706842D01*
X133135000Y-103993740D01*
X133135000Y-104286260D01*
X133192068Y-104573158D01*
X133304010Y-104843411D01*
X133466525Y-105086632D01*
X133632172Y-105252279D01*
X132740000Y-106144451D01*
X132740000Y-70270000D01*
X133131928Y-70270000D01*
X133135000Y-70834250D01*
X133293750Y-70993000D01*
X134493000Y-70993000D01*
X134493000Y-69793750D01*
X134747000Y-69793750D01*
X134747000Y-70993000D01*
X135946250Y-70993000D01*
X135965510Y-70973740D01*
X148375000Y-70973740D01*
X148375000Y-71266260D01*
X148432068Y-71553158D01*
X148544010Y-71823411D01*
X148706525Y-72066632D01*
X148913368Y-72273475D01*
X149095534Y-72395195D01*
X148978645Y-72464822D01*
X148762412Y-72659731D01*
X148588359Y-72893080D01*
X148463175Y-73155901D01*
X148418524Y-73303110D01*
X148539845Y-73533000D01*
X149733000Y-73533000D01*
X149733000Y-73513000D01*
X149987000Y-73513000D01*
X149987000Y-73533000D01*
X151180155Y-73533000D01*
X151301476Y-73303110D01*
X151256825Y-73155901D01*
X151131641Y-72893080D01*
X150957588Y-72659731D01*
X150741355Y-72464822D01*
X150624466Y-72395195D01*
X150806632Y-72273475D01*
X151013475Y-72066632D01*
X151175990Y-71823411D01*
X151287932Y-71553158D01*
X151345000Y-71266260D01*
X151345000Y-70973740D01*
X151287932Y-70686842D01*
X151175990Y-70416589D01*
X151013475Y-70173368D01*
X150806632Y-69966525D01*
X150563411Y-69804010D01*
X150293158Y-69692068D01*
X150006260Y-69635000D01*
X149713740Y-69635000D01*
X149426842Y-69692068D01*
X149156589Y-69804010D01*
X148913368Y-69966525D01*
X148706525Y-70173368D01*
X148544010Y-70416589D01*
X148432068Y-70686842D01*
X148375000Y-70973740D01*
X135965510Y-70973740D01*
X136105000Y-70834250D01*
X136108072Y-70270000D01*
X136095812Y-70145518D01*
X136059502Y-70025820D01*
X136000537Y-69915506D01*
X135921185Y-69818815D01*
X135824494Y-69739463D01*
X135714180Y-69680498D01*
X135594482Y-69644188D01*
X135470000Y-69631928D01*
X134905750Y-69635000D01*
X134747000Y-69793750D01*
X134493000Y-69793750D01*
X134334250Y-69635000D01*
X133770000Y-69631928D01*
X133645518Y-69644188D01*
X133525820Y-69680498D01*
X133415506Y-69739463D01*
X133318815Y-69818815D01*
X133239463Y-69915506D01*
X133180498Y-70025820D01*
X133144188Y-70145518D01*
X133131928Y-70270000D01*
X132740000Y-70270000D01*
X132740000Y-69240000D01*
X151740000Y-69240000D01*
X151740001Y-140310000D01*
G37*
X151740001Y-140310000D02*
X113055000Y-140310000D01*
X113055000Y-137560098D01*
X116360000Y-137560098D01*
X116360000Y-138029902D01*
X116451654Y-138490679D01*
X116631440Y-138924721D01*
X116892450Y-139315349D01*
X117224651Y-139647550D01*
X117615279Y-139908560D01*
X118049321Y-140088346D01*
X118510098Y-140180000D01*
X118979902Y-140180000D01*
X119440679Y-140088346D01*
X119874721Y-139908560D01*
X120265349Y-139647550D01*
X120597550Y-139315349D01*
X120858560Y-138924721D01*
X121038346Y-138490679D01*
X121130000Y-138029902D01*
X121130000Y-137560098D01*
X144300000Y-137560098D01*
X144300000Y-138029902D01*
X144391654Y-138490679D01*
X144571440Y-138924721D01*
X144832450Y-139315349D01*
X145164651Y-139647550D01*
X145555279Y-139908560D01*
X145989321Y-140088346D01*
X146450098Y-140180000D01*
X146919902Y-140180000D01*
X147380679Y-140088346D01*
X147814721Y-139908560D01*
X148205349Y-139647550D01*
X148537550Y-139315349D01*
X148798560Y-138924721D01*
X148978346Y-138490679D01*
X149070000Y-138029902D01*
X149070000Y-137560098D01*
X148978346Y-137099321D01*
X148798560Y-136665279D01*
X148537550Y-136274651D01*
X148205349Y-135942450D01*
X147814721Y-135681440D01*
X147380679Y-135501654D01*
X146919902Y-135410000D01*
X146450098Y-135410000D01*
X145989321Y-135501654D01*
X145555279Y-135681440D01*
X145164651Y-135942450D01*
X144832450Y-136274651D01*
X144571440Y-136665279D01*
X144391654Y-137099321D01*
X144300000Y-137560098D01*
X121130000Y-137560098D01*
X121038346Y-137099321D01*
X120858560Y-136665279D01*
X120597550Y-136274651D01*
X120265349Y-135942450D01*
X119874721Y-135681440D01*
X119440679Y-135501654D01*
X118979902Y-135410000D01*
X118510098Y-135410000D01*
X118049321Y-135501654D01*
X117615279Y-135681440D01*
X117224651Y-135942450D01*
X116892450Y-136274651D01*
X116631440Y-136665279D01*
X116451654Y-137099321D01*
X116360000Y-137560098D01*
X113055000Y-137560098D01*
X113055000Y-131041212D01*
X113121354Y-131165353D01*
X113157634Y-131209560D01*
X113216577Y-131281383D01*
X113245653Y-131305245D01*
X113752386Y-131811978D01*
X113619010Y-132011589D01*
X113507068Y-132281842D01*
X113450000Y-132568740D01*
X113450000Y-132861260D01*
X113507068Y-133148158D01*
X113619010Y-133418411D01*
X113781525Y-133661632D01*
X113988368Y-133868475D01*
X114162760Y-133985000D01*
X113988368Y-134101525D01*
X113781525Y-134308368D01*
X113619010Y-134551589D01*
X113507068Y-134821842D01*
X113450000Y-135108740D01*
X113450000Y-135401260D01*
X113507068Y-135688158D01*
X113619010Y-135958411D01*
X113781525Y-136201632D01*
X113988368Y-136408475D01*
X114231589Y-136570990D01*
X114501842Y-136682932D01*
X114788740Y-136740000D01*
X115081260Y-136740000D01*
X115368158Y-136682932D01*
X115638411Y-136570990D01*
X115881632Y-136408475D01*
X116088475Y-136201632D01*
X116250990Y-135958411D01*
X116362932Y-135688158D01*
X116420000Y-135401260D01*
X116420000Y-135108740D01*
X116362932Y-134821842D01*
X116250990Y-134551589D01*
X116088475Y-134308368D01*
X115881632Y-134101525D01*
X115707240Y-133985000D01*
X115881632Y-133868475D01*
X116088475Y-133661632D01*
X116250990Y-133418411D01*
X116362932Y-133148158D01*
X116420000Y-132861260D01*
X116420000Y-132568740D01*
X116362932Y-132281842D01*
X116250990Y-132011589D01*
X116088475Y-131768368D01*
X115881632Y-131561525D01*
X115707240Y-131445000D01*
X115881632Y-131328475D01*
X116088475Y-131121632D01*
X116250990Y-130878411D01*
X116362932Y-130608158D01*
X116420000Y-130321260D01*
X116420000Y-130028740D01*
X116362932Y-129741842D01*
X116250990Y-129471589D01*
X116088475Y-129228368D01*
X115881632Y-129021525D01*
X115707240Y-128905000D01*
X115881632Y-128788475D01*
X116088475Y-128581632D01*
X116211842Y-128397000D01*
X132042577Y-128397000D01*
X132080000Y-128400686D01*
X132117423Y-128397000D01*
X132117426Y-128397000D01*
X132229378Y-128385974D01*
X132373015Y-128342402D01*
X132505392Y-128271645D01*
X132621422Y-128176422D01*
X132645284Y-128147346D01*
X134497352Y-126295279D01*
X134526422Y-126271422D01*
X134579236Y-126207068D01*
X134621645Y-126155393D01*
X134692401Y-126023016D01*
X134692402Y-126023015D01*
X134735974Y-125879378D01*
X134747000Y-125767426D01*
X134747000Y-125767423D01*
X134750686Y-125730000D01*
X134747000Y-125692577D01*
X134747000Y-111766842D01*
X134931632Y-111643475D01*
X135138475Y-111436632D01*
X135255000Y-111262240D01*
X135371525Y-111436632D01*
X135578368Y-111643475D01*
X135821589Y-111805990D01*
X136091842Y-111917932D01*
X136378740Y-111975000D01*
X136671260Y-111975000D01*
X136958158Y-111917932D01*
X137228411Y-111805990D01*
X137471632Y-111643475D01*
X137678475Y-111436632D01*
X137800195Y-111254466D01*
X137869822Y-111371355D01*
X138064731Y-111587588D01*
X138298080Y-111761641D01*
X138560901Y-111886825D01*
X138708110Y-111931476D01*
X138938000Y-111810155D01*
X138938000Y-110617000D01*
X138918000Y-110617000D01*
X138918000Y-110363000D01*
X138938000Y-110363000D01*
X138938000Y-110343000D01*
X139192000Y-110343000D01*
X139192000Y-110363000D01*
X139212000Y-110363000D01*
X139212000Y-110617000D01*
X139192000Y-110617000D01*
X139192000Y-111810155D01*
X139421890Y-111931476D01*
X139569099Y-111886825D01*
X139831920Y-111761641D01*
X140065269Y-111587588D01*
X140141034Y-111503534D01*
X140165498Y-111584180D01*
X140224463Y-111694494D01*
X140303815Y-111791185D01*
X140400506Y-111870537D01*
X140510820Y-111929502D01*
X140630518Y-111965812D01*
X140755000Y-111978072D01*
X142455000Y-111978072D01*
X142579482Y-111965812D01*
X142699180Y-111929502D01*
X142809494Y-111870537D01*
X142906185Y-111791185D01*
X142985537Y-111694494D01*
X143044502Y-111584180D01*
X143080812Y-111464482D01*
X143093072Y-111340000D01*
X143093072Y-109640000D01*
X143091112Y-109620098D01*
X144300000Y-109620098D01*
X144300000Y-110089902D01*
X144391654Y-110550679D01*
X144571440Y-110984721D01*
X144832450Y-111375349D01*
X145164651Y-111707550D01*
X145555279Y-111968560D01*
X145989321Y-112148346D01*
X146450098Y-112240000D01*
X146919902Y-112240000D01*
X147380679Y-112148346D01*
X147814721Y-111968560D01*
X148205349Y-111707550D01*
X148537550Y-111375349D01*
X148798560Y-110984721D01*
X148978346Y-110550679D01*
X149070000Y-110089902D01*
X149070000Y-109620098D01*
X148978346Y-109159321D01*
X148798560Y-108725279D01*
X148537550Y-108334651D01*
X148205349Y-108002450D01*
X147814721Y-107741440D01*
X147380679Y-107561654D01*
X146919902Y-107470000D01*
X146450098Y-107470000D01*
X145989321Y-107561654D01*
X145555279Y-107741440D01*
X145164651Y-108002450D01*
X144832450Y-108334651D01*
X144571440Y-108725279D01*
X144391654Y-109159321D01*
X144300000Y-109620098D01*
X143091112Y-109620098D01*
X143080812Y-109515518D01*
X143044502Y-109395820D01*
X143013107Y-109337084D01*
X143024378Y-109335974D01*
X143168015Y-109292402D01*
X143300392Y-109221645D01*
X143416422Y-109126422D01*
X143440284Y-109097346D01*
X148375000Y-104162631D01*
X148375000Y-104286260D01*
X148432068Y-104573158D01*
X148544010Y-104843411D01*
X148706525Y-105086632D01*
X148913368Y-105293475D01*
X149156589Y-105455990D01*
X149426842Y-105567932D01*
X149713740Y-105625000D01*
X150006260Y-105625000D01*
X150293158Y-105567932D01*
X150563411Y-105455990D01*
X150806632Y-105293475D01*
X151013475Y-105086632D01*
X151175990Y-104843411D01*
X151287932Y-104573158D01*
X151345000Y-104286260D01*
X151345000Y-103993740D01*
X151287932Y-103706842D01*
X151175990Y-103436589D01*
X151013475Y-103193368D01*
X150806632Y-102986525D01*
X150632240Y-102870000D01*
X150806632Y-102753475D01*
X151013475Y-102546632D01*
X151175990Y-102303411D01*
X151287932Y-102033158D01*
X151345000Y-101746260D01*
X151345000Y-101453740D01*
X151287932Y-101166842D01*
X151175990Y-100896589D01*
X151013475Y-100653368D01*
X150806632Y-100446525D01*
X150632240Y-100330000D01*
X150806632Y-100213475D01*
X151013475Y-100006632D01*
X151175990Y-99763411D01*
X151287932Y-99493158D01*
X151345000Y-99206260D01*
X151345000Y-98913740D01*
X151287932Y-98626842D01*
X151175990Y-98356589D01*
X151013475Y-98113368D01*
X150806632Y-97906525D01*
X150632240Y-97790000D01*
X150806632Y-97673475D01*
X151013475Y-97466632D01*
X151175990Y-97223411D01*
X151287932Y-96953158D01*
X151345000Y-96666260D01*
X151345000Y-96373740D01*
X151287932Y-96086842D01*
X151175990Y-95816589D01*
X151013475Y-95573368D01*
X150806632Y-95366525D01*
X150632240Y-95250000D01*
X150806632Y-95133475D01*
X151013475Y-94926632D01*
X151175990Y-94683411D01*
X151287932Y-94413158D01*
X151345000Y-94126260D01*
X151345000Y-93833740D01*
X151287932Y-93546842D01*
X151175990Y-93276589D01*
X151013475Y-93033368D01*
X150806632Y-92826525D01*
X150632240Y-92710000D01*
X150806632Y-92593475D01*
X151013475Y-92386632D01*
X151175990Y-92143411D01*
X151287932Y-91873158D01*
X151345000Y-91586260D01*
X151345000Y-91293740D01*
X151287932Y-91006842D01*
X151175990Y-90736589D01*
X151013475Y-90493368D01*
X150806632Y-90286525D01*
X150632240Y-90170000D01*
X150806632Y-90053475D01*
X151013475Y-89846632D01*
X151175990Y-89603411D01*
X151287932Y-89333158D01*
X151345000Y-89046260D01*
X151345000Y-88753740D01*
X151287932Y-88466842D01*
X151175990Y-88196589D01*
X151013475Y-87953368D01*
X150806632Y-87746525D01*
X150632240Y-87630000D01*
X150806632Y-87513475D01*
X151013475Y-87306632D01*
X151175990Y-87063411D01*
X151287932Y-86793158D01*
X151345000Y-86506260D01*
X151345000Y-86213740D01*
X151287932Y-85926842D01*
X151175990Y-85656589D01*
X151013475Y-85413368D01*
X150806632Y-85206525D01*
X150632240Y-85090000D01*
X150806632Y-84973475D01*
X151013475Y-84766632D01*
X151175990Y-84523411D01*
X151287932Y-84253158D01*
X151345000Y-83966260D01*
X151345000Y-83673740D01*
X151287932Y-83386842D01*
X151175990Y-83116589D01*
X151013475Y-82873368D01*
X150806632Y-82666525D01*
X150632240Y-82550000D01*
X150806632Y-82433475D01*
X151013475Y-82226632D01*
X151175990Y-81983411D01*
X151287932Y-81713158D01*
X151345000Y-81426260D01*
X151345000Y-81133740D01*
X151287932Y-80846842D01*
X151175990Y-80576589D01*
X151013475Y-80333368D01*
X150806632Y-80126525D01*
X150632240Y-80010000D01*
X150806632Y-79893475D01*
X151013475Y-79686632D01*
X151175990Y-79443411D01*
X151287932Y-79173158D01*
X151345000Y-78886260D01*
X151345000Y-78593740D01*
X151287932Y-78306842D01*
X151175990Y-78036589D01*
X151013475Y-77793368D01*
X150806632Y-77586525D01*
X150632240Y-77470000D01*
X150806632Y-77353475D01*
X151013475Y-77146632D01*
X151175990Y-76903411D01*
X151287932Y-76633158D01*
X151345000Y-76346260D01*
X151345000Y-76053740D01*
X151287932Y-75766842D01*
X151175990Y-75496589D01*
X151013475Y-75253368D01*
X150806632Y-75046525D01*
X150624466Y-74924805D01*
X150741355Y-74855178D01*
X150957588Y-74660269D01*
X151131641Y-74426920D01*
X151256825Y-74164099D01*
X151301476Y-74016890D01*
X151180155Y-73787000D01*
X149987000Y-73787000D01*
X149987000Y-73807000D01*
X149733000Y-73807000D01*
X149733000Y-73787000D01*
X148539845Y-73787000D01*
X148418524Y-74016890D01*
X148463175Y-74164099D01*
X148588359Y-74426920D01*
X148762412Y-74660269D01*
X148978645Y-74855178D01*
X149095534Y-74924805D01*
X148913368Y-75046525D01*
X148706525Y-75253368D01*
X148544010Y-75496589D01*
X148432068Y-75766842D01*
X148375000Y-76053740D01*
X148375000Y-76346260D01*
X148432068Y-76633158D01*
X148544010Y-76903411D01*
X148706525Y-77146632D01*
X148913368Y-77353475D01*
X149087760Y-77470000D01*
X148913368Y-77586525D01*
X148706525Y-77793368D01*
X148544010Y-78036589D01*
X148432068Y-78306842D01*
X148375000Y-78593740D01*
X148375000Y-78886260D01*
X148432068Y-79173158D01*
X148544010Y-79443411D01*
X148706525Y-79686632D01*
X148913368Y-79893475D01*
X149087760Y-80010000D01*
X148913368Y-80126525D01*
X148706525Y-80333368D01*
X148544010Y-80576589D01*
X148432068Y-80846842D01*
X148375000Y-81133740D01*
X148375000Y-81426260D01*
X148432068Y-81713158D01*
X148544010Y-81983411D01*
X148706525Y-82226632D01*
X148913368Y-82433475D01*
X149087760Y-82550000D01*
X148913368Y-82666525D01*
X148706525Y-82873368D01*
X148544010Y-83116589D01*
X148432068Y-83386842D01*
X148375000Y-83673740D01*
X148375000Y-83966260D01*
X148432068Y-84253158D01*
X148544010Y-84523411D01*
X148706525Y-84766632D01*
X148913368Y-84973475D01*
X149087760Y-85090000D01*
X148913368Y-85206525D01*
X148706525Y-85413368D01*
X148544010Y-85656589D01*
X148432068Y-85926842D01*
X148375000Y-86213740D01*
X148375000Y-86506260D01*
X148432068Y-86793158D01*
X148544010Y-87063411D01*
X148706525Y-87306632D01*
X148913368Y-87513475D01*
X149087760Y-87630000D01*
X148913368Y-87746525D01*
X148706525Y-87953368D01*
X148544010Y-88196589D01*
X148432068Y-88466842D01*
X148375000Y-88753740D01*
X148375000Y-89046260D01*
X148432068Y-89333158D01*
X148544010Y-89603411D01*
X148706525Y-89846632D01*
X148913368Y-90053475D01*
X149087760Y-90170000D01*
X148913368Y-90286525D01*
X148706525Y-90493368D01*
X148544010Y-90736589D01*
X148432068Y-91006842D01*
X148375000Y-91293740D01*
X148375000Y-91586260D01*
X148432068Y-91873158D01*
X148544010Y-92143411D01*
X148706525Y-92386632D01*
X148913368Y-92593475D01*
X149087760Y-92710000D01*
X148913368Y-92826525D01*
X148706525Y-93033368D01*
X148544010Y-93276589D01*
X148432068Y-93546842D01*
X148375000Y-93833740D01*
X148375000Y-94126260D01*
X148432068Y-94413158D01*
X148544010Y-94683411D01*
X148706525Y-94926632D01*
X148913368Y-95133475D01*
X149087760Y-95250000D01*
X148913368Y-95366525D01*
X148706525Y-95573368D01*
X148544010Y-95816589D01*
X148432068Y-96086842D01*
X148375000Y-96373740D01*
X148375000Y-96666260D01*
X148432068Y-96953158D01*
X148544010Y-97223411D01*
X148706525Y-97466632D01*
X148913368Y-97673475D01*
X149087760Y-97790000D01*
X148913368Y-97906525D01*
X148706525Y-98113368D01*
X148544010Y-98356589D01*
X148432068Y-98626842D01*
X148375000Y-98913740D01*
X148375000Y-99206260D01*
X148418321Y-99424049D01*
X140654370Y-107188000D01*
X133851711Y-107188000D01*
X135132353Y-105907359D01*
X135161422Y-105883503D01*
X135256645Y-105767473D01*
X135327402Y-105635096D01*
X135370974Y-105491459D01*
X135378064Y-105419472D01*
X135566632Y-105293475D01*
X135773475Y-105086632D01*
X135935990Y-104843411D01*
X136047932Y-104573158D01*
X136105000Y-104286260D01*
X136105000Y-103993740D01*
X136047932Y-103706842D01*
X135935990Y-103436589D01*
X135773475Y-103193368D01*
X135566632Y-102986525D01*
X135392240Y-102870000D01*
X135566632Y-102753475D01*
X135773475Y-102546632D01*
X135935990Y-102303411D01*
X136047932Y-102033158D01*
X136105000Y-101746260D01*
X136105000Y-101453740D01*
X136047932Y-101166842D01*
X135935990Y-100896589D01*
X135773475Y-100653368D01*
X135566632Y-100446525D01*
X135392240Y-100330000D01*
X135566632Y-100213475D01*
X135773475Y-100006632D01*
X135935990Y-99763411D01*
X136047932Y-99493158D01*
X136105000Y-99206260D01*
X136105000Y-98913740D01*
X136047932Y-98626842D01*
X135935990Y-98356589D01*
X135773475Y-98113368D01*
X135566632Y-97906525D01*
X135392240Y-97790000D01*
X135566632Y-97673475D01*
X135773475Y-97466632D01*
X135935990Y-97223411D01*
X136047932Y-96953158D01*
X136105000Y-96666260D01*
X136105000Y-96373740D01*
X136047932Y-96086842D01*
X135935990Y-95816589D01*
X135773475Y-95573368D01*
X135566632Y-95366525D01*
X135392240Y-95250000D01*
X135566632Y-95133475D01*
X135773475Y-94926632D01*
X135935990Y-94683411D01*
X136047932Y-94413158D01*
X136105000Y-94126260D01*
X136105000Y-93833740D01*
X136047932Y-93546842D01*
X135935990Y-93276589D01*
X135773475Y-93033368D01*
X135566632Y-92826525D01*
X135392240Y-92710000D01*
X135566632Y-92593475D01*
X135773475Y-92386632D01*
X135935990Y-92143411D01*
X136047932Y-91873158D01*
X136105000Y-91586260D01*
X136105000Y-91293740D01*
X136047932Y-91006842D01*
X135935990Y-90736589D01*
X135773475Y-90493368D01*
X135566632Y-90286525D01*
X135392240Y-90170000D01*
X135566632Y-90053475D01*
X135773475Y-89846632D01*
X135935990Y-89603411D01*
X136047932Y-89333158D01*
X136105000Y-89046260D01*
X136105000Y-88753740D01*
X136047932Y-88466842D01*
X135935990Y-88196589D01*
X135773475Y-87953368D01*
X135566632Y-87746525D01*
X135392240Y-87630000D01*
X135566632Y-87513475D01*
X135773475Y-87306632D01*
X135935990Y-87063411D01*
X136047932Y-86793158D01*
X136105000Y-86506260D01*
X136105000Y-86213740D01*
X136047932Y-85926842D01*
X135935990Y-85656589D01*
X135773475Y-85413368D01*
X135566632Y-85206525D01*
X135392240Y-85090000D01*
X135566632Y-84973475D01*
X135773475Y-84766632D01*
X135935990Y-84523411D01*
X136047932Y-84253158D01*
X136105000Y-83966260D01*
X136105000Y-83673740D01*
X136047932Y-83386842D01*
X135935990Y-83116589D01*
X135773475Y-82873368D01*
X135566632Y-82666525D01*
X135392240Y-82550000D01*
X135566632Y-82433475D01*
X135773475Y-82226632D01*
X135935990Y-81983411D01*
X136047932Y-81713158D01*
X136105000Y-81426260D01*
X136105000Y-81133740D01*
X136047932Y-80846842D01*
X135935990Y-80576589D01*
X135773475Y-80333368D01*
X135566632Y-80126525D01*
X135392240Y-80010000D01*
X135566632Y-79893475D01*
X135773475Y-79686632D01*
X135935990Y-79443411D01*
X136047932Y-79173158D01*
X136105000Y-78886260D01*
X136105000Y-78593740D01*
X136047932Y-78306842D01*
X135935990Y-78036589D01*
X135773475Y-77793368D01*
X135566632Y-77586525D01*
X135392240Y-77470000D01*
X135566632Y-77353475D01*
X135773475Y-77146632D01*
X135935990Y-76903411D01*
X136047932Y-76633158D01*
X136105000Y-76346260D01*
X136105000Y-76053740D01*
X136047932Y-75766842D01*
X135935990Y-75496589D01*
X135773475Y-75253368D01*
X135566632Y-75046525D01*
X135392240Y-74930000D01*
X135566632Y-74813475D01*
X135773475Y-74606632D01*
X135935990Y-74363411D01*
X136047932Y-74093158D01*
X136105000Y-73806260D01*
X136105000Y-73513740D01*
X136047932Y-73226842D01*
X135935990Y-72956589D01*
X135773475Y-72713368D01*
X135641620Y-72581513D01*
X135714180Y-72559502D01*
X135824494Y-72500537D01*
X135921185Y-72421185D01*
X136000537Y-72324494D01*
X136059502Y-72214180D01*
X136095812Y-72094482D01*
X136108072Y-71970000D01*
X136105000Y-71405750D01*
X135946250Y-71247000D01*
X134747000Y-71247000D01*
X134747000Y-71267000D01*
X134493000Y-71267000D01*
X134493000Y-71247000D01*
X133293750Y-71247000D01*
X133135000Y-71405750D01*
X133131928Y-71970000D01*
X133144188Y-72094482D01*
X133180498Y-72214180D01*
X133239463Y-72324494D01*
X133318815Y-72421185D01*
X133415506Y-72500537D01*
X133525820Y-72559502D01*
X133598380Y-72581513D01*
X133466525Y-72713368D01*
X133304010Y-72956589D01*
X133192068Y-73226842D01*
X133135000Y-73513740D01*
X133135000Y-73806260D01*
X133192068Y-74093158D01*
X133304010Y-74363411D01*
X133466525Y-74606632D01*
X133673368Y-74813475D01*
X133847760Y-74930000D01*
X133673368Y-75046525D01*
X133466525Y-75253368D01*
X133304010Y-75496589D01*
X133192068Y-75766842D01*
X133135000Y-76053740D01*
X133135000Y-76346260D01*
X133192068Y-76633158D01*
X133304010Y-76903411D01*
X133466525Y-77146632D01*
X133673368Y-77353475D01*
X133847760Y-77470000D01*
X133673368Y-77586525D01*
X133466525Y-77793368D01*
X133304010Y-78036589D01*
X133192068Y-78306842D01*
X133135000Y-78593740D01*
X133135000Y-78886260D01*
X133192068Y-79173158D01*
X133304010Y-79443411D01*
X133466525Y-79686632D01*
X133673368Y-79893475D01*
X133847760Y-80010000D01*
X133673368Y-80126525D01*
X133466525Y-80333368D01*
X133304010Y-80576589D01*
X133192068Y-80846842D01*
X133135000Y-81133740D01*
X133135000Y-81426260D01*
X133192068Y-81713158D01*
X133304010Y-81983411D01*
X133466525Y-82226632D01*
X133673368Y-82433475D01*
X133847760Y-82550000D01*
X133673368Y-82666525D01*
X133466525Y-82873368D01*
X133304010Y-83116589D01*
X133192068Y-83386842D01*
X133135000Y-83673740D01*
X133135000Y-83966260D01*
X133192068Y-84253158D01*
X133304010Y-84523411D01*
X133466525Y-84766632D01*
X133673368Y-84973475D01*
X133847760Y-85090000D01*
X133673368Y-85206525D01*
X133466525Y-85413368D01*
X133304010Y-85656589D01*
X133192068Y-85926842D01*
X133135000Y-86213740D01*
X133135000Y-86506260D01*
X133192068Y-86793158D01*
X133304010Y-87063411D01*
X133466525Y-87306632D01*
X133673368Y-87513475D01*
X133847760Y-87630000D01*
X133673368Y-87746525D01*
X133466525Y-87953368D01*
X133304010Y-88196589D01*
X133192068Y-88466842D01*
X133135000Y-88753740D01*
X133135000Y-89046260D01*
X133192068Y-89333158D01*
X133304010Y-89603411D01*
X133466525Y-89846632D01*
X133673368Y-90053475D01*
X133847760Y-90170000D01*
X133673368Y-90286525D01*
X133466525Y-90493368D01*
X133304010Y-90736589D01*
X133192068Y-91006842D01*
X133135000Y-91293740D01*
X133135000Y-91586260D01*
X133192068Y-91873158D01*
X133304010Y-92143411D01*
X133466525Y-92386632D01*
X133673368Y-92593475D01*
X133847760Y-92710000D01*
X133673368Y-92826525D01*
X133466525Y-93033368D01*
X133304010Y-93276589D01*
X133192068Y-93546842D01*
X133135000Y-93833740D01*
X133135000Y-94126260D01*
X133192068Y-94413158D01*
X133304010Y-94683411D01*
X133466525Y-94926632D01*
X133673368Y-95133475D01*
X133847760Y-95250000D01*
X133673368Y-95366525D01*
X133466525Y-95573368D01*
X133304010Y-95816589D01*
X133192068Y-96086842D01*
X133135000Y-96373740D01*
X133135000Y-96666260D01*
X133192068Y-96953158D01*
X133304010Y-97223411D01*
X133466525Y-97466632D01*
X133673368Y-97673475D01*
X133847760Y-97790000D01*
X133673368Y-97906525D01*
X133466525Y-98113368D01*
X133304010Y-98356589D01*
X133192068Y-98626842D01*
X133135000Y-98913740D01*
X133135000Y-99206260D01*
X133192068Y-99493158D01*
X133304010Y-99763411D01*
X133466525Y-100006632D01*
X133673368Y-100213475D01*
X133847760Y-100330000D01*
X133673368Y-100446525D01*
X133466525Y-100653368D01*
X133304010Y-100896589D01*
X133192068Y-101166842D01*
X133135000Y-101453740D01*
X133135000Y-101746260D01*
X133192068Y-102033158D01*
X133304010Y-102303411D01*
X133466525Y-102546632D01*
X133673368Y-102753475D01*
X133847760Y-102870000D01*
X133673368Y-102986525D01*
X133466525Y-103193368D01*
X133304010Y-103436589D01*
X133192068Y-103706842D01*
X133135000Y-103993740D01*
X133135000Y-104286260D01*
X133192068Y-104573158D01*
X133304010Y-104843411D01*
X133466525Y-105086632D01*
X133632172Y-105252279D01*
X132740000Y-106144451D01*
X132740000Y-70270000D01*
X133131928Y-70270000D01*
X133135000Y-70834250D01*
X133293750Y-70993000D01*
X134493000Y-70993000D01*
X134493000Y-69793750D01*
X134747000Y-69793750D01*
X134747000Y-70993000D01*
X135946250Y-70993000D01*
X135965510Y-70973740D01*
X148375000Y-70973740D01*
X148375000Y-71266260D01*
X148432068Y-71553158D01*
X148544010Y-71823411D01*
X148706525Y-72066632D01*
X148913368Y-72273475D01*
X149095534Y-72395195D01*
X148978645Y-72464822D01*
X148762412Y-72659731D01*
X148588359Y-72893080D01*
X148463175Y-73155901D01*
X148418524Y-73303110D01*
X148539845Y-73533000D01*
X149733000Y-73533000D01*
X149733000Y-73513000D01*
X149987000Y-73513000D01*
X149987000Y-73533000D01*
X151180155Y-73533000D01*
X151301476Y-73303110D01*
X151256825Y-73155901D01*
X151131641Y-72893080D01*
X150957588Y-72659731D01*
X150741355Y-72464822D01*
X150624466Y-72395195D01*
X150806632Y-72273475D01*
X151013475Y-72066632D01*
X151175990Y-71823411D01*
X151287932Y-71553158D01*
X151345000Y-71266260D01*
X151345000Y-70973740D01*
X151287932Y-70686842D01*
X151175990Y-70416589D01*
X151013475Y-70173368D01*
X150806632Y-69966525D01*
X150563411Y-69804010D01*
X150293158Y-69692068D01*
X150006260Y-69635000D01*
X149713740Y-69635000D01*
X149426842Y-69692068D01*
X149156589Y-69804010D01*
X148913368Y-69966525D01*
X148706525Y-70173368D01*
X148544010Y-70416589D01*
X148432068Y-70686842D01*
X148375000Y-70973740D01*
X135965510Y-70973740D01*
X136105000Y-70834250D01*
X136108072Y-70270000D01*
X136095812Y-70145518D01*
X136059502Y-70025820D01*
X136000537Y-69915506D01*
X135921185Y-69818815D01*
X135824494Y-69739463D01*
X135714180Y-69680498D01*
X135594482Y-69644188D01*
X135470000Y-69631928D01*
X134905750Y-69635000D01*
X134747000Y-69793750D01*
X134493000Y-69793750D01*
X134334250Y-69635000D01*
X133770000Y-69631928D01*
X133645518Y-69644188D01*
X133525820Y-69680498D01*
X133415506Y-69739463D01*
X133318815Y-69818815D01*
X133239463Y-69915506D01*
X133180498Y-70025820D01*
X133144188Y-70145518D01*
X133131928Y-70270000D01*
X132740000Y-70270000D01*
X132740000Y-69240000D01*
X151740000Y-69240000D01*
X151740001Y-140310000D01*
G36*
X126729048Y-109048321D02*
G01*
X126511260Y-109005000D01*
X126218740Y-109005000D01*
X125931842Y-109062068D01*
X125661589Y-109174010D01*
X125418368Y-109336525D01*
X125211525Y-109543368D01*
X125095000Y-109717760D01*
X124978475Y-109543368D01*
X124771632Y-109336525D01*
X124528411Y-109174010D01*
X124258158Y-109062068D01*
X123971260Y-109005000D01*
X123678740Y-109005000D01*
X123391842Y-109062068D01*
X123121589Y-109174010D01*
X122878368Y-109336525D01*
X122671525Y-109543368D01*
X122509010Y-109786589D01*
X122397068Y-110056842D01*
X122340000Y-110343740D01*
X122340000Y-110636260D01*
X122397068Y-110923158D01*
X122509010Y-111193411D01*
X122671525Y-111436632D01*
X122878368Y-111643475D01*
X123121589Y-111805990D01*
X123391842Y-111917932D01*
X123678740Y-111975000D01*
X123971260Y-111975000D01*
X124258158Y-111917932D01*
X124528411Y-111805990D01*
X124771632Y-111643475D01*
X124978475Y-111436632D01*
X125095000Y-111262240D01*
X125211525Y-111436632D01*
X125418368Y-111643475D01*
X125661589Y-111805990D01*
X125931842Y-111917932D01*
X126218740Y-111975000D01*
X126511260Y-111975000D01*
X126798158Y-111917932D01*
X127068411Y-111805990D01*
X127311632Y-111643475D01*
X127518475Y-111436632D01*
X127635000Y-111262240D01*
X127751525Y-111436632D01*
X127958368Y-111643475D01*
X128201589Y-111805990D01*
X128471842Y-111917932D01*
X128758740Y-111975000D01*
X129051260Y-111975000D01*
X129338158Y-111917932D01*
X129608411Y-111805990D01*
X129851632Y-111643475D01*
X130058475Y-111436632D01*
X130175000Y-111262240D01*
X130291525Y-111436632D01*
X130498368Y-111643475D01*
X130741589Y-111805990D01*
X131011842Y-111917932D01*
X131298740Y-111975000D01*
X131591260Y-111975000D01*
X131878158Y-111917932D01*
X132148411Y-111805990D01*
X132391632Y-111643475D01*
X132598475Y-111436632D01*
X132715000Y-111262240D01*
X132831525Y-111436632D01*
X133038368Y-111643475D01*
X133223000Y-111766842D01*
X133223001Y-125414368D01*
X131764370Y-126873000D01*
X116211842Y-126873000D01*
X116088475Y-126688368D01*
X115881632Y-126481525D01*
X115707240Y-126365000D01*
X115881632Y-126248475D01*
X116088475Y-126041632D01*
X116250990Y-125798411D01*
X116362932Y-125528158D01*
X116420000Y-125241260D01*
X116420000Y-124948740D01*
X116362932Y-124661842D01*
X116250990Y-124391589D01*
X116088475Y-124148368D01*
X115881632Y-123941525D01*
X115707240Y-123825000D01*
X115881632Y-123708475D01*
X116088475Y-123501632D01*
X116250990Y-123258411D01*
X116362932Y-122988158D01*
X116420000Y-122701260D01*
X116420000Y-122408740D01*
X116362932Y-122121842D01*
X116250990Y-121851589D01*
X116088475Y-121608368D01*
X115881632Y-121401525D01*
X115707240Y-121285000D01*
X115881632Y-121168475D01*
X116088475Y-120961632D01*
X116250990Y-120718411D01*
X116362932Y-120448158D01*
X116420000Y-120161260D01*
X116420000Y-119868740D01*
X116362932Y-119581842D01*
X116250990Y-119311589D01*
X116088475Y-119068368D01*
X115881632Y-118861525D01*
X115707240Y-118745000D01*
X115881632Y-118628475D01*
X116088475Y-118421632D01*
X116250990Y-118178411D01*
X116362932Y-117908158D01*
X116420000Y-117621260D01*
X116420000Y-117328740D01*
X116362932Y-117041842D01*
X116250990Y-116771589D01*
X116088475Y-116528368D01*
X115881632Y-116321525D01*
X115707240Y-116205000D01*
X115881632Y-116088475D01*
X116088475Y-115881632D01*
X116250990Y-115638411D01*
X116362932Y-115368158D01*
X116420000Y-115081260D01*
X116420000Y-114788740D01*
X116362932Y-114501842D01*
X116250990Y-114231589D01*
X116088475Y-113988368D01*
X115956620Y-113856513D01*
X116029180Y-113834502D01*
X116139494Y-113775537D01*
X116236185Y-113696185D01*
X116315537Y-113599494D01*
X116374502Y-113489180D01*
X116410812Y-113369482D01*
X116423072Y-113245000D01*
X116420000Y-112680750D01*
X116261250Y-112522000D01*
X115062000Y-112522000D01*
X115062000Y-112542000D01*
X114808000Y-112542000D01*
X114808000Y-112522000D01*
X114788000Y-112522000D01*
X114788000Y-112268000D01*
X114808000Y-112268000D01*
X114808000Y-112248000D01*
X115062000Y-112248000D01*
X115062000Y-112268000D01*
X116261250Y-112268000D01*
X116420000Y-112109250D01*
X116423072Y-111545000D01*
X116410812Y-111420518D01*
X116374502Y-111300820D01*
X116315537Y-111190506D01*
X116236185Y-111093815D01*
X116139494Y-111014463D01*
X116029180Y-110955498D01*
X115909482Y-110919188D01*
X115785000Y-110906928D01*
X115220750Y-110910000D01*
X115062002Y-111068748D01*
X115062002Y-111057026D01*
X116360000Y-109759029D01*
X116360000Y-110089902D01*
X116451654Y-110550679D01*
X116631440Y-110984721D01*
X116892450Y-111375349D01*
X117224651Y-111707550D01*
X117615279Y-111968560D01*
X118049321Y-112148346D01*
X118510098Y-112240000D01*
X118979902Y-112240000D01*
X119440679Y-112148346D01*
X119874721Y-111968560D01*
X120265349Y-111707550D01*
X120597550Y-111375349D01*
X120858560Y-110984721D01*
X121038346Y-110550679D01*
X121130000Y-110089902D01*
X121130000Y-109620098D01*
X121038346Y-109159321D01*
X120858560Y-108725279D01*
X120597550Y-108334651D01*
X120520889Y-108257990D01*
X127519379Y-108257990D01*
X126729048Y-109048321D01*
G37*
X126729048Y-109048321D02*
X126511260Y-109005000D01*
X126218740Y-109005000D01*
X125931842Y-109062068D01*
X125661589Y-109174010D01*
X125418368Y-109336525D01*
X125211525Y-109543368D01*
X125095000Y-109717760D01*
X124978475Y-109543368D01*
X124771632Y-109336525D01*
X124528411Y-109174010D01*
X124258158Y-109062068D01*
X123971260Y-109005000D01*
X123678740Y-109005000D01*
X123391842Y-109062068D01*
X123121589Y-109174010D01*
X122878368Y-109336525D01*
X122671525Y-109543368D01*
X122509010Y-109786589D01*
X122397068Y-110056842D01*
X122340000Y-110343740D01*
X122340000Y-110636260D01*
X122397068Y-110923158D01*
X122509010Y-111193411D01*
X122671525Y-111436632D01*
X122878368Y-111643475D01*
X123121589Y-111805990D01*
X123391842Y-111917932D01*
X123678740Y-111975000D01*
X123971260Y-111975000D01*
X124258158Y-111917932D01*
X124528411Y-111805990D01*
X124771632Y-111643475D01*
X124978475Y-111436632D01*
X125095000Y-111262240D01*
X125211525Y-111436632D01*
X125418368Y-111643475D01*
X125661589Y-111805990D01*
X125931842Y-111917932D01*
X126218740Y-111975000D01*
X126511260Y-111975000D01*
X126798158Y-111917932D01*
X127068411Y-111805990D01*
X127311632Y-111643475D01*
X127518475Y-111436632D01*
X127635000Y-111262240D01*
X127751525Y-111436632D01*
X127958368Y-111643475D01*
X128201589Y-111805990D01*
X128471842Y-111917932D01*
X128758740Y-111975000D01*
X129051260Y-111975000D01*
X129338158Y-111917932D01*
X129608411Y-111805990D01*
X129851632Y-111643475D01*
X130058475Y-111436632D01*
X130175000Y-111262240D01*
X130291525Y-111436632D01*
X130498368Y-111643475D01*
X130741589Y-111805990D01*
X131011842Y-111917932D01*
X131298740Y-111975000D01*
X131591260Y-111975000D01*
X131878158Y-111917932D01*
X132148411Y-111805990D01*
X132391632Y-111643475D01*
X132598475Y-111436632D01*
X132715000Y-111262240D01*
X132831525Y-111436632D01*
X133038368Y-111643475D01*
X133223000Y-111766842D01*
X133223001Y-125414368D01*
X131764370Y-126873000D01*
X116211842Y-126873000D01*
X116088475Y-126688368D01*
X115881632Y-126481525D01*
X115707240Y-126365000D01*
X115881632Y-126248475D01*
X116088475Y-126041632D01*
X116250990Y-125798411D01*
X116362932Y-125528158D01*
X116420000Y-125241260D01*
X116420000Y-124948740D01*
X116362932Y-124661842D01*
X116250990Y-124391589D01*
X116088475Y-124148368D01*
X115881632Y-123941525D01*
X115707240Y-123825000D01*
X115881632Y-123708475D01*
X116088475Y-123501632D01*
X116250990Y-123258411D01*
X116362932Y-122988158D01*
X116420000Y-122701260D01*
X116420000Y-122408740D01*
X116362932Y-122121842D01*
X116250990Y-121851589D01*
X116088475Y-121608368D01*
X115881632Y-121401525D01*
X115707240Y-121285000D01*
X115881632Y-121168475D01*
X116088475Y-120961632D01*
X116250990Y-120718411D01*
X116362932Y-120448158D01*
X116420000Y-120161260D01*
X116420000Y-119868740D01*
X116362932Y-119581842D01*
X116250990Y-119311589D01*
X116088475Y-119068368D01*
X115881632Y-118861525D01*
X115707240Y-118745000D01*
X115881632Y-118628475D01*
X116088475Y-118421632D01*
X116250990Y-118178411D01*
X116362932Y-117908158D01*
X116420000Y-117621260D01*
X116420000Y-117328740D01*
X116362932Y-117041842D01*
X116250990Y-116771589D01*
X116088475Y-116528368D01*
X115881632Y-116321525D01*
X115707240Y-116205000D01*
X115881632Y-116088475D01*
X116088475Y-115881632D01*
X116250990Y-115638411D01*
X116362932Y-115368158D01*
X116420000Y-115081260D01*
X116420000Y-114788740D01*
X116362932Y-114501842D01*
X116250990Y-114231589D01*
X116088475Y-113988368D01*
X115956620Y-113856513D01*
X116029180Y-113834502D01*
X116139494Y-113775537D01*
X116236185Y-113696185D01*
X116315537Y-113599494D01*
X116374502Y-113489180D01*
X116410812Y-113369482D01*
X116423072Y-113245000D01*
X116420000Y-112680750D01*
X116261250Y-112522000D01*
X115062000Y-112522000D01*
X115062000Y-112542000D01*
X114808000Y-112542000D01*
X114808000Y-112522000D01*
X114788000Y-112522000D01*
X114788000Y-112268000D01*
X114808000Y-112268000D01*
X114808000Y-112248000D01*
X115062000Y-112248000D01*
X115062000Y-112268000D01*
X116261250Y-112268000D01*
X116420000Y-112109250D01*
X116423072Y-111545000D01*
X116410812Y-111420518D01*
X116374502Y-111300820D01*
X116315537Y-111190506D01*
X116236185Y-111093815D01*
X116139494Y-111014463D01*
X116029180Y-110955498D01*
X115909482Y-110919188D01*
X115785000Y-110906928D01*
X115220750Y-110910000D01*
X115062002Y-111068748D01*
X115062002Y-111057026D01*
X116360000Y-109759029D01*
X116360000Y-110089902D01*
X116451654Y-110550679D01*
X116631440Y-110984721D01*
X116892450Y-111375349D01*
X117224651Y-111707550D01*
X117615279Y-111968560D01*
X118049321Y-112148346D01*
X118510098Y-112240000D01*
X118979902Y-112240000D01*
X119440679Y-112148346D01*
X119874721Y-111968560D01*
X120265349Y-111707550D01*
X120597550Y-111375349D01*
X120858560Y-110984721D01*
X121038346Y-110550679D01*
X121130000Y-110089902D01*
X121130000Y-109620098D01*
X121038346Y-109159321D01*
X120858560Y-108725279D01*
X120597550Y-108334651D01*
X120520889Y-108257990D01*
X127519379Y-108257990D01*
X126729048Y-109048321D01*
M02*
