M48
INCH
T1C0.0394
%
G90
G05
T1
X6.06Y-3.1
X6.16Y-3.1
X6.26Y-3.1
X6.36Y-3.1
X6.46Y-3.1
X6.56Y-3.1
X6.06Y-2.9
X6.16Y-2.9
X6.26Y-2.9
X6.36Y-2.9
X6.46Y-2.9
X6.56Y-2.9
X6.06Y-2.8
X6.16Y-2.8
X6.26Y-2.8
X6.36Y-2.8
X6.46Y-2.8
X6.56Y-2.8
X5.3Y-2.8
X5.3Y-2.9
X5.3Y-3.0
X5.3Y-3.1
X5.3Y-3.2
X5.3Y-3.3
X5.3Y-3.4
X5.3Y-3.5
X5.3Y-3.6
X5.3Y-3.7
X5.3Y-3.8
X5.3Y-3.9
X5.3Y-4.0
X5.3Y-4.1
X5.9Y-2.8
X5.9Y-2.9
X5.9Y-3.0
X5.9Y-3.1
X5.9Y-3.2
X5.9Y-3.3
X5.9Y-3.4
X5.9Y-3.5
X5.9Y-3.6
X5.9Y-3.7
X5.9Y-3.8
X5.9Y-3.9
X5.9Y-4.0
X5.9Y-4.1
X6.06Y-3.0
X6.16Y-3.0
X6.26Y-3.0
X6.36Y-3.0
X6.46Y-3.0
X6.56Y-3.0
T0
M30
