G04 #@! TF.GenerationSoftware,KiCad,Pcbnew,(5.1.5-0-10_14)*
G04 #@! TF.CreationDate,2021-03-13T22:21:17+01:00*
G04 #@! TF.ProjectId,es_bridge,65735f62-7269-4646-9765-2e6b69636164,rev?*
G04 #@! TF.SameCoordinates,Original*
G04 #@! TF.FileFunction,Legend,Top*
G04 #@! TF.FilePolarity,Positive*
%FSLAX46Y46*%
G04 Gerber Fmt 4.6, Leading zero omitted, Abs format (unit mm)*
G04 Created by KiCad (PCBNEW (5.1.5-0-10_14)) date 2021-03-13 22:21:17*
%MOMM*%
%LPD*%
G04 APERTURE LIST*
%ADD10C,0.177800*%
%ADD11C,0.190500*%
%ADD12C,0.300000*%
%ADD13C,0.150000*%
%ADD14C,0.120000*%
G04 APERTURE END LIST*
D10*
X156935714Y-81225571D02*
X157044571Y-81261857D01*
X157080857Y-81298142D01*
X157117142Y-81370714D01*
X157117142Y-81479571D01*
X157080857Y-81552142D01*
X157044571Y-81588428D01*
X156972000Y-81624714D01*
X156681714Y-81624714D01*
X156681714Y-80862714D01*
X156935714Y-80862714D01*
X157008285Y-80899000D01*
X157044571Y-80935285D01*
X157080857Y-81007857D01*
X157080857Y-81080428D01*
X157044571Y-81153000D01*
X157008285Y-81189285D01*
X156935714Y-81225571D01*
X156681714Y-81225571D01*
X157443714Y-81624714D02*
X157443714Y-81116714D01*
X157443714Y-81261857D02*
X157480000Y-81189285D01*
X157516285Y-81153000D01*
X157588857Y-81116714D01*
X157661428Y-81116714D01*
X157915428Y-81624714D02*
X157915428Y-81116714D01*
X157915428Y-80862714D02*
X157879142Y-80899000D01*
X157915428Y-80935285D01*
X157951714Y-80899000D01*
X157915428Y-80862714D01*
X157915428Y-80935285D01*
X158604857Y-81624714D02*
X158604857Y-80862714D01*
X158604857Y-81588428D02*
X158532285Y-81624714D01*
X158387142Y-81624714D01*
X158314571Y-81588428D01*
X158278285Y-81552142D01*
X158242000Y-81479571D01*
X158242000Y-81261857D01*
X158278285Y-81189285D01*
X158314571Y-81153000D01*
X158387142Y-81116714D01*
X158532285Y-81116714D01*
X158604857Y-81153000D01*
X159294285Y-81116714D02*
X159294285Y-81733571D01*
X159258000Y-81806142D01*
X159221714Y-81842428D01*
X159149142Y-81878714D01*
X159040285Y-81878714D01*
X158967714Y-81842428D01*
X159294285Y-81588428D02*
X159221714Y-81624714D01*
X159076571Y-81624714D01*
X159004000Y-81588428D01*
X158967714Y-81552142D01*
X158931428Y-81479571D01*
X158931428Y-81261857D01*
X158967714Y-81189285D01*
X159004000Y-81153000D01*
X159076571Y-81116714D01*
X159221714Y-81116714D01*
X159294285Y-81153000D01*
X159947428Y-81588428D02*
X159874857Y-81624714D01*
X159729714Y-81624714D01*
X159657142Y-81588428D01*
X159620857Y-81515857D01*
X159620857Y-81225571D01*
X159657142Y-81153000D01*
X159729714Y-81116714D01*
X159874857Y-81116714D01*
X159947428Y-81153000D01*
X159983714Y-81225571D01*
X159983714Y-81298142D01*
X159620857Y-81370714D01*
X160564285Y-81225571D02*
X160673142Y-81261857D01*
X160709428Y-81298142D01*
X160745714Y-81370714D01*
X160745714Y-81479571D01*
X160709428Y-81552142D01*
X160673142Y-81588428D01*
X160600571Y-81624714D01*
X160310285Y-81624714D01*
X160310285Y-80862714D01*
X160564285Y-80862714D01*
X160636857Y-80899000D01*
X160673142Y-80935285D01*
X160709428Y-81007857D01*
X160709428Y-81080428D01*
X160673142Y-81153000D01*
X160636857Y-81189285D01*
X160564285Y-81225571D01*
X160310285Y-81225571D01*
X161398857Y-81116714D02*
X161398857Y-81624714D01*
X161072285Y-81116714D02*
X161072285Y-81515857D01*
X161108571Y-81588428D01*
X161181142Y-81624714D01*
X161290000Y-81624714D01*
X161362571Y-81588428D01*
X161398857Y-81552142D01*
X162088285Y-81624714D02*
X162088285Y-80862714D01*
X162088285Y-81588428D02*
X162015714Y-81624714D01*
X161870571Y-81624714D01*
X161798000Y-81588428D01*
X161761714Y-81552142D01*
X161725428Y-81479571D01*
X161725428Y-81261857D01*
X161761714Y-81189285D01*
X161798000Y-81153000D01*
X161870571Y-81116714D01*
X162015714Y-81116714D01*
X162088285Y-81153000D01*
X162777714Y-81624714D02*
X162777714Y-80862714D01*
X162777714Y-81588428D02*
X162705142Y-81624714D01*
X162560000Y-81624714D01*
X162487428Y-81588428D01*
X162451142Y-81552142D01*
X162414857Y-81479571D01*
X162414857Y-81261857D01*
X162451142Y-81189285D01*
X162487428Y-81153000D01*
X162560000Y-81116714D01*
X162705142Y-81116714D01*
X162777714Y-81153000D01*
X163068000Y-81116714D02*
X163249428Y-81624714D01*
X163430857Y-81116714D02*
X163249428Y-81624714D01*
X163176857Y-81806142D01*
X163140571Y-81842428D01*
X163068000Y-81878714D01*
D11*
X139704285Y-71981785D02*
X139775714Y-71945500D01*
X139918571Y-71909214D01*
X140275714Y-71909214D01*
X140418571Y-71945500D01*
X140490000Y-71981785D01*
X140561428Y-72054357D01*
X140561428Y-72126928D01*
X140490000Y-72235785D01*
X139632857Y-72671214D01*
X140561428Y-72671214D01*
X141418571Y-72671214D02*
X141275714Y-72634928D01*
X141204285Y-72598642D01*
X141132857Y-72526071D01*
X141132857Y-72308357D01*
X141204285Y-72235785D01*
X141275714Y-72199500D01*
X141418571Y-72163214D01*
X141632857Y-72163214D01*
X141775714Y-72199500D01*
X141847142Y-72235785D01*
X141918571Y-72308357D01*
X141918571Y-72526071D01*
X141847142Y-72598642D01*
X141775714Y-72634928D01*
X141632857Y-72671214D01*
X141418571Y-72671214D01*
X142490000Y-71981785D02*
X142561428Y-71945500D01*
X142704285Y-71909214D01*
X143061428Y-71909214D01*
X143204285Y-71945500D01*
X143275714Y-71981785D01*
X143347142Y-72054357D01*
X143347142Y-72126928D01*
X143275714Y-72235785D01*
X142418571Y-72671214D01*
X143347142Y-72671214D01*
X144775714Y-72671214D02*
X143918571Y-72671214D01*
X144347142Y-72671214D02*
X144347142Y-71909214D01*
X144204285Y-72018071D01*
X144061428Y-72090642D01*
X143918571Y-72126928D01*
X139168571Y-74004714D02*
X139025714Y-73968428D01*
X138954285Y-73895857D01*
X138954285Y-73242714D01*
X140382857Y-74004714D02*
X140382857Y-73605571D01*
X140311428Y-73533000D01*
X140168571Y-73496714D01*
X139882857Y-73496714D01*
X139740000Y-73533000D01*
X140382857Y-73968428D02*
X140240000Y-74004714D01*
X139882857Y-74004714D01*
X139740000Y-73968428D01*
X139668571Y-73895857D01*
X139668571Y-73823285D01*
X139740000Y-73750714D01*
X139882857Y-73714428D01*
X140240000Y-73714428D01*
X140382857Y-73678142D01*
X141311428Y-74004714D02*
X141168571Y-73968428D01*
X141097142Y-73895857D01*
X141097142Y-73242714D01*
X142097142Y-74004714D02*
X141954285Y-73968428D01*
X141882857Y-73895857D01*
X141882857Y-73242714D01*
X143311428Y-74004714D02*
X143311428Y-73605571D01*
X143240000Y-73533000D01*
X143097142Y-73496714D01*
X142811428Y-73496714D01*
X142668571Y-73533000D01*
X143311428Y-73968428D02*
X143168571Y-74004714D01*
X142811428Y-74004714D01*
X142668571Y-73968428D01*
X142597142Y-73895857D01*
X142597142Y-73823285D01*
X142668571Y-73750714D01*
X142811428Y-73714428D01*
X143168571Y-73714428D01*
X143311428Y-73678142D01*
X143811428Y-73496714D02*
X144382857Y-73496714D01*
X144025714Y-74004714D02*
X144025714Y-73351571D01*
X144097142Y-73279000D01*
X144240000Y-73242714D01*
X144382857Y-73242714D01*
X145525714Y-74004714D02*
X145525714Y-73605571D01*
X145454285Y-73533000D01*
X145311428Y-73496714D01*
X145025714Y-73496714D01*
X144882857Y-73533000D01*
X145525714Y-73968428D02*
X145382857Y-74004714D01*
X145025714Y-74004714D01*
X144882857Y-73968428D01*
X144811428Y-73895857D01*
X144811428Y-73823285D01*
X144882857Y-73750714D01*
X145025714Y-73714428D01*
X145382857Y-73714428D01*
X145525714Y-73678142D01*
X139132857Y-75338214D02*
X138632857Y-74975357D01*
X138275714Y-75338214D02*
X138275714Y-74576214D01*
X138847142Y-74576214D01*
X138990000Y-74612500D01*
X139061428Y-74648785D01*
X139132857Y-74721357D01*
X139132857Y-74830214D01*
X139061428Y-74902785D01*
X138990000Y-74939071D01*
X138847142Y-74975357D01*
X138275714Y-74975357D01*
X140347142Y-75301928D02*
X140204285Y-75338214D01*
X139918571Y-75338214D01*
X139775714Y-75301928D01*
X139704285Y-75229357D01*
X139704285Y-74939071D01*
X139775714Y-74866500D01*
X139918571Y-74830214D01*
X140204285Y-74830214D01*
X140347142Y-74866500D01*
X140418571Y-74939071D01*
X140418571Y-75011642D01*
X139704285Y-75084214D01*
X140918571Y-74830214D02*
X141275714Y-75338214D01*
X141632857Y-74830214D01*
X144132857Y-75338214D02*
X143275714Y-75338214D01*
X143704285Y-75338214D02*
X143704285Y-74576214D01*
X143561428Y-74685071D01*
X143418571Y-74757642D01*
X143275714Y-74793928D01*
X144775714Y-75265642D02*
X144847142Y-75301928D01*
X144775714Y-75338214D01*
X144704285Y-75301928D01*
X144775714Y-75265642D01*
X144775714Y-75338214D01*
X145775714Y-74576214D02*
X145918571Y-74576214D01*
X146061428Y-74612500D01*
X146132857Y-74648785D01*
X146204285Y-74721357D01*
X146275714Y-74866500D01*
X146275714Y-75047928D01*
X146204285Y-75193071D01*
X146132857Y-75265642D01*
X146061428Y-75301928D01*
X145918571Y-75338214D01*
X145775714Y-75338214D01*
X145632857Y-75301928D01*
X145561428Y-75265642D01*
X145490000Y-75193071D01*
X145418571Y-75047928D01*
X145418571Y-74866500D01*
X145490000Y-74721357D01*
X145561428Y-74648785D01*
X145632857Y-74612500D01*
X145775714Y-74576214D01*
D12*
X143622142Y-79482857D02*
X143622142Y-79982857D01*
X142836428Y-80197142D02*
X142836428Y-79482857D01*
X144336428Y-79482857D01*
X144336428Y-80197142D01*
X143836428Y-81482857D02*
X142836428Y-81482857D01*
X143836428Y-80840000D02*
X143050714Y-80840000D01*
X142907857Y-80911428D01*
X142836428Y-81054285D01*
X142836428Y-81268571D01*
X142907857Y-81411428D01*
X142979285Y-81482857D01*
X142836428Y-82197142D02*
X143836428Y-82197142D01*
X143550714Y-82197142D02*
X143693571Y-82268571D01*
X143765000Y-82340000D01*
X143836428Y-82482857D01*
X143836428Y-82625714D01*
X142836428Y-83340000D02*
X142907857Y-83197142D01*
X142979285Y-83125714D01*
X143122142Y-83054285D01*
X143550714Y-83054285D01*
X143693571Y-83125714D01*
X143765000Y-83197142D01*
X143836428Y-83340000D01*
X143836428Y-83554285D01*
X143765000Y-83697142D01*
X143693571Y-83768571D01*
X143550714Y-83840000D01*
X143122142Y-83840000D01*
X142979285Y-83768571D01*
X142907857Y-83697142D01*
X142836428Y-83554285D01*
X142836428Y-83340000D01*
X142907857Y-84411428D02*
X142836428Y-84625714D01*
X142836428Y-84982857D01*
X142907857Y-85125714D01*
X142979285Y-85197142D01*
X143122142Y-85268571D01*
X143265000Y-85268571D01*
X143407857Y-85197142D01*
X143479285Y-85125714D01*
X143550714Y-84982857D01*
X143622142Y-84697142D01*
X143693571Y-84554285D01*
X143765000Y-84482857D01*
X143907857Y-84411428D01*
X144050714Y-84411428D01*
X144193571Y-84482857D01*
X144265000Y-84554285D01*
X144336428Y-84697142D01*
X144336428Y-85054285D01*
X144265000Y-85268571D01*
X142836428Y-85911428D02*
X144336428Y-85911428D01*
X142836428Y-86554285D02*
X143622142Y-86554285D01*
X143765000Y-86482857D01*
X143836428Y-86340000D01*
X143836428Y-86125714D01*
X143765000Y-85982857D01*
X143693571Y-85911428D01*
X142836428Y-87268571D02*
X143836428Y-87268571D01*
X144336428Y-87268571D02*
X144265000Y-87197142D01*
X144193571Y-87268571D01*
X144265000Y-87340000D01*
X144336428Y-87268571D01*
X144193571Y-87268571D01*
X142907857Y-88554285D02*
X142836428Y-88411428D01*
X142836428Y-88125714D01*
X142907857Y-87982857D01*
X143050714Y-87911428D01*
X143622142Y-87911428D01*
X143765000Y-87982857D01*
X143836428Y-88125714D01*
X143836428Y-88411428D01*
X143765000Y-88554285D01*
X143622142Y-88625714D01*
X143479285Y-88625714D01*
X143336428Y-87911428D01*
X142836428Y-89482857D02*
X142907857Y-89340000D01*
X143050714Y-89268571D01*
X144336428Y-89268571D01*
X142836428Y-90697142D02*
X144336428Y-90697142D01*
X142907857Y-90697142D02*
X142836428Y-90554285D01*
X142836428Y-90268571D01*
X142907857Y-90125714D01*
X142979285Y-90054285D01*
X143122142Y-89982857D01*
X143550714Y-89982857D01*
X143693571Y-90054285D01*
X143765000Y-90125714D01*
X143836428Y-90268571D01*
X143836428Y-90554285D01*
X143765000Y-90697142D01*
X141072142Y-79018571D02*
X141000714Y-79232857D01*
X140929285Y-79304285D01*
X140786428Y-79375714D01*
X140572142Y-79375714D01*
X140429285Y-79304285D01*
X140357857Y-79232857D01*
X140286428Y-79090000D01*
X140286428Y-78518571D01*
X141786428Y-78518571D01*
X141786428Y-79018571D01*
X141715000Y-79161428D01*
X141643571Y-79232857D01*
X141500714Y-79304285D01*
X141357857Y-79304285D01*
X141215000Y-79232857D01*
X141143571Y-79161428D01*
X141072142Y-79018571D01*
X141072142Y-78518571D01*
X140286428Y-80018571D02*
X141286428Y-80018571D01*
X141000714Y-80018571D02*
X141143571Y-80090000D01*
X141215000Y-80161428D01*
X141286428Y-80304285D01*
X141286428Y-80447142D01*
X140286428Y-80947142D02*
X141286428Y-80947142D01*
X141786428Y-80947142D02*
X141715000Y-80875714D01*
X141643571Y-80947142D01*
X141715000Y-81018571D01*
X141786428Y-80947142D01*
X141643571Y-80947142D01*
X140286428Y-82304285D02*
X141786428Y-82304285D01*
X140357857Y-82304285D02*
X140286428Y-82161428D01*
X140286428Y-81875714D01*
X140357857Y-81732857D01*
X140429285Y-81661428D01*
X140572142Y-81590000D01*
X141000714Y-81590000D01*
X141143571Y-81661428D01*
X141215000Y-81732857D01*
X141286428Y-81875714D01*
X141286428Y-82161428D01*
X141215000Y-82304285D01*
X141286428Y-83661428D02*
X140072142Y-83661428D01*
X139929285Y-83590000D01*
X139857857Y-83518571D01*
X139786428Y-83375714D01*
X139786428Y-83161428D01*
X139857857Y-83018571D01*
X140357857Y-83661428D02*
X140286428Y-83518571D01*
X140286428Y-83232857D01*
X140357857Y-83090000D01*
X140429285Y-83018571D01*
X140572142Y-82947142D01*
X141000714Y-82947142D01*
X141143571Y-83018571D01*
X141215000Y-83090000D01*
X141286428Y-83232857D01*
X141286428Y-83518571D01*
X141215000Y-83661428D01*
X140357857Y-84947142D02*
X140286428Y-84804285D01*
X140286428Y-84518571D01*
X140357857Y-84375714D01*
X140500714Y-84304285D01*
X141072142Y-84304285D01*
X141215000Y-84375714D01*
X141286428Y-84518571D01*
X141286428Y-84804285D01*
X141215000Y-84947142D01*
X141072142Y-85018571D01*
X140929285Y-85018571D01*
X140786428Y-84304285D01*
X141072142Y-86161428D02*
X141000714Y-86375714D01*
X140929285Y-86447142D01*
X140786428Y-86518571D01*
X140572142Y-86518571D01*
X140429285Y-86447142D01*
X140357857Y-86375714D01*
X140286428Y-86232857D01*
X140286428Y-85661428D01*
X141786428Y-85661428D01*
X141786428Y-86161428D01*
X141715000Y-86304285D01*
X141643571Y-86375714D01*
X141500714Y-86447142D01*
X141357857Y-86447142D01*
X141215000Y-86375714D01*
X141143571Y-86304285D01*
X141072142Y-86161428D01*
X141072142Y-85661428D01*
X141286428Y-87804285D02*
X140286428Y-87804285D01*
X141286428Y-87161428D02*
X140500714Y-87161428D01*
X140357857Y-87232857D01*
X140286428Y-87375714D01*
X140286428Y-87590000D01*
X140357857Y-87732857D01*
X140429285Y-87804285D01*
X140286428Y-89161428D02*
X141786428Y-89161428D01*
X140357857Y-89161428D02*
X140286428Y-89018571D01*
X140286428Y-88732857D01*
X140357857Y-88590000D01*
X140429285Y-88518571D01*
X140572142Y-88447142D01*
X141000714Y-88447142D01*
X141143571Y-88518571D01*
X141215000Y-88590000D01*
X141286428Y-88732857D01*
X141286428Y-89018571D01*
X141215000Y-89161428D01*
X140286428Y-90518571D02*
X141786428Y-90518571D01*
X140357857Y-90518571D02*
X140286428Y-90375714D01*
X140286428Y-90090000D01*
X140357857Y-89947142D01*
X140429285Y-89875714D01*
X140572142Y-89804285D01*
X141000714Y-89804285D01*
X141143571Y-89875714D01*
X141215000Y-89947142D01*
X141286428Y-90090000D01*
X141286428Y-90375714D01*
X141215000Y-90518571D01*
X141286428Y-91090000D02*
X140286428Y-91447142D01*
X141286428Y-91804285D02*
X140286428Y-91447142D01*
X139929285Y-91304285D01*
X139857857Y-91232857D01*
X139786428Y-91090000D01*
D13*
X138359047Y-99592380D02*
X138930476Y-99592380D01*
X138644761Y-100592380D02*
X138644761Y-99592380D01*
X139644761Y-100544761D02*
X139549523Y-100592380D01*
X139359047Y-100592380D01*
X139263809Y-100544761D01*
X139216190Y-100449523D01*
X139216190Y-100068571D01*
X139263809Y-99973333D01*
X139359047Y-99925714D01*
X139549523Y-99925714D01*
X139644761Y-99973333D01*
X139692380Y-100068571D01*
X139692380Y-100163809D01*
X139216190Y-100259047D01*
X140501904Y-100544761D02*
X140406666Y-100592380D01*
X140216190Y-100592380D01*
X140120952Y-100544761D01*
X140073333Y-100449523D01*
X140073333Y-100068571D01*
X140120952Y-99973333D01*
X140216190Y-99925714D01*
X140406666Y-99925714D01*
X140501904Y-99973333D01*
X140549523Y-100068571D01*
X140549523Y-100163809D01*
X140073333Y-100259047D01*
X140978095Y-99925714D02*
X140978095Y-100592380D01*
X140978095Y-100020952D02*
X141025714Y-99973333D01*
X141120952Y-99925714D01*
X141263809Y-99925714D01*
X141359047Y-99973333D01*
X141406666Y-100068571D01*
X141406666Y-100592380D01*
X141835238Y-100544761D02*
X141930476Y-100592380D01*
X142120952Y-100592380D01*
X142216190Y-100544761D01*
X142263809Y-100449523D01*
X142263809Y-100401904D01*
X142216190Y-100306666D01*
X142120952Y-100259047D01*
X141978095Y-100259047D01*
X141882857Y-100211428D01*
X141835238Y-100116190D01*
X141835238Y-100068571D01*
X141882857Y-99973333D01*
X141978095Y-99925714D01*
X142120952Y-99925714D01*
X142216190Y-99973333D01*
X142597142Y-99925714D02*
X142835238Y-100592380D01*
X143073333Y-99925714D02*
X142835238Y-100592380D01*
X142740000Y-100830476D01*
X142692380Y-100878095D01*
X142597142Y-100925714D01*
X144120952Y-99592380D02*
X144740000Y-99592380D01*
X144406666Y-99973333D01*
X144549523Y-99973333D01*
X144644761Y-100020952D01*
X144692380Y-100068571D01*
X144740000Y-100163809D01*
X144740000Y-100401904D01*
X144692380Y-100497142D01*
X144644761Y-100544761D01*
X144549523Y-100592380D01*
X144263809Y-100592380D01*
X144168571Y-100544761D01*
X144120952Y-100497142D01*
X145168571Y-100497142D02*
X145216190Y-100544761D01*
X145168571Y-100592380D01*
X145120952Y-100544761D01*
X145168571Y-100497142D01*
X145168571Y-100592380D01*
X145549523Y-100592380D02*
X146073333Y-99925714D01*
X145549523Y-99925714D02*
X146073333Y-100592380D01*
D14*
X138430000Y-101600000D02*
X138430000Y-105410000D01*
X145415000Y-101600000D02*
X138430000Y-101600000D01*
X145415000Y-105410000D02*
X145415000Y-101600000D01*
X151130000Y-69850000D02*
X151130000Y-105410000D01*
X133350000Y-69850000D02*
X151130000Y-69850000D01*
X133350000Y-105410000D02*
X133350000Y-69850000D01*
X151130000Y-105410000D02*
X133350000Y-105410000D01*
X152594000Y-80070000D02*
X152594000Y-78740000D01*
X153924000Y-80070000D02*
X152594000Y-80070000D01*
X155194000Y-80070000D02*
X155194000Y-77410000D01*
X155194000Y-77410000D02*
X167954000Y-77410000D01*
X155194000Y-80070000D02*
X167954000Y-80070000D01*
X167954000Y-80070000D02*
X167954000Y-77410000D01*
X152594000Y-77530000D02*
X152594000Y-76200000D01*
X153924000Y-77530000D02*
X152594000Y-77530000D01*
X155194000Y-77530000D02*
X155194000Y-74870000D01*
X155194000Y-74870000D02*
X167954000Y-74870000D01*
X155194000Y-77530000D02*
X167954000Y-77530000D01*
X167954000Y-77530000D02*
X167954000Y-74870000D01*
X152594000Y-74990000D02*
X152594000Y-73660000D01*
X153924000Y-74990000D02*
X152594000Y-74990000D01*
X155194000Y-74990000D02*
X155194000Y-72330000D01*
X155194000Y-72330000D02*
X167954000Y-72330000D01*
X155194000Y-74990000D02*
X167954000Y-74990000D01*
X167954000Y-74990000D02*
X167954000Y-72330000D01*
X152594000Y-72450000D02*
X152594000Y-71120000D01*
X153924000Y-72450000D02*
X152594000Y-72450000D01*
X155194000Y-72450000D02*
X155194000Y-69790000D01*
X155194000Y-69790000D02*
X167954000Y-69790000D01*
X155194000Y-72450000D02*
X167954000Y-72450000D01*
X167954000Y-72450000D02*
X167954000Y-69790000D01*
M02*
