G04 #@! TF.GenerationSoftware,KiCad,Pcbnew,(5.1.5-0-10_14)*
G04 #@! TF.CreationDate,2021-03-13T22:21:17+01:00*
G04 #@! TF.ProjectId,es_bridge,65735f62-7269-4646-9765-2e6b69636164,rev?*
G04 #@! TF.SameCoordinates,Original*
G04 #@! TF.FileFunction,Copper,L1,Top*
G04 #@! TF.FilePolarity,Positive*
%FSLAX46Y46*%
G04 Gerber Fmt 4.6, Leading zero omitted, Abs format (unit mm)*
G04 Created by KiCad (PCBNEW (5.1.5-0-10_14)) date 2021-03-13 22:21:17*
%MOMM*%
%LPD*%
G04 APERTURE LIST*
%ADD10O,1.700000X1.700000*%
%ADD11R,1.700000X1.700000*%
%ADD12C,0.250000*%
%ADD13C,0.254000*%
G04 APERTURE END LIST*
D10*
X166624000Y-78740000D03*
X164084000Y-78740000D03*
X161544000Y-78740000D03*
X159004000Y-78740000D03*
X156464000Y-78740000D03*
D11*
X153924000Y-78740000D03*
D10*
X166624000Y-76200000D03*
X164084000Y-76200000D03*
X161544000Y-76200000D03*
X159004000Y-76200000D03*
X156464000Y-76200000D03*
D11*
X153924000Y-76200000D03*
D10*
X166624000Y-73660000D03*
X164084000Y-73660000D03*
X161544000Y-73660000D03*
X159004000Y-73660000D03*
X156464000Y-73660000D03*
D11*
X153924000Y-73660000D03*
D10*
X166624000Y-71120000D03*
X164084000Y-71120000D03*
X161544000Y-71120000D03*
X159004000Y-71120000D03*
X156464000Y-71120000D03*
D11*
X153924000Y-71120000D03*
X149860000Y-104140000D03*
D10*
X149860000Y-101600000D03*
X149860000Y-99060000D03*
X149860000Y-96520000D03*
X149860000Y-93980000D03*
X149860000Y-91440000D03*
X149860000Y-88900000D03*
X149860000Y-86360000D03*
X149860000Y-83820000D03*
X149860000Y-81280000D03*
X149860000Y-78740000D03*
X149860000Y-76200000D03*
X149860000Y-73660000D03*
X149860000Y-71120000D03*
X134620000Y-71120000D03*
X134620000Y-73660000D03*
X134620000Y-76200000D03*
X134620000Y-78740000D03*
X134620000Y-81280000D03*
X134620000Y-83820000D03*
X134620000Y-86360000D03*
X134620000Y-88900000D03*
X134620000Y-91440000D03*
X134620000Y-93980000D03*
X134620000Y-96520000D03*
X134620000Y-99060000D03*
X134620000Y-101600000D03*
X134620000Y-104140000D03*
D12*
X156464000Y-73660000D02*
X156464000Y-72484700D01*
X149860000Y-71120000D02*
X151035300Y-71120000D01*
X151035300Y-71120000D02*
X152210600Y-69944700D01*
X152210600Y-69944700D02*
X154908800Y-69944700D01*
X154908800Y-69944700D02*
X155288700Y-70324600D01*
X155288700Y-70324600D02*
X155288700Y-71676800D01*
X155288700Y-71676800D02*
X156096600Y-72484700D01*
X156096600Y-72484700D02*
X156464000Y-72484700D01*
X159004000Y-73660000D02*
X159004000Y-74835300D01*
X149860000Y-83820000D02*
X153241400Y-80438600D01*
X153241400Y-80438600D02*
X156436800Y-80438600D01*
X156436800Y-80438600D02*
X157828700Y-79046700D01*
X157828700Y-79046700D02*
X157828700Y-75643200D01*
X157828700Y-75643200D02*
X158636600Y-74835300D01*
X158636600Y-74835300D02*
X159004000Y-74835300D01*
X161544000Y-78740000D02*
X160368700Y-78740000D01*
X149860000Y-86360000D02*
X149860000Y-85184700D01*
X149860000Y-85184700D02*
X150227400Y-85184700D01*
X150227400Y-85184700D02*
X151035300Y-84376800D01*
X151035300Y-84376800D02*
X151035300Y-83438300D01*
X151035300Y-83438300D02*
X152259000Y-82214600D01*
X152259000Y-82214600D02*
X157261400Y-82214600D01*
X157261400Y-82214600D02*
X160368700Y-79107300D01*
X160368700Y-79107300D02*
X160368700Y-78740000D01*
X149860000Y-91440000D02*
X149860000Y-90264700D01*
X156464000Y-78740000D02*
X155288700Y-78740000D01*
X155288700Y-78740000D02*
X155288700Y-79548100D01*
X155288700Y-79548100D02*
X154921500Y-79915300D01*
X154921500Y-79915300D02*
X152887000Y-79915300D01*
X152887000Y-79915300D02*
X150252300Y-82550000D01*
X150252300Y-82550000D02*
X149462700Y-82550000D01*
X149462700Y-82550000D02*
X148684700Y-83328000D01*
X148684700Y-83328000D02*
X148684700Y-89456800D01*
X148684700Y-89456800D02*
X149492600Y-90264700D01*
X149492600Y-90264700D02*
X149860000Y-90264700D01*
X152748700Y-78740000D02*
X151573400Y-79915300D01*
X151573400Y-79915300D02*
X149561500Y-79915300D01*
X149561500Y-79915300D02*
X148206800Y-81270000D01*
X148206800Y-81270000D02*
X148206800Y-91518800D01*
X148206800Y-91518800D02*
X149492700Y-92804700D01*
X149492700Y-92804700D02*
X149860000Y-92804700D01*
X153924000Y-78740000D02*
X152748700Y-78740000D01*
X149860000Y-93980000D02*
X149860000Y-92804700D01*
X159004000Y-76200000D02*
X160179300Y-76200000D01*
X134620000Y-86360000D02*
X134620000Y-85184700D01*
X134620000Y-85184700D02*
X134987400Y-85184700D01*
X134987400Y-85184700D02*
X135795300Y-84376800D01*
X135795300Y-84376800D02*
X135795300Y-82185300D01*
X135795300Y-82185300D02*
X149450700Y-68529900D01*
X149450700Y-68529900D02*
X165731800Y-68529900D01*
X165731800Y-68529900D02*
X167814900Y-70613000D01*
X167814900Y-70613000D02*
X167814900Y-74227600D01*
X167814900Y-74227600D02*
X167207100Y-74835400D01*
X167207100Y-74835400D02*
X166324300Y-74835400D01*
X166324300Y-74835400D02*
X165259400Y-75900300D01*
X165259400Y-75900300D02*
X165259400Y-76783300D01*
X165259400Y-76783300D02*
X164667400Y-77375300D01*
X164667400Y-77375300D02*
X160987200Y-77375300D01*
X160987200Y-77375300D02*
X160179300Y-76567400D01*
X160179300Y-76567400D02*
X160179300Y-76200000D01*
X161544000Y-75024700D02*
X161176600Y-75024700D01*
X161176600Y-75024700D02*
X160368700Y-74216800D01*
X160368700Y-74216800D02*
X160368700Y-70726100D01*
X160368700Y-70726100D02*
X159137000Y-69494400D01*
X159137000Y-69494400D02*
X149796000Y-69494400D01*
X149796000Y-69494400D02*
X147076200Y-72214200D01*
X147076200Y-72214200D02*
X147076200Y-83193900D01*
X147076200Y-83193900D02*
X135020100Y-95250000D01*
X135020100Y-95250000D02*
X134212400Y-95250000D01*
X134212400Y-95250000D02*
X133396500Y-96065900D01*
X133396500Y-96065900D02*
X133396500Y-99568500D01*
X133396500Y-99568500D02*
X134252700Y-100424700D01*
X134252700Y-100424700D02*
X134620000Y-100424700D01*
X166624000Y-73660000D02*
X165448700Y-73660000D01*
X165448700Y-73660000D02*
X165448700Y-74027300D01*
X165448700Y-74027300D02*
X164451300Y-75024700D01*
X164451300Y-75024700D02*
X161544000Y-75024700D01*
X166624000Y-71120000D02*
X166624000Y-73660000D01*
X161544000Y-76200000D02*
X161544000Y-75024700D01*
X134620000Y-101600000D02*
X134620000Y-100424700D01*
X153924000Y-73660000D02*
X153924000Y-76200000D01*
X153924000Y-71120000D02*
X153924000Y-73660000D01*
X153924000Y-76200000D02*
X152748700Y-76200000D01*
X134620000Y-99060000D02*
X134620000Y-97884700D01*
X134620000Y-97884700D02*
X134987300Y-97884700D01*
X134987300Y-97884700D02*
X147526600Y-85345400D01*
X147526600Y-85345400D02*
X147526600Y-79310700D01*
X147526600Y-79310700D02*
X149462000Y-77375300D01*
X149462000Y-77375300D02*
X151573400Y-77375300D01*
X151573400Y-77375300D02*
X152748700Y-76200000D01*
X164084000Y-71120000D02*
X162908700Y-71120000D01*
X134620000Y-104140000D02*
X134620000Y-102964700D01*
X134620000Y-102964700D02*
X134252700Y-102964700D01*
X134252700Y-102964700D02*
X132946100Y-101658100D01*
X132946100Y-101658100D02*
X132946100Y-93921800D01*
X132946100Y-93921800D02*
X134157900Y-92710000D01*
X134157900Y-92710000D02*
X135039100Y-92710000D01*
X135039100Y-92710000D02*
X145030800Y-82718300D01*
X145030800Y-82718300D02*
X145030800Y-73586700D01*
X145030800Y-73586700D02*
X149585900Y-69031600D01*
X149585900Y-69031600D02*
X161187600Y-69031600D01*
X161187600Y-69031600D02*
X162908700Y-70752700D01*
X162908700Y-70752700D02*
X162908700Y-71120000D01*
D13*
G36*
X151740001Y-106020000D02*
G01*
X132740000Y-106020000D01*
X132740000Y-102526802D01*
X133442509Y-103229311D01*
X133304010Y-103436589D01*
X133192068Y-103706842D01*
X133135000Y-103993740D01*
X133135000Y-104286260D01*
X133192068Y-104573158D01*
X133304010Y-104843411D01*
X133466525Y-105086632D01*
X133673368Y-105293475D01*
X133916589Y-105455990D01*
X134186842Y-105567932D01*
X134473740Y-105625000D01*
X134766260Y-105625000D01*
X135053158Y-105567932D01*
X135323411Y-105455990D01*
X135566632Y-105293475D01*
X135773475Y-105086632D01*
X135838042Y-104990000D01*
X148371928Y-104990000D01*
X148384188Y-105114482D01*
X148420498Y-105234180D01*
X148479463Y-105344494D01*
X148558815Y-105441185D01*
X148655506Y-105520537D01*
X148765820Y-105579502D01*
X148885518Y-105615812D01*
X149010000Y-105628072D01*
X149574250Y-105625000D01*
X149733000Y-105466250D01*
X149733000Y-104267000D01*
X149987000Y-104267000D01*
X149987000Y-105466250D01*
X150145750Y-105625000D01*
X150710000Y-105628072D01*
X150834482Y-105615812D01*
X150954180Y-105579502D01*
X151064494Y-105520537D01*
X151161185Y-105441185D01*
X151240537Y-105344494D01*
X151299502Y-105234180D01*
X151335812Y-105114482D01*
X151348072Y-104990000D01*
X151345000Y-104425750D01*
X151186250Y-104267000D01*
X149987000Y-104267000D01*
X149733000Y-104267000D01*
X148533750Y-104267000D01*
X148375000Y-104425750D01*
X148371928Y-104990000D01*
X135838042Y-104990000D01*
X135935990Y-104843411D01*
X136047932Y-104573158D01*
X136105000Y-104286260D01*
X136105000Y-103993740D01*
X136047932Y-103706842D01*
X135935990Y-103436589D01*
X135773475Y-103193368D01*
X135566632Y-102986525D01*
X135384466Y-102864805D01*
X135501355Y-102795178D01*
X135717588Y-102600269D01*
X135891641Y-102366920D01*
X136016825Y-102104099D01*
X136061476Y-101956890D01*
X135940155Y-101727000D01*
X134747000Y-101727000D01*
X134747000Y-101747000D01*
X134493000Y-101747000D01*
X134493000Y-101727000D01*
X134473000Y-101727000D01*
X134473000Y-101473000D01*
X134493000Y-101473000D01*
X134493000Y-101453000D01*
X134747000Y-101453000D01*
X134747000Y-101473000D01*
X135940155Y-101473000D01*
X136061476Y-101243110D01*
X136016825Y-101095901D01*
X135891641Y-100833080D01*
X135717588Y-100599731D01*
X135501355Y-100404822D01*
X135384466Y-100335195D01*
X135566632Y-100213475D01*
X135773475Y-100006632D01*
X135935990Y-99763411D01*
X136047932Y-99493158D01*
X136105000Y-99206260D01*
X136105000Y-98913740D01*
X136047932Y-98626842D01*
X135935990Y-98356589D01*
X135797491Y-98149310D01*
X147446801Y-86500001D01*
X147446801Y-91481468D01*
X147443124Y-91518800D01*
X147457798Y-91667785D01*
X147501254Y-91811046D01*
X147571826Y-91943076D01*
X147643001Y-92029802D01*
X147666800Y-92058801D01*
X147695798Y-92082599D01*
X148682509Y-93069311D01*
X148544010Y-93276589D01*
X148432068Y-93546842D01*
X148375000Y-93833740D01*
X148375000Y-94126260D01*
X148432068Y-94413158D01*
X148544010Y-94683411D01*
X148706525Y-94926632D01*
X148913368Y-95133475D01*
X149087760Y-95250000D01*
X148913368Y-95366525D01*
X148706525Y-95573368D01*
X148544010Y-95816589D01*
X148432068Y-96086842D01*
X148375000Y-96373740D01*
X148375000Y-96666260D01*
X148432068Y-96953158D01*
X148544010Y-97223411D01*
X148706525Y-97466632D01*
X148913368Y-97673475D01*
X149087760Y-97790000D01*
X148913368Y-97906525D01*
X148706525Y-98113368D01*
X148544010Y-98356589D01*
X148432068Y-98626842D01*
X148375000Y-98913740D01*
X148375000Y-99206260D01*
X148432068Y-99493158D01*
X148544010Y-99763411D01*
X148706525Y-100006632D01*
X148913368Y-100213475D01*
X149087760Y-100330000D01*
X148913368Y-100446525D01*
X148706525Y-100653368D01*
X148544010Y-100896589D01*
X148432068Y-101166842D01*
X148375000Y-101453740D01*
X148375000Y-101746260D01*
X148432068Y-102033158D01*
X148544010Y-102303411D01*
X148706525Y-102546632D01*
X148838380Y-102678487D01*
X148765820Y-102700498D01*
X148655506Y-102759463D01*
X148558815Y-102838815D01*
X148479463Y-102935506D01*
X148420498Y-103045820D01*
X148384188Y-103165518D01*
X148371928Y-103290000D01*
X148375000Y-103854250D01*
X148533750Y-104013000D01*
X149733000Y-104013000D01*
X149733000Y-103993000D01*
X149987000Y-103993000D01*
X149987000Y-104013000D01*
X151186250Y-104013000D01*
X151345000Y-103854250D01*
X151348072Y-103290000D01*
X151335812Y-103165518D01*
X151299502Y-103045820D01*
X151240537Y-102935506D01*
X151161185Y-102838815D01*
X151064494Y-102759463D01*
X150954180Y-102700498D01*
X150881620Y-102678487D01*
X151013475Y-102546632D01*
X151175990Y-102303411D01*
X151287932Y-102033158D01*
X151345000Y-101746260D01*
X151345000Y-101453740D01*
X151287932Y-101166842D01*
X151175990Y-100896589D01*
X151013475Y-100653368D01*
X150806632Y-100446525D01*
X150632240Y-100330000D01*
X150806632Y-100213475D01*
X151013475Y-100006632D01*
X151175990Y-99763411D01*
X151287932Y-99493158D01*
X151345000Y-99206260D01*
X151345000Y-98913740D01*
X151287932Y-98626842D01*
X151175990Y-98356589D01*
X151013475Y-98113368D01*
X150806632Y-97906525D01*
X150632240Y-97790000D01*
X150806632Y-97673475D01*
X151013475Y-97466632D01*
X151175990Y-97223411D01*
X151287932Y-96953158D01*
X151345000Y-96666260D01*
X151345000Y-96373740D01*
X151287932Y-96086842D01*
X151175990Y-95816589D01*
X151013475Y-95573368D01*
X150806632Y-95366525D01*
X150632240Y-95250000D01*
X150806632Y-95133475D01*
X151013475Y-94926632D01*
X151175990Y-94683411D01*
X151287932Y-94413158D01*
X151345000Y-94126260D01*
X151345000Y-93833740D01*
X151287932Y-93546842D01*
X151175990Y-93276589D01*
X151013475Y-93033368D01*
X150806632Y-92826525D01*
X150632240Y-92710000D01*
X150806632Y-92593475D01*
X151013475Y-92386632D01*
X151175990Y-92143411D01*
X151287932Y-91873158D01*
X151345000Y-91586260D01*
X151345000Y-91293740D01*
X151287932Y-91006842D01*
X151175990Y-90736589D01*
X151013475Y-90493368D01*
X150806632Y-90286525D01*
X150632240Y-90170000D01*
X150806632Y-90053475D01*
X151013475Y-89846632D01*
X151175990Y-89603411D01*
X151287932Y-89333158D01*
X151345000Y-89046260D01*
X151345000Y-88753740D01*
X151287932Y-88466842D01*
X151175990Y-88196589D01*
X151013475Y-87953368D01*
X150806632Y-87746525D01*
X150632240Y-87630000D01*
X150806632Y-87513475D01*
X151013475Y-87306632D01*
X151175990Y-87063411D01*
X151287932Y-86793158D01*
X151345000Y-86506260D01*
X151345000Y-86213740D01*
X151287932Y-85926842D01*
X151175990Y-85656589D01*
X151037531Y-85449370D01*
X151546304Y-84940598D01*
X151575301Y-84916801D01*
X151609606Y-84875000D01*
X151670274Y-84801077D01*
X151740000Y-84670630D01*
X151740001Y-106020000D01*
G37*
X151740001Y-106020000D02*
X132740000Y-106020000D01*
X132740000Y-102526802D01*
X133442509Y-103229311D01*
X133304010Y-103436589D01*
X133192068Y-103706842D01*
X133135000Y-103993740D01*
X133135000Y-104286260D01*
X133192068Y-104573158D01*
X133304010Y-104843411D01*
X133466525Y-105086632D01*
X133673368Y-105293475D01*
X133916589Y-105455990D01*
X134186842Y-105567932D01*
X134473740Y-105625000D01*
X134766260Y-105625000D01*
X135053158Y-105567932D01*
X135323411Y-105455990D01*
X135566632Y-105293475D01*
X135773475Y-105086632D01*
X135838042Y-104990000D01*
X148371928Y-104990000D01*
X148384188Y-105114482D01*
X148420498Y-105234180D01*
X148479463Y-105344494D01*
X148558815Y-105441185D01*
X148655506Y-105520537D01*
X148765820Y-105579502D01*
X148885518Y-105615812D01*
X149010000Y-105628072D01*
X149574250Y-105625000D01*
X149733000Y-105466250D01*
X149733000Y-104267000D01*
X149987000Y-104267000D01*
X149987000Y-105466250D01*
X150145750Y-105625000D01*
X150710000Y-105628072D01*
X150834482Y-105615812D01*
X150954180Y-105579502D01*
X151064494Y-105520537D01*
X151161185Y-105441185D01*
X151240537Y-105344494D01*
X151299502Y-105234180D01*
X151335812Y-105114482D01*
X151348072Y-104990000D01*
X151345000Y-104425750D01*
X151186250Y-104267000D01*
X149987000Y-104267000D01*
X149733000Y-104267000D01*
X148533750Y-104267000D01*
X148375000Y-104425750D01*
X148371928Y-104990000D01*
X135838042Y-104990000D01*
X135935990Y-104843411D01*
X136047932Y-104573158D01*
X136105000Y-104286260D01*
X136105000Y-103993740D01*
X136047932Y-103706842D01*
X135935990Y-103436589D01*
X135773475Y-103193368D01*
X135566632Y-102986525D01*
X135384466Y-102864805D01*
X135501355Y-102795178D01*
X135717588Y-102600269D01*
X135891641Y-102366920D01*
X136016825Y-102104099D01*
X136061476Y-101956890D01*
X135940155Y-101727000D01*
X134747000Y-101727000D01*
X134747000Y-101747000D01*
X134493000Y-101747000D01*
X134493000Y-101727000D01*
X134473000Y-101727000D01*
X134473000Y-101473000D01*
X134493000Y-101473000D01*
X134493000Y-101453000D01*
X134747000Y-101453000D01*
X134747000Y-101473000D01*
X135940155Y-101473000D01*
X136061476Y-101243110D01*
X136016825Y-101095901D01*
X135891641Y-100833080D01*
X135717588Y-100599731D01*
X135501355Y-100404822D01*
X135384466Y-100335195D01*
X135566632Y-100213475D01*
X135773475Y-100006632D01*
X135935990Y-99763411D01*
X136047932Y-99493158D01*
X136105000Y-99206260D01*
X136105000Y-98913740D01*
X136047932Y-98626842D01*
X135935990Y-98356589D01*
X135797491Y-98149310D01*
X147446801Y-86500001D01*
X147446801Y-91481468D01*
X147443124Y-91518800D01*
X147457798Y-91667785D01*
X147501254Y-91811046D01*
X147571826Y-91943076D01*
X147643001Y-92029802D01*
X147666800Y-92058801D01*
X147695798Y-92082599D01*
X148682509Y-93069311D01*
X148544010Y-93276589D01*
X148432068Y-93546842D01*
X148375000Y-93833740D01*
X148375000Y-94126260D01*
X148432068Y-94413158D01*
X148544010Y-94683411D01*
X148706525Y-94926632D01*
X148913368Y-95133475D01*
X149087760Y-95250000D01*
X148913368Y-95366525D01*
X148706525Y-95573368D01*
X148544010Y-95816589D01*
X148432068Y-96086842D01*
X148375000Y-96373740D01*
X148375000Y-96666260D01*
X148432068Y-96953158D01*
X148544010Y-97223411D01*
X148706525Y-97466632D01*
X148913368Y-97673475D01*
X149087760Y-97790000D01*
X148913368Y-97906525D01*
X148706525Y-98113368D01*
X148544010Y-98356589D01*
X148432068Y-98626842D01*
X148375000Y-98913740D01*
X148375000Y-99206260D01*
X148432068Y-99493158D01*
X148544010Y-99763411D01*
X148706525Y-100006632D01*
X148913368Y-100213475D01*
X149087760Y-100330000D01*
X148913368Y-100446525D01*
X148706525Y-100653368D01*
X148544010Y-100896589D01*
X148432068Y-101166842D01*
X148375000Y-101453740D01*
X148375000Y-101746260D01*
X148432068Y-102033158D01*
X148544010Y-102303411D01*
X148706525Y-102546632D01*
X148838380Y-102678487D01*
X148765820Y-102700498D01*
X148655506Y-102759463D01*
X148558815Y-102838815D01*
X148479463Y-102935506D01*
X148420498Y-103045820D01*
X148384188Y-103165518D01*
X148371928Y-103290000D01*
X148375000Y-103854250D01*
X148533750Y-104013000D01*
X149733000Y-104013000D01*
X149733000Y-103993000D01*
X149987000Y-103993000D01*
X149987000Y-104013000D01*
X151186250Y-104013000D01*
X151345000Y-103854250D01*
X151348072Y-103290000D01*
X151335812Y-103165518D01*
X151299502Y-103045820D01*
X151240537Y-102935506D01*
X151161185Y-102838815D01*
X151064494Y-102759463D01*
X150954180Y-102700498D01*
X150881620Y-102678487D01*
X151013475Y-102546632D01*
X151175990Y-102303411D01*
X151287932Y-102033158D01*
X151345000Y-101746260D01*
X151345000Y-101453740D01*
X151287932Y-101166842D01*
X151175990Y-100896589D01*
X151013475Y-100653368D01*
X150806632Y-100446525D01*
X150632240Y-100330000D01*
X150806632Y-100213475D01*
X151013475Y-100006632D01*
X151175990Y-99763411D01*
X151287932Y-99493158D01*
X151345000Y-99206260D01*
X151345000Y-98913740D01*
X151287932Y-98626842D01*
X151175990Y-98356589D01*
X151013475Y-98113368D01*
X150806632Y-97906525D01*
X150632240Y-97790000D01*
X150806632Y-97673475D01*
X151013475Y-97466632D01*
X151175990Y-97223411D01*
X151287932Y-96953158D01*
X151345000Y-96666260D01*
X151345000Y-96373740D01*
X151287932Y-96086842D01*
X151175990Y-95816589D01*
X151013475Y-95573368D01*
X150806632Y-95366525D01*
X150632240Y-95250000D01*
X150806632Y-95133475D01*
X151013475Y-94926632D01*
X151175990Y-94683411D01*
X151287932Y-94413158D01*
X151345000Y-94126260D01*
X151345000Y-93833740D01*
X151287932Y-93546842D01*
X151175990Y-93276589D01*
X151013475Y-93033368D01*
X150806632Y-92826525D01*
X150632240Y-92710000D01*
X150806632Y-92593475D01*
X151013475Y-92386632D01*
X151175990Y-92143411D01*
X151287932Y-91873158D01*
X151345000Y-91586260D01*
X151345000Y-91293740D01*
X151287932Y-91006842D01*
X151175990Y-90736589D01*
X151013475Y-90493368D01*
X150806632Y-90286525D01*
X150632240Y-90170000D01*
X150806632Y-90053475D01*
X151013475Y-89846632D01*
X151175990Y-89603411D01*
X151287932Y-89333158D01*
X151345000Y-89046260D01*
X151345000Y-88753740D01*
X151287932Y-88466842D01*
X151175990Y-88196589D01*
X151013475Y-87953368D01*
X150806632Y-87746525D01*
X150632240Y-87630000D01*
X150806632Y-87513475D01*
X151013475Y-87306632D01*
X151175990Y-87063411D01*
X151287932Y-86793158D01*
X151345000Y-86506260D01*
X151345000Y-86213740D01*
X151287932Y-85926842D01*
X151175990Y-85656589D01*
X151037531Y-85449370D01*
X151546304Y-84940598D01*
X151575301Y-84916801D01*
X151609606Y-84875000D01*
X151670274Y-84801077D01*
X151740000Y-84670630D01*
X151740001Y-106020000D01*
G36*
X161671000Y-76073000D02*
G01*
X161691000Y-76073000D01*
X161691000Y-76327000D01*
X161671000Y-76327000D01*
X161671000Y-76347000D01*
X161417000Y-76347000D01*
X161417000Y-76327000D01*
X161397000Y-76327000D01*
X161397000Y-76073000D01*
X161417000Y-76073000D01*
X161417000Y-76053000D01*
X161671000Y-76053000D01*
X161671000Y-76073000D01*
G37*
X161671000Y-76073000D02*
X161691000Y-76073000D01*
X161691000Y-76327000D01*
X161671000Y-76327000D01*
X161671000Y-76347000D01*
X161417000Y-76347000D01*
X161417000Y-76327000D01*
X161397000Y-76327000D01*
X161397000Y-76073000D01*
X161417000Y-76073000D01*
X161417000Y-76053000D01*
X161671000Y-76053000D01*
X161671000Y-76073000D01*
G36*
X166751000Y-70993000D02*
G01*
X166771000Y-70993000D01*
X166771000Y-71247000D01*
X166751000Y-71247000D01*
X166751000Y-73533000D01*
X166771000Y-73533000D01*
X166771000Y-73787000D01*
X166751000Y-73787000D01*
X166751000Y-73807000D01*
X166497000Y-73807000D01*
X166497000Y-73787000D01*
X166477000Y-73787000D01*
X166477000Y-73533000D01*
X166497000Y-73533000D01*
X166497000Y-71247000D01*
X166477000Y-71247000D01*
X166477000Y-70993000D01*
X166497000Y-70993000D01*
X166497000Y-70973000D01*
X166751000Y-70973000D01*
X166751000Y-70993000D01*
G37*
X166751000Y-70993000D02*
X166771000Y-70993000D01*
X166771000Y-71247000D01*
X166751000Y-71247000D01*
X166751000Y-73533000D01*
X166771000Y-73533000D01*
X166771000Y-73787000D01*
X166751000Y-73787000D01*
X166751000Y-73807000D01*
X166497000Y-73807000D01*
X166497000Y-73787000D01*
X166477000Y-73787000D01*
X166477000Y-73533000D01*
X166497000Y-73533000D01*
X166497000Y-71247000D01*
X166477000Y-71247000D01*
X166477000Y-70993000D01*
X166497000Y-70993000D01*
X166497000Y-70973000D01*
X166751000Y-70973000D01*
X166751000Y-70993000D01*
M02*
