G04 #@! TF.GenerationSoftware,KiCad,Pcbnew,(5.1.5-0-10_14)*
G04 #@! TF.CreationDate,2020-10-09T23:43:10+02:00*
G04 #@! TF.ProjectId,es_twister,65735f74-7769-4737-9465-722e6b696361,rev?*
G04 #@! TF.SameCoordinates,Original*
G04 #@! TF.FileFunction,Legend,Bot*
G04 #@! TF.FilePolarity,Positive*
%FSLAX46Y46*%
G04 Gerber Fmt 4.6, Leading zero omitted, Abs format (unit mm)*
G04 Created by KiCad (PCBNEW (5.1.5-0-10_14)) date 2020-10-09 23:43:10*
%MOMM*%
%LPD*%
G04 APERTURE LIST*
%ADD10C,0.120000*%
%ADD11C,0.150000*%
G04 APERTURE END LIST*
D10*
X135890000Y-69850000D02*
X153670000Y-69850000D01*
X153670000Y-69850000D02*
X153670000Y-105410000D01*
X153670000Y-105410000D02*
X135890000Y-105410000D01*
X135890000Y-105410000D02*
X135890000Y-69850000D01*
X141605000Y-69850000D02*
X141605000Y-73660000D01*
X141605000Y-73660000D02*
X148590000Y-73660000D01*
X148590000Y-73660000D02*
X148590000Y-69850000D01*
D11*
X148660952Y-74382380D02*
X148089523Y-74382380D01*
X148375238Y-75382380D02*
X148375238Y-74382380D01*
X147375238Y-75334761D02*
X147470476Y-75382380D01*
X147660952Y-75382380D01*
X147756190Y-75334761D01*
X147803809Y-75239523D01*
X147803809Y-74858571D01*
X147756190Y-74763333D01*
X147660952Y-74715714D01*
X147470476Y-74715714D01*
X147375238Y-74763333D01*
X147327619Y-74858571D01*
X147327619Y-74953809D01*
X147803809Y-75049047D01*
X146518095Y-75334761D02*
X146613333Y-75382380D01*
X146803809Y-75382380D01*
X146899047Y-75334761D01*
X146946666Y-75239523D01*
X146946666Y-74858571D01*
X146899047Y-74763333D01*
X146803809Y-74715714D01*
X146613333Y-74715714D01*
X146518095Y-74763333D01*
X146470476Y-74858571D01*
X146470476Y-74953809D01*
X146946666Y-75049047D01*
X146041904Y-74715714D02*
X146041904Y-75382380D01*
X146041904Y-74810952D02*
X145994285Y-74763333D01*
X145899047Y-74715714D01*
X145756190Y-74715714D01*
X145660952Y-74763333D01*
X145613333Y-74858571D01*
X145613333Y-75382380D01*
X145184761Y-75334761D02*
X145089523Y-75382380D01*
X144899047Y-75382380D01*
X144803809Y-75334761D01*
X144756190Y-75239523D01*
X144756190Y-75191904D01*
X144803809Y-75096666D01*
X144899047Y-75049047D01*
X145041904Y-75049047D01*
X145137142Y-75001428D01*
X145184761Y-74906190D01*
X145184761Y-74858571D01*
X145137142Y-74763333D01*
X145041904Y-74715714D01*
X144899047Y-74715714D01*
X144803809Y-74763333D01*
X144422857Y-74715714D02*
X144184761Y-75382380D01*
X143946666Y-74715714D02*
X144184761Y-75382380D01*
X144280000Y-75620476D01*
X144327619Y-75668095D01*
X144422857Y-75715714D01*
X142899047Y-74382380D02*
X142280000Y-74382380D01*
X142613333Y-74763333D01*
X142470476Y-74763333D01*
X142375238Y-74810952D01*
X142327619Y-74858571D01*
X142280000Y-74953809D01*
X142280000Y-75191904D01*
X142327619Y-75287142D01*
X142375238Y-75334761D01*
X142470476Y-75382380D01*
X142756190Y-75382380D01*
X142851428Y-75334761D01*
X142899047Y-75287142D01*
X141851428Y-75287142D02*
X141803809Y-75334761D01*
X141851428Y-75382380D01*
X141899047Y-75334761D01*
X141851428Y-75287142D01*
X141851428Y-75382380D01*
X141470476Y-75382380D02*
X140946666Y-74715714D01*
X141470476Y-74715714D02*
X140946666Y-75382380D01*
M02*
