G04 #@! TF.GenerationSoftware,KiCad,Pcbnew,(5.1.5-0-10_14)*
G04 #@! TF.CreationDate,2020-10-22T20:12:41+02:00*
G04 #@! TF.ProjectId,es_twister,65735f74-7769-4737-9465-722e6b696361,rev?*
G04 #@! TF.SameCoordinates,Original*
G04 #@! TF.FileFunction,Legend,Top*
G04 #@! TF.FilePolarity,Positive*
%FSLAX46Y46*%
G04 Gerber Fmt 4.6, Leading zero omitted, Abs format (unit mm)*
G04 Created by KiCad (PCBNEW (5.1.5-0-10_14)) date 2020-10-22 20:12:41*
%MOMM*%
%LPD*%
G04 APERTURE LIST*
%ADD10C,0.200000*%
%ADD11C,0.300000*%
%ADD12C,0.190500*%
%ADD13C,0.150000*%
%ADD14C,0.120000*%
G04 APERTURE END LIST*
D10*
X138978095Y-96662142D02*
X138930476Y-96709761D01*
X138787619Y-96757380D01*
X138692380Y-96757380D01*
X138549523Y-96709761D01*
X138454285Y-96614523D01*
X138406666Y-96519285D01*
X138359047Y-96328809D01*
X138359047Y-96185952D01*
X138406666Y-95995476D01*
X138454285Y-95900238D01*
X138549523Y-95805000D01*
X138692380Y-95757380D01*
X138787619Y-95757380D01*
X138930476Y-95805000D01*
X138978095Y-95852619D01*
X139978095Y-96662142D02*
X139930476Y-96709761D01*
X139787619Y-96757380D01*
X139692380Y-96757380D01*
X139549523Y-96709761D01*
X139454285Y-96614523D01*
X139406666Y-96519285D01*
X139359047Y-96328809D01*
X139359047Y-96185952D01*
X139406666Y-95995476D01*
X139454285Y-95900238D01*
X139549523Y-95805000D01*
X139692380Y-95757380D01*
X139787619Y-95757380D01*
X139930476Y-95805000D01*
X139978095Y-95852619D01*
X140406666Y-96376428D02*
X141168571Y-96376428D01*
X141978095Y-96233571D02*
X142120952Y-96281190D01*
X142168571Y-96328809D01*
X142216190Y-96424047D01*
X142216190Y-96566904D01*
X142168571Y-96662142D01*
X142120952Y-96709761D01*
X142025714Y-96757380D01*
X141644761Y-96757380D01*
X141644761Y-95757380D01*
X141978095Y-95757380D01*
X142073333Y-95805000D01*
X142120952Y-95852619D01*
X142168571Y-95947857D01*
X142168571Y-96043095D01*
X142120952Y-96138333D01*
X142073333Y-96185952D01*
X141978095Y-96233571D01*
X141644761Y-96233571D01*
X142835238Y-96281190D02*
X142835238Y-96757380D01*
X142501904Y-95757380D02*
X142835238Y-96281190D01*
X143168571Y-95757380D01*
X143501904Y-96376428D02*
X144263809Y-96376428D01*
X144692380Y-96709761D02*
X144835238Y-96757380D01*
X145073333Y-96757380D01*
X145168571Y-96709761D01*
X145216190Y-96662142D01*
X145263809Y-96566904D01*
X145263809Y-96471666D01*
X145216190Y-96376428D01*
X145168571Y-96328809D01*
X145073333Y-96281190D01*
X144882857Y-96233571D01*
X144787619Y-96185952D01*
X144740000Y-96138333D01*
X144692380Y-96043095D01*
X144692380Y-95947857D01*
X144740000Y-95852619D01*
X144787619Y-95805000D01*
X144882857Y-95757380D01*
X145120952Y-95757380D01*
X145263809Y-95805000D01*
X145644761Y-96471666D02*
X146120952Y-96471666D01*
X145549523Y-96757380D02*
X145882857Y-95757380D01*
X146216190Y-96757380D01*
X141716190Y-97790714D02*
X141716190Y-98457380D01*
X141478095Y-97409761D02*
X141240000Y-98124047D01*
X141859047Y-98124047D01*
X142240000Y-98362142D02*
X142287619Y-98409761D01*
X142240000Y-98457380D01*
X142192380Y-98409761D01*
X142240000Y-98362142D01*
X142240000Y-98457380D01*
X142906666Y-97457380D02*
X143001904Y-97457380D01*
X143097142Y-97505000D01*
X143144761Y-97552619D01*
X143192380Y-97647857D01*
X143240000Y-97838333D01*
X143240000Y-98076428D01*
X143192380Y-98266904D01*
X143144761Y-98362142D01*
X143097142Y-98409761D01*
X143001904Y-98457380D01*
X142906666Y-98457380D01*
X142811428Y-98409761D01*
X142763809Y-98362142D01*
X142716190Y-98266904D01*
X142668571Y-98076428D01*
X142668571Y-97838333D01*
X142716190Y-97647857D01*
X142763809Y-97552619D01*
X142811428Y-97505000D01*
X142906666Y-97457380D01*
D11*
X143622142Y-80117857D02*
X143622142Y-80617857D01*
X142836428Y-80832142D02*
X142836428Y-80117857D01*
X144336428Y-80117857D01*
X144336428Y-80832142D01*
X143836428Y-82117857D02*
X142836428Y-82117857D01*
X143836428Y-81475000D02*
X143050714Y-81475000D01*
X142907857Y-81546428D01*
X142836428Y-81689285D01*
X142836428Y-81903571D01*
X142907857Y-82046428D01*
X142979285Y-82117857D01*
X142836428Y-82832142D02*
X143836428Y-82832142D01*
X143550714Y-82832142D02*
X143693571Y-82903571D01*
X143765000Y-82975000D01*
X143836428Y-83117857D01*
X143836428Y-83260714D01*
X142836428Y-83975000D02*
X142907857Y-83832142D01*
X142979285Y-83760714D01*
X143122142Y-83689285D01*
X143550714Y-83689285D01*
X143693571Y-83760714D01*
X143765000Y-83832142D01*
X143836428Y-83975000D01*
X143836428Y-84189285D01*
X143765000Y-84332142D01*
X143693571Y-84403571D01*
X143550714Y-84475000D01*
X143122142Y-84475000D01*
X142979285Y-84403571D01*
X142907857Y-84332142D01*
X142836428Y-84189285D01*
X142836428Y-83975000D01*
X142907857Y-85046428D02*
X142836428Y-85260714D01*
X142836428Y-85617857D01*
X142907857Y-85760714D01*
X142979285Y-85832142D01*
X143122142Y-85903571D01*
X143265000Y-85903571D01*
X143407857Y-85832142D01*
X143479285Y-85760714D01*
X143550714Y-85617857D01*
X143622142Y-85332142D01*
X143693571Y-85189285D01*
X143765000Y-85117857D01*
X143907857Y-85046428D01*
X144050714Y-85046428D01*
X144193571Y-85117857D01*
X144265000Y-85189285D01*
X144336428Y-85332142D01*
X144336428Y-85689285D01*
X144265000Y-85903571D01*
X142836428Y-86546428D02*
X144336428Y-86546428D01*
X142836428Y-87189285D02*
X143622142Y-87189285D01*
X143765000Y-87117857D01*
X143836428Y-86975000D01*
X143836428Y-86760714D01*
X143765000Y-86617857D01*
X143693571Y-86546428D01*
X142836428Y-87903571D02*
X143836428Y-87903571D01*
X144336428Y-87903571D02*
X144265000Y-87832142D01*
X144193571Y-87903571D01*
X144265000Y-87975000D01*
X144336428Y-87903571D01*
X144193571Y-87903571D01*
X142907857Y-89189285D02*
X142836428Y-89046428D01*
X142836428Y-88760714D01*
X142907857Y-88617857D01*
X143050714Y-88546428D01*
X143622142Y-88546428D01*
X143765000Y-88617857D01*
X143836428Y-88760714D01*
X143836428Y-89046428D01*
X143765000Y-89189285D01*
X143622142Y-89260714D01*
X143479285Y-89260714D01*
X143336428Y-88546428D01*
X142836428Y-90117857D02*
X142907857Y-89975000D01*
X143050714Y-89903571D01*
X144336428Y-89903571D01*
X142836428Y-91332142D02*
X144336428Y-91332142D01*
X142907857Y-91332142D02*
X142836428Y-91189285D01*
X142836428Y-90903571D01*
X142907857Y-90760714D01*
X142979285Y-90689285D01*
X143122142Y-90617857D01*
X143550714Y-90617857D01*
X143693571Y-90689285D01*
X143765000Y-90760714D01*
X143836428Y-90903571D01*
X143836428Y-91189285D01*
X143765000Y-91332142D01*
X141786428Y-78082142D02*
X141786428Y-78939285D01*
X140286428Y-78510714D02*
X141786428Y-78510714D01*
X141286428Y-79296428D02*
X140286428Y-79582142D01*
X141000714Y-79867857D01*
X140286428Y-80153571D01*
X141286428Y-80439285D01*
X140286428Y-81010714D02*
X141286428Y-81010714D01*
X141786428Y-81010714D02*
X141715000Y-80939285D01*
X141643571Y-81010714D01*
X141715000Y-81082142D01*
X141786428Y-81010714D01*
X141643571Y-81010714D01*
X140357857Y-81653571D02*
X140286428Y-81796428D01*
X140286428Y-82082142D01*
X140357857Y-82225000D01*
X140500714Y-82296428D01*
X140572142Y-82296428D01*
X140715000Y-82225000D01*
X140786428Y-82082142D01*
X140786428Y-81867857D01*
X140857857Y-81725000D01*
X141000714Y-81653571D01*
X141072142Y-81653571D01*
X141215000Y-81725000D01*
X141286428Y-81867857D01*
X141286428Y-82082142D01*
X141215000Y-82225000D01*
X141286428Y-82725000D02*
X141286428Y-83296428D01*
X141786428Y-82939285D02*
X140500714Y-82939285D01*
X140357857Y-83010714D01*
X140286428Y-83153571D01*
X140286428Y-83296428D01*
X140357857Y-84367857D02*
X140286428Y-84225000D01*
X140286428Y-83939285D01*
X140357857Y-83796428D01*
X140500714Y-83725000D01*
X141072142Y-83725000D01*
X141215000Y-83796428D01*
X141286428Y-83939285D01*
X141286428Y-84225000D01*
X141215000Y-84367857D01*
X141072142Y-84439285D01*
X140929285Y-84439285D01*
X140786428Y-83725000D01*
X140286428Y-85082142D02*
X141286428Y-85082142D01*
X141000714Y-85082142D02*
X141143571Y-85153571D01*
X141215000Y-85225000D01*
X141286428Y-85367857D01*
X141286428Y-85510714D01*
X141072142Y-87653571D02*
X141000714Y-87867857D01*
X140929285Y-87939285D01*
X140786428Y-88010714D01*
X140572142Y-88010714D01*
X140429285Y-87939285D01*
X140357857Y-87867857D01*
X140286428Y-87725000D01*
X140286428Y-87153571D01*
X141786428Y-87153571D01*
X141786428Y-87653571D01*
X141715000Y-87796428D01*
X141643571Y-87867857D01*
X141500714Y-87939285D01*
X141357857Y-87939285D01*
X141215000Y-87867857D01*
X141143571Y-87796428D01*
X141072142Y-87653571D01*
X141072142Y-87153571D01*
X141286428Y-89296428D02*
X140286428Y-89296428D01*
X141286428Y-88653571D02*
X140500714Y-88653571D01*
X140357857Y-88725000D01*
X140286428Y-88867857D01*
X140286428Y-89082142D01*
X140357857Y-89225000D01*
X140429285Y-89296428D01*
X140286428Y-90653571D02*
X141786428Y-90653571D01*
X140357857Y-90653571D02*
X140286428Y-90510714D01*
X140286428Y-90225000D01*
X140357857Y-90082142D01*
X140429285Y-90010714D01*
X140572142Y-89939285D01*
X141000714Y-89939285D01*
X141143571Y-90010714D01*
X141215000Y-90082142D01*
X141286428Y-90225000D01*
X141286428Y-90510714D01*
X141215000Y-90653571D01*
X140286428Y-92010714D02*
X141786428Y-92010714D01*
X140357857Y-92010714D02*
X140286428Y-91867857D01*
X140286428Y-91582142D01*
X140357857Y-91439285D01*
X140429285Y-91367857D01*
X140572142Y-91296428D01*
X141000714Y-91296428D01*
X141143571Y-91367857D01*
X141215000Y-91439285D01*
X141286428Y-91582142D01*
X141286428Y-91867857D01*
X141215000Y-92010714D01*
X141286428Y-92582142D02*
X140286428Y-92939285D01*
X141286428Y-93296428D02*
X140286428Y-92939285D01*
X139929285Y-92796428D01*
X139857857Y-92725000D01*
X139786428Y-92582142D01*
D12*
X139740000Y-71981785D02*
X139811428Y-71945500D01*
X139954285Y-71909214D01*
X140311428Y-71909214D01*
X140454285Y-71945500D01*
X140525714Y-71981785D01*
X140597142Y-72054357D01*
X140597142Y-72126928D01*
X140525714Y-72235785D01*
X139668571Y-72671214D01*
X140597142Y-72671214D01*
X141454285Y-72671214D02*
X141311428Y-72634928D01*
X141240000Y-72598642D01*
X141168571Y-72526071D01*
X141168571Y-72308357D01*
X141240000Y-72235785D01*
X141311428Y-72199500D01*
X141454285Y-72163214D01*
X141668571Y-72163214D01*
X141811428Y-72199500D01*
X141882857Y-72235785D01*
X141954285Y-72308357D01*
X141954285Y-72526071D01*
X141882857Y-72598642D01*
X141811428Y-72634928D01*
X141668571Y-72671214D01*
X141454285Y-72671214D01*
X142525714Y-71981785D02*
X142597142Y-71945500D01*
X142740000Y-71909214D01*
X143097142Y-71909214D01*
X143240000Y-71945500D01*
X143311428Y-71981785D01*
X143382857Y-72054357D01*
X143382857Y-72126928D01*
X143311428Y-72235785D01*
X142454285Y-72671214D01*
X143382857Y-72671214D01*
X144240000Y-72671214D02*
X144097142Y-72634928D01*
X144025714Y-72598642D01*
X143954285Y-72526071D01*
X143954285Y-72308357D01*
X144025714Y-72235785D01*
X144097142Y-72199500D01*
X144240000Y-72163214D01*
X144454285Y-72163214D01*
X144597142Y-72199500D01*
X144668571Y-72235785D01*
X144740000Y-72308357D01*
X144740000Y-72526071D01*
X144668571Y-72598642D01*
X144597142Y-72634928D01*
X144454285Y-72671214D01*
X144240000Y-72671214D01*
X139168571Y-74004714D02*
X139025714Y-73968428D01*
X138954285Y-73895857D01*
X138954285Y-73242714D01*
X140382857Y-74004714D02*
X140382857Y-73605571D01*
X140311428Y-73533000D01*
X140168571Y-73496714D01*
X139882857Y-73496714D01*
X139740000Y-73533000D01*
X140382857Y-73968428D02*
X140240000Y-74004714D01*
X139882857Y-74004714D01*
X139740000Y-73968428D01*
X139668571Y-73895857D01*
X139668571Y-73823285D01*
X139740000Y-73750714D01*
X139882857Y-73714428D01*
X140240000Y-73714428D01*
X140382857Y-73678142D01*
X141311428Y-74004714D02*
X141168571Y-73968428D01*
X141097142Y-73895857D01*
X141097142Y-73242714D01*
X142097142Y-74004714D02*
X141954285Y-73968428D01*
X141882857Y-73895857D01*
X141882857Y-73242714D01*
X143311428Y-74004714D02*
X143311428Y-73605571D01*
X143240000Y-73533000D01*
X143097142Y-73496714D01*
X142811428Y-73496714D01*
X142668571Y-73533000D01*
X143311428Y-73968428D02*
X143168571Y-74004714D01*
X142811428Y-74004714D01*
X142668571Y-73968428D01*
X142597142Y-73895857D01*
X142597142Y-73823285D01*
X142668571Y-73750714D01*
X142811428Y-73714428D01*
X143168571Y-73714428D01*
X143311428Y-73678142D01*
X143811428Y-73496714D02*
X144382857Y-73496714D01*
X144025714Y-74004714D02*
X144025714Y-73351571D01*
X144097142Y-73279000D01*
X144240000Y-73242714D01*
X144382857Y-73242714D01*
X145525714Y-74004714D02*
X145525714Y-73605571D01*
X145454285Y-73533000D01*
X145311428Y-73496714D01*
X145025714Y-73496714D01*
X144882857Y-73533000D01*
X145525714Y-73968428D02*
X145382857Y-74004714D01*
X145025714Y-74004714D01*
X144882857Y-73968428D01*
X144811428Y-73895857D01*
X144811428Y-73823285D01*
X144882857Y-73750714D01*
X145025714Y-73714428D01*
X145382857Y-73714428D01*
X145525714Y-73678142D01*
X139132857Y-75338214D02*
X138632857Y-74975357D01*
X138275714Y-75338214D02*
X138275714Y-74576214D01*
X138847142Y-74576214D01*
X138990000Y-74612500D01*
X139061428Y-74648785D01*
X139132857Y-74721357D01*
X139132857Y-74830214D01*
X139061428Y-74902785D01*
X138990000Y-74939071D01*
X138847142Y-74975357D01*
X138275714Y-74975357D01*
X140347142Y-75301928D02*
X140204285Y-75338214D01*
X139918571Y-75338214D01*
X139775714Y-75301928D01*
X139704285Y-75229357D01*
X139704285Y-74939071D01*
X139775714Y-74866500D01*
X139918571Y-74830214D01*
X140204285Y-74830214D01*
X140347142Y-74866500D01*
X140418571Y-74939071D01*
X140418571Y-75011642D01*
X139704285Y-75084214D01*
X140918571Y-74830214D02*
X141275714Y-75338214D01*
X141632857Y-74830214D01*
X144132857Y-75338214D02*
X143275714Y-75338214D01*
X143704285Y-75338214D02*
X143704285Y-74576214D01*
X143561428Y-74685071D01*
X143418571Y-74757642D01*
X143275714Y-74793928D01*
X144775714Y-75265642D02*
X144847142Y-75301928D01*
X144775714Y-75338214D01*
X144704285Y-75301928D01*
X144775714Y-75265642D01*
X144775714Y-75338214D01*
X145775714Y-74576214D02*
X145918571Y-74576214D01*
X146061428Y-74612500D01*
X146132857Y-74648785D01*
X146204285Y-74721357D01*
X146275714Y-74866500D01*
X146275714Y-75047928D01*
X146204285Y-75193071D01*
X146132857Y-75265642D01*
X146061428Y-75301928D01*
X145918571Y-75338214D01*
X145775714Y-75338214D01*
X145632857Y-75301928D01*
X145561428Y-75265642D01*
X145490000Y-75193071D01*
X145418571Y-75047928D01*
X145418571Y-74866500D01*
X145490000Y-74721357D01*
X145561428Y-74648785D01*
X145632857Y-74612500D01*
X145775714Y-74576214D01*
D13*
X138359047Y-99782380D02*
X138930476Y-99782380D01*
X138644761Y-100782380D02*
X138644761Y-99782380D01*
X139644761Y-100734761D02*
X139549523Y-100782380D01*
X139359047Y-100782380D01*
X139263809Y-100734761D01*
X139216190Y-100639523D01*
X139216190Y-100258571D01*
X139263809Y-100163333D01*
X139359047Y-100115714D01*
X139549523Y-100115714D01*
X139644761Y-100163333D01*
X139692380Y-100258571D01*
X139692380Y-100353809D01*
X139216190Y-100449047D01*
X140501904Y-100734761D02*
X140406666Y-100782380D01*
X140216190Y-100782380D01*
X140120952Y-100734761D01*
X140073333Y-100639523D01*
X140073333Y-100258571D01*
X140120952Y-100163333D01*
X140216190Y-100115714D01*
X140406666Y-100115714D01*
X140501904Y-100163333D01*
X140549523Y-100258571D01*
X140549523Y-100353809D01*
X140073333Y-100449047D01*
X140978095Y-100115714D02*
X140978095Y-100782380D01*
X140978095Y-100210952D02*
X141025714Y-100163333D01*
X141120952Y-100115714D01*
X141263809Y-100115714D01*
X141359047Y-100163333D01*
X141406666Y-100258571D01*
X141406666Y-100782380D01*
X141835238Y-100734761D02*
X141930476Y-100782380D01*
X142120952Y-100782380D01*
X142216190Y-100734761D01*
X142263809Y-100639523D01*
X142263809Y-100591904D01*
X142216190Y-100496666D01*
X142120952Y-100449047D01*
X141978095Y-100449047D01*
X141882857Y-100401428D01*
X141835238Y-100306190D01*
X141835238Y-100258571D01*
X141882857Y-100163333D01*
X141978095Y-100115714D01*
X142120952Y-100115714D01*
X142216190Y-100163333D01*
X142597142Y-100115714D02*
X142835238Y-100782380D01*
X143073333Y-100115714D02*
X142835238Y-100782380D01*
X142740000Y-101020476D01*
X142692380Y-101068095D01*
X142597142Y-101115714D01*
X144120952Y-99782380D02*
X144740000Y-99782380D01*
X144406666Y-100163333D01*
X144549523Y-100163333D01*
X144644761Y-100210952D01*
X144692380Y-100258571D01*
X144740000Y-100353809D01*
X144740000Y-100591904D01*
X144692380Y-100687142D01*
X144644761Y-100734761D01*
X144549523Y-100782380D01*
X144263809Y-100782380D01*
X144168571Y-100734761D01*
X144120952Y-100687142D01*
X145168571Y-100687142D02*
X145216190Y-100734761D01*
X145168571Y-100782380D01*
X145120952Y-100734761D01*
X145168571Y-100687142D01*
X145168571Y-100782380D01*
X145549523Y-100782380D02*
X146073333Y-100115714D01*
X145549523Y-100115714D02*
X146073333Y-100782380D01*
D14*
X138430000Y-101600000D02*
X138430000Y-105410000D01*
X145415000Y-101600000D02*
X138430000Y-101600000D01*
X145415000Y-105410000D02*
X145415000Y-101600000D01*
X151130000Y-69850000D02*
X151130000Y-105410000D01*
X133350000Y-69850000D02*
X151130000Y-69850000D01*
X133350000Y-105410000D02*
X133350000Y-69850000D01*
X151130000Y-105410000D02*
X133350000Y-105410000D01*
M02*
