G04 #@! TF.GenerationSoftware,KiCad,Pcbnew,(5.1.5-0-10_14)*
G04 #@! TF.CreationDate,2020-10-09T23:43:10+02:00*
G04 #@! TF.ProjectId,es_twister,65735f74-7769-4737-9465-722e6b696361,rev?*
G04 #@! TF.SameCoordinates,Original*
G04 #@! TF.FileFunction,Legend,Top*
G04 #@! TF.FilePolarity,Positive*
%FSLAX46Y46*%
G04 Gerber Fmt 4.6, Leading zero omitted, Abs format (unit mm)*
G04 Created by KiCad (PCBNEW (5.1.5-0-10_14)) date 2020-10-09 23:43:10*
%MOMM*%
%LPD*%
G04 APERTURE LIST*
%ADD10C,0.300000*%
%ADD11C,0.190500*%
%ADD12C,0.150000*%
%ADD13C,0.120000*%
G04 APERTURE END LIST*
D10*
X143622142Y-82022857D02*
X143622142Y-82522857D01*
X142836428Y-82737142D02*
X142836428Y-82022857D01*
X144336428Y-82022857D01*
X144336428Y-82737142D01*
X143836428Y-84022857D02*
X142836428Y-84022857D01*
X143836428Y-83380000D02*
X143050714Y-83380000D01*
X142907857Y-83451428D01*
X142836428Y-83594285D01*
X142836428Y-83808571D01*
X142907857Y-83951428D01*
X142979285Y-84022857D01*
X142836428Y-84737142D02*
X143836428Y-84737142D01*
X143550714Y-84737142D02*
X143693571Y-84808571D01*
X143765000Y-84880000D01*
X143836428Y-85022857D01*
X143836428Y-85165714D01*
X142836428Y-85880000D02*
X142907857Y-85737142D01*
X142979285Y-85665714D01*
X143122142Y-85594285D01*
X143550714Y-85594285D01*
X143693571Y-85665714D01*
X143765000Y-85737142D01*
X143836428Y-85880000D01*
X143836428Y-86094285D01*
X143765000Y-86237142D01*
X143693571Y-86308571D01*
X143550714Y-86380000D01*
X143122142Y-86380000D01*
X142979285Y-86308571D01*
X142907857Y-86237142D01*
X142836428Y-86094285D01*
X142836428Y-85880000D01*
X142907857Y-86951428D02*
X142836428Y-87165714D01*
X142836428Y-87522857D01*
X142907857Y-87665714D01*
X142979285Y-87737142D01*
X143122142Y-87808571D01*
X143265000Y-87808571D01*
X143407857Y-87737142D01*
X143479285Y-87665714D01*
X143550714Y-87522857D01*
X143622142Y-87237142D01*
X143693571Y-87094285D01*
X143765000Y-87022857D01*
X143907857Y-86951428D01*
X144050714Y-86951428D01*
X144193571Y-87022857D01*
X144265000Y-87094285D01*
X144336428Y-87237142D01*
X144336428Y-87594285D01*
X144265000Y-87808571D01*
X142836428Y-88451428D02*
X144336428Y-88451428D01*
X142836428Y-89094285D02*
X143622142Y-89094285D01*
X143765000Y-89022857D01*
X143836428Y-88880000D01*
X143836428Y-88665714D01*
X143765000Y-88522857D01*
X143693571Y-88451428D01*
X142836428Y-89808571D02*
X143836428Y-89808571D01*
X144336428Y-89808571D02*
X144265000Y-89737142D01*
X144193571Y-89808571D01*
X144265000Y-89880000D01*
X144336428Y-89808571D01*
X144193571Y-89808571D01*
X142907857Y-91094285D02*
X142836428Y-90951428D01*
X142836428Y-90665714D01*
X142907857Y-90522857D01*
X143050714Y-90451428D01*
X143622142Y-90451428D01*
X143765000Y-90522857D01*
X143836428Y-90665714D01*
X143836428Y-90951428D01*
X143765000Y-91094285D01*
X143622142Y-91165714D01*
X143479285Y-91165714D01*
X143336428Y-90451428D01*
X142836428Y-92022857D02*
X142907857Y-91880000D01*
X143050714Y-91808571D01*
X144336428Y-91808571D01*
X142836428Y-93237142D02*
X144336428Y-93237142D01*
X142907857Y-93237142D02*
X142836428Y-93094285D01*
X142836428Y-92808571D01*
X142907857Y-92665714D01*
X142979285Y-92594285D01*
X143122142Y-92522857D01*
X143550714Y-92522857D01*
X143693571Y-92594285D01*
X143765000Y-92665714D01*
X143836428Y-92808571D01*
X143836428Y-93094285D01*
X143765000Y-93237142D01*
X141786428Y-79987142D02*
X141786428Y-80844285D01*
X140286428Y-80415714D02*
X141786428Y-80415714D01*
X141286428Y-81201428D02*
X140286428Y-81487142D01*
X141000714Y-81772857D01*
X140286428Y-82058571D01*
X141286428Y-82344285D01*
X140286428Y-82915714D02*
X141286428Y-82915714D01*
X141786428Y-82915714D02*
X141715000Y-82844285D01*
X141643571Y-82915714D01*
X141715000Y-82987142D01*
X141786428Y-82915714D01*
X141643571Y-82915714D01*
X140357857Y-83558571D02*
X140286428Y-83701428D01*
X140286428Y-83987142D01*
X140357857Y-84130000D01*
X140500714Y-84201428D01*
X140572142Y-84201428D01*
X140715000Y-84130000D01*
X140786428Y-83987142D01*
X140786428Y-83772857D01*
X140857857Y-83630000D01*
X141000714Y-83558571D01*
X141072142Y-83558571D01*
X141215000Y-83630000D01*
X141286428Y-83772857D01*
X141286428Y-83987142D01*
X141215000Y-84130000D01*
X141286428Y-84630000D02*
X141286428Y-85201428D01*
X141786428Y-84844285D02*
X140500714Y-84844285D01*
X140357857Y-84915714D01*
X140286428Y-85058571D01*
X140286428Y-85201428D01*
X140357857Y-86272857D02*
X140286428Y-86130000D01*
X140286428Y-85844285D01*
X140357857Y-85701428D01*
X140500714Y-85630000D01*
X141072142Y-85630000D01*
X141215000Y-85701428D01*
X141286428Y-85844285D01*
X141286428Y-86130000D01*
X141215000Y-86272857D01*
X141072142Y-86344285D01*
X140929285Y-86344285D01*
X140786428Y-85630000D01*
X140286428Y-86987142D02*
X141286428Y-86987142D01*
X141000714Y-86987142D02*
X141143571Y-87058571D01*
X141215000Y-87130000D01*
X141286428Y-87272857D01*
X141286428Y-87415714D01*
X141072142Y-89558571D02*
X141000714Y-89772857D01*
X140929285Y-89844285D01*
X140786428Y-89915714D01*
X140572142Y-89915714D01*
X140429285Y-89844285D01*
X140357857Y-89772857D01*
X140286428Y-89630000D01*
X140286428Y-89058571D01*
X141786428Y-89058571D01*
X141786428Y-89558571D01*
X141715000Y-89701428D01*
X141643571Y-89772857D01*
X141500714Y-89844285D01*
X141357857Y-89844285D01*
X141215000Y-89772857D01*
X141143571Y-89701428D01*
X141072142Y-89558571D01*
X141072142Y-89058571D01*
X141286428Y-91201428D02*
X140286428Y-91201428D01*
X141286428Y-90558571D02*
X140500714Y-90558571D01*
X140357857Y-90630000D01*
X140286428Y-90772857D01*
X140286428Y-90987142D01*
X140357857Y-91130000D01*
X140429285Y-91201428D01*
X140286428Y-92558571D02*
X141786428Y-92558571D01*
X140357857Y-92558571D02*
X140286428Y-92415714D01*
X140286428Y-92130000D01*
X140357857Y-91987142D01*
X140429285Y-91915714D01*
X140572142Y-91844285D01*
X141000714Y-91844285D01*
X141143571Y-91915714D01*
X141215000Y-91987142D01*
X141286428Y-92130000D01*
X141286428Y-92415714D01*
X141215000Y-92558571D01*
X140286428Y-93915714D02*
X141786428Y-93915714D01*
X140357857Y-93915714D02*
X140286428Y-93772857D01*
X140286428Y-93487142D01*
X140357857Y-93344285D01*
X140429285Y-93272857D01*
X140572142Y-93201428D01*
X141000714Y-93201428D01*
X141143571Y-93272857D01*
X141215000Y-93344285D01*
X141286428Y-93487142D01*
X141286428Y-93772857D01*
X141215000Y-93915714D01*
X141286428Y-94487142D02*
X140286428Y-94844285D01*
X141286428Y-95201428D02*
X140286428Y-94844285D01*
X139929285Y-94701428D01*
X139857857Y-94630000D01*
X139786428Y-94487142D01*
D11*
X139740000Y-71981785D02*
X139811428Y-71945500D01*
X139954285Y-71909214D01*
X140311428Y-71909214D01*
X140454285Y-71945500D01*
X140525714Y-71981785D01*
X140597142Y-72054357D01*
X140597142Y-72126928D01*
X140525714Y-72235785D01*
X139668571Y-72671214D01*
X140597142Y-72671214D01*
X141454285Y-72671214D02*
X141311428Y-72634928D01*
X141240000Y-72598642D01*
X141168571Y-72526071D01*
X141168571Y-72308357D01*
X141240000Y-72235785D01*
X141311428Y-72199500D01*
X141454285Y-72163214D01*
X141668571Y-72163214D01*
X141811428Y-72199500D01*
X141882857Y-72235785D01*
X141954285Y-72308357D01*
X141954285Y-72526071D01*
X141882857Y-72598642D01*
X141811428Y-72634928D01*
X141668571Y-72671214D01*
X141454285Y-72671214D01*
X142525714Y-71981785D02*
X142597142Y-71945500D01*
X142740000Y-71909214D01*
X143097142Y-71909214D01*
X143240000Y-71945500D01*
X143311428Y-71981785D01*
X143382857Y-72054357D01*
X143382857Y-72126928D01*
X143311428Y-72235785D01*
X142454285Y-72671214D01*
X143382857Y-72671214D01*
X144240000Y-72671214D02*
X144097142Y-72634928D01*
X144025714Y-72598642D01*
X143954285Y-72526071D01*
X143954285Y-72308357D01*
X144025714Y-72235785D01*
X144097142Y-72199500D01*
X144240000Y-72163214D01*
X144454285Y-72163214D01*
X144597142Y-72199500D01*
X144668571Y-72235785D01*
X144740000Y-72308357D01*
X144740000Y-72526071D01*
X144668571Y-72598642D01*
X144597142Y-72634928D01*
X144454285Y-72671214D01*
X144240000Y-72671214D01*
X139168571Y-74004714D02*
X139025714Y-73968428D01*
X138954285Y-73895857D01*
X138954285Y-73242714D01*
X140382857Y-74004714D02*
X140382857Y-73605571D01*
X140311428Y-73533000D01*
X140168571Y-73496714D01*
X139882857Y-73496714D01*
X139740000Y-73533000D01*
X140382857Y-73968428D02*
X140240000Y-74004714D01*
X139882857Y-74004714D01*
X139740000Y-73968428D01*
X139668571Y-73895857D01*
X139668571Y-73823285D01*
X139740000Y-73750714D01*
X139882857Y-73714428D01*
X140240000Y-73714428D01*
X140382857Y-73678142D01*
X141311428Y-74004714D02*
X141168571Y-73968428D01*
X141097142Y-73895857D01*
X141097142Y-73242714D01*
X142097142Y-74004714D02*
X141954285Y-73968428D01*
X141882857Y-73895857D01*
X141882857Y-73242714D01*
X143311428Y-74004714D02*
X143311428Y-73605571D01*
X143240000Y-73533000D01*
X143097142Y-73496714D01*
X142811428Y-73496714D01*
X142668571Y-73533000D01*
X143311428Y-73968428D02*
X143168571Y-74004714D01*
X142811428Y-74004714D01*
X142668571Y-73968428D01*
X142597142Y-73895857D01*
X142597142Y-73823285D01*
X142668571Y-73750714D01*
X142811428Y-73714428D01*
X143168571Y-73714428D01*
X143311428Y-73678142D01*
X143811428Y-73496714D02*
X144382857Y-73496714D01*
X144025714Y-74004714D02*
X144025714Y-73351571D01*
X144097142Y-73279000D01*
X144240000Y-73242714D01*
X144382857Y-73242714D01*
X145525714Y-74004714D02*
X145525714Y-73605571D01*
X145454285Y-73533000D01*
X145311428Y-73496714D01*
X145025714Y-73496714D01*
X144882857Y-73533000D01*
X145525714Y-73968428D02*
X145382857Y-74004714D01*
X145025714Y-74004714D01*
X144882857Y-73968428D01*
X144811428Y-73895857D01*
X144811428Y-73823285D01*
X144882857Y-73750714D01*
X145025714Y-73714428D01*
X145382857Y-73714428D01*
X145525714Y-73678142D01*
X139132857Y-75338214D02*
X138632857Y-74975357D01*
X138275714Y-75338214D02*
X138275714Y-74576214D01*
X138847142Y-74576214D01*
X138990000Y-74612500D01*
X139061428Y-74648785D01*
X139132857Y-74721357D01*
X139132857Y-74830214D01*
X139061428Y-74902785D01*
X138990000Y-74939071D01*
X138847142Y-74975357D01*
X138275714Y-74975357D01*
X140347142Y-75301928D02*
X140204285Y-75338214D01*
X139918571Y-75338214D01*
X139775714Y-75301928D01*
X139704285Y-75229357D01*
X139704285Y-74939071D01*
X139775714Y-74866500D01*
X139918571Y-74830214D01*
X140204285Y-74830214D01*
X140347142Y-74866500D01*
X140418571Y-74939071D01*
X140418571Y-75011642D01*
X139704285Y-75084214D01*
X140918571Y-74830214D02*
X141275714Y-75338214D01*
X141632857Y-74830214D01*
X144132857Y-75338214D02*
X143275714Y-75338214D01*
X143704285Y-75338214D02*
X143704285Y-74576214D01*
X143561428Y-74685071D01*
X143418571Y-74757642D01*
X143275714Y-74793928D01*
X144775714Y-75265642D02*
X144847142Y-75301928D01*
X144775714Y-75338214D01*
X144704285Y-75301928D01*
X144775714Y-75265642D01*
X144775714Y-75338214D01*
X145775714Y-74576214D02*
X145918571Y-74576214D01*
X146061428Y-74612500D01*
X146132857Y-74648785D01*
X146204285Y-74721357D01*
X146275714Y-74866500D01*
X146275714Y-75047928D01*
X146204285Y-75193071D01*
X146132857Y-75265642D01*
X146061428Y-75301928D01*
X145918571Y-75338214D01*
X145775714Y-75338214D01*
X145632857Y-75301928D01*
X145561428Y-75265642D01*
X145490000Y-75193071D01*
X145418571Y-75047928D01*
X145418571Y-74866500D01*
X145490000Y-74721357D01*
X145561428Y-74648785D01*
X145632857Y-74612500D01*
X145775714Y-74576214D01*
D12*
X138359047Y-99782380D02*
X138930476Y-99782380D01*
X138644761Y-100782380D02*
X138644761Y-99782380D01*
X139644761Y-100734761D02*
X139549523Y-100782380D01*
X139359047Y-100782380D01*
X139263809Y-100734761D01*
X139216190Y-100639523D01*
X139216190Y-100258571D01*
X139263809Y-100163333D01*
X139359047Y-100115714D01*
X139549523Y-100115714D01*
X139644761Y-100163333D01*
X139692380Y-100258571D01*
X139692380Y-100353809D01*
X139216190Y-100449047D01*
X140501904Y-100734761D02*
X140406666Y-100782380D01*
X140216190Y-100782380D01*
X140120952Y-100734761D01*
X140073333Y-100639523D01*
X140073333Y-100258571D01*
X140120952Y-100163333D01*
X140216190Y-100115714D01*
X140406666Y-100115714D01*
X140501904Y-100163333D01*
X140549523Y-100258571D01*
X140549523Y-100353809D01*
X140073333Y-100449047D01*
X140978095Y-100115714D02*
X140978095Y-100782380D01*
X140978095Y-100210952D02*
X141025714Y-100163333D01*
X141120952Y-100115714D01*
X141263809Y-100115714D01*
X141359047Y-100163333D01*
X141406666Y-100258571D01*
X141406666Y-100782380D01*
X141835238Y-100734761D02*
X141930476Y-100782380D01*
X142120952Y-100782380D01*
X142216190Y-100734761D01*
X142263809Y-100639523D01*
X142263809Y-100591904D01*
X142216190Y-100496666D01*
X142120952Y-100449047D01*
X141978095Y-100449047D01*
X141882857Y-100401428D01*
X141835238Y-100306190D01*
X141835238Y-100258571D01*
X141882857Y-100163333D01*
X141978095Y-100115714D01*
X142120952Y-100115714D01*
X142216190Y-100163333D01*
X142597142Y-100115714D02*
X142835238Y-100782380D01*
X143073333Y-100115714D02*
X142835238Y-100782380D01*
X142740000Y-101020476D01*
X142692380Y-101068095D01*
X142597142Y-101115714D01*
X144120952Y-99782380D02*
X144740000Y-99782380D01*
X144406666Y-100163333D01*
X144549523Y-100163333D01*
X144644761Y-100210952D01*
X144692380Y-100258571D01*
X144740000Y-100353809D01*
X144740000Y-100591904D01*
X144692380Y-100687142D01*
X144644761Y-100734761D01*
X144549523Y-100782380D01*
X144263809Y-100782380D01*
X144168571Y-100734761D01*
X144120952Y-100687142D01*
X145168571Y-100687142D02*
X145216190Y-100734761D01*
X145168571Y-100782380D01*
X145120952Y-100734761D01*
X145168571Y-100687142D01*
X145168571Y-100782380D01*
X145549523Y-100782380D02*
X146073333Y-100115714D01*
X145549523Y-100115714D02*
X146073333Y-100782380D01*
D13*
X138430000Y-101600000D02*
X138430000Y-105410000D01*
X145415000Y-101600000D02*
X138430000Y-101600000D01*
X145415000Y-105410000D02*
X145415000Y-101600000D01*
X151130000Y-69850000D02*
X151130000Y-105410000D01*
X133350000Y-69850000D02*
X151130000Y-69850000D01*
X133350000Y-105410000D02*
X133350000Y-69850000D01*
X151130000Y-105410000D02*
X133350000Y-105410000D01*
M02*
