G04 #@! TF.GenerationSoftware,KiCad,Pcbnew,(5.1.5-0-10_14)*
G04 #@! TF.CreationDate,2020-10-09T23:43:10+02:00*
G04 #@! TF.ProjectId,es_twister,65735f74-7769-4737-9465-722e6b696361,rev?*
G04 #@! TF.SameCoordinates,Original*
G04 #@! TF.FileFunction,Copper,L1,Top*
G04 #@! TF.FilePolarity,Positive*
%FSLAX46Y46*%
G04 Gerber Fmt 4.6, Leading zero omitted, Abs format (unit mm)*
G04 Created by KiCad (PCBNEW (5.1.5-0-10_14)) date 2020-10-09 23:43:10*
%MOMM*%
%LPD*%
G04 APERTURE LIST*
%ADD10O,1.700000X1.700000*%
%ADD11R,1.700000X1.700000*%
%ADD12C,0.800000*%
%ADD13C,0.250000*%
G04 APERTURE END LIST*
D10*
X152400000Y-104140000D03*
X152400000Y-101600000D03*
X152400000Y-99060000D03*
X152400000Y-96520000D03*
X152400000Y-93980000D03*
X152400000Y-91440000D03*
X152400000Y-88900000D03*
X152400000Y-86360000D03*
X152400000Y-83820000D03*
X152400000Y-81280000D03*
X152400000Y-78740000D03*
X152400000Y-76200000D03*
X152400000Y-73660000D03*
X152400000Y-71120000D03*
D11*
X137160000Y-71120000D03*
D10*
X137160000Y-73660000D03*
X137160000Y-76200000D03*
X137160000Y-78740000D03*
X137160000Y-81280000D03*
X137160000Y-83820000D03*
X137160000Y-86360000D03*
X137160000Y-88900000D03*
X137160000Y-91440000D03*
X137160000Y-93980000D03*
X137160000Y-96520000D03*
X137160000Y-99060000D03*
X137160000Y-101600000D03*
X137160000Y-104140000D03*
D11*
X149860000Y-104140000D03*
D10*
X149860000Y-101600000D03*
X149860000Y-99060000D03*
X149860000Y-96520000D03*
X149860000Y-93980000D03*
X149860000Y-91440000D03*
X149860000Y-88900000D03*
X149860000Y-86360000D03*
X149860000Y-83820000D03*
X149860000Y-81280000D03*
X149860000Y-78740000D03*
X149860000Y-76200000D03*
X149860000Y-73660000D03*
X149860000Y-71120000D03*
X134620000Y-71120000D03*
X134620000Y-73660000D03*
X134620000Y-76200000D03*
X134620000Y-78740000D03*
X134620000Y-81280000D03*
X134620000Y-83820000D03*
X134620000Y-86360000D03*
X134620000Y-88900000D03*
X134620000Y-91440000D03*
X134620000Y-93980000D03*
X134620000Y-96520000D03*
X134620000Y-99060000D03*
X134620000Y-101600000D03*
X134620000Y-104140000D03*
D12*
X141762700Y-96441400D03*
X143631700Y-93342400D03*
X146620200Y-90579300D03*
X147783600Y-88900000D03*
X146063700Y-86339400D03*
X145354100Y-85634100D03*
X140484000Y-81945200D03*
X141556200Y-81885400D03*
X148250000Y-78672900D03*
D13*
X149860000Y-72295300D02*
X149492700Y-72295300D01*
X149492700Y-72295300D02*
X142807700Y-78980300D01*
X142807700Y-78980300D02*
X142807700Y-82468000D01*
X142807700Y-82468000D02*
X140361600Y-84914100D01*
X140361600Y-84914100D02*
X140361600Y-93969200D01*
X140361600Y-93969200D02*
X138896300Y-95434500D01*
X138896300Y-95434500D02*
X138896300Y-96466800D01*
X138896300Y-96466800D02*
X137573100Y-97790000D01*
X137573100Y-97790000D02*
X136765700Y-97790000D01*
X136765700Y-97790000D02*
X135984700Y-98571000D01*
X135984700Y-98571000D02*
X135984700Y-102156800D01*
X135984700Y-102156800D02*
X136792600Y-102964700D01*
X136792600Y-102964700D02*
X137160000Y-102964700D01*
X149860000Y-71120000D02*
X149860000Y-72295300D01*
X137160000Y-104140000D02*
X137160000Y-102964700D01*
X137160000Y-100424700D02*
X137527300Y-100424700D01*
X137527300Y-100424700D02*
X140022000Y-97930000D01*
X140022000Y-97930000D02*
X140022000Y-95659400D01*
X140022000Y-95659400D02*
X141937800Y-93743600D01*
X141937800Y-93743600D02*
X141937800Y-86113800D01*
X141937800Y-86113800D02*
X144871600Y-83180000D01*
X144871600Y-83180000D02*
X144871600Y-81004900D01*
X144871600Y-81004900D02*
X148471000Y-77405500D01*
X148471000Y-77405500D02*
X150355500Y-77405500D01*
X150355500Y-77405500D02*
X151035400Y-76725600D01*
X151035400Y-76725600D02*
X151035400Y-75707800D01*
X151035400Y-75707800D02*
X150162900Y-74835300D01*
X150162900Y-74835300D02*
X149860000Y-74835300D01*
X137160000Y-101600000D02*
X137160000Y-100424700D01*
X149860000Y-73660000D02*
X149860000Y-74835300D01*
X149860000Y-76200000D02*
X148684700Y-76200000D01*
X148684700Y-76200000D02*
X144262200Y-80622500D01*
X144262200Y-80622500D02*
X144262200Y-82834200D01*
X144262200Y-82834200D02*
X141487400Y-85609000D01*
X141487400Y-85609000D02*
X141487400Y-93557100D01*
X141487400Y-93557100D02*
X139571600Y-95472900D01*
X139571600Y-95472900D02*
X139571600Y-96648400D01*
X139571600Y-96648400D02*
X137160000Y-99060000D01*
X141762700Y-96441400D02*
X142838600Y-95365500D01*
X142838600Y-95365500D02*
X142838600Y-86486800D01*
X142838600Y-86486800D02*
X149410100Y-79915300D01*
X149410100Y-79915300D02*
X149860000Y-79915300D01*
X149860000Y-78740000D02*
X149860000Y-79915300D01*
X143631700Y-93342400D02*
X143631700Y-86330600D01*
X143631700Y-86330600D02*
X148682300Y-81280000D01*
X148682300Y-81280000D02*
X148684700Y-81280000D01*
X149860000Y-81280000D02*
X148684700Y-81280000D01*
X149860000Y-83820000D02*
X149860000Y-84995300D01*
X149860000Y-84995300D02*
X149492700Y-84995300D01*
X149492700Y-84995300D02*
X146620200Y-87867800D01*
X146620200Y-87867800D02*
X146620200Y-90579300D01*
X149860000Y-87535300D02*
X149148300Y-87535300D01*
X149148300Y-87535300D02*
X147783600Y-88900000D01*
X149860000Y-86360000D02*
X149860000Y-87535300D01*
X149860000Y-92804700D02*
X147819900Y-92804700D01*
X147819900Y-92804700D02*
X145885000Y-90869800D01*
X145885000Y-90869800D02*
X145885000Y-86518100D01*
X145885000Y-86518100D02*
X146063700Y-86339400D01*
X149860000Y-93980000D02*
X149860000Y-92804700D01*
X149860000Y-95344700D02*
X149492700Y-95344700D01*
X149492700Y-95344700D02*
X145325600Y-91177600D01*
X145325600Y-91177600D02*
X145325600Y-85662600D01*
X145325600Y-85662600D02*
X145354100Y-85634100D01*
X149860000Y-96520000D02*
X149860000Y-95344700D01*
X148684700Y-101600000D02*
X144469200Y-105815500D01*
X144469200Y-105815500D02*
X133860000Y-105815500D01*
X133860000Y-105815500D02*
X132943000Y-104898500D01*
X132943000Y-104898500D02*
X132943000Y-81222700D01*
X132943000Y-81222700D02*
X134061100Y-80104600D01*
X134061100Y-80104600D02*
X134919600Y-80104600D01*
X134919600Y-80104600D02*
X135984700Y-79039500D01*
X135984700Y-79039500D02*
X135984700Y-75643200D01*
X135984700Y-75643200D02*
X136792600Y-74835300D01*
X136792600Y-74835300D02*
X137160000Y-74835300D01*
X137160000Y-73660000D02*
X137160000Y-74835300D01*
X149860000Y-101600000D02*
X148684700Y-101600000D01*
X152400000Y-104140000D02*
X151224700Y-104140000D01*
X134620000Y-71120000D02*
X132490600Y-73249400D01*
X132490600Y-73249400D02*
X132490600Y-105138300D01*
X132490600Y-105138300D02*
X133621500Y-106269200D01*
X133621500Y-106269200D02*
X149903500Y-106269200D01*
X149903500Y-106269200D02*
X151224700Y-104948000D01*
X151224700Y-104948000D02*
X151224700Y-104140000D01*
X152400000Y-101600000D02*
X152400000Y-100424700D01*
X134620000Y-73660000D02*
X135795300Y-73660000D01*
X135795300Y-73660000D02*
X135795300Y-73292600D01*
X135795300Y-73292600D02*
X136603200Y-72484700D01*
X136603200Y-72484700D02*
X143274400Y-72484700D01*
X143274400Y-72484700D02*
X146790400Y-68968700D01*
X146790400Y-68968700D02*
X152558800Y-68968700D01*
X152558800Y-68968700D02*
X154540300Y-70950200D01*
X154540300Y-70950200D02*
X154540300Y-98651700D01*
X154540300Y-98651700D02*
X152767300Y-100424700D01*
X152767300Y-100424700D02*
X152400000Y-100424700D01*
X134620000Y-87724700D02*
X134987400Y-87724700D01*
X134987400Y-87724700D02*
X135795300Y-86916800D01*
X135795300Y-86916800D02*
X135795300Y-86060500D01*
X135795300Y-86060500D02*
X136806900Y-85048900D01*
X136806900Y-85048900D02*
X137611700Y-85048900D01*
X137611700Y-85048900D02*
X140483900Y-82176700D01*
X140483900Y-82176700D02*
X140483900Y-81945200D01*
X140483900Y-81945200D02*
X140484000Y-81945200D01*
X134620000Y-88900000D02*
X134620000Y-87724700D01*
X134620000Y-90264700D02*
X134252700Y-90264700D01*
X134252700Y-90264700D02*
X133441200Y-89453200D01*
X133441200Y-89453200D02*
X133441200Y-85871900D01*
X133441200Y-85871900D02*
X134317700Y-84995400D01*
X134317700Y-84995400D02*
X135145600Y-84995400D01*
X135145600Y-84995400D02*
X135984600Y-84156400D01*
X135984600Y-84156400D02*
X135984600Y-83294400D01*
X135984600Y-83294400D02*
X136729000Y-82550000D01*
X136729000Y-82550000D02*
X137606800Y-82550000D01*
X137606800Y-82550000D02*
X140752600Y-79404200D01*
X140752600Y-79404200D02*
X140752600Y-77882800D01*
X140752600Y-77882800D02*
X149190700Y-69444700D01*
X149190700Y-69444700D02*
X152397900Y-69444700D01*
X152397900Y-69444700D02*
X154053100Y-71099900D01*
X154053100Y-71099900D02*
X154053100Y-81358900D01*
X154053100Y-81358900D02*
X152767300Y-82644700D01*
X152767300Y-82644700D02*
X152400000Y-82644700D01*
X152400000Y-83820000D02*
X152400000Y-82644700D01*
X134620000Y-91440000D02*
X134620000Y-90264700D01*
X134620000Y-92804700D02*
X134987400Y-92804700D01*
X134987400Y-92804700D02*
X135795300Y-91996800D01*
X135795300Y-91996800D02*
X135795300Y-91103700D01*
X135795300Y-91103700D02*
X136729000Y-90170000D01*
X136729000Y-90170000D02*
X137632700Y-90170000D01*
X137632700Y-90170000D02*
X138983500Y-88819200D01*
X138983500Y-88819200D02*
X138983500Y-84609900D01*
X138983500Y-84609900D02*
X141556200Y-82037200D01*
X141556200Y-82037200D02*
X141556200Y-81885400D01*
X134620000Y-93980000D02*
X134620000Y-92804700D01*
X134620000Y-96520000D02*
X133444600Y-97695400D01*
X133444600Y-97695400D02*
X133444600Y-104696200D01*
X133444600Y-104696200D02*
X134091000Y-105342600D01*
X134091000Y-105342600D02*
X137693500Y-105342600D01*
X137693500Y-105342600D02*
X141019500Y-102016600D01*
X141019500Y-102016600D02*
X141019500Y-95308700D01*
X141019500Y-95308700D02*
X142388200Y-93940000D01*
X142388200Y-93940000D02*
X142388200Y-86300300D01*
X142388200Y-86300300D02*
X148250000Y-80438500D01*
X148250000Y-80438500D02*
X148250000Y-78672900D01*
X152400000Y-76200000D02*
X151035400Y-74835400D01*
X151035400Y-74835400D02*
X151035400Y-70618400D01*
X151035400Y-70618400D02*
X150313700Y-69896700D01*
X150313700Y-69896700D02*
X149385800Y-69896700D01*
X149385800Y-69896700D02*
X142357400Y-76925100D01*
X142357400Y-76925100D02*
X142357400Y-82281400D01*
X142357400Y-82281400D02*
X139461000Y-85177800D01*
X139461000Y-85177800D02*
X139461000Y-93357000D01*
X139461000Y-93357000D02*
X137568000Y-95250000D01*
X137568000Y-95250000D02*
X136699900Y-95250000D01*
X136699900Y-95250000D02*
X135795300Y-96154600D01*
X135795300Y-96154600D02*
X135795300Y-97006900D01*
X135795300Y-97006900D02*
X134917500Y-97884700D01*
X134917500Y-97884700D02*
X134620000Y-97884700D01*
X134620000Y-99060000D02*
X134620000Y-97884700D01*
X152400000Y-73660000D02*
X152400000Y-74835300D01*
X149860000Y-104140000D02*
X149860000Y-102964700D01*
X149860000Y-102964700D02*
X150227400Y-102964700D01*
X150227400Y-102964700D02*
X151035300Y-102156800D01*
X151035300Y-102156800D02*
X151035300Y-80953900D01*
X151035300Y-80953900D02*
X151884600Y-80104600D01*
X151884600Y-80104600D02*
X152708900Y-80104600D01*
X152708900Y-80104600D02*
X153575300Y-79238200D01*
X153575300Y-79238200D02*
X153575300Y-75643200D01*
X153575300Y-75643200D02*
X152767400Y-74835300D01*
X152767400Y-74835300D02*
X152400000Y-74835300D01*
M02*
