G04 #@! TF.GenerationSoftware,KiCad,Pcbnew,(5.1.5-0-10_14)*
G04 #@! TF.CreationDate,2020-10-22T20:12:41+02:00*
G04 #@! TF.ProjectId,es_twister,65735f74-7769-4737-9465-722e6b696361,rev?*
G04 #@! TF.SameCoordinates,Original*
G04 #@! TF.FileFunction,Copper,L2,Bot*
G04 #@! TF.FilePolarity,Positive*
%FSLAX46Y46*%
G04 Gerber Fmt 4.6, Leading zero omitted, Abs format (unit mm)*
G04 Created by KiCad (PCBNEW (5.1.5-0-10_14)) date 2020-10-22 20:12:41*
%MOMM*%
%LPD*%
G04 APERTURE LIST*
%ADD10O,1.700000X1.700000*%
%ADD11R,1.700000X1.700000*%
%ADD12C,0.800000*%
%ADD13C,0.250000*%
G04 APERTURE END LIST*
D10*
X152400000Y-104140000D03*
X152400000Y-101600000D03*
X152400000Y-99060000D03*
X152400000Y-96520000D03*
X152400000Y-93980000D03*
X152400000Y-91440000D03*
X152400000Y-88900000D03*
X152400000Y-86360000D03*
X152400000Y-83820000D03*
X152400000Y-81280000D03*
X152400000Y-78740000D03*
X152400000Y-76200000D03*
X152400000Y-73660000D03*
X152400000Y-71120000D03*
D11*
X137160000Y-71120000D03*
D10*
X137160000Y-73660000D03*
X137160000Y-76200000D03*
X137160000Y-78740000D03*
X137160000Y-81280000D03*
X137160000Y-83820000D03*
X137160000Y-86360000D03*
X137160000Y-88900000D03*
X137160000Y-91440000D03*
X137160000Y-93980000D03*
X137160000Y-96520000D03*
X137160000Y-99060000D03*
X137160000Y-101600000D03*
X137160000Y-104140000D03*
D11*
X149860000Y-104140000D03*
D10*
X149860000Y-101600000D03*
X149860000Y-99060000D03*
X149860000Y-96520000D03*
X149860000Y-93980000D03*
X149860000Y-91440000D03*
X149860000Y-88900000D03*
X149860000Y-86360000D03*
X149860000Y-83820000D03*
X149860000Y-81280000D03*
X149860000Y-78740000D03*
X149860000Y-76200000D03*
X149860000Y-73660000D03*
X149860000Y-71120000D03*
X134620000Y-71120000D03*
X134620000Y-73660000D03*
X134620000Y-76200000D03*
X134620000Y-78740000D03*
X134620000Y-81280000D03*
X134620000Y-83820000D03*
X134620000Y-86360000D03*
X134620000Y-88900000D03*
X134620000Y-91440000D03*
X134620000Y-93980000D03*
X134620000Y-96520000D03*
X134620000Y-99060000D03*
X134620000Y-101600000D03*
X134620000Y-104140000D03*
D12*
X141762700Y-96441400D03*
X143631700Y-93342400D03*
X146620200Y-90579300D03*
X147783600Y-88900000D03*
X146063700Y-86339400D03*
X145354100Y-85634100D03*
X140484000Y-81945200D03*
X141556200Y-81885400D03*
X148250000Y-78672900D03*
D13*
X138335300Y-96520000D02*
X141684100Y-96520000D01*
X141684100Y-96520000D02*
X141762700Y-96441400D01*
X137160000Y-96520000D02*
X138335300Y-96520000D01*
X138335300Y-93980000D02*
X138972900Y-93342400D01*
X138972900Y-93342400D02*
X143631700Y-93342400D01*
X137160000Y-93980000D02*
X138335300Y-93980000D01*
X137160000Y-91440000D02*
X138335300Y-91440000D01*
X146620200Y-90579300D02*
X139196000Y-90579300D01*
X139196000Y-90579300D02*
X138335300Y-91440000D01*
X147783600Y-88900000D02*
X138335300Y-88900000D01*
X137160000Y-88900000D02*
X138335300Y-88900000D01*
X148684700Y-88900000D02*
X148684700Y-88775300D01*
X148684700Y-88775300D02*
X148084100Y-88174700D01*
X148084100Y-88174700D02*
X140150000Y-88174700D01*
X140150000Y-88174700D02*
X138335300Y-86360000D01*
X137160000Y-86360000D02*
X138335300Y-86360000D01*
X149860000Y-88900000D02*
X148684700Y-88900000D01*
X149860000Y-90264700D02*
X150227300Y-90264700D01*
X150227300Y-90264700D02*
X151035400Y-89456600D01*
X151035400Y-89456600D02*
X151035400Y-88374400D01*
X151035400Y-88374400D02*
X150291000Y-87630000D01*
X150291000Y-87630000D02*
X142145300Y-87630000D01*
X142145300Y-87630000D02*
X138335300Y-83820000D01*
X137160000Y-83820000D02*
X138335300Y-83820000D01*
X149860000Y-91440000D02*
X149860000Y-90264700D01*
X138335300Y-81280000D02*
X138335300Y-81459100D01*
X138335300Y-81459100D02*
X143235600Y-86359400D01*
X143235600Y-86359400D02*
X146043700Y-86359400D01*
X146043700Y-86359400D02*
X146063700Y-86339400D01*
X137160000Y-81280000D02*
X138335300Y-81280000D01*
X137160000Y-79915300D02*
X137651600Y-79915300D01*
X137651600Y-79915300D02*
X139571000Y-81834700D01*
X139571000Y-81834700D02*
X139571000Y-82057900D01*
X139571000Y-82057900D02*
X143147200Y-85634100D01*
X143147200Y-85634100D02*
X145354100Y-85634100D01*
X137160000Y-78740000D02*
X137160000Y-79915300D01*
X137160000Y-76200000D02*
X135984700Y-76200000D01*
X149860000Y-99060000D02*
X140957100Y-99060000D01*
X140957100Y-99060000D02*
X139641800Y-97744700D01*
X139641800Y-97744700D02*
X134129400Y-97744700D01*
X134129400Y-97744700D02*
X132469300Y-96084600D01*
X132469300Y-96084600D02*
X132469300Y-79210900D01*
X132469300Y-79210900D02*
X134304900Y-77375300D01*
X134304900Y-77375300D02*
X135176800Y-77375300D01*
X135176800Y-77375300D02*
X135984700Y-76567400D01*
X135984700Y-76567400D02*
X135984700Y-76200000D01*
X152400000Y-99060000D02*
X152400000Y-97884700D01*
X134620000Y-76200000D02*
X135825100Y-74994900D01*
X135825100Y-74994900D02*
X152918700Y-74994900D01*
X152918700Y-74994900D02*
X154035600Y-76111800D01*
X154035600Y-76111800D02*
X154035600Y-96616400D01*
X154035600Y-96616400D02*
X152767300Y-97884700D01*
X152767300Y-97884700D02*
X152400000Y-97884700D01*
X152400000Y-96520000D02*
X151224700Y-96520000D01*
X134620000Y-78740000D02*
X134620000Y-79915300D01*
X134620000Y-79915300D02*
X134252700Y-79915300D01*
X134252700Y-79915300D02*
X132919700Y-81248300D01*
X132919700Y-81248300D02*
X132919700Y-91490600D01*
X132919700Y-91490600D02*
X134157600Y-92728500D01*
X134157600Y-92728500D02*
X135060100Y-92728500D01*
X135060100Y-92728500D02*
X135890000Y-93558400D01*
X135890000Y-93558400D02*
X135890000Y-94415700D01*
X135890000Y-94415700D02*
X136629600Y-95155300D01*
X136629600Y-95155300D02*
X141527800Y-95155300D01*
X141527800Y-95155300D02*
X144067800Y-97695300D01*
X144067800Y-97695300D02*
X150416800Y-97695300D01*
X150416800Y-97695300D02*
X151224700Y-96887400D01*
X151224700Y-96887400D02*
X151224700Y-96520000D01*
X134620000Y-82455300D02*
X134252700Y-82455300D01*
X134252700Y-82455300D02*
X133408900Y-83299100D01*
X133408900Y-83299100D02*
X133408900Y-89360300D01*
X133408900Y-89360300D02*
X134313200Y-90264600D01*
X134313200Y-90264600D02*
X135145600Y-90264600D01*
X135145600Y-90264600D02*
X135890000Y-91009000D01*
X135890000Y-91009000D02*
X135890000Y-91872200D01*
X135890000Y-91872200D02*
X136633100Y-92615300D01*
X136633100Y-92615300D02*
X144452400Y-92615300D01*
X144452400Y-92615300D02*
X146992400Y-95155300D01*
X146992400Y-95155300D02*
X150416800Y-95155300D01*
X150416800Y-95155300D02*
X151224700Y-94347400D01*
X151224700Y-94347400D02*
X151224700Y-93980000D01*
X152400000Y-93980000D02*
X151224700Y-93980000D01*
X134620000Y-81280000D02*
X134620000Y-82455300D01*
X135795300Y-83820000D02*
X135795300Y-83452600D01*
X135795300Y-83452600D02*
X136603200Y-82644700D01*
X136603200Y-82644700D02*
X138884000Y-82644700D01*
X138884000Y-82644700D02*
X143304000Y-87064700D01*
X143304000Y-87064700D02*
X147098400Y-87064700D01*
X147098400Y-87064700D02*
X148981500Y-85181600D01*
X148981500Y-85181600D02*
X150382600Y-85181600D01*
X150382600Y-85181600D02*
X151035400Y-85834400D01*
X151035400Y-85834400D02*
X151035400Y-86745600D01*
X151035400Y-86745600D02*
X151901900Y-87612100D01*
X151901900Y-87612100D02*
X152776400Y-87612100D01*
X152776400Y-87612100D02*
X153575300Y-88411000D01*
X153575300Y-88411000D02*
X153575300Y-89456800D01*
X153575300Y-89456800D02*
X152767400Y-90264700D01*
X152767400Y-90264700D02*
X152400000Y-90264700D01*
X152400000Y-91440000D02*
X152400000Y-90264700D01*
X134620000Y-83820000D02*
X135795300Y-83820000D01*
X152400000Y-88900000D02*
X151130000Y-90170000D01*
X151130000Y-90170000D02*
X151130000Y-91871000D01*
X151130000Y-91871000D02*
X150385600Y-92615400D01*
X150385600Y-92615400D02*
X149346400Y-92615400D01*
X149346400Y-92615400D02*
X147406900Y-90675900D01*
X147406900Y-90675900D02*
X147406900Y-90299700D01*
X147406900Y-90299700D02*
X146899800Y-89792600D01*
X146899800Y-89792600D02*
X145996300Y-89792600D01*
X145996300Y-89792600D02*
X145679600Y-90109300D01*
X145679600Y-90109300D02*
X136705100Y-90109300D01*
X136705100Y-90109300D02*
X135795300Y-89199500D01*
X135795300Y-89199500D02*
X135795300Y-88343200D01*
X135795300Y-88343200D02*
X134987400Y-87535300D01*
X134987400Y-87535300D02*
X134620000Y-87535300D01*
X134620000Y-86360000D02*
X134620000Y-87535300D01*
X140484000Y-81945200D02*
X141183400Y-82644600D01*
X141183400Y-82644600D02*
X150385600Y-82644600D01*
X150385600Y-82644600D02*
X151224700Y-83483700D01*
X151224700Y-83483700D02*
X151224700Y-84376800D01*
X151224700Y-84376800D02*
X152032600Y-85184700D01*
X152032600Y-85184700D02*
X152400000Y-85184700D01*
X152400000Y-86360000D02*
X152400000Y-85184700D01*
X152400000Y-81280000D02*
X151224700Y-81280000D01*
X151224700Y-81280000D02*
X151224700Y-80912700D01*
X151224700Y-80912700D02*
X150401400Y-80089400D01*
X150401400Y-80089400D02*
X143352200Y-80089400D01*
X143352200Y-80089400D02*
X141556200Y-81885400D01*
X151224700Y-78740000D02*
X151224700Y-78372700D01*
X151224700Y-78372700D02*
X150416600Y-77564600D01*
X150416600Y-77564600D02*
X149358300Y-77564600D01*
X149358300Y-77564600D02*
X148250000Y-78672900D01*
X152400000Y-78740000D02*
X151224700Y-78740000D01*
X152400000Y-71120000D02*
X152400000Y-72295300D01*
X134620000Y-104140000D02*
X135795300Y-104140000D01*
X135795300Y-104140000D02*
X135795300Y-104507300D01*
X135795300Y-104507300D02*
X136644600Y-105356600D01*
X136644600Y-105356600D02*
X152869700Y-105356600D01*
X152869700Y-105356600D02*
X154488100Y-103738200D01*
X154488100Y-103738200D02*
X154488100Y-74016100D01*
X154488100Y-74016100D02*
X152767300Y-72295300D01*
X152767300Y-72295300D02*
X152400000Y-72295300D01*
X134620000Y-101600000D02*
X135795300Y-101600000D01*
X149860000Y-104140000D02*
X148684700Y-104140000D01*
X148684700Y-104140000D02*
X147320000Y-102775300D01*
X147320000Y-102775300D02*
X136603200Y-102775300D01*
X136603200Y-102775300D02*
X135795300Y-101967400D01*
X135795300Y-101967400D02*
X135795300Y-101600000D01*
X152400000Y-73660000D02*
X151224700Y-73660000D01*
X137160000Y-71120000D02*
X138335300Y-71120000D01*
X138335300Y-71120000D02*
X139700000Y-72484700D01*
X139700000Y-72484700D02*
X150416800Y-72484700D01*
X150416800Y-72484700D02*
X151224700Y-73292600D01*
X151224700Y-73292600D02*
X151224700Y-73660000D01*
M02*
